<?xml version="1.0" encoding="UTF-8" standalone="no"?>
<svg xmlns:xlink="http://www.w3.org/1999/xlink" height="34.2px" width="19.0px" xmlns="http://www.w3.org/2000/svg">
  <g transform="matrix(1.0, 0.0, 0.0, 1.0, 9.45, 17.1)">
    <use height="34.2" transform="matrix(1.0, 0.0, 0.0, 1.0, -9.45, -17.1)" width="19.0" xlink:href="#shape0"/>
  </g>
  <defs>
    <g id="shape0" transform="matrix(1.0, 0.0, 0.0, 1.0, 9.45, 17.1)">
      <path d="M8.6 -12.65 Q8.25 -13.9 6.1 -14.85 3.6 -15.95 0.1 -15.95 -3.4 -15.95 -5.95 -14.85 -8.05 -13.9 -8.35 -12.65 -8.05 -13.9 -5.95 -14.85 -3.4 -15.95 0.1 -15.95 3.6 -15.95 6.1 -14.85 8.25 -13.9 8.6 -12.65 L8.55 -12.55 8.5 -12.35 Q8.0 -11.3 6.1 -10.5 3.6 -9.35 0.1 -9.35 -3.4 -9.35 -5.95 -10.5 -8.0 -11.4 -8.35 -12.6 -8.0 -11.4 -5.95 -10.5 -3.4 -9.35 0.1 -9.35 3.6 -9.35 6.1 -10.5 8.0 -11.3 8.5 -12.35 L8.65 -12.0 8.55 -11.65 Q8.0 -10.4 6.1 -9.6 3.6 -8.45 0.1 -8.45 -3.4 -8.45 -5.95 -9.6 -8.0 -10.5 -8.35 -11.7 L-8.4 -12.2 -8.4 -12.45 -8.35 -12.6 -8.35 -12.65 -8.4 -13.1 Q-8.45 -14.65 -5.95 -15.75 -3.4 -16.85 0.1 -16.85 3.6 -16.85 6.1 -15.75 8.65 -14.65 8.65 -13.1 L8.6 -12.65 M8.15 12.95 L7.75 13.95 Q7.15 14.8 5.8 15.55 3.4 16.85 0.05 16.85 -3.3 16.85 -5.7 15.55 L-7.65 13.95 -8.0 13.0 Q0.25 17.55 8.15 12.95" fill="url(#gradient0)" fill-rule="evenodd" stroke="none"/>
      <path d="M8.65 -12.0 L9.3 -10.55 Q6.3 -6.5 -0.45 -6.65 -7.8 -7.05 -9.2 -10.55 L-8.4 -12.45 -8.4 -12.2 -8.35 -11.7 Q-8.0 -10.5 -5.95 -9.6 -3.4 -8.45 0.1 -8.45 3.6 -8.45 6.1 -9.6 8.0 -10.4 8.55 -11.65 L8.65 -12.0" fill="#194b7a" fill-rule="evenodd" stroke="none"/>
      <path d="M9.3 -10.55 L9.2 -7.0 8.2 -5.55 5.35 -2.35 Q4.25 -1.2 1.35 0.55 -3.75 3.55 -5.0 6.0 -6.0 7.75 -6.05 8.35 L-6.5 11.2 -6.5 11.65 Q-6.0 10.0 -5.0 9.15 L-1.0 4.9 Q2.3 2.8 5.4 1.9 7.4 1.3 9.05 0.0 L8.95 3.6 6.75 5.55 4.75 7.05 3.95 7.6 Q2.85 8.3 1.9 9.25 -0.45 11.25 -2.1 13.95 L0.6 12.3 3.4 11.15 6.3 9.85 8.8 8.65 8.75 11.15 8.15 12.95 Q0.25 17.55 -8.0 13.0 L-8.6 11.15 -9.2 -10.55 Q-7.8 -7.05 -0.45 -6.65 6.3 -6.5 9.3 -10.55 M-5.55 -1.55 Q-6.3 -1.55 -6.85 -1.05 -7.35 -0.55 -7.3 0.2 -7.35 0.95 -6.85 1.45 -6.3 1.95 -5.55 1.95 -4.85 1.95 -4.35 1.45 -3.8 0.95 -3.8 0.2 -3.8 -0.55 -4.35 -1.05 -4.85 -1.55 -5.55 -1.55 M2.05 6.1 Q1.65 5.65 1.0 5.65 0.35 5.65 -0.05 6.1 -0.5 6.5 -0.45 7.15 -0.5 7.8 -0.05 8.2 0.35 8.65 1.0 8.65 1.65 8.65 2.05 8.2 L2.5 7.15 Q2.5 6.5 2.05 6.1 M1.25 -0.8 Q1.95 -1.5 1.95 -2.5 1.95 -3.5 1.25 -4.2 0.5 -4.95 -0.45 -4.95 -1.45 -4.95 -2.2 -4.2 -2.9 -3.5 -2.9 -2.5 -2.9 -1.5 -2.2 -0.8 -1.45 -0.1 -0.45 -0.05 0.5 -0.1 1.25 -0.8" fill="url(#gradient1)" fill-rule="evenodd" stroke="none"/>
      <path d="M9.2 -7.0 L9.05 0.0 Q7.4 1.3 5.4 1.9 2.3 2.8 -1.0 4.9 L-5.0 9.15 Q-6.0 10.0 -6.5 11.65 L-6.5 11.2 -6.05 8.35 Q-6.0 7.75 -5.0 6.0 -3.75 3.55 1.35 0.55 4.25 -1.2 5.35 -2.35 L8.2 -5.55 9.2 -7.0 M8.95 3.6 L8.8 8.65 6.3 9.85 3.4 11.15 0.6 12.3 -2.1 13.95 Q-0.45 11.25 1.9 9.25 2.85 8.3 3.95 7.6 L4.75 7.05 6.75 5.55 8.95 3.6 M1.25 -0.8 Q0.5 -0.1 -0.45 -0.05 -1.45 -0.1 -2.2 -0.8 -2.9 -1.5 -2.9 -2.5 -2.9 -3.5 -2.2 -4.2 -1.45 -4.95 -0.45 -4.95 0.5 -4.95 1.25 -4.2 1.95 -3.5 1.95 -2.5 1.95 -1.5 1.25 -0.8 M2.05 6.1 Q2.5 6.5 2.5 7.15 L2.05 8.2 Q1.65 8.65 1.0 8.65 0.35 8.65 -0.05 8.2 -0.5 7.8 -0.45 7.15 -0.5 6.5 -0.05 6.1 0.35 5.65 1.0 5.65 1.65 5.65 2.05 6.1 M-5.55 -1.55 Q-4.85 -1.55 -4.35 -1.05 -3.8 -0.55 -3.8 0.2 -3.8 0.95 -4.35 1.45 -4.85 1.95 -5.55 1.95 -6.3 1.95 -6.85 1.45 -7.35 0.95 -7.3 0.2 -7.35 -0.55 -6.85 -1.05 -6.3 -1.55 -5.55 -1.55" fill="#2e3668" fill-rule="evenodd" stroke="none"/>
      <path d="M-8.35 -12.65 Q-8.05 -13.9 -5.95 -14.85 -3.4 -15.95 0.1 -15.95 3.6 -15.95 6.1 -14.85 8.25 -13.9 8.6 -12.65 L8.65 -13.1 Q8.65 -14.65 6.1 -15.75 3.6 -16.85 0.1 -16.85 -3.4 -16.85 -5.95 -15.75 -8.45 -14.65 -8.4 -13.1 L-8.35 -12.65 -8.35 -12.6 Q-8.0 -11.4 -5.95 -10.5 -3.4 -9.35 0.1 -9.35 3.6 -9.35 6.1 -10.5 8.0 -11.3 8.5 -12.35 L8.65 -12.0 8.55 -11.65 Q8.0 -10.4 6.1 -9.6 3.6 -8.45 0.1 -8.45 -3.4 -8.45 -5.95 -9.6 -8.0 -10.5 -8.35 -11.7 L-8.4 -12.2 -8.4 -12.45 -8.35 -12.6 M8.55 -12.55 L8.6 -12.65 8.65 -12.2 8.65 -12.0 M8.15 12.95 L7.75 13.95 Q7.15 14.8 5.8 15.55 3.4 16.85 0.05 16.85 -3.3 16.85 -5.7 15.55 L-7.65 13.95 -8.0 13.0 M-8.4 -12.45 L-8.35 -12.65" fill="none" stroke="#666666" stroke-linecap="round" stroke-linejoin="round" stroke-width="0.5"/>
      <path d="M8.65 -12.0 L9.3 -10.55 9.2 -7.0 9.05 0.0 8.95 3.6 8.8 8.65 8.75 11.15 8.15 12.95 M-8.0 13.0 L-8.6 11.15 -9.2 -10.55 -8.4 -12.45" fill="none" stroke="#1d2441" stroke-linecap="round" stroke-linejoin="round" stroke-width="0.5"/>
      <path d="M5.4 -14.0 Q6.2 -13.8 6.1 -13.0 6.0 -12.15 5.35 -11.5 4.65 -10.85 3.7 -11.0 2.75 -11.15 2.1 -11.6 1.4 -12.15 1.4 -12.7 1.4 -13.25 2.1 -13.65 2.75 -14.05 3.65 -14.15 L5.4 -14.0" fill="#000000" fill-rule="evenodd" stroke="none"/>
      <path d="M5.4 -14.0 Q6.2 -13.8 6.1 -13.0 6.0 -12.15 5.35 -11.5 4.65 -10.85 3.7 -11.0 2.75 -11.15 2.1 -11.6 1.4 -12.15 1.4 -12.7 1.4 -13.25 2.1 -13.65 2.75 -14.05 3.65 -14.15 L5.4 -14.0 Z" fill="none" stroke="#666666" stroke-linecap="round" stroke-linejoin="round" stroke-width="0.5"/>
      <path d="M-3.0 -14.7 L-3.15 -14.15 -2.65 -13.8 -1.85 -13.85 Q-1.45 -13.95 -1.2 -14.25 -0.95 -14.6 -1.05 -14.85 -1.15 -15.1 -1.55 -15.2 L-2.35 -15.15 -3.0 -14.7 M1.35 -12.7 L0.05 -12.6 -3.35 -13.4 -4.15 -13.95 Q-4.3 -14.4 -3.95 -14.85 L-3.9 -14.85 -2.85 -15.6 -1.55 -15.7 1.8 -14.9 Q2.4 -14.8 2.6 -14.35 2.75 -13.95 2.4 -13.45 L2.35 -13.45 Q2.0 -13.0 1.35 -12.7 M1.05 -14.6 L0.25 -14.55 -0.4 -14.1 Q-0.65 -13.8 -0.5 -13.55 L-0.05 -13.2 0.75 -13.25 Q1.15 -13.4 1.4 -13.7 1.65 -14.0 1.55 -14.25 L1.05 -14.6" fill="url(#gradient2)" fill-rule="evenodd" stroke="none"/>
      <path d="M1.05 -14.6 L1.55 -14.25 Q1.65 -14.0 1.4 -13.7 1.15 -13.4 0.75 -13.25 L-0.05 -13.2 -0.5 -13.55 Q-0.65 -13.8 -0.4 -14.1 L0.25 -14.55 1.05 -14.6 M1.35 -12.7 Q2.0 -13.0 2.35 -13.45 L2.4 -13.45 Q2.75 -13.95 2.6 -14.35 2.4 -14.8 1.8 -14.9 L-1.55 -15.7 -2.85 -15.6 -3.9 -14.85 -3.95 -14.85 Q-4.3 -14.4 -4.15 -13.95 L-3.35 -13.4 0.05 -12.6 1.35 -12.7 M-3.0 -14.7 L-2.35 -15.15 -1.55 -15.2 Q-1.15 -15.1 -1.05 -14.85 -0.95 -14.6 -1.2 -14.25 -1.45 -13.95 -1.85 -13.85 L-2.65 -13.8 -3.15 -14.15 -3.0 -14.7" fill="none" stroke="#666666" stroke-linecap="round" stroke-linejoin="round" stroke-width="0.5"/>
    </g>
    <linearGradient gradientTransform="matrix(0.0104, 0.0, 0.0, 0.0046, 0.1, -13.1)" gradientUnits="userSpaceOnUse" id="gradient0" spreadMethod="pad" x1="-819.2" x2="819.2">
      <stop offset="0.0784313725490196" stop-color="#d5d5d5"/>
      <stop offset="0.39215686274509803" stop-color="#9b9b9b"/>
      <stop offset="0.596078431372549" stop-color="#cccccc"/>
      <stop offset="0.7490196078431373" stop-color="#c8c8c8"/>
      <stop offset="1.0" stop-color="#444444"/>
    </linearGradient>
    <linearGradient gradientTransform="matrix(0.0113, 0.0, 0.0, 0.0157, 0.0, 2.35)" gradientUnits="userSpaceOnUse" id="gradient1" spreadMethod="pad" x1="-819.2" x2="819.2">
      <stop offset="0.023529411764705882" stop-color="#333366"/>
      <stop offset="0.5372549019607843" stop-color="#016087"/>
      <stop offset="1.0" stop-color="#244275"/>
    </linearGradient>
    <linearGradient gradientTransform="matrix(-0.0037, 0.0013, -9.0E-4, -0.0023, -0.75, -14.15)" gradientUnits="userSpaceOnUse" id="gradient2" spreadMethod="pad" x1="-819.2" x2="819.2">
      <stop offset="0.0784313725490196" stop-color="#4d4d4d"/>
      <stop offset="0.39215686274509803" stop-color="#9b9b9b"/>
      <stop offset="0.596078431372549" stop-color="#cccccc"/>
      <stop offset="0.7490196078431373" stop-color="#c8c8c8"/>
      <stop offset="1.0" stop-color="#444444"/>
    </linearGradient>
  </defs>
</svg>
