<?xml version="1.0" encoding="UTF-8" standalone="no"?>
<svg xmlns:xlink="http://www.w3.org/1999/xlink" height="33.5px" width="18.35px" xmlns="http://www.w3.org/2000/svg">
  <g transform="matrix(1.0, 0.0, 0.0, 1.0, 9.15, 16.75)">
    <use height="33.5" transform="matrix(1.0, 0.0, 0.0, 1.0, -9.15, -16.75)" width="18.35" xlink:href="#shape0"/>
  </g>
  <defs>
    <g id="shape0" transform="matrix(1.0, 0.0, 0.0, 1.0, 9.15, 16.75)">
      <path d="M-8.7 -12.3 L-8.75 -12.75 Q-8.8 -14.3 -6.25 -15.4 -3.75 -16.5 -0.25 -16.5 3.25 -16.5 5.8 -15.4 8.3 -14.3 8.3 -12.75 L8.25 -12.3 Q7.9 -13.55 5.8 -14.5 3.25 -15.6 -0.25 -15.6 -3.75 -15.6 -6.25 -14.5 -8.4 -13.55 -8.7 -12.3 -8.4 -13.55 -6.25 -14.5 -3.75 -15.6 -0.25 -15.6 3.25 -15.6 5.8 -14.5 7.9 -13.55 8.25 -12.3 L8.2 -12.25 8.25 -12.1 8.3 -11.85 8.2 -11.35 Q7.85 -10.15 5.8 -9.25 3.25 -8.1 -0.25 -8.1 -3.75 -8.1 -6.25 -9.25 -8.15 -10.05 -8.7 -11.3 L-8.75 -11.65 -8.6 -12.0 -8.7 -12.2 -8.7 -12.3 M8.2 -12.25 Q7.85 -11.05 5.8 -10.15 3.25 -9.0 -0.25 -9.0 -3.75 -9.0 -6.25 -10.15 -8.15 -10.95 -8.6 -12.0 -8.15 -10.95 -6.25 -10.15 -3.75 -9.0 -0.25 -9.0 3.25 -9.0 5.8 -10.15 7.85 -11.05 8.2 -12.25" fill="url(#gradient0)" fill-rule="evenodd" stroke="none"/>
      <path d="M8.25 -12.1 L8.95 -9.75 Q7.65 -6.7 0.35 -6.3 -6.45 -6.15 -8.8 -10.0 L-8.75 -11.65 -8.7 -11.3 Q-8.15 -10.05 -6.25 -9.25 -3.75 -8.1 -0.25 -8.1 3.25 -8.1 5.8 -9.25 7.85 -10.15 8.2 -11.35 L8.3 -11.85 8.25 -12.1" fill="#3caa73" fill-rule="evenodd" stroke="none"/>
      <path d="M3.15 -4.35 Q3.8 -3.65 3.8 -2.7 3.8 -1.75 3.15 -1.1 2.45 -0.4 1.5 -0.4 0.55 -0.4 -0.1 -1.1 -0.8 -1.75 -0.8 -2.7 -0.8 -3.65 -0.1 -4.35 0.55 -5.0 1.5 -5.0 2.45 -5.0 3.15 -4.35 M2.05 5.45 L1.05 5.75 Q0.4 5.75 -0.05 5.3 -0.5 4.85 -0.5 4.2 -0.5 3.55 -0.05 3.1 0.4 2.65 1.05 2.65 1.7 2.65 2.15 3.1 2.6 3.55 2.6 4.2 L2.6 4.5 2.05 5.45 M0.0 11.25 L0.0 11.6 -0.1 12.05 -0.8 13.25 Q-1.6 14.1 -2.75 14.2 -3.9 14.3 -4.7 13.6 -5.35 12.95 -5.45 12.05 L-5.5 11.85 -5.5 11.75 Q-5.4 10.75 -4.7 10.05 -3.9 9.25 -2.75 9.25 -1.6 9.25 -0.8 10.05 -0.25 10.6 -0.1 11.25 L0.0 11.25 M-1.6 -4.4 Q-1.1 -3.85 -1.1 -3.15 -1.1 -2.45 -1.6 -1.95 -2.15 -1.4 -2.85 -1.4 -3.55 -1.4 -4.05 -1.95 -4.6 -2.45 -4.6 -3.15 -4.6 -3.85 -4.05 -4.4 -3.55 -4.9 -2.85 -4.9 -2.15 -4.9 -1.6 -4.4" fill="#297850" fill-rule="evenodd" stroke="none"/>
      <path d="M8.95 -9.75 Q8.9 -7.8 8.05 -5.35 L7.3 -3.4 2.6 4.5 2.6 4.2 Q2.6 3.55 2.15 3.1 1.7 2.65 1.05 2.65 0.4 2.65 -0.05 3.1 -0.5 3.55 -0.5 4.2 -0.5 4.85 -0.05 5.3 0.4 5.75 1.05 5.75 L2.05 5.45 0.75 7.55 7.3 10.55 0.0 11.25 -0.1 11.25 Q-0.25 10.6 -0.8 10.05 -1.6 9.25 -2.75 9.25 -3.9 9.25 -4.7 10.05 -5.4 10.75 -5.5 11.75 L-8.9 12.05 -8.9 11.65 -8.85 11.5 -1.85 2.15 -5.45 -1.45 -7.45 -5.35 Q-8.85 -8.3 -8.8 -10.0 -6.45 -6.15 0.35 -6.3 7.65 -6.7 8.95 -9.75 M3.15 -4.35 Q2.45 -5.0 1.5 -5.0 0.55 -5.0 -0.1 -4.35 -0.8 -3.65 -0.8 -2.7 -0.8 -1.75 -0.1 -1.1 0.55 -0.4 1.5 -0.4 2.45 -0.4 3.15 -1.1 3.8 -1.75 3.8 -2.7 3.8 -3.65 3.15 -4.35 M-1.6 -4.4 Q-2.15 -4.9 -2.85 -4.9 -3.55 -4.9 -4.05 -4.4 -4.6 -3.85 -4.6 -3.15 -4.6 -2.45 -4.05 -1.95 -3.55 -1.4 -2.85 -1.4 -2.15 -1.4 -1.6 -1.95 -1.1 -2.45 -1.1 -3.15 -1.1 -3.85 -1.6 -4.4" fill="url(#gradient1)" fill-rule="evenodd" stroke="none"/>
      <path d="M7.3 10.55 Q7.85 11.15 7.9 11.85 L7.55 12.05 Q-0.55 17.05 -8.3 13.25 -8.8 12.85 -8.9 12.05 L-5.5 11.75 -5.5 11.85 -5.45 12.05 Q-5.35 12.95 -4.7 13.6 -3.9 14.3 -2.75 14.2 -1.6 14.1 -0.8 13.25 L-0.1 12.05 0.0 11.6 0.0 11.25 7.3 10.55" fill="url(#gradient2)" fill-rule="evenodd" stroke="none"/>
      <path d="M7.3 -3.4 L3.15 6.15 7.3 10.55 0.75 7.55 2.05 5.45 2.6 4.5 7.3 -3.4 M-8.85 11.5 Q-6.65 4.25 -5.45 -1.45 L-1.85 2.15 -8.85 11.5" fill="#236544" fill-rule="evenodd" stroke="none"/>
      <path d="M7.9 11.85 L7.85 12.05 7.55 12.8 Q6.95 13.75 5.6 14.6 3.15 16.1 -0.2 16.45 -3.55 16.7 -5.9 15.65 -7.3 15.0 -7.9 14.2 L-8.3 13.25 Q-0.55 17.05 7.55 12.05 L7.9 11.85" fill="url(#gradient3)" fill-rule="evenodd" stroke="none"/>
      <path d="M-8.7 -12.3 L-8.75 -12.75 Q-8.8 -14.3 -6.25 -15.4 -3.75 -16.5 -0.25 -16.5 3.25 -16.5 5.8 -15.4 8.3 -14.3 8.3 -12.75 L8.25 -12.3 8.25 -12.1 8.3 -11.85 8.2 -11.35 Q7.85 -10.15 5.8 -9.25 3.25 -8.1 -0.25 -8.1 -3.75 -8.1 -6.25 -9.25 -8.15 -10.05 -8.7 -11.3 L-8.75 -11.65 -8.6 -12.0 Q-8.15 -10.95 -6.25 -10.15 -3.75 -9.0 -0.25 -9.0 3.25 -9.0 5.8 -10.15 7.85 -11.05 8.2 -12.25 L8.25 -12.1 M7.9 11.85 L7.85 12.05 7.55 12.8 Q6.95 13.75 5.6 14.6 3.15 16.1 -0.2 16.45 -3.55 16.7 -5.9 15.65 -7.3 15.0 -7.9 14.2 L-8.3 13.25 M-8.75 -11.65 L-8.75 -11.85 -8.7 -12.3 Q-8.4 -13.55 -6.25 -14.5 -3.75 -15.6 -0.25 -15.6 3.25 -15.6 5.8 -14.5 7.9 -13.55 8.25 -12.3 L8.2 -12.25 M-8.7 -12.2 L-8.7 -12.3" fill="none" stroke="#666666" stroke-linecap="round" stroke-linejoin="round" stroke-width="0.5"/>
      <path d="M8.25 -12.1 L8.95 -9.75 Q8.9 -7.8 8.05 -5.35 L7.3 -3.4 3.15 6.15 7.3 10.55 Q7.85 11.15 7.9 11.85 M-8.3 13.25 Q-8.8 12.85 -8.9 12.05 L-8.9 11.65 -8.85 11.5 Q-6.65 4.25 -5.45 -1.45 L-7.45 -5.35 Q-8.85 -8.3 -8.8 -10.0 L-8.75 -11.65 M-5.45 -1.45 L-1.85 2.15" fill="none" stroke="#336633" stroke-linecap="round" stroke-linejoin="round" stroke-width="0.5"/>
      <path d="M5.25 -13.45 Q6.05 -13.25 5.95 -12.45 5.85 -11.6 5.2 -10.95 4.5 -10.3 3.55 -10.45 2.6 -10.6 1.95 -11.05 1.25 -11.6 1.25 -12.15 1.25 -12.7 1.95 -13.1 L3.5 -13.6 5.25 -13.45" fill="#000000" fill-rule="evenodd" stroke="none"/>
      <path d="M5.25 -13.45 Q6.05 -13.25 5.95 -12.45 5.85 -11.6 5.2 -10.95 4.5 -10.3 3.55 -10.45 2.6 -10.6 1.95 -11.05 1.25 -11.6 1.25 -12.15 1.25 -12.7 1.95 -13.1 L3.5 -13.6 5.25 -13.45 Z" fill="none" stroke="#666666" stroke-linecap="round" stroke-linejoin="round" stroke-width="0.5"/>
      <path d="M-3.1 -15.0 L-2.55 -14.45 -1.75 -14.15 Q-1.35 -14.15 -1.1 -14.35 -0.9 -14.6 -1.0 -14.9 L-1.45 -15.4 -2.3 -15.7 -2.95 -15.5 -3.1 -15.0 M1.1 -13.8 L0.3 -14.05 -0.3 -13.85 -0.45 -13.4 0.05 -12.8 0.85 -12.55 1.5 -12.75 Q1.75 -12.95 1.6 -13.3 L1.1 -13.8 M1.9 -13.8 L2.65 -12.95 Q2.85 -12.45 2.45 -12.1 2.1 -11.8 1.4 -11.8 0.75 -11.85 0.15 -12.25 L-3.3 -14.3 Q-3.85 -14.7 -4.05 -15.2 -4.2 -15.7 -3.85 -16.0 L-3.85 -16.05 Q-3.45 -16.35 -2.8 -16.3 L-1.5 -15.9 1.9 -13.8" fill="url(#gradient4)" fill-rule="evenodd" stroke="none"/>
      <path d="M1.9 -13.8 L-1.5 -15.9 -2.8 -16.3 Q-3.45 -16.35 -3.85 -16.05 L-3.85 -16.0 Q-4.2 -15.7 -4.05 -15.2 -3.85 -14.7 -3.3 -14.3 L0.15 -12.25 Q0.75 -11.85 1.4 -11.8 2.1 -11.8 2.45 -12.1 2.85 -12.45 2.65 -12.95 L1.9 -13.8 M1.1 -13.8 L1.6 -13.3 Q1.75 -12.95 1.5 -12.75 L0.85 -12.55 0.05 -12.8 -0.45 -13.4 -0.3 -13.85 0.3 -14.05 1.1 -13.8 M-3.1 -15.0 L-2.95 -15.5 -2.3 -15.7 -1.45 -15.4 -1.0 -14.9 Q-0.9 -14.6 -1.1 -14.35 -1.35 -14.15 -1.75 -14.15 L-2.55 -14.45 -3.1 -15.0" fill="none" stroke="#666666" stroke-linecap="round" stroke-linejoin="round" stroke-width="0.5"/>
    </g>
    <linearGradient gradientTransform="matrix(-0.0104, 0.0, 0.0, 0.0046, -0.25, -12.75)" gradientUnits="userSpaceOnUse" id="gradient0" spreadMethod="pad" x1="-819.2" x2="819.2">
      <stop offset="0.0784313725490196" stop-color="#d5d5d5"/>
      <stop offset="0.39215686274509803" stop-color="#9b9b9b"/>
      <stop offset="0.596078431372549" stop-color="#cccccc"/>
      <stop offset="0.7490196078431373" stop-color="#c8c8c8"/>
      <stop offset="1.0" stop-color="#444444"/>
    </linearGradient>
    <linearGradient gradientTransform="matrix(-0.0113, 0.0, 0.0, 0.0157, -0.15, 2.7)" gradientUnits="userSpaceOnUse" id="gradient1" spreadMethod="pad" x1="-819.2" x2="819.2">
      <stop offset="0.0" stop-color="#234b2f"/>
      <stop offset="0.5098039215686274" stop-color="#339966"/>
      <stop offset="1.0" stop-color="#387249"/>
    </linearGradient>
    <linearGradient gradientTransform="matrix(-0.0113, 0.001, 0.0, 0.0157, -0.15, 1.9)" gradientUnits="userSpaceOnUse" id="gradient2" spreadMethod="pad" x1="-819.2" x2="819.2">
      <stop offset="0.0" stop-color="#234b2f"/>
      <stop offset="0.5098039215686274" stop-color="#339966"/>
      <stop offset="1.0" stop-color="#387249"/>
    </linearGradient>
    <linearGradient gradientTransform="matrix(-0.0104, 9.0E-4, 0.0, 0.0046, -0.25, -13.55)" gradientUnits="userSpaceOnUse" id="gradient3" spreadMethod="pad" x1="-819.2" x2="819.2">
      <stop offset="0.0784313725490196" stop-color="#d5d5d5"/>
      <stop offset="0.39215686274509803" stop-color="#9b9b9b"/>
      <stop offset="0.596078431372549" stop-color="#cccccc"/>
      <stop offset="0.7490196078431373" stop-color="#c8c8c8"/>
      <stop offset="1.0" stop-color="#444444"/>
    </linearGradient>
    <linearGradient gradientTransform="matrix(-0.0037, -2.0E-4, -9.0E-4, -0.0027, -0.65, -14.05)" gradientUnits="userSpaceOnUse" id="gradient4" spreadMethod="pad" x1="-819.2" x2="819.2">
      <stop offset="0.0784313725490196" stop-color="#4d4d4d"/>
      <stop offset="0.39215686274509803" stop-color="#9b9b9b"/>
      <stop offset="0.596078431372549" stop-color="#cccccc"/>
      <stop offset="0.7490196078431373" stop-color="#c8c8c8"/>
      <stop offset="1.0" stop-color="#444444"/>
    </linearGradient>
  </defs>
</svg>
