<?xml version="1.0" encoding="UTF-8" standalone="no"?>
<svg xmlns:xlink="http://www.w3.org/1999/xlink" height="34.2px" width="19.0px" xmlns="http://www.w3.org/2000/svg">
  <g transform="matrix(1.0, 0.0, 0.0, 1.0, 9.5, 17.1)">
    <use height="34.2" transform="matrix(1.0, 0.0, 0.0, 1.0, -9.5, -17.1)" width="19.0" xlink:href="#shape0"/>
  </g>
  <defs>
    <g id="shape0" transform="matrix(1.0, 0.0, 0.0, 1.0, 9.5, 17.1)">
      <path d="M8.55 -12.65 Q8.2 -13.9 6.05 -14.85 3.55 -15.95 0.05 -15.95 -3.45 -15.95 -6.0 -14.85 -8.1 -13.9 -8.4 -12.65 -8.1 -13.9 -6.0 -14.85 -3.45 -15.95 0.05 -15.95 3.55 -15.95 6.05 -14.85 8.2 -13.9 8.55 -12.65 L8.5 -12.55 8.45 -12.35 Q7.95 -11.3 6.05 -10.5 3.55 -9.35 0.05 -9.35 -3.45 -9.35 -6.0 -10.5 -8.05 -11.4 -8.4 -12.6 -8.05 -11.4 -6.0 -10.5 -3.45 -9.35 0.05 -9.35 3.55 -9.35 6.05 -10.5 7.95 -11.3 8.45 -12.35 L8.6 -12.0 8.5 -11.65 Q7.95 -10.4 6.05 -9.6 3.55 -8.45 0.05 -8.45 -3.45 -8.45 -6.0 -9.6 -8.05 -10.5 -8.4 -11.7 L-8.45 -12.2 -8.45 -12.45 -8.4 -12.6 -8.4 -12.65 -8.45 -13.1 Q-8.5 -14.65 -6.0 -15.75 -3.45 -16.85 0.05 -16.85 3.55 -16.85 6.05 -15.75 8.6 -14.65 8.6 -13.1 L8.55 -12.65 M8.1 12.95 L7.7 13.95 Q7.1 14.8 5.75 15.55 3.35 16.85 0.0 16.85 -3.35 16.85 -5.75 15.55 -7.15 14.8 -7.7 13.95 L-8.05 13.0 Q0.2 17.55 8.1 12.95" fill="url(#gradient0)" fill-rule="evenodd" stroke="none"/>
      <path d="M8.6 -12.0 L9.25 -10.55 Q6.25 -6.5 -0.5 -6.65 -7.85 -7.05 -9.25 -10.55 L-8.45 -12.45 -8.45 -12.2 -8.4 -11.7 Q-8.05 -10.5 -6.0 -9.6 -3.45 -8.45 0.05 -8.45 3.55 -8.45 6.05 -9.6 7.95 -10.4 8.5 -11.65 L8.6 -12.0 M9.15 -7.0 L9.0 0.0 Q7.35 1.3 5.35 1.9 2.25 2.8 -1.05 4.9 L-5.05 9.15 Q-6.05 10.0 -6.55 11.65 L-6.55 11.2 -6.1 8.35 Q-6.05 7.75 -5.05 6.0 -3.8 3.55 1.3 0.55 4.2 -1.2 5.3 -2.35 L8.15 -5.55 Q8.75 -6.2 9.15 -7.0 M8.9 3.6 L8.75 8.65 6.25 9.85 3.35 11.15 Q1.0 12.15 0.55 12.3 L-2.15 13.95 Q-0.5 11.25 1.85 9.25 2.8 8.3 3.9 7.6 L4.7 7.05 6.7 5.55 8.9 3.6 M1.9 -2.5 Q1.9 -1.5 1.2 -0.8 0.45 -0.1 -0.5 -0.05 -1.5 -0.1 -2.25 -0.8 -2.95 -1.5 -2.95 -2.5 -2.95 -3.5 -2.25 -4.2 -1.5 -4.95 -0.5 -4.95 0.45 -4.95 1.2 -4.2 1.9 -3.5 1.9 -2.5 M2.0 6.1 Q2.45 6.5 2.45 7.15 L2.0 8.2 Q1.6 8.65 0.95 8.65 0.3 8.65 -0.1 8.2 -0.55 7.8 -0.5 7.15 -0.55 6.5 -0.1 6.1 0.3 5.65 0.95 5.65 1.6 5.65 2.0 6.1 M-5.6 -1.55 Q-4.9 -1.55 -4.4 -1.05 -3.85 -0.55 -3.85 0.2 -3.85 0.95 -4.4 1.45 -4.9 1.95 -5.6 1.95 -6.35 1.95 -6.9 1.45 -7.4 0.95 -7.35 0.2 -7.4 -0.55 -6.9 -1.05 -6.35 -1.55 -5.6 -1.55" fill="#ffffff" fill-rule="evenodd" stroke="none"/>
      <path d="M9.25 -10.55 L9.15 -7.0 Q8.75 -6.2 8.15 -5.55 L5.3 -2.35 Q4.2 -1.2 1.3 0.55 -3.8 3.55 -5.05 6.0 -6.05 7.75 -6.1 8.35 L-6.55 11.2 -6.55 11.65 Q-6.05 10.0 -5.05 9.15 L-1.05 4.9 Q2.25 2.8 5.35 1.9 7.35 1.3 9.0 0.0 L8.9 3.6 6.7 5.55 4.7 7.05 3.9 7.6 Q2.8 8.3 1.85 9.25 -0.5 11.25 -2.15 13.95 L0.55 12.3 Q1.0 12.15 3.35 11.15 L6.25 9.85 8.75 8.65 8.7 11.15 8.1 12.95 Q0.2 17.55 -8.05 13.0 L-8.65 11.15 -9.25 -10.55 Q-7.85 -7.05 -0.5 -6.65 6.25 -6.5 9.25 -10.55 M-5.6 -1.55 Q-6.35 -1.55 -6.9 -1.05 -7.4 -0.55 -7.35 0.2 -7.4 0.95 -6.9 1.45 -6.35 1.95 -5.6 1.95 -4.9 1.95 -4.4 1.45 -3.85 0.95 -3.85 0.2 -3.85 -0.55 -4.4 -1.05 -4.9 -1.55 -5.6 -1.55 M2.0 6.1 Q1.6 5.65 0.95 5.65 0.3 5.65 -0.1 6.1 -0.55 6.5 -0.5 7.15 -0.55 7.8 -0.1 8.2 0.3 8.65 0.95 8.65 1.6 8.65 2.0 8.2 L2.45 7.15 Q2.45 6.5 2.0 6.1 M1.9 -2.5 Q1.9 -3.5 1.2 -4.2 0.45 -4.95 -0.5 -4.95 -1.5 -4.95 -2.25 -4.2 -2.95 -3.5 -2.95 -2.5 -2.95 -1.5 -2.25 -0.8 -1.5 -0.1 -0.5 -0.05 0.45 -0.1 1.2 -0.8 1.9 -1.5 1.9 -2.5" fill="url(#gradient1)" fill-rule="evenodd" stroke="none"/>
      <path d="M-8.4 -12.65 Q-8.1 -13.9 -6.0 -14.85 -3.45 -15.95 0.05 -15.95 3.55 -15.95 6.05 -14.85 8.2 -13.9 8.55 -12.65 L8.6 -13.1 Q8.6 -14.65 6.05 -15.75 3.55 -16.85 0.05 -16.85 -3.45 -16.85 -6.0 -15.75 -8.5 -14.65 -8.45 -13.1 L-8.4 -12.65 -8.4 -12.6 Q-8.05 -11.4 -6.0 -10.5 -3.45 -9.35 0.05 -9.35 3.55 -9.35 6.05 -10.5 7.95 -11.3 8.45 -12.35 L8.6 -12.0 8.5 -11.65 Q7.95 -10.4 6.05 -9.6 3.55 -8.45 0.05 -8.45 -3.45 -8.45 -6.0 -9.6 -8.05 -10.5 -8.4 -11.7 L-8.45 -12.2 -8.45 -12.45 -8.4 -12.6 M8.5 -12.55 L8.55 -12.65 8.6 -12.2 8.6 -12.0 M8.1 12.95 L7.7 13.95 Q7.1 14.8 5.75 15.55 3.35 16.85 0.0 16.85 -3.35 16.85 -5.75 15.55 -7.15 14.8 -7.7 13.95 L-8.05 13.0 M-8.45 -12.45 L-8.4 -12.65" fill="none" stroke="#666666" stroke-linecap="round" stroke-linejoin="round" stroke-width="0.5"/>
      <path d="M8.6 -12.0 L9.25 -10.55 9.15 -7.0 9.0 0.0 8.9 3.6 8.75 8.65 8.7 11.15 8.1 12.95 M-8.05 13.0 L-8.65 11.15 -9.25 -10.55 -8.45 -12.45" fill="none" stroke="#cccccc" stroke-linecap="round" stroke-linejoin="round" stroke-width="0.5"/>
      <path d="M5.35 -14.0 Q6.15 -13.8 6.05 -13.0 5.95 -12.15 5.3 -11.5 4.6 -10.85 3.65 -11.0 2.7 -11.15 2.05 -11.6 1.35 -12.15 1.35 -12.7 1.35 -13.25 2.05 -13.65 2.7 -14.05 3.6 -14.15 L5.35 -14.0" fill="#000000" fill-rule="evenodd" stroke="none"/>
      <path d="M5.35 -14.0 Q6.15 -13.8 6.05 -13.0 5.95 -12.15 5.3 -11.5 4.6 -10.85 3.65 -11.0 2.7 -11.15 2.05 -11.6 1.35 -12.15 1.35 -12.7 1.35 -13.25 2.05 -13.65 2.7 -14.05 3.6 -14.15 L5.35 -14.0 Z" fill="none" stroke="#666666" stroke-linecap="round" stroke-linejoin="round" stroke-width="0.5"/>
      <path d="M-3.05 -14.7 L-3.2 -14.15 Q-3.1 -13.9 -2.7 -13.8 L-1.9 -13.85 -1.25 -14.25 Q-1.0 -14.6 -1.1 -14.85 L-1.6 -15.2 -2.4 -15.15 -3.05 -14.7 M0.7 -13.25 L1.35 -13.7 Q1.6 -14.0 1.5 -14.25 L1.0 -14.6 0.2 -14.55 -0.45 -14.1 Q-0.7 -13.8 -0.55 -13.55 L-0.1 -13.2 0.7 -13.25 M1.3 -12.7 L0.0 -12.6 -3.4 -13.4 -4.2 -13.95 Q-4.35 -14.4 -4.0 -14.85 L-3.95 -14.85 -2.9 -15.6 -1.6 -15.7 1.75 -14.9 Q2.35 -14.8 2.55 -14.35 2.7 -13.95 2.35 -13.45 L2.3 -13.45 1.3 -12.7" fill="url(#gradient2)" fill-rule="evenodd" stroke="none"/>
      <path d="M1.3 -12.7 L2.3 -13.45 2.35 -13.45 Q2.7 -13.95 2.55 -14.35 2.35 -14.8 1.75 -14.9 L-1.6 -15.7 -2.9 -15.6 -3.95 -14.85 -4.0 -14.85 Q-4.35 -14.4 -4.2 -13.95 L-3.4 -13.4 0.0 -12.6 1.3 -12.7 M0.7 -13.25 L-0.1 -13.2 -0.55 -13.55 Q-0.7 -13.8 -0.45 -14.1 L0.2 -14.55 1.0 -14.6 1.5 -14.25 Q1.6 -14.0 1.35 -13.7 L0.7 -13.25 M-3.05 -14.7 L-2.4 -15.15 -1.6 -15.2 -1.1 -14.85 Q-1.0 -14.6 -1.25 -14.25 L-1.9 -13.85 -2.7 -13.8 Q-3.1 -13.9 -3.2 -14.15 L-3.05 -14.7" fill="none" stroke="#666666" stroke-linecap="round" stroke-linejoin="round" stroke-width="0.5"/>
    </g>
    <linearGradient gradientTransform="matrix(0.0104, 0.0, 0.0, 0.0046, 0.05, -13.1)" gradientUnits="userSpaceOnUse" id="gradient0" spreadMethod="pad" x1="-819.2" x2="819.2">
      <stop offset="0.0784313725490196" stop-color="#d5d5d5"/>
      <stop offset="0.39215686274509803" stop-color="#9b9b9b"/>
      <stop offset="0.596078431372549" stop-color="#cccccc"/>
      <stop offset="0.7490196078431373" stop-color="#c8c8c8"/>
      <stop offset="1.0" stop-color="#444444"/>
    </linearGradient>
    <linearGradient gradientTransform="matrix(0.0113, 0.0, 0.0, 0.0157, -0.05, 2.35)" gradientUnits="userSpaceOnUse" id="gradient1" spreadMethod="pad" x1="-819.2" x2="819.2">
      <stop offset="0.0" stop-color="#c8c8c8"/>
      <stop offset="0.19607843137254902" stop-color="#fbfbfb"/>
      <stop offset="0.7568627450980392" stop-color="#eeeeee"/>
      <stop offset="1.0" stop-color="#aeaeae"/>
    </linearGradient>
    <linearGradient gradientTransform="matrix(-0.0037, 0.0013, -9.0E-4, -0.0023, -0.8, -14.15)" gradientUnits="userSpaceOnUse" id="gradient2" spreadMethod="pad" x1="-819.2" x2="819.2">
      <stop offset="0.0784313725490196" stop-color="#4d4d4d"/>
      <stop offset="0.39215686274509803" stop-color="#9b9b9b"/>
      <stop offset="0.596078431372549" stop-color="#cccccc"/>
      <stop offset="0.7490196078431373" stop-color="#c8c8c8"/>
      <stop offset="1.0" stop-color="#444444"/>
    </linearGradient>
  </defs>
</svg>
