<?xml version="1.0" encoding="UTF-8" standalone="no"?>
<svg xmlns:xlink="http://www.w3.org/1999/xlink" height="33.5px" width="18.35px" xmlns="http://www.w3.org/2000/svg">
  <g transform="matrix(1.0, 0.0, 0.0, 1.0, 9.15, 17.1)">
    <use height="33.5" transform="matrix(1.0, 0.0, 0.0, 1.0, -9.15, -17.1)" width="18.35" xlink:href="#shape0"/>
  </g>
  <defs>
    <g id="shape0" transform="matrix(1.0, 0.0, 0.0, 1.0, 9.15, 17.1)">
      <path d="M-8.7 -12.65 L-8.75 -13.1 Q-8.8 -14.65 -6.25 -15.75 -3.75 -16.85 -0.25 -16.85 3.25 -16.85 5.8 -15.75 8.3 -14.65 8.3 -13.1 L8.25 -12.65 Q7.9 -13.9 5.8 -14.85 3.25 -15.95 -0.25 -15.95 -3.75 -15.95 -6.25 -14.85 -8.4 -13.9 -8.7 -12.65 -8.4 -13.9 -6.25 -14.85 -3.75 -15.95 -0.25 -15.95 3.25 -15.95 5.8 -14.85 7.9 -13.9 8.25 -12.65 L8.2 -12.6 8.25 -12.45 8.3 -12.2 8.2 -11.7 Q7.85 -10.5 5.8 -9.6 3.25 -8.45 -0.25 -8.45 -3.75 -8.45 -6.25 -9.6 -8.15 -10.4 -8.7 -11.65 L-8.75 -12.0 -8.6 -12.35 -8.7 -12.55 -8.7 -12.65 M8.2 -12.6 Q7.85 -11.4 5.8 -10.5 3.25 -9.35 -0.25 -9.35 -3.75 -9.35 -6.25 -10.5 -8.15 -11.3 -8.6 -12.35 -8.15 -11.3 -6.25 -10.5 -3.75 -9.35 -0.25 -9.35 3.25 -9.35 5.8 -10.5 7.85 -11.4 8.2 -12.6" fill="url(#gradient0)" fill-rule="evenodd" stroke="none"/>
      <path d="M8.25 -12.45 L8.95 -10.1 Q7.65 -7.05 0.35 -6.65 -6.45 -6.5 -8.8 -10.35 L-8.75 -12.0 -8.7 -11.65 Q-8.15 -10.4 -6.25 -9.6 -3.75 -8.45 -0.25 -8.45 3.25 -8.45 5.8 -9.6 7.85 -10.5 8.2 -11.7 L8.3 -12.2 8.25 -12.45" fill="#fe9800" fill-rule="evenodd" stroke="none"/>
      <path d="M3.15 -1.45 Q2.45 -0.75 1.5 -0.75 0.55 -0.75 -0.1 -1.45 -0.8 -2.1 -0.8 -3.05 -0.8 -4.0 -0.1 -4.7 0.55 -5.35 1.5 -5.35 2.45 -5.35 3.15 -4.7 3.8 -4.0 3.8 -3.05 3.8 -2.1 3.15 -1.45 M2.05 5.1 L1.05 5.4 Q0.4 5.4 -0.05 4.95 -0.5 4.5 -0.5 3.85 -0.5 3.2 -0.05 2.75 0.4 2.3 1.05 2.3 1.7 2.3 2.15 2.75 2.6 3.2 2.6 3.85 L2.6 4.15 2.15 4.95 2.05 5.1 M0.0 10.9 L0.0 11.25 -0.1 11.7 -0.8 12.9 Q-1.6 13.75 -2.75 13.85 -3.9 13.95 -4.7 13.25 -5.35 12.6 -5.45 11.7 L-5.5 11.5 -5.5 11.4 Q-5.4 10.4 -4.7 9.7 -3.9 8.9 -2.75 8.9 -1.6 8.9 -0.8 9.7 -0.25 10.25 -0.1 10.9 L0.0 10.9 M-1.6 -4.75 Q-1.1 -4.2 -1.1 -3.5 -1.1 -2.8 -1.6 -2.3 -2.15 -1.75 -2.85 -1.75 -3.55 -1.75 -4.05 -2.3 -4.6 -2.8 -4.6 -3.5 -4.6 -4.2 -4.05 -4.75 -3.55 -5.25 -2.85 -5.25 -2.15 -5.25 -1.6 -4.75" fill="#f27e0d" fill-rule="evenodd" stroke="none"/>
      <path d="M8.95 -10.1 Q8.9 -8.15 8.05 -5.7 L7.3 -3.75 2.6 4.15 2.6 3.85 Q2.6 3.2 2.15 2.75 1.7 2.3 1.05 2.3 0.4 2.3 -0.05 2.75 -0.5 3.2 -0.5 3.85 -0.5 4.5 -0.05 4.95 0.4 5.4 1.05 5.4 L2.05 5.1 0.75 7.2 7.3 10.2 0.0 10.9 -0.1 10.9 Q-0.25 10.25 -0.8 9.7 -1.6 8.9 -2.75 8.9 -3.9 8.9 -4.7 9.7 -5.4 10.4 -5.5 11.4 L-8.9 11.7 -8.9 11.3 -8.85 11.15 -1.85 1.8 -5.45 -1.8 -7.45 -5.7 Q-8.85 -8.65 -8.8 -10.35 -6.45 -6.5 0.35 -6.65 7.65 -7.05 8.95 -10.1 M3.15 -1.45 Q3.8 -2.1 3.8 -3.05 3.8 -4.0 3.15 -4.7 2.45 -5.35 1.5 -5.35 0.55 -5.35 -0.1 -4.7 -0.8 -4.0 -0.8 -3.05 -0.8 -2.1 -0.1 -1.45 0.55 -0.75 1.5 -0.75 2.45 -0.75 3.15 -1.45 M-1.6 -4.75 Q-2.15 -5.25 -2.85 -5.25 -3.55 -5.25 -4.05 -4.75 -4.6 -4.2 -4.6 -3.5 -4.6 -2.8 -4.05 -2.3 -3.55 -1.75 -2.85 -1.75 -2.15 -1.75 -1.6 -2.3 -1.1 -2.8 -1.1 -3.5 -1.1 -4.2 -1.6 -4.75" fill="url(#gradient1)" fill-rule="evenodd" stroke="none"/>
      <path d="M7.3 -3.75 L3.15 5.8 7.3 10.2 0.75 7.2 2.05 5.1 2.15 4.95 2.6 4.15 7.3 -3.75 M-8.85 11.15 Q-6.65 3.9 -5.45 -1.8 L-1.85 1.8 -8.85 11.15" fill="#8f5601" fill-rule="evenodd" stroke="none"/>
      <path d="M7.9 11.5 L7.85 11.7 7.55 12.45 Q6.95 13.4 5.6 14.25 3.15 15.75 -0.2 16.1 -3.55 16.35 -5.9 15.3 -7.3 14.65 -7.9 13.85 L-8.3 12.9 Q-0.55 16.7 7.55 11.7 L7.9 11.5" fill="url(#gradient2)" fill-rule="evenodd" stroke="none"/>
      <path d="M7.3 10.2 Q7.85 10.8 7.9 11.5 L7.55 11.7 Q-0.55 16.7 -8.3 12.9 -8.8 12.5 -8.9 11.7 L-5.5 11.4 -5.5 11.5 -5.45 11.7 Q-5.35 12.6 -4.7 13.25 -3.9 13.95 -2.75 13.85 -1.6 13.75 -0.8 12.9 L-0.1 11.7 0.0 11.25 0.0 10.9 7.3 10.2" fill="url(#gradient3)" fill-rule="evenodd" stroke="none"/>
      <path d="M8.25 -12.65 L8.3 -13.1 Q8.3 -14.65 5.8 -15.75 3.25 -16.85 -0.25 -16.85 -3.75 -16.85 -6.25 -15.75 -8.8 -14.65 -8.75 -13.1 L-8.7 -12.65 Q-8.4 -13.9 -6.25 -14.85 -3.75 -15.95 -0.25 -15.95 3.25 -15.95 5.8 -14.85 7.9 -13.9 8.25 -12.65 L8.25 -12.45 8.3 -12.2 8.2 -11.7 Q7.85 -10.5 5.8 -9.6 3.25 -8.45 -0.25 -8.45 -3.75 -8.45 -6.25 -9.6 -8.15 -10.4 -8.7 -11.65 L-8.75 -12.0 -8.6 -12.35 Q-8.15 -11.3 -6.25 -10.5 -3.75 -9.35 -0.25 -9.35 3.25 -9.35 5.8 -10.5 7.85 -11.4 8.2 -12.6 L8.25 -12.65 M7.9 11.5 L7.85 11.7 7.55 12.45 Q6.95 13.4 5.6 14.25 3.15 15.75 -0.2 16.1 -3.55 16.35 -5.9 15.3 -7.3 14.65 -7.9 13.85 L-8.3 12.9 M-8.75 -12.0 L-8.75 -12.2 -8.7 -12.65 -8.7 -12.55 M8.2 -12.6 L8.25 -12.45" fill="none" stroke="#666666" stroke-linecap="round" stroke-linejoin="round" stroke-width="0.5"/>
      <path d="M8.25 -12.45 L8.95 -10.1 Q8.9 -8.15 8.05 -5.7 L7.3 -3.75 3.15 5.8 7.3 10.2 Q7.85 10.8 7.9 11.5 M-8.3 12.9 Q-8.8 12.5 -8.9 11.7 L-8.9 11.3 -8.85 11.15 Q-6.65 3.9 -5.45 -1.8 L-7.45 -5.7 Q-8.85 -8.65 -8.8 -10.35 L-8.75 -12.0 M-5.45 -1.8 L-1.85 1.8" fill="none" stroke="#a46201" stroke-linecap="round" stroke-linejoin="round" stroke-width="0.5"/>
      <path d="M5.25 -13.8 Q6.05 -13.6 5.95 -12.8 5.85 -11.95 5.2 -11.3 4.5 -10.65 3.55 -10.8 2.6 -10.95 1.95 -11.4 1.25 -11.95 1.25 -12.5 1.25 -13.05 1.95 -13.45 L3.5 -13.95 5.25 -13.8" fill="#000000" fill-rule="evenodd" stroke="none"/>
      <path d="M5.25 -13.8 Q6.05 -13.6 5.95 -12.8 5.85 -11.95 5.2 -11.3 4.5 -10.65 3.55 -10.8 2.6 -10.95 1.95 -11.4 1.25 -11.95 1.25 -12.5 1.25 -13.05 1.95 -13.45 L3.5 -13.95 5.25 -13.8 Z" fill="none" stroke="#666666" stroke-linecap="round" stroke-linejoin="round" stroke-width="0.5"/>
      <path d="M-1.45 -15.75 L-2.3 -16.05 -2.95 -15.85 -3.1 -15.35 -2.55 -14.8 -1.75 -14.5 Q-1.35 -14.5 -1.1 -14.7 -0.9 -14.95 -1.0 -15.25 L-1.45 -15.75 M1.1 -14.15 L0.3 -14.4 -0.3 -14.2 -0.45 -13.75 0.05 -13.15 0.85 -12.9 1.5 -13.1 Q1.75 -13.3 1.6 -13.65 L1.1 -14.15 M2.65 -13.3 Q2.85 -12.8 2.45 -12.45 2.1 -12.15 1.4 -12.15 0.75 -12.2 0.15 -12.6 L-3.3 -14.65 Q-3.85 -15.05 -4.05 -15.55 -4.2 -16.05 -3.85 -16.35 L-3.85 -16.4 Q-3.45 -16.7 -2.8 -16.65 L-1.5 -16.25 1.9 -14.15 2.65 -13.3" fill="url(#gradient4)" fill-rule="evenodd" stroke="none"/>
      <path d="M2.65 -13.3 L1.9 -14.15 -1.5 -16.25 -2.8 -16.65 Q-3.45 -16.7 -3.85 -16.4 L-3.85 -16.35 Q-4.2 -16.05 -4.05 -15.55 -3.85 -15.05 -3.3 -14.65 L0.15 -12.6 Q0.75 -12.2 1.4 -12.15 2.1 -12.15 2.45 -12.45 2.85 -12.8 2.65 -13.3 M1.1 -14.15 L1.6 -13.65 Q1.75 -13.3 1.5 -13.1 L0.85 -12.9 0.05 -13.15 -0.45 -13.75 -0.3 -14.2 0.3 -14.4 1.1 -14.15 M-1.45 -15.75 L-1.0 -15.25 Q-0.9 -14.95 -1.1 -14.7 -1.35 -14.5 -1.75 -14.5 L-2.55 -14.8 -3.1 -15.35 -2.95 -15.85 -2.3 -16.05 -1.45 -15.75" fill="none" stroke="#666666" stroke-linecap="round" stroke-linejoin="round" stroke-width="0.5"/>
    </g>
    <linearGradient gradientTransform="matrix(-0.0104, 0.0, 0.0, 0.0046, -0.25, -13.1)" gradientUnits="userSpaceOnUse" id="gradient0" spreadMethod="pad" x1="-819.2" x2="819.2">
      <stop offset="0.0784313725490196" stop-color="#d5d5d5"/>
      <stop offset="0.39215686274509803" stop-color="#9b9b9b"/>
      <stop offset="0.596078431372549" stop-color="#cccccc"/>
      <stop offset="0.7490196078431373" stop-color="#c8c8c8"/>
      <stop offset="1.0" stop-color="#444444"/>
    </linearGradient>
    <linearGradient gradientTransform="matrix(-0.0113, 0.0, 0.0, 0.0157, -0.15, 2.35)" gradientUnits="userSpaceOnUse" id="gradient1" spreadMethod="pad" x1="-819.2" x2="819.2">
      <stop offset="0.0" stop-color="#ca740c"/>
      <stop offset="0.4588235294117647" stop-color="#ff9900"/>
      <stop offset="1.0" stop-color="#b16212"/>
    </linearGradient>
    <linearGradient gradientTransform="matrix(-0.0104, 9.0E-4, 0.0, 0.0046, -0.25, -13.9)" gradientUnits="userSpaceOnUse" id="gradient2" spreadMethod="pad" x1="-819.2" x2="819.2">
      <stop offset="0.0784313725490196" stop-color="#d5d5d5"/>
      <stop offset="0.39215686274509803" stop-color="#9b9b9b"/>
      <stop offset="0.596078431372549" stop-color="#cccccc"/>
      <stop offset="0.7490196078431373" stop-color="#c8c8c8"/>
      <stop offset="1.0" stop-color="#444444"/>
    </linearGradient>
    <linearGradient gradientTransform="matrix(-0.0113, 0.001, 0.0, 0.0157, -0.15, 1.55)" gradientUnits="userSpaceOnUse" id="gradient3" spreadMethod="pad" x1="-819.2" x2="819.2">
      <stop offset="0.0" stop-color="#ca740c"/>
      <stop offset="0.4588235294117647" stop-color="#ff9900"/>
      <stop offset="1.0" stop-color="#b16212"/>
    </linearGradient>
    <linearGradient gradientTransform="matrix(-0.0037, -2.0E-4, -9.0E-4, -0.0027, -0.65, -14.4)" gradientUnits="userSpaceOnUse" id="gradient4" spreadMethod="pad" x1="-819.2" x2="819.2">
      <stop offset="0.0784313725490196" stop-color="#4d4d4d"/>
      <stop offset="0.39215686274509803" stop-color="#9b9b9b"/>
      <stop offset="0.596078431372549" stop-color="#cccccc"/>
      <stop offset="0.7490196078431373" stop-color="#c8c8c8"/>
      <stop offset="1.0" stop-color="#444444"/>
    </linearGradient>
  </defs>
</svg>
