<?xml version="1.0" encoding="UTF-8" standalone="no"?>
<svg xmlns:xlink="http://www.w3.org/1999/xlink" height="23.1px" width="27.6px" xmlns="http://www.w3.org/2000/svg">
  <g transform="matrix(1.0, 0.0, 0.0, 1.0, 13.8, 11.55)">
    <use height="23.1" transform="matrix(1.0, 0.0, 0.0, 1.0, -13.8, -11.55)" width="27.6" xlink:href="#shape0"/>
  </g>
  <defs>
    <g id="shape0" transform="matrix(1.0, 0.0, 0.0, 1.0, 13.8, 11.55)">
      <path d="M8.55 -9.05 L8.35 -9.65 7.35 -10.2 6.6 -10.6 Q9.5 -10.6 11.2 -8.3 12.9 -6.05 13.4 -3.25 13.85 -0.45 13.0 2.35 12.25 4.95 10.45 6.7 9.4 7.65 7.85 8.0 L8.65 6.5 Q10.3 4.8 11.0 2.35 11.85 -0.45 11.4 -3.25 10.9 -6.05 9.2 -8.3 L8.55 -9.05" fill="url(#gradient0)" fill-rule="evenodd" stroke="none"/>
      <path d="M6.6 -10.6 L7.35 -10.2 8.35 -9.65 8.55 -9.05 9.1 -7.6 Q10.1 -5.15 10.7 -1.7 11.3 1.75 10.2 3.75 L8.65 6.5 7.85 8.0 Q6.6 9.45 4.9 10.0 L-0.1 10.6 -5.25 11.25 -6.45 11.3 -3.85 10.5 -2.0 9.85 -1.1 8.4 -0.8 8.0 -0.45 7.0 -0.1 6.35 -0.05 6.2 0.45 5.75 0.35 6.15 Q0.2 7.1 0.85 7.55 L1.1 7.65 0.55 8.15 Q-0.6 9.25 0.85 9.25 L1.3 9.05 5.05 5.2 Q6.15 3.95 6.05 2.45 L5.7 2.15 4.05 4.15 1.45 7.35 1.95 5.25 Q2.1 4.55 1.45 4.4 L1.7 2.95 1.7 1.1 1.7 0.85 1.7 -1.25 1.7 -1.4 1.7 -2.35 1.75 -4.6 Q1.75 -7.35 -0.5 -8.7 -1.95 -9.65 -3.5 -9.5 -1.65 -10.75 0.55 -11.2 L1.05 -11.1 2.15 -11.25 Q4.45 -11.5 6.6 -10.6 M2.9 4.4 Q4.15 2.05 5.05 -0.65 5.85 -3.3 5.35 -5.95 5.0 -7.85 4.3 -9.6 L2.35 -10.55 1.05 -11.1 2.35 -10.55 4.3 -9.6 Q5.0 -7.85 5.35 -5.95 5.85 -3.3 5.05 -0.65 4.15 2.05 2.9 4.4 M7.3 -6.2 L7.9 -3.45 8.35 0.45 Q8.75 3.95 6.35 6.3 L4.15 8.15 Q3.45 8.65 3.9 9.3 4.25 9.85 4.8 9.4 7.65 7.05 9.05 3.8 L9.35 2.45 Q9.35 -1.4 8.85 -5.15 8.45 -8.7 5.4 -10.4 4.15 -9.8 5.5 -8.8 6.85 -7.8 7.3 -6.2 M0.65 -10.6 L0.3 -10.45 -0.1 -10.6 Q-1.3 -9.65 0.6 -9.0 2.65 -8.3 2.4 -6.05 2.1 -3.7 3.0 -1.75 L2.9 -0.9 2.8 1.1 3.1 1.3 Q4.2 0.85 4.25 -0.45 4.5 -4.3 3.7 -7.9 L2.8 -9.55 Q1.9 -10.4 0.65 -10.6 M6.55 -1.4 Q6.8 0.3 6.65 2.6 6.45 4.9 4.45 7.05 2.4 9.2 -0.1 10.6 2.4 9.2 4.45 7.05 6.45 4.9 6.65 2.6 6.8 0.3 6.55 -1.4 M7.25 -4.0 L7.05 -4.75 6.95 -6.1 6.35 -6.6 Q5.5 -6.2 5.75 -5.15 L6.05 -4.5 Q5.8 -4.1 5.9 -3.4 6.0 -2.85 6.4 -2.45 6.95 -1.95 7.1 -2.65 L7.25 -4.0" fill="url(#gradient1)" fill-rule="evenodd" stroke="none"/>
      <path d="M8.55 -9.05 L9.2 -8.3 Q10.9 -6.05 11.4 -3.25 11.85 -0.45 11.0 2.35 10.3 4.8 8.65 6.5 L10.2 3.75 Q11.3 1.75 10.7 -1.7 10.1 -5.15 9.1 -7.6 L8.55 -9.05 M0.65 -10.6 Q1.9 -10.4 2.8 -9.55 L3.7 -7.9 Q4.5 -4.3 4.25 -0.45 4.2 0.85 3.1 1.3 L2.8 1.1 2.9 -0.9 3.0 -1.75 Q2.1 -3.7 2.4 -6.05 2.65 -8.3 0.6 -9.0 -1.3 -9.65 -0.1 -10.6 L0.3 -10.45 0.65 -10.6 M7.3 -6.2 Q6.85 -7.8 5.5 -8.8 4.15 -9.8 5.4 -10.4 8.45 -8.7 8.85 -5.15 9.35 -1.4 9.35 2.45 L9.05 3.8 Q7.65 7.05 4.8 9.4 4.25 9.85 3.9 9.3 3.45 8.65 4.15 8.15 L6.35 6.3 Q8.75 3.95 8.35 0.45 L7.9 -3.45 7.3 -6.2" fill="#8f5601" fill-rule="evenodd" stroke="none"/>
      <path d="M-3.5 -9.5 Q-1.95 -9.65 -0.5 -8.7 1.75 -7.35 1.75 -4.6 L1.7 -2.35 1.7 -1.4 1.7 -1.25 1.45 0.35 1.7 0.85 1.7 1.1 1.7 2.95 1.45 4.4 Q2.1 4.55 1.95 5.25 L1.45 7.35 4.05 4.15 5.7 2.15 6.05 2.45 Q6.15 3.95 5.05 5.2 L1.3 9.05 0.85 9.25 Q-0.6 9.25 0.55 8.15 L1.1 7.65 0.85 7.55 Q0.2 7.1 0.35 6.15 L0.45 5.75 -0.05 6.2 -0.1 6.35 -0.45 7.0 -0.8 8.0 -1.1 8.4 -2.0 9.85 -3.85 10.5 -6.45 11.3 -6.6 11.3 -9.4 10.6 -10.15 10.25 Q-12.4 9.0 -13.4 3.5 -14.4 -2.0 -8.05 -8.3 L-7.2 -8.7 Q-5.4 -9.5 -3.5 -9.5 M7.25 -4.0 L7.1 -2.65 Q6.95 -1.95 6.4 -2.45 6.0 -2.85 5.9 -3.4 5.8 -4.1 6.05 -4.5 L5.75 -5.15 Q5.5 -6.2 6.35 -6.6 L6.95 -6.1 7.05 -4.75 7.25 -4.0" fill="#fe9800" fill-rule="evenodd" stroke="none"/>
      <path d="M1.7 -1.25 L1.7 0.85 1.45 0.35 1.7 -1.25" fill="#2c8f49" fill-rule="evenodd" stroke="none"/>
      <path d="M6.6 -10.6 L7.35 -10.2 8.35 -9.65 8.55 -9.05 9.1 -7.6 Q10.1 -5.15 10.7 -1.7 11.3 1.75 10.2 3.75 L8.65 6.5 7.85 8.0 M6.6 -10.6 Q4.45 -11.5 2.15 -11.25 L1.05 -11.1 2.35 -10.55 4.3 -9.6 Q5.0 -7.85 5.35 -5.95 5.85 -3.3 5.05 -0.65 4.15 2.05 2.9 4.4 M1.05 -11.1 L0.55 -11.2 Q-1.65 -10.75 -3.5 -9.5 -1.95 -9.65 -0.5 -8.7 1.75 -7.35 1.75 -4.6 L1.7 -2.35 1.7 -1.4 1.7 -1.25 1.7 0.85 M-0.45 7.0 L-0.8 8.0 -1.1 8.4 -2.0 9.85 -3.85 10.5 -6.45 11.3 -5.25 11.25 -0.1 10.6 Q2.4 9.2 4.45 7.05 6.45 4.9 6.65 2.6 6.8 0.3 6.55 -1.4 M-0.1 10.6 L4.9 10.0 Q6.6 9.45 7.85 8.0 M-3.5 -9.5 Q-5.4 -9.5 -7.2 -8.7 L-8.05 -8.3 Q-14.4 -2.0 -13.4 3.5 -12.4 9.0 -10.15 10.25 L-9.4 10.6 -6.6 11.3 -6.45 11.3 M-10.15 10.25 L-9.6 10.55 -9.4 10.6" fill="none" stroke="#cc6600" stroke-linecap="round" stroke-linejoin="round" stroke-width="0.5"/>
      <path d="M7.85 8.0 Q9.4 7.65 10.45 6.7 12.25 4.95 13.0 2.35 13.85 -0.45 13.4 -3.25 12.9 -6.05 11.2 -8.3 9.5 -10.6 6.6 -10.6 Z" fill="none" stroke="#666666" stroke-linecap="round" stroke-linejoin="round" stroke-width="0.5"/>
      <path d="M-4.65 -8.2 L-4.6 -8.2 -3.8 -7.95 -3.6 -7.85 -3.35 -7.7 -3.0 -7.7 -2.75 -7.6 -3.0 -7.7 -2.9 -7.7 -2.75 -7.6 Q-0.9 -6.5 -0.05 -4.4 1.25 -1.5 0.35 1.9 -0.55 5.3 -3.1 7.25 -5.15 8.8 -7.3 8.6 L-7.75 8.55 -7.8 8.55 -7.85 8.55 -8.0 8.45 -8.1 8.45 -8.5 8.35 -8.6 8.35 -8.9 8.25 -8.95 8.25 Q-11.0 7.35 -12.1 4.9 -13.3 1.95 -12.4 -1.45 -11.5 -4.85 -9.0 -6.75 -6.85 -8.45 -4.65 -8.2 -6.85 -8.45 -9.0 -6.75 -11.5 -4.85 -12.4 -1.45 -13.3 1.95 -12.1 4.9 -11.0 7.35 -8.95 8.25 -11.55 7.55 -12.8 4.7 -14.0 1.75 -13.1 -1.65 -12.25 -5.05 -9.75 -6.95 -7.2 -8.9 -4.65 -8.2 M-3.35 -7.7 Q-1.65 -6.8 -0.75 -4.6 0.5 -1.7 -0.35 1.7 -1.25 5.1 -3.8 7.05 -5.85 8.6 -8.0 8.45 -5.85 8.6 -3.8 7.05 -1.25 5.1 -0.35 1.7 0.5 -1.7 -0.75 -4.6 -1.65 -6.8 -3.35 -7.7" fill="url(#gradient2)" fill-rule="evenodd" stroke="none"/>
      <path d="M-3.6 -7.85 L-3.8 -7.95 -4.6 -8.2 -4.65 -8.2 Q-6.85 -8.45 -9.0 -6.75 -11.5 -4.85 -12.4 -1.45 -13.3 1.95 -12.1 4.9 -11.0 7.35 -8.95 8.25 L-8.9 8.25 -8.6 8.35 -8.5 8.35 -8.1 8.45 -8.0 8.45 Q-5.85 8.6 -3.8 7.05 -1.25 5.1 -0.35 1.7 0.5 -1.7 -0.75 -4.6 -1.65 -6.8 -3.35 -7.7 M-3.0 -7.7 L-3.35 -7.7 M-3.0 -7.7 L-2.75 -7.6 -2.9 -7.7 -3.0 -7.7 -3.4 -7.9 -3.8 -7.95 M-8.95 8.25 Q-11.55 7.55 -12.8 4.7 -14.0 1.75 -13.1 -1.65 -12.25 -5.05 -9.75 -6.95 -7.2 -8.9 -4.65 -8.2 M-2.75 -7.6 Q-0.9 -6.5 -0.05 -4.4 1.25 -1.5 0.35 1.9 -0.55 5.3 -3.1 7.25 -5.15 8.8 -7.3 8.6 L-7.75 8.55 -7.8 8.55 -7.85 8.55 -8.1 8.45 M-8.0 8.45 L-7.85 8.55" fill="none" stroke="#666666" stroke-linecap="round" stroke-linejoin="round" stroke-width="0.5"/>
      <path d="M-10.2 5.7 Q-10.15 4.65 -9.65 3.7 -9.15 2.8 -8.4 2.4 L-6.95 2.35 Q-6.25 2.75 -5.9 3.8 -5.55 4.9 -5.75 6.0 -6.0 7.1 -7.1 7.4 L-9.2 7.15 Q-10.3 6.7 -10.2 5.7" fill="#000000" fill-rule="evenodd" stroke="none"/>
      <path d="M-10.2 5.7 Q-10.3 6.7 -9.2 7.15 L-7.1 7.4 Q-6.0 7.1 -5.75 6.0 -5.55 4.9 -5.9 3.8 -6.25 2.75 -6.95 2.35 L-8.4 2.4 Q-9.15 2.8 -9.65 3.7 -10.15 4.65 -10.2 5.7 Z" fill="none" stroke="#666666" stroke-linecap="round" stroke-linejoin="round" stroke-width="0.5"/>
      <path d="M-6.85 -1.8 Q-6.6 -1.35 -6.05 -1.25 L-5.1 -1.5 Q-4.7 -1.8 -4.6 -2.3 -4.45 -2.9 -4.7 -3.25 L-5.5 -3.75 -6.4 -3.5 -7.0 -2.6 Q-7.15 -2.1 -6.85 -1.8 M-5.1 -4.85 Q-4.35 -4.8 -3.95 -4.2 -3.5 -3.55 -3.65 -2.65 L-4.85 1.8 Q-5.05 2.6 -5.75 3.1 -6.45 3.6 -7.2 3.5 L-7.2 3.45 Q-8.05 3.35 -8.45 2.7 -8.9 2.05 -8.7 1.3 L-7.6 -3.15 Q-7.4 -4.0 -6.6 -4.45 -5.95 -5.0 -5.2 -4.9 L-5.1 -4.85 M-5.6 0.15 L-6.35 -0.2 -7.3 0.0 -7.8 0.8 -7.75 1.7 -6.9 2.15 -6.0 1.9 Q-5.55 1.65 -5.45 1.15 -5.35 0.55 -5.6 0.15" fill="url(#gradient3)" fill-rule="evenodd" stroke="none"/>
      <path d="M-6.85 -1.8 Q-6.6 -1.35 -6.05 -1.25 L-5.1 -1.5 Q-4.7 -1.8 -4.6 -2.3 -4.45 -2.9 -4.7 -3.25 L-5.5 -3.75 -6.4 -3.5 -7.0 -2.6 Q-7.15 -2.1 -6.85 -1.8 M-5.1 -4.85 Q-4.35 -4.8 -3.95 -4.2 -3.5 -3.55 -3.65 -2.65 L-4.85 1.8 Q-5.05 2.6 -5.75 3.1 -6.45 3.6 -7.2 3.5 L-7.2 3.45 Q-8.05 3.35 -8.45 2.7 -8.9 2.05 -8.7 1.3 L-7.6 -3.15 Q-7.4 -4.0 -6.6 -4.45 -5.95 -5.0 -5.2 -4.9 L-5.1 -4.85 M-5.6 0.15 L-6.35 -0.2 -7.3 0.0 -7.8 0.8 -7.75 1.7 -6.9 2.15 -6.0 1.9 Q-5.55 1.65 -5.45 1.15 -5.35 0.55 -5.6 0.15" fill="none" stroke="#666666" stroke-linecap="round" stroke-linejoin="round" stroke-width="0.5"/>
    </g>
    <linearGradient gradientTransform="matrix(0.0, 0.0114, 0.0042, 0.0, 10.05, -1.3)" gradientUnits="userSpaceOnUse" id="gradient0" spreadMethod="pad" x1="-819.2" x2="819.2">
      <stop offset="0.0" stop-color="#afafaf"/>
      <stop offset="0.5372549019607843" stop-color="#eaeaea"/>
      <stop offset="1.0" stop-color="#7b7b7b"/>
    </linearGradient>
    <linearGradient gradientTransform="matrix(-0.0038, 0.0145, -0.0099, -0.0026, 2.45, 0.95)" gradientUnits="userSpaceOnUse" id="gradient1" spreadMethod="pad" x1="-819.2" x2="819.2">
      <stop offset="0.0" stop-color="#ca740c"/>
      <stop offset="0.4588235294117647" stop-color="#ff9900"/>
      <stop offset="1.0" stop-color="#b16212"/>
    </linearGradient>
    <linearGradient gradientTransform="matrix(0.0027, -0.0101, 0.0078, 0.0021, -6.7, 0.05)" gradientUnits="userSpaceOnUse" id="gradient2" spreadMethod="pad" x1="-819.2" x2="819.2">
      <stop offset="0.0784313725490196" stop-color="#d5d5d5"/>
      <stop offset="0.39215686274509803" stop-color="#9b9b9b"/>
      <stop offset="0.596078431372549" stop-color="#cccccc"/>
      <stop offset="0.7490196078431373" stop-color="#c8c8c8"/>
      <stop offset="1.0" stop-color="#444444"/>
    </linearGradient>
    <linearGradient gradientTransform="matrix(0.0039, -0.0026, -0.0023, -0.0035, -6.15, -0.65)" gradientUnits="userSpaceOnUse" id="gradient3" spreadMethod="pad" x1="-819.2" x2="819.2">
      <stop offset="0.0784313725490196" stop-color="#4d4d4d"/>
      <stop offset="0.39215686274509803" stop-color="#9b9b9b"/>
      <stop offset="0.596078431372549" stop-color="#cccccc"/>
      <stop offset="0.7490196078431373" stop-color="#c8c8c8"/>
      <stop offset="1.0" stop-color="#444444"/>
    </linearGradient>
  </defs>
</svg>
