<?xml version="1.0" encoding="UTF-8" standalone="no"?>
<svg xmlns:xlink="http://www.w3.org/1999/xlink" height="17.7px" width="32.3px" xmlns="http://www.w3.org/2000/svg">
  <g transform="matrix(1.0, 0.0, 0.0, 1.0, 16.15, 8.85)">
    <use height="17.7" transform="matrix(1.0, 0.0, 0.0, 1.0, -16.15, -8.85)" width="32.3" xlink:href="#shape0"/>
  </g>
  <defs>
    <g id="shape0" transform="matrix(1.0, 0.0, 0.0, 1.0, 16.15, 8.85)">
      <path d="M-6.35 -4.1 L-5.15 -4.65 Q-1.75 -5.85 1.95 -6.1 L1.95 -6.05 Q2.6 -5.5 1.6 -5.35 L-2.15 -4.65 -4.55 -3.95 -5.5 -3.65 Q-7.1 -3.1 -8.1 -1.9 -8.5 -1.35 -9.05 -1.35 L-9.3 -1.6 -9.1 -2.1 -8.45 -2.75 -6.35 -4.1 M-11.15 -0.8 L-10.9 -0.55 -10.9 -0.25 -10.95 -0.1 -11.2 0.0 -11.25 0.25 -11.65 0.75 -11.85 0.9 -12.15 0.65 -12.05 -0.3 Q-11.8 -0.85 -11.2 -0.8 L-11.15 -0.8 M-5.4 8.1 Q-6.1 0.5 -5.05 2.0 L-5.05 2.4 -5.0 2.75 -5.05 3.15 -5.0 3.45 -5.0 3.65 -4.95 4.05 Q-4.3 5.4 -2.2 6.35 0.5 7.65 3.95 7.15 L10.15 6.05 Q12.9 5.6 13.2 4.9 L13.45 3.85 13.4 3.55 13.35 3.4 13.35 3.35 13.4 2.8 Q13.35 1.3 11.3 0.15 L11.0 0.0 10.9 -0.05 10.7 -0.15 10.6 -0.2 Q7.05 -2.2 15.9 0.95 15.65 4.3 11.8 6.0 7.95 7.75 0.4 8.3 L-5.4 8.1 M6.4 -3.3 L7.1 -3.15 Q7.45 -3.05 7.4 -2.7 L7.2 -2.5 Q4.25 -2.9 1.35 -2.4 L0.95 -2.35 -0.85 -1.9 -5.4 -0.3 -6.45 -0.2 -6.75 -0.45 -6.75 -0.7 -3.7 -1.85 -2.4 -2.35 -0.5 -2.9 0.7 -3.15 6.4 -3.3 M-8.3 0.85 L-8.2 0.9 Q-8.0 1.05 -8.15 1.2 L-8.7 2.5 -8.95 2.65 Q-9.85 2.5 -9.45 1.65 L-9.4 1.55 Q-9.15 0.9 -8.35 0.8 L-8.3 0.85" fill="#ffffff" fill-rule="evenodd" stroke="none"/>
      <path d="M-9.1 -2.1 L-9.3 -1.6 -9.05 -1.35 Q-8.5 -1.35 -8.1 -1.9 -7.1 -3.1 -5.5 -3.65 L-4.55 -3.95 -2.15 -4.65 1.6 -5.35 Q2.6 -5.5 1.95 -6.05 L1.95 -6.1 Q-1.75 -5.85 -5.15 -4.65 L-6.35 -4.1 -5.3 -5.05 -3.65 -5.35 Q-0.35 -5.95 -0.5 -6.5 -0.6 -6.85 1.65 -8.1 1.15 -7.05 7.9 -5.6 4.3 -4.55 2.25 -4.35 L-3.1 -3.35 -2.75 -3.45 Q-5.3 -3.25 -7.75 -1.25 -10.15 0.65 -9.85 1.85 L-9.4 1.55 -9.45 1.65 Q-9.85 2.5 -8.95 2.65 L-8.7 2.5 -8.15 1.2 Q-8.0 1.05 -8.2 0.9 L-8.3 0.85 Q-7.4 0.25 -6.45 -0.2 L-5.4 -0.3 -0.85 -1.9 0.95 -2.35 1.35 -2.4 Q4.25 -2.9 7.2 -2.5 L7.4 -2.7 Q7.45 -3.05 7.1 -3.15 L6.4 -3.3 7.05 -3.4 9.35 -3.2 Q13.1 -1.65 15.9 0.95 7.05 -2.2 10.6 -0.2 7.85 -1.45 4.05 -1.5 0.25 -1.6 -2.4 -0.45 -4.8 0.55 -5.05 2.0 -6.1 0.5 -5.4 8.1 L-6.8 6.6 -6.9 5.8 -6.1 2.2 -6.2 2.2 Q-6.3 2.9 -8.7 6.6 L-12.0 4.25 -12.0 1.85 -11.85 0.9 -11.65 0.75 -11.25 0.25 -11.2 0.0 -10.95 -0.1 -10.9 -0.25 -10.9 -0.55 -11.15 -0.8 -9.1 -2.1" fill="url(#gradient0)" fill-rule="evenodd" stroke="none"/>
      <path d="M-6.35 -4.1 L-8.45 -2.75 -9.1 -2.1 -11.15 -0.8 -11.2 -0.8 Q-11.8 -0.85 -12.05 -0.3 L-12.15 0.65 -11.85 0.9 -12.0 1.85 -15.05 -0.15 Q-14.35 -0.05 -13.05 -0.9 L-9.3 -3.3 Q-7.55 -4.45 -5.3 -5.05 L-6.35 -4.1 M-8.7 6.6 Q-6.3 2.9 -6.2 2.2 L-6.1 2.2 -6.9 5.8 -6.8 6.6 -8.7 6.6 M9.35 -3.2 L7.05 -3.4 6.4 -3.3 0.7 -3.15 -0.5 -2.9 -2.4 -2.35 -3.7 -1.85 -6.75 -0.7 -6.75 -0.45 -6.45 -0.2 Q-7.4 0.25 -8.3 0.85 L-8.35 0.8 Q-9.15 0.9 -9.4 1.55 L-9.85 1.85 Q-10.15 0.65 -7.75 -1.25 -5.3 -3.25 -2.75 -3.45 L-3.1 -3.35 2.25 -4.35 Q4.3 -4.55 7.9 -5.6 L9.35 -4.45 9.35 -3.2" fill="#b3b3b3" fill-rule="evenodd" stroke="none"/>
      <path d="M-5.05 2.0 Q-4.8 0.55 -2.4 -0.45 0.25 -1.6 4.05 -1.5 7.85 -1.45 10.6 -0.2 L10.7 -0.15 10.9 -0.05 11.0 0.0 11.3 0.15 Q13.35 1.3 13.4 2.8 L13.35 3.35 Q12.95 1.9 10.65 0.8 7.9 -0.45 4.1 -0.5 0.25 -0.6 -2.35 0.55 -4.7 1.55 -5.0 2.9 -4.7 1.55 -2.35 0.55 0.25 -0.6 4.1 -0.5 7.9 -0.45 10.65 0.8 12.95 1.9 13.35 3.35 L13.35 3.4 13.4 3.55 13.45 3.85 13.2 4.9 Q12.9 5.6 10.15 6.05 L3.95 7.15 Q0.5 7.65 -2.2 6.35 -4.3 5.4 -4.95 4.05 L-5.0 3.65 -4.85 3.25 -5.0 3.05 -5.0 2.9 -5.0 2.75 -5.05 2.4 -5.05 2.0 M-4.85 3.25 Q-4.3 4.4 -2.25 5.4 0.45 6.65 3.95 6.15 L10.15 5.15 Q12.95 4.65 13.35 3.4 12.95 4.65 10.15 5.15 L3.95 6.15 Q0.45 6.65 -2.25 5.4 -4.3 4.4 -4.85 3.25" fill="url(#gradient1)" fill-rule="evenodd" stroke="none"/>
      <path d="M-5.0 2.9 L-5.05 3.15 -5.0 2.75 -5.0 2.9" fill="#345f21" fill-rule="evenodd" stroke="none"/>
      <path d="M-12.0 1.85 L-12.0 4.25 -8.7 6.6 M-6.8 6.6 L-5.4 8.1 M15.9 0.95 Q13.1 -1.65 9.35 -3.2 M7.9 -5.6 Q1.15 -7.05 1.65 -8.1 M7.9 -5.6 L9.35 -4.45 9.35 -3.2 M-6.8 6.6 L-8.7 6.6 M15.9 0.95 Q15.65 4.3 11.8 6.0 7.95 7.75 0.4 8.3 L-5.4 8.1 M-12.0 1.85 L-15.05 -0.15" fill="none" stroke="#cccccc" stroke-linecap="round" stroke-linejoin="round" stroke-width="0.5"/>
      <path d="M-5.05 2.0 Q-4.8 0.55 -2.4 -0.45 0.25 -1.6 4.05 -1.5 7.85 -1.45 10.6 -0.2 M11.0 0.0 L10.9 -0.05 10.7 -0.15 10.6 -0.2 M-5.0 3.05 L-5.0 2.9 Q-4.7 1.55 -2.35 0.55 0.25 -0.6 4.1 -0.5 7.9 -0.45 10.65 0.8 12.95 1.9 13.35 3.35 L13.4 2.8 Q13.35 1.3 11.3 0.15 M-5.0 3.45 L-5.0 3.65 -4.85 3.25 M-5.05 2.0 L-5.05 2.4 -5.0 2.75 -5.0 2.9 M-5.0 3.65 L-4.95 4.05 Q-4.3 5.4 -2.2 6.35 0.5 7.65 3.95 7.15 L10.15 6.05 Q12.9 5.6 13.2 4.9 L13.45 3.85 13.4 3.55 13.35 3.4 Q12.95 4.65 10.15 5.15 L3.95 6.15 Q0.45 6.65 -2.25 5.4 -4.3 4.4 -4.85 3.25 M13.35 3.4 L13.35 3.35" fill="none" stroke="#666666" stroke-linecap="round" stroke-linejoin="round" stroke-width="0.5"/>
      <path d="M-5.0 2.9 L-5.05 3.15 -5.0 3.45 M11.3 0.15 L11.0 0.0" fill="none" stroke="#006600" stroke-linecap="round" stroke-linejoin="round" stroke-width="0.5"/>
      <path d="M2.1 4.15 Q1.35 4.7 0.35 4.85 -0.65 4.95 -1.4 4.25 -2.15 3.5 -2.3 2.6 -2.4 1.65 -1.5 1.45 L0.35 1.35 Q1.3 1.45 2.05 1.9 2.8 2.4 2.8 3.0 2.85 3.6 2.1 4.15" fill="#000000" fill-rule="evenodd" stroke="none"/>
      <path d="M2.1 4.15 Q2.85 3.6 2.8 3.0 2.8 2.4 2.05 1.9 1.3 1.45 0.35 1.35 L-1.5 1.45 Q-2.4 1.65 -2.3 2.6 -2.15 3.5 -1.4 4.25 -0.65 4.95 0.35 4.85 1.35 4.7 2.1 4.15 Z" fill="none" stroke="#666666" stroke-linecap="round" stroke-linejoin="round" stroke-width="0.5"/>
      <path d="M7.4 -0.1 Q8.15 0.15 8.5 0.7 L8.55 0.7 Q8.95 1.25 8.8 1.7 L7.95 2.35 4.25 3.1 2.9 3.0 1.75 2.15 1.7 2.15 Q1.35 1.6 1.45 1.15 1.65 0.65 2.3 0.55 L5.9 -0.25 7.4 -0.1 M7.2 1.9 L7.65 1.5 7.5 0.9 6.85 0.4 5.95 0.3 Q5.5 0.4 5.4 0.65 L5.55 1.35 Q5.85 1.65 6.3 1.8 L7.2 1.9 M2.8 1.9 L3.5 2.4 4.35 2.45 Q4.8 2.4 4.9 2.1 5.05 1.85 4.7 1.5 L4.0 0.95 3.15 0.9 2.6 1.3 2.8 1.9" fill="url(#gradient2)" fill-rule="evenodd" stroke="none"/>
      <path d="M7.4 -0.1 Q8.15 0.15 8.5 0.7 L8.55 0.7 Q8.95 1.25 8.8 1.7 L7.95 2.35 4.25 3.1 2.9 3.0 1.75 2.15 1.7 2.15 Q1.35 1.6 1.45 1.15 1.65 0.65 2.3 0.55 L5.9 -0.25 7.4 -0.1 M7.2 1.9 L7.65 1.5 7.5 0.9 6.85 0.4 5.95 0.3 Q5.5 0.4 5.4 0.65 L5.55 1.35 Q5.85 1.65 6.3 1.8 L7.2 1.9 M2.8 1.9 L3.5 2.4 4.35 2.45 Q4.8 2.4 4.9 2.1 5.05 1.85 4.7 1.5 L4.0 0.95 3.15 0.9 2.6 1.3 2.8 1.9" fill="none" stroke="#666666" stroke-linecap="round" stroke-linejoin="round" stroke-width="0.5"/>
      <path d="M1.9 -7.9 Q2.5 -7.4 1.25 -6.5 -0.05 -5.6 -3.35 -5.0 L-5.0 -4.7 Q-7.25 -4.1 -9.0 -2.95 L-12.75 -0.55 Q-14.05 0.3 -14.75 0.2 L-14.9 0.1 -15.3 -0.15 -15.85 -1.3 Q-16.2 -2.2 -14.2 -3.9 -12.2 -5.65 -10.1 -6.65 -8.0 -7.7 -4.4 -8.2 L0.25 -8.55 Q1.3 -8.4 1.9 -7.9 M-14.5 -2.35 Q-5.4 -6.8 -1.75 -7.05 1.85 -7.35 0.1 -7.45 L-6.65 -7.05 Q-10.85 -6.0 -14.5 -2.35" fill="url(#gradient3)" fill-rule="evenodd" stroke="none"/>
      <path d="M-14.5 -2.35 Q-10.85 -6.0 -6.65 -7.05 L0.1 -7.45 Q1.85 -7.35 -1.75 -7.05 -5.4 -6.8 -14.5 -2.35" fill="#666666" fill-rule="evenodd" stroke="none"/>
      <path d="M1.9 -7.9 Q1.3 -8.4 0.25 -8.55 L-4.4 -8.2 Q-8.0 -7.7 -10.1 -6.65 -12.2 -5.65 -14.2 -3.9 -16.2 -2.2 -15.85 -1.3 L-15.3 -0.15 -14.9 0.1 -14.75 0.2 Q-14.05 0.3 -12.75 -0.55 L-9.0 -2.95 Q-7.25 -4.1 -5.0 -4.7 L-3.35 -5.0 Q-0.05 -5.6 1.25 -6.5 2.5 -7.4 1.9 -7.9 Z" fill="none" stroke="#666666" stroke-linecap="round" stroke-linejoin="round" stroke-width="0.5"/>
    </g>
    <linearGradient gradientTransform="matrix(0.017, 0.0, 0.0, 0.0099, 1.95, 0.0)" gradientUnits="userSpaceOnUse" id="gradient0" spreadMethod="pad" x1="-819.2" x2="819.2">
      <stop offset="0.0" stop-color="#c8c8c8"/>
      <stop offset="0.19607843137254902" stop-color="#fbfbfb"/>
      <stop offset="0.7568627450980392" stop-color="#eeeeee"/>
      <stop offset="1.0" stop-color="#aeaeae"/>
    </linearGradient>
    <linearGradient gradientTransform="matrix(-0.0113, -3.0E-4, 2.0E-4, 0.0051, 4.15, 2.55)" gradientUnits="userSpaceOnUse" id="gradient1" spreadMethod="pad" x1="-819.2" x2="819.2">
      <stop offset="0.0784313725490196" stop-color="#d5d5d5"/>
      <stop offset="0.39215686274509803" stop-color="#9b9b9b"/>
      <stop offset="0.596078431372549" stop-color="#cccccc"/>
      <stop offset="0.7490196078431373" stop-color="#c8c8c8"/>
      <stop offset="1.0" stop-color="#444444"/>
    </linearGradient>
    <linearGradient gradientTransform="matrix(0.004, 0.0015, 9.0E-4, -0.0026, 5.1, 1.45)" gradientUnits="userSpaceOnUse" id="gradient2" spreadMethod="pad" x1="-819.2" x2="819.2">
      <stop offset="0.0784313725490196" stop-color="#4d4d4d"/>
      <stop offset="0.39215686274509803" stop-color="#9b9b9b"/>
      <stop offset="0.596078431372549" stop-color="#cccccc"/>
      <stop offset="0.7490196078431373" stop-color="#c8c8c8"/>
      <stop offset="1.0" stop-color="#444444"/>
    </linearGradient>
    <linearGradient gradientTransform="matrix(-9.0E-4, -0.0026, -0.0054, 0.0011, -8.8, -6.1)" gradientUnits="userSpaceOnUse" id="gradient3" spreadMethod="pad" x1="-819.2" x2="819.2">
      <stop offset="0.0784313725490196" stop-color="#d5d5d5"/>
      <stop offset="0.39215686274509803" stop-color="#9b9b9b"/>
      <stop offset="0.596078431372549" stop-color="#cccccc"/>
      <stop offset="0.7490196078431373" stop-color="#c8c8c8"/>
      <stop offset="1.0" stop-color="#444444"/>
    </linearGradient>
  </defs>
</svg>
