<?xml version="1.0" encoding="UTF-8" standalone="no"?>
<svg xmlns:xlink="http://www.w3.org/1999/xlink" height="36.25px" width="24.25px" xmlns="http://www.w3.org/2000/svg">
  <g transform="matrix(1.0, 0.0, 0.0, 1.0, 12.1, 18.1)">
    <use height="36.25" transform="matrix(1.0, 0.0, 0.0, 1.0, -12.1, -18.1)" width="24.25" xlink:href="#shape0"/>
  </g>
  <defs>
    <g id="shape0" transform="matrix(1.0, 0.0, 0.0, 1.0, 12.1, 18.1)">
      <path d="M10.3 -16.0 Q12.05 -15.0 12.05 -13.7 12.05 -12.75 11.05 -11.95 10.15 -11.3 8.55 -10.7 5.0 -9.45 0.05 -9.45 -4.95 -9.45 -8.45 -10.7 -10.1 -11.3 -11.0 -11.95 -12.0 -12.75 -12.0 -13.7 -12.0 -15.5 -8.45 -16.75 -4.95 -18.0 0.05 -18.0 L1.9 -17.95 0.2 -17.95 Q-4.5 -17.95 -7.85 -16.9 -11.2 -15.8 -11.15 -14.2 -11.2 -12.65 -7.85 -11.6 -4.5 -10.5 0.2 -10.45 4.9 -10.5 8.25 -11.6 11.55 -12.65 11.6 -14.2 11.55 -15.2 10.3 -16.0" fill="url(#gradient0)" fill-rule="evenodd" stroke="none"/>
      <path d="M10.3 -16.0 Q11.55 -15.2 11.6 -14.2 11.55 -12.65 8.25 -11.6 4.9 -10.5 0.2 -10.45 -4.5 -10.5 -7.85 -11.6 -11.2 -12.65 -11.15 -14.2 -11.2 -15.8 -7.85 -16.9 -4.5 -17.95 0.2 -17.95 L1.9 -17.95 6.05 -17.45 8.55 -16.75 10.3 -16.0" fill="url(#gradient1)" fill-rule="evenodd" stroke="none"/>
      <path d="M-11.0 -11.95 Q-10.1 -11.3 -8.45 -10.7 -4.95 -9.45 0.05 -9.45 5.0 -9.45 8.55 -10.7 10.15 -11.3 11.05 -11.95 L8.35 15.55 Q8.25 16.6 6.05 17.3 3.8 18.05 0.6 18.05 -2.6 18.05 -4.9 17.3 -7.15 16.55 -7.15 15.45 L-11.0 -11.95" fill="url(#gradient2)" fill-rule="evenodd" stroke="none"/>
      <path d="M11.05 -11.95 Q12.05 -12.75 12.05 -13.7 12.05 -15.0 10.3 -16.0 M1.9 -17.95 L0.05 -18.0 Q-4.95 -18.0 -8.45 -16.75 -12.0 -15.5 -12.0 -13.7 -12.0 -12.75 -11.0 -11.95 -10.1 -11.3 -8.45 -10.7 -4.95 -9.45 0.05 -9.45 5.0 -9.45 8.55 -10.7 10.15 -11.3 11.05 -11.95 L8.35 15.55 Q8.25 16.6 6.05 17.3 3.8 18.05 0.6 18.05 -2.6 18.05 -4.9 17.3 -7.15 16.55 -7.15 15.45 L-11.0 -11.95 M1.9 -17.95 L6.05 -17.45 8.55 -16.75 10.3 -16.0" fill="none" stroke="#999999" stroke-linecap="round" stroke-linejoin="round" stroke-width="0.25"/>
      <path d="M-0.25 -10.2 Q-0.05 -10.05 -0.1 -9.7 -0.1 -9.3 -0.55 -8.85 L-0.35 -7.05 Q-0.15 -6.1 -0.95 -6.1 -1.45 -6.1 -1.65 -6.7 L-1.75 -7.35 Q-2.8 -8.15 -2.65 -8.6 L-3.0 -8.6 Q-3.0 -7.25 -3.45 -4.2 -3.45 0.1 -4.45 0.1 -4.85 0.1 -5.35 -4.65 L-5.95 -8.55 -6.0 -7.25 -5.65 -3.6 Q-5.65 -2.35 -6.25 -2.35 -6.85 -2.35 -7.05 -5.55 L-7.15 -6.85 -7.15 -3.0 Q-7.15 1.25 -7.8 -0.95 -8.7 -5.15 -8.55 -6.7 L-8.6 -8.65 Q-8.75 -8.4 -9.05 -8.4 -9.55 -8.4 -9.65 -9.3 L-9.65 -10.2 -9.65 -11.15 Q-9.55 -12.0 -9.0 -12.0 -8.75 -12.0 -8.6 -11.8 L-8.35 -11.85 -5.4 -11.0 -2.2 -10.5 -0.6 -10.5 -0.25 -10.2" fill="#764701" fill-opacity="0.1764706" fill-rule="evenodd" stroke="none"/>
    </g>
    <linearGradient gradientTransform="matrix(0.0, 0.0052, -0.0147, 0.0, 0.05, -13.75)" gradientUnits="userSpaceOnUse" id="gradient0" spreadMethod="pad" x1="-819.2" x2="819.2">
      <stop offset="0.16862745098039217" stop-color="#d2cfd1"/>
      <stop offset="1.0" stop-color="#ffffff"/>
    </linearGradient>
    <linearGradient gradientTransform="matrix(0.0, 0.0046, -0.0139, 0.0, 0.25, -14.2)" gradientUnits="userSpaceOnUse" id="gradient1" spreadMethod="pad" x1="-819.2" x2="819.2">
      <stop offset="0.16862745098039217" stop-color="#d2cfd1"/>
      <stop offset="1.0" stop-color="#55595e"/>
    </linearGradient>
    <linearGradient gradientTransform="matrix(0.0135, 0.0, 0.0, 0.0183, 0.0, 3.05)" gradientUnits="userSpaceOnUse" id="gradient2" spreadMethod="pad" x1="-819.2" x2="819.2">
      <stop offset="0.0" stop-color="#adb0b5"/>
      <stop offset="0.16862745098039217" stop-color="#d2cfd1"/>
      <stop offset="0.4" stop-color="#eaeaea"/>
      <stop offset="0.6235294117647059" stop-color="#d9d5d6"/>
      <stop offset="1.0" stop-color="#a1a6ac"/>
    </linearGradient>
  </defs>
</svg>
