<?xml version="1.0" encoding="UTF-8" standalone="no"?>
<svg xmlns:xlink="http://www.w3.org/1999/xlink" height="25.4px" width="24.25px" xmlns="http://www.w3.org/2000/svg">
  <g transform="matrix(1.0, 0.0, 0.0, 1.0, 12.1, 12.7)">
    <use height="25.4" transform="matrix(1.0, 0.0, 0.0, 1.0, -12.1, -12.7)" width="24.25" xlink:href="#shape0"/>
  </g>
  <defs>
    <g id="shape0" transform="matrix(1.0, 0.0, 0.0, 1.0, 12.1, 12.7)">
      <path d="M-7.0 -12.0 L-6.7 -12.05 -6.15 -12.15 0.0 -12.6 0.2 -12.6 1.9 -12.55 5.65 -12.25 8.55 -11.7 10.25 -11.2 Q11.55 -10.65 11.55 -9.95 11.55 -8.9 8.2 -8.15 4.9 -7.35 0.2 -7.35 L-7.85 -8.15 Q-11.2 -8.9 -11.2 -9.95 -11.2 -11.05 -7.85 -11.85 L-7.0 -12.0" fill="url(#gradient0)" fill-rule="evenodd" stroke="none"/>
      <path d="M10.25 -11.2 Q12.0 -10.5 12.05 -9.6 12.0 -8.95 11.0 -8.4 10.15 -7.9 8.5 -7.5 L0.0 -6.6 -8.5 -7.5 Q-10.15 -7.9 -11.0 -8.4 -12.0 -8.95 -12.0 -9.6 -12.0 -10.85 -8.5 -11.75 L-7.0 -12.0 -7.85 -11.85 Q-11.2 -11.05 -11.2 -9.95 -11.2 -8.9 -7.85 -8.15 L0.2 -7.35 Q4.9 -7.35 8.2 -8.15 11.55 -8.9 11.55 -9.95 11.55 -10.65 10.25 -11.2" fill="url(#gradient1)" fill-rule="evenodd" stroke="none"/>
      <path d="M11.0 -8.4 L8.35 10.85 Q8.2 11.55 6.05 12.05 L0.6 12.6 -4.9 12.05 Q-7.2 11.5 -7.15 10.75 L-11.0 -8.4 Q-10.15 -7.9 -8.5 -7.5 L0.0 -6.6 8.5 -7.5 Q10.15 -7.9 11.0 -8.4" fill="url(#gradient2)" fill-rule="evenodd" stroke="none"/>
      <path d="M-7.0 -12.0 L-6.7 -12.05 -6.15 -12.15 0.0 -12.6 0.2 -12.6 1.9 -12.55 5.65 -12.25 8.55 -11.7 10.25 -11.2 Q12.0 -10.5 12.05 -9.6 12.0 -8.95 11.0 -8.4 L8.35 10.85 Q8.2 11.55 6.05 12.05 L0.6 12.6 -4.9 12.05 Q-7.2 11.5 -7.15 10.75 L-11.0 -8.4 Q-12.0 -8.95 -12.0 -9.6 -12.0 -10.85 -8.5 -11.75 L-7.0 -12.0 M-11.0 -8.4 Q-10.15 -7.9 -8.5 -7.5 L0.0 -6.6 8.5 -7.5 Q10.15 -7.9 11.0 -8.4" fill="none" stroke="#999999" stroke-linecap="round" stroke-linejoin="round" stroke-width="0.25"/>
      <path d="M3.75 -0.1 Q4.1 -0.1 4.1 -0.45 L3.75 -0.8 Q3.3 -0.8 3.3 -0.45 3.3 -0.1 3.75 -0.1 M0.95 -1.1 L0.6 -1.45 Q0.15 -1.45 0.15 -1.1 0.15 -0.8 0.6 -0.8 0.95 -0.8 0.95 -1.1 M1.9 -0.95 Q1.9 -0.6 2.35 -0.6 2.7 -0.6 2.7 -0.95 L2.35 -1.3 Q1.9 -1.3 1.9 -0.95 M5.05 -1.1 Q3.3 -2.35 0.8 -2.25 -1.75 -2.15 -3.65 -1.2 -5.6 -0.3 -5.2 2.15 -4.85 4.55 -3.25 5.85 -1.65 7.2 0.65 7.25 2.9 7.2 4.5 5.85 6.1 4.55 6.45 2.35 6.75 0.1 5.05 -1.1 M4.6 -0.75 Q6.1 0.35 5.85 2.35 5.55 4.35 4.1 5.55 2.65 6.75 0.6 6.8 -1.45 6.75 -2.9 5.55 -4.3 4.35 -4.65 2.2 -5.0 0.0 -3.25 -0.85 -1.55 -1.7 0.75 -1.75 3.0 -1.85 4.6 -0.75 M5.55 -1.5 Q7.45 -0.15 7.1 2.3 6.75 4.8 4.95 6.25 3.2 7.75 0.65 7.75 -1.9 7.75 -3.7 6.25 -5.45 4.8 -5.85 2.1 -6.25 -0.55 -4.1 -1.6 -2.0 -2.7 0.8 -2.8 3.6 -2.9 5.55 -1.5 M4.35 2.45 Q4.55 1.0 3.45 0.2 2.35 -0.55 0.75 -0.5 -0.9 -0.45 -2.1 0.2 -3.35 0.75 -3.1 2.3 -2.9 3.85 -1.85 4.7 -0.85 5.6 0.65 5.6 2.1 5.6 3.1 4.7 4.15 3.85 4.35 2.45 M4.4 0.65 L4.85 0.95 5.2 0.65 4.85 0.3 Q4.4 0.3 4.4 0.65 M-0.85 5.7 Q-0.85 5.35 -1.2 5.35 -1.65 5.35 -1.65 5.7 -1.65 6.05 -1.2 6.05 -0.85 6.05 -0.85 5.7 M-3.7 1.35 Q-3.35 1.35 -3.35 1.0 -3.4 0.7 -3.7 0.7 -4.15 0.7 -4.15 1.0 L-3.7 1.35 M-2.8 -0.55 Q-3.25 -0.55 -3.25 -0.2 -3.25 0.15 -2.8 0.15 -2.45 0.15 -2.45 -0.2 -2.45 -0.55 -2.8 -0.55 M-1.1 -0.55 Q-0.75 -0.55 -0.75 -0.9 -0.8 -1.25 -1.1 -1.25 L-1.55 -0.9 Q-1.55 -0.55 -1.1 -0.55 M3.0 5.3 Q2.55 5.3 2.55 5.6 2.55 5.95 3.0 5.95 L3.35 5.6 3.0 5.3 M1.4 5.7 Q0.95 5.7 0.95 6.05 0.95 6.35 1.4 6.35 1.75 6.35 1.75 6.05 L1.4 5.7 M0.45 6.1 Q0.45 5.75 0.1 5.75 -0.35 5.75 -0.35 6.1 L0.1 6.4 0.45 6.1" fill="#004d39" fill-rule="evenodd" stroke="none"/>
      <path d="M1.9 -0.95 Q1.9 -1.3 2.35 -1.3 L2.7 -0.95 Q2.7 -0.6 2.35 -0.6 1.9 -0.6 1.9 -0.95 M0.95 -1.1 Q0.95 -0.8 0.6 -0.8 0.15 -0.8 0.15 -1.1 0.15 -1.45 0.6 -1.45 L0.95 -1.1 M3.75 -0.1 Q3.3 -0.1 3.3 -0.45 3.3 -0.8 3.75 -0.8 L4.1 -0.45 Q4.1 -0.1 3.75 -0.1 M2.75 2.05 L3.2 2.35 Q3.5 5.4 0.5 4.55 L-0.3 4.8 -1.5 4.55 Q-2.6 3.9 -2.1 2.55 L-1.2 2.35 -0.8 3.5 0.4 3.0 1.1 3.1 1.85 3.45 2.75 2.05 M4.4 0.65 Q4.4 0.3 4.85 0.3 L5.2 0.65 4.85 0.95 4.4 0.65 M1.85 1.7 Q1.85 2.2 1.45 2.5 1.05 2.85 0.5 2.85 -0.05 2.85 -0.45 2.5 -0.85 2.2 -0.85 1.7 -0.85 1.2 -0.45 0.85 -0.05 0.5 0.5 0.5 1.05 0.5 1.45 0.85 1.85 1.2 1.85 1.7 M0.45 6.1 L0.1 6.4 -0.35 6.1 Q-0.35 5.75 0.1 5.75 0.45 5.75 0.45 6.1 M1.4 5.7 L1.75 6.05 Q1.75 6.35 1.4 6.35 0.95 6.35 0.95 6.05 0.95 5.7 1.4 5.7 M3.0 5.3 L3.35 5.6 3.0 5.95 Q2.55 5.95 2.55 5.6 2.55 5.3 3.0 5.3 M-1.1 -0.55 Q-1.55 -0.55 -1.55 -0.9 L-1.1 -1.25 Q-0.8 -1.25 -0.75 -0.9 -0.75 -0.55 -1.1 -0.55 M-2.8 -0.55 Q-2.45 -0.55 -2.45 -0.2 -2.45 0.15 -2.8 0.15 -3.25 0.15 -3.25 -0.2 -3.25 -0.55 -2.8 -0.55 M-3.7 1.35 L-4.15 1.0 Q-4.15 0.7 -3.7 0.7 -3.4 0.7 -3.35 1.0 -3.35 1.35 -3.7 1.35 M-0.85 5.7 Q-0.85 6.05 -1.2 6.05 -1.65 6.05 -1.65 5.7 -1.65 5.35 -1.2 5.35 -0.85 5.35 -0.85 5.7" fill="#cccccc" fill-rule="evenodd" stroke="none"/>
      <path d="M4.35 2.45 Q4.15 3.85 3.1 4.7 2.1 5.6 0.65 5.6 -0.85 5.6 -1.85 4.7 -2.9 3.85 -3.1 2.3 -3.35 0.75 -2.1 0.2 -0.9 -0.45 0.75 -0.5 2.35 -0.55 3.45 0.2 4.55 1.0 4.35 2.45 M2.75 2.05 L1.85 3.45 1.1 3.1 0.4 3.0 -0.8 3.5 -1.2 2.35 -2.1 2.55 Q-2.6 3.9 -1.5 4.55 L-0.3 4.8 0.5 4.55 Q3.5 5.4 3.2 2.35 L2.75 2.05 M1.85 1.7 Q1.85 1.2 1.45 0.85 1.05 0.5 0.5 0.5 -0.05 0.5 -0.45 0.85 -0.85 1.2 -0.85 1.7 -0.85 2.2 -0.45 2.5 -0.05 2.85 0.5 2.85 1.05 2.85 1.45 2.5 1.85 2.2 1.85 1.7" fill="#333333" fill-rule="evenodd" stroke="none"/>
      <path d="M7.3 -3.05 L7.35 -3.65 7.3 -3.25 7.3 -3.05 M0.45 -0.55 L0.65 -3.4 Q0.2 -4.15 0.2 -4.8 L-0.05 -7.25 Q5.9 -6.95 9.75 -8.55 L9.75 -4.15 Q9.65 -2.7 9.15 -2.7 8.85 -2.7 8.7 -3.1 L8.65 0.0 Q8.8 2.5 7.95 9.15 7.25 12.7 7.25 5.9 L7.3 -0.15 7.15 1.85 Q6.95 6.95 6.35 7.0 5.75 6.95 5.75 5.0 L6.1 -0.85 6.1 -2.45 6.1 -3.0 5.45 3.3 Q4.95 10.85 4.55 10.9 3.55 10.9 3.55 4.0 3.1 -0.85 3.1 -3.0 L2.75 -3.0 Q2.9 -2.3 1.85 -1.0 L1.75 0.0 Q1.55 0.95 1.05 1.0 0.25 0.95 0.45 -0.55" fill="#764701" fill-opacity="0.1764706" fill-rule="evenodd" stroke="none"/>
    </g>
    <linearGradient gradientTransform="matrix(0.0, 0.0032, -0.0139, 0.0, 0.25, -9.95)" gradientUnits="userSpaceOnUse" id="gradient0" spreadMethod="pad" x1="-819.2" x2="819.2">
      <stop offset="0.16862745098039217" stop-color="#d2cfd1"/>
      <stop offset="1.0" stop-color="#55595e"/>
    </linearGradient>
    <linearGradient gradientTransform="matrix(0.0, 0.0036, -0.0147, 0.0, 0.05, -9.65)" gradientUnits="userSpaceOnUse" id="gradient1" spreadMethod="pad" x1="-819.2" x2="819.2">
      <stop offset="0.16862745098039217" stop-color="#d2cfd1"/>
      <stop offset="1.0" stop-color="#ffffff"/>
    </linearGradient>
    <linearGradient gradientTransform="matrix(0.0135, 0.0, 0.0, 0.0128, 0.0, 2.1)" gradientUnits="userSpaceOnUse" id="gradient2" spreadMethod="pad" x1="-819.2" x2="819.2">
      <stop offset="0.0" stop-color="#adb0b5"/>
      <stop offset="0.16862745098039217" stop-color="#d2cfd1"/>
      <stop offset="0.4" stop-color="#eaeaea"/>
      <stop offset="0.6235294117647059" stop-color="#d9d5d6"/>
      <stop offset="1.0" stop-color="#a1a6ac"/>
    </linearGradient>
  </defs>
</svg>
