<?xml version="1.0" encoding="UTF-8" standalone="no"?>
<svg xmlns:xlink="http://www.w3.org/1999/xlink" height="25.35px" width="24.25px" xmlns="http://www.w3.org/2000/svg">
  <g transform="matrix(1.0, 0.0, 0.0, 1.0, 12.1, 12.65)">
    <use height="25.35" transform="matrix(1.0, 0.0, 0.0, 1.0, -12.1, -12.65)" width="24.25" xlink:href="#shape0"/>
  </g>
  <defs>
    <g id="shape0" transform="matrix(1.0, 0.0, 0.0, 1.0, 12.1, 12.65)">
      <path d="M8.6 -4.45 L6.2 -4.05 3.75 -3.8 0.9 -3.65 -1.3 -3.7 -4.35 -3.9 -6.85 -4.2 -9.75 -4.8 -10.6 -5.05 Q0.45 -7.45 11.3 -5.05 L10.0 -4.75 8.6 -4.45" fill="#6f5844" fill-rule="evenodd" stroke="none"/>
      <path d="M1.9 -12.5 L0.2 -12.5 -7.85 -11.8 Q-11.2 -11.0 -11.15 -9.9 -11.2 -8.8 -7.85 -8.1 L0.2 -7.3 8.25 -8.1 Q11.55 -8.8 11.6 -9.9 11.55 -10.6 10.3 -11.15 12.05 -10.45 12.05 -9.55 12.05 -8.9 11.05 -8.35 L8.55 -7.45 Q5.0 -6.6 0.05 -6.6 -4.95 -6.6 -8.45 -7.45 L-11.0 -8.35 Q-12.0 -8.9 -12.0 -9.55 -12.0 -10.8 -8.45 -11.7 L0.05 -12.55 1.9 -12.5" fill="url(#gradient0)" fill-rule="evenodd" stroke="none"/>
      <path d="M10.3 -11.15 Q11.55 -10.6 11.6 -9.9 11.55 -8.8 8.25 -8.1 L0.2 -7.3 -7.85 -8.1 Q-11.2 -8.8 -11.15 -9.9 -11.2 -11.0 -7.85 -11.8 L0.2 -12.5 1.9 -12.5 5.7 -12.2 8.55 -11.7 10.3 -11.15" fill="url(#gradient1)" fill-rule="evenodd" stroke="none"/>
      <path d="M-11.0 -8.35 L-8.45 -7.45 Q-4.95 -6.6 0.05 -6.6 5.0 -6.6 8.55 -7.45 L11.05 -8.35 8.35 10.85 Q8.25 11.6 6.05 12.1 L0.6 12.6 -4.9 12.1 Q-7.15 11.55 -7.15 10.8 L-11.0 -8.35" fill="url(#gradient2)" fill-rule="evenodd" stroke="none"/>
      <path d="M1.9 -12.5 L0.05 -12.55 -8.45 -11.7 Q-12.0 -10.8 -12.0 -9.55 -12.0 -8.9 -11.0 -8.35 L-8.45 -7.45 Q-4.95 -6.6 0.05 -6.6 5.0 -6.6 8.55 -7.45 L11.05 -8.35 Q12.05 -8.9 12.05 -9.55 12.05 -10.45 10.3 -11.15 L8.55 -11.7 5.7 -12.2 1.9 -12.5 M11.05 -8.35 L8.35 10.85 Q8.25 11.6 6.05 12.1 L0.6 12.6 -4.9 12.1 Q-7.15 11.55 -7.15 10.8 L-11.0 -8.35" fill="none" stroke="#999999" stroke-linecap="round" stroke-linejoin="round" stroke-width="0.25"/>
      <path d="M6.2 -4.05 L8.6 -4.45 7.0 9.15 5.05 9.65 6.2 -4.05 M10.0 -4.75 L11.3 -5.05 9.5 8.3 8.4 8.75 10.0 -4.75 M3.2 9.9 L0.9 10.0 0.9 -3.65 3.75 -3.8 3.2 9.9 M-0.95 9.95 L-3.4 9.65 -4.35 -3.9 -1.3 -3.7 -0.95 9.95 M-5.4 9.3 L-7.45 8.7 -9.75 -4.8 -6.85 -4.2 -5.4 9.3" fill="#a08467" fill-rule="evenodd" stroke="none"/>
      <path d="M8.6 -4.45 L10.0 -4.75 8.4 8.75 7.0 9.15 8.6 -4.45 M5.05 9.65 L3.2 9.9 3.75 -3.8 6.2 -4.05 5.05 9.65 M0.9 10.0 L-0.3 10.0 -0.95 9.95 -1.3 -3.7 0.9 -3.65 0.9 10.0 M-3.4 9.65 L-5.4 9.3 -6.85 -4.2 -4.35 -3.9 -3.4 9.65 M-7.45 8.7 L-8.5 8.3 -10.6 -5.05 -9.75 -4.8 -7.45 8.7" fill="#7b5e40" fill-rule="evenodd" stroke="none"/>
    </g>
    <linearGradient gradientTransform="matrix(0.0, 0.0036, -0.0147, 0.0, 0.05, -9.6)" gradientUnits="userSpaceOnUse" id="gradient0" spreadMethod="pad" x1="-819.2" x2="819.2">
      <stop offset="0.16862745098039217" stop-color="#d2cfd1"/>
      <stop offset="1.0" stop-color="#ffffff"/>
    </linearGradient>
    <linearGradient gradientTransform="matrix(0.0, 0.0032, -0.0139, 0.0, 0.25, -9.9)" gradientUnits="userSpaceOnUse" id="gradient1" spreadMethod="pad" x1="-819.2" x2="819.2">
      <stop offset="0.16862745098039217" stop-color="#d2cfd1"/>
      <stop offset="1.0" stop-color="#55595e"/>
    </linearGradient>
    <linearGradient gradientTransform="matrix(0.0135, 0.0, 0.0, 0.0128, 0.0, 2.15)" gradientUnits="userSpaceOnUse" id="gradient2" spreadMethod="pad" x1="-819.2" x2="819.2">
      <stop offset="0.0" stop-color="#adb0b5"/>
      <stop offset="0.16862745098039217" stop-color="#d2cfd1"/>
      <stop offset="0.4" stop-color="#eaeaea"/>
      <stop offset="0.6235294117647059" stop-color="#d9d5d6"/>
      <stop offset="1.0" stop-color="#a1a6ac"/>
    </linearGradient>
  </defs>
</svg>
