<?xml version="1.0" encoding="UTF-8" standalone="no"?>
<svg xmlns:xlink="http://www.w3.org/1999/xlink" height="25.4px" width="24.3px" xmlns="http://www.w3.org/2000/svg">
  <g transform="matrix(1.0, 0.0, 0.0, 1.0, 12.15, 12.7)">
    <use height="25.4" transform="matrix(1.0, 0.0, 0.0, 1.0, -12.15, -12.7)" width="24.3" xlink:href="#shape0"/>
  </g>
  <defs>
    <g id="shape0" transform="matrix(1.0, 0.0, 0.0, 1.0, 12.15, 12.7)">
      <path d="M-7.2 -12.0 L-6.85 -12.05 -6.15 -12.15 0.0 -12.6 0.15 -12.6 1.9 -12.55 6.05 -12.2 8.5 -11.75 10.25 -11.2 Q11.55 -10.65 11.55 -9.95 11.55 -8.9 8.2 -8.15 L0.15 -7.35 -7.9 -8.15 Q-11.25 -8.9 -11.2 -9.95 -11.25 -11.05 -7.9 -11.85 L-7.2 -12.0" fill="url(#gradient0)" fill-rule="evenodd" stroke="none"/>
      <path d="M10.25 -11.2 Q12.0 -10.5 12.05 -9.6 12.0 -8.95 11.0 -8.4 10.15 -7.9 8.5 -7.5 L0.0 -6.6 -8.5 -7.5 Q-10.15 -7.9 -11.05 -8.4 -12.05 -8.95 -12.05 -9.6 -12.05 -10.85 -8.5 -11.75 L-7.2 -12.0 -7.9 -11.85 Q-11.25 -11.05 -11.2 -9.95 -11.25 -8.9 -7.9 -8.15 L0.15 -7.35 8.2 -8.15 Q11.55 -8.9 11.55 -9.95 11.55 -10.65 10.25 -11.2" fill="url(#gradient1)" fill-rule="evenodd" stroke="none"/>
      <path d="M11.0 -8.4 L8.35 10.85 Q8.2 11.55 6.05 12.05 L0.6 12.6 -4.95 12.05 Q-7.2 11.5 -7.2 10.75 L-11.05 -8.4 Q-10.15 -7.9 -8.5 -7.5 L0.0 -6.6 8.5 -7.5 Q10.15 -7.9 11.0 -8.4" fill="url(#gradient2)" fill-rule="evenodd" stroke="none"/>
      <path d="M-7.2 -12.0 L-6.85 -12.05 -6.15 -12.15 0.0 -12.6 0.15 -12.6 1.9 -12.55 6.05 -12.2 8.5 -11.75 10.25 -11.2 Q12.0 -10.5 12.05 -9.6 12.0 -8.95 11.0 -8.4 L8.35 10.85 Q8.2 11.55 6.05 12.05 L0.6 12.6 -4.95 12.05 Q-7.2 11.5 -7.2 10.75 L-11.05 -8.4 Q-12.05 -8.95 -12.05 -9.6 -12.05 -10.85 -8.5 -11.75 L-7.2 -12.0 M-11.05 -8.4 Q-10.15 -7.9 -8.5 -7.5 L0.0 -6.6 8.5 -7.5 Q10.15 -7.9 11.0 -8.4" fill="none" stroke="#999999" stroke-linecap="round" stroke-linejoin="round" stroke-width="0.25"/>
      <path d="M-9.7 -4.0 L-10.2 -8.85 Q-6.25 -7.0 0.0 -7.25 L-0.15 -4.65 Q-0.15 -4.0 -0.6 -3.3 L-0.4 -0.3 Q-0.2 1.25 -1.0 1.25 -1.5 1.2 -1.7 0.25 L-1.8 -0.8 Q-2.85 -2.15 -2.7 -2.85 L-3.05 -2.85 Q-3.05 -0.65 -3.5 4.35 -3.5 11.4 -4.5 11.4 -4.9 11.4 -5.4 3.65 L-6.0 -2.8 -6.05 -0.65 -5.7 5.35 Q-5.7 7.4 -6.3 7.4 -6.9 7.4 -7.1 2.1 L-7.2 0.15 -7.2 6.3 -7.2 9.15 -7.5 7.05 -8.65 -2.95 Q-8.8 -2.55 -9.1 -2.5 -9.6 -2.5 -9.7 -4.0" fill="#764701" fill-opacity="0.1764706" fill-rule="evenodd" stroke="none"/>
    </g>
    <linearGradient gradientTransform="matrix(0.0, 0.0032, -0.0139, 0.0, 0.2, -9.95)" gradientUnits="userSpaceOnUse" id="gradient0" spreadMethod="pad" x1="-819.2" x2="819.2">
      <stop offset="0.16862745098039217" stop-color="#d2cfd1"/>
      <stop offset="1.0" stop-color="#55595e"/>
    </linearGradient>
    <linearGradient gradientTransform="matrix(0.0, 0.0036, -0.0147, 0.0, 0.0, -9.65)" gradientUnits="userSpaceOnUse" id="gradient1" spreadMethod="pad" x1="-819.2" x2="819.2">
      <stop offset="0.16862745098039217" stop-color="#d2cfd1"/>
      <stop offset="1.0" stop-color="#ffffff"/>
    </linearGradient>
    <linearGradient gradientTransform="matrix(0.0135, 0.0, 0.0, 0.0128, -0.05, 2.1)" gradientUnits="userSpaceOnUse" id="gradient2" spreadMethod="pad" x1="-819.2" x2="819.2">
      <stop offset="0.0" stop-color="#adb0b5"/>
      <stop offset="0.16862745098039217" stop-color="#d2cfd1"/>
      <stop offset="0.4" stop-color="#eaeaea"/>
      <stop offset="0.6235294117647059" stop-color="#d9d5d6"/>
      <stop offset="1.0" stop-color="#a1a6ac"/>
    </linearGradient>
  </defs>
</svg>
