<?xml version="1.0" encoding="UTF-8" standalone="no"?>
<svg xmlns:xlink="http://www.w3.org/1999/xlink" height="36.25px" width="24.25px" xmlns="http://www.w3.org/2000/svg">
  <g transform="matrix(1.0, 0.0, 0.0, 1.0, 12.1, 18.1)">
    <use height="36.25" transform="matrix(1.0, 0.0, 0.0, 1.0, -12.1, -18.1)" width="24.25" xlink:href="#shape0"/>
  </g>
  <defs>
    <g id="shape0" transform="matrix(1.0, 0.0, 0.0, 1.0, 12.1, 18.1)">
      <path d="M8.55 -6.35 L6.15 -5.8 3.7 -5.45 0.85 -5.25 -1.35 -5.35 -4.4 -5.65 -6.9 -6.05 -9.8 -6.9 -10.65 -7.2 Q0.4 -10.7 11.25 -7.2 L9.95 -6.8 8.55 -6.35" fill="#6f5844" fill-rule="evenodd" stroke="none"/>
      <path d="M10.3 -16.0 Q12.05 -15.0 12.05 -13.7 12.05 -12.75 11.05 -11.95 10.15 -11.3 8.55 -10.7 5.0 -9.45 0.05 -9.45 -4.95 -9.45 -8.45 -10.7 -10.1 -11.3 -11.0 -11.95 -12.0 -12.75 -12.0 -13.7 -12.0 -15.5 -8.45 -16.75 -4.95 -18.0 0.05 -18.0 L1.9 -17.95 0.2 -17.95 Q-4.5 -17.95 -7.85 -16.9 -11.2 -15.8 -11.15 -14.2 -11.2 -12.65 -7.85 -11.6 -4.5 -10.5 0.2 -10.45 4.9 -10.5 8.25 -11.6 11.55 -12.65 11.6 -14.2 11.55 -15.2 10.3 -16.0" fill="url(#gradient0)" fill-rule="evenodd" stroke="none"/>
      <path d="M1.9 -17.95 L5.7 -17.45 8.55 -16.75 10.3 -16.0 Q11.55 -15.2 11.6 -14.2 11.55 -12.65 8.25 -11.6 4.9 -10.5 0.2 -10.45 -4.5 -10.5 -7.85 -11.6 -11.2 -12.65 -11.15 -14.2 -11.2 -15.8 -7.85 -16.9 -4.5 -17.95 0.2 -17.95 L1.9 -17.95" fill="url(#gradient1)" fill-rule="evenodd" stroke="none"/>
      <path d="M11.05 -11.95 L8.35 15.55 Q8.25 16.6 6.05 17.3 3.8 18.05 0.6 18.05 -2.6 18.05 -4.9 17.3 -7.15 16.55 -7.15 15.45 L-11.0 -11.95 Q-10.1 -11.3 -8.45 -10.7 -4.95 -9.45 0.05 -9.45 5.0 -9.45 8.55 -10.7 10.15 -11.3 11.05 -11.95" fill="url(#gradient2)" fill-rule="evenodd" stroke="none"/>
      <path d="M10.3 -16.0 Q12.05 -15.0 12.05 -13.7 12.05 -12.75 11.05 -11.95 L8.35 15.55 Q8.25 16.6 6.05 17.3 3.8 18.05 0.6 18.05 -2.6 18.05 -4.9 17.3 -7.15 16.55 -7.15 15.45 L-11.0 -11.95 Q-12.0 -12.75 -12.0 -13.7 -12.0 -15.5 -8.45 -16.75 -4.95 -18.0 0.05 -18.0 L1.9 -17.95 5.7 -17.45 8.55 -16.75 10.3 -16.0 M-11.0 -11.95 Q-10.1 -11.3 -8.45 -10.7 -4.95 -9.45 0.05 -9.45 5.0 -9.45 8.55 -10.7 10.15 -11.3 11.05 -11.95" fill="none" stroke="#999999" stroke-linecap="round" stroke-linejoin="round" stroke-width="0.25"/>
      <path d="M6.15 -5.8 L8.55 -6.35 6.95 13.1 5.0 13.75 6.15 -5.8 M9.95 -6.8 L11.25 -7.2 9.45 11.85 8.35 12.5 9.95 -6.8 M3.15 14.15 L0.85 14.3 0.85 -5.25 3.7 -5.45 3.15 14.15 M-1.0 14.25 L-3.45 13.85 -4.4 -5.65 -1.35 -5.35 -1.0 14.25 M-5.45 13.3 L-7.5 12.4 -9.8 -6.9 -6.9 -6.05 -5.45 13.3" fill="#a08467" fill-rule="evenodd" stroke="none"/>
      <path d="M8.55 -6.35 L9.95 -6.8 8.35 12.5 6.95 13.1 8.55 -6.35 M5.0 13.75 L3.15 14.15 3.7 -5.45 6.15 -5.8 5.0 13.75 M0.85 14.3 L-0.35 14.3 -1.0 14.25 -1.35 -5.35 0.85 -5.25 0.85 14.3 M-3.45 13.85 L-5.45 13.3 -6.9 -6.05 -4.4 -5.65 -3.45 13.85 M-7.5 12.4 L-8.55 11.85 -10.65 -7.2 -9.8 -6.9 -7.5 12.4" fill="#7b5e40" fill-rule="evenodd" stroke="none"/>
    </g>
    <linearGradient gradientTransform="matrix(0.0, 0.0052, -0.0147, 0.0, 0.05, -13.75)" gradientUnits="userSpaceOnUse" id="gradient0" spreadMethod="pad" x1="-819.2" x2="819.2">
      <stop offset="0.16862745098039217" stop-color="#d2cfd1"/>
      <stop offset="1.0" stop-color="#ffffff"/>
    </linearGradient>
    <linearGradient gradientTransform="matrix(0.0, 0.0046, -0.0139, 0.0, 0.25, -14.2)" gradientUnits="userSpaceOnUse" id="gradient1" spreadMethod="pad" x1="-819.2" x2="819.2">
      <stop offset="0.16862745098039217" stop-color="#d2cfd1"/>
      <stop offset="1.0" stop-color="#55595e"/>
    </linearGradient>
    <linearGradient gradientTransform="matrix(0.0135, 0.0, 0.0, 0.0183, 0.0, 3.05)" gradientUnits="userSpaceOnUse" id="gradient2" spreadMethod="pad" x1="-819.2" x2="819.2">
      <stop offset="0.0" stop-color="#adb0b5"/>
      <stop offset="0.16862745098039217" stop-color="#d2cfd1"/>
      <stop offset="0.4" stop-color="#eaeaea"/>
      <stop offset="0.6235294117647059" stop-color="#d9d5d6"/>
      <stop offset="1.0" stop-color="#a1a6ac"/>
    </linearGradient>
  </defs>
</svg>
