<?xml version="1.0" encoding="UTF-8" standalone="no"?>
<svg xmlns:xlink="http://www.w3.org/1999/xlink" height="36.25px" width="24.25px" xmlns="http://www.w3.org/2000/svg">
  <g transform="matrix(1.0, 0.0, 0.0, 1.0, 12.1, 18.1)">
    <use height="36.25" transform="matrix(1.0, 0.0, 0.0, 1.0, -12.1, -18.1)" width="24.25" xlink:href="#shape0"/>
  </g>
  <defs>
    <g id="shape0" transform="matrix(1.0, 0.0, 0.0, 1.0, 12.1, 18.1)">
      <path d="M10.3 -16.0 Q12.05 -15.0 12.05 -13.7 12.05 -12.75 11.05 -11.95 10.15 -11.3 8.55 -10.7 5.0 -9.45 0.05 -9.45 -4.95 -9.45 -8.45 -10.7 -10.1 -11.3 -11.0 -11.95 -12.0 -12.75 -12.0 -13.7 -12.0 -15.5 -8.45 -16.75 -4.95 -18.0 0.05 -18.0 L1.9 -17.95 0.2 -17.95 Q-4.5 -17.95 -7.85 -16.9 -11.2 -15.8 -11.15 -14.2 -11.2 -12.65 -7.85 -11.6 -4.5 -10.5 0.2 -10.45 4.9 -10.5 8.25 -11.6 11.55 -12.65 11.6 -14.2 11.55 -15.2 10.3 -16.0" fill="url(#gradient0)" fill-rule="evenodd" stroke="none"/>
      <path d="M10.3 -16.0 Q11.55 -15.2 11.6 -14.2 11.55 -12.65 8.25 -11.6 4.9 -10.5 0.2 -10.45 -4.5 -10.5 -7.85 -11.6 -11.2 -12.65 -11.15 -14.2 -11.2 -15.8 -7.85 -16.9 -4.5 -17.95 0.2 -17.95 L1.9 -17.95 5.7 -17.45 8.55 -16.75 10.3 -16.0" fill="url(#gradient1)" fill-rule="evenodd" stroke="none"/>
      <path d="M-11.0 -11.95 Q-10.1 -11.3 -8.45 -10.7 -4.95 -9.45 0.05 -9.45 5.0 -9.45 8.55 -10.7 10.15 -11.3 11.05 -11.95 L8.35 15.55 Q8.25 16.6 6.05 17.3 3.8 18.05 0.6 18.05 -2.6 18.05 -4.9 17.3 -7.15 16.55 -7.15 15.45 L-11.0 -11.95" fill="url(#gradient2)" fill-rule="evenodd" stroke="none"/>
      <path d="M11.05 -11.95 Q12.05 -12.75 12.05 -13.7 12.05 -15.0 10.3 -16.0 M1.9 -17.95 L0.05 -18.0 Q-4.95 -18.0 -8.45 -16.75 -12.0 -15.5 -12.0 -13.7 -12.0 -12.75 -11.0 -11.95 -10.1 -11.3 -8.45 -10.7 -4.95 -9.45 0.05 -9.45 5.0 -9.45 8.55 -10.7 10.15 -11.3 11.05 -11.95 L8.35 15.55 Q8.25 16.6 6.05 17.3 3.8 18.05 0.6 18.05 -2.6 18.05 -4.9 17.3 -7.15 16.55 -7.15 15.45 L-11.0 -11.95 M1.9 -17.95 L5.7 -17.45 8.55 -16.75 10.3 -16.0" fill="none" stroke="#999999" stroke-linecap="round" stroke-linejoin="round" stroke-width="0.25"/>
      <path d="M4.45 -0.8 Q4.45 -0.4 4.9 -0.4 5.25 -0.4 5.25 -0.8 L4.9 -1.2 Q4.45 -1.2 4.45 -0.8 M3.8 -1.7 Q4.15 -1.7 4.15 -2.1 4.15 -2.5 3.8 -2.5 3.35 -2.5 3.35 -2.1 3.35 -1.7 3.8 -1.7 M0.65 -2.5 Q1.0 -2.5 1.0 -2.9 L0.65 -3.3 Q0.2 -3.3 0.2 -2.9 0.2 -2.5 0.65 -2.5 M1.95 -2.7 Q1.95 -2.3 2.4 -2.3 2.75 -2.3 2.75 -2.7 2.75 -3.1 2.4 -3.1 1.95 -3.1 1.95 -2.7 M3.5 -1.3 Q2.4 -2.25 0.8 -2.15 -0.85 -2.1 -2.05 -1.35 -3.3 -0.65 -3.05 1.2 -2.85 3.05 -1.8 4.05 -0.8 5.1 0.7 5.1 2.15 5.1 3.15 4.05 4.2 3.05 4.4 1.35 4.6 -0.35 3.5 -1.3 M4.65 -2.45 Q6.15 -1.15 5.9 1.25 5.6 3.65 4.15 5.05 2.7 6.5 0.65 6.55 -1.4 6.5 -2.85 5.05 -4.25 3.65 -4.6 1.05 -4.95 -1.55 -3.2 -2.55 -1.5 -3.6 0.8 -3.65 3.05 -3.75 4.65 -2.45 M5.6 -3.35 Q7.5 -1.75 7.15 1.2 6.8 4.15 5.0 5.9 3.25 7.7 0.7 7.7 -1.85 7.7 -3.65 5.9 -5.4 4.15 -5.8 0.95 -6.2 -2.25 -4.05 -3.5 -1.95 -4.8 0.85 -4.9 3.65 -5.0 5.6 -3.35 M5.1 -2.9 Q3.35 -4.35 0.85 -4.25 -1.7 -4.15 -3.6 -3.0 -5.55 -1.9 -5.15 1.0 -4.8 3.9 -3.2 5.45 -1.6 7.05 0.7 7.1 2.95 7.05 4.55 5.45 6.15 3.9 6.5 1.25 6.8 -1.45 5.1 -2.9 M-0.8 5.25 Q-0.8 4.85 -1.15 4.85 -1.6 4.85 -1.6 5.25 -1.6 5.65 -1.15 5.65 -0.8 5.65 -0.8 5.25 M-1.05 -2.25 Q-0.7 -2.25 -0.7 -2.65 -0.75 -3.05 -1.05 -3.05 -1.5 -3.05 -1.5 -2.65 -1.5 -2.25 -1.05 -2.25 M-3.65 -0.75 Q-4.1 -0.75 -4.1 -0.35 -4.1 0.05 -3.65 0.05 -3.3 0.05 -3.3 -0.35 L-3.65 -0.75 M-3.2 -1.8 L-2.75 -1.4 Q-2.4 -1.4 -2.4 -1.8 -2.4 -2.2 -2.75 -2.2 -3.2 -2.2 -3.2 -1.8 M3.4 5.15 L3.05 4.75 Q2.6 4.75 2.6 5.15 2.6 5.55 3.05 5.55 3.4 5.55 3.4 5.15 M0.5 5.7 Q0.5 5.3 0.15 5.3 -0.3 5.3 -0.3 5.7 -0.3 6.1 0.15 6.1 0.5 6.1 0.5 5.7 M1.45 5.25 Q1.0 5.25 1.0 5.65 1.0 6.05 1.45 6.05 1.8 6.05 1.8 5.65 L1.45 5.25" fill="#004d39" fill-rule="evenodd" stroke="none"/>
      <path d="M0.55 -0.95 Q1.1 -0.95 1.5 -0.55 1.9 -0.15 1.9 0.45 1.9 1.05 1.5 1.45 1.1 1.85 0.55 1.85 0.0 1.85 -0.4 1.45 -0.8 1.05 -0.8 0.45 -0.8 -0.15 -0.4 -0.55 0.0 -0.95 0.55 -0.95 M1.95 -2.7 Q1.95 -3.1 2.4 -3.1 2.75 -3.1 2.75 -2.7 2.75 -2.3 2.4 -2.3 1.95 -2.3 1.95 -2.7 M0.65 -2.5 Q0.2 -2.5 0.2 -2.9 0.2 -3.3 0.65 -3.3 L1.0 -2.9 Q1.0 -2.5 0.65 -2.5 M3.8 -1.7 Q3.35 -1.7 3.35 -2.1 3.35 -2.5 3.8 -2.5 4.15 -2.5 4.15 -2.1 4.15 -1.7 3.8 -1.7 M4.45 -0.8 Q4.45 -1.2 4.9 -1.2 L5.25 -0.8 Q5.25 -0.4 4.9 -0.4 4.45 -0.4 4.45 -0.8 M2.8 0.9 L3.25 1.25 Q3.55 4.9 0.55 3.9 L-0.25 4.15 -1.45 3.9 Q-2.55 3.1 -2.05 1.5 L-1.15 1.25 -0.75 2.6 0.45 2.0 1.15 2.15 1.9 2.55 2.8 0.9 M1.45 5.25 L1.8 5.65 Q1.8 6.05 1.45 6.05 1.0 6.05 1.0 5.65 1.0 5.25 1.45 5.25 M0.5 5.7 Q0.5 6.1 0.15 6.1 -0.3 6.1 -0.3 5.7 -0.3 5.3 0.15 5.3 0.5 5.3 0.5 5.7 M3.4 5.15 Q3.4 5.55 3.05 5.55 2.6 5.55 2.6 5.15 2.6 4.75 3.05 4.75 L3.4 5.15 M-3.2 -1.8 Q-3.2 -2.2 -2.75 -2.2 -2.4 -2.2 -2.4 -1.8 -2.4 -1.4 -2.75 -1.4 L-3.2 -1.8 M-3.65 -0.75 L-3.3 -0.35 Q-3.3 0.05 -3.65 0.05 -4.1 0.05 -4.1 -0.35 -4.1 -0.75 -3.65 -0.75 M-1.05 -2.25 Q-1.5 -2.25 -1.5 -2.65 -1.5 -3.05 -1.05 -3.05 -0.75 -3.05 -0.7 -2.65 -0.7 -2.25 -1.05 -2.25 M-0.8 5.25 Q-0.8 5.65 -1.15 5.65 -1.6 5.65 -1.6 5.25 -1.6 4.85 -1.15 4.85 -0.8 4.85 -0.8 5.25" fill="#cccccc" fill-rule="evenodd" stroke="none"/>
      <path d="M0.55 -0.95 Q0.0 -0.95 -0.4 -0.55 -0.8 -0.15 -0.8 0.45 -0.8 1.05 -0.4 1.45 0.0 1.85 0.55 1.85 1.1 1.85 1.5 1.45 1.9 1.05 1.9 0.45 1.9 -0.15 1.5 -0.55 1.1 -0.95 0.55 -0.95 M3.5 -1.3 Q4.6 -0.35 4.4 1.35 4.2 3.05 3.15 4.05 2.15 5.1 0.7 5.1 -0.8 5.1 -1.8 4.05 -2.85 3.05 -3.05 1.2 -3.3 -0.65 -2.05 -1.35 -0.85 -2.1 0.8 -2.15 2.4 -2.25 3.5 -1.3 M2.8 0.9 L1.9 2.55 1.15 2.15 0.45 2.0 -0.75 2.6 -1.15 1.25 -2.05 1.5 Q-2.55 3.1 -1.45 3.9 L-0.25 4.15 0.55 3.9 Q3.55 4.9 3.25 1.25 L2.8 0.9" fill="#333333" fill-rule="evenodd" stroke="none"/>
      <path d="M9.75 -11.2 L9.75 -10.25 9.75 -9.35 Q9.65 -8.45 9.15 -8.45 L8.7 -8.7 8.65 -6.75 Q8.8 -5.2 7.9 -1.0 7.25 1.2 7.25 -3.05 L7.25 -6.9 7.15 -5.6 Q6.95 -2.4 6.35 -2.4 5.75 -2.4 5.75 -3.65 L6.1 -7.3 6.05 -8.6 5.45 -4.7 Q4.95 0.05 4.55 0.05 3.55 0.05 3.55 -4.25 3.1 -7.3 3.1 -8.65 L2.75 -8.65 Q2.9 -8.2 1.85 -7.4 L1.75 -6.75 Q1.55 -6.15 1.05 -6.15 0.25 -6.15 0.45 -7.1 L0.65 -8.9 Q0.2 -9.35 0.2 -9.75 0.15 -10.1 0.35 -10.25 L0.7 -10.55 2.3 -10.55 5.5 -11.05 8.45 -11.9 8.7 -11.85 Q8.85 -12.05 9.1 -12.05 9.65 -12.05 9.75 -11.2" fill="#764701" fill-opacity="0.1764706" fill-rule="evenodd" stroke="none"/>
    </g>
    <linearGradient gradientTransform="matrix(0.0, 0.0052, -0.0147, 0.0, 0.05, -13.75)" gradientUnits="userSpaceOnUse" id="gradient0" spreadMethod="pad" x1="-819.2" x2="819.2">
      <stop offset="0.16862745098039217" stop-color="#d2cfd1"/>
      <stop offset="1.0" stop-color="#ffffff"/>
    </linearGradient>
    <linearGradient gradientTransform="matrix(0.0, 0.0046, -0.0139, 0.0, 0.25, -14.2)" gradientUnits="userSpaceOnUse" id="gradient1" spreadMethod="pad" x1="-819.2" x2="819.2">
      <stop offset="0.16862745098039217" stop-color="#d2cfd1"/>
      <stop offset="1.0" stop-color="#55595e"/>
    </linearGradient>
    <linearGradient gradientTransform="matrix(0.0135, 0.0, 0.0, 0.0183, 0.0, 3.05)" gradientUnits="userSpaceOnUse" id="gradient2" spreadMethod="pad" x1="-819.2" x2="819.2">
      <stop offset="0.0" stop-color="#adb0b5"/>
      <stop offset="0.16862745098039217" stop-color="#d2cfd1"/>
      <stop offset="0.4" stop-color="#eaeaea"/>
      <stop offset="0.6235294117647059" stop-color="#d9d5d6"/>
      <stop offset="1.0" stop-color="#a1a6ac"/>
    </linearGradient>
  </defs>
</svg>
