<?xml version="1.0" encoding="UTF-8" standalone="no"?>
<svg xmlns:xlink="http://www.w3.org/1999/xlink" height="38.3px" width="13.55px" xmlns="http://www.w3.org/2000/svg">
  <g transform="matrix(1.0, 0.0, 0.0, 1.0, 6.75, 19.15)">
    <use height="38.3" transform="matrix(1.0, 0.0, 0.0, 1.0, -6.75, -19.15)" width="13.55" xlink:href="#shape0"/>
  </g>
  <defs>
    <g id="shape0" transform="matrix(1.0, 0.0, 0.0, 1.0, 6.75, 19.15)">
      <path d="M2.4 -18.45 L1.7 -18.15 0.0 -18.0 -1.65 -18.15 Q-2.35 -18.3 -2.35 -18.45 -2.35 -18.6 -1.65 -18.75 L0.0 -18.9 1.7 -18.75 2.4 -18.45" fill="#9ae2f0" fill-opacity="0.67058825" fill-rule="evenodd" stroke="none"/>
      <path d="M2.6 -17.5 Q0.0 -16.35 -2.55 -17.5 -3.05 -18.1 -2.35 -18.45 -2.35 -18.3 -1.65 -18.15 L0.0 -18.0 1.7 -18.15 2.4 -18.45 Q3.0 -17.95 2.6 -17.5" fill="url(#gradient0)" fill-rule="evenodd" stroke="none"/>
      <path d="M2.6 -17.5 Q3.25 -15.85 2.7 -15.6 L2.45 -15.5 Q0.05 -14.6 -2.4 -15.45 L-2.55 -15.55 Q-3.15 -15.8 -2.55 -17.5 0.0 -16.35 2.6 -17.5" fill="url(#gradient1)" fill-rule="evenodd" stroke="none"/>
      <path d="M-2.4 -15.45 Q0.05 -14.6 2.45 -15.5 3.25 -11.1 3.65 -6.3 L3.9 -0.45 4.25 0.4 Q6.1 2.05 6.55 5.6 L6.5 16.25 6.2 16.05 5.1 11.7 3.0 11.9 2.1 9.45 Q1.65 9.35 1.45 9.7 L-0.25 10.5 -0.65 9.2 -1.45 10.2 -1.5 10.2 -1.6 9.85 -1.7 9.75 -2.05 9.3 -2.65 7.45 -4.05 7.35 -4.85 8.15 -5.4 6.7 -5.8 6.85 -5.8 6.75 -5.85 6.85 -6.25 7.55 -6.45 8.1 -6.5 5.6 Q-6.05 2.05 -4.15 0.4 L-3.85 -0.45 -3.55 -6.3 Q-3.2 -11.05 -2.4 -15.45 M-6.2 6.95 L-5.85 6.85 -6.2 6.95" fill="url(#gradient2)" fill-rule="evenodd" stroke="none"/>
      <path d="M6.5 16.25 L6.5 16.4 5.55 18.9 4.95 16.85 4.6 16.55 3.65 14.0 3.55 14.05 3.35 14.35 2.1 16.05 1.75 13.55 1.7 13.55 1.45 13.25 1.0 11.95 0.35 12.75 -0.75 14.5 -0.9 15.6 -3.1 9.75 -5.0 13.7 -5.8 6.85 -5.4 6.7 -4.85 8.15 -4.05 7.35 -2.65 7.45 -2.05 9.3 -1.7 9.75 -1.6 9.85 -1.5 10.2 -1.45 10.2 -0.65 9.2 -0.25 10.5 1.45 9.7 Q1.65 9.35 2.1 9.45 L3.0 11.9 5.1 11.7 6.2 16.05 6.5 16.25" fill="url(#gradient3)" fill-rule="evenodd" stroke="none"/>
      <path d="M2.45 -15.5 L2.7 -15.6 Q3.25 -15.85 2.6 -17.5 0.0 -16.35 -2.55 -17.5 -3.15 -15.8 -2.55 -15.55 L-2.4 -15.45 Q0.05 -14.6 2.45 -15.5 3.25 -11.1 3.65 -6.3 L3.9 -0.45 4.25 0.4 Q6.1 2.05 6.55 5.6 L6.5 16.25 6.5 16.4 5.55 18.9 4.95 16.85 4.6 16.55 3.65 14.0 3.55 14.05 3.35 14.35 2.1 16.05 1.75 13.55 1.7 13.55 1.45 13.25 1.0 11.95 0.35 12.75 -0.75 14.5 -0.9 15.6 -3.1 9.75 -5.0 13.7 -5.8 6.85 -5.85 6.85 -6.25 7.55 -6.45 8.1 -6.5 5.6 Q-6.05 2.05 -4.15 0.4 L-3.85 -0.45 -3.55 -6.3 Q-3.2 -11.05 -2.4 -15.45 M2.6 -17.5 Q3.0 -17.95 2.4 -18.45 L1.7 -18.15 0.0 -18.0 -1.65 -18.15 Q-2.35 -18.3 -2.35 -18.45 -3.05 -18.1 -2.55 -17.5 M2.4 -18.45 L1.7 -18.75 0.0 -18.9 -1.65 -18.75 Q-2.35 -18.6 -2.35 -18.45 M-5.8 6.85 L-5.4 6.7 -4.85 8.15 -4.05 7.35 -2.65 7.45 -2.05 9.3 -1.7 9.75 -1.6 9.85 -1.5 10.2 -1.45 10.2 -0.65 9.2 -0.25 10.5 1.45 9.7 Q1.65 9.35 2.1 9.45 L3.0 11.9 5.1 11.7 6.2 16.05 6.5 16.25 M-5.8 6.85 L-5.8 6.75 -5.85 6.85 -6.2 6.95" fill="none" stroke="#82a8b0" stroke-linecap="round" stroke-linejoin="round" stroke-width="0.5"/>
      <path d="M-4.8 4.7 L-0.75 4.7 -0.85 6.65 -1.0 6.75 -4.55 6.75 -4.7 6.65 -4.7 6.75 -4.8 4.7" fill="url(#gradient4)" fill-rule="evenodd" stroke="none"/>
      <path d="M-4.8 4.7 L-4.8 4.6 Q-4.8 3.75 -4.2 3.2 -3.65 2.6 -2.8 2.6 -1.95 2.6 -1.35 3.2 -0.8 3.75 -0.75 4.6 L-0.75 4.7 -4.8 4.7" fill="url(#gradient5)" fill-rule="evenodd" stroke="none"/>
      <path d="M-1.0 6.75 L-0.85 6.75 -0.85 6.8 -0.85 7.7 -2.35 7.7 -2.35 7.2 -4.7 7.2 -4.7 6.8 -4.7 6.75 -4.55 6.75 -1.0 6.75" fill="url(#gradient6)" fill-rule="evenodd" stroke="none"/>
    </g>
    <linearGradient gradientTransform="matrix(0.0034, 0.0, 0.0, 9.0E-4, 0.0, -17.7)" gradientUnits="userSpaceOnUse" id="gradient0" spreadMethod="pad" x1="-819.2" x2="819.2">
      <stop offset="0.0" stop-color="#cdeff2" stop-opacity="0.67058825"/>
      <stop offset="0.5019607843137255" stop-color="#f8fdfe" stop-opacity="0.47058824"/>
      <stop offset="1.0" stop-color="#b5e7ec" stop-opacity="0.67058825"/>
    </linearGradient>
    <linearGradient gradientTransform="matrix(0.0024, 0.0, 0.0, 0.0015, 0.45, -16.2)" gradientUnits="userSpaceOnUse" id="gradient1" spreadMethod="pad" x1="-819.2" x2="819.2">
      <stop offset="0.0" stop-color="#cdeff2" stop-opacity="0.67058825"/>
      <stop offset="0.5019607843137255" stop-color="#f8fdfe" stop-opacity="0.47058824"/>
      <stop offset="1.0" stop-color="#b5e7ec" stop-opacity="0.67058825"/>
    </linearGradient>
    <linearGradient gradientTransform="matrix(0.0061, -0.0051, 0.0171, 0.0207, -0.5, 4.75)" gradientUnits="userSpaceOnUse" id="gradient2" spreadMethod="pad" x1="-819.2" x2="819.2">
      <stop offset="0.0" stop-color="#cdeff2" stop-opacity="0.67058825"/>
      <stop offset="0.5019607843137255" stop-color="#f8fdfe" stop-opacity="0.47058824"/>
      <stop offset="1.0" stop-color="#b5e7ec" stop-opacity="0.67058825"/>
    </linearGradient>
    <linearGradient gradientTransform="matrix(0.0, 0.0, 0.0, 0.0, 0.0, 0.0)" gradientUnits="userSpaceOnUse" id="gradient3" spreadMethod="pad" x1="-819.2" x2="819.2">
      <stop offset="0.0" stop-color="#cdeff2" stop-opacity="0.49019608"/>
      <stop offset="0.5019607843137255" stop-color="#f8fdfe" stop-opacity="0.30980393"/>
      <stop offset="1.0" stop-color="#b5e7ec" stop-opacity="0.48235294"/>
    </linearGradient>
    <radialGradient cx="0" cy="0" gradientTransform="matrix(0.0026, 0.0, 0.0, 0.0115, -2.8, 4.0)" gradientUnits="userSpaceOnUse" id="gradient4" r="819.2" spreadMethod="pad">
      <stop offset="0.23529411764705882" stop-color="#ffffff" stop-opacity="0.6901961"/>
      <stop offset="1.0" stop-color="#ffffff" stop-opacity="0.0"/>
    </radialGradient>
    <radialGradient cx="0" cy="0" gradientTransform="matrix(0.0026, 0.0, 0.0, 0.0025, -2.8, 4.55)" gradientUnits="userSpaceOnUse" id="gradient5" r="819.2" spreadMethod="pad">
      <stop offset="0.23529411764705882" stop-color="#ffffff" stop-opacity="0.6901961"/>
      <stop offset="1.0" stop-color="#ffffff" stop-opacity="0.0"/>
    </radialGradient>
    <radialGradient cx="0" cy="0" gradientTransform="matrix(0.0026, 0.0, 0.0, 0.0274, -2.8, 0.5)" gradientUnits="userSpaceOnUse" id="gradient6" r="819.2" spreadMethod="pad">
      <stop offset="0.23529411764705882" stop-color="#ffffff" stop-opacity="0.6901961"/>
      <stop offset="1.0" stop-color="#ffffff" stop-opacity="0.0"/>
    </radialGradient>
  </defs>
</svg>
