<?xml version="1.0" encoding="UTF-8" standalone="no"?>
<svg xmlns:xlink="http://www.w3.org/1999/xlink" height="65.0px" width="14.65px" xmlns="http://www.w3.org/2000/svg">
  <g transform="matrix(1.0, 0.0, 0.0, 1.0, 7.35, 32.5)">
    <use height="65.0" transform="matrix(1.0, 0.0, 0.0, 1.0, -7.35, -32.5)" width="14.65" xlink:href="#shape0"/>
  </g>
  <defs>
    <g id="shape0" transform="matrix(1.0, 0.0, 0.0, 1.0, 7.35, 32.5)">
      <path d="M-2.55 -29.05 Q-3.0 -29.2 -3.0 -29.3 L-3.0 -31.7 -2.15 -31.35 -0.05 -31.1 2.05 -31.35 Q2.9 -31.5 2.9 -31.7 L2.9 -29.3 2.45 -29.2 -2.55 -29.05" fill="url(#gradient0)" fill-rule="evenodd" stroke="none"/>
      <path d="M-3.0 -31.7 Q-3.0 -31.9 -2.15 -32.1 L-0.05 -32.25 2.05 -32.1 Q2.9 -31.9 2.9 -31.7 2.9 -31.5 2.05 -31.35 L-0.05 -31.1 -2.15 -31.35 -3.0 -31.7" fill="#000000" fill-rule="evenodd" stroke="none"/>
      <path d="M7.05 30.2 Q-0.9 34.3 -7.1 30.1 -4.65 29.6 -3.0 27.2 -1.65 25.25 -0.55 25.1 0.45 24.95 1.25 25.55 L3.2 27.5 Q4.35 28.85 7.05 30.2 M2.45 -29.2 L2.45 -24.05 -2.55 -29.05 2.45 -29.2" fill="#2b360e" fill-opacity="0.8627451" fill-rule="evenodd" stroke="none"/>
      <path d="M2.45 -24.05 L2.45 -15.6 Q2.45 -13.8 4.75 -11.9 7.0 -10.05 7.0 -5.3 L7.05 30.2 Q4.35 28.85 3.2 27.5 L1.25 25.55 Q0.45 24.95 -0.55 25.1 -1.65 25.25 -3.0 27.2 -4.65 29.6 -7.1 30.1 L-7.1 -5.3 Q-7.1 -10.05 -4.8 -11.9 -2.55 -13.8 -2.55 -15.6 L-2.55 -29.05 2.45 -24.05" fill="url(#gradient1)" fill-rule="evenodd" stroke="none"/>
      <path d="M2.45 -24.05 L2.45 -15.6 Q2.45 -13.8 4.75 -11.9 7.0 -10.05 7.0 -5.3 L7.05 30.2 Q-0.9 34.3 -7.1 30.1 L-7.1 -5.3 Q-7.1 -10.05 -4.8 -11.9 -2.55 -13.8 -2.55 -15.6 L-2.55 -29.05 Q-3.0 -29.2 -3.0 -29.3 L-3.0 -31.7 Q-3.0 -31.9 -2.15 -32.1 L-0.05 -32.25 2.05 -32.1 Q2.9 -31.9 2.9 -31.7 L2.9 -29.3 2.45 -29.2 2.45 -24.05 M-2.55 -29.05 L2.45 -29.2 M2.9 -31.7 Q2.9 -31.5 2.05 -31.35 L-0.05 -31.1 -2.15 -31.35 -3.0 -31.7" fill="none" stroke="#324518" stroke-linecap="round" stroke-linejoin="round" stroke-width="0.5"/>
      <path d="M-5.05 -10.55 Q-4.1 -11.55 -2.75 -11.55 -1.4 -11.55 -0.45 -10.55 0.55 -9.6 0.55 -8.2 0.55 -6.85 -0.45 -5.9 -1.4 -4.9 -2.75 -4.9 -4.1 -4.9 -5.05 -5.9 -6.0 -6.85 -6.0 -8.2 -6.0 -9.6 -5.05 -10.55" fill="url(#gradient2)" fill-rule="evenodd" stroke="none"/>
    </g>
    <linearGradient gradientTransform="matrix(0.0036, 0.0, 0.0, 0.0019, -0.05, -30.1)" gradientUnits="userSpaceOnUse" id="gradient0" spreadMethod="pad" x1="-819.2" x2="819.2">
      <stop offset="0.0" stop-color="#3b5b06" stop-opacity="0.8627451"/>
      <stop offset="0.4980392156862745" stop-color="#71951b" stop-opacity="0.8627451"/>
      <stop offset="0.9568627450980393" stop-color="#3b5b06" stop-opacity="0.87058824"/>
    </linearGradient>
    <linearGradient gradientTransform="matrix(0.0, -0.0375, 0.0087, 0.0, -0.05, 1.6)" gradientUnits="userSpaceOnUse" id="gradient1" spreadMethod="pad" x1="-819.2" x2="819.2">
      <stop offset="0.0" stop-color="#3b5b06" stop-opacity="0.8627451"/>
      <stop offset="0.4980392156862745" stop-color="#71951b" stop-opacity="0.8627451"/>
      <stop offset="0.9568627450980393" stop-color="#3b5b06" stop-opacity="0.87058824"/>
    </linearGradient>
    <radialGradient cx="0" cy="0" gradientTransform="matrix(0.0042, 0.0, 1.0E-4, 0.0043, -2.75, -8.2)" gradientUnits="userSpaceOnUse" id="gradient2" r="819.2" spreadMethod="pad">
      <stop offset="0.23529411764705882" stop-color="#ffffff" stop-opacity="0.6901961"/>
      <stop offset="1.0" stop-color="#ffffff" stop-opacity="0.0"/>
    </radialGradient>
  </defs>
</svg>
