<?xml version="1.0" encoding="UTF-8" standalone="no"?>
<svg xmlns:xlink="http://www.w3.org/1999/xlink" height="35.55px" width="13.55px" xmlns="http://www.w3.org/2000/svg">
  <g transform="matrix(1.0, 0.0, 0.0, 1.0, 6.75, 17.75)">
    <use height="35.55" transform="matrix(1.0, 0.0, 0.0, 1.0, -6.75, -17.75)" width="13.55" xlink:href="#shape0"/>
  </g>
  <defs>
    <g id="shape0" transform="matrix(1.0, 0.0, 0.0, 1.0, 6.75, 17.75)">
      <path d="M-2.55 -16.1 Q0.0 -14.95 2.6 -16.1 3.25 -14.45 2.7 -14.2 L2.45 -14.1 Q0.05 -13.2 -2.4 -14.05 L-2.55 -14.15 Q-3.15 -14.4 -2.55 -16.1" fill="url(#gradient0)" fill-rule="evenodd" stroke="none"/>
      <path d="M2.4 -17.05 L1.7 -16.75 0.0 -16.6 -1.65 -16.75 Q-2.35 -16.9 -2.35 -17.05 -2.35 -17.2 -1.65 -17.35 L0.0 -17.5 1.7 -17.35 2.4 -17.05" fill="#4b2601" fill-rule="evenodd" stroke="none"/>
      <path d="M-2.35 -17.05 Q-2.35 -16.9 -1.65 -16.75 L0.0 -16.6 1.7 -16.75 2.4 -17.05 Q3.0 -16.55 2.6 -16.1 0.0 -14.95 -2.55 -16.1 -3.05 -16.7 -2.35 -17.05" fill="url(#gradient1)" fill-rule="evenodd" stroke="none"/>
      <path d="M2.45 -14.1 Q3.75 -7.05 3.9 0.95 L4.25 1.8 Q6.1 3.45 6.55 7.0 L6.5 15.65 5.45 16.6 5.2 13.6 4.55 13.5 4.05 11.55 3.4 11.8 3.35 11.3 3.1 10.65 2.05 8.9 0.65 9.4 -1.9 6.7 -3.35 7.45 -4.2 6.8 -6.45 8.95 -6.5 7.0 Q-6.05 3.45 -4.15 1.8 L-3.85 0.95 Q-3.7 -7.05 -2.4 -14.05 0.05 -13.2 2.45 -14.1" fill="url(#gradient2)" fill-rule="evenodd" stroke="none"/>
      <path d="M5.45 16.6 L4.4 17.55 3.75 12.65 2.2 14.45 1.75 15.4 0.6 10.2 -0.65 10.85 -0.7 10.95 -0.8 11.05 -1.3 11.2 -1.75 12.25 -3.35 7.8 -4.3 9.05 -5.95 10.45 -6.1 10.2 -6.05 9.8 -6.3 9.3 -6.45 9.15 -6.45 8.95 -4.2 6.8 -3.35 7.45 -1.9 6.7 0.65 9.4 2.05 8.9 3.1 10.65 3.35 11.3 3.4 11.8 4.05 11.55 4.55 13.5 5.2 13.6 5.45 16.6" fill="url(#gradient3)" fill-rule="evenodd" stroke="none"/>
      <path d="M2.4 -17.05 L1.7 -16.75 0.0 -16.6 -1.65 -16.75 Q-2.35 -16.9 -2.35 -17.05 -3.05 -16.7 -2.55 -16.1 0.0 -14.95 2.6 -16.1 3.0 -16.55 2.4 -17.05 L1.7 -17.35 0.0 -17.5 -1.65 -17.35 Q-2.35 -17.2 -2.35 -17.05 M2.6 -16.1 Q3.25 -14.45 2.7 -14.2 L2.45 -14.1 Q3.75 -7.05 3.9 0.95 L4.25 1.8 Q6.1 3.45 6.55 7.0 L6.5 15.65 5.45 16.6 4.4 17.55 3.75 12.65 2.2 14.45 1.75 15.4 0.6 10.2 -0.65 10.85 -0.7 10.95 -0.8 11.05 -1.3 11.2 -1.75 12.25 -3.35 7.8 -4.3 9.05 -5.95 10.45 -6.1 10.2 -6.05 9.8 -6.3 9.3 -6.45 9.15 -6.45 8.95 -6.5 7.0 Q-6.05 3.45 -4.15 1.8 L-3.85 0.95 Q-3.7 -7.05 -2.4 -14.05 L-2.55 -14.15 Q-3.15 -14.4 -2.55 -16.1 M-6.45 8.95 L-4.2 6.8 -3.35 7.45 -1.9 6.7 0.65 9.4 2.05 8.9 3.1 10.65 3.35 11.3 3.4 11.8 4.05 11.55 4.55 13.5 5.2 13.6 5.45 16.6 M2.45 -14.1 Q0.05 -13.2 -2.4 -14.05" fill="none" stroke="#154f0f" stroke-linecap="round" stroke-linejoin="round" stroke-width="0.5"/>
      <path d="M-4.9 6.25 L-4.9 6.15 Q-4.9 5.3 -4.3 4.75 -3.75 4.15 -2.9 4.15 -2.05 4.15 -1.45 4.75 -0.9 5.3 -0.85 6.15 L-0.85 6.25 -1.1 6.25 -1.15 6.1 -1.35 6.25 -4.9 6.25" fill="url(#gradient4)" fill-rule="evenodd" stroke="none"/>
      <path d="M-4.9 6.25 L-1.35 6.25 -3.1 7.15 -4.75 6.4 Q-4.9 6.7 -4.9 6.25 M-1.1 6.25 L-0.85 6.25 Q-0.9 6.65 -1.1 6.25" fill="url(#gradient5)" fill-rule="evenodd" stroke="none"/>
    </g>
    <linearGradient gradientTransform="matrix(0.0024, 0.0, 0.0, 0.0015, 0.45, -14.8)" gradientUnits="userSpaceOnUse" id="gradient0" spreadMethod="pad" x1="-819.2" x2="819.2">
      <stop offset="0.0" stop-color="#3b5b06" stop-opacity="0.8627451"/>
      <stop offset="0.4980392156862745" stop-color="#71951b" stop-opacity="0.8627451"/>
      <stop offset="0.9568627450980393" stop-color="#3b5b06" stop-opacity="0.87058824"/>
    </linearGradient>
    <linearGradient gradientTransform="matrix(0.0034, 0.0, 0.0, 9.0E-4, 0.0, -16.3)" gradientUnits="userSpaceOnUse" id="gradient1" spreadMethod="pad" x1="-819.2" x2="819.2">
      <stop offset="0.0" stop-color="#3b5b06" stop-opacity="0.8627451"/>
      <stop offset="0.4980392156862745" stop-color="#71951b" stop-opacity="0.8627451"/>
      <stop offset="0.9568627450980393" stop-color="#3b5b06" stop-opacity="0.87058824"/>
    </linearGradient>
    <linearGradient gradientTransform="matrix(0.0091, 0.0133, -0.0234, 0.016, 0.1, 9.25)" gradientUnits="userSpaceOnUse" id="gradient2" spreadMethod="pad" x1="-819.2" x2="819.2">
      <stop offset="0.0" stop-color="#3b5b06" stop-opacity="0.8627451"/>
      <stop offset="0.4980392156862745" stop-color="#71951b" stop-opacity="0.8627451"/>
      <stop offset="0.9568627450980393" stop-color="#3b5b06" stop-opacity="0.87058824"/>
    </linearGradient>
    <linearGradient gradientTransform="matrix(0.0091, 0.0133, -0.0234, 0.016, 0.1, 9.25)" gradientUnits="userSpaceOnUse" id="gradient3" spreadMethod="pad" x1="-819.2" x2="819.2">
      <stop offset="0.0" stop-color="#3b5b06" stop-opacity="0.67058825"/>
      <stop offset="0.4980392156862745" stop-color="#71951b" stop-opacity="0.6"/>
      <stop offset="0.9568627450980393" stop-color="#3b5b06" stop-opacity="0.6431373"/>
    </linearGradient>
    <radialGradient cx="0" cy="0" gradientTransform="matrix(0.0026, 0.0, 0.0, 0.0025, -2.9, 6.1)" gradientUnits="userSpaceOnUse" id="gradient4" r="819.2" spreadMethod="pad">
      <stop offset="0.23529411764705882" stop-color="#ffffff" stop-opacity="0.6901961"/>
      <stop offset="1.0" stop-color="#ffffff" stop-opacity="0.0"/>
    </radialGradient>
    <radialGradient cx="0" cy="0" gradientTransform="matrix(0.0026, 0.0, 0.0, 0.0115, -2.9, 5.55)" gradientUnits="userSpaceOnUse" id="gradient5" r="819.2" spreadMethod="pad">
      <stop offset="0.23529411764705882" stop-color="#ffffff" stop-opacity="0.6901961"/>
      <stop offset="1.0" stop-color="#ffffff" stop-opacity="0.0"/>
    </radialGradient>
  </defs>
</svg>
