<?xml version="1.0" encoding="UTF-8" standalone="no"?>
<svg xmlns:xlink="http://www.w3.org/1999/xlink" height="32.3px" width="14.7px" xmlns="http://www.w3.org/2000/svg">
  <g transform="matrix(1.0, 0.0, 0.0, 1.0, 7.35, 16.1)">
    <use height="32.3" transform="matrix(1.0, 0.0, 0.0, 1.0, -7.35, -16.1)" width="14.7" xlink:href="#shape0"/>
  </g>
  <defs>
    <g id="shape0" transform="matrix(1.0, 0.0, 0.0, 1.0, 7.35, 16.1)">
      <path d="M7.05 -0.65 L7.1 13.95 Q4.35 12.6 3.2 11.25 L1.25 9.3 Q0.45 8.7 -0.6 8.9 -1.6 9.0 -2.95 10.95 -4.6 13.3 -7.1 13.8 L-7.1 -12.5 Q-6.8 -11.5 -6.9 -11.1 L-5.15 -6.25 -4.65 -6.95 -4.0 -5.05 -1.9 -7.7 -1.9 -7.85 -0.55 -2.35 -0.55 -0.15 1.85 -3.45 3.65 1.25 3.65 -0.05 5.05 3.3 7.05 -0.65" fill="url(#gradient0)" fill-rule="evenodd" stroke="none"/>
      <path d="M-6.9 -11.1 L-3.6 -15.85 -3.6 -7.9 0.45 -11.9 0.45 -4.5 3.15 -7.05 3.15 -5.0 4.8 0.1 7.05 -3.75 7.05 -0.65 5.05 3.3 3.65 -0.05 3.65 1.25 1.85 -3.45 -0.55 -0.15 -0.55 -2.35 -1.9 -7.85 -1.9 -7.7 -4.0 -5.05 -4.65 -6.95 -5.15 -6.25 -6.9 -11.1" fill="url(#gradient1)" fill-rule="evenodd" stroke="none"/>
      <path d="M7.1 13.95 Q-0.95 18.0 -7.1 13.8 -4.6 13.3 -2.95 10.95 -1.6 9.0 -0.6 8.9 0.45 8.7 1.25 9.3 L3.2 11.25 Q4.35 12.6 7.1 13.95" fill="#2b360e" fill-opacity="0.8627451" fill-rule="evenodd" stroke="none"/>
      <path d="M-6.9 -11.1 L-3.6 -15.85 -3.6 -7.9 0.45 -11.9 0.45 -4.5 3.15 -7.05 3.15 -5.0 4.8 0.1 7.05 -3.75 7.05 -0.65 7.1 13.95 Q-0.95 18.0 -7.1 13.8 L-7.1 -12.5 Q-6.8 -11.5 -6.9 -11.1 L-5.15 -6.25 -4.65 -6.95 -4.0 -5.05 -1.9 -7.7 -1.9 -7.85 -0.55 -2.35 -0.55 -0.15 1.85 -3.45 3.65 1.25 3.65 -0.05 5.05 3.3 7.05 -0.65" fill="none" stroke="#324518" stroke-linecap="round" stroke-linejoin="round" stroke-width="0.5"/>
    </g>
    <linearGradient gradientTransform="matrix(0.0, -0.0375, 0.0087, 0.0, 0.0, -14.7)" gradientUnits="userSpaceOnUse" id="gradient0" spreadMethod="pad" x1="-819.2" x2="819.2">
      <stop offset="0.0" stop-color="#3b5b06" stop-opacity="0.8627451"/>
      <stop offset="0.4980392156862745" stop-color="#71951b" stop-opacity="0.8627451"/>
      <stop offset="0.9568627450980393" stop-color="#3b5b06" stop-opacity="0.87058824"/>
    </linearGradient>
    <linearGradient gradientTransform="matrix(0.0, -0.0375, 0.0087, 0.0, 0.0, -14.7)" gradientUnits="userSpaceOnUse" id="gradient1" spreadMethod="pad" x1="-819.2" x2="819.2">
      <stop offset="0.0" stop-color="#3b5b06" stop-opacity="0.70980394"/>
      <stop offset="0.4980392156862745" stop-color="#71951b" stop-opacity="0.6"/>
      <stop offset="0.9568627450980393" stop-color="#3b5b06" stop-opacity="0.87058824"/>
    </linearGradient>
  </defs>
</svg>
