<?xml version="1.0" encoding="UTF-8" standalone="no"?>
<svg xmlns:xlink="http://www.w3.org/1999/xlink" height="49.2px" width="14.65px" xmlns="http://www.w3.org/2000/svg">
  <g transform="matrix(1.0, 0.0, 0.0, 1.0, 7.1, 24.5)">
    <use height="49.2" transform="matrix(1.0, 0.0, 0.0, 1.0, -7.1, -24.5)" width="14.65" xlink:href="#shape0"/>
  </g>
  <defs>
    <g id="shape0" transform="matrix(1.0, 0.0, 0.0, 1.0, 7.1, 24.5)">
      <path d="M3.15 -23.65 Q3.1 -23.45 2.3 -23.3 L0.2 -23.1 -1.9 -23.3 Q-2.75 -23.45 -2.75 -23.65 L-1.9 -24.1 0.2 -24.25 2.3 -24.1 Q3.15 -23.9 3.15 -23.65 M-2.3 -21.0 L2.65 -21.2 2.65 -16.05 -2.3 -21.0" fill="#46240f" fill-rule="evenodd" stroke="none"/>
      <path d="M-2.75 -23.65 Q-2.75 -23.45 -1.9 -23.3 L0.2 -23.1 2.3 -23.3 Q3.1 -23.45 3.15 -23.65 L3.15 -21.3 2.65 -21.2 -2.3 -21.0 -2.75 -21.3 -2.75 -23.65" fill="url(#gradient0)" fill-rule="evenodd" stroke="none"/>
      <path d="M2.65 -16.05 L2.7 -7.55 Q2.7 -5.75 4.95 -3.9 7.2 -2.05 7.25 2.75 L7.3 21.55 6.6 18.45 5.35 19.3 3.25 12.95 2.25 14.95 1.55 12.8 -0.25 12.8 0.05 9.1 -3.45 10.6 -3.45 9.35 -4.2 10.9 -5.3 9.5 -6.85 12.5 -6.85 2.75 Q-6.85 -2.05 -4.6 -3.9 -2.35 -5.75 -2.3 -7.55 L-2.3 -21.0 2.65 -16.05" fill="url(#gradient1)" fill-rule="evenodd" stroke="none"/>
      <path d="M7.3 21.55 L7.3 23.3 5.95 24.45 4.45 19.85 2.5 22.1 2.5 18.45 1.6 16.55 -0.25 18.95 -0.25 12.8 -0.25 11.25 -1.35 12.55 -2.95 17.35 -4.2 10.9 -4.95 12.75 -6.05 14.05 -6.85 12.5 -5.3 9.5 -4.2 10.9 -3.45 9.35 -3.45 10.6 0.05 9.1 -0.25 12.8 1.55 12.8 2.25 14.95 3.25 12.95 5.35 19.3 6.6 18.45 7.3 21.55" fill="url(#gradient2)" fill-rule="evenodd" stroke="none"/>
      <path d="M-2.75 -23.65 Q-2.75 -23.45 -1.9 -23.3 L0.2 -23.1 2.3 -23.3 Q3.1 -23.45 3.15 -23.65 3.15 -23.9 2.3 -24.1 L0.2 -24.25 -1.9 -24.1 -2.75 -23.65 -2.75 -21.3 -2.3 -21.0 2.65 -21.2 3.15 -21.3 3.15 -23.65 M2.65 -21.2 L2.65 -16.05 2.7 -7.55 Q2.7 -5.75 4.95 -3.9 7.2 -2.05 7.25 2.75 L7.3 21.55 7.3 23.3 5.95 24.45 4.45 19.85 2.5 22.1 2.5 18.45 1.6 16.55 -0.25 18.95 -0.25 12.8 -0.25 11.25 -1.35 12.55 -2.95 17.35 -4.2 10.9 -4.95 12.75 -6.05 14.05 -6.85 12.5 -6.85 2.75 Q-6.85 -2.05 -4.6 -3.9 -2.35 -5.75 -2.3 -7.55 L-2.3 -21.0 M7.3 21.55 L6.6 18.45 5.35 19.3 3.25 12.95 2.25 14.95 1.55 12.8 -0.25 12.8 0.05 9.1 -3.45 10.6 -3.45 9.35 -4.2 10.9 -5.3 9.5 -6.85 12.5" fill="none" stroke="#432101" stroke-linecap="round" stroke-linejoin="round" stroke-width="0.5"/>
      <path d="M0.7 -3.1 Q1.7 -2.15 1.7 -0.75 1.7 0.6 0.7 1.55 -0.25 2.55 -1.6 2.55 -2.95 2.55 -3.9 1.55 -4.85 0.6 -4.85 -0.75 -4.85 -2.15 -3.9 -3.1 -2.95 -4.1 -1.6 -4.1 -0.25 -4.1 0.7 -3.1" fill="url(#gradient3)" fill-rule="evenodd" stroke="none"/>
    </g>
    <linearGradient gradientTransform="matrix(0.0036, 0.0, 0.0, 0.0019, 0.2, -22.1)" gradientUnits="userSpaceOnUse" id="gradient0" spreadMethod="pad" x1="-819.2" x2="819.2">
      <stop offset="0.07450980392156863" stop-color="#53180b" stop-opacity="0.8627451"/>
      <stop offset="0.47058823529411764" stop-color="#773f1a" stop-opacity="0.8627451"/>
      <stop offset="0.9450980392156862" stop-color="#53180b" stop-opacity="0.8627451"/>
    </linearGradient>
    <linearGradient gradientTransform="matrix(0.0, -0.0375, 0.0087, 0.0, 0.2, 9.6)" gradientUnits="userSpaceOnUse" id="gradient1" spreadMethod="pad" x1="-819.2" x2="819.2">
      <stop offset="0.07450980392156863" stop-color="#53180b" stop-opacity="0.8627451"/>
      <stop offset="0.47058823529411764" stop-color="#773f1a" stop-opacity="0.8627451"/>
      <stop offset="0.9450980392156862" stop-color="#53180b" stop-opacity="0.8627451"/>
    </linearGradient>
    <linearGradient gradientTransform="matrix(0.0, -0.0375, 0.0087, 0.0, 0.2, 9.6)" gradientUnits="userSpaceOnUse" id="gradient2" spreadMethod="pad" x1="-819.2" x2="819.2">
      <stop offset="0.07450980392156863" stop-color="#53180b" stop-opacity="0.68235296"/>
      <stop offset="0.47058823529411764" stop-color="#773f1a" stop-opacity="0.70980394"/>
      <stop offset="0.9450980392156862" stop-color="#53180b" stop-opacity="0.76862746"/>
    </linearGradient>
    <radialGradient cx="0" cy="0" gradientTransform="matrix(0.0042, 0.0, 1.0E-4, 0.0043, -1.6, -0.75)" gradientUnits="userSpaceOnUse" id="gradient3" r="819.2" spreadMethod="pad">
      <stop offset="0.23529411764705882" stop-color="#ffffff" stop-opacity="0.6901961"/>
      <stop offset="1.0" stop-color="#ffffff" stop-opacity="0.0"/>
    </radialGradient>
  </defs>
</svg>
