<?xml version="1.0" encoding="UTF-8" standalone="no"?>
<svg xmlns:xlink="http://www.w3.org/1999/xlink" height="25.2px" width="13.45px" xmlns="http://www.w3.org/2000/svg">
  <g transform="matrix(1.0, 0.0, 0.0, 1.0, 6.7, 12.6)">
    <use height="25.2" transform="matrix(1.0, 0.0, 0.0, 1.0, -6.7, -12.6)" width="13.45" xlink:href="#shape0"/>
  </g>
  <defs>
    <g id="shape0" transform="matrix(1.0, 0.0, 0.0, 1.0, 6.7, 12.6)">
      <path d="M-6.45 -10.05 L-6.45 -11.0 -6.3 -10.85 -6.05 -10.35 -6.1 -9.95 -5.95 -9.7 -4.3 -11.1 -3.35 -12.35 -1.75 -7.9 -1.3 -8.95 -0.8 -9.1 -0.7 -9.2 -0.65 -9.3 0.6 -9.95 1.75 -4.75 2.2 -5.7 3.75 -7.5 4.4 -2.6 6.5 -4.5 6.5 -3.35 4.6 -1.05 3.4 -3.0 3.4 -3.15 3.4 -3.45 3.4 -3.8 1.55 -1.2 -0.4 -4.75 -1.2 -2.8 -1.75 -4.6 -3.85 -7.6 -4.25 -5.4 -6.45 -10.05" fill="url(#gradient0)" fill-rule="evenodd" stroke="none"/>
      <path d="M-6.45 -10.05 L-4.25 -5.4 -3.85 -7.6 -1.75 -4.6 -1.2 -2.8 -0.4 -4.75 1.55 -1.2 3.4 -3.8 3.4 -3.45 3.4 -3.15 3.4 -3.0 4.6 -1.05 6.5 -3.35 6.4 9.85 Q0.2 6.95 -6.35 9.9 L-6.35 9.85 -6.35 9.65 -6.45 -10.05" fill="url(#gradient1)" fill-rule="evenodd" stroke="none"/>
      <path d="M6.4 9.85 Q6.35 10.9 4.5 11.6 2.65 12.35 0.0 12.35 -2.65 12.35 -4.5 11.6 -6.35 10.9 -6.35 9.9 0.2 6.95 6.4 9.85" fill="#331a00" fill-rule="evenodd" stroke="none"/>
      <path d="M6.5 -3.35 L6.5 -4.5 4.4 -2.6 3.75 -7.5 2.2 -5.7 1.75 -4.75 0.6 -9.95 -0.65 -9.3 -0.7 -9.2 -0.8 -9.1 -1.3 -8.95 -1.75 -7.9 -3.35 -12.35 -4.3 -11.1 -5.95 -9.7 -6.1 -9.95 -6.05 -10.35 -6.3 -10.85 -6.45 -11.0 -6.45 -10.05 -4.25 -5.4 -3.85 -7.6 -1.75 -4.6 -1.2 -2.8 -0.4 -4.75 1.55 -1.2 3.4 -3.8 3.4 -3.45 3.4 -3.15 3.4 -3.0 4.6 -1.05 6.5 -3.35 6.4 9.85 Q6.35 10.9 4.5 11.6 2.65 12.35 0.0 12.35 -2.65 12.35 -4.5 11.6 -6.35 10.9 -6.35 9.9 L-6.35 9.85 -6.35 9.65 -6.45 -10.05 M6.4 9.85 Q0.2 6.95 -6.35 9.9" fill="none" stroke="#154f0f" stroke-linecap="round" stroke-linejoin="round" stroke-width="0.5"/>
      <path d="M-3.85 -7.0 L-1.75 -4.0 -1.3 -2.55 -1.3 -2.2 -1.4 -1.3 Q-2.0 4.9 -2.85 4.95 -3.7 4.9 -4.25 -1.3 L-4.5 -4.65 -3.85 -7.0" fill="url(#gradient2)" fill-rule="evenodd" stroke="none"/>
    </g>
    <linearGradient gradientTransform="matrix(0.0091, 0.0133, -0.0234, 0.016, 0.1, -10.9)" gradientUnits="userSpaceOnUse" id="gradient0" spreadMethod="pad" x1="-819.2" x2="819.2">
      <stop offset="0.0" stop-color="#3b5b06" stop-opacity="0.67058825"/>
      <stop offset="0.4980392156862745" stop-color="#71951b" stop-opacity="0.6"/>
      <stop offset="0.9568627450980393" stop-color="#3b5b06" stop-opacity="0.6431373"/>
    </linearGradient>
    <linearGradient gradientTransform="matrix(0.0091, 0.0133, -0.0234, 0.016, 0.1, -10.9)" gradientUnits="userSpaceOnUse" id="gradient1" spreadMethod="pad" x1="-819.2" x2="819.2">
      <stop offset="0.0" stop-color="#3b5b06" stop-opacity="0.8627451"/>
      <stop offset="0.4980392156862745" stop-color="#71951b" stop-opacity="0.8627451"/>
      <stop offset="0.9568627450980393" stop-color="#3b5b06" stop-opacity="0.87058824"/>
    </linearGradient>
    <radialGradient cx="0" cy="0" gradientTransform="matrix(0.0026, 0.0, 0.0, 0.0274, -2.85, -16.35)" gradientUnits="userSpaceOnUse" id="gradient2" r="819.2" spreadMethod="pad">
      <stop offset="0.23529411764705882" stop-color="#ffffff" stop-opacity="0.6901961"/>
      <stop offset="1.0" stop-color="#ffffff" stop-opacity="0.0"/>
    </radialGradient>
  </defs>
</svg>
