<?xml version="1.0" encoding="UTF-8" standalone="no"?>
<svg xmlns:xlink="http://www.w3.org/1999/xlink" height="44.25px" width="14.65px" xmlns="http://www.w3.org/2000/svg">
  <g transform="matrix(1.0, 0.0, 0.0, 1.0, 7.35, 22.1)">
    <use height="44.25" transform="matrix(1.0, 0.0, 0.0, 1.0, -7.35, -22.1)" width="14.65" xlink:href="#shape0"/>
  </g>
  <defs>
    <g id="shape0" transform="matrix(1.0, 0.0, 0.0, 1.0, 7.35, 22.1)">
      <path d="M-2.55 -18.65 L-2.95 -18.95 -2.95 -21.3 Q-2.95 -21.1 -2.05 -20.95 L0.0 -20.7 2.05 -20.95 Q2.95 -21.1 2.95 -21.3 L2.95 -18.95 2.45 -18.8 -2.55 -18.65" fill="url(#gradient0)" fill-rule="evenodd" stroke="none"/>
      <path d="M2.45 -18.8 L2.45 -13.7 -2.55 -18.65 2.45 -18.8 M-2.95 -21.3 Q-3.0 -21.5 -2.05 -21.75 L0.0 -21.85 2.05 -21.75 2.95 -21.3 Q2.95 -21.1 2.05 -20.95 L0.0 -20.7 -2.05 -20.95 Q-2.95 -21.1 -2.95 -21.3" fill="#4bc3d0" fill-opacity="0.67058825" fill-rule="evenodd" stroke="none"/>
      <path d="M2.45 -13.7 L2.55 -5.2 Q2.45 -3.4 4.75 -1.55 7.0 0.25 7.0 5.1 L7.05 11.05 7.0 11.05 7.0 13.15 6.5 12.25 Q6.1 12.8 5.1 12.7 L4.85 10.15 1.95 13.15 1.05 10.3 -0.65 14.65 -2.15 12.0 -2.25 15.3 -3.0 16.05 -3.8 15.4 -3.9 14.8 -4.55 14.35 -5.6 18.45 -6.6 18.0 -6.6 17.8 Q-6.65 17.35 -7.1 17.3 L-7.1 5.1 Q-7.1 0.25 -4.8 -1.55 -2.55 -3.4 -2.55 -5.2 L-2.55 -18.65 2.45 -13.7" fill="url(#gradient1)" fill-rule="evenodd" stroke="none"/>
      <path d="M7.0 13.15 L7.0 13.9 4.75 18.75 3.0 13.8 1.9 21.3 0.45 16.45 -2.0 21.25 -2.75 17.25 -4.55 21.9 -7.1 17.7 -7.1 17.3 Q-6.65 17.35 -6.6 17.8 L-6.6 18.0 -5.6 18.45 -4.55 14.35 -3.9 14.8 -3.8 15.4 -3.0 16.05 -2.25 15.3 -2.15 12.0 -0.65 14.65 1.05 10.3 1.95 13.15 4.85 10.15 5.1 12.7 Q6.1 12.8 6.5 12.25 L7.0 13.15" fill="url(#gradient2)" fill-rule="evenodd" stroke="none"/>
      <path d="M2.45 -18.8 L2.45 -13.7 2.55 -5.2 Q2.45 -3.4 4.75 -1.55 7.0 0.25 7.0 5.1 L7.05 11.05 7.0 11.05 7.0 13.15 7.0 13.9 4.75 18.75 3.0 13.8 1.9 21.3 0.45 16.45 -2.0 21.25 -2.75 17.25 -4.55 21.9 -7.1 17.7 -7.1 17.3 -7.1 5.1 Q-7.1 0.25 -4.8 -1.55 -2.55 -3.4 -2.55 -5.2 L-2.55 -18.65 -2.95 -18.95 -2.95 -21.3 Q-3.0 -21.5 -2.05 -21.75 L0.0 -21.85 2.05 -21.75 2.95 -21.3 2.95 -18.95 2.45 -18.8 -2.55 -18.65 M-2.95 -21.3 Q-2.95 -21.1 -2.05 -20.95 L0.0 -20.7 2.05 -20.95 Q2.95 -21.1 2.95 -21.3 M7.0 13.15 L6.5 12.25 Q6.1 12.8 5.1 12.7 L4.85 10.15 1.95 13.15 1.05 10.3 -0.65 14.65 -2.15 12.0 -2.25 15.3 -3.0 16.05 -3.8 15.4 -3.9 14.8 -4.55 14.35 -5.6 18.45 -6.6 18.0 -6.6 17.8 Q-6.65 17.35 -7.1 17.3" fill="none" stroke="#97b4c6" stroke-linecap="round" stroke-linejoin="round" stroke-width="0.5"/>
      <path d="M-5.05 -0.2 Q-4.1 -1.2 -2.75 -1.2 -1.4 -1.2 -0.45 -0.2 0.55 0.75 0.55 2.15 0.55 3.5 -0.45 4.45 -1.4 5.45 -2.75 5.45 -4.1 5.45 -5.05 4.45 -6.0 3.5 -6.0 2.15 -6.0 0.75 -5.05 -0.2" fill="url(#gradient3)" fill-rule="evenodd" stroke="none"/>
    </g>
    <linearGradient gradientTransform="matrix(0.0036, 0.0, 0.0, 0.0019, 0.0, -19.75)" gradientUnits="userSpaceOnUse" id="gradient0" spreadMethod="pad" x1="-819.2" x2="819.2">
      <stop offset="0.0" stop-color="#cbebf8" stop-opacity="0.2901961"/>
      <stop offset="0.8470588235294118" stop-color="#b5e7ec" stop-opacity="0.67058825"/>
    </linearGradient>
    <radialGradient cx="0" cy="0" gradientTransform="matrix(0.041, 0.0, 0.0, 0.041, -0.7, 8.05)" gradientUnits="userSpaceOnUse" id="gradient1" r="819.2" spreadMethod="pad">
      <stop offset="0.0" stop-color="#cbebf8" stop-opacity="0.2901961"/>
      <stop offset="0.8470588235294118" stop-color="#b5e7ec" stop-opacity="0.67058825"/>
    </radialGradient>
    <radialGradient cx="0" cy="0" gradientTransform="matrix(0.041, 0.0, 0.0, 0.041, -0.7, 8.05)" gradientUnits="userSpaceOnUse" id="gradient2" r="819.2" spreadMethod="pad">
      <stop offset="0.0" stop-color="#cbebf8" stop-opacity="0.21176471"/>
      <stop offset="0.8470588235294118" stop-color="#b5e7ec" stop-opacity="0.4"/>
    </radialGradient>
    <radialGradient cx="0" cy="0" gradientTransform="matrix(0.0042, 0.0, 1.0E-4, 0.0043, -2.75, 2.15)" gradientUnits="userSpaceOnUse" id="gradient3" r="819.2" spreadMethod="pad">
      <stop offset="0.23529411764705882" stop-color="#ffffff" stop-opacity="0.6901961"/>
      <stop offset="1.0" stop-color="#ffffff" stop-opacity="0.0"/>
    </radialGradient>
  </defs>
</svg>
