<?xml version="1.0" encoding="UTF-8" standalone="no"?>
<svg xmlns:xlink="http://www.w3.org/1999/xlink" height="49.05px" width="14.65px" xmlns="http://www.w3.org/2000/svg">
  <g transform="matrix(1.0, 0.0, 0.0, 1.0, 7.35, 24.5)">
    <use height="49.05" transform="matrix(1.0, 0.0, 0.0, 1.0, -7.35, -24.5)" width="14.65" xlink:href="#shape0"/>
  </g>
  <defs>
    <g id="shape0" transform="matrix(1.0, 0.0, 0.0, 1.0, 7.35, 24.5)">
      <path d="M-2.55 -21.05 L-2.95 -21.35 -2.95 -23.7 Q-2.95 -23.5 -2.05 -23.35 L0.0 -23.1 2.05 -23.35 Q2.95 -23.5 2.95 -23.7 L2.95 -21.35 2.45 -21.2 -2.55 -21.05" fill="url(#gradient0)" fill-rule="evenodd" stroke="none"/>
      <path d="M-2.95 -23.7 Q-3.0 -23.9 -2.05 -24.15 L0.0 -24.25 2.05 -24.15 2.95 -23.7 Q2.95 -23.5 2.05 -23.35 L0.0 -23.1 -2.05 -23.35 Q-2.95 -23.5 -2.95 -23.7" fill="#000000" fill-rule="evenodd" stroke="none"/>
      <path d="M2.45 -21.2 L2.45 -16.1 -2.55 -21.05 2.45 -21.2" fill="#2b360e" fill-opacity="0.8627451" fill-rule="evenodd" stroke="none"/>
      <path d="M2.45 -16.1 L2.55 -7.6 Q2.45 -5.8 4.75 -3.95 7.0 -2.15 7.0 2.7 L7.05 20.45 6.4 18.85 5.35 18.15 5.35 15.65 3.9 10.45 3.6 10.45 2.25 12.4 1.65 11.05 1.15 8.55 -0.6 9.95 -1.35 8.1 -2.8 5.4 -3.85 7.4 -4.85 6.25 -6.9 12.55 -7.1 11.75 -7.1 2.7 Q-7.1 -2.15 -4.8 -3.95 -2.55 -5.8 -2.55 -7.6 L-2.55 -21.05 2.45 -16.1" fill="url(#gradient1)" fill-rule="evenodd" stroke="none"/>
      <path d="M7.05 20.45 L4.85 24.3 3.15 19.25 3.15 17.2 0.45 19.7 0.45 12.35 -3.55 16.35 -3.55 8.4 -6.9 13.15 -6.9 12.55 -4.85 6.25 -3.85 7.4 -2.8 5.4 -1.35 8.1 -0.6 9.95 1.15 8.55 1.65 11.05 2.25 12.4 3.6 10.45 3.9 10.45 5.35 15.65 5.35 18.15 6.4 18.85 7.05 20.45" fill="url(#gradient2)" fill-rule="evenodd" stroke="none"/>
      <path d="M2.45 -21.2 L2.45 -16.1 2.55 -7.6 Q2.45 -5.8 4.75 -3.95 7.0 -2.15 7.0 2.7 L7.05 20.45 4.85 24.3 3.15 19.25 3.15 17.2 0.45 19.7 0.45 12.35 -3.55 16.35 -3.55 8.4 -6.9 13.15 -7.1 13.4 -7.1 12.55 -7.1 11.75 -7.1 2.7 Q-7.1 -2.15 -4.8 -3.95 -2.55 -5.8 -2.55 -7.6 L-2.55 -21.05 -2.95 -21.35 -2.95 -23.7 Q-3.0 -23.9 -2.05 -24.15 L0.0 -24.25 2.05 -24.15 2.95 -23.7 2.95 -21.35 2.45 -21.2 -2.55 -21.05 M2.95 -23.7 Q2.95 -23.5 2.05 -23.35 L0.0 -23.1 -2.05 -23.35 Q-2.95 -23.5 -2.95 -23.7 M-6.9 12.55 L-4.85 6.25 -3.85 7.4 -2.8 5.4 -1.35 8.1 -0.6 9.95 1.15 8.55 1.65 11.05 2.25 12.4 3.6 10.45 3.9 10.45 5.35 15.65 5.35 18.15 6.4 18.85 7.05 20.45 M-6.9 12.55 L-6.9 13.15 M-7.1 12.55 L-6.9 12.55 -7.1 11.75" fill="none" stroke="#324518" stroke-linecap="round" stroke-linejoin="round" stroke-width="0.5"/>
      <path d="M-5.05 -2.6 Q-4.1 -3.6 -2.75 -3.6 -1.4 -3.6 -0.45 -2.6 0.55 -1.65 0.55 -0.25 0.55 1.1 -0.45 2.05 -1.4 3.05 -2.75 3.05 -4.1 3.05 -5.05 2.05 -6.0 1.1 -6.0 -0.25 -6.0 -1.65 -5.05 -2.6" fill="url(#gradient3)" fill-rule="evenodd" stroke="none"/>
    </g>
    <linearGradient gradientTransform="matrix(0.0036, 0.0, 0.0, 0.0019, 0.0, -22.15)" gradientUnits="userSpaceOnUse" id="gradient0" spreadMethod="pad" x1="-819.2" x2="819.2">
      <stop offset="0.0" stop-color="#3b5b06" stop-opacity="0.8627451"/>
      <stop offset="0.4980392156862745" stop-color="#71951b" stop-opacity="0.8627451"/>
      <stop offset="0.9568627450980393" stop-color="#3b5b06" stop-opacity="0.87058824"/>
    </linearGradient>
    <linearGradient gradientTransform="matrix(0.0, -0.0375, 0.0087, 0.0, 0.0, 9.55)" gradientUnits="userSpaceOnUse" id="gradient1" spreadMethod="pad" x1="-819.2" x2="819.2">
      <stop offset="0.0" stop-color="#3b5b06" stop-opacity="0.8627451"/>
      <stop offset="0.4980392156862745" stop-color="#71951b" stop-opacity="0.8627451"/>
      <stop offset="0.9568627450980393" stop-color="#3b5b06" stop-opacity="0.87058824"/>
    </linearGradient>
    <linearGradient gradientTransform="matrix(0.0, -0.0375, 0.0087, 0.0, 0.0, 9.55)" gradientUnits="userSpaceOnUse" id="gradient2" spreadMethod="pad" x1="-819.2" x2="819.2">
      <stop offset="0.0" stop-color="#3b5b06" stop-opacity="0.70980394"/>
      <stop offset="0.4980392156862745" stop-color="#71951b" stop-opacity="0.6"/>
      <stop offset="0.9568627450980393" stop-color="#3b5b06" stop-opacity="0.87058824"/>
    </linearGradient>
    <radialGradient cx="0" cy="0" gradientTransform="matrix(0.0042, 0.0, 1.0E-4, 0.0043, -2.75, -0.25)" gradientUnits="userSpaceOnUse" id="gradient3" r="819.2" spreadMethod="pad">
      <stop offset="0.23529411764705882" stop-color="#ffffff" stop-opacity="0.6901961"/>
      <stop offset="1.0" stop-color="#ffffff" stop-opacity="0.0"/>
    </radialGradient>
  </defs>
</svg>
