<?xml version="1.0" encoding="UTF-8" standalone="no"?>
<svg xmlns:xlink="http://www.w3.org/1999/xlink" height="50.5px" width="13.55px" xmlns="http://www.w3.org/2000/svg">
  <g transform="matrix(1.0, 0.0, 0.0, 1.0, 6.75, 25.25)">
    <use height="50.5" transform="matrix(1.0, 0.0, 0.0, 1.0, -6.75, -25.25)" width="13.55" xlink:href="#shape0"/>
  </g>
  <defs>
    <g id="shape0" transform="matrix(1.0, 0.0, 0.0, 1.0, 6.75, 25.25)">
      <path d="M2.4 -24.55 Q3.0 -24.05 2.6 -23.6 0.0 -22.45 -2.55 -23.6 -3.05 -24.2 -2.35 -24.55 -2.35 -24.4 -1.65 -24.25 L0.0 -24.1 1.7 -24.25 2.4 -24.55" fill="url(#gradient0)" fill-rule="evenodd" stroke="none"/>
      <path d="M-2.35 -24.55 Q-2.35 -24.7 -1.65 -24.85 L0.0 -25.0 1.7 -24.85 2.4 -24.55 1.7 -24.25 0.0 -24.1 -1.65 -24.25 Q-2.35 -24.4 -2.35 -24.55" fill="#4b2601" fill-rule="evenodd" stroke="none"/>
      <path d="M2.45 -21.6 Q3.75 -14.55 3.9 -6.55 L4.25 -5.7 Q6.1 -4.05 6.55 -0.5 L6.4 22.5 Q0.2 19.6 -6.35 22.55 L-6.35 22.5 -6.35 22.3 -6.5 -0.5 Q-6.05 -4.05 -4.15 -5.7 L-3.85 -6.55 Q-3.7 -14.55 -2.4 -21.55 0.05 -20.7 2.45 -21.6" fill="url(#gradient1)" fill-rule="evenodd" stroke="none"/>
      <path d="M2.6 -23.6 Q3.25 -21.95 2.7 -21.7 L2.45 -21.6 Q0.05 -20.7 -2.4 -21.55 L-2.55 -21.65 Q-3.15 -21.9 -2.55 -23.6 0.0 -22.45 2.6 -23.6" fill="url(#gradient2)" fill-rule="evenodd" stroke="none"/>
      <path d="M6.4 22.5 Q6.35 23.55 4.5 24.25 2.65 25.0 0.0 25.0 -2.65 25.0 -4.5 24.25 -6.35 23.55 -6.35 22.55 0.2 19.6 6.4 22.5" fill="#331a00" fill-rule="evenodd" stroke="none"/>
      <path d="M-2.35 -24.55 Q-2.35 -24.7 -1.65 -24.85 L0.0 -25.0 1.7 -24.85 2.4 -24.55 Q3.0 -24.05 2.6 -23.6 3.25 -21.95 2.7 -21.7 L2.45 -21.6 Q3.75 -14.55 3.9 -6.55 L4.25 -5.7 Q6.1 -4.05 6.55 -0.5 L6.4 22.5 Q6.35 23.55 4.5 24.25 2.65 25.0 0.0 25.0 -2.65 25.0 -4.5 24.25 -6.35 23.55 -6.35 22.55 L-6.35 22.5 -6.35 22.3 -6.5 -0.5 Q-6.05 -4.05 -4.15 -5.7 L-3.85 -6.55 Q-3.7 -14.55 -2.4 -21.55 L-2.55 -21.65 Q-3.15 -21.9 -2.55 -23.6 -3.05 -24.2 -2.35 -24.55 -2.35 -24.4 -1.65 -24.25 L0.0 -24.1 1.7 -24.25 2.4 -24.55 M-6.35 22.55 Q0.2 19.6 6.4 22.5 M-2.55 -23.6 Q0.0 -22.45 2.6 -23.6 M2.45 -21.6 Q0.05 -20.7 -2.4 -21.55" fill="none" stroke="#154f0f" stroke-linecap="round" stroke-linejoin="round" stroke-width="0.5"/>
      <path d="M-4.85 -0.6 L-4.85 -0.7 Q-4.85 -1.55 -4.25 -2.1 -3.7 -2.7 -2.85 -2.7 -2.0 -2.7 -1.4 -2.1 -0.85 -1.55 -0.8 -0.7 L-0.8 -0.6 -4.85 -0.6" fill="url(#gradient3)" fill-rule="evenodd" stroke="none"/>
      <path d="M-0.8 -0.6 L-0.9 1.35 -1.05 1.45 -4.6 1.45 -4.75 1.35 -4.75 1.45 -4.85 -0.6 -0.8 -0.6" fill="url(#gradient4)" fill-rule="evenodd" stroke="none"/>
      <path d="M-1.05 1.45 L-0.9 1.45 -0.9 1.5 -1.4 10.25 Q-2.0 16.45 -2.85 16.5 -3.7 16.45 -4.25 10.25 L-4.75 1.5 -4.75 1.45 -4.6 1.45 -1.05 1.45" fill="url(#gradient5)" fill-rule="evenodd" stroke="none"/>
    </g>
    <linearGradient gradientTransform="matrix(0.0034, 0.0, 0.0, 9.0E-4, 0.0, -23.8)" gradientUnits="userSpaceOnUse" id="gradient0" spreadMethod="pad" x1="-819.2" x2="819.2">
      <stop offset="0.0" stop-color="#3b5b06" stop-opacity="0.8627451"/>
      <stop offset="0.4980392156862745" stop-color="#71951b" stop-opacity="0.8627451"/>
      <stop offset="0.9568627450980393" stop-color="#3b5b06" stop-opacity="0.87058824"/>
    </linearGradient>
    <linearGradient gradientTransform="matrix(0.0091, 0.0133, -0.0234, 0.016, 0.1, 1.75)" gradientUnits="userSpaceOnUse" id="gradient1" spreadMethod="pad" x1="-819.2" x2="819.2">
      <stop offset="0.0" stop-color="#3b5b06" stop-opacity="0.8627451"/>
      <stop offset="0.4980392156862745" stop-color="#71951b" stop-opacity="0.8627451"/>
      <stop offset="0.9568627450980393" stop-color="#3b5b06" stop-opacity="0.87058824"/>
    </linearGradient>
    <linearGradient gradientTransform="matrix(0.0024, 0.0, 0.0, 0.0015, 0.45, -22.3)" gradientUnits="userSpaceOnUse" id="gradient2" spreadMethod="pad" x1="-819.2" x2="819.2">
      <stop offset="0.0" stop-color="#3b5b06" stop-opacity="0.8627451"/>
      <stop offset="0.4980392156862745" stop-color="#71951b" stop-opacity="0.8627451"/>
      <stop offset="0.9568627450980393" stop-color="#3b5b06" stop-opacity="0.87058824"/>
    </linearGradient>
    <radialGradient cx="0" cy="0" gradientTransform="matrix(0.0026, 0.0, 0.0, 0.0025, -2.85, -0.75)" gradientUnits="userSpaceOnUse" id="gradient3" r="819.2" spreadMethod="pad">
      <stop offset="0.23529411764705882" stop-color="#ffffff" stop-opacity="0.6901961"/>
      <stop offset="1.0" stop-color="#ffffff" stop-opacity="0.0"/>
    </radialGradient>
    <radialGradient cx="0" cy="0" gradientTransform="matrix(0.0026, 0.0, 0.0, 0.0115, -2.85, -1.3)" gradientUnits="userSpaceOnUse" id="gradient4" r="819.2" spreadMethod="pad">
      <stop offset="0.23529411764705882" stop-color="#ffffff" stop-opacity="0.6901961"/>
      <stop offset="1.0" stop-color="#ffffff" stop-opacity="0.0"/>
    </radialGradient>
    <radialGradient cx="0" cy="0" gradientTransform="matrix(0.0026, 0.0, 0.0, 0.0274, -2.85, -4.8)" gradientUnits="userSpaceOnUse" id="gradient5" r="819.2" spreadMethod="pad">
      <stop offset="0.23529411764705882" stop-color="#ffffff" stop-opacity="0.6901961"/>
      <stop offset="1.0" stop-color="#ffffff" stop-opacity="0.0"/>
    </radialGradient>
  </defs>
</svg>
