<?xml version="1.0" encoding="UTF-8" standalone="no"?>
<svg xmlns:xlink="http://www.w3.org/1999/xlink" height="24.85px" width="13.45px" xmlns="http://www.w3.org/2000/svg">
  <g transform="matrix(1.0, 0.0, 0.0, 1.0, 6.7, 12.4)">
    <use height="24.85" transform="matrix(1.0, 0.0, 0.0, 1.0, -6.7, -12.4)" width="13.45" xlink:href="#shape0"/>
  </g>
  <defs>
    <g id="shape0" transform="matrix(1.0, 0.0, 0.0, 1.0, 6.7, 12.4)">
      <path d="M-6.45 -8.0 L-6.45 -10.8 -6.25 -11.35 -5.8 -12.15 -5.0 -5.2 -3.1 -9.15 -0.9 -3.3 -0.75 -4.4 0.35 -6.15 1.0 -6.95 1.45 -5.65 1.7 -5.35 1.75 -5.35 2.1 -2.85 3.35 -4.55 3.55 -4.85 3.65 -4.9 4.6 -2.35 4.95 -2.05 5.55 0.0 6.5 -2.5 6.45 0.05 4.9 2.25 4.0 -0.9 3.75 -0.6 3.35 1.35 0.2 -2.7 -1.9 -1.3 -2.1 -1.9 -2.95 -3.0 -3.65 -4.8 -4.45 -3.9 -4.7 -3.1 -5.0 -4.8 -5.15 -4.9 -6.45 -8.0" fill="url(#gradient0)" fill-rule="evenodd" stroke="none"/>
      <path d="M6.45 0.05 L6.4 9.7 Q0.2 6.8 -6.35 9.75 L-6.35 9.7 -6.35 9.5 -6.45 -8.0 -5.15 -4.9 -5.0 -4.8 -4.7 -3.1 -4.45 -3.9 -3.65 -4.8 -2.95 -3.0 -2.1 -1.9 -1.9 -1.3 0.2 -2.7 3.35 1.35 3.75 -0.6 4.0 -0.9 4.9 2.25 6.45 0.05" fill="url(#gradient1)" fill-rule="evenodd" stroke="none"/>
      <path d="M6.4 9.7 Q6.35 10.75 4.5 11.45 2.65 12.2 0.0 12.2 -2.65 12.2 -4.5 11.45 -6.35 10.75 -6.35 9.75 0.2 6.8 6.4 9.7" fill="#7ccfd8" fill-opacity="0.75686276" fill-rule="evenodd" stroke="none"/>
      <path d="M-6.45 -8.0 L-6.45 -10.8 -6.25 -11.35 -5.8 -12.15 -5.0 -5.2 -3.1 -9.15 -0.9 -3.3 -0.75 -4.4 0.35 -6.15 1.0 -6.95 1.45 -5.65 1.7 -5.35 1.75 -5.35 2.1 -2.85 3.35 -4.55 3.55 -4.85 3.65 -4.9 4.6 -2.35 4.95 -2.05 5.55 0.0 6.5 -2.5 6.45 0.05 6.4 9.7 Q6.35 10.75 4.5 11.45 2.65 12.2 0.0 12.2 -2.65 12.2 -4.5 11.45 -6.35 10.75 -6.35 9.75 L-6.35 9.7 -6.35 9.5 -6.45 -8.0 -5.15 -4.9 M-5.0 -4.8 L-4.7 -3.1 -4.45 -3.9 -3.65 -4.8 -2.95 -3.0 -2.1 -1.9 -1.9 -1.3 0.2 -2.7 3.35 1.35 3.75 -0.6 4.0 -0.9 4.9 2.25 6.45 0.05 M-6.35 9.75 Q0.2 6.8 6.4 9.7" fill="none" stroke="#82a8b0" stroke-linecap="round" stroke-linejoin="round" stroke-width="0.5"/>
      <path d="M-3.65 -4.75 L-1.8 0.1 -1.95 1.85 Q-2.55 8.05 -3.4 8.1 -4.25 8.05 -4.8 1.85 L-5.1 -1.7 -3.65 -4.75" fill="url(#gradient2)" fill-rule="evenodd" stroke="none"/>
    </g>
    <linearGradient gradientTransform="matrix(0.0, 0.0, 0.0, 0.0, 0.0, 0.0)" gradientUnits="userSpaceOnUse" id="gradient0" spreadMethod="pad" x1="-819.2" x2="819.2">
      <stop offset="0.0" stop-color="#cdeff2" stop-opacity="0.49019608"/>
      <stop offset="0.5019607843137255" stop-color="#f8fdfe" stop-opacity="0.30980393"/>
      <stop offset="1.0" stop-color="#b5e7ec" stop-opacity="0.48235294"/>
    </linearGradient>
    <linearGradient gradientTransform="matrix(0.0061, -0.0051, 0.0171, 0.0207, -0.5, -14.15)" gradientUnits="userSpaceOnUse" id="gradient1" spreadMethod="pad" x1="-819.2" x2="819.2">
      <stop offset="0.0" stop-color="#cdeff2" stop-opacity="0.67058825"/>
      <stop offset="0.5019607843137255" stop-color="#f8fdfe" stop-opacity="0.47058824"/>
      <stop offset="1.0" stop-color="#b5e7ec" stop-opacity="0.67058825"/>
    </linearGradient>
    <radialGradient cx="0" cy="0" gradientTransform="matrix(0.0026, 0.0, 0.0, 0.0274, -3.4, -13.2)" gradientUnits="userSpaceOnUse" id="gradient2" r="819.2" spreadMethod="pad">
      <stop offset="0.23529411764705882" stop-color="#ffffff" stop-opacity="0.6901961"/>
      <stop offset="1.0" stop-color="#ffffff" stop-opacity="0.0"/>
    </radialGradient>
  </defs>
</svg>
