<?xml version="1.0" encoding="UTF-8" standalone="no"?>
<svg xmlns:xlink="http://www.w3.org/1999/xlink" height="64.95px" width="14.7px" xmlns="http://www.w3.org/2000/svg">
  <g transform="matrix(1.0, 0.0, 0.0, 1.0, 7.35, 32.45)">
    <use height="64.95" transform="matrix(1.0, 0.0, 0.0, 1.0, -7.35, -32.45)" width="14.7" xlink:href="#shape0"/>
  </g>
  <defs>
    <g id="shape0" transform="matrix(1.0, 0.0, 0.0, 1.0, 7.35, 32.45)">
      <path d="M2.9 -31.65 L2.9 -29.3 2.45 -29.15 -2.55 -29.0 -2.95 -29.3 -2.95 -31.65 Q-2.95 -31.45 -2.1 -31.3 L0.0 -31.05 2.05 -31.3 Q2.9 -31.45 2.9 -31.65" fill="url(#gradient0)" fill-rule="evenodd" stroke="none"/>
      <path d="M2.9 -31.65 Q2.9 -31.45 2.05 -31.3 L0.0 -31.05 -2.1 -31.3 Q-2.95 -31.45 -2.95 -31.65 -3.0 -31.85 -2.1 -32.1 L0.0 -32.2 2.05 -32.1 2.9 -31.65 M-2.55 -29.0 L2.45 -29.15 2.45 -24.05 -2.55 -29.0 M7.1 30.25 Q-0.95 34.3 -7.1 30.1 -4.6 29.6 -2.95 27.25 -1.65 25.3 -0.6 25.15 0.45 25.0 1.25 25.55 L3.2 27.55 Q4.35 28.9 7.1 30.25" fill="#4bc3d0" fill-opacity="0.67058825" fill-rule="evenodd" stroke="none"/>
      <path d="M2.45 -24.05 L2.5 -15.55 Q2.45 -13.75 4.75 -11.9 7.0 -10.1 7.0 -5.25 L7.1 30.25 Q4.35 28.9 3.2 27.55 L1.25 25.55 Q0.45 25.0 -0.6 25.15 -1.65 25.3 -2.95 27.25 -4.6 29.6 -7.1 30.1 L-7.1 -5.25 Q-7.1 -10.1 -4.8 -11.9 -2.55 -13.75 -2.55 -15.55 L-2.55 -29.0 2.45 -24.05" fill="url(#gradient1)" fill-rule="evenodd" stroke="none"/>
      <path d="M2.45 -29.15 L2.9 -29.3 2.9 -31.65 Q2.9 -31.45 2.05 -31.3 L0.0 -31.05 -2.1 -31.3 Q-2.95 -31.45 -2.95 -31.65 L-2.95 -29.3 -2.55 -29.0 2.45 -29.15 2.45 -24.05 2.5 -15.55 Q2.45 -13.75 4.75 -11.9 7.0 -10.1 7.0 -5.25 L7.1 30.25 Q-0.95 34.3 -7.1 30.1 L-7.1 -5.25 Q-7.1 -10.1 -4.8 -11.9 -2.55 -13.75 -2.55 -15.55 L-2.55 -29.0 M2.9 -31.65 L2.05 -32.1 0.0 -32.2 -2.1 -32.1 Q-3.0 -31.85 -2.95 -31.65" fill="none" stroke="#97b4c6" stroke-linecap="round" stroke-linejoin="round" stroke-width="0.5"/>
      <path d="M-5.05 -10.55 Q-4.1 -11.55 -2.75 -11.55 -1.4 -11.55 -0.45 -10.55 0.55 -9.6 0.55 -8.2 0.55 -6.85 -0.45 -5.9 -1.4 -4.9 -2.75 -4.9 -4.1 -4.9 -5.05 -5.9 -6.0 -6.85 -6.0 -8.2 -6.0 -9.6 -5.05 -10.55" fill="url(#gradient2)" fill-rule="evenodd" stroke="none"/>
    </g>
    <linearGradient gradientTransform="matrix(0.0036, 0.0, 0.0, 0.0019, 0.0, -30.1)" gradientUnits="userSpaceOnUse" id="gradient0" spreadMethod="pad" x1="-819.2" x2="819.2">
      <stop offset="0.0" stop-color="#cbebf8" stop-opacity="0.2901961"/>
      <stop offset="0.8470588235294118" stop-color="#b5e7ec" stop-opacity="0.67058825"/>
    </linearGradient>
    <radialGradient cx="0" cy="0" gradientTransform="matrix(0.041, 0.0, 0.0, 0.041, -0.7, -2.3)" gradientUnits="userSpaceOnUse" id="gradient1" r="819.2" spreadMethod="pad">
      <stop offset="0.0" stop-color="#cbebf8" stop-opacity="0.2901961"/>
      <stop offset="0.8470588235294118" stop-color="#b5e7ec" stop-opacity="0.67058825"/>
    </radialGradient>
    <radialGradient cx="0" cy="0" gradientTransform="matrix(0.0042, 0.0, 1.0E-4, 0.0043, -2.75, -8.2)" gradientUnits="userSpaceOnUse" id="gradient2" r="819.2" spreadMethod="pad">
      <stop offset="0.23529411764705882" stop-color="#ffffff" stop-opacity="0.6901961"/>
      <stop offset="1.0" stop-color="#ffffff" stop-opacity="0.0"/>
    </radialGradient>
  </defs>
</svg>
