<?xml version="1.0" encoding="UTF-8" standalone="no"?>
<svg xmlns:xlink="http://www.w3.org/1999/xlink" height="31.8px" width="14.7px" xmlns="http://www.w3.org/2000/svg">
  <g transform="matrix(1.0, 0.0, 0.0, 1.0, 7.3, 15.75)">
    <use height="31.8" transform="matrix(1.0, 0.0, 0.0, 1.0, -7.3, -15.75)" width="14.7" xlink:href="#shape0"/>
  </g>
  <defs>
    <g id="shape0" transform="matrix(1.0, 0.0, 0.0, 1.0, 7.3, 15.75)">
      <path d="M7.1 -12.6 L7.15 13.8 Q4.4 12.45 3.25 11.1 L1.3 9.15 Q0.5 8.55 -0.55 8.75 -1.6 8.85 -2.9 10.8 -4.6 13.15 -7.05 13.65 L-7.05 -9.1 -6.4 -8.0 -5.15 -2.05 Q-4.85 -2.05 -4.7 -2.95 L-3.5 -4.0 -2.1 -1.85 Q-1.65 -1.8 -1.65 -1.4 L0.3 -5.35 0.7 -3.25 1.15 -2.6 Q1.85 -2.85 1.9 -3.8 L2.75 -4.75 Q2.65 -5.5 3.15 -5.8 L4.05 -4.45 6.3 -8.2 7.1 -12.6" fill="url(#gradient0)" fill-rule="evenodd" stroke="none"/>
      <path d="M7.05 -12.9 L7.05 -15.75 7.1 -15.75 7.1 -12.6 6.3 -8.2 4.05 -4.45 3.15 -5.8 Q2.65 -5.5 2.75 -4.75 L1.9 -3.8 Q1.85 -2.85 1.15 -2.6 L0.7 -3.25 0.3 -5.35 -1.65 -1.4 Q-1.65 -1.8 -2.1 -1.85 L-3.5 -4.0 -4.7 -2.95 Q-4.85 -2.05 -5.15 -2.05 L-6.4 -8.0 -4.5 -4.9 -2.75 -9.55 -2.0 -5.55 0.5 -10.35 1.9 -5.5 3.0 -13.0 4.8 -8.05 7.05 -12.9" fill="url(#gradient1)" fill-rule="evenodd" stroke="none"/>
      <path d="M7.15 13.8 Q-0.9 17.85 -7.05 13.65 -4.6 13.15 -2.9 10.8 -1.6 8.85 -0.55 8.75 0.5 8.55 1.3 9.15 L3.25 11.1 Q4.4 12.45 7.15 13.8" fill="#4bc3d0" fill-opacity="0.67058825" fill-rule="evenodd" stroke="none"/>
      <path d="M7.1 -12.6 L7.15 13.8 Q-0.9 17.85 -7.05 13.65 L-7.05 -9.1 -6.4 -8.0 -4.5 -4.9 -2.75 -9.55 -2.0 -5.55 0.5 -10.35 1.9 -5.5 3.0 -13.0 4.8 -8.05 7.05 -12.9 M7.1 -12.6 L6.3 -8.2 4.05 -4.45 3.15 -5.8 Q2.65 -5.5 2.75 -4.75 L1.9 -3.8 Q1.85 -2.85 1.15 -2.6 L0.7 -3.25 0.3 -5.35 -1.65 -1.4 Q-1.65 -1.8 -2.1 -1.85 L-3.5 -4.0 -4.7 -2.95 Q-4.85 -2.05 -5.15 -2.05 L-6.4 -8.0" fill="none" stroke="#97b4c6" stroke-linecap="round" stroke-linejoin="round" stroke-width="0.5"/>
    </g>
    <radialGradient cx="0" cy="0" gradientTransform="matrix(0.041, 0.0, 0.0, 0.041, -0.65, -18.75)" gradientUnits="userSpaceOnUse" id="gradient0" r="819.2" spreadMethod="pad">
      <stop offset="0.0" stop-color="#cbebf8" stop-opacity="0.2901961"/>
      <stop offset="0.8470588235294118" stop-color="#b5e7ec" stop-opacity="0.67058825"/>
    </radialGradient>
    <radialGradient cx="0" cy="0" gradientTransform="matrix(0.041, 0.0, 0.0, 0.041, -0.65, -18.75)" gradientUnits="userSpaceOnUse" id="gradient1" r="819.2" spreadMethod="pad">
      <stop offset="0.0" stop-color="#cbebf8" stop-opacity="0.21176471"/>
      <stop offset="0.8470588235294118" stop-color="#b5e7ec" stop-opacity="0.4"/>
    </radialGradient>
  </defs>
</svg>
