<?xml version="1.0" encoding="UTF-8" standalone="no"?>
<svg xmlns:xlink="http://www.w3.org/1999/xlink" height="35.5px" width="13.55px" xmlns="http://www.w3.org/2000/svg">
  <g transform="matrix(1.0, 0.0, 0.0, 1.0, 6.75, 17.75)">
    <use height="35.5" transform="matrix(1.0, 0.0, 0.0, 1.0, -6.75, -17.75)" width="13.55" xlink:href="#shape0"/>
  </g>
  <defs>
    <g id="shape0" transform="matrix(1.0, 0.0, 0.0, 1.0, 6.75, 17.75)">
      <path d="M-2.55 -16.1 Q0.0 -14.95 2.6 -16.1 3.25 -14.45 2.7 -14.2 L2.45 -14.1 Q0.05 -13.2 -2.4 -14.05 L-2.55 -14.15 Q-3.15 -14.4 -2.55 -16.1" fill="url(#gradient0)" fill-rule="evenodd" stroke="none"/>
      <path d="M2.4 -17.05 L1.7 -16.75 0.0 -16.6 -1.65 -16.75 Q-2.35 -16.9 -2.35 -17.05 -2.35 -17.2 -1.65 -17.35 L0.0 -17.5 1.7 -17.35 2.4 -17.05" fill="#4b2601" fill-rule="evenodd" stroke="none"/>
      <path d="M-2.35 -17.05 Q-2.35 -16.9 -1.65 -16.75 L0.0 -16.6 1.7 -16.75 2.4 -17.05 Q3.0 -16.55 2.6 -16.1 0.0 -14.95 -2.55 -16.1 -3.05 -16.7 -2.35 -17.05" fill="url(#gradient1)" fill-rule="evenodd" stroke="none"/>
      <path d="M2.45 -14.1 Q3.75 -7.05 3.9 0.95 L4.25 1.8 Q6.1 3.45 6.55 7.0 L6.55 10.35 5.8 11.3 5.55 11.2 5.35 10.9 5.2 10.2 4.65 10.55 4.5 15.6 3.4 12.35 3.1 12.1 2.7 11.05 1.3 16.1 1.25 16.45 0.4 17.5 -1.25 14.4 -2.1 16.05 -2.1 16.45 -2.2 16.65 -2.4 16.85 -2.55 16.9 -4.5 14.5 -5.0 15.85 -6.45 13.45 -6.5 7.0 Q-6.05 3.45 -4.15 1.8 L-3.85 0.95 Q-3.7 -7.05 -2.4 -14.05 0.05 -13.2 2.45 -14.1" fill="url(#gradient2)" fill-rule="evenodd" stroke="none"/>
      <path d="M-2.35 -17.05 Q-3.05 -16.7 -2.55 -16.1 0.0 -14.95 2.6 -16.1 3.0 -16.55 2.4 -17.05 M2.6 -16.1 Q3.25 -14.45 2.7 -14.2 L2.45 -14.1 Q3.75 -7.05 3.9 0.95 L4.25 1.8 Q6.1 3.45 6.55 7.0 L6.55 10.35 5.8 11.3 5.55 11.2 5.35 10.9 5.2 10.2 4.65 10.55 4.5 15.6 3.4 12.35 3.1 12.1 2.7 11.05 1.3 16.1 1.25 16.45 0.4 17.5 -1.25 14.4 -2.1 16.05 -2.1 16.45 -2.2 16.65 -2.4 16.85 -2.55 16.9 -4.5 14.5 -5.0 15.85 -6.45 13.45 -6.5 7.0 Q-6.05 3.45 -4.15 1.8 L-3.85 0.95 Q-3.7 -7.05 -2.4 -14.05 L-2.55 -14.15 Q-3.15 -14.4 -2.55 -16.1 M2.45 -14.1 Q0.05 -13.2 -2.4 -14.05" fill="none" stroke="#3a1e01" stroke-linecap="round" stroke-linejoin="round" stroke-width="0.5"/>
      <path d="M2.4 -17.05 L1.7 -16.75 0.0 -16.6 -1.65 -16.75 Q-2.35 -16.9 -2.35 -17.05 M2.4 -17.05 L1.7 -17.35 0.0 -17.5 -1.65 -17.35 Q-2.35 -17.2 -2.35 -17.05 Z" fill="none" stroke="#000000" stroke-linecap="round" stroke-linejoin="round" stroke-width="0.5"/>
      <path d="M-6.45 13.45 L-6.5 7.1 Q-6.05 3.55 -4.15 1.9 L-3.85 1.05 Q-3.7 -6.95 -2.4 -13.95 L-2.55 -14.05 Q-3.15 -14.3 -2.55 -16.0 -3.05 -16.6 -2.35 -16.95 -2.35 -16.8 -1.65 -16.65 L0.0 -16.5 1.7 -16.65 2.4 -16.95 Q3.0 -16.45 2.6 -16.0 3.25 -14.35 2.7 -14.1 L2.45 -14.0 Q3.75 -6.95 3.9 1.05 L4.25 1.9 Q6.0 3.5 6.5 6.7 L5.7 8.15 5.0 6.2 3.8 7.9 1.85 6.0 1.3 12.8 -1.85 9.7 -2.95 13.9 -5.45 10.1 -6.45 13.45" fill="url(#gradient3)" fill-rule="evenodd" stroke="none"/>
      <path d="M-6.45 13.45 L-5.45 10.1 -2.95 13.9 -1.85 9.7 1.3 12.8 1.85 6.0 3.8 7.9 5.0 6.2 5.7 8.15 6.5 6.7" fill="none" stroke="#3a1e01" stroke-linecap="round" stroke-linejoin="round" stroke-width="0.5"/>
      <path d="M-4.85 6.6 L-4.85 6.5 Q-4.85 5.65 -4.25 5.1 -3.7 4.5 -2.85 4.5 -2.0 4.5 -1.4 5.1 -0.85 5.65 -0.8 6.5 L-0.8 6.6 -4.85 6.6" fill="url(#gradient4)" fill-rule="evenodd" stroke="none"/>
      <path d="M-4.85 6.6 L-0.8 6.6 -0.9 8.55 -1.05 8.65 -4.6 8.65 -4.75 8.55 -4.75 8.65 -4.85 6.6" fill="url(#gradient5)" fill-rule="evenodd" stroke="none"/>
      <path d="M-1.05 8.65 L-0.9 8.65 -0.9 8.7 -0.95 10.3 -1.85 9.4 -2.95 13.6 -4.7 10.95 -4.75 8.7 -4.75 8.65 -4.6 8.65 -1.05 8.65" fill="url(#gradient6)" fill-rule="evenodd" stroke="none"/>
    </g>
    <linearGradient gradientTransform="matrix(0.0024, 0.0, 0.0, 0.0015, 0.45, -14.8)" gradientUnits="userSpaceOnUse" id="gradient0" spreadMethod="pad" x1="-819.2" x2="819.2">
      <stop offset="0.0" stop-color="#663300" stop-opacity="0.92941177"/>
      <stop offset="0.4666666666666667" stop-color="#663300" stop-opacity="0.67058825"/>
      <stop offset="1.0" stop-color="#663300" stop-opacity="0.84313726"/>
    </linearGradient>
    <linearGradient gradientTransform="matrix(0.0034, 0.0, 0.0, 9.0E-4, 0.0, -16.3)" gradientUnits="userSpaceOnUse" id="gradient1" spreadMethod="pad" x1="-819.2" x2="819.2">
      <stop offset="0.0" stop-color="#663300" stop-opacity="0.92941177"/>
      <stop offset="0.4666666666666667" stop-color="#663300" stop-opacity="0.67058825"/>
      <stop offset="1.0" stop-color="#663300" stop-opacity="0.84313726"/>
    </linearGradient>
    <linearGradient gradientTransform="matrix(0.0091, 0.0133, -0.0234, 0.016, 0.1, 9.25)" gradientUnits="userSpaceOnUse" id="gradient2" spreadMethod="pad" x1="-819.2" x2="819.2">
      <stop offset="0.0" stop-color="#663300" stop-opacity="0.92941177"/>
      <stop offset="0.4666666666666667" stop-color="#6a3604" stop-opacity="0.67058825"/>
      <stop offset="1.0" stop-color="#663300" stop-opacity="0.84313726"/>
    </linearGradient>
    <linearGradient gradientTransform="matrix(0.0, -0.0302, 0.008, 0.0, 0.0, 7.85)" gradientUnits="userSpaceOnUse" id="gradient3" spreadMethod="pad" x1="-819.2" x2="819.2">
      <stop offset="0.0" stop-color="#110900" stop-opacity="0.83137256"/>
      <stop offset="0.35294117647058826" stop-color="#7d4002" stop-opacity="0.31764707"/>
      <stop offset="0.7490196078431373" stop-color="#753c02" stop-opacity="0.7490196"/>
      <stop offset="0.9882352941176471" stop-color="#331a00" stop-opacity="0.8235294"/>
    </linearGradient>
    <radialGradient cx="0" cy="0" gradientTransform="matrix(0.0026, 0.0, 0.0, 0.0025, -2.85, 6.45)" gradientUnits="userSpaceOnUse" id="gradient4" r="819.2" spreadMethod="pad">
      <stop offset="0.23529411764705882" stop-color="#ffffff" stop-opacity="0.6901961"/>
      <stop offset="1.0" stop-color="#ffffff" stop-opacity="0.0"/>
    </radialGradient>
    <radialGradient cx="0" cy="0" gradientTransform="matrix(0.0026, 0.0, 0.0, 0.0115, -2.85, 5.9)" gradientUnits="userSpaceOnUse" id="gradient5" r="819.2" spreadMethod="pad">
      <stop offset="0.23529411764705882" stop-color="#ffffff" stop-opacity="0.6901961"/>
      <stop offset="1.0" stop-color="#ffffff" stop-opacity="0.0"/>
    </radialGradient>
    <radialGradient cx="0" cy="0" gradientTransform="matrix(0.0026, 0.0, 0.0, 0.0274, -2.85, 2.4)" gradientUnits="userSpaceOnUse" id="gradient6" r="819.2" spreadMethod="pad">
      <stop offset="0.23529411764705882" stop-color="#ffffff" stop-opacity="0.6901961"/>
      <stop offset="1.0" stop-color="#ffffff" stop-opacity="0.0"/>
    </radialGradient>
  </defs>
</svg>
