<?xml version="1.0" encoding="UTF-8" standalone="no"?>
<svg xmlns:xlink="http://www.w3.org/1999/xlink" height="26.8px" width="13.5px" xmlns="http://www.w3.org/2000/svg">
  <g transform="matrix(1.0, 0.0, 0.0, 1.0, 6.75, 13.4)">
    <use height="26.8" transform="matrix(1.0, 0.0, 0.0, 1.0, -6.75, -13.4)" width="13.5" xlink:href="#shape0"/>
  </g>
  <defs>
    <g id="shape0" transform="matrix(1.0, 0.0, 0.0, 1.0, 6.75, 13.4)">
      <path d="M-6.4 10.6 L-6.4 10.55 -6.4 10.35 -6.5 -3.25 -5.55 -4.3 -4.55 -2.8 -3.45 -5.9 -2.5 -4.75 -1.05 -4.75 0.95 -2.2 0.95 -5.85 2.3 -7.5 4.5 -9.6 4.25 -11.5 4.85 -11.25 5.4 -11.55 5.95 -12.5 6.4 -13.15 6.5 -12.45 6.35 10.55 Q0.15 7.65 -6.4 10.6" fill="url(#gradient0)" fill-rule="evenodd" stroke="none"/>
      <path d="M6.35 10.55 Q6.3 11.6 4.45 12.3 2.6 13.05 -0.05 13.05 -2.7 13.05 -4.55 12.3 -6.4 11.6 -6.4 10.6 0.15 7.65 6.35 10.55" fill="#331a00" fill-rule="evenodd" stroke="none"/>
      <path d="M-6.4 10.6 L-6.4 10.55 -6.4 10.35 -6.5 -3.25 -5.55 -4.3 -4.55 -2.8 -3.45 -5.9 -2.5 -4.75 -1.05 -4.75 0.95 -2.2 0.95 -5.85 2.3 -7.5 4.5 -9.6 4.25 -11.5 4.85 -11.25 5.4 -11.55 5.95 -12.5 6.4 -13.15 6.5 -12.45 6.35 10.55 Q6.3 11.6 4.45 12.3 2.6 13.05 -0.05 13.05 -2.7 13.05 -4.55 12.3 -6.4 11.6 -6.4 10.6 0.15 7.65 6.35 10.55" fill="none" stroke="#3a1e01" stroke-linecap="round" stroke-linejoin="round" stroke-width="0.5"/>
      <path d="M6.5 -10.5 L6.35 10.65 Q6.3 11.7 4.45 12.4 2.6 13.15 -0.05 13.15 -2.7 13.15 -4.55 12.4 -6.4 11.7 -6.4 10.7 L-6.4 10.65 -6.4 10.45 -6.5 -3.25 -6.4 -3.35 Q-6.5 -2.05 -5.1 -1.15 L-4.5 1.0 Q-3.9 0.65 -2.4 -2.05 -2.5 -0.35 -1.45 0.9 -0.65 1.85 -0.1 1.85 0.25 1.85 0.55 0.6 L2.15 3.1 1.55 4.65 Q2.65 4.75 4.0 5.75 L3.75 -2.3 4.85 -4.9 5.7 -6.85 Q5.85 -9.7 6.5 -10.5" fill="url(#gradient1)" fill-rule="evenodd" stroke="none"/>
      <path d="M6.5 -10.5 L6.35 10.65 Q6.3 11.7 4.45 12.4 2.6 13.15 -0.05 13.15 -2.7 13.15 -4.55 12.4 -6.4 11.7 -6.4 10.7 L-6.4 10.65 -6.4 10.45 -6.5 -3.25 -6.4 -3.35 Q-6.5 -2.05 -5.1 -1.15 L-4.5 1.0 Q-3.9 0.65 -2.4 -2.05 -2.5 -0.35 -1.45 0.9 -0.65 1.85 -0.1 1.85 0.25 1.85 0.55 0.6 L2.15 3.1 1.55 4.65 Q2.65 4.75 4.0 5.75 L3.75 -2.3 4.85 -4.9 5.7 -6.85 Q5.85 -9.7 6.5 -10.5 Z" fill="none" stroke="#3a1e01" stroke-linecap="round" stroke-linejoin="round" stroke-width="0.5"/>
      <path d="M-5.25 -1.0 L-5.1 -0.9 -4.5 1.25 Q-3.9 0.9 -2.4 -1.8 -2.45 -0.65 -2.0 0.35 L-2.2 3.2 Q-2.8 9.4 -3.65 9.45 -4.5 9.4 -5.05 3.2 L-5.35 -0.3 -5.25 -1.0" fill="url(#gradient2)" fill-rule="evenodd" stroke="none"/>
    </g>
    <linearGradient gradientTransform="matrix(0.0091, 0.0133, -0.0234, 0.016, 0.05, -10.2)" gradientUnits="userSpaceOnUse" id="gradient0" spreadMethod="pad" x1="-819.2" x2="819.2">
      <stop offset="0.0" stop-color="#663300" stop-opacity="0.92941177"/>
      <stop offset="0.4666666666666667" stop-color="#6a3604" stop-opacity="0.67058825"/>
      <stop offset="1.0" stop-color="#663300" stop-opacity="0.84313726"/>
    </linearGradient>
    <linearGradient gradientTransform="matrix(0.0, -0.0302, 0.008, 0.0, -0.05, -11.6)" gradientUnits="userSpaceOnUse" id="gradient1" spreadMethod="pad" x1="-819.2" x2="819.2">
      <stop offset="0.0" stop-color="#110900" stop-opacity="0.83137256"/>
      <stop offset="0.35294117647058826" stop-color="#7d4002" stop-opacity="0.31764707"/>
      <stop offset="0.7490196078431373" stop-color="#753c02" stop-opacity="0.7490196"/>
      <stop offset="0.9882352941176471" stop-color="#331a00" stop-opacity="0.8235294"/>
    </linearGradient>
    <radialGradient cx="0" cy="0" gradientTransform="matrix(0.0026, 0.0, 0.0, 0.0274, -3.65, -11.85)" gradientUnits="userSpaceOnUse" id="gradient2" r="819.2" spreadMethod="pad">
      <stop offset="0.23529411764705882" stop-color="#ffffff" stop-opacity="0.6901961"/>
      <stop offset="1.0" stop-color="#ffffff" stop-opacity="0.0"/>
    </radialGradient>
  </defs>
</svg>
