<?xml version="1.0" encoding="UTF-8" standalone="no"?>
<svg xmlns:xlink="http://www.w3.org/1999/xlink" height="21.8px" width="45.35px" xmlns="http://www.w3.org/2000/svg">
  <g transform="matrix(1.0, 0.0, 0.0, 1.0, 22.65, 10.9)">
    <use height="21.8" transform="matrix(1.0, 0.0, 0.0, 1.0, -22.65, -10.9)" width="45.35" xlink:href="#shape0"/>
  </g>
  <defs>
    <g id="shape0" transform="matrix(1.0, 0.0, 0.0, 1.0, 22.65, 10.9)">
      <path d="M-19.5 -0.1 Q-19.5 -1.3 -15.75 -1.8 L-13.7 -2.55 -13.7 -2.45 15.45 -2.45 15.45 1.45 15.25 1.55 13.65 2.3 12.3 2.9 11.75 3.1 11.15 3.35 10.35 3.7 10.1 3.85 10.05 3.85 9.1 4.3 8.15 4.8 7.2 5.35 7.15 5.4 7.1 5.4 7.0 5.5 6.8 5.65 6.45 5.9 6.1 6.15 5.5 6.65 4.75 7.3 3.5 7.6 1.75 7.4 0.95 7.1 0.9 7.05 -0.65 6.3 -1.4 6.0 Q-1.7 5.85 -1.95 5.75 L-2.35 5.65 -3.0 5.45 -3.75 5.25 -4.2 5.15 -4.5 5.05 -5.7 4.8 -6.95 4.6 -7.3 4.55 -7.45 4.5 -9.3 4.2 -10.05 4.0 -11.1 3.75 -11.45 3.65 -13.05 3.0 -13.5 2.8 -13.85 2.65 -15.4 2.0 -15.85 1.8 -16.1 1.7 -16.35 1.6 -16.75 1.45 -16.85 1.4 -17.6 1.15 -18.1 0.95 -18.25 0.95 -18.35 0.9 -18.55 0.85 -18.65 0.8 -19.5 -0.1" fill="url(#gradient0)" fill-rule="evenodd" stroke="none"/>
      <path d="M2.8 10.65 L0.95 10.2 0.8 10.1 0.95 7.6 0.9 7.05 0.95 7.1 1.75 7.4 1.9 7.7 2.8 10.65 M-1.15 9.15 L-1.25 9.15 -1.3 9.1 -2.55 8.65 -2.3 6.9 Q-2.2 6.2 -2.35 5.65 L-1.95 5.75 Q-1.7 5.85 -1.4 6.0 -1.1 7.55 -1.15 9.15 M-5.2 7.95 L-5.55 7.9 -7.25 7.6 -7.0 5.1 -6.95 4.6 -5.7 4.8 -4.5 5.05 -4.2 5.15 Q-4.65 6.0 -4.6 7.1 L-4.6 7.2 Q-5.1 7.45 -5.2 7.95 M-9.15 7.25 L-9.7 7.15 -11.65 6.65 -11.45 4.25 -11.45 3.65 -11.1 3.75 -10.05 4.0 -9.3 4.2 -9.35 5.1 -9.15 7.25 M-13.65 5.8 L-14.45 5.45 -15.55 5.0 -16.05 4.8 -16.45 4.6 -16.15 2.3 -16.1 1.7 -15.85 1.8 -15.4 2.0 -13.85 2.65 -13.5 2.8 Q-13.85 3.45 -13.75 4.3 L-13.65 5.8 M-18.5 3.9 L-18.65 3.85 -18.85 3.7 -19.45 3.15 -19.5 2.95 -19.5 -0.1 -18.65 0.8 -18.55 0.85 -18.35 0.9 -18.25 0.95 -18.55 2.5 -18.5 3.9" fill="#bd7c3c" fill-rule="evenodd" stroke="none"/>
      <path d="M15.25 1.55 L15.35 4.6 13.9 5.3 12.8 5.75 12.0 6.05 12.3 3.65 12.3 2.9 13.65 2.3 15.25 1.55 M9.95 6.95 L8.45 7.7 8.05 7.9 8.35 5.0 8.4 4.65 8.15 4.8 9.1 4.3 10.05 3.85 10.1 3.85 9.95 6.95 M0.8 10.1 L-1.15 9.15 Q-1.1 7.55 -1.4 6.0 L-0.65 6.3 0.9 7.05 0.95 7.6 0.8 10.1 M-2.55 8.65 L-2.95 8.5 -3.05 8.5 -3.1 8.5 -4.55 8.1 -4.75 8.05 -5.2 7.95 Q-5.1 7.45 -4.6 7.2 L-4.6 7.1 Q-4.65 6.0 -4.2 5.15 L-3.75 5.25 -3.0 5.45 -2.35 5.65 Q-2.2 6.2 -2.3 6.9 L-2.55 8.65 M-7.25 7.6 L-7.6 7.5 -8.35 7.4 -9.15 7.25 -9.35 5.1 -9.3 4.2 -7.45 4.5 -7.3 4.55 -6.95 4.6 -7.0 5.1 -7.25 7.6 M-11.65 6.65 L-13.05 6.05 -13.25 5.95 -13.65 5.8 -13.75 4.3 Q-13.85 3.45 -13.5 2.8 L-13.05 3.0 -11.45 3.65 -11.45 4.25 -11.65 6.65 M-16.45 4.6 L-16.65 4.55 -16.7 4.5 -17.4 4.3 -17.8 4.15 -18.05 4.05 -18.2 4.0 -18.5 3.9 -18.55 2.5 -18.25 0.95 -18.1 0.95 -17.6 1.15 -16.85 1.4 -16.75 1.45 -16.35 1.6 -16.1 1.7 -16.15 2.3 -16.45 4.6" fill="#a26933" fill-rule="evenodd" stroke="none"/>
      <path d="M12.0 6.05 L11.8 6.15 11.75 6.15 Q10.8 6.55 10.05 6.9 L9.95 6.95 10.1 3.85 10.35 3.7 11.15 3.35 11.75 3.1 12.3 2.9 12.3 3.65 12.0 6.05" fill="#815529" fill-rule="evenodd" stroke="none"/>
      <path d="M3.85 10.65 L3.5 10.65 2.8 10.65 1.9 7.7 1.75 7.4 3.5 7.6 4.75 7.3 3.85 10.65" fill="#c88c51" fill-rule="evenodd" stroke="none"/>
      <path d="M-19.5 -0.1 Q-19.5 -1.3 -15.75 -1.8 L-13.7 -2.55 -13.7 -2.45 15.45 -2.45 15.45 1.45" fill="none" stroke="#e4cd9a" stroke-linecap="round" stroke-linejoin="round" stroke-width="0.5"/>
      <path d="M15.45 1.45 L15.25 1.55 15.35 4.6 13.9 5.3 12.8 5.75 12.0 6.05 M11.8 6.15 L11.75 6.15 Q10.8 6.55 10.05 6.9 L9.95 6.95 8.45 7.7 8.05 7.9 7.0 8.55 6.1 9.2 5.5 9.7 Q4.9 10.55 3.85 10.65 L3.5 10.65 2.8 10.65 0.95 10.2 0.8 10.1 -1.15 9.15 -1.25 9.15 -1.3 9.1 -2.55 8.65 -2.95 8.5 M-3.05 8.5 L-3.1 8.5 -4.55 8.1 -4.75 8.05 -5.2 7.95 -5.55 7.9 -7.25 7.6 -7.6 7.5 -8.35 7.4 -9.15 7.25 -9.7 7.15 -11.65 6.65 -13.05 6.05 -13.25 5.95 -13.65 5.8 -14.45 5.45 -15.55 5.0 -16.05 4.8 -16.45 4.6 -16.65 4.55 -16.7 4.5 -17.4 4.3 -17.8 4.15 -18.05 4.05 -18.2 4.0 -18.5 3.9 -18.65 3.85 -18.85 3.7 -19.45 3.15 -19.5 2.95 -19.5 -0.1 -18.65 0.8 -18.55 0.85 -18.35 0.9 -18.25 0.95 -18.1 0.95 -17.6 1.15 -16.85 1.4 -16.75 1.45 -16.35 1.6 -16.1 1.7 -15.85 1.8 -15.4 2.0 -13.85 2.65 -13.5 2.8 -13.05 3.0 -11.45 3.65 -11.1 3.75 -10.05 4.0 -9.3 4.2 -7.45 4.5 -7.3 4.55 -6.95 4.6 -5.7 4.8 -4.5 5.05 -4.2 5.15 -3.75 5.25 -3.0 5.45 -2.35 5.65 -1.95 5.75 Q-1.7 5.85 -1.4 6.0 L-0.65 6.3 0.9 7.05 0.95 7.1 1.75 7.4 3.5 7.6 4.75 7.3 5.5 6.65 6.1 6.15 6.45 5.9 6.8 5.65 7.0 5.5 7.1 5.4 7.15 5.4 7.2 5.35 8.15 4.8 9.1 4.3 10.05 3.85 10.1 3.85 10.35 3.7 11.15 3.35 11.75 3.1 12.3 2.9 13.65 2.3 15.25 1.55" fill="none" stroke="#8b5430" stroke-linecap="round" stroke-linejoin="round" stroke-width="0.5"/>
      <path d="M16.25 -3.7 Q16.25 -2.85 16.6 -2.05 17.75 0.6 20.35 0.75 18.85 2.35 15.45 3.65 9.45 6.0 0.95 6.0 -7.55 6.0 -13.55 3.65 -19.6 1.35 -19.55 -1.9 -19.6 -5.2 -13.55 -7.55 L-12.2 -8.0 16.25 -3.7" fill="#e9ad9e" fill-rule="evenodd" stroke="none"/>
      <path d="M22.7 0.35 L22.5 0.4 22.4 0.3 22.7 0.35 M1.5 -6.55 L14.55 -2.35 14.55 -1.95 Q14.45 -1.1 15.0 -0.5 L16.4 0.8 16.4 1.15 Q16.4 1.7 16.8 1.95 L17.15 2.15 1.5 7.2 -19.8 0.3 1.5 -6.55" fill="#f1c45a" fill-rule="evenodd" stroke="none"/>
      <path d="M-16.75 -0.4 L-16.75 -0.5 Q-16.7 -1.75 -13.65 -2.65 -10.55 -3.55 -6.15 -3.55 -1.75 -3.55 1.3 -2.65 4.4 -1.75 4.4 -0.45 L4.4 -0.35 4.05 0.4 Q3.3 1.1 1.3 1.7 -1.75 2.6 -6.15 2.6 -10.55 2.6 -13.65 1.7 -15.65 1.1 -16.3 0.4 L-16.75 -0.4 M-4.65 1.65 Q-2.35 2.7 -0.05 1.05 L-0.2 0.8 -0.65 0.5 -1.2 0.7 -2.95 0.35 -3.3 0.1 -4.6 -0.05 -4.9 0.2 -4.65 1.65 M-6.65 -0.35 L-7.85 -0.4 Q-10.75 -0.15 -11.9 0.8 L-9.95 1.85 -6.55 1.45 -7.35 1.05 -6.9 0.8 -6.55 0.5 Q-5.95 -0.05 -6.65 -0.35 M-9.3 -2.85 L-8.15 -1.9 -6.3 -0.9 -5.85 -1.05 -5.5 -1.25 -5.35 -1.4 -5.15 -2.1 -3.45 -2.2 -3.05 -2.85 -6.5 -3.05 -9.3 -2.85 M-13.2 -1.9 L-13.65 -1.7 -14.05 -1.4 -14.3 -1.05 -14.5 -0.5 -8.25 -0.65 -9.25 -1.35 -10.05 -1.9 -13.2 -1.9 M1.9 0.15 Q3.0 -0.15 3.3 -1.25 L-4.2 -1.6 -4.55 -1.35 Q-4.85 -1.0 -4.3 -0.85 L-0.4 0.1 1.9 0.15" fill="#db6060" fill-rule="evenodd" stroke="none"/>
      <path d="M-16.75 -0.4 L-16.3 0.4 Q-15.65 1.1 -13.65 1.7 -10.55 2.6 -6.15 2.6 -1.75 2.6 1.3 1.7 3.3 1.1 4.05 0.4 L4.4 -0.35 4.35 1.0 4.4 1.15 4.4 1.25 Q4.4 2.5 1.3 3.4 -1.75 4.35 -6.15 4.35 -10.55 4.35 -13.65 3.4 -16.75 2.5 -16.75 1.25 L-16.7 1.05 -16.75 -0.4 M1.9 0.15 L-0.4 0.1 -4.3 -0.85 Q-4.85 -1.0 -4.55 -1.35 L-4.2 -1.6 3.3 -1.25 Q3.0 -0.15 1.9 0.15 M-13.2 -1.9 L-10.05 -1.9 -9.25 -1.35 -8.25 -0.65 -14.5 -0.5 -14.3 -1.05 -14.05 -1.4 -13.65 -1.7 -13.2 -1.9 M-9.3 -2.85 L-6.5 -3.05 -3.05 -2.85 -3.45 -2.2 -5.15 -2.1 -5.35 -1.4 -5.5 -1.25 -5.85 -1.05 -6.3 -0.9 -8.15 -1.9 -9.3 -2.85 M-6.65 -0.35 Q-5.95 -0.05 -6.55 0.5 L-6.9 0.8 -7.35 1.05 -6.55 1.45 -9.95 1.85 -11.9 0.8 Q-10.75 -0.15 -7.85 -0.4 L-6.65 -0.35 M-4.65 1.65 L-4.9 0.2 -4.6 -0.05 -3.3 0.1 -2.95 0.35 -1.2 0.7 -0.65 0.5 -0.2 0.8 -0.05 1.05 Q-2.35 2.7 -4.65 1.65" fill="#cc0000" fill-rule="evenodd" stroke="none"/>
      <path d="M7.95 -0.1 L8.3 -0.35 Q8.9 -0.95 8.2 -1.25 L7.0 -1.3 Q4.1 -1.05 3.0 -0.1 L4.9 0.95 8.3 0.6 7.5 0.2 7.95 -0.1 M9.55 -2.3 L9.7 -3.0 11.4 -3.05 11.8 -3.7 8.35 -3.95 5.55 -3.75 6.7 -2.8 Q7.6 -2.15 8.55 -1.8 L9.05 -1.9 9.35 -2.1 9.55 -2.3 M0.55 -1.95 L0.35 -1.4 6.6 -1.5 5.6 -2.25 4.8 -2.75 1.65 -2.8 1.2 -2.55 0.85 -2.3 0.55 -1.95 M-1.85 -1.25 L-1.85 -1.4 Q-1.85 -2.65 1.2 -3.55 4.3 -4.45 8.7 -4.45 L15.55 -3.7 15.55 -2.25 10.65 -2.5 10.3 -2.25 Q10.05 -1.9 10.6 -1.75 L14.45 -0.8 15.55 -0.65 15.55 1.0 8.7 1.75 Q4.3 1.7 1.2 0.8 -0.8 0.2 -1.5 -0.5 -1.85 -0.9 -1.85 -1.25 M11.9 -0.55 L11.55 -0.75 10.25 -0.95 10.0 -0.65 10.2 0.75 Q12.5 1.8 14.8 0.15 L14.65 -0.1 14.2 -0.35 13.65 -0.2 11.9 -0.55" fill="#db6060" fill-rule="evenodd" stroke="none"/>
      <path d="M0.55 -1.95 L0.85 -2.3 1.2 -2.55 1.65 -2.8 4.8 -2.75 5.6 -2.25 6.6 -1.5 0.35 -1.4 0.55 -1.95 M9.55 -2.3 L9.35 -2.1 9.05 -1.9 8.55 -1.8 Q7.6 -2.15 6.7 -2.8 L5.55 -3.75 8.35 -3.95 11.8 -3.7 11.4 -3.05 9.7 -3.0 9.55 -2.3 M7.95 -0.1 L7.5 0.2 8.3 0.6 4.9 0.95 3.0 -0.1 Q4.1 -1.05 7.0 -1.3 L8.2 -1.25 Q8.9 -0.95 8.3 -0.35 L7.95 -0.1 M-1.85 -1.25 Q-1.85 -0.9 -1.5 -0.5 -0.8 0.2 1.2 0.8 4.3 1.7 8.7 1.75 L15.55 1.0 15.55 2.7 8.7 3.45 Q4.3 3.4 1.2 2.5 -1.9 1.6 -1.85 0.35 L-1.85 0.15 -1.85 -1.25 M15.55 -0.65 L14.45 -0.8 10.6 -1.75 Q10.05 -1.9 10.3 -2.25 L10.65 -2.5 15.55 -2.25 15.55 -0.65 M11.9 -0.55 L13.65 -0.2 14.2 -0.35 14.65 -0.1 14.8 0.15 Q12.5 1.8 10.2 0.75 L10.0 -0.65 10.25 -0.95 11.55 -0.75 11.9 -0.55" fill="#cc0000" fill-rule="evenodd" stroke="none"/>
      <path d="M17.35 -2.05 L17.35 -2.1 17.45 -2.05 17.35 -2.05 M8.85 -0.2 L8.85 -0.1 8.85 0.65 8.9 1.45 8.9 1.9 8.5 2.6 Q8.1 2.85 7.85 3.25 L7.2 4.15 6.95 4.35 6.95 4.45 6.95 4.95 6.85 5.5 Q6.55 6.1 5.4 5.9 L4.3 5.65 3.9 5.6 3.75 5.8 Q3.05 6.4 2.0 6.6 0.0 6.85 -1.2 5.95 L-1.75 5.2 -1.85 4.45 -1.95 4.45 -2.5 4.7 -5.15 4.45 -5.4 3.95 Q-5.4 3.2 -5.55 2.5 -5.7 2.0 -6.15 1.6 L-6.25 1.75 -7.2 2.2 -8.15 2.15 -8.2 2.2 -8.55 2.5 -9.75 2.5 -11.0 2.0 -11.35 2.05 -12.5 2.15 -12.6 2.15 -13.2 1.8 -13.2 1.75 -13.65 1.25 -14.2 0.8 -16.3 0.65 -17.0 0.25 -17.15 0.2 -17.8 -0.2 -18.05 -0.45 -18.4 -0.55 Q-18.7 -0.7 -18.6 -0.95 L-18.55 -1.0 -20.8 -1.6 -20.85 -1.65 -22.45 -2.55 Q-22.95 -3.1 -22.2 -3.15 L-17.7 -3.45 -16.6 -3.75 -16.5 -3.75 Q-15.9 -5.15 -14.15 -5.45 L-14.15 -4.65 14.55 -4.65 Q14.65 -3.05 15.5 -3.0 16.5 -2.95 17.2 -1.7 17.85 -0.55 19.0 0.0 L17.8 0.8 Q16.75 1.3 15.85 1.85 L15.25 1.85 13.35 1.15 12.2 0.7 Q11.0 0.25 10.4 -0.5 L10.3 -0.45 9.9 -0.45 9.45 -0.35 8.85 -0.2" fill="#006633" fill-rule="evenodd" stroke="none"/>
      <path d="M-19.5 -6.9 Q-19.5 -8.1 -15.75 -8.6 -15.25 -8.7 -10.45 -10.65 L-10.0 -9.65 Q-9.65 -8.65 -8.7 -8.3 -7.85 -8.0 -5.25 -8.65 L-4.9 -7.4 -3.8 -6.9 Q0.1 -5.7 3.5 -8.05 4.45 -5.3 6.75 -5.15 L11.0 -5.45 15.0 -6.15 Q14.25 -6.55 16.25 -5.75 L16.25 -5.7 13.65 -4.5 11.75 -3.7 11.15 -3.45 10.05 -2.95 9.1 -2.55 Q7.65 -1.85 7.0 -1.35 L6.8 -1.2 5.5 -0.2 4.75 0.5 3.5 0.8 1.75 0.6 0.95 0.3 -0.65 -0.5 -1.95 -1.05 -3.75 -1.55 -4.5 -1.75 -5.7 -2.0 -7.3 -2.25 -7.45 -2.3 -10.05 -2.8 -11.1 -3.05 -13.05 -3.8 -13.85 -4.15 -15.4 -4.85 -16.85 -5.4 -18.1 -5.85 -18.55 -5.95 -18.65 -6.0 -19.5 -6.9" fill="url(#gradient1)" fill-rule="evenodd" stroke="none"/>
      <path d="M10.05 0.1 L8.45 0.9 Q8.55 -1.3 8.75 -1.85 L9.1 -2.55 10.05 -2.95 10.05 0.1 M-9.7 0.35 Q-12.0 -0.15 -13.05 -0.75 L-13.25 -0.85 -12.15 -1.6 Q-11.45 -2.3 -11.1 -3.05 L-10.05 -2.8 -9.95 -1.8 -9.7 0.35" fill="#ae7337" fill-rule="evenodd" stroke="none"/>
      <path d="M16.25 -5.7 L16.1 -5.1 Q15.7 -4.45 15.8 -3.55 L15.5 -2.3 13.9 -1.5 13.65 -4.5 16.25 -5.7 M12.8 -1.05 L11.75 -0.65 10.05 0.1 10.05 -2.95 11.15 -3.45 Q11.25 -2.9 12.8 -1.05 M8.05 1.05 L7.0 1.75 5.5 2.9 Q4.9 3.75 3.85 3.85 L4.75 0.5 5.5 -0.2 6.8 -1.2 7.5 -0.45 Q7.95 0.05 8.05 1.05 M-1.25 2.3 L-1.3 2.3 Q-2.15 1.95 -3.1 1.7 L-3.15 1.55 -3.75 -1.55 -1.95 -1.05 -0.65 -0.5 -0.7 -0.45 -1.25 2.25 -1.25 2.3 M-4.55 1.3 L-5.55 1.1 -5.8 -0.95 -5.7 -2.0 -4.5 -1.75 -4.55 1.3 M-8.35 0.6 L-9.7 0.35 -9.95 -1.8 -10.05 -2.8 -7.45 -2.3 -7.3 -2.25 -7.65 -1.6 -8.35 0.6 M-14.45 -1.35 L-16.7 -2.3 -15.4 -4.85 -13.85 -4.15 Q-13.95 -2.75 -14.45 -1.35 M-17.8 -2.65 L-18.65 -2.95 -18.85 -3.1 -18.55 -5.95 -18.1 -5.85 Q-17.85 -4.9 -17.8 -2.65" fill="#a26933" fill-rule="evenodd" stroke="none"/>
      <path d="M13.9 -1.5 L12.8 -1.05 Q11.25 -2.9 11.15 -3.45 L11.75 -3.7 13.65 -4.5 13.9 -1.5 M8.45 0.9 L8.05 1.05 Q7.95 0.05 7.5 -0.45 L6.8 -1.2 7.0 -1.35 Q7.65 -1.85 9.1 -2.55 L8.75 -1.85 Q8.55 -1.3 8.45 0.9" fill="#815529" fill-rule="evenodd" stroke="none"/>
      <path d="M3.85 3.85 L3.5 3.85 2.8 3.85 1.9 0.9 1.75 0.6 3.5 0.8 4.75 0.5 3.85 3.85" fill="#c88c51" fill-rule="evenodd" stroke="none"/>
      <path d="M2.8 3.85 L0.95 3.35 -1.25 2.3 -1.25 2.25 -0.7 -0.45 -0.65 -0.5 0.95 0.3 1.75 0.6 1.9 0.9 2.8 3.85 M-3.1 1.7 L-4.55 1.3 -4.5 -1.75 -3.75 -1.55 -3.15 1.55 -3.1 1.7 M-5.55 1.1 L-7.6 0.7 -8.35 0.6 -7.65 -1.6 -7.3 -2.25 -5.7 -2.0 -5.8 -0.95 -5.55 1.1 M-13.25 -0.85 L-14.45 -1.35 Q-13.95 -2.75 -13.85 -4.15 L-13.05 -3.8 -11.1 -3.05 Q-11.45 -2.3 -12.15 -1.6 L-13.25 -0.85 M-16.7 -2.3 L-17.8 -2.65 Q-17.85 -4.9 -18.1 -5.85 L-16.85 -5.4 -15.4 -4.85 -16.7 -2.3 M-18.85 -3.1 L-19.45 -3.7 -19.5 -3.85 -19.5 -6.9 -18.65 -6.0 -18.55 -5.95 -18.85 -3.1" fill="#bd7c3c" fill-rule="evenodd" stroke="none"/>
      <path d="M16.25 -5.75 L16.25 -5.7 16.1 -5.1 Q15.7 -4.45 15.8 -3.55 L15.5 -2.3 13.9 -1.5 12.8 -1.05 11.75 -0.65 10.05 0.1 8.45 0.9 8.05 1.05 7.0 1.75 5.5 2.9 Q4.9 3.75 3.85 3.85 L3.5 3.85 2.8 3.85 0.95 3.35 -1.25 2.3 -1.3 2.3 Q-2.15 1.95 -3.1 1.7 L-4.55 1.3 -5.55 1.1 -7.6 0.7 -8.35 0.6 -9.7 0.35 Q-12.0 -0.15 -13.05 -0.75 L-13.25 -0.85 -14.45 -1.35 -16.7 -2.3 -17.8 -2.65 -18.65 -2.95 -18.85 -3.1 -19.45 -3.7 -19.5 -3.85 -19.5 -6.9 -18.65 -6.0 -18.55 -5.95 -18.1 -5.85 -16.85 -5.4 -15.4 -4.85 -13.85 -4.15 -13.05 -3.8 -11.1 -3.05 -10.05 -2.8 -7.45 -2.3 -7.3 -2.25 -5.7 -2.0 -4.5 -1.75 -3.75 -1.55 -1.95 -1.05 -0.65 -0.5 0.95 0.3 1.75 0.6 3.5 0.8 4.75 0.5 5.5 -0.2 6.8 -1.2 7.0 -1.35 Q7.65 -1.85 9.1 -2.55 L10.05 -2.95 11.15 -3.45 11.75 -3.7 13.65 -4.5 16.25 -5.7" fill="none" stroke="#8b5430" stroke-linecap="round" stroke-linejoin="round" stroke-width="0.5"/>
      <path d="M-19.5 -6.9 Q-19.5 -8.1 -15.75 -8.6 -15.25 -8.7 -10.45 -10.65 L-10.0 -9.65 Q-9.65 -8.65 -8.7 -8.3 -7.85 -8.0 -5.25 -8.65 L-4.9 -7.4 -3.8 -6.9 Q0.1 -5.7 3.5 -8.05 4.45 -5.3 6.75 -5.15 L11.0 -5.45 15.0 -6.15 Q14.25 -6.55 16.25 -5.75 Z" fill="none" stroke="#e4cd9a" stroke-linecap="round" stroke-linejoin="round" stroke-width="0.5"/>
    </g>
    <radialGradient cx="0" cy="0" gradientTransform="matrix(0.0282, 0.0, 0.0, 0.0203, -1.7, -2.25)" gradientUnits="userSpaceOnUse" id="gradient0" r="819.2" spreadMethod="pad">
      <stop offset="0.0" stop-color="#eddeb5"/>
      <stop offset="0.023529411764705882" stop-color="#ebd8ad"/>
      <stop offset="1.0" stop-color="#fbede1"/>
    </radialGradient>
    <radialGradient cx="0" cy="0" gradientTransform="matrix(0.0282, 0.0, 0.0, 0.0203, -1.7, -9.05)" gradientUnits="userSpaceOnUse" id="gradient1" r="819.2" spreadMethod="pad">
      <stop offset="0.0" stop-color="#eddeb5"/>
      <stop offset="0.023529411764705882" stop-color="#ebd8ad"/>
      <stop offset="1.0" stop-color="#fbede1"/>
    </radialGradient>
  </defs>
</svg>
