<?xml version="1.0" encoding="UTF-8" standalone="no"?>
<svg xmlns:xlink="http://www.w3.org/1999/xlink" height="23.4px" width="22.05px" xmlns="http://www.w3.org/2000/svg">
  <g transform="matrix(1.0, 0.0, 0.0, 1.0, 11.1, 11.65)">
    <use height="23.4" transform="matrix(1.0, 0.0, 0.0, 1.0, -11.1, -11.65)" width="22.05" xlink:href="#shape0"/>
  </g>
  <defs>
    <g id="shape0" transform="matrix(1.0, 0.0, 0.0, 1.0, 11.1, 11.65)">
      <path d="M7.6 -4.65 Q5.25 -4.75 3.25 -3.75 0.7 -3.9 -0.35 -2.5 L-0.45 -2.3 -0.5 -2.1 -0.65 -1.75 -1.0 -0.9 -1.25 0.85 Q-1.15 1.95 -0.2 2.7 L-0.05 2.8 Q0.75 3.45 0.55 3.75 -0.1 4.55 -0.1 5.65 -0.1 7.35 0.45 7.75 L2.05 8.95 Q3.15 9.7 4.8 10.3 L8.8 8.55 Q7.95 9.5 6.9 10.25 4.55 11.8 3.5 11.35 1.1 10.3 -1.65 11.25 -4.45 12.15 -7.2 8.55 -9.95 4.95 -10.7 -0.6 -11.45 -6.15 -8.25 -8.8 -5.05 -11.5 -2.15 -10.65 L0.85 -9.8 Q6.05 -11.45 9.2 -8.5 L10.6 -6.8 Q8.75 -6.3 7.6 -4.65" fill="url(#gradient0)" fill-rule="evenodd" stroke="none"/>
      <path d="M-0.45 -2.3 L-0.35 -2.5 Q0.7 -3.9 3.25 -3.75 5.25 -4.75 7.6 -4.65 5.75 -3.85 4.95 -2.5 L4.5 -0.6 4.3 0.6 1.55 0.4 1.35 0.15 -0.45 -2.25 -0.45 -2.3" fill="#beaf30" fill-rule="evenodd" stroke="none"/>
      <path d="M-0.45 -2.25 L1.35 0.15 -0.05 2.8 -0.2 2.7 Q-1.15 1.95 -1.25 0.85 L-1.0 -0.9 -0.65 -1.75 -0.5 -2.1 -0.45 -2.25 M4.3 0.6 L4.5 -0.6 4.95 -2.5 Q5.75 -3.85 7.6 -4.65 8.75 -6.3 10.6 -6.8 11.0 -6.8 10.75 -6.6 8.8 -5.3 6.8 -2.7 L6.45 -0.1 4.3 0.6" fill="#e1d884" fill-rule="evenodd" stroke="none"/>
      <path d="M-0.45 -2.3 L-0.45 -2.25 -0.5 -2.1 -0.45 -2.3 M1.35 0.15 L1.55 0.4 4.3 0.6 6.45 -0.1 4.95 2.4 5.35 3.8 Q3.2 5.4 2.6 5.4 L0.55 3.75 Q0.75 3.45 -0.05 2.8 L1.35 0.15 M3.65 2.4 L3.55 2.4 3.5 2.45 3.45 2.45 3.4 2.55 3.35 2.7 3.35 2.85 3.35 3.0 3.4 3.1 3.4 3.15 3.45 3.2 3.5 3.25 3.65 3.3 3.75 3.3 3.85 3.2 3.95 3.05 3.95 2.9 3.95 2.7 3.95 2.6 3.9 2.55 3.85 2.5 3.8 2.45 3.65 2.4" fill="#e7de98" fill-rule="evenodd" stroke="none"/>
      <path d="M4.8 10.3 Q3.15 9.7 2.05 8.95 L0.45 7.75 Q-0.1 7.35 -0.1 5.65 -0.1 4.55 0.55 3.75 L2.6 5.4 Q3.2 5.4 5.35 3.8 L5.65 4.8 2.8 5.95 Q1.85 8.05 4.8 10.3" fill="#efe9ba" fill-rule="evenodd" stroke="none"/>
      <path d="M3.65 2.4 L3.8 2.45 3.85 2.5 3.9 2.55 3.95 2.6 3.95 2.7 3.95 2.9 3.95 3.05 3.85 3.2 3.75 3.3 3.65 3.3 3.5 3.25 3.45 3.2 3.4 3.15 3.4 3.1 3.35 3.0 3.35 2.85 3.35 2.7 3.4 2.55 3.45 2.45 3.5 2.45 3.55 2.4 3.65 2.4" fill="#663300" fill-rule="evenodd" stroke="none"/>
      <path d="M8.8 8.55 L4.8 10.3 Q1.85 8.05 2.8 5.95 L5.65 4.8 Q5.35 7.2 6.05 7.8 6.8 8.35 8.8 8.55" fill="#f5eed6" fill-rule="evenodd" stroke="none"/>
      <path d="M7.6 -4.65 Q5.25 -4.75 3.25 -3.75 0.7 -3.9 -0.35 -2.5 L-0.45 -2.3 M7.6 -4.65 Q8.75 -6.3 10.6 -6.8 L9.2 -8.5 Q6.05 -11.45 0.85 -9.8 L-2.15 -10.65 Q-5.05 -11.5 -8.25 -8.8 -11.45 -6.15 -10.7 -0.6 -9.95 4.95 -7.2 8.55 -4.45 12.15 -1.65 11.25 1.1 10.3 3.5 11.35 4.55 11.8 6.9 10.25 7.95 9.5 8.8 8.55 L4.8 10.3 Q3.15 9.7 2.05 8.95 L0.45 7.75 Q-0.1 7.35 -0.1 5.65 -0.1 4.55 0.55 3.75 0.75 3.45 -0.05 2.8 L-0.2 2.7 Q-1.15 1.95 -1.25 0.85 L-1.0 -0.9 -0.65 -1.75 -0.5 -2.1 -0.45 -2.3" fill="none" stroke="#990000" stroke-linecap="round" stroke-linejoin="miter" stroke-width="0.5"/>
      <path d="M10.6 -6.8 Q11.0 -6.8 10.75 -6.6 8.8 -5.3 6.8 -2.7 L6.45 -0.1 4.95 2.4 5.35 3.8 5.65 4.8 Q5.35 7.2 6.05 7.8 6.8 8.35 8.8 8.55" fill="none" stroke="#cfce98" stroke-linecap="round" stroke-linejoin="miter" stroke-width="0.25"/>
      <path d="M1.55 -5.5 L-0.3 -5.5 Q-2.85 -6.75 -5.4 -6.75 -5.05 -7.75 -3.7 -8.55 -1.9 -9.65 0.7 -9.65 3.3 -9.65 5.15 -8.55 6.3 -7.85 6.7 -7.0 4.1 -7.05 1.55 -5.5" fill="url(#gradient1)" fill-rule="evenodd" stroke="none"/>
      <path d="M2.6 -11.4 Q1.35 -9.55 0.7 -6.85 L0.4 -5.95 0.55 -6.85 Q1.0 -10.05 2.0 -11.4 L2.6 -11.4" fill="#663300" fill-rule="evenodd" stroke="none"/>
      <path d="M2.6 -11.4 Q1.35 -9.55 0.7 -6.85 L0.4 -5.95 0.55 -6.85 Q1.0 -10.05 2.0 -11.4 L2.6 -11.4 Z" fill="none" stroke="#331a00" stroke-linecap="round" stroke-linejoin="miter" stroke-miterlimit="3.0" stroke-width="0.5"/>
    </g>
    <radialGradient cx="0" cy="0" gradientTransform="matrix(0.0206, 0.0, 0.0, 0.0206, -1.7, -3.95)" gradientUnits="userSpaceOnUse" id="gradient0" r="819.2" spreadMethod="pad">
      <stop offset="0.0" stop-color="#cc0000"/>
      <stop offset="1.0" stop-color="#990000"/>
    </radialGradient>
    <radialGradient cx="0" cy="0" gradientTransform="matrix(0.0083, 0.0, 0.0, 0.005, 1.25, -5.95)" gradientUnits="userSpaceOnUse" id="gradient1" r="819.2" spreadMethod="pad">
      <stop offset="0.0" stop-color="#650101"/>
      <stop offset="1.0" stop-color="#b10101"/>
    </radialGradient>
  </defs>
</svg>
