<?xml version="1.0" encoding="UTF-8" standalone="no"?>
<svg xmlns:xlink="http://www.w3.org/1999/xlink" height="34.2px" width="47.55px" xmlns="http://www.w3.org/2000/svg">
  <g transform="matrix(1.0, 0.0, 0.0, 1.0, 23.75, 17.1)">
    <use height="34.2" transform="matrix(1.0, 0.0, 0.0, 1.0, -23.75, -17.1)" width="47.55" xlink:href="#shape0"/>
  </g>
  <defs>
    <g id="shape0" transform="matrix(1.0, 0.0, 0.0, 1.0, 23.75, 17.1)">
      <path d="M-22.85 5.7 Q-23.6 5.25 -23.6 4.35 -22.4 -1.05 -14.45 -7.65 -5.9 -14.8 0.9 -16.9 1.65 -17.1 2.0 -16.4 L4.8 -11.15 5.25 -10.3 5.35 -10.2 7.15 -8.75 9.75 -6.15 13.2 -1.25 19.5 9.0 Q20.0 10.2 21.65 12.65 23.3 15.05 23.65 16.3 L18.55 15.8 13.25 14.55 6.05 12.95 Q-0.25 11.6 -6.3 9.3 -12.35 7.0 -14.15 6.8 L-16.4 6.35 -16.55 6.3 -16.6 6.25 -18.95 4.55 Q-20.0 3.9 -21.65 3.9 -23.25 3.9 -23.1 4.95 L-22.85 5.7" fill="url(#gradient0)" fill-rule="evenodd" stroke="none"/>
      <path d="M23.65 16.3 L23.5 16.6 Q22.5 17.5 17.4 16.15 12.3 14.75 9.1 14.2 L2.75 12.85 -3.5 11.25 -8.85 9.9 -13.25 8.3 -18.1 6.85 -21.35 6.4 Q-22.45 6.25 -22.85 5.7 L-23.1 4.95 Q-23.25 3.9 -21.65 3.9 -20.0 3.9 -18.95 4.55 L-16.6 6.25 -16.55 6.3 -16.4 6.35 -14.15 6.8 Q-12.35 7.0 -6.3 9.3 -0.25 11.6 6.05 12.95 L13.25 14.55 18.55 15.8 23.65 16.3" fill="#9d6b33" fill-rule="evenodd" stroke="none"/>
      <path d="M-22.85 5.7 Q-23.6 5.25 -23.6 4.35 -22.4 -1.05 -14.45 -7.65 -5.9 -14.8 0.9 -16.9 1.65 -17.1 2.0 -16.4 L4.8 -11.15 5.25 -10.3 5.35 -10.2 7.15 -8.75 9.75 -6.15 13.2 -1.25 19.5 9.0 Q20.0 10.2 21.65 12.65 23.3 15.05 23.65 16.3" fill="none" stroke="#9d6b33" stroke-linecap="round" stroke-linejoin="round" stroke-width="0.35000000000000003"/>
      <path d="M23.65 16.3 L23.5 16.6 Q22.5 17.5 17.4 16.15 12.3 14.75 9.1 14.2 L2.75 12.85 -3.5 11.25 -8.85 9.9 -13.25 8.3 -18.1 6.85 -21.35 6.4 Q-22.45 6.25 -22.85 5.7 L-23.1 4.95 Q-23.25 3.9 -21.65 3.9 -20.0 3.9 -18.95 4.55 L-16.6 6.25 -16.55 6.3 -16.4 6.35 -14.15 6.8 Q-12.35 7.0 -6.3 9.3 -0.25 11.6 6.05 12.95 L13.25 14.55 18.55 15.8 23.65 16.3" fill="none" stroke="#80552b" stroke-linecap="round" stroke-linejoin="round" stroke-width="0.35000000000000003"/>
      <path d="M2.85 -10.65 Q3.75 -10.65 3.75 -10.0 L0.35 -7.35 -0.3 -8.0 0.8 -9.4 Q2.0 -10.65 2.85 -10.65 M1.2 -1.65 Q1.1 0.7 0.3 1.6 -2.5 3.9 -3.3 4.95 L-4.85 6.85 -4.85 7.2 Q-4.85 8.75 -6.45 8.75 -7.35 8.75 -7.75 8.0 L-8.0 7.15 Q-8.0 6.05 -7.25 5.7 L-3.6 -0.05 1.1 -6.15 Q1.95 -6.15 1.75 -5.0 L1.2 -1.65 M7.35 -1.6 L7.05 -0.9 7.1 -0.9 7.35 -1.6 M7.45 -3.6 Q7.45 -4.75 8.2 -4.75 9.3 -4.75 10.15 -2.8 10.15 -1.15 7.7 3.5 L5.9 7.6 Q4.95 9.6 3.6 9.6 2.6 9.6 2.6 8.8 L3.4 5.65 4.45 2.45 5.8 -1.3 Q6.7 -3.55 7.45 -3.6 M13.7 8.15 Q13.5 12.6 11.0 12.6 10.3 12.6 10.05 12.25 L9.9 11.85 11.1 9.35 Q12.0 7.0 12.75 7.0 13.85 7.0 13.7 8.15 M17.6 13.0 Q18.05 13.15 18.05 12.45 18.05 11.55 18.7 11.55 19.45 11.55 19.6 12.4 19.6 14.1 17.6 14.1 L16.35 13.8 16.25 13.45 Q16.25 13.0 16.6 12.9 L17.6 13.0 M-0.15 -0.05 L-0.2 0.1 -0.2 0.15 -0.1 -0.1 -0.15 -0.05 M-6.15 -2.4 Q-6.8 -2.4 -6.8 -3.1 L-6.15 -4.45 Q-5.35 -5.65 -4.5 -5.65 -3.85 -5.65 -3.9 -4.95 L-6.15 -2.4 M-8.5 -0.65 Q-8.5 0.55 -9.5 0.55 -10.15 0.55 -10.15 -0.15 -10.15 -1.3 -9.15 -1.3 -8.5 -1.3 -8.5 -0.65" fill="#fedf9a" fill-rule="evenodd" stroke="none"/>
      <path d="M3.75 -0.35 Q1.15 0.0 -0.8 -0.9 -2.75 -1.8 -3.0 -3.4 -3.2 -4.95 -1.55 -6.35 0.1 -7.75 2.7 -8.1 5.25 -8.4 7.2 -7.5 9.15 -6.6 9.35 -5.05 9.6 -3.45 7.95 -2.05 6.3 -0.65 3.75 -0.35" fill="url(#gradient1)" fill-rule="evenodd" stroke="none"/>
      <path d="M6.55 11.8 Q5.35 12.95 3.3 12.55 1.35 12.15 -0.3 10.45 -1.9 8.75 -2.3 6.7 -2.6 4.7 -1.4 3.55 -0.2 2.4 1.75 2.8 3.8 3.25 5.4 4.95 7.05 6.65 7.35 8.65 7.75 10.65 6.55 11.8" fill="url(#gradient2)" fill-rule="evenodd" stroke="none"/>
      <path d="M9.2 8.95 Q9.5 7.6 11.05 6.95 L14.55 6.75 Q16.45 7.2 17.65 8.4 18.8 9.65 18.5 11.0 18.25 12.3 16.7 12.95 L13.15 13.15 Q11.25 12.75 10.1 11.5 8.95 10.25 9.2 8.95" fill="url(#gradient3)" fill-rule="evenodd" stroke="none"/>
      <path d="M-6.45 -8.35 L-6.3 -8.5 -5.25 -10.05 -3.5 -10.25 Q-2.85 -10.25 -0.5 -12.9 L2.05 -13.05 3.75 -13.1 3.95 -12.7 2.35 -12.2 -0.15 -11.85 -1.45 -11.1 -2.75 -10.4 -3.55 -9.5 Q-5.6 -8.85 -6.35 -8.4 L-6.45 -8.35 M-17.65 5.45 L-18.2 5.15 -18.25 4.6 -18.15 4.05 Q-17.95 3.75 -16.95 3.25 -16.4 2.5 -16.7 1.55 L-16.2 0.85 -14.25 -0.45 Q-14.25 -2.9 -13.5 -3.0 -11.2 -3.35 -10.9 -4.45 -10.6 -5.45 -9.95 -5.4 L-9.6 -5.15 -7.7 -7.0 Q-8.1 -5.95 -8.45 -5.4 -9.1 -5.3 -9.75 -4.15 -10.45 -3.0 -11.75 -2.75 L-12.5 -2.45 Q-13.3 -1.5 -13.5 -0.3 -13.3 0.45 -14.5 1.05 -15.45 1.4 -15.8 2.4 -15.95 3.55 -16.4 3.95 L-17.65 5.45" fill="#922307" fill-opacity="0.69803923" fill-rule="evenodd" stroke="none"/>
      <path d="M-6.45 -8.35 L-6.35 -8.4 Q-5.6 -8.85 -3.55 -9.5 L-2.75 -10.4 -1.45 -11.1 -0.15 -11.85 2.35 -12.2 3.95 -12.7 4.2 -12.25 3.65 -12.25 2.35 -12.2 1.55 -11.95 Q0.65 -11.35 -0.45 -11.0 -0.95 -11.0 -1.3 -10.45 L-2.65 -8.9 -4.75 -8.45 -5.8 -7.2 -8.25 -3.75 -9.7 -3.0 -11.6 -1.55 -12.05 -1.2 Q-12.45 -0.8 -12.3 -0.2 -12.55 1.15 -13.35 1.3 -15.1 1.45 -15.75 3.4 L-16.45 4.75 -16.05 6.55 Q-17.0 6.3 -17.65 5.45 L-16.4 3.95 Q-15.95 3.55 -15.8 2.4 -15.45 1.4 -14.5 1.05 -13.3 0.45 -13.5 -0.3 -13.3 -1.5 -12.5 -2.45 L-11.75 -2.75 Q-10.45 -3.0 -9.75 -4.15 -9.1 -5.3 -8.45 -5.4 -8.1 -5.95 -7.7 -7.0 L-7.65 -7.05 -6.45 -8.35 M3.85 -12.25 Q4.2 -12.25 4.2 -11.85 4.2 -11.45 3.85 -11.45 3.4 -11.45 3.4 -11.85 3.4 -12.25 3.85 -12.25 M-4.05 -7.65 Q-4.05 -7.25 -4.4 -7.25 -4.85 -7.25 -4.85 -7.65 -4.85 -8.05 -4.4 -8.05 -4.05 -8.05 -4.05 -7.65 M-9.25 -5.75 Q-9.7 -5.75 -9.7 -6.15 -9.7 -6.55 -9.25 -6.55 -8.9 -6.55 -8.9 -6.15 -8.9 -5.75 -9.25 -5.75 M-14.35 2.65 Q-14.8 2.65 -14.8 2.25 -14.8 1.85 -14.35 1.85 -14.0 1.85 -14.0 2.25 -14.0 2.65 -14.35 2.65" fill="#970202" fill-opacity="0.8235294" fill-rule="evenodd" stroke="none"/>
      <path d="M-9.75 6.6 L-12.2 6.3 Q-13.2 5.8 -13.35 4.95 -13.45 4.1 -12.55 3.35 -11.7 2.65 -10.3 2.45 -8.9 2.25 -7.85 2.75 -6.8 3.2 -6.7 4.05 -6.55 4.9 -7.5 5.7 -8.35 6.4 -9.75 6.6" fill="url(#gradient4)" fill-rule="evenodd" stroke="none"/>
      <path d="M14.3 5.7 Q13.65 6.3 12.55 6.05 11.45 5.85 10.6 4.9 9.7 4.0 9.5 2.9 9.35 1.8 10.0 1.2 10.65 0.55 11.7 0.85 12.8 1.05 13.7 1.95 14.55 2.9 14.75 4.0 14.95 5.05 14.3 5.7" fill="url(#gradient5)" fill-rule="evenodd" stroke="none"/>
      <path d="M17.3 13.25 Q17.5 12.55 18.35 12.2 L20.25 12.1 Q21.25 12.3 21.9 13.0 22.55 13.65 22.35 14.35 22.2 15.1 21.35 15.45 L19.5 15.55 Q18.45 15.3 17.8 14.65 17.15 14.0 17.3 13.25" fill="url(#gradient6)" fill-rule="evenodd" stroke="none"/>
    </g>
    <radialGradient cx="0" cy="0" gradientTransform="matrix(0.044, 0.0, 0.0, 0.044, 9.1, 14.6)" gradientUnits="userSpaceOnUse" id="gradient0" r="819.2" spreadMethod="pad">
      <stop offset="0.0" stop-color="#d59b42"/>
      <stop offset="0.2784313725490196" stop-color="#f6c864"/>
      <stop offset="0.47058823529411764" stop-color="#f7da99"/>
      <stop offset="0.6980392156862745" stop-color="#ffd46d"/>
      <stop offset="1.0" stop-color="#9d4f07"/>
    </radialGradient>
    <radialGradient cx="0" cy="0" gradientTransform="matrix(0.0077, -0.001, 6.0E-4, 0.0049, 3.2, -4.25)" gradientUnits="userSpaceOnUse" id="gradient1" r="819.2" spreadMethod="pad">
      <stop offset="0.0" stop-color="#9d4f07" stop-opacity="0.8509804"/>
      <stop offset="1.0" stop-color="#ffd46d" stop-opacity="0.0"/>
    </radialGradient>
    <radialGradient cx="0" cy="0" gradientTransform="matrix(0.0036, -0.0034, 0.005, 0.0052, 2.55, 7.7)" gradientUnits="userSpaceOnUse" id="gradient2" r="819.2" spreadMethod="pad">
      <stop offset="0.0" stop-color="#9d4f07" stop-opacity="0.8509804"/>
      <stop offset="1.0" stop-color="#ffd46d" stop-opacity="0.0"/>
    </radialGradient>
    <radialGradient cx="0" cy="0" gradientTransform="matrix(9.0E-4, -0.004, -0.0059, -0.0013, 13.85, 9.95)" gradientUnits="userSpaceOnUse" id="gradient3" r="819.2" spreadMethod="pad">
      <stop offset="0.0" stop-color="#9d4f07" stop-opacity="0.8509804"/>
      <stop offset="1.0" stop-color="#ffd46d" stop-opacity="0.0"/>
    </radialGradient>
    <radialGradient cx="0" cy="0" gradientTransform="matrix(0.0042, -5.0E-4, 4.0E-4, 0.0027, -10.05, 4.5)" gradientUnits="userSpaceOnUse" id="gradient4" r="819.2" spreadMethod="pad">
      <stop offset="0.0" stop-color="#9d4f07" stop-opacity="0.8509804"/>
      <stop offset="1.0" stop-color="#ffd46d" stop-opacity="0.0"/>
    </radialGradient>
    <radialGradient cx="0" cy="0" gradientTransform="matrix(0.0019, -0.0018, 0.0027, 0.0028, 12.15, 3.45)" gradientUnits="userSpaceOnUse" id="gradient5" r="819.2" spreadMethod="pad">
      <stop offset="0.0" stop-color="#9d4f07" stop-opacity="0.8509804"/>
      <stop offset="1.0" stop-color="#ffd46d" stop-opacity="0.0"/>
    </radialGradient>
    <radialGradient cx="0" cy="0" gradientTransform="matrix(5.0E-4, -0.0022, -0.0032, -7.0E-4, 19.85, 13.8)" gradientUnits="userSpaceOnUse" id="gradient6" r="819.2" spreadMethod="pad">
      <stop offset="0.0" stop-color="#9d4f07" stop-opacity="0.8509804"/>
      <stop offset="1.0" stop-color="#ffd46d" stop-opacity="0.0"/>
    </radialGradient>
  </defs>
</svg>
