<?xml version="1.0" encoding="UTF-8" standalone="no"?>
<svg xmlns:xlink="http://www.w3.org/1999/xlink" height="25.3px" width="46.55px" xmlns="http://www.w3.org/2000/svg">
  <g transform="matrix(1.0, 0.0, 0.0, 1.0, 23.25, 12.65)">
    <use height="25.3" transform="matrix(1.0, 0.0, 0.0, 1.0, -23.25, -12.65)" width="46.55" xlink:href="#shape0"/>
  </g>
  <defs>
    <g id="shape0" transform="matrix(1.0, 0.0, 0.0, 1.0, 23.25, 12.65)">
      <path d="M20.6 -0.35 L20.6 0.1 20.45 -0.1 20.6 -0.35 M5.4 8.0 L5.5 7.9 5.5 8.1 5.5 10.9 5.5 10.95 4.9 11.45 Q4.3 12.3 3.25 12.4 L4.15 9.05 4.9 8.4 5.4 8.0 5.5 8.1 5.4 8.0 M0.2 11.85 Q-0.85 11.25 -1.75 10.9 -1.7 9.3 -2.0 7.75 L-1.25 8.05 Q-0.4 8.4 0.3 8.8 L0.35 9.35 0.2 11.85 M-3.15 10.4 L-3.55 10.25 -3.65 10.25 -3.7 10.25 -5.15 9.85 -5.35 9.8 -5.8 9.7 Q-5.7 9.2 -5.2 8.95 L-5.2 8.85 Q-5.25 7.75 -4.8 6.9 L-4.35 7.0 -3.6 7.2 -2.95 7.4 Q-2.8 7.95 -2.9 8.65 L-3.15 10.4 M-7.85 9.35 L-8.2 9.25 -8.95 9.15 -9.75 9.0 -9.95 6.85 -9.9 5.95 -8.05 6.25 -7.9 6.3 -7.55 6.35 -7.6 6.85 -7.85 9.35 M-12.25 8.4 L-13.65 7.8 -13.85 7.7 -14.25 7.55 -14.35 6.05 Q-14.45 5.2 -14.1 4.55 L-13.65 4.75 -12.05 5.4 -12.05 6.0 -12.25 8.4 M-17.05 6.35 L-17.25 6.3 -17.3 6.25 -18.0 6.05 -18.4 5.9 -18.65 5.8 -18.8 5.75 -19.1 5.65 -19.15 4.25 -18.85 2.7 -18.7 2.7 -18.2 2.9 -17.45 3.15 -17.35 3.2 -16.95 3.35 -16.7 3.45 -16.75 4.05 -17.05 6.35 M14.5 3.4 L14.65 3.3 14.5 7.35 14.5 3.4" fill="#a26933" fill-rule="evenodd" stroke="none"/>
      <path d="M-20.1 1.65 Q-20.1 0.45 -16.35 -0.05 L-11.05 -2.05 -2.95 -5.8 Q-0.7 -6.75 1.2 -5.8 3.1 -4.9 11.15 -3.65 L16.95 -2.25 Q19.3 -1.7 20.1 -1.15 L20.45 -0.85 20.6 -0.35 20.45 -0.1 20.1 0.15 19.0 0.65 18.9 0.7 18.85 0.75 18.2 1.15 17.0 2.0 16.85 2.1 15.65 2.8 14.65 3.3 14.5 3.4 14.2 3.5 11.8 3.0 10.9 2.8 10.85 2.8 10.8 2.8 9.65 2.45 8.05 2.3 7.9 2.3 7.25 2.3 6.8 2.3 5.5 2.6 5.35 2.7 4.75 3.05 4.35 3.45 4.15 3.8 4.05 4.0 Q3.85 4.4 3.8 4.85 L3.8 4.95 3.8 5.1 3.85 5.75 4.05 6.25 4.2 6.55 4.3 6.75 4.7 7.25 4.95 7.55 5.4 8.0 4.9 8.4 4.15 9.05 2.9 9.35 1.15 9.15 0.35 8.85 0.3 8.8 Q-0.4 8.4 -1.25 8.05 L-2.0 7.75 -2.55 7.5 -2.95 7.4 -3.6 7.2 -4.35 7.0 -4.8 6.9 -5.1 6.8 -6.3 6.55 -7.55 6.35 -7.9 6.3 -8.05 6.25 -9.9 5.95 -10.65 5.75 -11.7 5.5 -12.05 5.4 -13.65 4.75 -14.1 4.55 -14.45 4.4 -16.0 3.75 -16.45 3.55 -16.7 3.45 -16.95 3.35 -17.35 3.2 -17.45 3.15 -18.2 2.9 -18.7 2.7 -18.85 2.7 -18.95 2.65 -19.15 2.6 -19.25 2.55 -20.1 1.65" fill="url(#gradient0)" fill-rule="evenodd" stroke="none"/>
      <path d="M2.2 12.4 L0.35 11.95 0.2 11.85 0.35 9.35 0.3 8.8 0.35 8.85 1.15 9.15 1.3 9.45 2.2 12.4 M-1.75 10.9 L-1.85 10.9 -1.9 10.85 -3.15 10.4 -2.9 8.65 Q-2.8 7.95 -2.95 7.4 L-2.55 7.5 -2.0 7.75 Q-1.7 9.3 -1.75 10.9 M-5.8 9.7 L-6.15 9.65 -7.85 9.35 -7.6 6.85 -7.55 6.35 -6.3 6.55 -5.1 6.8 -4.8 6.9 Q-5.25 7.75 -5.2 8.85 L-5.2 8.95 Q-5.7 9.2 -5.8 9.7 M-9.75 9.0 L-10.3 8.9 -12.25 8.4 -12.05 6.0 -12.05 5.4 -11.7 5.5 -10.65 5.75 -9.9 5.95 -9.95 6.85 -9.75 9.0 M-14.25 7.55 L-15.05 7.2 -16.15 6.75 -16.65 6.55 -17.05 6.35 -16.75 4.05 -16.7 3.45 -16.45 3.55 -16.0 3.75 -14.45 4.4 -14.1 4.55 Q-14.45 5.2 -14.35 6.05 L-14.25 7.55 M-19.1 5.65 L-19.25 5.6 -19.45 5.45 -20.05 4.9 -20.1 4.7 -20.1 1.65 -19.25 2.55 -19.15 2.6 -18.95 2.65 -18.85 2.7 -19.15 4.25 -19.1 5.65" fill="#8d5c2e" fill-rule="evenodd" stroke="none"/>
      <path d="M-17.35 3.2 L-16.95 3.35 -17.35 3.2" fill="#bd7c3c" fill-rule="evenodd" stroke="none"/>
      <path d="M20.6 0.1 L20.6 2.55 20.6 2.7 20.1 3.2 19.4 3.55 18.9 0.7 19.0 0.65 20.1 0.15 20.45 -0.1 20.6 0.1 M17.2 4.9 L17.0 5.05 14.6 7.4 14.5 7.35 14.65 3.3 15.65 2.8 16.85 2.1 17.2 4.9" fill="#815529" fill-rule="evenodd" stroke="none"/>
      <path d="M19.4 3.55 L19.0 3.7 Q18.9 3.75 18.75 3.9 18.25 4.15 17.2 4.9 L16.85 2.1 17.0 2.0 18.2 1.15 18.85 0.75 18.9 0.7 19.4 3.55" fill="#6c4824" fill-rule="evenodd" stroke="none"/>
      <path d="M14.5 7.35 L8.65 5.85 4.4 6.05 4.05 6.25 3.85 5.75 3.8 5.1 3.8 4.95 3.8 4.85 Q3.85 4.4 4.05 4.0 L4.15 3.8 4.35 3.45 4.75 3.05 5.35 2.7 5.5 2.6 6.8 2.3 7.25 2.3 7.9 2.3 8.05 2.3 9.65 2.45 10.8 2.8 10.85 2.8 10.9 2.8 11.8 3.0 14.2 3.5 14.5 3.4 14.5 7.35" fill="#ad7727" fill-rule="evenodd" stroke="none"/>
      <path d="M3.25 12.4 L2.9 12.4 2.2 12.4 1.3 9.45 1.15 9.15 2.9 9.35 4.15 9.05 3.25 12.4" fill="#9b6531" fill-rule="evenodd" stroke="none"/>
      <path d="M20.6 -0.35 L20.6 0.1 20.6 2.55 20.6 2.7 20.1 3.2 19.4 3.55 19.0 3.7 Q18.9 3.75 18.75 3.9 18.25 4.15 17.2 4.9 L17.0 5.05 14.6 7.4 M5.4 8.0 L5.5 7.9 M5.5 8.1 L5.5 10.9 5.5 10.95 4.9 11.45 Q4.3 12.3 3.25 12.4 L2.9 12.4 2.2 12.4 0.35 11.95 0.2 11.85 Q-0.85 11.25 -1.75 10.9 L-1.85 10.9 -1.9 10.85 -3.15 10.4 -3.55 10.25 M-3.65 10.25 L-3.7 10.25 -5.15 9.85 -5.35 9.8 -5.8 9.7 -6.15 9.65 -7.85 9.35 -8.2 9.25 -8.95 9.15 -9.75 9.0 -10.3 8.9 -12.25 8.4 -13.65 7.8 -13.85 7.7 -14.25 7.55 -15.05 7.2 -16.15 6.75 -16.65 6.55 -17.05 6.35 -17.25 6.3 -17.3 6.25 -18.0 6.05 -18.4 5.9 -18.65 5.8 -18.8 5.75 -19.1 5.65 -19.25 5.6 -19.45 5.45 -20.05 4.9 -20.1 4.7 -20.1 1.65 -19.25 2.55 -19.15 2.6 -18.95 2.65 -18.85 2.7 -18.7 2.7 -18.2 2.9 -17.45 3.15 -17.35 3.2 M-16.95 3.35 L-16.7 3.45 -16.45 3.55 -16.0 3.75 -14.45 4.4 -14.1 4.55 -13.65 4.75 -12.05 5.4 -11.7 5.5 -10.65 5.75 -9.9 5.95 -8.05 6.25 -7.9 6.3 -7.55 6.35 -6.3 6.55 -5.1 6.8 -4.8 6.9 -4.35 7.0 -3.6 7.2 -2.95 7.4 -2.55 7.5 -2.0 7.75 -1.25 8.05 Q-0.4 8.4 0.3 8.8 L0.35 8.85 1.15 9.15 2.9 9.35 4.15 9.05 4.9 8.4 5.4 8.0 M20.6 -0.35 L20.45 -0.1 M16.85 2.1 L17.0 2.0 18.2 1.15 18.85 0.75 18.9 0.7 19.0 0.65 20.1 0.15 20.45 -0.1 M14.65 3.3 L15.65 2.8 16.85 2.1 M14.5 3.4 L14.65 3.3 M-16.95 3.35 L-17.35 3.2" fill="none" stroke="#8b5430" stroke-linecap="round" stroke-linejoin="round" stroke-width="0.5"/>
      <path d="M-20.1 1.65 Q-20.1 0.45 -16.35 -0.05 L-11.05 -2.05 -2.95 -5.8 Q-0.7 -6.75 1.2 -5.8 3.1 -4.9 11.15 -3.65 L16.95 -2.25 Q19.3 -1.7 20.1 -1.15 L20.45 -0.85 20.6 -0.35" fill="none" stroke="#cc9966" stroke-linecap="round" stroke-linejoin="round" stroke-width="0.5"/>
      <path d="M14.5 7.35 L8.65 5.85 4.4 6.05 4.05 6.25 4.2 6.55 4.3 6.75 4.7 7.25 4.95 7.55 5.4 8.0 5.5 8.1 M4.05 6.25 L3.85 5.75 3.8 5.1 3.8 4.95 3.8 4.85 Q3.85 4.4 4.05 4.0 L4.15 3.8 4.35 3.45 4.75 3.05 5.35 2.7 5.5 2.6 6.8 2.3 7.25 2.3 7.9 2.3 8.05 2.3 9.65 2.45 10.8 2.8 10.85 2.8 10.9 2.8 11.8 3.0 14.2 3.5 14.5 3.4" fill="none" stroke="#cc9966" stroke-linecap="round" stroke-linejoin="round" stroke-width="0.25"/>
      <path d="M14.5 7.35 L14.5 3.4" fill="none" stroke="#8b5430" stroke-linecap="round" stroke-linejoin="round" stroke-width="0.25"/>
      <path d="M0.35 -8.9 Q8.85 -8.9 14.85 -6.6 20.85 -4.25 20.85 -0.95 20.85 2.3 14.85 4.6 L14.3 4.8 11.4 4.15 7.15 4.35 6.65 4.65 6.55 4.75 6.55 4.9 5.15 6.9 0.35 6.95 Q-8.15 6.95 -14.15 4.6 -20.2 2.3 -20.15 -0.95 -20.2 -4.25 -14.15 -6.6 -8.15 -8.9 0.35 -8.9" fill="#e9ad9e" fill-rule="evenodd" stroke="none"/>
      <path d="M11.4 3.45 L7.15 3.65 6.65 3.95 6.5 4.0 6.05 3.8 Q5.6 3.6 5.15 4.9 4.7 6.0 6.1 6.8 L0.9 8.45 -20.4 1.55 0.9 -5.3 22.2 1.55 14.3 4.1 11.4 3.45" fill="#f1c45a" fill-rule="evenodd" stroke="none"/>
      <path d="M-3.65 -1.1 L-7.1 -1.3 -9.9 -1.1 -8.75 -0.15 -6.9 0.85 -6.45 0.7 -6.1 0.5 -5.95 0.35 -5.75 -0.35 -4.05 -0.45 -3.65 -1.1 M-17.35 1.35 L-17.35 1.25 Q-17.3 0.0 -14.25 -0.9 -11.15 -1.8 -6.75 -1.8 -2.35 -1.8 0.7 -0.9 3.8 0.0 3.8 1.3 L3.8 1.4 3.45 2.15 Q2.7 2.85 0.7 3.45 -2.35 4.35 -6.75 4.35 -11.15 4.35 -14.25 3.45 -16.25 2.85 -16.9 2.15 L-17.35 1.35 M-7.15 2.25 Q-6.55 1.7 -7.25 1.4 L-8.45 1.35 Q-11.35 1.6 -12.5 2.55 L-10.55 3.6 -7.15 3.2 -7.95 2.8 -7.5 2.55 -7.15 2.25 M-0.65 2.8 L-0.8 2.55 -1.25 2.25 -1.8 2.45 -3.55 2.1 -3.9 1.85 -5.2 1.7 -5.5 1.95 -5.25 3.4 Q-2.95 4.45 -0.65 2.8 M-4.9 0.9 L-1.0 1.85 1.3 1.9 Q2.4 1.6 2.7 0.5 L-4.8 0.15 -5.15 0.4 Q-5.45 0.75 -4.9 0.9 M-10.65 -0.15 L-13.8 -0.15 -14.25 0.05 -14.65 0.35 -14.9 0.7 -15.1 1.25 -8.85 1.1 -9.85 0.4 -10.65 -0.15" fill="#db6060" fill-rule="evenodd" stroke="none"/>
      <path d="M-3.65 -1.1 L-4.05 -0.45 -5.75 -0.35 -5.95 0.35 -6.1 0.5 -6.45 0.7 -6.9 0.85 -8.75 -0.15 -9.9 -1.1 -7.1 -1.3 -3.65 -1.1 M-17.35 1.35 L-16.9 2.15 Q-16.25 2.85 -14.25 3.45 -11.15 4.35 -6.75 4.35 -2.35 4.35 0.7 3.45 2.7 2.85 3.45 2.15 L3.8 1.4 3.75 2.75 3.8 2.9 3.8 3.0 Q3.8 4.25 0.7 5.15 -2.35 6.1 -6.75 6.1 -11.15 6.1 -14.25 5.15 -17.35 4.25 -17.35 3.0 L-17.3 2.8 -17.35 1.35 M-10.65 -0.15 L-9.85 0.4 -8.85 1.1 -15.1 1.25 -14.9 0.7 -14.65 0.35 -14.25 0.05 -13.8 -0.15 -10.65 -0.15 M-4.9 0.9 Q-5.45 0.75 -5.15 0.4 L-4.8 0.15 2.7 0.5 Q2.4 1.6 1.3 1.9 L-1.0 1.85 -4.9 0.9 M-0.65 2.8 Q-2.95 4.45 -5.25 3.4 L-5.5 1.95 -5.2 1.7 -3.9 1.85 -3.55 2.1 -1.8 2.45 -1.25 2.25 -0.8 2.55 -0.65 2.8 M-7.15 2.25 L-7.5 2.55 -7.95 2.8 -7.15 3.2 -10.55 3.6 -12.5 2.55 Q-11.35 1.6 -8.45 1.35 L-7.25 1.4 Q-6.55 1.7 -7.15 2.25" fill="#cc0000" fill-rule="evenodd" stroke="none"/>
      <path d="M6.15 1.5 L5.95 1.4 6.4 1.1 6.75 0.85 Q7.35 0.25 6.65 -0.05 L5.45 -0.1 4.2 0.05 Q2.3 0.4 1.45 1.1 L3.35 2.15 5.9 1.85 5.95 1.85 5.85 2.05 5.8 2.15 5.6 2.9 4.85 2.85 3.3 2.75 -0.35 2.0 Q-2.35 1.4 -3.05 0.7 L-3.4 -0.05 -3.4 -0.2 Q-3.4 -1.45 -0.35 -2.35 2.75 -3.25 7.15 -3.25 11.55 -3.25 14.6 -2.35 17.7 -1.45 17.75 -0.15 L17.75 -0.1 17.35 0.7 16.3 1.4 16.0 1.55 13.6 1.05 12.7 0.85 12.6 0.85 12.1 1.0 10.35 0.65 Q10.15 0.5 10.0 0.45 L9.7 0.35 8.7 0.25 8.6 0.35 7.3 0.65 7.15 0.75 6.55 1.1 6.15 1.5 M7.0 -0.6 L7.5 -0.7 7.8 -0.9 8.0 -1.1 8.15 -1.8 9.85 -1.85 10.25 -2.5 6.8 -2.75 4.0 -2.55 5.15 -1.6 Q5.9 -1.05 6.7 -0.7 L7.0 -0.6 M3.25 -1.55 L0.1 -1.6 -0.35 -1.35 -0.7 -1.1 -1.0 -0.75 -1.2 -0.2 5.05 -0.3 4.95 -0.4 4.05 -1.05 3.25 -1.55 M9.05 -0.55 L9.1 -0.55 11.25 0.0 12.9 0.4 14.05 0.55 15.2 0.45 Q16.3 0.15 16.65 -0.95 L9.1 -1.3 8.75 -1.05 Q8.5 -0.7 9.05 -0.55" fill="#db6060" fill-rule="evenodd" stroke="none"/>
      <path d="M3.25 -1.55 L4.05 -1.05 4.95 -0.4 5.05 -0.3 -1.2 -0.2 -1.0 -0.75 -0.7 -1.1 -0.35 -1.35 0.1 -1.6 3.25 -1.55 M7.0 -0.6 L6.7 -0.7 Q5.9 -1.05 5.15 -1.6 L4.0 -2.55 6.8 -2.75 10.25 -2.5 9.85 -1.85 8.15 -1.8 8.0 -1.1 7.8 -0.9 7.5 -0.7 7.0 -0.6 M5.9 1.85 L3.35 2.15 1.45 1.1 Q2.3 0.4 4.2 0.05 L5.45 -0.1 6.65 -0.05 Q7.35 0.25 6.75 0.85 L6.4 1.1 5.95 1.4 6.15 1.5 5.9 1.85 M8.6 0.35 L8.7 0.25 9.7 0.35 9.05 0.35 8.6 0.35 M16.0 1.55 L16.3 1.4 17.35 0.7 17.75 -0.1 17.7 1.25 17.75 1.5 17.75 1.55 Q17.7 2.65 15.3 3.5 16.05 3.2 15.75 2.5 15.4 1.8 16.0 1.55 M-3.4 -0.05 L-3.05 0.7 Q-2.35 1.4 -0.35 2.0 L3.3 2.75 4.85 2.85 5.6 2.9 5.7 2.9 5.6 3.0 5.6 3.15 5.6 3.35 Q5.05 4.6 4.4 4.55 L-0.35 3.7 Q-3.45 2.8 -3.4 1.55 L-3.4 1.35 -3.4 -0.05 M9.05 -0.55 Q8.5 -0.7 8.75 -1.05 L9.1 -1.3 16.65 -0.95 Q16.3 0.15 15.2 0.45 L14.05 0.55 12.9 0.4 11.25 0.0 9.1 -0.55 9.05 -0.55" fill="#cc0000" fill-rule="evenodd" stroke="none"/>
      <path d="M6.15 1.5 L6.55 1.1 7.15 0.75 7.3 0.65 8.6 0.35 9.05 0.35 9.7 0.35 10.0 0.45 Q10.15 0.5 10.35 0.65 L12.1 1.0 12.6 0.85 12.7 0.85 13.6 1.05 16.0 1.55 Q15.4 1.8 15.75 2.5 16.05 3.2 15.3 3.5 L10.45 2.4 6.2 2.6 5.7 2.9 5.6 2.9 5.8 2.15 5.85 2.05 5.95 1.85 5.9 1.85 6.15 1.5" fill="#af0303" fill-rule="evenodd" stroke="none"/>
      <path d="M6.6 -6.7 L6.8 -5.9 7.05 -5.7 7.55 -5.25 9.1 -5.2 10.55 -5.0 11.7 -4.5 12.2 -4.15 12.95 -4.1 15.4 -4.6 17.25 -4.8 Q18.0 -4.8 18.5 -4.4 L18.95 -3.9 19.75 -3.7 22.05 -3.25 Q22.8 -3.0 23.2 -2.45 23.45 -2.15 23.05 -1.9 L21.65 -1.15 21.5 -1.1 21.5 -1.05 21.45 -0.75 21.2 -0.25 20.4 0.1 19.35 0.5 19.25 0.55 18.85 1.3 18.1 1.95 11.25 0.55 10.05 0.2 Q5.9 -0.45 4.7 1.3 3.95 3.65 6.7 5.65 L6.6 5.9 6.35 6.1 6.35 6.2 6.35 6.7 6.25 7.25 Q5.95 7.85 4.8 7.65 L3.7 7.4 3.3 7.35 3.15 7.55 Q2.45 8.15 1.4 8.35 -0.6 8.6 -1.8 7.7 L-2.35 6.95 -2.45 6.2 -2.55 6.2 -3.1 6.45 Q-4.65 6.9 -5.75 6.2 L-6.0 5.7 -6.15 4.25 Q-6.3 3.75 -6.75 3.35 L-6.85 3.5 -7.8 3.95 -8.75 3.9 -8.8 3.95 -9.15 4.25 -10.35 4.25 -11.6 3.75 -11.95 3.8 -13.1 3.9 -13.2 3.9 -13.8 3.55 -13.8 3.5 -14.25 3.0 -14.8 2.55 -16.9 2.4 -17.6 2.0 -17.75 1.95 -18.4 1.55 -18.65 1.3 -19.0 1.2 Q-19.3 1.05 -19.2 0.8 L-19.15 0.75 -21.4 0.15 -21.45 0.1 Q-22.45 -0.2 -23.05 -0.8 -23.55 -1.35 -22.8 -1.4 L-18.3 -1.7 -17.2 -2.0 -17.1 -2.0 Q-16.25 -3.9 -13.25 -3.8 -13.1 -3.8 -12.95 -3.95 -11.2 -5.75 -7.75 -5.45 L-6.75 -5.7 -4.55 -7.0 -1.45 -7.1 -0.95 -6.75 Q-0.6 -7.15 0.0 -7.25 L1.9 -7.55 3.45 -7.75 4.75 -7.75 5.9 -7.4 6.6 -6.7" fill="#006633" fill-rule="evenodd" stroke="none"/>
      <path d="M1.3 -0.15 L1.25 -0.05 1.3 0.0 1.6 0.15 Q2.2 0.35 2.8 0.15 L3.05 0.0 3.1 -0.05 2.95 -0.25 2.8 -0.35 2.55 -0.4 2.2 -0.4 2.15 -0.4 1.55 -0.3 1.35 -0.25 1.3 -0.15 M2.2 -5.7 L1.95 -5.75 1.6 -5.8 1.0 -5.7 0.8 -5.6 0.7 -5.5 0.65 -5.45 0.7 -5.35 1.0 -5.2 Q1.6 -5.0 2.2 -5.2 L2.5 -5.35 2.55 -5.45 2.35 -5.6 2.2 -5.7 M4.35 -8.05 L4.2 -8.15 3.95 -8.2 3.6 -8.25 3.55 -8.25 2.95 -8.15 2.75 -8.05 2.7 -7.95 2.65 -7.9 2.7 -7.85 3.0 -7.65 Q3.6 -7.45 4.2 -7.65 L4.45 -7.85 4.5 -7.9 4.35 -8.05 M9.35 -6.3 L9.2 -6.4 8.95 -6.45 8.6 -6.5 8.0 -6.4 7.8 -6.3 7.7 -6.2 7.65 -6.15 7.7 -6.05 8.0 -5.9 Q8.6 -5.7 9.2 -5.9 L9.5 -6.05 9.55 -6.15 9.35 -6.3 M15.0 -2.95 L11.25 -3.95 10.05 -4.3 Q5.45 -5.05 4.45 -2.75 3.8 -1.3 4.7 0.0 L6.1 1.35 4.9 2.25 4.45 2.75 4.15 2.95 2.9 3.25 1.15 3.05 0.35 2.75 -1.25 1.95 -2.55 1.4 -4.35 0.9 -5.1 0.7 -6.3 0.45 -7.9 0.2 -8.05 0.15 -10.65 -0.35 -11.7 -0.6 -13.65 -1.35 -14.45 -1.7 -16.0 -2.4 -17.45 -2.95 -18.7 -3.4 -19.15 -3.5 -19.25 -3.55 -20.1 -4.45 Q-20.1 -5.65 -16.35 -6.15 L-11.05 -8.2 -2.95 -11.9 Q-0.7 -12.85 1.2 -11.95 3.1 -11.0 11.15 -9.75 L16.95 -8.35 Q19.3 -7.8 20.1 -7.25 L20.45 -6.95 20.6 -6.45 20.1 -5.95 19.0 -5.45 18.85 -5.35 18.2 -4.95 17.0 -4.1 16.85 -4.0 15.65 -3.3 15.0 -2.95 M14.25 -5.25 L14.0 -5.3 13.65 -5.35 13.65 -5.3 13.05 -5.2 12.85 -5.15 12.75 -5.05 12.7 -5.0 12.75 -4.9 13.05 -4.75 Q13.65 -4.55 14.25 -4.75 L14.55 -4.9 14.6 -5.0 14.4 -5.15 14.25 -5.25 M12.35 -8.15 L12.65 -8.3 12.7 -8.4 12.5 -8.55 12.35 -8.65 12.1 -8.7 11.75 -8.75 11.75 -8.7 11.15 -8.65 10.95 -8.55 10.85 -8.45 10.8 -8.4 10.85 -8.3 11.15 -8.15 Q11.75 -7.95 12.35 -8.15 M-16.35 -5.0 L-16.35 -4.95 -16.95 -4.85 -17.15 -4.8 -17.25 -4.7 -17.3 -4.65 -17.25 -4.55 -16.95 -4.4 Q-16.35 -4.2 -15.75 -4.4 L-15.45 -4.55 -15.4 -4.65 -15.6 -4.8 -15.75 -4.9 -15.95 -4.95 -16.35 -5.0 M-10.3 -7.45 L-10.25 -7.35 -9.95 -7.2 Q-9.35 -7.0 -8.75 -7.2 L-8.45 -7.35 -8.4 -7.45 -8.55 -7.6 -8.75 -7.7 -8.95 -7.75 -9.35 -7.8 -9.35 -7.75 -9.95 -7.65 -10.15 -7.6 -10.25 -7.5 -10.3 -7.45 M-3.2 -0.15 L-3.25 -0.05 -3.3 0.0 -3.25 0.1 -3.2 0.15 -2.25 0.4 -1.5 0.15 -1.3 0.0 -1.5 -0.15 -1.65 -0.25 -1.9 -0.3 -2.25 -0.35 -2.4 -0.35 -2.75 -0.3 -3.0 -0.25 -3.2 -0.15 M-1.9 -4.0 L-2.25 -4.05 -2.85 -3.95 -3.05 -3.85 -3.15 -3.75 -3.2 -3.7 -3.15 -3.6 -2.85 -3.45 Q-2.25 -3.25 -1.65 -3.45 L-1.35 -3.6 -1.3 -3.7 -1.5 -3.85 -1.65 -3.95 -1.9 -4.0 M-7.7 -3.15 L-7.7 -3.1 -8.3 -3.05 -8.5 -2.95 -8.6 -2.85 -8.65 -2.8 -8.6 -2.7 -8.3 -2.55 Q-7.7 -2.35 -7.1 -2.55 L-6.85 -2.7 -6.8 -2.8 -6.95 -2.95 -7.1 -3.05 -7.35 -3.1 -7.7 -3.15 M-0.95 -8.75 L-1.2 -8.8 -1.55 -8.85 -1.55 -8.8 -2.15 -8.7 -2.35 -8.65 -2.45 -8.55 -2.5 -8.5 -2.45 -8.4 -2.15 -8.25 Q-1.55 -8.05 -0.95 -8.25 L-0.65 -8.4 -0.6 -8.5 -0.8 -8.65 -0.95 -8.75 M-4.55 -6.6 L-4.3 -6.8 -4.25 -6.85 -4.4 -7.0 -4.55 -7.1 -4.8 -7.15 -5.2 -7.2 -5.8 -7.1 -6.0 -7.0 -6.05 -6.9 -6.1 -6.85 -6.05 -6.8 -5.8 -6.6 Q-5.2 -6.4 -4.55 -6.6 M-4.3 -8.7 L-4.0 -8.9 -4.0 -8.95 -4.15 -9.1 -4.3 -9.2 -4.55 -9.25 -4.9 -9.3 -5.5 -9.2 -5.7 -9.1 -5.8 -9.0 -5.85 -8.95 -5.8 -8.9 -5.5 -8.7 Q-4.9 -8.5 -4.3 -8.7 M-0.7 -10.85 L-0.95 -10.9 -1.3 -10.95 -1.35 -10.9 -1.95 -10.8 -2.15 -10.75 -2.2 -10.65 -2.25 -10.6 -2.2 -10.5 -1.95 -10.35 Q-1.3 -10.15 -0.7 -10.35 L-0.45 -10.5 -0.4 -10.6 -0.55 -10.75 -0.7 -10.85 M-11.1 -3.15 L-11.1 -3.1 -11.7 -3.05 -11.9 -2.95 -12.0 -2.85 -12.05 -2.8 -12.0 -2.7 -11.7 -2.55 Q-11.1 -2.35 -10.5 -2.55 L-10.2 -2.7 -10.15 -2.8 -10.3 -2.95 -10.5 -3.05 -10.7 -3.1 -11.1 -3.15 M-11.35 -5.35 L-11.35 -5.3 -11.95 -5.2 -12.15 -5.15 -12.25 -5.05 -12.3 -5.0 -12.25 -4.9 -11.95 -4.75 Q-11.35 -4.55 -10.75 -4.75 L-10.45 -4.9 -10.45 -5.0 -10.6 -5.15 -10.75 -5.25 -11.0 -5.3 -11.35 -5.35" fill="url(#gradient1)" fill-rule="evenodd" stroke="none"/>
      <path d="M9.35 -6.3 L9.55 -6.15 9.5 -6.05 9.2 -5.9 Q8.6 -5.7 8.0 -5.9 L7.7 -6.05 7.65 -6.15 7.7 -6.2 7.8 -6.3 8.0 -6.4 8.6 -6.5 8.95 -6.45 9.2 -6.4 9.35 -6.3 M4.35 -8.05 L4.5 -7.9 4.45 -7.85 4.2 -7.65 Q3.6 -7.45 3.0 -7.65 L2.7 -7.85 2.65 -7.9 2.7 -7.95 2.75 -8.05 2.95 -8.15 3.55 -8.25 3.6 -8.25 3.95 -8.2 4.2 -8.15 4.35 -8.05 M2.2 -5.7 L2.35 -5.6 2.55 -5.45 2.5 -5.35 2.2 -5.2 Q1.6 -5.0 1.0 -5.2 L0.7 -5.35 0.65 -5.45 0.7 -5.5 0.8 -5.6 1.0 -5.7 1.6 -5.8 1.95 -5.75 2.2 -5.7 M1.3 -0.15 L1.35 -0.25 1.55 -0.3 2.15 -0.4 2.2 -0.4 2.55 -0.4 2.8 -0.35 2.95 -0.25 3.1 -0.05 3.05 0.0 2.8 0.15 Q2.2 0.35 1.6 0.15 L1.3 0.0 1.25 -0.05 1.3 -0.15 M4.7 0.0 Q3.8 -1.3 4.45 -2.75 5.45 -5.05 10.05 -4.3 L11.25 -3.95 15.0 -2.95 14.9 0.15 11.25 -0.75 10.05 -1.1 Q5.9 -1.75 4.7 0.0 M12.35 -8.15 Q11.75 -7.95 11.15 -8.15 L10.85 -8.3 10.8 -8.4 10.85 -8.45 10.95 -8.55 11.15 -8.65 11.75 -8.7 11.75 -8.75 12.1 -8.7 12.35 -8.65 12.5 -8.55 12.7 -8.4 12.65 -8.3 12.35 -8.15 M14.25 -5.25 L14.4 -5.15 14.6 -5.0 14.55 -4.9 14.25 -4.75 Q13.65 -4.55 13.05 -4.75 L12.75 -4.9 12.7 -5.0 12.75 -5.05 12.85 -5.15 13.05 -5.2 13.65 -5.3 13.65 -5.35 14.0 -5.3 14.25 -5.25 M-10.3 -7.45 L-10.25 -7.5 -10.15 -7.6 -9.95 -7.65 -9.35 -7.75 -9.35 -7.8 -8.95 -7.75 -8.75 -7.7 -8.55 -7.6 -8.4 -7.45 -8.45 -7.35 -8.75 -7.2 Q-9.35 -7.0 -9.95 -7.2 L-10.25 -7.35 -10.3 -7.45 M-16.35 -5.0 L-15.95 -4.95 -15.75 -4.9 -15.6 -4.8 -15.4 -4.65 -15.45 -4.55 -15.75 -4.4 Q-16.35 -4.2 -16.95 -4.4 L-17.25 -4.55 -17.3 -4.65 -17.25 -4.7 -17.15 -4.8 -16.95 -4.85 -16.35 -4.95 -16.35 -5.0 M-11.35 -5.35 L-11.0 -5.3 -10.75 -5.25 -10.6 -5.15 -10.45 -5.0 -10.45 -4.9 -10.75 -4.75 Q-11.35 -4.55 -11.95 -4.75 L-12.25 -4.9 -12.3 -5.0 -12.25 -5.05 -12.15 -5.15 -11.95 -5.2 -11.35 -5.3 -11.35 -5.35 M-11.1 -3.15 L-10.7 -3.1 -10.5 -3.05 -10.3 -2.95 -10.15 -2.8 -10.2 -2.7 -10.5 -2.55 Q-11.1 -2.35 -11.7 -2.55 L-12.0 -2.7 -12.05 -2.8 -12.0 -2.85 -11.9 -2.95 -11.7 -3.05 -11.1 -3.1 -11.1 -3.15 M-0.7 -10.85 L-0.55 -10.75 -0.4 -10.6 -0.45 -10.5 -0.7 -10.35 Q-1.3 -10.15 -1.95 -10.35 L-2.2 -10.5 -2.25 -10.6 -2.2 -10.65 -2.15 -10.75 -1.95 -10.8 -1.35 -10.9 -1.3 -10.95 -0.95 -10.9 -0.7 -10.85 M-4.3 -8.7 Q-4.9 -8.5 -5.5 -8.7 L-5.8 -8.9 -5.85 -8.95 -5.8 -9.0 -5.7 -9.1 -5.5 -9.2 -4.9 -9.3 -4.55 -9.25 -4.3 -9.2 -4.15 -9.1 -4.0 -8.95 -4.0 -8.9 -4.3 -8.7 M-4.55 -6.6 Q-5.2 -6.4 -5.8 -6.6 L-6.05 -6.8 -6.1 -6.85 -6.05 -6.9 -6.0 -7.0 -5.8 -7.1 -5.2 -7.2 -4.8 -7.15 -4.55 -7.1 -4.4 -7.0 -4.25 -6.85 -4.3 -6.8 -4.55 -6.6 M-0.95 -8.75 L-0.8 -8.65 -0.6 -8.5 -0.65 -8.4 -0.95 -8.25 Q-1.55 -8.05 -2.15 -8.25 L-2.45 -8.4 -2.5 -8.5 -2.45 -8.55 -2.35 -8.65 -2.15 -8.7 -1.55 -8.8 -1.55 -8.85 -1.2 -8.8 -0.95 -8.75 M-7.7 -3.15 L-7.35 -3.1 -7.1 -3.05 -6.95 -2.95 -6.8 -2.8 -6.85 -2.7 -7.1 -2.55 Q-7.7 -2.35 -8.3 -2.55 L-8.6 -2.7 -8.65 -2.8 -8.6 -2.85 -8.5 -2.95 -8.3 -3.05 -7.7 -3.1 -7.7 -3.15 M-1.9 -4.0 L-1.65 -3.95 -1.5 -3.85 -1.3 -3.7 -1.35 -3.6 -1.65 -3.45 Q-2.25 -3.25 -2.85 -3.45 L-3.15 -3.6 -3.2 -3.7 -3.15 -3.75 -3.05 -3.85 -2.85 -3.95 -2.25 -4.05 -1.9 -4.0 M-3.2 -0.15 L-3.0 -0.25 -2.75 -0.3 -2.4 -0.35 -2.25 -0.35 -1.9 -0.3 -1.65 -0.25 -1.5 -0.15 -1.3 0.0 -1.5 0.15 -2.25 0.4 -3.2 0.15 -3.25 0.1 -3.3 0.0 -3.25 -0.05 -3.2 -0.15" fill="#ad7727" fill-rule="evenodd" stroke="none"/>
      <path d="M20.6 -6.45 L20.6 -3.6 20.6 -3.4 20.1 -2.9 19.0 -2.4 18.75 -2.25 18.65 -2.8 18.55 -4.1 Q18.55 -4.95 18.8 -5.3 L18.85 -5.35 19.0 -5.45 20.1 -5.95 20.6 -6.45 M17.2 -1.2 L17.0 -1.05 14.95 0.15 14.9 0.15 15.2 -1.1 Q15.1 -2.0 15.5 -2.65 L15.65 -3.3 16.85 -4.0 17.15 -3.4 17.15 -2.4 17.2 -1.2" fill="#815529" fill-rule="evenodd" stroke="none"/>
      <path d="M18.75 -2.25 L17.2 -1.2 17.15 -2.4 17.15 -3.4 16.85 -4.0 17.0 -4.1 18.2 -4.95 18.85 -5.35 18.8 -5.3 Q18.55 -4.95 18.55 -4.1 L18.65 -2.8 18.75 -2.25" fill="#6c4824" fill-rule="evenodd" stroke="none"/>
      <path d="M14.9 0.15 L15.0 -2.95 15.65 -3.3 15.5 -2.65 Q15.1 -2.0 15.2 -1.1 L14.9 0.15" fill="#604020" fill-rule="evenodd" stroke="none"/>
      <path d="M6.1 1.35 L6.2 4.35 6.0 4.5 4.9 5.35 Q4.3 6.2 3.25 6.3 L4.15 2.95 4.45 2.75 4.9 2.25 6.1 1.35 M-1.85 4.75 L-1.9 4.75 Q-2.75 4.4 -3.7 4.15 L-3.75 4.0 -4.35 0.9 -2.55 1.4 -1.25 1.95 -1.3 2.0 -1.85 4.7 -1.85 4.75 M-5.15 3.75 L-6.15 3.55 -6.4 1.5 -6.3 0.45 -5.1 0.7 -5.15 3.75 M-8.95 3.05 L-10.3 2.8 -10.55 0.65 -10.65 -0.35 -8.05 0.15 -7.9 0.2 -8.25 0.85 -8.95 3.05 M-15.05 1.1 Q-16.2 0.55 -17.3 0.15 L-16.0 -2.4 -14.45 -1.7 Q-14.55 -0.3 -15.05 1.1 M-18.4 -0.2 L-19.25 -0.5 -19.45 -0.65 -19.15 -3.5 -18.7 -3.4 Q-18.45 -2.45 -18.4 -0.2" fill="#a26933" fill-rule="evenodd" stroke="none"/>
      <path d="M2.2 6.3 L0.35 5.8 Q-0.85 5.15 -1.85 4.75 L-1.85 4.7 -1.3 2.0 -1.25 1.95 0.35 2.75 1.15 3.05 1.3 3.35 2.2 6.3 M-3.7 4.15 L-5.15 3.75 -5.1 0.7 -4.35 0.9 -3.75 4.0 -3.7 4.15 M-6.15 3.55 L-8.2 3.15 -8.95 3.05 -8.25 0.85 -7.9 0.2 -6.3 0.45 -6.4 1.5 -6.15 3.55 M-13.85 1.6 L-15.05 1.1 Q-14.55 -0.3 -14.45 -1.7 L-13.65 -1.35 -11.7 -0.6 -12.75 0.85 -13.85 1.6 M-17.3 0.15 L-18.4 -0.2 Q-18.45 -2.45 -18.7 -3.4 L-17.45 -2.95 -16.0 -2.4 -17.3 0.15 M-19.45 -0.65 L-20.05 -1.25 -20.1 -1.4 -20.1 -4.45 -19.25 -3.55 -19.15 -3.5 -19.45 -0.65" fill="#8d5c2e" fill-rule="evenodd" stroke="none"/>
      <path d="M4.15 2.95 L3.25 6.3 2.9 6.3 2.2 6.3 1.3 3.35 1.15 3.05 2.9 3.25 4.15 2.95" fill="#9b6531" fill-rule="evenodd" stroke="none"/>
      <path d="M-10.3 2.8 L-13.65 1.7 -13.85 1.6 -12.75 0.85 -11.7 -0.6 -10.65 -0.35 -10.55 0.65 -10.3 2.8" fill="#ae7337" fill-rule="evenodd" stroke="none"/>
      <path d="M15.0 -2.95 L11.25 -3.95 10.05 -4.3 Q5.45 -5.05 4.45 -2.75 3.8 -1.3 4.7 0.0 5.9 -1.75 10.05 -1.1 L11.25 -0.75 14.9 0.15 M4.7 0.0 L6.1 1.35" fill="none" stroke="#cc9933" stroke-linecap="round" stroke-linejoin="round" stroke-width="0.25"/>
      <path d="M-20.1 -4.45 Q-20.1 -5.65 -16.35 -6.15 L-11.05 -8.2 -2.95 -11.9 Q-0.7 -12.85 1.2 -11.95 3.1 -11.0 11.15 -9.75 L16.95 -8.35 Q19.3 -7.8 20.1 -7.25 L20.45 -6.95 20.6 -6.45" fill="none" stroke="#cc9966" stroke-linecap="round" stroke-linejoin="round" stroke-width="0.5"/>
      <path d="M14.9 0.15 L15.0 -2.95 M20.6 -6.45 L20.6 -3.6 20.6 -3.4 20.1 -2.9 19.0 -2.4 18.75 -2.25 17.2 -1.2 17.0 -1.05 14.95 0.15 M15.65 -3.3 L15.0 -2.95 M20.6 -6.45 L20.1 -5.95 19.0 -5.45 18.85 -5.35 18.2 -4.95 17.0 -4.1 16.85 -4.0 15.65 -3.3 M3.25 6.3 Q4.3 6.2 4.9 5.35 L6.0 4.5 6.2 4.35 6.1 1.35 4.9 2.25 4.45 2.75 4.15 2.95 M3.25 6.3 L2.9 6.3 2.2 6.3 0.35 5.8 Q-0.85 5.15 -1.85 4.75 L-1.9 4.75 Q-2.75 4.4 -3.7 4.15 L-5.15 3.75 -6.15 3.55 -8.2 3.15 -8.95 3.05 -10.3 2.8 -13.65 1.7 -13.85 1.6 -15.05 1.1 Q-16.2 0.55 -17.3 0.15 L-18.4 -0.2 -19.25 -0.5 -19.45 -0.65 -20.05 -1.25 -20.1 -1.4 -20.1 -4.45 -19.25 -3.55 -19.15 -3.5 -18.7 -3.4 -17.45 -2.95 -16.0 -2.4 -14.45 -1.7 -13.65 -1.35 -11.7 -0.6 -10.65 -0.35 -8.05 0.15 -7.9 0.2 -6.3 0.45 -5.1 0.7 -4.35 0.9 -2.55 1.4 -1.25 1.95 0.35 2.75 1.15 3.05 2.9 3.25 4.15 2.95" fill="none" stroke="#8b5430" stroke-linecap="round" stroke-linejoin="round" stroke-width="0.5"/>
    </g>
    <radialGradient cx="0" cy="0" gradientTransform="matrix(0.0282, 0.0, 0.0, 0.0203, -2.3, -0.5)" gradientUnits="userSpaceOnUse" id="gradient0" r="819.2" spreadMethod="pad">
      <stop offset="0.0" stop-color="#d5a255"/>
      <stop offset="1.0" stop-color="#ab7e18"/>
    </radialGradient>
    <radialGradient cx="0" cy="0" gradientTransform="matrix(0.0282, 0.0, 0.0, 0.0203, -2.3, -6.6)" gradientUnits="userSpaceOnUse" id="gradient1" r="819.2" spreadMethod="pad">
      <stop offset="0.0" stop-color="#d5a255"/>
      <stop offset="1.0" stop-color="#ab7e18"/>
    </radialGradient>
  </defs>
</svg>
