<?xml version="1.0" encoding="UTF-8" standalone="no"?>
<svg xmlns:xlink="http://www.w3.org/1999/xlink" height="34.15px" width="47.55px" xmlns="http://www.w3.org/2000/svg">
  <g transform="matrix(1.0, 0.0, 0.0, 1.0, 23.75, 17.05)">
    <use height="34.15" transform="matrix(1.0, 0.0, 0.0, 1.0, -23.75, -17.05)" width="47.55" xlink:href="#shape0"/>
  </g>
  <defs>
    <g id="shape0" transform="matrix(1.0, 0.0, 0.0, 1.0, 23.75, 17.05)">
      <path d="M-22.85 5.75 Q-23.6 5.3 -23.6 4.4 -22.4 -1.0 -14.45 -7.6 -5.9 -14.75 0.9 -16.85 1.65 -17.05 2.0 -16.35 L4.8 -11.1 5.25 -10.25 5.35 -10.15 7.15 -8.7 9.75 -6.1 13.2 -1.2 19.5 9.05 Q20.0 10.25 21.65 12.7 23.3 15.1 23.65 16.35 L18.55 15.85 13.25 14.6 5.95 13.0 Q-0.45 11.7 -6.7 9.4 -12.95 7.1 -14.45 6.85 L-16.4 6.4 -16.55 6.35 -16.6 6.3 -18.95 4.6 Q-20.0 3.95 -21.65 3.95 -23.25 3.95 -23.1 5.0 L-22.85 5.75" fill="url(#gradient0)" fill-rule="evenodd" stroke="none"/>
      <path d="M23.65 16.35 L23.5 16.65 Q22.15 17.45 17.25 16.15 L9.1 14.25 2.75 12.9 -3.5 11.3 -8.85 9.95 -13.25 8.35 -18.1 6.9 -21.35 6.45 Q-22.45 6.3 -22.85 5.75 L-23.1 5.0 Q-23.25 3.95 -21.65 3.95 -20.0 3.95 -18.95 4.6 L-16.6 6.3 -16.55 6.35 -16.4 6.4 -14.45 6.85 Q-12.95 7.1 -6.7 9.4 -0.45 11.7 5.95 13.0 L13.25 14.6 18.55 15.85 23.65 16.35" fill="#9d6b33" fill-rule="evenodd" stroke="none"/>
      <path d="M-22.85 5.75 Q-23.6 5.3 -23.6 4.4 -22.4 -1.0 -14.45 -7.6 -5.9 -14.75 0.9 -16.85 1.65 -17.05 2.0 -16.35 L4.8 -11.1 5.25 -10.25 5.35 -10.15 7.15 -8.7 9.75 -6.1 13.2 -1.2 19.5 9.05 Q20.0 10.25 21.65 12.7 23.3 15.1 23.65 16.35" fill="none" stroke="#9d6b33" stroke-linecap="round" stroke-linejoin="round" stroke-width="0.35000000000000003"/>
      <path d="M23.65 16.35 L23.5 16.65 Q22.15 17.45 17.25 16.15 L9.1 14.25 2.75 12.9 -3.5 11.3 -8.85 9.95 -13.25 8.35 -18.1 6.9 -21.35 6.45 Q-22.45 6.3 -22.85 5.75 L-23.1 5.0 Q-23.25 3.95 -21.65 3.95 -20.0 3.95 -18.95 4.6 L-16.6 6.3 -16.55 6.35 -16.4 6.4 -14.45 6.85 Q-12.95 7.1 -6.7 9.4 -0.45 11.7 5.95 13.0 L13.25 14.6 18.55 15.85 23.65 16.35" fill="none" stroke="#80552b" stroke-linecap="round" stroke-linejoin="round" stroke-width="0.35000000000000003"/>
      <path d="M2.85 -10.6 Q3.75 -10.6 3.75 -9.95 L0.35 -7.3 -0.3 -7.95 0.8 -9.35 Q2.0 -10.6 2.85 -10.6 M1.2 -1.6 Q1.1 0.75 0.3 1.65 -2.5 3.95 -3.3 5.0 L-4.85 6.9 -4.85 7.25 Q-4.85 8.8 -6.45 8.8 -7.35 8.8 -7.75 8.05 L-8.0 7.2 Q-8.0 6.1 -7.25 5.75 L-3.6 0.0 1.1 -6.1 Q1.95 -6.1 1.75 -4.95 L1.2 -1.6 M7.1 -0.85 L7.35 -1.55 7.05 -0.85 7.1 -0.85 M8.2 -4.7 Q9.3 -4.7 10.15 -2.75 10.15 -1.1 7.7 3.55 L5.9 7.65 Q4.95 9.65 3.6 9.65 2.6 9.65 2.6 8.85 L3.4 5.7 4.45 2.5 5.8 -1.25 Q6.7 -3.5 7.45 -3.55 7.45 -4.7 8.2 -4.7 M13.7 8.2 Q13.5 12.65 11.0 12.65 10.3 12.65 10.05 12.3 L9.9 11.9 11.1 9.4 Q12.0 7.05 12.75 7.05 13.85 7.05 13.7 8.2 M17.6 13.05 Q18.05 13.2 18.05 12.5 18.05 11.6 18.7 11.6 19.45 11.6 19.6 12.45 19.6 14.15 17.6 14.15 L16.35 13.85 16.25 13.5 Q16.25 13.05 16.6 12.95 L17.6 13.05 M-6.15 -2.35 Q-6.8 -2.35 -6.8 -3.05 L-6.15 -4.4 Q-5.35 -5.6 -4.5 -5.6 -3.85 -5.6 -3.9 -4.9 L-6.15 -2.35 M-8.5 -0.6 Q-8.5 0.6 -9.5 0.6 -10.15 0.6 -10.15 -0.1 -10.15 -1.25 -9.15 -1.25 -8.5 -1.25 -8.5 -0.6 M-0.2 0.2 L-0.1 -0.05 -0.15 0.0 -0.2 0.15 -0.2 0.2" fill="#fedf9a" fill-rule="evenodd" stroke="none"/>
      <path d="M3.75 -0.3 Q1.15 0.05 -0.8 -0.85 -2.75 -1.75 -3.0 -3.35 -3.2 -4.9 -1.55 -6.3 0.1 -7.7 2.7 -8.05 5.25 -8.35 7.2 -7.45 9.15 -6.55 9.35 -5.0 9.6 -3.4 7.95 -2.0 6.3 -0.6 3.75 -0.3" fill="url(#gradient1)" fill-rule="evenodd" stroke="none"/>
      <path d="M6.55 11.85 Q5.35 13.0 3.3 12.6 1.35 12.2 -0.3 10.5 -1.9 8.8 -2.3 6.75 -2.6 4.75 -1.4 3.6 -0.2 2.45 1.75 2.85 3.8 3.3 5.4 5.0 7.05 6.7 7.35 8.7 7.75 10.7 6.55 11.85" fill="url(#gradient2)" fill-rule="evenodd" stroke="none"/>
      <path d="M9.2 9.0 Q9.5 7.65 11.05 7.0 L14.55 6.8 Q16.45 7.25 17.65 8.45 18.8 9.7 18.5 11.05 18.25 12.35 16.7 13.0 L13.15 13.2 Q11.25 12.8 10.1 11.55 8.95 10.3 9.2 9.0" fill="url(#gradient3)" fill-rule="evenodd" stroke="none"/>
      <path d="M-6.45 -8.3 L-6.3 -8.45 -5.25 -10.0 -3.5 -10.2 Q-2.85 -10.2 -0.5 -12.85 L2.05 -13.0 3.75 -13.05 3.95 -12.65 2.35 -12.15 -0.15 -11.8 -1.45 -11.05 -2.75 -10.35 -3.55 -9.45 Q-5.6 -8.8 -6.35 -8.35 L-6.45 -8.3 M-17.65 5.5 L-18.2 5.2 -18.25 4.65 -18.15 4.1 Q-17.95 3.8 -16.95 3.3 -16.4 2.55 -16.7 1.6 L-16.2 0.9 -14.25 -0.4 Q-14.25 -2.85 -13.5 -2.95 -11.2 -3.3 -10.9 -4.4 -10.6 -5.4 -9.95 -5.35 L-9.6 -5.1 -7.7 -6.95 Q-8.1 -5.9 -8.45 -5.35 -9.1 -5.25 -9.75 -4.1 -10.45 -2.95 -11.75 -2.7 L-12.5 -2.4 Q-13.3 -1.45 -13.5 -0.25 -13.3 0.5 -14.5 1.1 -15.45 1.45 -15.8 2.45 -15.95 3.6 -16.4 4.0 L-17.65 5.5" fill="#922307" fill-opacity="0.69803923" fill-rule="evenodd" stroke="none"/>
      <path d="M3.95 -12.65 L4.2 -12.2 3.65 -12.2 2.35 -12.15 1.55 -11.9 Q0.65 -11.3 -0.45 -10.95 -0.95 -10.95 -1.3 -10.4 L-2.65 -8.85 -4.75 -8.4 -5.8 -7.15 -8.25 -3.7 -9.7 -2.95 -11.6 -1.5 -12.05 -1.15 Q-12.45 -0.75 -12.3 -0.15 -12.55 1.2 -13.35 1.35 -15.1 1.5 -15.75 3.45 L-16.45 4.8 -16.05 6.6 Q-17.0 6.35 -17.65 5.5 L-16.4 4.0 Q-15.95 3.6 -15.8 2.45 -15.45 1.45 -14.5 1.1 -13.3 0.5 -13.5 -0.25 -13.3 -1.45 -12.5 -2.4 L-11.75 -2.7 Q-10.45 -2.95 -9.75 -4.1 -9.1 -5.25 -8.45 -5.35 -8.1 -5.9 -7.7 -6.95 L-7.65 -7.0 -6.45 -8.3 -6.35 -8.35 Q-5.6 -8.8 -3.55 -9.45 L-2.75 -10.35 -1.45 -11.05 -0.15 -11.8 2.35 -12.15 3.95 -12.65 M3.85 -12.2 Q4.2 -12.2 4.2 -11.8 4.2 -11.4 3.85 -11.4 3.4 -11.4 3.4 -11.8 3.4 -12.2 3.85 -12.2 M-4.05 -7.6 Q-4.05 -7.2 -4.4 -7.2 -4.85 -7.2 -4.85 -7.6 -4.85 -8.0 -4.4 -8.0 -4.05 -8.0 -4.05 -7.6 M-9.25 -5.7 Q-9.7 -5.7 -9.7 -6.1 -9.7 -6.5 -9.25 -6.5 -8.9 -6.5 -8.9 -6.1 -8.9 -5.7 -9.25 -5.7 M-14.35 2.7 Q-14.8 2.7 -14.8 2.3 -14.8 1.9 -14.35 1.9 -14.0 1.9 -14.0 2.3 -14.0 2.7 -14.35 2.7" fill="#970202" fill-opacity="0.8235294" fill-rule="evenodd" stroke="none"/>
      <path d="M-9.75 6.65 L-12.2 6.35 Q-13.2 5.85 -13.35 5.0 -13.45 4.15 -12.55 3.4 -11.7 2.7 -10.3 2.5 -8.9 2.3 -7.85 2.8 -6.8 3.25 -6.7 4.1 -6.55 4.95 -7.5 5.75 -8.35 6.45 -9.75 6.65" fill="url(#gradient4)" fill-rule="evenodd" stroke="none"/>
      <path d="M14.3 5.75 Q13.65 6.35 12.55 6.1 11.45 5.9 10.6 4.95 9.7 4.05 9.5 2.95 9.35 1.85 10.0 1.25 10.65 0.6 11.7 0.9 12.8 1.1 13.7 2.0 14.55 2.95 14.75 4.05 14.95 5.1 14.3 5.75" fill="url(#gradient5)" fill-rule="evenodd" stroke="none"/>
      <path d="M17.3 13.3 Q17.5 12.6 18.35 12.25 L20.25 12.15 Q21.25 12.35 21.9 13.05 22.55 13.7 22.35 14.4 22.2 15.15 21.35 15.5 L19.5 15.6 Q18.45 15.35 17.8 14.7 17.15 14.05 17.3 13.3" fill="url(#gradient6)" fill-rule="evenodd" stroke="none"/>
      <path d="M2.2 -3.55 Q2.2 -3.3 2.35 -3.1 2.6 -2.65 3.15 -2.65 4.1 -2.65 4.1 -3.55 4.1 -4.4 3.25 -4.4 2.2 -4.4 2.2 -3.55 M3.6 -6.7 Q2.25 -6.95 0.6 -6.7 -0.95 -6.5 -0.7 -4.85 -0.5 -3.25 0.65 -4.65 1.8 -6.05 3.2 -5.6 L4.75 -5.7 Q5.15 -6.4 3.6 -6.7 M1.65 -2.1 Q-0.15 -2.45 -1.25 -3.6 -2.4 -4.75 -2.15 -6.0 -1.95 -7.25 -0.45 -7.9 L2.85 -8.2 Q4.65 -7.85 5.75 -6.7 6.9 -5.6 6.65 -4.3 6.4 -3.05 4.95 -2.45 3.5 -1.75 1.65 -2.1 M14.85 1.5 L16.15 3.6 Q15.55 4.2 14.5 4.4 L11.2 4.05 Q9.5 3.3 8.65 1.9 7.8 0.55 8.3 -0.6 8.75 -1.7 10.1 -2.05 L10.4 -2.1 12.65 -2.05 12.7 -2.05 13.2 -1.2 13.85 -0.1 Q12.85 0.85 11.25 0.1 9.6 -0.65 9.45 -0.25 9.25 0.1 11.1 1.75 12.95 3.35 13.8 2.6 L14.85 1.5 M14.45 10.45 Q16.15 11.2 17.0 12.55 17.85 13.9 17.35 15.1 L17.1 15.5 13.25 14.6 9.25 13.7 Q8.65 12.55 9.1 11.55 9.55 10.45 10.9 10.1 L11.2 10.05 13.45 10.1 14.45 10.45 M14.8 11.65 Q13.25 10.6 11.85 11.0 10.4 11.35 10.3 11.65 10.05 12.15 11.7 12.4 L14.2 12.95 14.9 13.15 Q14.6 13.35 14.6 13.8 L14.7 14.25 Q14.9 14.7 15.45 14.7 16.3 14.7 16.3 13.8 16.3 13.2 15.95 13.05 16.0 12.45 14.8 11.65 M1.7 8.25 Q1.2 9.4 -0.35 9.7 L-3.65 9.35 Q-5.35 8.6 -6.2 7.2 -7.05 5.85 -6.55 4.7 -6.1 3.6 -4.75 3.25 L-4.45 3.2 -2.2 3.25 -1.2 3.6 Q0.5 4.35 1.35 5.7 2.2 7.05 1.7 8.25 M-3.95 7.35 Q-2.2 8.95 -1.15 8.05 L0.15 6.5 Q0.7 5.9 -0.9 6.5 -2.55 7.1 -3.9 5.8 -5.25 4.5 -5.5 5.1 -5.75 5.7 -3.95 7.35" fill="#86352d" fill-rule="evenodd" stroke="none"/>
      <path d="M3.6 -6.7 Q5.15 -6.4 4.75 -5.7 L3.2 -5.6 Q1.8 -6.05 0.65 -4.65 -0.5 -3.25 -0.7 -4.85 -0.95 -6.5 0.6 -6.7 2.25 -6.95 3.6 -6.7 M2.2 -3.55 Q2.2 -4.4 3.25 -4.4 4.1 -4.4 4.1 -3.55 4.1 -2.65 3.15 -2.65 2.6 -2.65 2.35 -3.1 2.2 -3.3 2.2 -3.55 M13.85 -0.1 L14.85 1.5 13.8 2.6 Q12.95 3.35 11.1 1.75 9.25 0.1 9.45 -0.25 9.6 -0.65 11.25 0.1 12.85 0.85 13.85 -0.1 M14.8 11.65 Q16.0 12.45 15.95 13.05 16.3 13.2 16.3 13.8 16.3 14.7 15.45 14.7 14.9 14.7 14.7 14.25 L14.6 13.8 Q14.6 13.35 14.9 13.15 L14.2 12.95 11.7 12.4 Q10.05 12.15 10.3 11.65 10.4 11.35 11.85 11.0 13.25 10.6 14.8 11.65 M-3.95 7.35 Q-5.75 5.7 -5.5 5.1 -5.25 4.5 -3.9 5.8 -2.55 7.1 -0.9 6.5 0.7 5.9 0.15 6.5 L-1.15 8.05 Q-2.2 8.95 -3.95 7.35" fill="#9f4035" fill-rule="evenodd" stroke="none"/>
      <path d="M-5.75 0.0 L-5.75 -0.1 Q-5.7 -1.0 -4.1 -1.05 L-2.4 -0.95 Q0.3 -0.8 0.75 -0.25 L2.95 -0.3 Q6.75 -0.1 6.65 2.05 6.6 2.6 6.15 2.7 5.6 1.25 4.95 0.8 4.4 0.45 2.75 0.4 L0.6 0.5 -2.45 -0.3 -5.75 0.0 M4.75 7.7 L6.4 9.1 Q6.95 11.1 5.7 12.95 L3.85 12.45 Q4.7 11.1 4.75 7.7 M14.9 5.25 Q17.05 5.6 17.25 5.85 L17.4 7.55 17.3 11.25 16.85 10.8 16.1 9.85 16.05 7.95 Q15.95 6.8 14.9 5.25" fill="#3d4f20" fill-rule="evenodd" stroke="none"/>
      <path d="M6.15 2.7 L6.0 2.7 Q5.6 2.65 5.3 2.0 5.0 1.3 4.5 1.1 L1.7 0.95 Q0.75 1.3 0.4 2.15 -0.1 2.1 -0.25 1.35 -0.45 0.55 -0.9 0.45 L-3.8 0.3 -5.15 0.6 Q-5.75 0.55 -5.75 0.0 L-2.45 -0.3 0.6 0.5 2.75 0.4 Q4.4 0.45 4.95 0.8 5.6 1.25 6.15 2.7" fill="#58732f" fill-rule="evenodd" stroke="none"/>
      <path d="M7.7 -5.05 L8.9 -5.35 10.1 -5.05 Q10.6 -4.75 10.6 -4.3 10.6 -3.85 10.1 -3.55 9.6 -3.25 8.9 -3.25 8.2 -3.25 7.7 -3.55 7.2 -3.85 7.2 -4.3 7.2 -4.75 7.7 -5.05 M7.65 7.35 L6.4 4.5 Q8.0 4.05 9.9 4.95 11.2 5.55 10.45 7.05 L10.25 7.4 7.65 7.35 M9.6 8.0 L9.2 8.15 9.25 8.75 8.4 9.15 7.9 8.0 9.6 8.0 M-10.5 2.75 L-8.85 2.6 Q-8.75 3.6 -8.95 3.85 L-10.1 4.05 -10.5 5.25 -10.5 2.75 M-11.1 5.9 L-12.25 5.85 -13.2 5.35 Q-13.95 4.7 -13.9 3.35 L-13.9 3.15 -12.35 2.95 -11.1 5.9" fill="#b0a282" fill-rule="evenodd" stroke="none"/>
      <path d="M10.25 7.4 L9.6 8.0 7.9 8.0 7.65 7.35 10.25 7.4 M-10.5 5.25 L-10.8 5.65 -11.1 5.9 -12.35 2.95 -10.5 2.75 -10.5 5.25" fill="#8d7c58" fill-rule="evenodd" stroke="none"/>
    </g>
    <radialGradient cx="0" cy="0" gradientTransform="matrix(0.044, 0.0, 0.0, 0.044, 9.1, 14.65)" gradientUnits="userSpaceOnUse" id="gradient0" r="819.2" spreadMethod="pad">
      <stop offset="0.0" stop-color="#d59b42"/>
      <stop offset="0.2784313725490196" stop-color="#f6c864"/>
      <stop offset="0.47058823529411764" stop-color="#c0650c"/>
      <stop offset="0.6980392156862745" stop-color="#ffd46d"/>
      <stop offset="1.0" stop-color="#9d4f07"/>
    </radialGradient>
    <radialGradient cx="0" cy="0" gradientTransform="matrix(0.0077, -0.001, 6.0E-4, 0.0049, 3.2, -4.2)" gradientUnits="userSpaceOnUse" id="gradient1" r="819.2" spreadMethod="pad">
      <stop offset="0.0" stop-color="#9d4f07" stop-opacity="0.8509804"/>
      <stop offset="1.0" stop-color="#ffd46d" stop-opacity="0.0"/>
    </radialGradient>
    <radialGradient cx="0" cy="0" gradientTransform="matrix(0.0036, -0.0034, 0.005, 0.0052, 2.55, 7.75)" gradientUnits="userSpaceOnUse" id="gradient2" r="819.2" spreadMethod="pad">
      <stop offset="0.0" stop-color="#9d4f07" stop-opacity="0.8509804"/>
      <stop offset="1.0" stop-color="#ffd46d" stop-opacity="0.0"/>
    </radialGradient>
    <radialGradient cx="0" cy="0" gradientTransform="matrix(9.0E-4, -0.004, -0.0059, -0.0013, 13.85, 10.0)" gradientUnits="userSpaceOnUse" id="gradient3" r="819.2" spreadMethod="pad">
      <stop offset="0.0" stop-color="#9d4f07" stop-opacity="0.8509804"/>
      <stop offset="1.0" stop-color="#ffd46d" stop-opacity="0.0"/>
    </radialGradient>
    <radialGradient cx="0" cy="0" gradientTransform="matrix(0.0042, -5.0E-4, 4.0E-4, 0.0027, -10.05, 4.55)" gradientUnits="userSpaceOnUse" id="gradient4" r="819.2" spreadMethod="pad">
      <stop offset="0.0" stop-color="#9d4f07" stop-opacity="0.8509804"/>
      <stop offset="1.0" stop-color="#ffd46d" stop-opacity="0.0"/>
    </radialGradient>
    <radialGradient cx="0" cy="0" gradientTransform="matrix(0.0019, -0.0018, 0.0027, 0.0028, 12.15, 3.5)" gradientUnits="userSpaceOnUse" id="gradient5" r="819.2" spreadMethod="pad">
      <stop offset="0.0" stop-color="#9d4f07" stop-opacity="0.8509804"/>
      <stop offset="1.0" stop-color="#ffd46d" stop-opacity="0.0"/>
    </radialGradient>
    <radialGradient cx="0" cy="0" gradientTransform="matrix(5.0E-4, -0.0022, -0.0032, -7.0E-4, 19.85, 13.85)" gradientUnits="userSpaceOnUse" id="gradient6" r="819.2" spreadMethod="pad">
      <stop offset="0.0" stop-color="#9d4f07" stop-opacity="0.8509804"/>
      <stop offset="1.0" stop-color="#ffd46d" stop-opacity="0.0"/>
    </radialGradient>
  </defs>
</svg>
