<?xml version="1.0" encoding="UTF-8" standalone="no"?>
<svg xmlns:xlink="http://www.w3.org/1999/xlink" height="43.6px" width="42.3px" xmlns="http://www.w3.org/2000/svg">
  <g transform="matrix(1.0, 0.0, 0.0, 1.0, 21.15, 21.85)">
    <use height="43.6" transform="matrix(1.0, 0.0, 0.0, 1.0, -21.15, -21.85)" width="42.3" xlink:href="#shape0"/>
  </g>
  <defs>
    <g id="shape0" transform="matrix(1.0, 0.0, 0.0, 1.0, 21.15, 21.85)">
      <path d="M8.05 1.45 L8.15 1.4 8.15 1.35 8.2 1.3 8.2 1.25 8.15 1.1 7.8 0.95 7.35 0.9 7.25 0.9 7.0 0.8 6.8 0.85 6.7 0.9 6.7 0.95 6.65 1.0 6.65 1.1 6.7 1.25 6.95 1.5 7.05 1.55 8.0 1.5 8.05 1.45 M16.35 2.0 L16.35 2.1 16.4 2.2 16.4 2.25 16.55 2.35 16.9 2.3 17.0 2.2 17.05 2.15 17.05 2.1 17.0 2.0 16.95 1.85 16.9 1.8 16.7 1.75 16.6 1.75 16.45 1.8 16.4 1.85 16.4 1.9 16.35 2.0 M0.95 -0.85 L0.7 -1.0 0.5 -1.05 0.4 -1.0 0.3 -1.0 0.25 -0.9 0.25 -0.85 0.15 -0.75 0.15 -0.65 0.45 -0.3 0.85 -0.25 1.0 -0.3 1.1 -0.35 1.2 -0.5 1.1 -0.7 0.95 -0.85 M-9.15 -12.3 Q-4.85 -4.3 2.0 -1.95 9.6 1.1 18.3 0.2 23.8 0.6 18.3 3.05 9.1 5.05 0.25 2.75 -4.95 -3.7 -8.6 -10.5 L-9.15 -12.3" fill="url(#gradient0)" fill-rule="evenodd" stroke="none"/>
      <path d="M0.95 -0.85 L1.1 -0.7 1.2 -0.5 1.1 -0.35 1.0 -0.3 0.85 -0.25 0.45 -0.3 0.15 -0.65 0.15 -0.75 0.25 -0.85 0.25 -0.9 0.3 -1.0 0.4 -1.0 0.5 -1.05 0.7 -1.0 0.95 -0.85 M16.35 2.0 L16.4 1.9 16.4 1.85 16.45 1.8 16.6 1.75 16.7 1.75 16.9 1.8 16.95 1.85 17.0 2.0 17.05 2.1 17.05 2.15 17.0 2.2 16.9 2.3 16.55 2.35 16.4 2.25 16.4 2.2 16.35 2.1 16.35 2.0 M8.05 1.45 L8.0 1.5 7.05 1.55 6.95 1.5 6.7 1.25 6.65 1.1 6.65 1.0 6.7 0.95 6.7 0.9 6.8 0.85 7.0 0.8 7.25 0.9 7.35 0.9 7.8 0.95 8.15 1.1 8.2 1.25 8.2 1.3 8.15 1.35 8.15 1.4 8.05 1.45 M0.9 8.0 L0.95 8.05 0.95 8.1 0.9 8.2 0.9 8.3 0.8 8.4 0.7 8.4 0.6 8.45 0.3 8.4 0.1 8.2 0.1 8.05 0.1 7.95 0.15 7.9 0.25 7.85 0.35 7.85 Q0.35 7.75 0.45 7.8 L0.6 7.8 Q0.65 7.75 0.7 7.85 L0.85 7.9 0.9 8.0 M-11.55 -10.4 L-11.5 -10.5 -11.3 -10.55 -11.25 -10.55 -11.15 -10.5 -11.05 -10.4 -11.0 -10.35 -10.95 -10.25 -10.95 -10.1 -11.0 -9.8 -11.15 -9.55 -11.25 -9.5 -11.45 -9.55 -11.5 -9.6 -11.55 -9.7 -11.6 -9.75 -11.6 -9.8 -11.6 -9.95 -11.7 -10.1 -11.7 -10.25 -11.6 -10.35 -11.55 -10.4 M-13.4 -12.1 L-13.35 -12.05 -13.3 -11.95 -13.2 -11.9 -13.2 -11.5 -13.3 -11.05 -13.3 -10.55 Q-13.25 -10.15 -13.6 -10.05 L-13.8 -10.1 -13.9 -10.2 -13.95 -10.55 -13.95 -11.0 -13.95 -11.4 -13.9 -11.85 -13.85 -11.95 -13.8 -12.05 -13.7 -12.1 -13.55 -12.15 -13.4 -12.1 M-14.75 -11.9 L-14.75 -11.7 -14.85 -11.4 -14.95 -11.1 -15.2 -10.8 -15.35 -10.75 -15.6 -11.0 -15.65 -11.4 -15.5 -11.8 -15.25 -12.1 -15.15 -12.15 -15.0 -12.15 -14.9 -12.1 -14.8 -12.05 -14.75 -11.95 -14.75 -11.9 M-13.85 -8.95 L-13.8 -8.8 -13.8 -8.65 -13.9 -8.45 -14.1 -8.25 -14.3 -8.3 -14.4 -8.45 -14.4 -8.5 -14.45 -8.55 -14.45 -8.7 -14.45 -8.8 -14.4 -8.95 -14.4 -9.0 -14.35 -9.05 -14.3 -9.15 -14.1 -9.2 -13.95 -9.15 -13.9 -9.05 -13.85 -9.0 -13.85 -8.95 M-19.1 -6.95 L-18.95 -7.0 -18.85 -7.0 -18.65 -6.95 -18.6 -6.9 -18.55 -6.8 -18.5 -6.65 -18.5 -6.6 -18.55 -6.55 -18.65 -6.45 -19.05 -6.4 -19.15 -6.5 -19.15 -6.55 -19.2 -6.65 -19.2 -6.8 -19.15 -6.85 -19.15 -6.9 -19.1 -6.95 M-19.45 -2.95 L-19.2 -2.8 -19.1 -2.45 -19.05 -2.15 -19.1 -1.85 -19.15 -1.8 -19.2 -1.8 -19.3 -1.7 -19.45 -1.8 -19.6 -1.9 -19.7 -2.15 -19.75 -2.4 -19.8 -2.65 -19.8 -2.8 -19.75 -2.85 -19.7 -2.9 -19.6 -2.9 -19.45 -2.95 M-12.3 -1.7 L-12.2 -1.8 -12.05 -1.8 -11.95 -1.7 -11.85 -1.65 -11.8 -1.55 -11.75 -1.45 -11.8 -1.4 -11.8 -1.35 -11.9 -1.2 -12.25 -1.15 -12.35 -1.25 -12.4 -1.35 -12.4 -1.45 -12.4 -1.6 -12.35 -1.65 -12.3 -1.7 M-7.8 -2.35 L-7.6 -2.1 -7.35 -1.7 -7.3 -1.25 Q-7.35 -1.0 -7.65 -0.9 L-7.8 -1.0 -7.9 -1.05 -7.9 -1.1 -8.0 -1.2 -8.05 -1.45 -8.15 -1.6 -8.35 -1.85 -8.4 -2.05 -8.4 -2.1 -8.35 -2.15 -8.35 -2.2 -8.25 -2.35 -8.1 -2.4 -8.0 -2.4 -7.8 -2.35 M-9.7 3.4 L-9.75 3.45 -9.75 3.5 -9.85 3.65 -10.4 3.45 -10.75 2.95 -11.05 2.55 -11.05 2.1 -11.0 2.05 -10.95 2.05 -10.9 2.0 -10.75 2.0 Q-10.55 1.95 -10.45 2.15 L-10.2 2.5 -9.9 2.85 -9.7 3.15 -9.7 3.4 M-4.75 8.6 L-4.7 8.55 -4.55 8.55 -4.45 8.45 -4.05 8.65 -3.85 9.0 -3.85 9.45 -4.1 9.7 -4.35 9.55 -4.45 9.45 -4.55 9.15 -4.8 8.85 -4.8 8.7 -4.8 8.65 -4.75 8.6 M-15.35 10.85 L-15.35 10.8 -15.25 10.75 -15.25 10.7 -15.2 10.65 -15.1 10.55 -14.95 10.55 -14.85 10.55 -14.75 10.65 Q-14.65 10.65 -14.6 10.75 L-14.5 10.9 -14.5 11.05 -14.65 11.2 -14.95 11.3 -15.25 11.0 -15.35 10.85 M-14.15 14.2 L-14.0 14.15 -13.9 14.2 -13.8 14.25 -13.7 14.35 -13.6 14.55 -13.6 14.95 -13.65 15.35 -13.95 15.65 Q-14.0 15.55 -14.1 15.55 L-14.15 15.5 -14.25 15.45 -14.3 15.35 -14.3 15.05 -14.3 14.85 -14.35 14.5 -14.3 14.35 -14.25 14.25 -14.15 14.2 M-11.45 17.25 L-11.3 17.3 Q-11.25 17.25 -11.2 17.35 L-11.15 17.4 -11.1 17.5 -11.1 17.6 -11.15 17.75 -11.3 17.9 -11.75 17.85 -11.75 17.8 -11.8 17.75 -11.8 17.6 -11.8 17.5 -11.8 17.4 -11.75 17.35 -11.7 17.3 -11.55 17.25 -11.45 17.25" fill="#bd9806" fill-rule="evenodd" stroke="none"/>
      <path d="M0.9 8.0 L0.85 7.9 0.7 7.85 Q0.65 7.75 0.6 7.8 L0.45 7.8 Q0.35 7.75 0.35 7.85 L0.25 7.85 0.15 7.9 0.1 7.95 0.1 8.05 0.1 8.2 0.3 8.4 0.6 8.45 0.7 8.4 0.8 8.4 0.9 8.3 0.9 8.2 0.95 8.1 0.95 8.05 0.9 8.0 M4.0 11.75 Q-8.25 6.05 -12.2 -5.4 -12.05 -3.45 -11.7 -2.6 L-10.25 0.2 -9.9 0.9 -6.4 5.5 -1.45 10.0 2.6 11.6 3.5 12.05 4.75 12.55 4.0 11.75 8.6 15.65 9.15 16.15 Q7.9 17.55 5.85 16.15 4.75 13.95 1.45 14.1 -3.35 13.7 -8.65 10.55 -16.2 5.55 -16.9 -8.45 -18.1 -4.6 -17.3 -1.05 -16.15 4.05 -13.5 6.75 -14.05 10.9 -8.3 20.55 -9.4 24.7 -16.4 13.5 L-19.85 3.45 Q-22.25 -3.05 -19.85 -9.55 L-13.9 -16.9 -13.9 -16.8 -14.65 -15.0 -13.8 -15.6 -14.1 -13.95 -13.55 -14.05 -13.3 -15.05 -13.2 -15.0 -13.45 -13.2 -12.65 -14.4 -12.25 -13.45 -11.05 -12.75 -11.0 -13.85 -10.9 -14.2 -10.75 -14.25 -10.75 -15.35 -10.6 -15.9 -10.6 -15.2 -9.15 -12.3 -8.6 -10.5 Q-6.65 -5.05 -1.7 2.2 2.0 6.15 12.15 12.6 10.8 12.0 10.1 14.0 L6.9 12.9 4.0 11.75 M-12.3 -1.7 L-12.35 -1.65 -12.4 -1.6 -12.4 -1.45 -12.4 -1.35 -12.35 -1.25 -12.25 -1.15 -11.9 -1.2 -11.8 -1.35 -11.8 -1.4 -11.75 -1.45 -11.8 -1.55 -11.85 -1.65 -11.95 -1.7 -12.05 -1.8 -12.2 -1.8 -12.3 -1.7 M-19.45 -2.95 L-19.6 -2.9 -19.7 -2.9 -19.75 -2.85 -19.8 -2.8 -19.8 -2.65 -19.75 -2.4 -19.7 -2.15 -19.6 -1.9 -19.45 -1.8 -19.3 -1.7 -19.2 -1.8 -19.15 -1.8 -19.1 -1.85 -19.05 -2.15 -19.1 -2.45 -19.2 -2.8 -19.45 -2.95 M-19.1 -6.95 L-19.15 -6.9 -19.15 -6.85 -19.2 -6.8 -19.2 -6.65 -19.15 -6.55 -19.15 -6.5 -19.05 -6.4 -18.65 -6.45 -18.55 -6.55 -18.5 -6.6 -18.5 -6.65 -18.55 -6.8 -18.6 -6.9 -18.65 -6.95 -18.85 -7.0 -18.95 -7.0 -19.1 -6.95 M-13.85 -8.95 L-13.85 -9.0 -13.9 -9.05 -13.95 -9.15 -14.1 -9.2 -14.3 -9.15 -14.35 -9.05 -14.4 -9.0 -14.4 -8.95 -14.45 -8.8 -14.45 -8.7 -14.45 -8.55 -14.4 -8.5 -14.4 -8.45 -14.3 -8.3 -14.1 -8.25 -13.9 -8.45 -13.8 -8.65 -13.8 -8.8 -13.85 -8.95 M-14.75 -11.9 L-14.75 -11.95 -14.8 -12.05 -14.9 -12.1 -15.0 -12.15 -15.15 -12.15 -15.25 -12.1 -15.5 -11.8 -15.65 -11.4 -15.6 -11.0 -15.35 -10.75 -15.2 -10.8 -14.95 -11.1 -14.85 -11.4 -14.75 -11.7 -14.75 -11.9 M-13.4 -12.1 L-13.55 -12.15 -13.7 -12.1 -13.8 -12.05 -13.85 -11.95 -13.9 -11.85 -13.95 -11.4 -13.95 -11.0 -13.95 -10.55 -13.9 -10.2 -13.8 -10.1 -13.6 -10.05 Q-13.25 -10.15 -13.3 -10.55 L-13.3 -11.05 -13.2 -11.5 -13.2 -11.9 -13.3 -11.95 -13.35 -12.05 -13.4 -12.1 M-11.55 -10.4 L-11.6 -10.35 -11.7 -10.25 -11.7 -10.1 -11.6 -9.95 -11.6 -9.8 -11.6 -9.75 -11.55 -9.7 -11.5 -9.6 -11.45 -9.55 -11.25 -9.5 -11.15 -9.55 -11.0 -9.8 -10.95 -10.1 -10.95 -10.25 -11.0 -10.35 -11.05 -10.4 -11.15 -10.5 -11.25 -10.55 -11.3 -10.55 -11.5 -10.5 -11.55 -10.4 M-12.6 -9.5 Q-12.9 -9.0 -12.2 -5.4 -12.9 -9.0 -12.6 -9.5 M-11.45 17.25 L-11.55 17.25 -11.7 17.3 -11.75 17.35 -11.8 17.4 -11.8 17.5 -11.8 17.6 -11.8 17.75 -11.75 17.8 -11.75 17.85 -11.3 17.9 -11.15 17.75 -11.1 17.6 -11.1 17.5 -11.15 17.4 -11.2 17.35 Q-11.25 17.25 -11.3 17.3 L-11.45 17.25 M-14.15 14.2 L-14.25 14.25 -14.3 14.35 -14.35 14.5 -14.3 14.85 -14.3 15.05 -14.3 15.35 -14.25 15.45 -14.15 15.5 -14.1 15.55 Q-14.0 15.55 -13.95 15.65 L-13.65 15.35 -13.6 14.95 -13.6 14.55 -13.7 14.35 -13.8 14.25 -13.9 14.2 -14.0 14.15 -14.15 14.2 M-15.35 10.85 L-15.25 11.0 -14.95 11.3 -14.65 11.2 -14.5 11.05 -14.5 10.9 -14.6 10.75 Q-14.65 10.65 -14.75 10.65 L-14.85 10.55 -14.95 10.55 -15.1 10.55 -15.2 10.65 -15.25 10.7 -15.25 10.75 -15.35 10.8 -15.35 10.85 M-4.75 8.6 L-4.8 8.65 -4.8 8.7 -4.8 8.85 -4.55 9.15 -4.45 9.45 -4.35 9.55 -4.1 9.7 -3.85 9.45 -3.85 9.0 -4.05 8.65 -4.45 8.45 -4.55 8.55 -4.7 8.55 -4.75 8.6 M-9.7 3.4 L-9.7 3.15 -9.9 2.85 -10.2 2.5 -10.45 2.15 Q-10.55 1.95 -10.75 2.0 L-10.9 2.0 -10.95 2.05 -11.0 2.05 -11.05 2.1 -11.05 2.55 -10.75 2.95 -10.4 3.45 -9.85 3.65 -9.75 3.5 -9.75 3.45 -9.7 3.4 M-7.8 -2.35 L-8.0 -2.4 -8.1 -2.4 -8.25 -2.35 -8.35 -2.2 -8.35 -2.15 -8.4 -2.1 -8.4 -2.05 -8.35 -1.85 -8.15 -1.6 -8.05 -1.45 -8.0 -1.2 -7.9 -1.1 -7.9 -1.05 -7.8 -1.0 -7.65 -0.9 Q-7.35 -1.0 -7.3 -1.25 L-7.35 -1.7 -7.6 -2.1 -7.8 -2.35" fill="url(#gradient1)" fill-rule="evenodd" stroke="none"/>
      <path d="M-12.2 -5.4 Q-8.25 6.05 4.0 11.75 L4.75 12.55 3.5 12.05 2.6 11.6 -1.45 10.0 -6.4 5.5 -9.9 0.9 -10.25 0.2 -11.7 -2.6 Q-12.05 -3.45 -12.2 -5.4 M-8.6 -10.5 Q-4.95 -3.7 0.25 2.75 L-1.7 2.2 Q-6.65 -5.05 -8.6 -10.5 M-13.5 6.75 Q-16.15 4.05 -17.3 -1.05 -18.1 -4.6 -16.9 -8.45 -16.2 5.55 -8.65 10.55 -11.2 9.0 -13.5 6.75" fill="#deb307" fill-rule="evenodd" stroke="none"/>
      <path d="M8.6 15.65 L4.0 11.75 6.9 12.9 10.1 14.0 Q10.8 15.4 11.25 15.6 L8.6 15.65" fill="url(#gradient2)" fill-rule="evenodd" stroke="none"/>
      <path d="M11.25 15.6 Q10.8 15.4 10.1 14.0 10.8 12.0 12.15 12.6 12.0 15.6 11.35 15.65 L11.25 15.6" fill="url(#gradient3)" fill-rule="evenodd" stroke="none"/>
      <path d="M-13.9 -16.9 Q-13.1 -19.95 -11.45 -21.7 L-9.85 -19.25 -10.45 -18.05 Q-11.05 -16.95 -10.6 -15.9 L-10.75 -15.35 -10.75 -14.25 -10.9 -14.2 -11.0 -13.85 -11.05 -12.75 -12.25 -13.45 -12.65 -14.4 -13.45 -13.2 -13.2 -15.0 -13.2 -15.1 -13.3 -15.05 -13.55 -14.05 -14.1 -13.95 -13.8 -15.6 -14.65 -15.0 -13.9 -16.8 -13.9 -16.9" fill="url(#gradient4)" fill-rule="evenodd" stroke="none"/>
      <path d="M4.0 11.75 Q-8.25 6.05 -12.2 -5.4 -12.9 -9.0 -12.6 -9.5 M4.0 11.75 L8.6 15.65 11.25 15.6 Q10.8 15.4 10.1 14.0 L6.9 12.9 4.0 11.75 M-8.65 10.55 Q-3.35 13.7 1.45 14.1 4.75 13.95 5.85 16.15 7.9 17.55 9.15 16.15 L8.6 15.65 M11.25 15.6 L11.35 15.65 Q12.0 15.6 12.15 12.6 10.8 12.0 10.1 14.0 M0.25 2.75 Q9.1 5.05 18.3 3.05 23.8 0.6 18.3 0.2 9.6 1.1 2.0 -1.95 -4.85 -4.3 -9.15 -12.3 M0.25 2.75 L-1.7 2.2 Q2.0 6.15 12.15 12.6 M-10.6 -15.9 Q-11.05 -16.95 -10.45 -18.05 L-9.85 -19.25 -11.45 -21.7 Q-13.1 -19.95 -13.9 -16.9 M-10.6 -15.9 L-10.6 -15.2 -9.15 -12.3 M-13.5 6.75 Q-16.15 4.05 -17.3 -1.05 -18.1 -4.6 -16.9 -8.45 M-8.65 10.55 Q-11.2 9.0 -13.5 6.75 -14.05 10.9 -8.3 20.55 -9.4 24.7 -16.4 13.5 L-19.85 3.45 Q-22.25 -3.05 -19.85 -9.55 L-13.9 -16.9" fill="none" stroke="#e5ad0e" stroke-linecap="round" stroke-linejoin="miter" stroke-width="0.25"/>
    </g>
    <radialGradient cx="0" cy="0" gradientTransform="matrix(0.0185, 0.0, 0.0, 0.0244, 4.55, 0.5)" gradientUnits="userSpaceOnUse" id="gradient0" r="819.2" spreadMethod="pad">
      <stop offset="0.0" stop-color="#f7c200"/>
      <stop offset="1.0" stop-color="#fff077"/>
    </radialGradient>
    <radialGradient cx="0" cy="0" gradientTransform="matrix(0.0439, 0.0, 0.0, 0.0439, -14.35, -11.05)" gradientUnits="userSpaceOnUse" id="gradient1" r="819.2" spreadMethod="pad">
      <stop offset="0.0" stop-color="#f7c200"/>
      <stop offset="1.0" stop-color="#fff077"/>
    </radialGradient>
    <radialGradient cx="0" cy="0" gradientTransform="matrix(0.0072, 0.0, 0.0, 0.0072, 9.1, 14.65)" gradientUnits="userSpaceOnUse" id="gradient2" r="819.2" spreadMethod="pad">
      <stop offset="0.0" stop-color="#f7c200"/>
      <stop offset="1.0" stop-color="#fff077"/>
    </radialGradient>
    <linearGradient gradientTransform="matrix(0.0013, 0.0, 0.0, 0.0019, 11.15, 14.0)" gradientUnits="userSpaceOnUse" id="gradient3" spreadMethod="pad" x1="-819.2" x2="819.2">
      <stop offset="0.0" stop-color="#bd9806"/>
      <stop offset="1.0" stop-color="#7b6304"/>
    </linearGradient>
    <linearGradient gradientTransform="matrix(0.0029, 0.0, 0.0, 0.0054, -12.25, -17.25)" gradientUnits="userSpaceOnUse" id="gradient4" spreadMethod="pad" x1="-819.2" x2="819.2">
      <stop offset="0.0" stop-color="#bd9806"/>
      <stop offset="1.0" stop-color="#7b6304"/>
    </linearGradient>
  </defs>
</svg>
