<?xml version="1.0" encoding="UTF-8" standalone="no"?>
<svg xmlns:xlink="http://www.w3.org/1999/xlink" height="23.25px" width="22.05px" xmlns="http://www.w3.org/2000/svg">
  <g transform="matrix(1.0, 0.0, 0.0, 1.0, 11.1, 11.6)">
    <use height="23.25" transform="matrix(1.0, 0.0, 0.0, 1.0, -11.1, -11.6)" width="22.05" xlink:href="#shape0"/>
  </g>
  <defs>
    <g id="shape0" transform="matrix(1.0, 0.0, 0.0, 1.0, 11.1, 11.6)">
      <path d="M7.6 -4.7 Q8.75 -6.35 10.6 -6.85 11.0 -6.85 10.75 -6.65 8.8 -5.35 6.8 -2.75 L6.45 -0.15 4.3 0.55 4.5 -0.65 4.95 -2.55 Q5.75 -3.9 7.6 -4.7 M-0.05 2.75 L-0.2 2.65 Q-1.15 1.9 -1.25 0.8 L-1.0 -0.95 -0.65 -1.8 -0.5 -2.15 -0.45 -2.3 1.35 0.1 -0.05 2.75" fill="#e1d884" fill-rule="evenodd" stroke="none"/>
      <path d="M-0.45 -2.35 L-0.35 -2.55 Q0.7 -3.95 3.25 -3.8 5.25 -4.8 7.6 -4.7 5.75 -3.9 4.95 -2.55 L4.5 -0.65 4.3 0.55 1.55 0.35 1.35 0.1 -0.45 -2.3 -0.45 -2.35" fill="#beaf30" fill-rule="evenodd" stroke="none"/>
      <path d="M7.6 -4.7 Q5.25 -4.8 3.25 -3.8 0.7 -3.95 -0.35 -2.55 L-0.45 -2.35 -0.5 -2.15 -0.65 -1.8 -1.0 -0.95 -1.25 0.8 Q-1.15 1.9 -0.2 2.65 L-0.05 2.75 Q0.75 3.4 0.55 3.7 -0.1 4.5 -0.1 5.6 -0.1 7.3 0.45 7.7 L2.05 8.9 Q3.15 9.65 4.8 10.25 L8.8 8.5 Q7.95 9.45 6.9 10.2 4.55 11.75 3.5 11.3 1.1 10.25 -1.65 11.2 -4.45 12.1 -7.2 8.5 -9.95 4.9 -10.7 -0.65 -11.45 -6.2 -8.25 -8.85 -5.05 -11.55 -2.15 -10.7 L0.85 -9.85 Q6.05 -11.5 9.2 -8.55 L10.6 -6.85 Q8.75 -6.35 7.6 -4.7" fill="url(#gradient0)" fill-rule="evenodd" stroke="none"/>
      <path d="M0.55 3.7 Q0.75 3.4 -0.05 2.75 L1.35 0.1 1.55 0.35 4.3 0.55 6.45 -0.15 4.95 2.35 5.35 3.75 Q3.2 5.35 2.6 5.35 L0.55 3.7 M-0.5 -2.15 L-0.45 -2.35 -0.45 -2.3 -0.5 -2.15 M3.35 2.95 L3.4 3.05 3.4 3.1 3.45 3.15 3.5 3.2 3.65 3.25 3.75 3.25 3.85 3.15 3.95 3.0 3.95 2.85 3.95 2.65 3.95 2.55 3.9 2.5 3.85 2.45 3.8 2.4 3.65 2.35 3.55 2.35 3.5 2.4 3.45 2.4 3.4 2.5 3.35 2.65 3.35 2.8 3.35 2.95" fill="#e7de98" fill-rule="evenodd" stroke="none"/>
      <path d="M4.8 10.25 Q3.15 9.65 2.05 8.9 L0.45 7.7 Q-0.1 7.3 -0.1 5.6 -0.1 4.5 0.55 3.7 L2.6 5.35 Q3.2 5.35 5.35 3.75 L5.65 4.75 2.8 5.9 Q1.85 8.0 4.8 10.25" fill="#efe9ba" fill-rule="evenodd" stroke="none"/>
      <path d="M3.35 2.95 L3.35 2.8 3.35 2.65 3.4 2.5 3.45 2.4 3.5 2.4 3.55 2.35 3.65 2.35 3.8 2.4 3.85 2.45 3.9 2.5 3.95 2.55 3.95 2.65 3.95 2.85 3.95 3.0 3.85 3.15 3.75 3.25 3.65 3.25 3.5 3.2 3.45 3.15 3.4 3.1 3.4 3.05 3.35 2.95" fill="#663300" fill-rule="evenodd" stroke="none"/>
      <path d="M8.8 8.5 L4.8 10.25 Q1.85 8.0 2.8 5.9 L5.65 4.75 Q5.35 7.15 6.05 7.75 6.8 8.3 8.8 8.5" fill="#f5eed6" fill-rule="evenodd" stroke="none"/>
      <path d="M6.45 -0.15 L6.8 -2.75 Q8.8 -5.35 10.75 -6.65 11.0 -6.85 10.6 -6.85 M5.35 3.75 L5.65 4.75 Q5.35 7.15 6.05 7.75 6.8 8.3 8.8 8.5 M5.35 3.75 L4.95 2.35 6.45 -0.15" fill="none" stroke="#cfce98" stroke-linecap="round" stroke-linejoin="miter" stroke-width="0.25"/>
      <path d="M-0.45 -2.35 L-0.35 -2.55 Q0.7 -3.95 3.25 -3.8 5.25 -4.8 7.6 -4.7 8.75 -6.35 10.6 -6.85 L9.2 -8.55 Q6.05 -11.5 0.85 -9.85 L-2.15 -10.7 Q-5.05 -11.55 -8.25 -8.85 -11.45 -6.2 -10.7 -0.65 -9.95 4.9 -7.2 8.5 -4.45 12.1 -1.65 11.2 1.1 10.25 3.5 11.3 4.55 11.75 6.9 10.2 7.95 9.45 8.8 8.5 L4.8 10.25 Q3.15 9.65 2.05 8.9 L0.45 7.7 Q-0.1 7.3 -0.1 5.6 -0.1 4.5 0.55 3.7 0.75 3.4 -0.05 2.75 L-0.2 2.65 Q-1.15 1.9 -1.25 0.8 L-1.0 -0.95 -0.65 -1.8 -0.5 -2.15 -0.45 -2.35 M-0.5 -2.15 L-0.45 -2.3" fill="none" stroke="#bdbc0d" stroke-linecap="round" stroke-linejoin="round" stroke-width="0.5"/>
      <path d="M1.55 -5.5 L-0.3 -5.5 Q-2.85 -6.75 -5.4 -6.75 -5.05 -7.75 -3.7 -8.55 -1.9 -9.65 0.7 -9.65 3.3 -9.65 5.15 -8.55 6.3 -7.85 6.7 -7.0 4.1 -7.05 1.55 -5.5" fill="url(#gradient1)" fill-rule="evenodd" stroke="none"/>
      <path d="M2.6 -11.35 Q1.35 -9.55 0.7 -6.85 L0.45 -5.9 0.55 -6.85 Q1.05 -10.05 2.0 -11.35 L2.6 -11.35" fill="#663300" fill-rule="evenodd" stroke="none"/>
      <path d="M2.6 -11.35 Q1.35 -9.55 0.7 -6.85 L0.45 -5.9 0.55 -6.85 Q1.05 -10.05 2.0 -11.35 L2.6 -11.35 Z" fill="none" stroke="#663300" stroke-linecap="round" stroke-linejoin="round" stroke-width="0.5"/>
    </g>
    <radialGradient cx="0" cy="0" gradientTransform="matrix(0.0206, 0.0, 0.0, 0.0206, -1.7, -4.0)" gradientUnits="userSpaceOnUse" id="gradient0" r="819.2" spreadMethod="pad">
      <stop offset="0.23529411764705882" stop-color="#eeee11"/>
      <stop offset="1.0" stop-color="#cece0f"/>
    </radialGradient>
    <radialGradient cx="0" cy="0" gradientTransform="matrix(0.0083, 0.0, 0.0, 0.005, 1.25, -5.95)" gradientUnits="userSpaceOnUse" id="gradient1" r="819.2" spreadMethod="pad">
      <stop offset="0.0" stop-color="#9e9d0c"/>
      <stop offset="0.7176470588235294" stop-color="#e7e610"/>
    </radialGradient>
  </defs>
</svg>
