<?xml version="1.0" encoding="UTF-8" standalone="no"?>
<svg xmlns:xlink="http://www.w3.org/1999/xlink" height="30.2px" width="41.2px" xmlns="http://www.w3.org/2000/svg">
  <g transform="matrix(1.0, 0.0, 0.0, 1.0, 20.6, 15.1)">
    <use height="30.2" transform="matrix(1.0, 0.0, 0.0, 1.0, -20.6, -15.1)" width="41.2" xlink:href="#shape0"/>
  </g>
  <defs>
    <g id="shape0" transform="matrix(1.0, 0.0, 0.0, 1.0, 20.6, 15.1)">
      <path d="M-19.7 7.7 Q-20.45 7.25 -20.45 6.35 -19.25 0.95 -11.3 -5.65 -2.75 -12.8 4.05 -14.9 4.8 -15.1 5.15 -14.4 L7.95 -9.15 8.4 -8.3 8.5 -8.2 10.3 -6.75 12.9 -4.15 16.35 0.75 20.45 7.4 20.45 7.55 17.65 7.7 Q15.2 7.9 14.0 9.2 L13.85 9.35 Q12.6 8.1 10.55 8.1 7.9 8.1 6.65 10.05 5.75 11.4 5.75 12.95 L5.95 14.2 Q1.3 13.0 -3.15 11.3 -9.2 9.0 -11.0 8.8 L-13.25 8.35 -13.4 8.3 -13.45 8.25 -15.8 6.55 Q-16.85 5.9 -18.5 5.9 -20.1 5.9 -19.95 6.95 L-19.7 7.7" fill="url(#gradient0)" fill-rule="evenodd" stroke="none"/>
      <path d="M-19.7 7.7 L-19.95 6.95 Q-20.1 5.9 -18.5 5.9 -16.85 5.9 -15.8 6.55 L-13.45 8.25 -13.4 8.3 -13.25 8.35 -11.0 8.8 Q-9.2 9.0 -3.15 11.3 1.3 13.0 5.95 14.2 L5.75 12.95 Q5.75 11.4 6.65 10.05 7.9 8.1 10.55 8.1 12.6 8.1 13.85 9.35 L14.0 9.2 Q15.2 7.9 17.65 7.7 L20.45 7.55 20.45 7.95 17.85 8.15 Q15.7 8.35 14.9 9.1 L14.05 9.95 Q12.8 8.7 10.75 8.7 8.1 8.7 6.85 10.65 5.95 12.0 5.95 13.55 L6.1 14.7 6.2 14.95 5.9 14.85 -0.35 13.25 -5.7 11.9 -10.1 10.3 -14.95 8.85 -18.2 8.4 Q-19.3 8.25 -19.7 7.7" fill="#9d6b33" fill-rule="evenodd" stroke="none"/>
      <path d="M20.45 7.55 L20.45 7.4 16.35 0.75 12.9 -4.15 10.3 -6.75 8.5 -8.2 8.4 -8.3 7.95 -9.15 5.15 -14.4 Q4.8 -15.1 4.05 -14.9 -2.75 -12.8 -11.3 -5.65 -19.25 0.95 -20.45 6.35 -20.45 7.25 -19.7 7.7" fill="none" stroke="#9d6b33" stroke-linecap="round" stroke-linejoin="round" stroke-width="0.35000000000000003"/>
      <path d="M-19.7 7.7 L-19.95 6.95 Q-20.1 5.9 -18.5 5.9 -16.85 5.9 -15.8 6.55 L-13.45 8.25 -13.4 8.3 -13.25 8.35 -11.0 8.8 Q-9.2 9.0 -3.15 11.3 1.3 13.0 5.95 14.2 L5.75 12.95 Q5.75 11.4 6.65 10.05 7.9 8.1 10.55 8.1 12.6 8.1 13.85 9.35 L14.0 9.2 Q15.2 7.9 17.65 7.7 L20.45 7.55 20.45 7.95 17.85 8.15 Q15.7 8.35 14.9 9.1 L14.05 9.95 Q12.8 8.7 10.75 8.7 8.1 8.7 6.85 10.65 5.95 12.0 5.95 13.55 L6.1 14.7 6.2 14.95 5.9 14.85 -0.35 13.25 -5.7 11.9 -10.1 10.3 -14.95 8.85 -18.2 8.4 Q-19.3 8.25 -19.7 7.7" fill="none" stroke="#80552b" stroke-linecap="round" stroke-linejoin="round" stroke-width="0.35000000000000003"/>
      <path d="M6.0 -8.65 Q6.9 -8.65 6.9 -8.0 L3.5 -5.35 2.85 -6.0 Q2.85 -6.3 3.95 -7.4 5.15 -8.65 6.0 -8.65 M4.9 -3.0 L4.35 0.35 Q4.25 2.7 3.45 3.6 0.65 5.9 -0.15 6.95 L-1.7 8.85 -1.7 9.2 Q-1.7 10.75 -3.3 10.75 -4.2 10.75 -4.6 10.0 L-4.85 9.15 Q-4.85 8.05 -4.1 7.7 L-0.45 1.95 4.25 -4.15 Q5.1 -4.15 4.9 -3.0 M11.35 -2.75 Q12.45 -2.75 13.3 -0.8 13.3 0.85 10.85 5.5 9.4 8.2 7.9 8.6 6.35 8.95 6.05 10.3 5.75 11.6 5.75 10.8 L6.55 7.65 Q7.3 5.05 7.6 4.45 L8.95 0.7 Q9.85 -1.55 10.6 -1.6 10.6 -2.75 11.35 -2.75 M10.25 1.1 L10.5 0.4 10.2 1.1 10.25 1.1 M3.0 1.95 L2.95 2.1 2.95 2.15 3.05 1.9 3.0 1.95 M-3.0 -0.4 Q-3.65 -0.4 -3.65 -1.1 L-3.0 -2.45 Q-2.2 -3.65 -1.35 -3.65 -0.7 -3.65 -0.75 -2.95 L-3.0 -0.4 M-5.35 1.35 Q-5.35 2.55 -6.35 2.55 -7.0 2.55 -7.0 1.85 -7.0 0.7 -6.0 0.7 -5.35 0.7 -5.35 1.35" fill="#fedf9a" fill-rule="evenodd" stroke="none"/>
      <path d="M1.6 -4.35 Q3.25 -5.75 5.85 -6.1 8.4 -6.4 10.35 -5.5 12.3 -4.6 12.5 -3.05 12.75 -1.45 11.1 -0.05 9.45 1.35 6.9 1.65 4.3 2.0 2.35 1.1 0.4 0.2 0.15 -1.4 -0.05 -2.95 1.6 -4.35" fill="url(#gradient1)" fill-rule="evenodd" stroke="none"/>
      <path d="M8.55 6.95 L9.55 8.2 Q7.65 8.5 6.65 10.05 5.75 11.4 5.75 12.95 L5.95 14.2 6.0 14.4 Q4.3 13.9 2.85 12.4 1.2 10.7 0.9 8.7 0.55 6.7 1.75 5.55 2.9 4.4 4.9 4.85 6.9 5.25 8.55 6.95" fill="url(#gradient2)" fill-rule="evenodd" stroke="none"/>
      <path d="M7.1 -10.7 L7.35 -10.25 6.8 -10.25 5.5 -10.2 7.1 -10.7 M-3.3 -6.35 L-3.2 -6.4 -0.4 -7.5 0.4 -8.4 1.7 -9.1 3.0 -9.85 5.5 -10.2 4.7 -9.95 Q3.8 -9.35 2.7 -9.0 2.2 -9.0 1.85 -8.45 L0.5 -6.9 -1.6 -6.45 -2.65 -5.2 -5.1 -1.75 -6.55 -1.0 Q-6.85 -0.7 -8.45 0.45 L-8.9 0.8 Q-9.3 1.2 -9.15 1.8 -9.4 3.15 -10.2 3.3 -11.95 3.45 -12.6 5.4 L-13.3 6.75 -12.9 8.55 Q-13.85 8.3 -14.5 7.45 -14.1 6.6 -13.25 5.95 -12.8 5.55 -12.65 4.4 -12.3 3.4 -11.35 3.05 -10.15 2.45 -10.35 1.7 -10.15 0.5 -9.35 -0.45 L-8.6 -0.75 Q-7.3 -1.0 -6.6 -2.15 -5.95 -3.3 -5.3 -3.4 -4.95 -3.95 -4.55 -5.0 L-4.5 -5.05 -3.3 -6.35 M6.55 -9.85 Q6.55 -10.25 7.0 -10.25 7.35 -10.25 7.35 -9.85 7.35 -9.45 7.0 -9.45 6.55 -9.45 6.55 -9.85 M-6.55 -4.15 Q-6.55 -4.55 -6.1 -4.55 -5.75 -4.55 -5.75 -4.15 -5.75 -3.75 -6.1 -3.75 -6.55 -3.75 -6.55 -4.15 M-1.25 -5.25 Q-1.7 -5.25 -1.7 -5.65 -1.7 -6.05 -1.25 -6.05 -0.9 -6.05 -0.9 -5.65 -0.9 -5.25 -1.25 -5.25 M-11.2 4.65 Q-11.65 4.65 -11.65 4.25 -11.65 3.85 -11.2 3.85 -10.85 3.85 -10.85 4.25 -10.85 4.65 -11.2 4.65" fill="#970202" fill-opacity="0.8235294" fill-rule="evenodd" stroke="none"/>
      <path d="M7.1 -10.7 L5.5 -10.2 3.0 -9.85 1.7 -9.1 0.4 -8.4 -0.4 -7.5 -3.2 -6.4 -3.3 -6.35 -3.15 -6.5 -2.1 -8.05 -0.35 -8.25 Q0.3 -8.25 2.65 -10.9 L5.2 -11.05 6.9 -11.1 7.1 -10.7 M-4.55 -5.0 Q-4.95 -3.95 -5.3 -3.4 -5.95 -3.3 -6.6 -2.15 -7.3 -1.0 -8.6 -0.75 L-9.35 -0.45 Q-10.15 0.5 -10.35 1.7 -10.15 2.45 -11.35 3.05 -12.3 3.4 -12.65 4.4 -12.8 5.55 -13.25 5.95 -14.1 6.6 -14.5 7.45 L-15.05 7.15 -15.1 6.6 -15.0 6.05 Q-14.8 5.75 -13.8 5.25 -13.25 4.5 -13.55 3.55 -13.2 2.85 -13.05 2.85 -11.1 1.85 -11.1 1.55 -11.1 -0.9 -10.35 -1.0 -8.05 -1.35 -7.75 -2.45 -7.45 -3.45 -6.8 -3.4 L-6.45 -3.15 -4.55 -5.0" fill="#922307" fill-opacity="0.69803923" fill-rule="evenodd" stroke="none"/>
      <path d="M-6.6 8.6 L-9.05 8.3 Q-10.05 7.8 -10.2 6.95 -10.3 6.1 -9.4 5.35 -8.55 4.65 -7.15 4.45 -5.75 4.25 -4.7 4.75 -3.65 5.2 -3.55 6.05 -3.4 6.9 -4.35 7.7 -5.2 8.4 -6.6 8.6" fill="url(#gradient3)" fill-rule="evenodd" stroke="none"/>
      <path d="M17.45 7.7 Q16.8 8.3 15.7 8.05 14.6 7.85 13.75 6.9 12.85 6.0 12.65 4.9 12.5 3.8 13.15 3.2 13.8 2.55 14.85 2.85 15.95 3.05 16.85 3.95 17.7 4.9 17.9 6.0 18.1 7.05 17.45 7.7" fill="url(#gradient4)" fill-rule="evenodd" stroke="none"/>
    </g>
    <radialGradient cx="0" cy="0" gradientTransform="matrix(0.044, 0.0, 0.0, 0.044, 12.25, 16.6)" gradientUnits="userSpaceOnUse" id="gradient0" r="819.2" spreadMethod="pad">
      <stop offset="0.0" stop-color="#d59b42"/>
      <stop offset="0.2784313725490196" stop-color="#f6c864"/>
      <stop offset="0.47058823529411764" stop-color="#f7da99"/>
      <stop offset="0.6980392156862745" stop-color="#ffd46d"/>
      <stop offset="1.0" stop-color="#9d4f07"/>
    </radialGradient>
    <radialGradient cx="0" cy="0" gradientTransform="matrix(0.0077, -0.001, 6.0E-4, 0.0049, 6.35, -2.25)" gradientUnits="userSpaceOnUse" id="gradient1" r="819.2" spreadMethod="pad">
      <stop offset="0.0" stop-color="#9d4f07" stop-opacity="0.8509804"/>
      <stop offset="1.0" stop-color="#ffd46d" stop-opacity="0.0"/>
    </radialGradient>
    <radialGradient cx="0" cy="0" gradientTransform="matrix(0.0036, -0.0034, 0.005, 0.0052, 5.7, 9.7)" gradientUnits="userSpaceOnUse" id="gradient2" r="819.2" spreadMethod="pad">
      <stop offset="0.0" stop-color="#9d4f07" stop-opacity="0.8509804"/>
      <stop offset="1.0" stop-color="#ffd46d" stop-opacity="0.0"/>
    </radialGradient>
    <radialGradient cx="0" cy="0" gradientTransform="matrix(0.0042, -5.0E-4, 4.0E-4, 0.0027, -6.9, 6.5)" gradientUnits="userSpaceOnUse" id="gradient3" r="819.2" spreadMethod="pad">
      <stop offset="0.0" stop-color="#9d4f07" stop-opacity="0.8509804"/>
      <stop offset="1.0" stop-color="#ffd46d" stop-opacity="0.0"/>
    </radialGradient>
    <radialGradient cx="0" cy="0" gradientTransform="matrix(0.0019, -0.0018, 0.0027, 0.0028, 15.3, 5.45)" gradientUnits="userSpaceOnUse" id="gradient4" r="819.2" spreadMethod="pad">
      <stop offset="0.0" stop-color="#9d4f07" stop-opacity="0.8509804"/>
      <stop offset="1.0" stop-color="#ffd46d" stop-opacity="0.0"/>
    </radialGradient>
  </defs>
</svg>
