<?xml version="1.0" encoding="UTF-8" standalone="no"?>
<svg xmlns:xlink="http://www.w3.org/1999/xlink" height="30.05px" width="34.1px" xmlns="http://www.w3.org/2000/svg">
  <g transform="matrix(1.0, 0.0, 0.0, 1.0, 17.25, 14.95)">
    <use height="30.05" transform="matrix(1.0, 0.0, 0.0, 1.0, -17.25, -14.95)" width="34.1" xlink:href="#shape0"/>
  </g>
  <defs>
    <g id="shape0" transform="matrix(1.0, 0.0, 0.0, 1.0, 17.25, 14.95)">
      <path d="M7.6 3.65 Q6.5 5.95 3.75 5.95 L2.3 5.65 -2.1 7.05 Q-4.3 7.6 -6.3 9.0 -8.35 10.35 -9.4 12.2 -10.5 13.95 -13.3 14.55 -16.15 15.1 -16.55 13.45 -16.95 11.75 -16.6 10.25 -16.3 8.75 -14.8 8.65 -13.35 8.5 -12.5 8.0 L-10.35 6.4 Q-9.1 5.3 -7.6 2.6 -6.15 -0.1 -5.4 -2.35 -4.7 -4.6 -3.45 -6.7 -2.2 -8.9 -0.75 -10.05 0.7 -11.3 3.95 -13.1 6.25 -14.45 7.2 -14.65 L8.0 -14.3 Q11.85 -13.8 12.7 -11.0 13.5 -8.2 12.75 -6.1 L10.5 -0.95 Q8.9 2.1 7.6 3.65 M-6.7 5.9 L-6.8 5.95 -6.8 6.0 -6.85 6.05 -6.85 6.1 -6.85 6.2 -6.85 6.3 -6.8 6.35 -6.75 6.4 -6.7 6.45 -6.65 6.5 -6.5 6.55 -6.3 6.6 -6.35 6.65 -6.4 6.8 -6.4 6.95 -6.4 7.05 -6.4 7.15 -6.4 7.25 -6.35 7.3 -6.3 7.35 -5.65 7.5 -5.5 7.45 -5.4 7.4 -5.35 7.3 -5.35 7.15 -5.4 7.05 -5.45 7.0 -5.5 6.95 -5.65 6.9 -5.7 6.85 -5.7 6.75 -5.7 6.55 -5.7 6.45 -5.7 6.3 -5.7 6.2 -5.75 6.15 -5.8 6.1 -6.0 6.0 -6.15 5.95 -6.35 5.9 -6.55 5.85 -6.7 5.9 M-7.8 4.45 L-7.85 4.5 -7.85 4.65 -8.0 4.7 -8.1 4.7 -8.2 4.75 -8.3 4.85 -8.35 5.15 -8.35 5.45 -8.35 5.65 -8.35 5.8 -8.4 5.85 -8.6 6.0 -8.7 6.2 -8.75 6.3 -8.75 6.35 Q-8.7 6.65 -8.4 6.6 L-7.95 6.4 -7.75 6.2 -7.7 6.05 -7.7 5.9 -7.7 5.7 -7.7 5.55 -7.75 5.45 -7.75 5.4 -7.7 5.35 -7.5 5.25 -7.4 5.2 -7.35 5.2 -7.3 5.15 -7.25 5.1 -7.25 4.9 -7.25 4.75 -7.25 4.55 -7.25 4.45 -7.3 4.4 -7.35 4.35 -7.4 4.3 -7.55 4.25 -7.65 4.25 -7.7 4.3 -7.75 4.3 -7.8 4.4 -7.8 4.45 M-3.5 3.85 L-3.75 3.8 -3.9 3.85 -4.2 4.05 -4.35 4.35 -4.4 4.6 -4.35 4.75 -4.25 4.8 -4.0 4.8 -3.9 4.8 -3.85 4.7 -3.8 4.65 -3.75 4.7 -3.75 4.85 -3.75 4.95 -3.75 5.05 -3.7 5.1 -3.7 5.15 -3.6 5.2 -3.05 5.25 -2.95 5.25 -2.9 5.25 -2.9 5.35 -2.85 5.4 -2.8 5.45 -2.75 5.5 -2.6 5.55 -2.5 5.5 -2.4 5.45 -2.3 5.3 -2.3 5.25 -2.25 5.2 -2.25 5.1 -2.4 4.85 -2.75 4.6 -3.1 4.55 -3.15 4.55 -3.15 4.25 -3.25 4.0 -3.5 3.85 M-3.0 0.55 L-3.05 0.5 -3.2 0.45 -3.3 0.45 -3.4 0.5 -3.45 0.6 -3.5 0.65 -3.55 0.7 -3.75 0.7 -3.95 0.85 -4.0 0.9 -4.05 0.95 -4.05 1.1 -4.0 1.2 -3.9 1.3 -3.85 1.35 -3.8 1.45 -3.3 1.45 -3.15 1.4 -3.1 1.4 -3.0 1.2 -3.0 1.05 -2.95 0.85 -2.9 0.75 -2.9 0.65 -2.95 0.6 -3.0 0.55 M1.35 2.8 L0.35 2.8 0.2 2.85 0.1 2.9 0.1 2.95 -0.05 3.25 -0.1 3.3 -0.2 3.5 -0.35 3.8 -0.4 4.0 -0.4 4.05 -0.45 4.0 -0.55 3.9 -0.55 3.85 -0.6 3.8 -0.65 3.75 -0.7 3.7 -0.85 3.65 -0.95 3.7 -1.05 3.7 -1.1 3.75 -1.15 3.9 -1.15 3.95 -1.15 4.05 -1.05 4.3 -0.85 4.5 -0.75 4.6 -0.7 4.7 -0.3 4.7 0.2 4.3 0.25 4.25 0.35 3.9 0.45 3.55 0.5 3.5 0.5 3.45 1.45 3.35 1.5 3.35 1.6 3.3 1.6 3.25 1.65 3.2 1.65 3.1 1.65 3.0 1.35 2.8 M3.35 2.8 L3.35 2.95 3.35 3.1 3.35 3.3 3.35 3.4 3.35 3.45 3.2 3.55 2.9 3.7 2.85 3.85 2.85 3.95 2.95 4.05 3.9 3.95 3.95 3.9 4.0 3.6 3.95 3.2 3.95 3.15 4.55 3.05 4.65 3.05 4.7 3.0 4.75 2.95 4.8 2.9 4.85 2.85 4.85 2.8 4.85 2.7 4.8 2.6 4.55 2.45 3.7 2.45 3.55 2.5 3.5 2.55 3.45 2.6 3.4 2.65 3.4 2.7 3.35 2.8 M8.65 -3.4 L8.4 -3.25 8.35 -3.2 8.35 -3.15 8.4 -2.9 8.8 -2.65 9.4 -2.65 9.45 -2.7 9.6 -2.9 9.75 -3.05 9.8 -3.15 9.8 -3.2 9.8 -3.3 9.75 -3.35 9.7 -3.4 9.65 -3.45 9.5 -3.5 9.4 -3.5 9.25 -3.45 9.2 -3.4 9.1 -3.35 9.05 -3.3 8.95 -3.35 8.65 -3.4 M3.75 -0.4 L3.65 -0.4 3.6 -0.3 3.55 -0.15 3.5 -0.05 3.5 0.2 3.5 0.4 3.6 0.5 3.65 0.6 3.9 0.55 4.0 0.55 4.05 0.5 4.05 0.4 4.1 0.35 4.1 0.3 Q4.75 0.35 5.1 -0.15 L5.15 -0.4 5.2 -0.45 5.25 -0.5 5.45 -0.55 5.55 -0.55 5.65 -0.6 5.7 -0.65 5.7 -0.7 5.75 -0.75 5.75 -0.85 5.75 -0.9 5.7 -1.0 5.6 -1.1 5.45 -1.15 5.05 -1.15 4.8 -1.05 4.65 -0.9 4.6 -0.7 4.55 -0.6 4.55 -0.5 3.75 -0.4 M-11.0 9.85 L-11.25 9.55 -11.5 9.45 -11.6 9.45 Q-12.2 9.6 -12.2 10.25 L-12.1 10.9 Q-12.0 11.55 -11.45 11.15 -11.15 10.9 -11.25 10.5 L-11.0 10.2 -11.0 9.85 M-12.05 8.6 L-12.4 8.45 Q-13.0 8.35 -13.2 8.85 L-13.35 9.3 Q-13.45 9.75 -13.05 9.85 -12.5 10.05 -12.4 9.45 L-12.1 9.3 -11.9 8.95 -12.05 8.6 M-11.05 7.1 L-11.35 7.25 -11.95 8.35 Q-12.1 8.7 -11.7 8.7 -11.1 8.65 -10.75 8.1 -10.3 7.35 -11.05 7.1 M-15.75 10.3 L-15.75 10.65 -15.85 10.8 Q-16.25 11.35 -16.1 12.05 -16.0 12.7 -15.5 12.25 L-15.3 12.15 Q-15.2 12.55 -14.75 12.25 L-14.3 11.65 -14.15 11.25 -13.8 11.25 Q-13.35 11.15 -13.25 10.65 -13.2 10.05 -13.85 10.15 -14.35 10.2 -14.4 10.7 L-14.4 10.75 -14.65 10.6 -14.55 10.4 Q-14.3 9.7 -15.0 9.45 -15.55 9.65 -15.75 10.3 M-9.45 9.0 Q-9.85 8.95 -10.1 9.25 -10.5 9.7 -9.9 9.95 -9.4 10.15 -9.1 9.7 -8.85 9.15 -9.45 9.0" fill="url(#gradient0)" fill-rule="evenodd" stroke="none"/>
      <path d="M3.75 -0.4 L4.55 -0.5 4.55 -0.6 4.6 -0.7 4.65 -0.9 4.8 -1.05 5.05 -1.15 5.45 -1.15 5.6 -1.1 5.7 -1.0 5.75 -0.9 5.75 -0.85 5.75 -0.75 5.7 -0.7 5.7 -0.65 5.65 -0.6 5.55 -0.55 5.45 -0.55 5.25 -0.5 5.2 -0.45 5.15 -0.4 5.1 -0.15 Q4.75 0.35 4.1 0.3 L4.1 0.35 4.05 0.4 4.05 0.5 4.0 0.55 3.9 0.55 3.65 0.6 3.6 0.5 3.5 0.4 3.5 0.2 3.5 -0.05 3.55 -0.15 3.6 -0.3 3.65 -0.4 3.75 -0.4 M8.65 -3.4 L8.95 -3.35 9.05 -3.3 9.1 -3.35 9.2 -3.4 9.25 -3.45 9.4 -3.5 9.5 -3.5 9.65 -3.45 9.7 -3.4 9.75 -3.35 9.8 -3.3 9.8 -3.2 9.8 -3.15 9.75 -3.05 9.6 -2.9 9.45 -2.7 9.4 -2.65 8.8 -2.65 8.4 -2.9 8.35 -3.15 8.35 -3.2 8.4 -3.25 8.65 -3.4 M3.35 2.8 L3.4 2.7 3.4 2.65 3.45 2.6 3.5 2.55 3.55 2.5 3.7 2.45 4.55 2.45 4.8 2.6 4.85 2.7 4.85 2.8 4.85 2.85 4.8 2.9 4.75 2.95 4.7 3.0 4.65 3.05 4.55 3.05 3.95 3.15 3.95 3.2 4.0 3.6 3.95 3.9 3.9 3.95 2.95 4.05 2.85 3.95 2.85 3.85 2.9 3.7 3.2 3.55 3.35 3.45 3.35 3.4 3.35 3.3 3.35 3.1 3.35 2.95 3.35 2.8 M1.35 2.8 L1.65 3.0 1.65 3.1 1.65 3.2 1.6 3.25 1.6 3.3 1.5 3.35 1.45 3.35 0.5 3.45 0.5 3.5 0.45 3.55 0.35 3.9 0.25 4.25 0.2 4.3 -0.3 4.7 -0.7 4.7 -0.75 4.6 -0.85 4.5 -1.05 4.3 -1.15 4.05 -1.15 3.95 -1.15 3.9 -1.1 3.75 -1.05 3.7 -0.95 3.7 -0.85 3.65 -0.7 3.7 -0.65 3.75 -0.6 3.8 -0.55 3.85 -0.55 3.9 -0.45 4.0 -0.4 4.05 -0.4 4.0 -0.35 3.8 -0.2 3.5 -0.1 3.3 -0.05 3.25 0.1 2.95 0.1 2.9 0.2 2.85 0.35 2.8 1.35 2.8 M-3.0 0.55 L-2.95 0.6 -2.9 0.65 -2.9 0.75 -2.95 0.85 -3.0 1.05 -3.0 1.2 -3.1 1.4 -3.15 1.4 -3.3 1.45 -3.8 1.45 -3.85 1.35 -3.9 1.3 -4.0 1.2 -4.05 1.1 -4.05 0.95 -4.0 0.9 -3.95 0.85 -3.75 0.7 -3.55 0.7 -3.5 0.65 -3.45 0.6 -3.4 0.5 -3.3 0.45 -3.2 0.45 -3.05 0.5 -3.0 0.55 M-3.5 3.85 L-3.25 4.0 -3.15 4.25 -3.15 4.55 -3.1 4.55 -2.75 4.6 -2.4 4.85 -2.25 5.1 -2.25 5.2 -2.3 5.25 -2.3 5.3 -2.4 5.45 -2.5 5.5 -2.6 5.55 -2.75 5.5 -2.8 5.45 -2.85 5.4 -2.9 5.35 -2.9 5.25 -2.95 5.25 -3.05 5.25 -3.6 5.2 -3.7 5.15 -3.7 5.1 -3.75 5.05 -3.75 4.95 -3.75 4.85 -3.75 4.7 -3.8 4.65 -3.85 4.7 -3.9 4.8 -4.0 4.8 -4.25 4.8 -4.35 4.75 -4.4 4.6 -4.35 4.35 -4.2 4.05 -3.9 3.85 -3.75 3.8 -3.5 3.85 M-7.8 4.45 L-7.8 4.4 -7.75 4.3 -7.7 4.3 -7.65 4.25 -7.55 4.25 -7.4 4.3 -7.35 4.35 -7.3 4.4 -7.25 4.45 -7.25 4.55 -7.25 4.75 -7.25 4.9 -7.25 5.1 -7.3 5.15 -7.35 5.2 -7.4 5.2 -7.5 5.25 -7.7 5.35 -7.75 5.4 -7.75 5.45 -7.7 5.55 -7.7 5.7 -7.7 5.9 -7.7 6.05 -7.75 6.2 -7.95 6.4 -8.4 6.6 Q-8.7 6.65 -8.75 6.35 L-8.75 6.3 -8.7 6.2 -8.6 6.0 -8.4 5.85 -8.35 5.8 -8.35 5.65 -8.35 5.45 -8.35 5.15 -8.3 4.85 -8.2 4.75 -8.1 4.7 -8.0 4.7 -7.85 4.65 -7.85 4.5 -7.8 4.45 M-6.7 5.9 L-6.55 5.85 -6.35 5.9 -6.15 5.95 -6.0 6.0 -5.8 6.1 -5.75 6.15 -5.7 6.2 -5.7 6.3 -5.7 6.45 -5.7 6.55 -5.7 6.75 -5.7 6.85 -5.65 6.9 -5.5 6.95 -5.45 7.0 -5.4 7.05 -5.35 7.15 -5.35 7.3 -5.4 7.4 -5.5 7.45 -5.65 7.5 -6.3 7.35 -6.35 7.3 -6.4 7.25 -6.4 7.15 -6.4 7.05 -6.4 6.95 -6.4 6.8 -6.35 6.65 -6.3 6.6 -6.5 6.55 -6.65 6.5 -6.7 6.45 -6.75 6.4 -6.8 6.35 -6.85 6.3 -6.85 6.2 -6.85 6.1 -6.85 6.05 -6.8 6.0 -6.8 5.95 -6.7 5.9" fill="#8b5430" fill-rule="evenodd" stroke="none"/>
      <path d="M7.6 3.65 Q8.9 2.1 10.5 -0.95 L12.75 -6.1 Q13.5 -8.2 12.7 -11.0 11.85 -13.8 8.0 -14.3 11.4 -14.55 12.8 -14.2 14.2 -13.9 15.3 -11.95 16.4 -10.1 16.25 -9.7 16.9 -8.75 16.7 -7.05 16.55 -5.35 15.4 -2.4 14.25 0.55 12.0 1.75 9.75 2.9 7.65 3.65 L7.6 3.65" fill="url(#gradient1)" fill-rule="evenodd" stroke="none"/>
      <path d="M-9.45 9.0 Q-8.85 9.15 -9.1 9.7 -9.4 10.15 -9.9 9.95 -10.5 9.7 -10.1 9.25 -9.85 8.95 -9.45 9.0 M-15.75 10.3 Q-15.55 9.65 -15.0 9.45 -14.3 9.7 -14.55 10.4 L-14.65 10.6 -14.4 10.75 -14.4 10.7 Q-14.35 10.2 -13.85 10.15 -13.2 10.05 -13.25 10.65 -13.35 11.15 -13.8 11.25 L-14.15 11.25 -14.3 11.65 -14.75 12.25 Q-15.2 12.55 -15.3 12.15 L-15.5 12.25 Q-16.0 12.7 -16.1 12.05 -16.25 11.35 -15.85 10.8 L-15.75 10.65 -15.75 10.3 M-11.05 7.1 Q-10.3 7.35 -10.75 8.1 -11.1 8.65 -11.7 8.7 -12.1 8.7 -11.95 8.35 L-11.35 7.25 -11.05 7.1 M-12.05 8.6 L-11.9 8.95 -12.1 9.3 -12.4 9.45 Q-12.5 10.05 -13.05 9.85 -13.45 9.75 -13.35 9.3 L-13.2 8.85 Q-13.0 8.35 -12.4 8.45 L-12.05 8.6 M-11.0 9.85 L-11.0 10.2 -11.25 10.5 Q-11.15 10.9 -11.45 11.15 -12.0 11.55 -12.1 10.9 L-12.2 10.25 Q-12.2 9.6 -11.6 9.45 L-11.5 9.45 -11.25 9.55 -11.0 9.85" fill="#8c4f33" fill-rule="evenodd" stroke="none"/>
      <path d="M8.0 -14.3 Q11.4 -14.55 12.8 -14.2 14.2 -13.9 15.3 -11.95 16.4 -10.1 16.25 -9.7 16.9 -8.75 16.7 -7.05 16.55 -5.35 15.4 -2.4 14.25 0.55 12.0 1.75 9.75 2.9 7.65 3.65 L7.6 3.65" fill="none" stroke="#cc9966" stroke-linecap="round" stroke-linejoin="round" stroke-width="0.25"/>
      <path d="M11.5 -3.2 Q12.0 -3.6 12.05 -4.15 L12.3 -5.1 12.55 -6.05 12.95 -7.0 Q13.25 -7.5 13.1 -8.1 L12.75 -9.0 Q12.6 -9.35 12.7 -10.15 L12.6 -11.1 12.25 -11.75 11.8 -12.4 11.1 -13.05 10.2 -13.7 9.1 -14.0 8.4 -14.1 8.0 -14.3 7.1 -14.6 6.1 -14.5 Q5.7 -14.1 4.95 -13.85 4.25 -13.6 3.9 -13.35 L3.35 -12.8 2.6 -12.3 1.45 -11.8 0.65 -11.4 -0.1 -10.85 Q-0.75 -10.4 -1.0 -9.75 -1.25 -9.1 -1.7 -8.75 L-2.35 -8.15 -2.75 -7.55 -3.3 -6.6 -3.7 -5.55 Q-3.75 -5.1 -4.45 -4.8 M3.25 5.85 L4.15 5.9 5.05 5.7 5.85 5.4 Q6.2 5.35 6.75 4.7 L7.9 3.5 8.5 2.6 8.8 1.9 9.3 1.05 9.85 0.3 10.35 -0.4 10.8 -1.6 11.2 -2.5 M-1.4 6.85 L-0.45 6.3 0.6 6.05 1.55 5.85 2.5 5.65 M-4.75 -4.15 Q-4.55 -3.15 -4.85 -2.9 L-5.5 -2.35 -6.1 -1.4 -6.35 0.0 -6.5 1.0 -7.05 1.7 -7.75 2.75 -8.1 3.75 -8.45 4.45 -9.35 5.25 -10.15 5.95 -10.8 6.5 -11.7 7.1 Q-12.1 7.4 -12.15 7.85 -12.15 8.3 -12.9 8.3 L-14.05 8.3 -14.9 8.35 -15.7 8.65 -16.6 9.55 Q-17.1 10.25 -16.95 10.95 -16.75 11.65 -16.85 12.1 L-16.9 13.0 -16.55 13.75 -15.55 14.55 Q-14.95 15.05 -14.7 14.75 M-13.95 14.7 L-13.15 14.45 -12.15 14.15 Q-11.5 14.0 -11.2 13.7 L-10.6 13.15 -9.7 12.15 -8.6 11.2 Q-8.15 11.05 -8.1 10.7 L-7.65 9.9 -6.8 9.15 -5.95 8.85 Q-5.6 8.8 -5.15 8.4 L-4.25 7.8 -3.3 7.4 -2.2 7.05" fill="none" stroke="#996600" stroke-linecap="round" stroke-linejoin="round" stroke-width="0.5"/>
      <path d="M7.95 -9.7 L8.3 -9.8 8.3 -9.7 6.8 -8.15 6.95 -7.15 6.55 -7.15 4.55 -6.3 3.5 -5.9 0.15 -5.0 0.25 -5.2 -0.5 -5.2 Q-1.9 -4.95 -2.3 -5.2 L-2.3 -5.3 2.1 -6.75 Q4.2 -7.35 5.8 -8.35 L7.95 -9.7" fill="url(#gradient2)" fill-rule="evenodd" stroke="none"/>
      <path d="M6.95 -11.85 L5.5 -11.0 0.75 -8.45 -1.95 -6.7 -1.8 -7.1 Q-1.3 -8.35 -0.5 -8.45 L-0.75 -8.85 -0.65 -9.3 0.35 -10.15 1.0 -10.4 1.1 -10.45 Q1.3 -10.55 1.5 -10.75 L3.95 -12.05 4.05 -11.0 Q5.35 -11.6 6.55 -11.85 L6.95 -11.85" fill="url(#gradient3)" fill-rule="evenodd" stroke="none"/>
      <path d="M6.95 -11.85 L7.15 -11.85 6.8 -10.55 6.8 -10.4 2.2 -8.85 Q0.0 -7.75 -2.1 -6.35 L-1.95 -6.7 0.75 -8.45 5.5 -11.0 6.95 -11.85" fill="url(#gradient4)" fill-rule="evenodd" stroke="none"/>
      <path d="M4.55 -6.3 L6.55 -7.15 6.95 -7.15 6.95 -7.0 Q6.95 -6.4 5.8 -6.4 L4.55 -6.3" fill="url(#gradient5)" fill-rule="evenodd" stroke="none"/>
      <path d="M7.95 -9.7 L5.8 -8.35 Q4.2 -7.35 2.1 -6.75 L-2.3 -5.3 -2.1 -6.35 Q0.0 -7.75 2.2 -8.85 L6.8 -10.4 Q6.9 -9.6 7.95 -9.7" fill="url(#gradient6)" fill-rule="evenodd" stroke="none"/>
      <path d="M0.15 -5.0 L3.5 -5.9 3.0 -5.5 1.7 -4.1 -0.4 -4.1 -0.4 -4.2 Q-0.25 -3.95 0.15 -5.0" fill="url(#gradient7)" fill-rule="evenodd" stroke="none"/>
      <path d="M6.95 -7.15 L6.8 -8.15 8.3 -9.7 8.3 -9.8 7.95 -9.7 M-2.3 -5.3 L-2.3 -5.2 Q-1.9 -4.95 -0.5 -5.2 L0.25 -5.2 0.15 -5.0 Q-0.25 -3.95 -0.4 -4.2 L-0.4 -4.1 1.7 -4.1 3.0 -5.5 3.5 -5.9 4.55 -6.3 M6.95 -7.15 L6.95 -7.0 Q6.95 -6.4 5.8 -6.4 L4.55 -6.3 M6.8 -10.4 L6.8 -10.55 7.15 -11.85 6.95 -11.85 6.55 -11.85 Q5.35 -11.6 4.05 -11.0 L3.95 -12.05 1.5 -10.75 Q1.3 -10.55 1.1 -10.45 L1.0 -10.4 0.35 -10.15 -0.65 -9.3 -0.75 -8.85 -0.5 -8.45 Q-1.3 -8.35 -1.8 -7.1 L-1.95 -6.7 -2.1 -6.35 -2.3 -5.3 M6.8 -10.4 Q6.9 -9.6 7.95 -9.7 M0.35 -10.15 L0.05 -10.1 Q-0.55 -9.9 -0.65 -9.3" fill="none" stroke="#cc9966" stroke-linecap="round" stroke-linejoin="round" stroke-width="0.25"/>
    </g>
    <linearGradient gradientTransform="matrix(0.0035, 0.0137, -0.0203, 0.0052, -2.3, -0.25)" gradientUnits="userSpaceOnUse" id="gradient0" spreadMethod="pad" x1="-819.2" x2="819.2">
      <stop offset="0.0" stop-color="#c5923f"/>
      <stop offset="0.47843137254901963" stop-color="#a75e2e"/>
      <stop offset="0.8509803921568627" stop-color="#a0643d"/>
      <stop offset="1.0" stop-color="#672721"/>
    </linearGradient>
    <linearGradient gradientTransform="matrix(0.0029, -0.011, 0.0061, 0.0016, 10.95, -5.1)" gradientUnits="userSpaceOnUse" id="gradient1" spreadMethod="pad" x1="-819.2" x2="819.2">
      <stop offset="0.0" stop-color="#c18446"/>
      <stop offset="1.0" stop-color="#d2a679"/>
    </linearGradient>
    <linearGradient gradientTransform="matrix(9.0E-4, -2.0E-4, 4.0E-4, 0.0016, 1.6, -6.7)" gradientUnits="userSpaceOnUse" id="gradient2" spreadMethod="pad" x1="-819.2" x2="819.2">
      <stop offset="0.0" stop-color="#e6cbb3"/>
      <stop offset="1.0" stop-color="#d2a679"/>
    </linearGradient>
    <linearGradient gradientTransform="matrix(1.0E-4, -4.0E-4, 0.0043, 0.0011, 2.4, -9.05)" gradientUnits="userSpaceOnUse" id="gradient3" spreadMethod="pad" x1="-819.2" x2="819.2">
      <stop offset="0.0" stop-color="#e6cbb3"/>
      <stop offset="1.0" stop-color="#d2a679"/>
    </linearGradient>
    <linearGradient gradientTransform="matrix(0.0057, 0.0, 0.0, 0.0033, 2.55, -9.1)" gradientUnits="userSpaceOnUse" id="gradient4" spreadMethod="pad" x1="-819.2" x2="819.2">
      <stop offset="0.0" stop-color="#e6cbb3"/>
      <stop offset="1.0" stop-color="#d2a679"/>
    </linearGradient>
    <linearGradient gradientTransform="matrix(-1.0E-4, -4.0E-4, 0.0015, -4.0E-4, 5.8, -6.6)" gradientUnits="userSpaceOnUse" id="gradient5" spreadMethod="pad" x1="-819.2" x2="819.2">
      <stop offset="0.0" stop-color="#c18446"/>
      <stop offset="1.0" stop-color="#d2a679"/>
    </linearGradient>
    <linearGradient gradientTransform="matrix(0.0065, -0.0017, 4.0E-4, 0.0016, 2.65, -8.0)" gradientUnits="userSpaceOnUse" id="gradient6" spreadMethod="pad" x1="-819.2" x2="819.2">
      <stop offset="0.0" stop-color="#e6cbb3"/>
      <stop offset="1.0" stop-color="#d2a679"/>
    </linearGradient>
    <linearGradient gradientTransform="matrix(0.0, -3.0E-4, 0.0024, 0.0, 1.55, -4.55)" gradientUnits="userSpaceOnUse" id="gradient7" spreadMethod="pad" x1="-819.2" x2="819.2">
      <stop offset="0.0" stop-color="#e6cbb3"/>
      <stop offset="1.0" stop-color="#d2a679"/>
    </linearGradient>
  </defs>
</svg>
