<?xml version="1.0" encoding="UTF-8" standalone="no"?>
<svg xmlns:xlink="http://www.w3.org/1999/xlink" height="20.65px" width="46.45px" xmlns="http://www.w3.org/2000/svg">
  <g transform="matrix(1.0, 0.0, 0.0, 1.0, 23.2, 10.3)">
    <use height="20.65" transform="matrix(1.0, 0.0, 0.0, 1.0, -23.2, -10.3)" width="46.45" xlink:href="#shape0"/>
  </g>
  <defs>
    <g id="shape0" transform="matrix(1.0, 0.0, 0.0, 1.0, 23.2, 10.3)">
      <path d="M-20.9 1.85 L-21.55 1.0 Q-23.4 -1.4 -23.0 -3.75 -22.7 -6.15 -21.55 -7.4 L-18.9 -9.45 Q-17.45 -10.3 -15.25 -10.15 L-15.2 -10.15 Q-16.25 -9.85 -17.9 -7.05 L-20.1 -2.7 -20.8 -0.25 Q-21.05 0.8 -20.9 1.85" fill="url(#gradient0)" fill-rule="evenodd" stroke="none"/>
      <path d="M-0.65 -9.15 L1.8 -8.65 Q3.05 -8.05 4.25 -5.2 L3.85 -4.7 Q2.9 -7.05 0.95 -7.95 L-0.6 -8.2 -1.3 -7.05 Q-1.85 -6.0 -2.05 -4.5 L-2.05 -4.45 -2.95 -2.0 Q-4.0 1.3 -4.75 2.9 -5.65 4.8 -7.35 5.6 L-6.9 5.1 Q-5.5 3.35 -4.6 1.45 -3.4 -1.05 -2.85 -3.8 L-2.6 -4.8 Q-2.0 -7.15 -0.65 -9.15 M19.0 -1.6 L18.9 -1.9 18.95 -1.9 Q18.35 -3.3 17.5 -3.55 L15.45 -4.4 13.75 -4.8 12.15 -4.35 11.1 -3.0 9.9 -1.2 Q9.55 -0.5 9.6 0.4 9.6 1.35 8.95 3.15 L7.45 7.4 6.5 9.2 6.25 9.55 7.2 6.75 Q8.05 4.0 8.4 1.25 8.7 -1.55 9.15 -1.9 L10.9 -4.1 Q11.6 -5.05 12.8 -5.55 L15.2 -5.65 Q17.1 -4.7 17.3 -4.7 L17.05 -4.8 Q20.1 -3.65 19.95 -1.45 19.95 -0.95 20.95 0.6 21.3 1.5 21.0 2.15 L20.6 2.8 Q21.05 1.5 20.4 0.65 L19.05 -1.55 19.0 -1.6 M-19.9 2.25 L-19.75 2.9 -20.15 2.7 -20.9 1.85 Q-21.05 0.8 -20.8 -0.25 L-20.1 -2.7 -17.9 -7.05 Q-16.25 -9.85 -15.2 -10.15 -13.4 -10.05 -13.1 -9.35 L-12.7 -8.35 Q-12.65 -6.15 -13.7 -4.3 -14.85 -2.25 -15.4 0.15 -15.9 2.15 -14.35 3.2 L-14.65 3.55 -14.7 3.55 Q-16.1 2.05 -16.2 0.85 -16.3 -0.45 -15.5 -2.1 L-13.85 -5.7 Q-13.05 -7.7 -13.5 -8.5 -13.95 -9.35 -14.4 -9.35 L-15.35 -9.3 Q-15.8 -9.3 -16.6 -7.9 L-18.6 -4.6 Q-19.75 -2.7 -20.2 -0.35 -20.65 1.95 -19.9 2.25" fill="#ecdfac" fill-rule="evenodd" stroke="none"/>
      <path d="M-18.25 1.95 L-17.95 -0.6 -19.05 1.3 -19.9 2.25 Q-20.65 1.95 -20.2 -0.35 -19.75 -2.7 -18.6 -4.6 L-16.6 -7.9 Q-15.8 -9.3 -15.35 -9.3 L-14.4 -9.35 Q-13.95 -9.35 -13.5 -8.5 -13.05 -7.7 -13.85 -5.7 L-15.5 -2.1 Q-16.3 -0.45 -16.2 0.85 -16.1 2.05 -14.7 3.55 -16.6 3.4 -18.25 1.95" fill="url(#gradient1)" fill-rule="evenodd" stroke="none"/>
      <path d="M-7.35 5.6 Q-8.8 6.85 -10.95 6.7 -12.95 6.6 -14.8 5.65 -16.1 4.95 -17.05 3.9 -17.85 3.15 -18.25 1.95 -16.6 3.4 -14.7 3.55 L-14.65 3.55 -14.35 3.2 Q-12.6 1.55 -11.65 -0.7 L-9.95 -5.4 -9.5 -6.95 Q-6.95 -8.25 -3.95 -8.75 L-0.65 -9.15 Q-2.0 -7.15 -2.6 -4.8 L-2.85 -3.8 Q-3.4 -1.05 -4.6 1.45 -5.5 3.35 -6.9 5.1 L-7.35 5.6" fill="url(#gradient2)" fill-rule="evenodd" stroke="none"/>
      <path d="M-0.6 2.9 Q0.05 0.75 -0.45 -2.05 -0.7 -3.5 -1.45 -4.15 L-2.05 -4.5 Q-1.85 -6.0 -1.3 -7.05 L-0.6 -8.2 0.95 -7.95 Q2.9 -7.05 3.85 -4.7 L3.05 -3.6 0.3 1.0 -0.6 2.9" fill="url(#gradient3)" fill-rule="evenodd" stroke="none"/>
      <path d="M4.25 -5.2 L6.25 -7.25 Q8.45 -9.15 11.35 -9.35 14.0 -9.5 16.55 -8.05 19.25 -6.6 21.05 -4.3 22.6 -2.4 22.95 -0.05 23.25 2.1 22.95 4.15 22.5 6.75 20.4 8.35 19.0 9.4 17.45 9.2 14.45 8.7 12.65 6.2 L11.35 4.0 Q10.0 1.15 11.7 -1.5 13.2 -3.9 16.15 -3.3 L16.3 -3.25 16.2 -3.3 18.8 -1.95 17.9 -2.4 19.0 -1.6 19.05 -1.55 20.4 0.65 Q21.05 1.5 20.6 2.8 L21.0 2.15 Q21.3 1.5 20.95 0.6 19.95 -0.95 19.95 -1.45 20.1 -3.65 17.05 -4.8 L17.3 -4.7 Q17.1 -4.7 15.2 -5.65 L12.8 -5.55 Q11.6 -5.05 10.9 -4.1 L9.15 -1.9 Q8.7 -1.55 8.4 1.25 8.05 4.0 7.2 6.75 L6.25 9.55 5.65 9.95 5.45 10.05 5.45 10.0 Q2.55 10.55 0.0 9.4 L-2.4 8.25 Q-1.8 5.45 -0.6 2.9 L0.3 1.0 3.05 -3.6 3.85 -4.7 4.25 -5.2 M16.8 2.25 Q17.4 2.55 17.7 1.9 18.15 0.9 17.2 0.45 16.55 0.15 16.3 0.85 16.0 1.85 16.8 2.25" fill="url(#gradient4)" fill-rule="evenodd" stroke="none"/>
      <path d="M16.8 2.25 Q16.0 1.85 16.3 0.85 16.55 0.15 17.2 0.45 18.15 0.9 17.7 1.9 17.4 2.55 16.8 2.25" fill="url(#gradient5)" fill-rule="evenodd" stroke="none"/>
      <path d="M4.25 -5.2 L6.25 -7.25 Q8.45 -9.15 11.35 -9.35 14.0 -9.5 16.55 -8.05 19.25 -6.6 21.05 -4.3 22.6 -2.4 22.95 -0.05 23.25 2.1 22.95 4.15 22.5 6.75 20.4 8.35 19.0 9.4 17.45 9.2 14.45 8.7 12.65 6.2 L11.35 4.0 Q10.0 1.15 11.7 -1.5 13.2 -3.9 16.15 -3.3 L16.3 -3.25 16.2 -3.3 18.8 -1.95 17.9 -2.4 19.0 -1.6 19.05 -1.55 20.4 0.65 Q21.05 1.5 20.6 2.8 L21.0 2.15 Q21.3 1.5 20.95 0.6 19.95 -0.95 19.95 -1.45 20.1 -3.65 17.05 -4.8 L17.3 -4.7 Q17.1 -4.7 15.2 -5.65 L12.8 -5.55 Q11.6 -5.05 10.9 -4.1 L9.15 -1.9 Q8.7 -1.55 8.4 1.25 8.05 4.0 7.2 6.75 L6.25 9.55 5.65 9.95 5.45 10.05 5.45 10.0 Q2.55 10.55 0.0 9.4 L-2.4 8.25 Q-1.8 5.45 -0.6 2.9 M-7.35 5.6 Q-8.8 6.85 -10.95 6.7 -12.95 6.6 -14.8 5.65 -16.1 4.95 -17.05 3.9 -17.85 3.15 -18.25 1.95 M-20.9 1.85 L-21.55 1.0 Q-23.4 -1.4 -23.0 -3.75 -22.7 -6.15 -21.55 -7.4 L-18.9 -9.45 Q-17.45 -10.3 -15.25 -10.15 L-15.2 -10.15 Q-16.25 -9.85 -17.9 -7.05 L-20.1 -2.7 -20.8 -0.25 Q-21.05 0.8 -20.9 1.85 M-14.35 3.2 Q-12.6 1.55 -11.65 -0.7 L-9.95 -5.4 -9.5 -6.95 Q-6.95 -8.25 -3.95 -8.75 L-0.65 -9.15 Q-2.0 -7.15 -2.6 -4.8 L-2.85 -3.8 Q-3.4 -1.05 -4.6 1.45 -5.5 3.35 -6.9 5.1 L-7.35 5.6 M4.25 -5.2 L3.85 -4.7 3.05 -3.6 0.3 1.0 -0.6 2.9 M-14.7 3.55 L-14.65 3.55 -14.35 3.2 M-14.7 3.55 Q-16.6 3.4 -18.25 1.95" fill="none" stroke="#ba680f" stroke-linecap="round" stroke-linejoin="round" stroke-width="0.35000000000000003"/>
    </g>
    <radialGradient cx="0" cy="0" gradientTransform="matrix(-0.0122, -0.0058, -0.0058, 0.0122, -21.85, -5.95)" gradientUnits="userSpaceOnUse" id="gradient0" r="819.2" spreadMethod="pad">
      <stop offset="0.0" stop-color="#ff9900"/>
      <stop offset="1.0" stop-color="#b16212"/>
    </radialGradient>
    <linearGradient gradientTransform="matrix(-0.0038, -0.0018, -0.004, 0.0083, -16.0, -1.8)" gradientUnits="userSpaceOnUse" id="gradient1" spreadMethod="pad" x1="-819.2" x2="819.2">
      <stop offset="0.0" stop-color="#ecdfac"/>
      <stop offset="1.0" stop-color="#b39d80"/>
    </linearGradient>
    <radialGradient cx="0" cy="0" gradientTransform="matrix(-0.0161, -0.0077, -0.0077, 0.0161, -7.3, -2.15)" gradientUnits="userSpaceOnUse" id="gradient2" r="819.2" spreadMethod="pad">
      <stop offset="0.0" stop-color="#ff9900"/>
      <stop offset="1.0" stop-color="#b16212"/>
    </radialGradient>
    <linearGradient gradientTransform="matrix(-0.0031, -0.0015, -0.0028, 0.0058, -0.25, -2.75)" gradientUnits="userSpaceOnUse" id="gradient3" spreadMethod="pad" x1="-819.2" x2="819.2">
      <stop offset="0.0" stop-color="#ecdfac"/>
      <stop offset="1.0" stop-color="#b39d80"/>
    </linearGradient>
    <radialGradient cx="0" cy="0" gradientTransform="matrix(-0.0184, -0.0088, -0.0088, 0.0184, 7.85, -1.35)" gradientUnits="userSpaceOnUse" id="gradient4" r="819.2" spreadMethod="pad">
      <stop offset="0.0" stop-color="#ff9900"/>
      <stop offset="1.0" stop-color="#b16212"/>
    </radialGradient>
    <linearGradient gradientTransform="matrix(-6.0E-4, -2.0E-4, -4.0E-4, 0.001, 16.95, 1.5)" gradientUnits="userSpaceOnUse" id="gradient5" spreadMethod="pad" x1="-819.2" x2="819.2">
      <stop offset="0.2549019607843137" stop-color="#ad8b06"/>
      <stop offset="1.0" stop-color="#7b6304"/>
    </linearGradient>
  </defs>
</svg>
