<?xml version="1.0" encoding="UTF-8" standalone="no"?>
<svg xmlns:xlink="http://www.w3.org/1999/xlink" height="31.4px" width="39.55px" xmlns="http://www.w3.org/2000/svg">
  <g transform="matrix(1.0, 0.0, 0.0, 1.0, 19.75, 15.7)">
    <use height="31.4" transform="matrix(1.0, 0.0, 0.0, 1.0, -19.75, -15.7)" width="39.55" xlink:href="#shape0"/>
  </g>
  <defs>
    <g id="shape0" transform="matrix(1.0, 0.0, 0.0, 1.0, 19.75, 15.7)">
      <path d="M7.15 -8.75 Q8.55 -8.0 8.3 -5.75 L7.65 -4.65 7.5 -4.65 7.3 -4.6 Q6.6 -4.6 6.3 -5.35 L5.5 -6.85 Q5.1 -7.55 7.15 -8.75" fill="url(#gradient0)" fill-rule="evenodd" stroke="none"/>
      <path d="M7.15 -8.75 Q5.1 -7.55 5.5 -6.85 L6.3 -5.35 Q6.6 -4.6 7.3 -4.6 6.5 -3.5 3.95 -1.55 2.0 -0.1 2.0 1.1 2.0 2.7 4.65 3.25 5.7 3.85 7.35 4.4 12.75 6.3 17.05 8.95 21.3 11.6 18.7 11.55 L8.6 8.4 Q3.1 6.85 1.0 5.15 -0.65 3.8 -0.95 2.75 0.0 1.05 0.0 0.65 -1.15 1.9 -3.95 2.05 L-9.25 2.7 Q-12.35 3.55 -14.35 5.5 -16.15 7.25 -16.15 9.0 L-16.15 9.95 -15.95 11.45 -15.65 13.8 Q-15.35 14.6 -14.25 15.5 L-15.9 15.6 Q-17.6 15.65 -19.15 11.55 -20.8 7.45 -17.2 4.65 -13.65 1.85 -10.4 0.7 -7.9 -0.25 -6.6 -1.85 L-5.95 -2.85 Q-4.95 -4.85 -3.3 -6.2 L-2.65 -6.65 -0.45 -7.85 -0.25 -7.9 1.75 -8.45 2.95 -8.65 7.15 -8.75 M1.2 -7.55 L1.15 -7.5 1.15 -7.45 1.1 -7.4 1.3 -7.15 2.35 -6.95 2.5 -6.95 2.6 -7.1 2.7 -7.2 2.7 -7.35 2.7 -7.4 2.65 -7.45 2.65 -7.5 Q2.55 -7.7 2.35 -7.7 L1.45 -7.7 1.25 -7.6 1.2 -7.55 M3.3 -3.35 Q3.9 -3.35 4.15 -4.0 4.45 -4.75 3.6 -4.85 3.05 -4.75 2.8 -4.2 2.45 -3.4 3.3 -3.35 M0.35 -3.1 L0.25 -3.25 0.2 -3.3 0.1 -3.4 -0.05 -3.45 -0.15 -3.45 -0.3 -3.4 -0.55 -3.25 -0.7 -3.0 -0.75 -2.85 -0.75 -2.7 -0.75 -2.6 -0.7 -2.55 -0.65 -2.45 -0.55 -2.4 -0.35 -2.35 -0.2 -2.4 0.05 -2.55 0.2 -2.8 0.3 -2.95 0.35 -3.1 M0.5 -1.55 L0.35 -1.6 0.25 -1.6 0.1 -1.55 0.0 -1.5 0.0 -1.45 -0.1 -1.3 -0.2 -1.2 -0.3 -1.05 -0.35 -1.0 -0.4 -0.95 -0.4 -0.9 -0.4 -0.8 -0.35 -0.75 -0.35 -0.7 -0.3 -0.65 -0.2 -0.55 0.15 -0.6 0.45 -0.85 0.65 -1.15 0.65 -1.35 0.6 -1.4 0.55 -1.5 0.5 -1.55 M1.65 2.55 L1.5 2.5 Q1.1 3.25 2.0 3.65 L2.8 4.1 Q3.5 4.3 3.4 3.75 L2.15 2.7 1.65 2.55 M3.35 4.8 L3.25 4.8 3.15 4.9 3.1 4.95 3.1 5.05 3.1 5.1 3.1 5.2 3.1 5.25 3.3 5.45 3.7 5.55 3.85 5.5 3.9 5.45 4.0 5.4 4.05 5.3 4.05 5.25 4.1 5.15 4.1 5.1 4.05 5.0 3.95 4.85 3.85 4.8 3.7 4.75 3.5 4.75 3.35 4.8 M-6.3 0.65 L-6.3 0.55 -6.35 0.5 -6.45 0.45 -6.6 0.4 -6.75 0.45 -7.1 0.7 -7.7 1.05 -7.8 1.3 -7.75 1.35 Q-7.65 1.6 -7.35 1.55 L-6.9 1.45 -6.35 1.05 Q-6.2 0.85 -6.3 0.65 M-3.15 -3.85 L-3.25 -3.85 -3.4 -3.8 -3.75 -3.4 -4.0 -3.1 -4.1 -2.65 -3.9 -2.35 Q-3.6 -2.25 -3.4 -2.55 L-3.2 -2.95 -2.9 -3.4 -2.85 -3.6 -2.85 -3.7 -2.9 -3.75 -3.0 -3.8 -3.15 -3.85 M-16.85 11.55 L-16.95 11.3 -17.05 11.25 -17.2 11.2 -17.3 11.25 -17.35 11.25 -17.4 11.3 -17.45 11.35 -17.5 11.5 -17.55 11.8 -17.55 12.1 -17.55 12.4 -17.45 12.6 -17.3 12.7 -17.15 12.75 -17.05 12.75 -17.0 12.75 -16.95 12.7 -16.8 12.3 -16.85 11.95 -16.85 11.55" fill="url(#gradient1)" fill-rule="evenodd" stroke="none"/>
      <path d="M-10.75 -6.65 L-11.0 -10.4 Q-10.95 -12.5 -9.05 -13.75 L-6.35 -15.45 Q-5.0 -16.55 2.0 -10.55 2.55 -10.0 2.95 -8.65 L1.75 -8.45 -0.25 -7.9 -0.5 -8.4 Q-0.85 -11.55 -1.7 -12.1 -3.15 -14.1 -5.35 -14.65 L-5.95 -14.55 Q-6.95 -12.2 -5.65 -9.9 L-5.15 -8.7 -4.65 -7.45 -3.3 -6.2 Q-4.9 -6.15 -6.05 -5.4 -7.45 -4.45 -7.95 -4.45 -9.8 -4.45 -10.75 -6.65 M0.95 -10.1 L0.9 -10.15 0.75 -10.2 0.45 -10.1 0.4 -9.8 0.45 -9.65 0.6 -9.5 0.95 -9.55 1.05 -9.7 1.1 -9.85 1.1 -9.9 1.05 -9.95 1.0 -10.05 0.95 -10.1 M-9.4 -10.35 L-9.45 -10.4 -9.5 -10.45 -9.55 -10.55 -9.6 -10.6 -9.75 -10.65 -9.9 -10.6 -10.0 -10.55 -10.05 -10.45 -10.05 -10.4 -10.1 -10.3 -10.05 -10.15 -10.05 -10.05 -10.0 -10.0 -9.9 -9.9 -9.5 -9.95 -9.45 -10.15 -9.4 -10.3 -9.4 -10.35 M-6.2 -6.9 Q-6.05 -8.1 -6.75 -8.55 -7.45 -7.8 -6.45 -7.0 L-6.2 -6.9" fill="url(#gradient2)" fill-rule="evenodd" stroke="none"/>
      <path d="M0.95 -10.1 L1.0 -10.05 1.05 -9.95 1.1 -9.9 1.1 -9.85 1.05 -9.7 0.95 -9.55 0.6 -9.5 0.45 -9.65 0.4 -9.8 0.45 -10.1 0.75 -10.2 0.9 -10.15 0.95 -10.1 M1.2 -7.55 L1.25 -7.6 1.45 -7.7 2.35 -7.7 Q2.55 -7.7 2.65 -7.5 L2.65 -7.45 2.7 -7.4 2.7 -7.35 2.7 -7.2 2.6 -7.1 2.5 -6.95 2.35 -6.95 1.3 -7.15 1.1 -7.4 1.15 -7.45 1.15 -7.5 1.2 -7.55 M3.3 -3.35 Q2.45 -3.4 2.8 -4.2 3.05 -4.75 3.6 -4.85 4.45 -4.75 4.15 -4.0 3.9 -3.35 3.3 -3.35 M0.5 -1.55 L0.55 -1.5 0.6 -1.4 0.65 -1.35 0.65 -1.15 0.45 -0.85 0.15 -0.6 -0.2 -0.55 -0.3 -0.65 -0.35 -0.7 -0.35 -0.75 -0.4 -0.8 -0.4 -0.9 -0.4 -0.95 -0.35 -1.0 -0.3 -1.05 -0.2 -1.2 -0.1 -1.3 0.0 -1.45 0.0 -1.5 0.1 -1.55 0.25 -1.6 0.35 -1.6 0.5 -1.55 M5.95 -1.2 L6.1 -1.25 6.2 -1.25 6.35 -1.2 6.45 -1.15 6.5 -1.1 6.5 -1.0 6.5 -0.9 6.4 -0.65 5.95 -0.45 Q5.75 -0.4 5.65 -0.6 L5.65 -0.65 5.6 -0.7 5.6 -0.75 5.6 -0.85 5.65 -0.9 5.7 -0.95 5.75 -1.0 5.8 -1.1 5.95 -1.2 M1.65 2.55 L2.15 2.7 3.4 3.75 Q3.5 4.3 2.8 4.1 L2.0 3.65 Q1.1 3.25 1.5 2.5 L1.65 2.55 M-9.4 -10.35 L-9.4 -10.3 -9.45 -10.15 -9.5 -9.95 -9.9 -9.9 -10.0 -10.0 -10.05 -10.05 -10.05 -10.15 -10.1 -10.3 -10.05 -10.4 -10.05 -10.45 -10.0 -10.55 -9.9 -10.6 -9.75 -10.65 -9.6 -10.6 -9.55 -10.55 -9.5 -10.45 -9.45 -10.4 -9.4 -10.35 M-6.2 -6.9 L-6.45 -7.0 Q-7.45 -7.8 -6.75 -8.55 -6.05 -8.1 -6.2 -6.9 M-3.15 -3.85 L-3.0 -3.8 -2.9 -3.75 -2.85 -3.7 -2.85 -3.6 -2.9 -3.4 -3.2 -2.95 -3.4 -2.55 Q-3.6 -2.25 -3.9 -2.35 L-4.1 -2.65 -4.0 -3.1 -3.75 -3.4 -3.4 -3.8 -3.25 -3.85 -3.15 -3.85 M-6.3 0.65 Q-6.2 0.85 -6.35 1.05 L-6.9 1.45 -7.35 1.55 Q-7.65 1.6 -7.75 1.35 L-7.8 1.3 -7.7 1.05 -7.1 0.7 -6.75 0.45 -6.6 0.4 -6.45 0.45 -6.35 0.5 -6.3 0.55 -6.3 0.65 M-16.85 11.55 L-16.85 11.95 -16.8 12.3 -16.95 12.7 -17.0 12.75 -17.05 12.75 -17.15 12.75 -17.3 12.7 -17.45 12.6 -17.55 12.4 -17.55 12.1 -17.55 11.8 -17.5 11.5 -17.45 11.35 -17.4 11.3 -17.35 11.25 -17.3 11.25 -17.2 11.2 -17.05 11.25 -16.95 11.3 -16.85 11.55" fill="url(#gradient3)" fill-rule="evenodd" stroke="none"/>
      <path d="M0.35 -3.1 L0.3 -2.95 0.2 -2.8 0.05 -2.55 -0.2 -2.4 -0.35 -2.35 -0.55 -2.4 -0.65 -2.45 -0.7 -2.55 -0.75 -2.6 -0.75 -2.7 -0.75 -2.85 -0.7 -3.0 -0.55 -3.25 -0.3 -3.4 -0.15 -3.45 -0.05 -3.45 0.1 -3.4 0.2 -3.3 0.25 -3.25 0.35 -3.1" fill="url(#gradient4)" fill-rule="evenodd" stroke="none"/>
      <path d="M7.3 -4.6 L7.5 -4.65 7.65 -4.65 6.65 -3.05 5.55 -1.9 2.5 0.65 Q2.35 1.2 2.75 1.8 3.25 2.5 4.65 3.25 2.0 2.7 2.0 1.1 2.0 -0.1 3.95 -1.55 6.5 -3.5 7.3 -4.6 M-0.95 2.75 L-1.05 2.1 -7.4 3.95 Q-9.25 4.55 -12.85 6.6 -16.5 8.65 -14.9 12.2 -13.3 15.7 -14.25 15.5 -15.35 14.6 -15.65 13.8 L-15.95 11.45 -16.15 9.95 -16.15 9.0 Q-16.15 7.25 -14.35 5.5 -12.35 3.55 -9.25 2.7 L-3.95 2.05 Q-1.15 1.9 0.0 0.65 0.0 1.05 -0.95 2.75 M-6.6 -1.85 Q-9.9 -2.15 -10.6 -5.75 L-10.75 -6.65 Q-9.8 -4.45 -7.95 -4.45 -7.45 -4.45 -6.05 -5.4 -4.9 -6.15 -3.3 -6.2 -4.95 -4.85 -5.95 -2.85 L-6.6 -1.85" fill="#deb307" fill-rule="evenodd" stroke="none"/>
      <path d="M5.55 -1.9 L7.7 -2.35 Q10.2 -2.65 11.75 -1.85 L15.55 0.4 Q17.2 1.5 17.2 2.2 L17.1 2.6 15.7 2.0 13.6 0.85 Q12.4 0.15 9.55 0.2 L5.3 0.6 Q3.55 1.0 2.75 1.8 2.35 1.2 2.5 0.65 L5.55 -1.9 M5.95 -1.2 L5.8 -1.1 5.75 -1.0 5.7 -0.95 5.65 -0.9 5.6 -0.85 5.6 -0.75 5.6 -0.7 5.65 -0.65 5.65 -0.6 Q5.75 -0.4 5.95 -0.45 L6.4 -0.65 6.5 -0.9 6.5 -1.0 6.5 -1.1 6.45 -1.15 6.35 -1.2 6.2 -1.25 6.1 -1.25 5.95 -1.2 M11.35 -1.15 L11.2 -1.2 11.05 -1.2 10.85 -1.1 10.8 -1.05 10.75 -1.0 10.75 -0.95 10.7 -0.9 10.75 -0.75 10.9 -0.6 11.2 -0.55 11.3 -0.55 11.4 -0.6 11.45 -0.65 11.5 -0.7 11.5 -0.75 11.55 -0.85 11.55 -0.9 11.5 -0.95 11.4 -1.1 11.35 -1.15" fill="url(#gradient5)" fill-rule="evenodd" stroke="none"/>
      <path d="M11.35 -1.15 L11.4 -1.1 11.5 -0.95 11.55 -0.9 11.55 -0.85 11.5 -0.75 11.5 -0.7 11.45 -0.65 11.4 -0.6 11.3 -0.55 11.2 -0.55 10.9 -0.6 10.75 -0.75 10.7 -0.9 10.75 -0.95 10.75 -1.0 10.8 -1.05 10.85 -1.1 11.05 -1.2 11.2 -1.2 11.35 -1.15" fill="url(#gradient6)" fill-rule="evenodd" stroke="none"/>
      <path d="M-5.65 -9.9 Q-6.95 -12.2 -5.95 -14.55 L-5.35 -14.65 Q-3.15 -14.1 -1.7 -12.1 -0.85 -11.55 -0.5 -8.4 L-1.95 -9.45 Q-3.5 -10.3 -4.75 -10.3 -5.3 -10.3 -5.65 -9.9" fill="#e4d392" fill-rule="evenodd" stroke="none"/>
      <path d="M3.35 4.8 L3.5 4.75 3.7 4.75 3.85 4.8 3.95 4.85 4.05 5.0 4.1 5.1 4.1 5.15 4.05 5.25 4.05 5.3 4.0 5.4 3.9 5.45 3.85 5.5 3.7 5.55 3.3 5.45 3.1 5.25 3.1 5.2 3.1 5.1 3.1 5.05 3.1 4.95 3.15 4.9 3.25 4.8 3.35 4.8" fill="url(#gradient7)" fill-rule="evenodd" stroke="none"/>
      <path d="M7.65 -4.65 L8.3 -5.75 Q8.55 -8.0 7.15 -8.75 5.1 -7.55 5.5 -6.85 L6.3 -5.35 Q6.6 -4.6 7.3 -4.6 L7.5 -4.65 7.65 -4.65 6.65 -3.05 5.55 -1.9 7.7 -2.35 Q10.2 -2.65 11.75 -1.85 L15.55 0.4 Q17.2 1.5 17.2 2.2 L17.1 2.6 15.7 2.0 13.6 0.85 Q12.4 0.15 9.55 0.2 L5.3 0.6 Q3.55 1.0 2.75 1.8 3.25 2.5 4.65 3.25 5.7 3.85 7.35 4.4 12.75 6.3 17.05 8.95 21.3 11.6 18.7 11.55 L8.6 8.4 Q3.1 6.85 1.0 5.15 -0.65 3.8 -0.95 2.75 L-1.05 2.1 -7.4 3.95 Q-9.25 4.55 -12.85 6.6 -16.5 8.65 -14.9 12.2 -13.3 15.7 -14.25 15.5 L-15.9 15.6 Q-17.6 15.65 -19.15 11.55 -20.8 7.45 -17.2 4.65 -13.65 1.85 -10.4 0.7 -7.9 -0.25 -6.6 -1.85 -9.9 -2.15 -10.6 -5.75 L-10.75 -6.65 -11.0 -10.4 Q-10.95 -12.5 -9.05 -13.75 L-6.35 -15.45 Q-5.0 -16.55 2.0 -10.55 2.55 -10.0 2.95 -8.65 L7.15 -8.75 M-0.25 -7.9 L1.75 -8.45 2.95 -8.65 M2.75 1.8 Q2.35 1.2 2.5 0.65 L5.55 -1.9 M-5.65 -9.9 Q-6.95 -12.2 -5.95 -14.55 L-5.35 -14.65 Q-3.15 -14.1 -1.7 -12.1 -0.85 -11.55 -0.5 -8.4 L-0.25 -7.9 -0.45 -7.85 -2.65 -6.65 -3.3 -6.2 Q-4.95 -4.85 -5.95 -2.85 L-6.6 -1.85 M-3.3 -6.2 L-4.65 -7.45 -5.15 -8.7 -5.65 -9.9 Q-5.3 -10.3 -4.75 -10.3 -3.5 -10.3 -1.95 -9.45 L-0.5 -8.4 -0.45 -7.85" fill="none" stroke="#e5ad0e" stroke-linecap="round" stroke-linejoin="miter" stroke-width="0.25"/>
    </g>
    <linearGradient gradientTransform="matrix(0.0018, 0.0, 0.0, 0.0025, 6.9, -6.7)" gradientUnits="userSpaceOnUse" id="gradient0" spreadMethod="pad" x1="-819.2" x2="819.2">
      <stop offset="0.0" stop-color="#bd9806"/>
      <stop offset="1.0" stop-color="#7b6304"/>
    </linearGradient>
    <radialGradient cx="0" cy="0" gradientTransform="matrix(0.0302, 0.0, 0.0, 0.0302, -1.0, -1.9)" gradientUnits="userSpaceOnUse" id="gradient1" r="819.2" spreadMethod="pad">
      <stop offset="0.0" stop-color="#f7c200"/>
      <stop offset="1.0" stop-color="#fff077"/>
    </radialGradient>
    <radialGradient cx="0" cy="0" gradientTransform="matrix(0.014, 0.0, 0.0, 0.014, -5.65, -4.25)" gradientUnits="userSpaceOnUse" id="gradient2" r="819.2" spreadMethod="pad">
      <stop offset="0.0" stop-color="#f7c200"/>
      <stop offset="1.0" stop-color="#fff077"/>
    </radialGradient>
    <linearGradient gradientTransform="matrix(0.002, 0.0, 0.0, 0.0034, 6.35, 22.0)" gradientUnits="userSpaceOnUse" id="gradient3" spreadMethod="pad" x1="-819.2" x2="819.2">
      <stop offset="0.0" stop-color="#bd9806"/>
      <stop offset="1.0" stop-color="#7b6304"/>
    </linearGradient>
    <linearGradient gradientTransform="matrix(7.0E-4, 0.0, 0.0, 7.0E-4, -0.2, -2.9)" gradientUnits="userSpaceOnUse" id="gradient4" spreadMethod="pad" x1="-819.2" x2="819.2">
      <stop offset="0.0" stop-color="#bd9806"/>
      <stop offset="1.0" stop-color="#7b6304"/>
    </linearGradient>
    <radialGradient cx="0" cy="0" gradientTransform="matrix(0.0162, 0.0, 0.0, 0.0162, 4.45, 0.2)" gradientUnits="userSpaceOnUse" id="gradient5" r="819.2" spreadMethod="pad">
      <stop offset="0.0" stop-color="#f7c200"/>
      <stop offset="1.0" stop-color="#fff077"/>
    </radialGradient>
    <linearGradient gradientTransform="matrix(5.0E-4, 0.0, 0.0, 4.0E-4, 11.1, -0.9)" gradientUnits="userSpaceOnUse" id="gradient6" spreadMethod="pad" x1="-819.2" x2="819.2">
      <stop offset="0.0" stop-color="#bd9806"/>
      <stop offset="1.0" stop-color="#7b6304"/>
    </linearGradient>
    <linearGradient gradientTransform="matrix(6.0E-4, 0.0, 0.0, 5.0E-4, 3.6, 5.15)" gradientUnits="userSpaceOnUse" id="gradient7" spreadMethod="pad" x1="-819.2" x2="819.2">
      <stop offset="0.0" stop-color="#bd9806"/>
      <stop offset="1.0" stop-color="#7b6304"/>
    </linearGradient>
  </defs>
</svg>
