<?xml version="1.0" encoding="UTF-8" standalone="no"?>
<svg xmlns:xlink="http://www.w3.org/1999/xlink" height="23.45px" width="22.05px" xmlns="http://www.w3.org/2000/svg">
  <g transform="matrix(1.0, 0.0, 0.0, 1.0, 11.1, 11.7)">
    <use height="23.45" transform="matrix(1.0, 0.0, 0.0, 1.0, -11.1, -11.7)" width="22.05" xlink:href="#shape0"/>
  </g>
  <defs>
    <g id="shape0" transform="matrix(1.0, 0.0, 0.0, 1.0, 11.1, 11.7)">
      <path d="M-0.45 -2.25 L-0.35 -2.45 Q0.7 -3.85 3.25 -3.7 5.25 -4.7 7.6 -4.6 5.75 -3.8 4.95 -2.45 L4.5 -0.55 4.3 0.65 1.55 0.45 1.35 0.2 -0.45 -2.2 -0.45 -2.25" fill="#beaf30" fill-rule="evenodd" stroke="none"/>
      <path d="M-0.05 2.85 L-0.2 2.75 Q-1.15 2.0 -1.25 0.9 L-1.0 -0.85 -0.65 -1.7 -0.5 -2.05 -0.45 -2.2 1.35 0.2 -0.05 2.85 M7.6 -4.6 Q8.75 -6.25 10.6 -6.75 11.0 -6.75 10.75 -6.55 8.8 -5.25 6.8 -2.65 L6.45 -0.05 4.3 0.65 4.5 -0.55 4.95 -2.45 Q5.75 -3.8 7.6 -4.6" fill="#e1d884" fill-rule="evenodd" stroke="none"/>
      <path d="M8.8 8.6 Q7.95 9.55 6.9 10.3 4.55 11.85 3.5 11.4 1.1 10.35 -1.65 11.3 -4.45 12.2 -7.2 8.6 -9.95 5.0 -10.7 -0.55 -11.45 -6.1 -8.25 -8.75 -5.05 -11.45 -2.15 -10.6 L0.85 -9.75 Q6.05 -11.4 9.2 -8.45 L10.6 -6.75 Q8.75 -6.25 7.6 -4.6 5.25 -4.7 3.25 -3.7 0.7 -3.85 -0.35 -2.45 L-0.45 -2.25 -0.5 -2.05 -0.65 -1.7 -1.0 -0.85 -1.25 0.9 Q-1.15 2.0 -0.2 2.75 L-0.05 2.85 Q0.75 3.5 0.55 3.8 -0.1 4.6 -0.1 5.7 -0.1 7.4 0.45 7.8 L2.05 9.0 Q3.15 9.75 4.8 10.35 L8.8 8.6" fill="url(#gradient0)" fill-rule="evenodd" stroke="none"/>
      <path d="M0.55 3.8 Q0.75 3.5 -0.05 2.85 L1.35 0.2 1.55 0.45 4.3 0.65 6.45 -0.05 4.95 2.45 5.35 3.85 Q3.2 5.45 2.6 5.45 L0.55 3.8 M-0.5 -2.05 L-0.45 -2.25 -0.45 -2.2 -0.5 -2.05 M3.65 2.45 L3.55 2.45 3.5 2.5 3.45 2.5 3.4 2.6 3.35 2.75 3.35 2.9 3.35 3.05 3.4 3.15 3.4 3.2 3.45 3.25 3.5 3.3 3.65 3.35 3.75 3.35 3.85 3.25 3.95 3.1 3.95 2.95 3.95 2.75 3.95 2.65 3.9 2.6 3.85 2.55 3.8 2.5 3.65 2.45" fill="#e7de98" fill-rule="evenodd" stroke="none"/>
      <path d="M4.8 10.35 Q3.15 9.75 2.05 9.0 L0.45 7.8 Q-0.1 7.4 -0.1 5.7 -0.1 4.6 0.55 3.8 L2.6 5.45 Q3.2 5.45 5.35 3.85 L5.65 4.85 2.8 6.0 Q1.85 8.1 4.8 10.35" fill="#efe9ba" fill-rule="evenodd" stroke="none"/>
      <path d="M3.65 2.45 L3.8 2.5 3.85 2.55 3.9 2.6 3.95 2.65 3.95 2.75 3.95 2.95 3.95 3.1 3.85 3.25 3.75 3.35 3.65 3.35 3.5 3.3 3.45 3.25 3.4 3.2 3.4 3.15 3.35 3.05 3.35 2.9 3.35 2.75 3.4 2.6 3.45 2.5 3.5 2.5 3.55 2.45 3.65 2.45" fill="#663300" fill-rule="evenodd" stroke="none"/>
      <path d="M8.8 8.6 L4.8 10.35 Q1.85 8.1 2.8 6.0 L5.65 4.85 Q5.35 7.25 6.05 7.85 6.8 8.4 8.8 8.6" fill="#f5eed6" fill-rule="evenodd" stroke="none"/>
      <path d="M10.6 -6.75 Q11.0 -6.75 10.75 -6.55 8.8 -5.25 6.8 -2.65 L6.45 -0.05 4.95 2.45 5.35 3.85 5.65 4.85 Q5.35 7.25 6.05 7.85 6.8 8.4 8.8 8.6" fill="none" stroke="#cfce98" stroke-linecap="round" stroke-linejoin="miter" stroke-width="0.25"/>
      <path d="M10.6 -6.75 L9.2 -8.45 Q6.05 -11.4 0.85 -9.75 L-2.15 -10.6 Q-5.05 -11.45 -8.25 -8.75 -11.45 -6.1 -10.7 -0.55 -9.95 5.0 -7.2 8.6 -4.45 12.2 -1.65 11.3 1.1 10.35 3.5 11.4 4.55 11.85 6.9 10.3 7.95 9.55 8.8 8.6 L4.8 10.35 Q3.15 9.75 2.05 9.0 L0.45 7.8 Q-0.1 7.4 -0.1 5.7 -0.1 4.6 0.55 3.8 0.75 3.5 -0.05 2.85 L-0.2 2.75 Q-1.15 2.0 -1.25 0.9 L-1.0 -0.85 -0.65 -1.7 -0.5 -2.05 -0.45 -2.25 -0.35 -2.45 Q0.7 -3.85 3.25 -3.7 5.25 -4.7 7.6 -4.6 8.75 -6.25 10.6 -6.75 Z" fill="none" stroke="#99cc00" stroke-linecap="round" stroke-linejoin="round" stroke-width="0.5"/>
      <path d="M5.1 -7.25 Q3.15 -7.0 1.2 -5.85 L-0.45 -5.85 Q-2.5 -6.9 -4.5 -6.85 -4.2 -7.75 -3.15 -8.45 -1.7 -9.45 0.4 -9.45 2.45 -9.45 3.9 -8.45 L5.1 -7.25" fill="url(#gradient1)" fill-rule="evenodd" stroke="none"/>
      <path d="M2.5 -11.45 Q1.2 -9.65 0.55 -6.9 L0.3 -6.0 0.45 -6.9 Q0.95 -10.1 1.9 -11.45 L2.5 -11.45" fill="#996600" fill-rule="evenodd" stroke="none"/>
      <path d="M2.5 -11.45 Q1.2 -9.65 0.55 -6.9 L0.3 -6.0 0.45 -6.9 Q0.95 -10.1 1.9 -11.45 L2.5 -11.45 Z" fill="none" stroke="#663300" stroke-linecap="round" stroke-linejoin="round" stroke-width="0.5"/>
    </g>
    <radialGradient cx="0" cy="0" gradientTransform="matrix(0.0207, 0.0, 0.0, 0.0207, -4.95, -1.0)" gradientUnits="userSpaceOnUse" id="gradient0" r="819.2" spreadMethod="pad">
      <stop offset="0.23529411764705882" stop-color="#b0db02"/>
      <stop offset="1.0" stop-color="#96ba01"/>
    </radialGradient>
    <radialGradient cx="0" cy="0" gradientTransform="matrix(0.0076, 0.0, 0.0, 0.0058, 0.45, -5.8)" gradientUnits="userSpaceOnUse" id="gradient1" r="819.2" spreadMethod="pad">
      <stop offset="0.0" stop-color="#666600"/>
      <stop offset="0.7254901960784313" stop-color="#a1c801"/>
    </radialGradient>
  </defs>
</svg>
