<?xml version="1.0" encoding="UTF-8" standalone="no"?>
<svg xmlns:xlink="http://www.w3.org/1999/xlink" height="43.6px" width="42.3px" xmlns="http://www.w3.org/2000/svg">
  <g transform="matrix(1.0, 0.0, 0.0, 1.0, 21.15, 21.8)">
    <use height="43.6" transform="matrix(1.0, 0.0, 0.0, 1.0, -21.15, -21.8)" width="42.3" xlink:href="#shape0"/>
  </g>
  <defs>
    <g id="shape0" transform="matrix(1.0, 0.0, 0.0, 1.0, 21.15, 21.8)">
      <path d="M0.95 -0.8 L1.1 -0.65 1.2 -0.45 1.1 -0.3 1.0 -0.25 0.85 -0.2 0.45 -0.25 0.15 -0.6 0.15 -0.7 0.25 -0.8 0.25 -0.85 0.3 -0.95 0.4 -0.95 0.5 -1.0 0.7 -0.95 0.95 -0.8 M-13.9 -16.85 Q-13.1 -19.9 -11.45 -21.65 L-9.85 -19.2 -10.45 -18.0 Q-11.05 -16.9 -10.6 -15.85 L-10.75 -15.3 -10.75 -14.2 -10.9 -14.15 -11.0 -13.8 -11.05 -12.7 -12.25 -13.4 -12.65 -14.35 -13.45 -13.15 -13.25 -14.85 -13.55 -14.0 -14.1 -13.9 -13.8 -15.55 -14.65 -14.95 -13.9 -16.75 -13.9 -16.85 M12.15 12.65 Q12.0 15.65 11.35 15.7 L11.25 15.65 Q10.8 15.45 10.1 14.05 10.8 12.05 12.15 12.65 M-11.55 -10.35 L-11.5 -10.45 -11.3 -10.5 -11.25 -10.5 -11.15 -10.45 -11.05 -10.35 -11.0 -10.3 -10.95 -10.2 -10.95 -10.05 -11.0 -9.75 -11.15 -9.5 -11.25 -9.45 -11.45 -9.5 -11.5 -9.55 -11.55 -9.65 -11.6 -9.7 -11.6 -9.75 -11.6 -9.9 -11.7 -10.05 -11.7 -10.2 -11.6 -10.3 -11.55 -10.35 M-13.55 -12.1 L-13.4 -12.05 -13.35 -12.0 -13.3 -11.9 -13.2 -11.85 -13.2 -11.45 -13.3 -11.0 -13.3 -10.5 Q-13.25 -10.1 -13.6 -10.0 L-13.8 -10.05 -13.9 -10.15 -13.95 -10.5 -13.95 -10.95 -13.95 -11.35 -13.9 -11.8 -13.85 -11.9 -13.8 -12.0 -13.7 -12.05 -13.55 -12.1 M-14.8 -12.0 L-14.75 -11.9 -14.75 -11.85 -14.75 -11.65 -14.85 -11.35 -14.95 -11.05 -15.2 -10.75 -15.35 -10.7 -15.6 -10.95 -15.65 -11.35 -15.5 -11.75 -15.25 -12.05 -15.15 -12.1 -15.0 -12.1 -14.9 -12.05 -14.8 -12.0 M-13.85 -8.95 L-13.85 -8.9 -13.8 -8.75 -13.8 -8.6 -13.9 -8.4 -14.1 -8.2 -14.3 -8.25 -14.4 -8.4 -14.4 -8.45 -14.45 -8.5 -14.45 -8.65 -14.45 -8.75 -14.4 -8.9 -14.4 -8.95 -14.35 -9.0 -14.3 -9.1 -14.1 -9.15 -13.95 -9.1 -13.9 -9.0 -13.85 -8.95 M-19.15 -6.5 L-19.2 -6.6 -19.2 -6.75 -19.15 -6.8 -19.15 -6.85 -19.1 -6.9 -18.95 -6.95 -18.85 -6.95 -18.65 -6.9 -18.6 -6.85 -18.55 -6.75 -18.5 -6.6 -18.5 -6.55 -18.55 -6.5 -18.65 -6.4 -19.05 -6.35 -19.15 -6.45 -19.15 -6.5 M-19.45 -2.9 L-19.2 -2.75 -19.1 -2.4 -19.05 -2.1 -19.1 -1.8 -19.15 -1.75 -19.2 -1.75 -19.3 -1.65 -19.45 -1.75 -19.6 -1.85 -19.7 -2.1 -19.75 -2.35 -19.8 -2.6 -19.8 -2.75 -19.75 -2.8 -19.7 -2.85 -19.6 -2.85 -19.45 -2.9 M-11.85 -1.6 L-11.8 -1.5 -11.75 -1.4 -11.8 -1.35 -11.8 -1.3 -11.9 -1.15 -12.25 -1.1 -12.35 -1.2 -12.4 -1.3 -12.4 -1.4 -12.4 -1.55 -12.35 -1.6 -12.3 -1.65 -12.2 -1.75 -12.05 -1.75 -11.95 -1.65 -11.85 -1.6 M-8.0 -2.35 L-7.8 -2.3 -7.6 -2.05 -7.35 -1.65 -7.3 -1.2 Q-7.35 -0.95 -7.65 -0.85 L-7.8 -0.95 -7.9 -1.0 -7.9 -1.05 -8.0 -1.15 -8.05 -1.4 -8.15 -1.55 -8.35 -1.8 -8.4 -2.0 -8.4 -2.05 -8.35 -2.1 -8.35 -2.15 -8.25 -2.3 -8.1 -2.35 -8.0 -2.35 M-9.7 3.2 L-9.7 3.45 -9.75 3.5 -9.75 3.55 -9.85 3.7 -10.4 3.5 -10.75 3.0 -11.05 2.6 -11.05 2.15 -11.0 2.1 -10.95 2.1 -10.9 2.05 -10.75 2.05 Q-10.55 2.0 -10.45 2.2 L-10.2 2.55 -9.9 2.9 -9.7 3.2 M-4.7 8.6 L-4.55 8.6 -4.45 8.5 -4.05 8.7 -3.85 9.05 -3.85 9.5 -4.1 9.75 -4.35 9.6 -4.45 9.5 -4.55 9.2 -4.8 8.9 -4.8 8.75 -4.8 8.7 -4.75 8.65 -4.7 8.6 M-15.2 10.7 L-15.1 10.6 -14.95 10.6 -14.85 10.6 -14.75 10.7 Q-14.65 10.7 -14.6 10.8 L-14.5 10.95 -14.5 11.1 -14.65 11.25 -14.95 11.35 -15.25 11.05 -15.35 10.9 -15.35 10.85 -15.25 10.8 -15.25 10.75 -15.2 10.7 M-14.0 14.2 L-13.9 14.25 -13.8 14.3 -13.7 14.4 -13.6 14.6 -13.6 15.0 -13.65 15.4 -13.95 15.7 Q-14.0 15.6 -14.1 15.6 L-14.15 15.55 -14.25 15.5 -14.3 15.4 -14.3 15.1 -14.3 14.9 -14.35 14.55 -14.3 14.4 -14.25 14.3 -14.15 14.25 -14.0 14.2 M-11.45 17.3 L-11.3 17.35 Q-11.25 17.3 -11.2 17.4 L-11.15 17.45 -11.1 17.55 -11.1 17.65 -11.15 17.8 -11.3 17.95 -11.75 17.9 -11.75 17.85 -11.8 17.8 -11.8 17.65 -11.8 17.55 -11.8 17.45 -11.75 17.4 -11.7 17.35 -11.55 17.3 -11.45 17.3 M16.4 1.9 L16.45 1.85 16.6 1.8 16.7 1.8 16.9 1.85 16.95 1.9 17.0 2.05 17.05 2.15 17.05 2.2 17.0 2.25 16.9 2.35 16.55 2.4 16.4 2.3 16.4 2.25 16.35 2.15 16.35 2.05 16.4 1.95 16.4 1.9 M8.0 1.55 L7.05 1.6 6.95 1.55 6.7 1.3 6.65 1.15 6.65 1.05 6.7 1.0 6.7 0.95 6.8 0.9 7.0 0.85 7.25 0.95 7.35 0.95 7.8 1.0 8.15 1.15 8.2 1.3 8.2 1.35 8.15 1.4 8.15 1.45 8.05 1.5 8.0 1.55 M0.9 8.05 L0.95 8.1 0.95 8.15 0.9 8.25 0.9 8.35 0.8 8.45 0.7 8.45 0.6 8.5 0.3 8.45 0.1 8.25 0.1 8.1 0.1 8.0 0.15 7.95 0.25 7.9 0.35 7.9 Q0.35 7.8 0.45 7.85 L0.6 7.85 Q0.65 7.8 0.7 7.9 L0.85 7.95 0.9 8.05" fill="#5c4901" fill-rule="evenodd" stroke="none"/>
      <path d="M0.95 -0.8 L0.7 -0.95 0.5 -1.0 0.4 -0.95 0.3 -0.95 0.25 -0.85 0.25 -0.8 0.15 -0.7 0.15 -0.6 0.45 -0.25 0.85 -0.2 1.0 -0.25 1.1 -0.3 1.2 -0.45 1.1 -0.65 0.95 -0.8 M-10.6 -15.85 L-10.6 -15.15 -9.15 -12.25 Q-4.85 -4.25 2.0 -1.9 9.6 1.15 18.3 0.25 23.8 0.65 18.3 3.1 9.1 5.1 0.25 2.8 -4.95 -3.65 -8.6 -10.45 -6.65 -5.0 -1.7 2.25 2.0 6.2 12.15 12.65 10.8 12.05 10.1 14.05 L6.9 12.95 4.0 11.8 Q-8.25 6.1 -12.2 -5.35 -12.05 -3.4 -11.7 -2.55 L-10.25 0.25 -9.9 0.95 -6.4 5.55 -1.45 10.05 2.6 11.65 3.5 12.1 4.75 12.6 4.0 11.8 8.6 15.7 9.15 16.2 Q7.9 17.6 5.85 16.2 4.75 14.0 1.45 14.15 -3.35 13.75 -8.65 10.6 -16.2 5.6 -16.9 -8.4 -18.1 -4.55 -17.3 -1.0 -16.15 4.1 -13.5 6.8 -14.05 10.95 -8.3 20.6 -9.4 24.75 -16.4 13.55 L-19.85 3.5 Q-22.25 -3.0 -19.85 -9.5 L-13.9 -16.85 -13.9 -16.75 -14.65 -14.95 -13.8 -15.55 -14.1 -13.9 -13.55 -14.0 -13.25 -14.85 -13.45 -13.15 -12.65 -14.35 -12.25 -13.4 -11.05 -12.7 -11.0 -13.8 -10.9 -14.15 -10.75 -14.2 -10.75 -15.3 -10.6 -15.85 M-11.85 -1.6 L-11.95 -1.65 -12.05 -1.75 -12.2 -1.75 -12.3 -1.65 -12.35 -1.6 -12.4 -1.55 -12.4 -1.4 -12.4 -1.3 -12.35 -1.2 -12.25 -1.1 -11.9 -1.15 -11.8 -1.3 -11.8 -1.35 -11.75 -1.4 -11.8 -1.5 -11.85 -1.6 M-19.45 -2.9 L-19.6 -2.85 -19.7 -2.85 -19.75 -2.8 -19.8 -2.75 -19.8 -2.6 -19.75 -2.35 -19.7 -2.1 -19.6 -1.85 -19.45 -1.75 -19.3 -1.65 -19.2 -1.75 -19.15 -1.75 -19.1 -1.8 -19.05 -2.1 -19.1 -2.4 -19.2 -2.75 -19.45 -2.9 M-19.15 -6.5 L-19.15 -6.45 -19.05 -6.35 -18.65 -6.4 -18.55 -6.5 -18.5 -6.55 -18.5 -6.6 -18.55 -6.75 -18.6 -6.85 -18.65 -6.9 -18.85 -6.95 -18.95 -6.95 -19.1 -6.9 -19.15 -6.85 -19.15 -6.8 -19.2 -6.75 -19.2 -6.6 -19.15 -6.5 M-13.85 -8.95 L-13.9 -9.0 -13.95 -9.1 -14.1 -9.15 -14.3 -9.1 -14.35 -9.0 -14.4 -8.95 -14.4 -8.9 -14.45 -8.75 -14.45 -8.65 -14.45 -8.5 -14.4 -8.45 -14.4 -8.4 -14.3 -8.25 -14.1 -8.2 -13.9 -8.4 -13.8 -8.6 -13.8 -8.75 -13.85 -8.9 -13.85 -8.95 M-14.8 -12.0 L-14.9 -12.05 -15.0 -12.1 -15.15 -12.1 -15.25 -12.05 -15.5 -11.75 -15.65 -11.35 -15.6 -10.95 -15.35 -10.7 -15.2 -10.75 -14.95 -11.05 -14.85 -11.35 -14.75 -11.65 -14.75 -11.85 -14.75 -11.9 -14.8 -12.0 M-13.55 -12.1 L-13.7 -12.05 -13.8 -12.0 -13.85 -11.9 -13.9 -11.8 -13.95 -11.35 -13.95 -10.95 -13.95 -10.5 -13.9 -10.15 -13.8 -10.05 -13.6 -10.0 Q-13.25 -10.1 -13.3 -10.5 L-13.3 -11.0 -13.2 -11.45 -13.2 -11.85 -13.3 -11.9 -13.35 -12.0 -13.4 -12.05 -13.55 -12.1 M-11.55 -10.35 L-11.6 -10.3 -11.7 -10.2 -11.7 -10.05 -11.6 -9.9 -11.6 -9.75 -11.6 -9.7 -11.55 -9.65 -11.5 -9.55 -11.45 -9.5 -11.25 -9.45 -11.15 -9.5 -11.0 -9.75 -10.95 -10.05 -10.95 -10.2 -11.0 -10.3 -11.05 -10.35 -11.15 -10.45 -11.25 -10.5 -11.3 -10.5 -11.5 -10.45 -11.55 -10.35 M-12.6 -9.45 Q-12.9 -8.95 -12.2 -5.35 -12.9 -8.95 -12.6 -9.45 M0.9 8.05 L0.85 7.95 0.7 7.9 Q0.65 7.8 0.6 7.85 L0.45 7.85 Q0.35 7.8 0.35 7.9 L0.25 7.9 0.15 7.95 0.1 8.0 0.1 8.1 0.1 8.25 0.3 8.45 0.6 8.5 0.7 8.45 0.8 8.45 0.9 8.35 0.9 8.25 0.95 8.15 0.95 8.1 0.9 8.05 M8.0 1.55 L8.05 1.5 8.15 1.45 8.15 1.4 8.2 1.35 8.2 1.3 8.15 1.15 7.8 1.0 7.35 0.95 7.25 0.95 7.0 0.85 6.8 0.9 6.7 0.95 6.7 1.0 6.65 1.05 6.65 1.15 6.7 1.3 6.95 1.55 7.05 1.6 8.0 1.55 M16.4 1.9 L16.4 1.95 16.35 2.05 16.35 2.15 16.4 2.25 16.4 2.3 16.55 2.4 16.9 2.35 17.0 2.25 17.05 2.2 17.05 2.15 17.0 2.05 16.95 1.9 16.9 1.85 16.7 1.8 16.6 1.8 16.45 1.85 16.4 1.9 M-11.45 17.3 L-11.55 17.3 -11.7 17.35 -11.75 17.4 -11.8 17.45 -11.8 17.55 -11.8 17.65 -11.8 17.8 -11.75 17.85 -11.75 17.9 -11.3 17.95 -11.15 17.8 -11.1 17.65 -11.1 17.55 -11.15 17.45 -11.2 17.4 Q-11.25 17.3 -11.3 17.35 L-11.45 17.3 M-14.0 14.2 L-14.15 14.25 -14.25 14.3 -14.3 14.4 -14.35 14.55 -14.3 14.9 -14.3 15.1 -14.3 15.4 -14.25 15.5 -14.15 15.55 -14.1 15.6 Q-14.0 15.6 -13.95 15.7 L-13.65 15.4 -13.6 15.0 -13.6 14.6 -13.7 14.4 -13.8 14.3 -13.9 14.25 -14.0 14.2 M-15.2 10.7 L-15.25 10.75 -15.25 10.8 -15.35 10.85 -15.35 10.9 -15.25 11.05 -14.95 11.35 -14.65 11.25 -14.5 11.1 -14.5 10.95 -14.6 10.8 Q-14.65 10.7 -14.75 10.7 L-14.85 10.6 -14.95 10.6 -15.1 10.6 -15.2 10.7 M-4.7 8.6 L-4.75 8.65 -4.8 8.7 -4.8 8.75 -4.8 8.9 -4.55 9.2 -4.45 9.5 -4.35 9.6 -4.1 9.75 -3.85 9.5 -3.85 9.05 -4.05 8.7 -4.45 8.5 -4.55 8.6 -4.7 8.6 M-9.7 3.2 L-9.9 2.9 -10.2 2.55 -10.45 2.2 Q-10.55 2.0 -10.75 2.05 L-10.9 2.05 -10.95 2.1 -11.0 2.1 -11.05 2.15 -11.05 2.6 -10.75 3.0 -10.4 3.5 -9.85 3.7 -9.75 3.55 -9.75 3.5 -9.7 3.45 -9.7 3.2 M-8.0 -2.35 L-8.1 -2.35 -8.25 -2.3 -8.35 -2.15 -8.35 -2.1 -8.4 -2.05 -8.4 -2.0 -8.35 -1.8 -8.15 -1.55 -8.05 -1.4 -8.0 -1.15 -7.9 -1.05 -7.9 -1.0 -7.8 -0.95 -7.65 -0.85 Q-7.35 -0.95 -7.3 -1.2 L-7.35 -1.65 -7.6 -2.05 -7.8 -2.3 -8.0 -2.35" fill="url(#gradient0)" fill-rule="evenodd" stroke="none"/>
      <path d="M0.25 2.8 L-1.7 2.25 Q-6.65 -5.0 -8.6 -10.45 -4.95 -3.65 0.25 2.8 M11.25 15.65 L8.6 15.7 4.0 11.8 4.75 12.6 3.5 12.1 2.6 11.65 -1.45 10.05 -6.4 5.55 -9.9 0.95 -10.25 0.25 -11.7 -2.55 Q-12.05 -3.4 -12.2 -5.35 -8.25 6.1 4.0 11.8 L6.9 12.95 10.1 14.05 Q10.8 15.45 11.25 15.65 M-8.65 10.6 Q-11.2 9.05 -13.5 6.8 -16.15 4.1 -17.3 -1.0 -18.1 -4.55 -16.9 -8.4 -16.2 5.6 -8.65 10.6" fill="#5d4a01" fill-rule="evenodd" stroke="none"/>
      <path d="M-13.9 -16.85 Q-13.1 -19.9 -11.45 -21.65 L-9.85 -19.2 -10.45 -18.0 Q-11.05 -16.9 -10.6 -15.85 L-10.6 -15.15 -9.15 -12.25 Q-4.85 -4.25 2.0 -1.9 9.6 1.15 18.3 0.25 23.8 0.65 18.3 3.1 9.1 5.1 0.25 2.8 L-1.7 2.25 Q2.0 6.2 12.15 12.65 12.0 15.65 11.35 15.7 L11.25 15.65 8.6 15.7 9.15 16.2 Q7.9 17.6 5.85 16.2 4.75 14.0 1.45 14.15 -3.35 13.75 -8.65 10.6 -11.2 9.05 -13.5 6.8 -14.05 10.95 -8.3 20.6 -9.4 24.75 -16.4 13.55 L-19.85 3.5 Q-22.25 -3.0 -19.85 -9.5 L-13.9 -16.85 M-12.2 -5.35 Q-12.9 -8.95 -12.6 -9.45 M-13.5 6.8 Q-16.15 4.1 -17.3 -1.0 -18.1 -4.55 -16.9 -8.4 M-12.2 -5.35 Q-8.25 6.1 4.0 11.8 L6.9 12.95 10.1 14.05 Q10.8 12.05 12.15 12.65 M4.0 11.8 L8.6 15.7 M10.1 14.05 Q10.8 15.45 11.25 15.65" fill="none" stroke="#433501" stroke-linecap="round" stroke-linejoin="miter" stroke-width="0.25"/>
    </g>
    <radialGradient cx="0" cy="0" gradientTransform="matrix(0.0378, 0.0, 0.0, 0.0378, -9.1, -5.75)" gradientUnits="userSpaceOnUse" id="gradient0" r="819.2" spreadMethod="pad">
      <stop offset="0.0" stop-color="#5c4901"/>
      <stop offset="1.0" stop-color="#8f8101"/>
    </radialGradient>
  </defs>
</svg>
