<?xml version="1.0" encoding="UTF-8" standalone="no"?>
<svg xmlns:xlink="http://www.w3.org/1999/xlink" height="30.8px" width="40.0px" xmlns="http://www.w3.org/2000/svg">
  <g transform="matrix(1.0, 0.0, 0.0, 1.0, 20.0, 15.4)">
    <use height="30.8" transform="matrix(1.0, 0.0, 0.0, 1.0, -20.0, -15.4)" width="40.0" xlink:href="#shape0"/>
  </g>
  <defs>
    <g id="shape0" transform="matrix(1.0, 0.0, 0.0, 1.0, 20.0, 15.4)">
      <path d="M-19.1 7.4 L-19.45 7.15 Q-19.85 6.7 -19.85 6.05 -18.65 0.65 -10.7 -5.95 -2.15 -13.1 4.65 -15.2 5.4 -15.4 5.75 -14.7 L6.05 -14.2 6.1 -14.05 8.55 -9.45 8.9 -8.8 9.0 -8.6 9.1 -8.5 10.9 -7.05 13.5 -4.45 16.95 0.45 19.85 5.2 19.8 5.2 Q19.65 5.25 19.8 5.25 L19.0 5.6 16.75 7.4 Q14.9 9.0 14.7 10.8 L14.7 11.0 Q12.95 10.7 11.3 11.95 L10.55 12.6 Q9.65 13.5 9.45 14.6 3.2 13.3 -2.95 11.05 -9.2 8.75 -10.7 8.5 L-12.65 8.05 -12.8 8.0 -12.85 7.95 -15.2 6.25 Q-16.25 5.6 -17.9 5.6 -19.5 5.6 -19.35 6.65 L-19.1 7.4" fill="url(#gradient0)" fill-rule="evenodd" stroke="none"/>
      <path d="M19.8 5.25 L19.8 5.8 19.25 6.05 17.1 7.95 Q15.25 9.65 15.05 11.45 L15.05 11.65 Q13.3 11.35 11.65 12.6 L10.9 13.25 Q10.0 14.15 9.8 15.25 L9.35 15.2 9.35 15.25 8.7 15.1 6.5 14.55 0.25 12.95 -5.1 11.6 -9.5 10.0 Q-10.35 9.7 -14.35 8.55 L-17.6 8.1 Q-18.7 7.95 -19.1 7.4 L-19.35 6.65 Q-19.5 5.6 -17.9 5.6 -16.25 5.6 -15.2 6.25 L-12.85 7.95 -12.8 8.0 -12.65 8.05 -10.7 8.5 Q-9.2 8.75 -2.95 11.05 3.2 13.3 9.45 14.6 9.65 13.5 10.55 12.6 L11.3 11.95 Q12.95 10.7 14.7 11.0 L14.7 10.8 Q14.9 9.0 16.75 7.4 L19.0 5.6 19.8 5.25" fill="#9d6b33" fill-rule="evenodd" stroke="none"/>
      <path d="M-19.1 7.4 L-19.45 7.15 Q-19.85 6.7 -19.85 6.05 -18.65 0.65 -10.7 -5.95 -2.15 -13.1 4.65 -15.2 5.4 -15.4 5.75 -14.7 L6.05 -14.2 6.1 -14.05 8.55 -9.45 8.9 -8.8 9.0 -8.6 9.1 -8.5 10.9 -7.05 13.5 -4.45 16.95 0.45 19.85 5.2 19.8 5.2 Q19.65 5.25 19.8 5.25" fill="none" stroke="#9d6b33" stroke-linecap="round" stroke-linejoin="round" stroke-width="0.35000000000000003"/>
      <path d="M19.8 5.25 L19.8 5.8 19.25 6.05 17.1 7.95 Q15.25 9.65 15.05 11.45 L15.05 11.65 Q13.3 11.35 11.65 12.6 L10.9 13.25 Q10.0 14.15 9.8 15.25 L9.35 15.2 9.35 15.25 8.7 15.1 6.5 14.55 0.25 12.95 -5.1 11.6 -9.5 10.0 Q-10.35 9.7 -14.35 8.55 L-17.6 8.1 Q-18.7 7.95 -19.1 7.4 L-19.35 6.65 Q-19.5 5.6 -17.9 5.6 -16.25 5.6 -15.2 6.25 L-12.85 7.95 -12.8 8.0 -12.65 8.05 -10.7 8.5 Q-9.2 8.75 -2.95 11.05 3.2 13.3 9.45 14.6 9.65 13.5 10.55 12.6 L11.3 11.95 Q12.95 10.7 14.7 11.0 L14.7 10.8 Q14.9 9.0 16.75 7.4 L19.0 5.6 19.8 5.25" fill="none" stroke="#80552b" stroke-linecap="round" stroke-linejoin="round" stroke-width="0.35000000000000003"/>
      <path d="M7.5 -8.3 L4.1 -5.65 3.45 -6.3 Q3.45 -6.6 4.55 -7.7 5.75 -8.95 6.6 -8.95 7.5 -8.95 7.5 -8.3 M11.95 -3.05 Q13.05 -3.05 13.9 -1.1 13.9 0.55 11.45 5.2 L9.65 9.3 Q8.7 11.3 7.35 11.3 6.35 11.3 6.35 10.5 L7.15 7.35 Q7.9 4.75 8.2 4.15 L9.55 0.4 Q10.45 -1.85 11.2 -1.9 11.2 -3.05 11.95 -3.05 M5.5 -3.3 L4.95 0.05 Q4.85 2.4 4.05 3.3 1.25 5.6 0.45 6.65 L-1.1 8.55 -1.1 8.9 Q-1.1 10.45 -2.7 10.45 -3.6 10.45 -4.0 9.7 L-4.25 8.85 Q-4.25 7.75 -3.5 7.4 L0.15 1.65 Q1.15 0.05 4.85 -4.45 5.7 -4.45 5.5 -3.3 M-0.15 -3.25 L-2.4 -0.7 Q-3.05 -0.7 -3.05 -1.4 L-2.4 -2.75 Q-1.6 -3.95 -0.75 -3.95 -0.1 -3.95 -0.15 -3.25 M-6.4 1.55 Q-6.4 0.4 -5.4 0.4 -4.75 0.4 -4.75 1.05 -4.75 2.25 -5.75 2.25 -6.4 2.25 -6.4 1.55" fill="#fedf9a" fill-rule="evenodd" stroke="none"/>
      <path d="M2.2 -4.65 Q3.85 -6.05 6.45 -6.4 9.0 -6.7 10.95 -5.8 12.9 -4.9 13.1 -3.35 13.35 -1.75 11.7 -0.35 10.05 1.05 7.5 1.35 4.9 1.7 2.95 0.8 1.0 -0.1 0.75 -1.7 0.55 -3.25 2.2 -4.65" fill="url(#gradient1)" fill-rule="evenodd" stroke="none"/>
      <path d="M10.3 13.5 Q9.1 14.65 7.05 14.25 5.1 13.85 3.45 12.15 1.85 10.45 1.45 8.4 1.15 6.4 2.35 5.25 3.55 4.1 5.5 4.5 7.55 4.95 9.15 6.65 10.8 8.35 11.1 10.35 11.5 12.35 10.3 13.5" fill="url(#gradient2)" fill-rule="evenodd" stroke="none"/>
      <path d="M7.7 -11.0 L6.1 -10.5 3.6 -10.15 2.3 -9.4 Q1.4 -9.1 1.0 -8.7 L0.2 -7.8 Q-1.85 -7.15 -2.6 -6.7 L-2.7 -6.65 -2.55 -6.8 -1.5 -8.35 0.25 -8.55 Q0.9 -8.55 3.25 -11.2 L5.8 -11.35 7.5 -11.4 7.7 -11.0 M-3.95 -5.3 Q-4.35 -4.25 -4.7 -3.7 -5.35 -3.6 -6.0 -2.45 -6.7 -1.3 -8.0 -1.05 L-8.75 -0.75 Q-9.55 0.2 -9.75 1.4 -9.55 2.15 -10.75 2.75 -11.7 3.1 -12.05 4.1 -12.2 5.25 -12.65 5.65 L-13.9 7.15 -14.45 6.85 -14.5 6.3 -14.4 5.75 Q-14.2 5.45 -13.2 4.95 -12.65 4.2 -12.95 3.25 L-12.45 2.55 Q-10.5 1.55 -10.5 1.25 -10.5 -1.2 -9.75 -1.3 -7.45 -1.65 -7.15 -2.75 -6.85 -3.75 -6.2 -3.7 L-5.85 -3.45 -3.95 -5.3" fill="#922307" fill-opacity="0.69803923" fill-rule="evenodd" stroke="none"/>
      <path d="M7.6 -9.75 Q7.15 -9.75 7.15 -10.15 7.15 -10.55 7.6 -10.55 7.95 -10.55 7.95 -10.15 7.95 -9.75 7.6 -9.75 M7.7 -11.0 L7.95 -10.55 7.4 -10.55 6.1 -10.5 7.7 -11.0 M-2.7 -6.65 L-2.6 -6.7 Q-1.85 -7.15 0.2 -7.8 L1.0 -8.7 Q1.4 -9.1 2.3 -9.4 L3.6 -10.15 6.1 -10.5 5.3 -10.25 Q4.4 -9.65 3.3 -9.3 2.8 -9.3 2.45 -8.75 L1.1 -7.2 -1.0 -6.75 -2.05 -5.5 -4.5 -2.05 -5.95 -1.3 -7.85 0.15 Q-8.0 0.15 -8.3 0.5 -8.7 0.9 -8.55 1.5 -8.8 2.85 -9.6 3.0 -11.35 3.15 -12.0 5.1 L-12.7 6.45 -12.3 8.25 Q-13.25 8.0 -13.9 7.15 L-12.65 5.65 Q-12.2 5.25 -12.05 4.1 -11.7 3.1 -10.75 2.75 -9.55 2.15 -9.75 1.4 -9.55 0.2 -8.75 -0.75 L-8.0 -1.05 Q-6.7 -1.3 -6.0 -2.45 -5.35 -3.6 -4.7 -3.7 -4.35 -4.25 -3.95 -5.3 L-3.9 -5.35 -2.7 -6.65 M-5.15 -4.45 Q-5.15 -4.05 -5.5 -4.05 -5.95 -4.05 -5.95 -4.45 -5.95 -4.85 -5.5 -4.85 -5.15 -4.85 -5.15 -4.45 M-1.1 -5.95 Q-1.1 -6.35 -0.65 -6.35 -0.3 -6.35 -0.3 -5.95 -0.3 -5.55 -0.65 -5.55 -1.1 -5.55 -1.1 -5.95 M-10.6 4.35 Q-11.05 4.35 -11.05 3.95 -11.05 3.55 -10.6 3.55 -10.25 3.55 -10.25 3.95 -10.25 4.35 -10.6 4.35" fill="#970202" fill-opacity="0.8235294" fill-rule="evenodd" stroke="none"/>
      <path d="M-6.0 8.3 L-8.45 8.0 Q-9.45 7.5 -9.6 6.65 -9.7 5.8 -8.8 5.05 -7.95 4.35 -6.55 4.15 L-4.1 4.45 Q-3.05 4.9 -2.95 5.75 -2.8 6.6 -3.75 7.4 -4.6 8.1 -6.0 8.3" fill="url(#gradient3)" fill-rule="evenodd" stroke="none"/>
      <path d="M17.45 3.65 Q18.3 4.6 18.5 5.7 L18.55 5.9 16.75 7.4 16.35 7.75 Q15.25 7.55 14.35 6.65 13.45 5.7 13.3 4.6 13.1 3.5 13.75 2.9 14.4 2.3 15.5 2.5 16.55 2.75 17.45 3.65" fill="url(#gradient4)" fill-rule="evenodd" stroke="none"/>
      <path d="M1.6 -4.35 Q1.8 -5.6 3.3 -6.25 L6.6 -6.55 Q8.4 -6.2 9.5 -5.05 10.65 -3.95 10.4 -2.65 10.15 -1.4 8.7 -0.8 7.25 -0.1 5.4 -0.45 3.6 -0.8 2.5 -1.95 1.35 -3.1 1.6 -4.35 M7.85 -1.9 Q7.85 -2.75 7.0 -2.75 5.95 -2.75 5.95 -1.9 5.95 -1.65 6.1 -1.45 6.35 -1.0 6.9 -1.0 7.85 -1.0 7.85 -1.9 M3.05 -3.2 Q3.25 -1.6 4.4 -3.0 5.55 -4.4 6.95 -3.95 L8.5 -4.05 Q8.9 -4.75 7.35 -5.05 6.0 -5.3 4.35 -5.05 2.8 -4.85 3.05 -3.2 M18.6 3.15 L19.55 4.7 18.85 5.1 Q16.65 6.35 14.95 5.65 13.25 4.95 12.4 3.55 11.55 2.2 12.05 1.05 12.5 -0.05 13.85 -0.4 L14.15 -0.45 16.4 -0.4 16.45 -0.4 16.95 0.45 17.6 1.55 Q16.6 2.5 15.0 1.75 13.35 1.0 13.2 1.4 13.0 1.75 14.85 3.4 16.7 5.0 17.55 4.25 L18.6 3.15 M0.1 11.0 Q-1.6 10.25 -2.45 8.85 -3.3 7.5 -2.8 6.35 -2.35 5.25 -1.0 4.9 L-0.7 4.85 1.55 4.9 2.55 5.25 Q4.25 6.0 5.1 7.35 5.95 8.7 5.45 9.9 4.95 11.05 3.4 11.35 L0.1 11.0 M2.6 9.7 L3.9 8.15 Q4.45 7.55 2.85 8.15 1.2 8.75 -0.15 7.45 -1.5 6.15 -1.75 6.75 -2.0 7.35 -0.2 9.0 1.55 10.6 2.6 9.7" fill="#86352d" fill-rule="evenodd" stroke="none"/>
      <path d="M3.05 -3.2 Q2.8 -4.85 4.35 -5.05 6.0 -5.3 7.35 -5.05 8.9 -4.75 8.5 -4.05 L6.95 -3.95 Q5.55 -4.4 4.4 -3.0 3.25 -1.6 3.05 -3.2 M7.85 -1.9 Q7.85 -1.0 6.9 -1.0 6.35 -1.0 6.1 -1.45 5.95 -1.65 5.95 -1.9 5.95 -2.75 7.0 -2.75 7.85 -2.75 7.85 -1.9 M18.6 3.15 L17.55 4.25 Q16.7 5.0 14.85 3.4 13.0 1.75 13.2 1.4 13.35 1.0 15.0 1.75 16.6 2.5 17.6 1.55 L18.6 3.15 M2.6 9.7 Q1.55 10.6 -0.2 9.0 -2.0 7.35 -1.75 6.75 -1.5 6.15 -0.15 7.45 1.2 8.75 2.85 8.15 4.45 7.55 3.9 8.15 L2.6 9.7" fill="#9f4035" fill-rule="evenodd" stroke="none"/>
      <path d="M9.9 4.35 Q9.35 2.9 8.7 2.45 L6.5 2.05 4.35 2.15 1.3 1.35 -2.0 1.65 -2.0 1.55 Q-1.95 0.65 -0.35 0.6 L1.35 0.7 Q4.05 0.85 4.5 1.4 L6.7 1.35 Q10.5 1.55 10.4 3.7 10.35 4.25 9.9 4.35 M9.45 14.6 L7.6 14.1 Q8.45 12.75 8.5 9.35 L10.15 10.75 Q10.7 12.75 9.45 14.6" fill="#3d4f20" fill-rule="evenodd" stroke="none"/>
      <path d="M-2.0 1.65 L1.3 1.35 4.35 2.15 6.5 2.05 8.7 2.45 Q9.35 2.9 9.9 4.35 L9.75 4.35 Q9.35 4.3 9.05 3.65 8.75 2.95 8.25 2.75 L5.45 2.6 Q4.5 2.95 4.15 3.8 3.65 3.75 3.5 3.0 3.3 2.2 2.85 2.1 L-0.05 1.95 -1.4 2.25 Q-2.0 2.2 -2.0 1.65" fill="#58732f" fill-rule="evenodd" stroke="none"/>
      <path d="M12.65 -3.7 L13.85 -3.4 Q14.35 -3.1 14.35 -2.65 14.35 -2.2 13.85 -1.9 13.35 -1.6 12.65 -1.6 L11.45 -1.9 Q10.95 -2.2 10.95 -2.65 10.95 -3.1 11.45 -3.4 L12.65 -3.7 M11.4 9.0 L10.15 6.15 Q11.75 5.7 13.65 6.6 14.95 7.2 14.2 8.7 L14.0 9.05 11.4 9.0 M13.35 9.65 L12.95 9.8 13.0 10.4 12.15 10.8 11.65 9.65 13.35 9.65 M-8.6 4.6 L-7.35 7.55 -8.5 7.5 -9.45 7.0 Q-10.2 6.35 -10.15 5.0 L-10.15 4.8 -8.6 4.6 M-6.75 6.9 L-6.75 4.4 -5.1 4.25 Q-5.0 5.25 -5.2 5.5 L-6.35 5.7 -6.75 6.9" fill="#b0a282" fill-rule="evenodd" stroke="none"/>
      <path d="M14.0 9.05 L13.35 9.65 11.65 9.65 11.4 9.0 14.0 9.05 M-8.6 4.6 L-6.75 4.4 -6.75 6.9 -7.05 7.3 -7.35 7.55 -8.6 4.6" fill="#8d7c58" fill-rule="evenodd" stroke="none"/>
    </g>
    <radialGradient cx="0" cy="0" gradientTransform="matrix(0.044, 0.0, 0.0, 0.044, 12.85, 16.3)" gradientUnits="userSpaceOnUse" id="gradient0" r="819.2" spreadMethod="pad">
      <stop offset="0.0" stop-color="#d59b42"/>
      <stop offset="0.2784313725490196" stop-color="#f6c864"/>
      <stop offset="0.47058823529411764" stop-color="#c0650c"/>
      <stop offset="0.6980392156862745" stop-color="#ffd46d"/>
      <stop offset="1.0" stop-color="#9d4f07"/>
    </radialGradient>
    <radialGradient cx="0" cy="0" gradientTransform="matrix(0.0077, -0.001, 6.0E-4, 0.0049, 6.95, -2.55)" gradientUnits="userSpaceOnUse" id="gradient1" r="819.2" spreadMethod="pad">
      <stop offset="0.0" stop-color="#9d4f07" stop-opacity="0.8509804"/>
      <stop offset="1.0" stop-color="#ffd46d" stop-opacity="0.0"/>
    </radialGradient>
    <radialGradient cx="0" cy="0" gradientTransform="matrix(0.0036, -0.0034, 0.005, 0.0052, 6.3, 9.4)" gradientUnits="userSpaceOnUse" id="gradient2" r="819.2" spreadMethod="pad">
      <stop offset="0.0" stop-color="#9d4f07" stop-opacity="0.8509804"/>
      <stop offset="1.0" stop-color="#ffd46d" stop-opacity="0.0"/>
    </radialGradient>
    <radialGradient cx="0" cy="0" gradientTransform="matrix(0.0042, -5.0E-4, 4.0E-4, 0.0027, -6.3, 6.2)" gradientUnits="userSpaceOnUse" id="gradient3" r="819.2" spreadMethod="pad">
      <stop offset="0.0" stop-color="#9d4f07" stop-opacity="0.8509804"/>
      <stop offset="1.0" stop-color="#ffd46d" stop-opacity="0.0"/>
    </radialGradient>
    <radialGradient cx="0" cy="0" gradientTransform="matrix(0.0019, -0.0018, 0.0027, 0.0028, 15.9, 5.15)" gradientUnits="userSpaceOnUse" id="gradient4" r="819.2" spreadMethod="pad">
      <stop offset="0.0" stop-color="#9d4f07" stop-opacity="0.8509804"/>
      <stop offset="1.0" stop-color="#ffd46d" stop-opacity="0.0"/>
    </radialGradient>
  </defs>
</svg>
