<?xml version="1.0" encoding="UTF-8" standalone="no"?>
<svg xmlns:xlink="http://www.w3.org/1999/xlink" height="39.9px" width="65.05px" xmlns="http://www.w3.org/2000/svg">
  <g transform="matrix(1.0, 0.0, 0.0, 1.0, 32.5, 19.95)">
    <use height="39.9" transform="matrix(1.0, 0.0, 0.0, 1.0, -32.5, -19.95)" width="65.05" xlink:href="#shape0"/>
  </g>
  <defs>
    <g id="shape0" transform="matrix(1.0, 0.0, 0.0, 1.0, 32.5, 19.95)">
      <path d="M22.75 -0.75 L32.3 -13.6 32.3 -7.1 31.65 -6.15 23.9 4.25 23.35 5.0 23.9 4.25 31.65 -6.15 31.65 5.3 29.9 7.8 29.9 -1.05 23.6 7.7 23.6 16.05 21.1 19.7 21.0 8.25 23.35 5.0 22.75 5.75 22.75 -0.75" fill="#e9dba7" fill-rule="evenodd" stroke="none"/>
      <path d="M32.3 -13.6 L22.75 -0.75 -32.25 -10.6 -15.95 -19.7 32.3 -13.6" fill="#dabd83" fill-rule="evenodd" stroke="none"/>
      <path d="M22.75 5.75 L23.35 5.0 21.0 8.25 20.95 5.35 22.75 5.75 M-12.2 -1.5 L21.0 8.25 21.1 19.7 -30.6 5.3 -31.2 -5.5 -12.2 -1.5" fill="url(#gradient0)" fill-rule="evenodd" stroke="none"/>
      <path d="M22.75 -0.75 L22.75 5.75 20.95 5.35 -12.2 -1.5 -31.2 -5.5 -32.25 -5.75 -32.25 -10.6 22.75 -0.75" fill="#ad8748" fill-rule="evenodd" stroke="none"/>
      <path d="M20.95 5.35 L21.0 8.25 -12.2 -1.5 20.95 5.35" fill="#9e7b47" fill-rule="evenodd" stroke="none"/>
      <path d="M23.6 16.05 L23.6 7.7 29.9 -1.05 29.9 7.8 23.6 16.05" fill="#ffffff" fill-rule="evenodd" stroke="none"/>
      <path d="M32.3 -13.6 L22.75 -0.75 22.75 5.75 23.35 5.0 23.9 4.25 31.65 -6.15 32.3 -7.1 32.3 -13.6 -15.95 -19.7 -32.25 -10.6 22.75 -0.75 M20.95 5.35 L21.0 8.25 21.1 19.7 23.6 16.05 M22.75 5.75 L20.95 5.35 -12.2 -1.5 -31.2 -5.5 -30.6 5.3 21.1 19.7 M29.9 7.8 L31.65 5.3 31.65 -6.15 M29.9 7.8 L23.6 16.05 M-31.2 -5.5 L-32.25 -5.75 -32.25 -10.6" fill="none" stroke="#8c6b3e" stroke-linecap="round" stroke-linejoin="round" stroke-width="0.5"/>
      <path d="M24.45 9.6 L24.45 8.55 24.9 8.0 25.05 7.55 25.25 6.95 25.35 6.35 25.85 5.7 25.85 11.1 25.1 12.7 25.1 8.65 24.45 9.6 M27.1 5.45 L26.95 5.35 26.85 5.75 26.8 6.6 26.8 8.15 26.85 8.85 26.95 8.8 27.1 8.4 27.1 7.65 27.1 6.05 27.1 5.45 M27.3 4.3 Q27.3 4.15 27.4 4.25 L27.45 4.3 27.6 4.9 27.6 6.05 27.6 7.25 27.45 8.15 27.4 8.95 27.25 9.7 26.8 10.15 26.4 10.2 26.25 9.6 26.2 8.4 26.25 7.05 26.4 6.0 26.65 5.2 26.95 4.55 27.3 4.3" fill="#000000" fill-opacity="0.50980395" fill-rule="evenodd" stroke="none"/>
      <path d="M-13.85 -1.55 L-10.9 3.2 -8.5 -0.4 -2.7 3.45 5.25 2.55 4.5 4.85 Q3.9 6.25 2.5 5.2 1.15 4.05 -0.2 5.65 -1.65 7.2 -2.7 7.35 -5.2 6.1 -6.45 5.5 L-9.15 3.9 -9.25 3.6 -12.1 4.35 -13.25 4.8 Q-14.4 3.05 -16.55 1.15 -18.55 -0.75 -22.95 -3.55 L-13.85 -1.55" fill="#ffffff" fill-opacity="0.3372549" fill-rule="evenodd" stroke="none"/>
      <path d="M-13.85 -1.55 L-8.5 -0.4 -10.9 3.2 -13.85 -1.55 M-8.5 -0.4 L5.25 2.55 -2.7 3.45 -8.5 -0.4" fill="#aaaaaa" fill-opacity="0.3372549" fill-rule="evenodd" stroke="none"/>
    </g>
    <linearGradient gradientTransform="matrix(0.0, 0.0154, -0.0319, 0.0, -5.0, 7.05)" gradientUnits="userSpaceOnUse" id="gradient0" spreadMethod="pad" x1="-819.2" x2="819.2">
      <stop offset="0.0" stop-color="#ad8748"/>
      <stop offset="1.0" stop-color="#dabd83"/>
    </linearGradient>
  </defs>
</svg>
