<?xml version="1.0" encoding="UTF-8" standalone="no"?>
<svg xmlns:xlink="http://www.w3.org/1999/xlink" height="62.1px" width="39.0px" xmlns="http://www.w3.org/2000/svg">
  <g transform="matrix(1.0, 0.0, 0.0, 1.0, 19.5, 31.05)">
    <use height="62.1" transform="matrix(1.0, 0.0, 0.0, 1.0, -19.5, -31.05)" width="39.0" xlink:href="#shape0"/>
  </g>
  <defs>
    <g id="shape0" transform="matrix(1.0, 0.0, 0.0, 1.0, 19.5, 31.05)">
      <path d="M-9.4 -28.4 L-9.4 -30.8 17.2 -28.75 17.25 -25.55 11.85 -24.2 11.85 -18.7 11.15 -18.45 9.8 -25.3 -3.5 -27.4 -3.85 -28.85 -8.7 -29.5 -8.75 -28.25 -9.4 -28.4" fill="url(#gradient0)" fill-rule="evenodd" stroke="none"/>
      <path d="M11.85 -18.7 L11.85 -24.2 17.25 -25.55 19.25 -26.0 18.35 -21.05 11.85 -18.7 M12.4 -12.7 L16.45 -13.95 13.35 24.0 10.1 26.6 12.4 -12.7" fill="#f5eed6" fill-rule="evenodd" stroke="none"/>
      <path d="M11.15 -18.45 L11.85 -18.7 18.35 -21.05 14.75 25.6 8.35 30.8 Q-4.45 25.2 -17.25 19.55 L-17.25 1.85 9.55 8.95 11.15 -18.45 M12.4 -12.7 L10.1 26.6 13.35 24.0 16.45 -13.95 12.4 -12.7 M9.55 8.95 L8.35 30.8 9.55 8.95" fill="#e6d01a" fill-rule="evenodd" stroke="none"/>
      <path d="M-9.4 -28.4 L-8.75 -28.25 -8.7 -29.5 -3.85 -28.85 -3.5 -27.4 9.8 -25.3 11.15 -18.45 -17.25 -24.45 -19.25 -29.95 -17.0 -29.6 -10.05 -28.5 -9.4 -28.4" fill="#b8a714" fill-rule="evenodd" stroke="none"/>
      <path d="M-17.0 -29.6 L-10.7 -29.75 -10.05 -28.5 -17.0 -29.6" fill="url(#gradient1)" fill-rule="evenodd" stroke="none"/>
      <path d="M-17.25 1.85 L-17.25 -24.45 11.15 -18.45 9.55 8.95 -17.25 1.85" fill="url(#gradient2)" fill-rule="evenodd" stroke="none"/>
      <path d="M17.25 -25.55 L17.2 -28.75 -9.4 -30.8 -9.4 -28.4 -8.75 -28.25 -8.7 -29.5 -3.85 -28.85 -3.5 -27.4 9.8 -25.3 11.15 -18.45 11.85 -18.7 11.85 -24.2 17.25 -25.55 19.25 -26.0 18.35 -21.05 14.75 25.6 8.35 30.8 Q-4.45 25.2 -17.25 19.55 L-17.25 1.85 -17.25 -24.45 -19.25 -29.95 -17.0 -29.6 -10.7 -29.75 -10.05 -28.5 -9.4 -28.4 M11.85 -18.7 L18.35 -21.05 M8.35 30.8 L9.55 8.95 11.15 -18.45 -17.25 -24.45 M-17.0 -29.6 L-10.05 -28.5" fill="none" stroke="#cc9900" stroke-linecap="round" stroke-linejoin="round" stroke-width="0.5"/>
      <path d="M-1.1 5.45 L-1.15 5.4 Q-1.6 4.95 -1.55 4.4 -1.6 3.85 -1.15 3.45 -0.75 3.05 -0.2 3.05 0.35 3.05 0.75 3.45 1.15 3.85 1.2 4.4 1.15 4.95 0.75 5.4 L0.7 5.45 Q0.3 5.8 -0.2 5.8 -0.7 5.8 -1.1 5.45 M-4.25 4.4 Q-3.7 4.4 -3.3 4.85 -3.05 5.1 -2.95 5.45 L-2.95 5.8 Q-2.95 6.35 -3.3 6.75 -3.7 7.15 -4.25 7.15 -4.8 7.15 -5.2 6.75 -5.6 6.35 -5.55 5.8 L-5.55 5.45 -5.2 4.85 Q-4.8 4.4 -4.25 4.4 M-2.1 0.65 L-1.9 1.4 -2.1 2.1 -2.6 2.4 Q-2.9 2.4 -3.1 2.1 L-3.3 1.4 -3.1 0.65 Q-2.9 0.35 -2.6 0.35 -2.35 0.35 -2.1 0.65 M-2.95 -0.35 Q-3.35 -0.75 -3.35 -1.35 -3.35 -2.0 -2.95 -2.4 -2.55 -2.8 -2.0 -2.8 -1.45 -2.8 -1.0 -2.4 -0.6 -2.0 -0.6 -1.35 -0.6 -0.75 -1.0 -0.35 -1.45 0.05 -2.0 0.1 -2.55 0.05 -2.95 -0.35 M-4.4 -3.65 L-4.6 -4.8 -4.4 -5.95 -4.0 -6.4 Q-3.7 -6.4 -3.55 -5.95 L-3.35 -4.8 -3.55 -3.65 Q-3.7 -3.25 -4.0 -3.2 L-4.4 -3.65 M-1.25 -5.5 Q-1.1 -5.1 -1.1 -4.45 -1.1 -3.85 -1.25 -3.4 -1.45 -2.95 -1.7 -2.95 L-2.15 -3.4 -2.35 -4.45 -2.15 -5.5 -1.7 -5.95 -1.25 -5.5 M-5.85 -0.1 L-5.5 -0.55 -5.1 -0.1 Q-4.95 0.35 -4.95 1.0 -4.95 1.6 -5.1 2.05 L-5.5 2.5 -5.85 2.05 -6.05 1.0 -5.85 -0.1 M-1.9 -12.65 L-1.75 -13.7 -1.35 -14.15 -1.0 -13.7 -0.8 -12.65 -1.0 -11.55 -1.35 -11.15 -1.75 -11.55 -1.9 -12.65 M6.35 -1.35 L6.7 -0.9 6.9 0.15 6.7 1.2 6.35 1.65 5.95 1.2 Q5.8 0.75 5.8 0.15 5.8 -0.45 5.95 -0.9 L6.35 -1.35 M6.75 -5.4 L7.25 -5.1 7.45 -4.25 7.25 -3.45 6.75 -3.1 Q6.45 -3.1 6.25 -3.45 L6.05 -4.25 6.25 -5.1 Q6.45 -5.45 6.75 -5.4 M0.75 -4.55 L0.3 -4.25 Q0.0 -4.25 -0.2 -4.55 L-0.4 -5.2 -0.2 -5.9 Q0.0 -6.2 0.3 -6.2 L0.75 -5.9 1.0 -5.2 0.75 -4.55 M0.1 -3.5 Q0.5 -3.9 1.05 -3.9 1.6 -3.9 2.0 -3.5 2.4 -3.1 2.4 -2.45 2.4 -1.85 2.0 -1.45 1.6 -1.05 1.05 -1.0 0.5 -1.05 0.1 -1.45 L-0.35 -2.45 0.1 -3.5 M3.4 -4.2 Q3.8 -4.6 4.35 -4.6 4.85 -4.6 5.25 -4.2 5.65 -3.8 5.65 -3.2 5.65 -2.7 5.25 -2.25 4.85 -1.85 4.35 -1.85 3.8 -1.85 3.4 -2.25 3.0 -2.7 3.05 -3.2 3.0 -3.8 3.4 -4.2 M0.75 -8.45 Q0.75 -7.75 0.3 -7.3 -0.15 -6.9 -0.8 -6.85 -1.5 -6.9 -1.95 -7.3 -2.4 -7.75 -2.4 -8.45 L-1.95 -9.6 Q-1.5 -10.05 -0.8 -10.05 -0.15 -10.05 0.3 -9.6 L0.75 -8.45 M2.05 -6.3 L1.85 -7.35 2.05 -8.4 2.4 -8.8 2.8 -8.4 2.95 -7.35 2.8 -6.3 2.4 -5.9 Q2.2 -5.9 2.05 -6.3 M9.1 -8.6 L9.25 -7.55 9.1 -6.5 8.75 -6.1 8.4 -6.5 Q8.25 -6.95 8.25 -7.55 8.25 -8.2 8.4 -8.6 L8.75 -9.0 9.1 -8.6 M5.2 -8.8 L5.6 -9.25 5.95 -8.8 6.15 -7.75 5.95 -6.7 5.6 -6.25 Q5.35 -6.25 5.2 -6.7 5.05 -7.15 5.05 -7.75 L5.2 -8.8 M8.25 -15.8 L8.65 -15.4 8.8 -14.35 8.65 -13.35 8.25 -12.9 7.9 -13.35 7.7 -14.35 7.9 -15.4 Q8.05 -15.8 8.25 -15.8 M4.5 -13.45 Q4.9 -13.05 4.9 -12.45 4.9 -11.85 4.5 -11.4 4.05 -11.0 3.5 -11.0 2.95 -11.0 2.55 -11.4 2.15 -11.85 2.15 -12.45 2.15 -13.05 2.55 -13.45 2.95 -13.9 3.5 -13.9 4.05 -13.9 4.5 -13.45 M0.6 -14.55 L0.75 -14.0 0.6 -13.45 0.15 -13.25 Q-0.15 -13.25 -0.3 -13.45 L-0.45 -14.0 -0.3 -14.55 0.15 -14.75 0.6 -14.55 M-6.05 8.1 L-6.3 9.8 -6.5 9.65 -6.8 7.5 -6.55 7.05 -6.35 7.05 -6.2 7.35 -6.1 7.8 -6.05 8.1 M-10.8 5.45 L-11.35 5.45 -11.45 5.45 -11.4 5.15 -10.8 5.45 M-0.55 12.95 Q-0.8 14.2 -1.0 14.35 -1.15 14.45 -1.3 14.2 L-1.5 13.4 -1.55 12.25 -1.55 12.0 Q-1.3 10.4 -1.1 10.4 -0.9 10.4 -0.75 11.0 -0.6 11.55 -0.6 12.4 L-0.55 12.95 M-2.9 10.9 L-3.35 11.65 -3.9 9.9 Q-3.65 8.2 -3.45 8.15 -3.3 8.05 -3.1 8.7 -2.95 9.3 -2.95 10.2 L-2.9 10.9 M-0.55 8.95 L-0.35 8.4 0.1 8.2 0.55 8.4 0.7 8.95 0.55 9.5 0.1 9.7 -0.35 9.5 -0.55 8.95 M-2.05 7.6 L-1.9 6.5 -1.45 6.05 Q-1.15 6.05 -1.0 6.5 L-0.8 7.6 -1.0 8.65 Q-1.15 9.05 -1.45 9.1 L-1.9 8.65 -2.05 7.6 M-3.25 12.25 L-2.9 12.05 -2.5 12.25 Q-2.35 12.45 -2.35 12.75 L-2.5 13.2 -2.55 13.25 -2.9 13.4 -3.25 13.2 -3.45 12.85 -3.45 12.75 -3.4 12.45 -3.25 12.25 M1.95 10.9 L2.15 12.05 1.95 13.2 1.55 13.65 Q1.25 13.6 1.1 13.2 L0.9 12.05 1.1 10.9 Q1.25 10.45 1.55 10.45 L1.95 10.9 M3.1 8.15 Q3.5 8.55 3.5 9.1 3.5 9.65 3.1 10.05 2.7 10.45 2.15 10.45 1.6 10.45 1.2 10.05 0.75 9.65 0.75 9.1 0.75 8.55 1.2 8.15 1.6 7.7 2.15 7.7 2.7 7.7 3.1 8.15 M2.1 0.3 Q2.5 0.7 2.5 1.25 2.5 1.8 2.1 2.2 1.7 2.6 1.2 2.65 0.65 2.6 0.25 2.2 -0.15 1.8 -0.1 1.25 -0.15 0.7 0.25 0.3 0.65 -0.15 1.2 -0.1 1.7 -0.15 2.1 0.3 M3.3 2.9 L3.5 1.85 Q3.65 1.4 3.85 1.4 L4.25 1.85 4.4 2.9 4.25 3.95 3.85 4.4 3.5 3.95 3.3 2.9" fill="#deb307" fill-rule="evenodd" stroke="none"/>
      <path d="M-11.35 5.45 Q-10.05 10.3 4.0 18.6 L4.05 18.65 -3.5 22.55 Q-10.1 20.8 -12.8 14.8 L-11.45 5.45 -11.35 5.45" fill="#0066cc" fill-rule="evenodd" stroke="none"/>
      <path d="M-6.8 7.5 L-6.5 9.65 -6.3 9.8 -6.05 8.1 -3.9 9.9 -3.35 11.65 -2.9 10.9 -2.9 10.8 -1.55 12.0 -1.55 12.25 -1.5 13.4 -1.3 14.2 Q-1.15 14.45 -1.0 14.35 -0.8 14.2 -0.55 12.95 L4.0 18.6 Q-10.05 10.3 -11.35 5.45 L-10.8 5.45 -6.8 7.5 M-3.25 12.25 L-3.4 12.45 -3.45 12.75 -3.45 12.85 -3.25 13.2 -2.9 13.4 -2.55 13.25 -2.5 13.2 -2.35 12.75 Q-2.35 12.45 -2.5 12.25 L-2.9 12.05 -3.25 12.25" fill="#014587" fill-rule="evenodd" stroke="none"/>
      <path d="M4.15 -3.8 Q4.1 -4.85 4.45 -5.3 4.85 -5.8 5.6 -5.65 L6.05 -5.55 Q6.75 -5.4 7.15 -4.7 L7.5 -3.05 7.5 -0.55 Q7.45 0.4 7.2 0.75 6.9 1.2 6.2 1.05 L5.4 0.85 Q4.65 0.7 4.35 0.15 4.1 -0.35 4.15 -1.3 L4.15 -3.8 M5.45 -2.5 L5.25 -2.3 5.25 -0.55 Q5.25 -0.3 5.45 -0.25 L6.1 -0.1 6.35 -0.3 6.35 -2.05 6.1 -2.35 5.45 -2.5 M1.35 -3.8 L1.8 -6.4 3.7 -5.95 3.7 0.5 2.55 0.25 2.55 -4.3 1.75 0.05 0.25 -0.25 -0.6 -4.75 -0.6 -0.45 -1.75 -0.7 -1.75 -7.15 1.0 -6.55 1.35 -3.8 M-11.6 -9.35 L-12.8 -4.85 -12.8 -3.2 -13.95 -3.45 -13.95 -5.1 -15.2 -10.15 -14.05 -9.85 -13.65 -8.1 -13.15 -7.95 -12.75 -9.6 -11.6 -9.35 M-10.3 -9.05 L-10.3 -6.0 -10.05 -5.65 -9.35 -5.5 Q-9.15 -5.45 -9.15 -5.75 L-9.15 -8.8 -8.05 -8.55 -8.05 -4.25 Q-8.05 -2.1 -9.5 -2.4 L-9.95 -2.5 Q-11.35 -2.85 -11.35 -5.0 L-11.35 -9.3 -10.3 -9.05 M-2.2 -7.25 L-2.2 -0.8 -3.35 -1.05 -3.35 -5.6 -4.15 -1.25 -5.65 -1.55 -6.5 -6.05 -6.5 -1.75 -7.65 -2.0 -7.65 -8.45 -4.9 -7.85 -4.5 -5.1 -4.1 -7.65 -2.2 -7.25" fill="#0066cc" fill-rule="evenodd" stroke="none"/>
    </g>
    <linearGradient gradientTransform="matrix(0.0, 0.0076, -0.0163, 0.0, 3.9, -24.7)" gradientUnits="userSpaceOnUse" id="gradient0" spreadMethod="pad" x1="-819.2" x2="819.2">
      <stop offset="0.0" stop-color="#a37858"/>
      <stop offset="1.0" stop-color="#9d6a4b"/>
    </linearGradient>
    <linearGradient gradientTransform="matrix(0.0, 8.0E-4, -0.0042, 0.0, -13.5, -29.15)" gradientUnits="userSpaceOnUse" id="gradient1" spreadMethod="pad" x1="-819.2" x2="819.2">
      <stop offset="0.0" stop-color="#a37858"/>
      <stop offset="1.0" stop-color="#9d6a4b"/>
    </linearGradient>
    <linearGradient gradientTransform="matrix(0.0, -0.0204, 0.0173, 0.0, -3.05, -7.75)" gradientUnits="userSpaceOnUse" id="gradient2" spreadMethod="pad" x1="-819.2" x2="819.2">
      <stop offset="0.5568627450980392" stop-color="#e6e466"/>
      <stop offset="1.0" stop-color="#d19d25"/>
    </linearGradient>
  </defs>
</svg>
