<?xml version="1.0" encoding="UTF-8" standalone="no"?>
<svg xmlns:xlink="http://www.w3.org/1999/xlink" height="62.1px" width="39.0px" xmlns="http://www.w3.org/2000/svg">
  <g transform="matrix(1.0, 0.0, 0.0, 1.0, 19.5, 31.05)">
    <use height="62.1" transform="matrix(1.0, 0.0, 0.0, 1.0, -19.5, -31.05)" width="39.0" xlink:href="#shape0"/>
  </g>
  <defs>
    <g id="shape0" transform="matrix(1.0, 0.0, 0.0, 1.0, 19.5, 31.05)">
      <path d="M-11.15 -18.45 L-9.75 -25.3 3.5 -27.4 3.85 -28.85 8.75 -29.5 8.8 -28.25 9.45 -28.4 10.05 -28.5 17.05 -29.6 19.25 -29.95 17.25 -24.45 -11.15 -18.45" fill="#75b7bd" fill-rule="evenodd" stroke="none"/>
      <path d="M9.45 -28.4 L8.8 -28.25 8.75 -29.5 3.85 -28.85 3.5 -27.4 -9.75 -25.3 -11.15 -18.45 -11.8 -18.7 -11.8 -24.2 -17.2 -25.55 -17.2 -28.75 9.45 -30.8 9.45 -28.4" fill="url(#gradient0)" fill-rule="evenodd" stroke="none"/>
      <path d="M17.05 -29.6 L10.05 -28.5 10.75 -29.75 17.05 -29.6" fill="url(#gradient1)" fill-rule="evenodd" stroke="none"/>
      <path d="M17.25 -12.75 Q-1.2 -9.75 -8.6 25.8 L-8.9 20.8 Q-3.7 -12.35 17.25 -18.0 L17.25 -12.75" fill="#c8c795" fill-rule="evenodd" stroke="none"/>
      <path d="M17.25 -12.75 L17.25 -7.35 Q-0.5 -3.1 -8.3 30.8 L-8.6 25.8 Q-1.2 -9.75 17.25 -12.75" fill="#c8a995" fill-rule="evenodd" stroke="none"/>
      <path d="M-9.1 16.8 Q-6.75 -12.2 17.25 -21.95 L17.25 -18.0 Q-3.7 -12.35 -8.9 20.8 L-9.1 16.8" fill="#94c99d" fill-rule="evenodd" stroke="none"/>
      <path d="M-11.15 -18.45 L17.25 -24.45 17.25 -21.95 Q-6.75 -12.2 -9.1 16.8 L-11.15 -18.45 M-8.3 30.8 Q-0.5 -3.1 17.25 -7.35 L17.25 19.55 -8.3 30.8" fill="#92c6cb" fill-rule="evenodd" stroke="none"/>
      <path d="M-11.8 -18.7 L-11.15 -18.45 -9.1 16.8 -8.9 20.8 -8.6 25.8 -8.3 30.8 -14.7 25.6 -18.35 -21.05 -11.8 -18.7" fill="#64adb5" fill-rule="evenodd" stroke="none"/>
      <path d="M-17.2 -25.55 L-11.8 -24.2 -11.8 -18.7 -18.35 -21.05 -19.25 -26.0 -17.2 -25.55" fill="#eef7f7" fill-rule="evenodd" stroke="none"/>
      <path d="M9.45 -28.4 L8.8 -28.25 8.75 -29.5 3.85 -28.85 3.5 -27.4 -9.75 -25.3 -11.15 -18.45 17.25 -24.45 19.25 -29.95 17.05 -29.6 10.05 -28.5 9.45 -28.4 9.45 -30.8 -17.2 -28.75 -17.2 -25.55 -11.8 -24.2 -11.8 -18.7 -11.15 -18.45 -9.1 16.8 -8.9 20.8 -8.6 25.8 -8.3 30.8 -14.7 25.6 -18.35 -21.05 -19.25 -26.0 -17.2 -25.55 M17.25 -21.95 L17.25 -24.45 M17.05 -29.6 L10.75 -29.75 10.05 -28.5 M17.25 -18.0 L17.25 -21.95 M17.25 -7.35 L17.25 -12.75 17.25 -18.0 M17.25 -7.35 L17.25 19.55 -8.3 30.8 M-11.8 -18.7 L-18.35 -21.05" fill="none" stroke="#009999" stroke-linecap="round" stroke-linejoin="round" stroke-width="0.5"/>
      <path d="M1.95 -12.65 L1.75 -11.55 1.4 -11.15 Q1.15 -11.15 1.0 -11.55 0.85 -12.05 0.85 -12.65 L1.0 -13.7 1.4 -14.15 1.75 -13.7 1.95 -12.65 M0.3 -13.45 Q0.15 -13.25 -0.15 -13.25 -0.4 -13.25 -0.55 -13.45 L-0.75 -14.0 -0.55 -14.55 -0.15 -14.75 0.3 -14.55 0.5 -14.0 0.3 -13.45 M1.95 -7.3 Q1.5 -6.9 0.85 -6.85 0.15 -6.9 -0.3 -7.3 -0.75 -7.75 -0.75 -8.45 L-0.3 -9.6 Q0.15 -10.05 0.85 -10.05 1.5 -10.05 1.95 -9.6 L2.4 -8.45 Q2.4 -7.75 1.95 -7.3 M3.55 -3.65 Q3.4 -4.15 3.4 -4.8 3.4 -5.5 3.55 -5.95 3.7 -6.4 4.0 -6.4 L4.45 -5.95 4.6 -4.8 4.45 -3.65 4.0 -3.2 Q3.7 -3.25 3.55 -3.65 M2.2 -3.4 L1.75 -2.95 Q1.45 -2.95 1.3 -3.4 L1.1 -4.45 1.3 -5.5 Q1.45 -5.95 1.75 -5.95 L2.2 -5.5 2.35 -4.45 2.2 -3.4 M0.2 -4.55 L-0.25 -4.25 Q-0.55 -4.25 -0.75 -4.55 L-0.95 -5.2 -0.75 -5.9 -0.25 -6.2 0.2 -5.9 0.4 -5.2 0.2 -4.55 M2.0 -2.8 Q2.55 -2.8 2.95 -2.4 L3.4 -1.35 Q3.35 -0.75 2.95 -0.35 2.55 0.05 2.0 0.1 1.45 0.05 1.05 -0.35 0.6 -0.75 0.65 -1.35 0.6 -2.0 1.05 -2.4 1.45 -2.8 2.0 -2.8 M5.9 -0.1 L6.05 1.0 5.9 2.05 5.5 2.5 5.15 2.05 4.95 1.0 5.15 -0.1 5.5 -0.55 5.9 -0.1 M-8.6 -15.4 L-8.25 -15.8 -7.85 -15.4 Q-7.7 -15.0 -7.7 -14.35 -7.7 -13.75 -7.85 -13.35 L-8.25 -12.9 -8.6 -13.35 -8.8 -14.35 -8.6 -15.4 M-2.1 -12.45 Q-2.15 -11.85 -2.55 -11.4 -2.95 -11.0 -3.5 -11.0 -4.05 -11.0 -4.45 -11.4 -4.9 -11.85 -4.85 -12.45 -4.9 -13.05 -4.45 -13.45 -4.05 -13.9 -3.5 -13.9 -2.95 -13.9 -2.55 -13.45 -2.15 -13.05 -2.1 -12.45 M-2.75 -8.4 L-2.4 -8.8 -2.0 -8.4 Q-1.85 -8.0 -1.85 -7.35 -1.85 -6.75 -2.0 -6.3 L-2.4 -5.9 -2.75 -6.3 -2.95 -7.35 -2.75 -8.4 M-9.05 -8.6 L-8.7 -9.0 -8.4 -8.6 Q-8.25 -8.2 -8.25 -7.55 -8.25 -6.95 -8.4 -6.5 L-8.7 -6.1 -9.05 -6.5 -9.2 -7.55 -9.05 -8.6 M-5.55 -6.25 L-5.95 -6.7 -6.1 -7.75 -5.95 -8.8 -5.55 -9.25 -5.2 -8.8 -5.0 -7.75 -5.2 -6.7 Q-5.35 -6.25 -5.55 -6.25 M-6.75 -5.4 Q-6.45 -5.45 -6.25 -5.1 L-6.05 -4.25 -6.25 -3.45 Q-6.45 -3.1 -6.75 -3.1 -7.0 -3.1 -7.2 -3.45 L-7.4 -4.25 -7.2 -5.1 Q-7.0 -5.45 -6.75 -5.4 M-5.25 -4.2 Q-4.85 -4.6 -4.3 -4.6 -3.8 -4.6 -3.4 -4.2 -3.0 -3.8 -3.0 -3.2 -3.0 -2.7 -3.4 -2.25 -3.8 -1.85 -4.3 -1.85 -4.85 -1.85 -5.25 -2.25 -5.65 -2.7 -5.65 -3.2 -5.65 -3.8 -5.25 -4.2 M-6.3 -1.35 L-5.95 -0.9 -5.75 0.15 -5.95 1.2 -6.3 1.65 -6.7 1.2 -6.85 0.15 -6.7 -0.9 -6.3 -1.35 M-0.05 -3.5 Q0.35 -3.1 0.35 -2.45 0.35 -1.85 -0.05 -1.45 -0.5 -1.05 -1.0 -1.0 -1.6 -1.05 -2.0 -1.45 -2.4 -1.85 -2.4 -2.45 -2.4 -3.1 -2.0 -3.5 -1.6 -3.9 -1.0 -3.9 -0.5 -3.9 -0.05 -3.5 M-1.15 2.65 Q-1.7 2.6 -2.1 2.2 -2.5 1.8 -2.45 1.25 -2.5 0.7 -2.1 0.3 -1.7 -0.15 -1.15 -0.1 -0.65 -0.15 -0.25 0.3 0.15 0.7 0.15 1.25 0.15 1.8 -0.25 2.2 -0.65 2.6 -1.15 2.65 M-3.85 1.4 L-3.45 1.85 Q-3.3 2.3 -3.3 2.9 L-3.45 3.95 -3.85 4.4 -4.2 3.95 -4.4 2.9 -4.2 1.85 -3.85 1.4 M-1.15 4.4 Q-1.15 3.85 -0.75 3.45 -0.35 3.05 0.2 3.05 0.75 3.05 1.2 3.45 1.6 3.85 1.6 4.4 1.6 4.95 1.2 5.4 L1.1 5.45 Q0.7 5.8 0.2 5.8 -0.3 5.8 -0.65 5.45 L-0.75 5.4 Q-1.15 4.95 -1.15 4.4 M-1.15 8.15 Q-0.75 8.55 -0.75 9.1 -0.75 9.65 -1.15 10.05 -1.6 10.45 -2.1 10.45 -2.7 10.45 -3.1 10.05 -3.5 9.65 -3.5 9.1 -3.5 8.55 -3.1 8.15 -2.7 7.7 -2.1 7.7 -1.6 7.7 -1.15 8.15 M-0.05 8.2 L0.4 8.4 0.55 8.95 0.4 9.5 -0.05 9.7 Q-0.35 9.7 -0.5 9.5 L-0.7 8.95 -0.5 8.4 -0.05 8.2 M-0.9 12.05 L-1.05 13.2 -1.5 13.65 -1.95 13.2 -2.1 12.05 -1.95 10.9 -1.5 10.45 Q-1.25 10.45 -1.05 10.9 -0.9 11.35 -0.9 12.05 M11.5 5.45 L11.35 5.45 10.85 5.45 11.45 5.15 11.5 5.45 M0.6 12.95 L0.65 12.4 0.75 11.0 Q0.9 10.4 1.1 10.4 1.3 10.4 1.6 12.0 L1.6 12.25 1.55 13.4 1.3 14.2 Q1.15 14.45 1.0 14.35 L0.6 12.95 M2.95 10.9 L2.95 10.2 3.15 8.7 Q3.3 8.05 3.5 8.15 L3.95 9.9 3.4 11.65 2.95 10.9 M6.05 8.1 L6.15 7.8 6.2 7.35 6.35 7.05 6.6 7.05 6.8 7.5 6.5 9.65 6.35 9.8 6.05 8.1 M5.6 5.8 Q5.6 6.35 5.2 6.75 4.8 7.15 4.3 7.15 3.7 7.15 3.35 6.75 2.95 6.35 2.95 5.8 L3.0 5.45 Q3.05 5.1 3.35 4.85 3.7 4.4 4.3 4.4 4.8 4.4 5.2 4.85 L5.55 5.45 5.6 5.8 M3.3 1.4 L3.1 2.1 2.65 2.4 Q2.35 2.4 2.15 2.1 1.9 1.8 1.95 1.4 1.9 0.95 2.15 0.65 2.35 0.35 2.65 0.35 2.9 0.35 3.1 0.65 L3.3 1.4 M1.0 6.5 Q1.15 6.05 1.45 6.05 L1.9 6.5 2.1 7.6 1.9 8.65 1.45 9.1 Q1.15 9.05 1.0 8.65 L0.85 7.6 Q0.85 6.95 1.0 6.5 M3.3 12.25 L3.4 12.45 3.45 12.75 3.45 12.85 3.3 13.2 2.9 13.4 2.55 13.25 2.5 13.2 2.35 12.75 Q2.35 12.45 2.5 12.25 L2.9 12.05 3.3 12.25" fill="#deb307" fill-rule="evenodd" stroke="none"/>
      <path d="M11.35 5.45 Q10.05 10.3 -4.0 18.6 L0.6 12.95 1.0 14.35 Q1.15 14.45 1.3 14.2 L1.55 13.4 1.6 12.25 1.6 12.0 2.9 10.8 2.95 10.9 3.4 11.65 3.95 9.9 6.05 8.1 6.35 9.8 6.5 9.65 6.8 7.5 10.85 5.45 11.35 5.45 M3.3 12.25 L2.9 12.05 2.5 12.25 Q2.35 12.45 2.35 12.75 L2.5 13.2 2.55 13.25 2.9 13.4 3.3 13.2 3.45 12.85 3.45 12.75 3.4 12.45 3.3 12.25" fill="#4f9755" fill-rule="evenodd" stroke="none"/>
      <path d="M11.5 5.45 L12.8 14.8 Q10.1 20.8 3.5 22.55 L-4.05 18.65 -4.0 18.65 -4.0 18.6 Q10.05 10.3 11.35 5.45 L11.5 5.45" fill="#7ebc84" fill-rule="evenodd" stroke="none"/>
      <path d="M16.6 -19.7 L16.1 -19.2 15.6 -18.7 Q15.6 -19.25 15.4 -19.2 L14.9 -18.55 14.75 -17.8 Q14.75 -17.6 15.0 -17.65 L15.35 -17.8 15.85 -18.1 Q16.45 -18.3 16.5 -17.6 L16.55 -17.15 16.2 -15.45 Q15.8 -14.2 15.05 -13.2 14.65 -12.65 14.25 -12.55 L13.55 -12.65 14.1 -14.95 Q14.35 -14.7 14.55 -14.8 L14.8 -14.95 15.2 -15.3 15.45 -15.95 Q15.45 -16.2 15.2 -16.1 L14.6 -15.85 14.05 -15.55 13.7 -15.55 Q13.45 -15.8 13.45 -16.45 13.55 -17.75 14.45 -19.8 15.35 -21.8 16.0 -22.05 16.65 -22.35 16.65 -20.6 L16.6 -19.7 M13.2 -18.9 Q12.75 -15.6 12.6 -12.8 L11.45 -11.95 12.1 -18.35 11.7 -18.1 11.35 -17.9 11.3 -20.1 14.15 -21.5 14.15 -19.35 13.2 -18.9 M8.4 -18.85 L8.55 -17.35 8.4 -15.5 Q8.15 -13.75 7.5 -12.15 6.75 -10.25 5.9 -10.0 5.2 -9.8 4.9 -11.1 4.75 -11.75 4.75 -12.6 L4.9 -14.45 Q5.15 -16.15 5.75 -17.75 6.5 -19.65 7.4 -19.95 8.1 -20.15 8.4 -18.85 M3.85 -15.9 L3.7 -14.1 Q3.45 -12.35 2.8 -10.75 2.05 -8.85 1.2 -8.6 0.5 -8.35 0.2 -9.7 L0.0 -11.2 0.2 -13.05 Q0.4 -14.75 1.05 -16.35 1.8 -18.25 2.65 -18.5 3.4 -18.75 3.7 -17.45 L3.85 -15.9 M1.2 -12.5 L1.15 -11.65 Q1.15 -11.2 1.3 -10.95 1.45 -10.65 1.75 -10.75 2.1 -10.85 2.4 -11.65 L2.75 -13.05 2.8 -14.8 Q2.7 -15.65 2.4 -15.55 2.0 -15.45 1.65 -14.2 L1.2 -12.5 M6.35 -15.65 L5.9 -13.9 5.85 -13.1 Q5.85 -12.65 6.0 -12.35 6.15 -12.05 6.45 -12.15 6.85 -12.25 7.1 -13.05 L7.45 -14.45 7.5 -16.2 Q7.45 -17.05 7.1 -16.95 6.75 -16.85 6.35 -15.65 M9.65 -14.35 L9.95 -18.9 9.35 -14.15 9.65 -14.35 M9.1 -12.5 L8.95 -11.45 7.5 -10.6 9.15 -19.55 11.2 -20.8 Q10.85 -17.1 10.9 -12.3 L9.45 -11.25 9.55 -12.8 9.1 -12.5 M-6.45 -13.3 L-6.2 -14.2 Q-5.4 -16.1 -4.55 -16.35 -3.8 -16.6 -3.55 -15.25 L-3.4 -14.4 -3.45 -15.7 -0.55 -17.1 -0.6 -14.95 -1.55 -14.5 -2.1 -8.4 -3.25 -7.55 -2.65 -13.95 -3.0 -13.75 -3.4 -13.5 -3.55 -11.9 Q-3.75 -10.2 -4.4 -8.6 -5.15 -6.7 -6.0 -6.45 -6.75 -6.2 -7.05 -7.55 L-7.2 -9.05 -7.05 -10.9 -6.7 -12.45 Q-7.25 -10.95 -8.55 -9.15 L-8.75 -6.4 -9.8 -5.6 -9.65 -7.2 -9.35 -10.1 -9.0 -14.15 -7.25 -15.2 Q-6.35 -15.5 -6.35 -14.4 L-6.45 -13.3 M-7.45 -12.7 L-7.65 -12.85 -8.15 -12.5 -8.2 -11.8 -8.3 -11.15 Q-7.65 -11.9 -7.5 -12.55 L-7.45 -12.7 M-4.8 -13.4 Q-5.2 -13.3 -5.55 -12.05 L-6.0 -10.35 -6.05 -9.5 -5.9 -8.8 Q-5.75 -8.5 -5.5 -8.6 -5.1 -8.7 -4.8 -9.5 -4.55 -10.1 -4.45 -10.9 L-4.4 -12.65 Q-4.5 -13.5 -4.8 -13.4" fill="#4f9755" fill-rule="evenodd" stroke="none"/>
    </g>
    <linearGradient gradientTransform="matrix(0.0, 0.0076, 0.0163, 0.0, -3.9, -24.7)" gradientUnits="userSpaceOnUse" id="gradient0" spreadMethod="pad" x1="-819.2" x2="819.2">
      <stop offset="0.0" stop-color="#a37858"/>
      <stop offset="1.0" stop-color="#9d6a4b"/>
    </linearGradient>
    <linearGradient gradientTransform="matrix(0.0, 8.0E-4, 0.0042, 0.0, 13.5, -29.15)" gradientUnits="userSpaceOnUse" id="gradient1" spreadMethod="pad" x1="-819.2" x2="819.2">
      <stop offset="0.0" stop-color="#a37858"/>
      <stop offset="1.0" stop-color="#9d6a4b"/>
    </linearGradient>
  </defs>
</svg>
