<?xml version="1.0" encoding="UTF-8" standalone="no"?>
<svg xmlns:xlink="http://www.w3.org/1999/xlink" height="36.0px" width="44.4px" xmlns="http://www.w3.org/2000/svg">
  <g transform="matrix(1.0, 0.0, 0.0, 1.0, 22.2, 18.0)">
    <use height="36.0" transform="matrix(1.0, 0.0, 0.0, 1.0, -22.2, -18.0)" width="44.4" xlink:href="#shape0"/>
  </g>
  <defs>
    <g id="shape0" transform="matrix(1.0, 0.0, 0.0, 1.0, 22.2, 18.0)">
      <path d="M14.9 -15.1 L14.95 -15.05 20.9 -17.9 22.1 -11.95 21.05 -11.4 19.7 -11.4 2.8 -11.55 9.6 -9.55 12.0 -8.85 14.4 -8.15 16.8 -7.45 17.05 -7.5 17.0 -7.4 19.35 -6.7 19.65 -6.6 18.6 -5.55 17.35 -4.35 17.05 -4.0 16.95 -3.4 16.65 -2.35 16.4 -1.15 16.15 -0.15 15.95 0.9 15.65 2.0 13.35 2.2 12.2 2.15 12.3 1.75 12.45 1.2 10.7 1.45 10.45 1.45 10.4 1.45 9.95 1.5 5.4 1.1 0.85 0.65 16.4 -1.15 0.85 0.65 -3.7 0.25 -8.25 -0.2 -12.7 -0.65 -11.7 -1.8 -10.65 -2.95 -9.6 -4.1 -8.6 -5.25 -7.6 -6.4 -7.0 -7.0 -6.85 -7.5 -5.25 -11.85 Q-5.0 -12.6 -4.1 -12.7 L14.9 -15.1 M13.55 5.0 L13.4 5.25 12.5 6.4 11.65 7.55 11.25 8.1 11.05 8.65 10.7 9.7 10.35 10.8 10.0 11.8 9.65 12.7 9.65 12.75 9.65 12.8 9.25 13.9 8.65 15.7 -8.95 17.9 -8.95 17.95 -9.1 17.9 -21.3 14.05 Q-22.35 13.7 -22.05 13.45 L-21.55 13.0 -21.1 12.55 -20.65 12.15 -20.2 11.7 -19.8 11.25 -19.35 10.9 -19.3 10.8 -18.45 10.6 -17.8 10.4 -17.6 10.15 -16.8 9.0 -16.0 7.9 10.75 4.5 10.45 4.85 13.55 5.0 M-10.65 -2.95 L19.35 -6.7 -10.65 -2.95 M-8.6 -5.25 L14.4 -8.15 -8.6 -5.25 M-6.85 -7.5 L9.6 -9.55 -6.85 -7.5 M15.95 0.9 L12.45 1.2 15.95 0.9 M16.15 -0.15 L5.4 1.1 16.15 -0.15 M-20.2 11.7 L-13.9 13.7 -13.85 13.75 10.35 10.8 -13.85 13.75 -13.9 13.7 -20.2 11.7 M10.7 9.7 L-14.9 12.85 -19.8 11.25 -14.9 12.85 10.7 9.7 M9.25 13.9 L-10.75 16.4 -21.55 13.0 -10.75 16.4 9.25 13.9 M-21.1 12.55 L-12.0 15.4 -11.8 15.5 -11.75 15.5 9.65 12.8 -11.75 15.5 -11.8 15.5 -12.0 15.4 -21.1 12.55 M11.65 7.55 L-16.95 11.05 -18.45 10.6 -16.95 11.05 11.65 7.55 M-19.35 10.9 L-15.9 11.95 11.05 8.65 -15.9 11.95 -19.35 10.9 M17.35 -4.35 L-12.7 -0.65 17.35 -4.35 M10.0 11.8 L-12.8 14.6 -20.65 12.15 -12.8 14.6 10.0 11.8 M-16.8 9.0 L13.4 5.25 -16.8 9.0 M-17.6 10.15 L12.5 6.4 -17.6 10.15 M16.65 -2.35 L-3.7 0.25 16.65 -2.35 M-8.25 -0.2 L16.95 -3.4 -8.25 -0.2 M-11.7 -1.8 L18.6 -5.55 -11.7 -1.8 M16.8 -7.45 L-9.6 -4.1 16.8 -7.45 M12.0 -8.85 L-7.6 -6.4 12.0 -8.85" fill="#f2f2f2" fill-rule="evenodd" stroke="none"/>
      <path d="M22.1 -11.95 L21.35 -9.8 20.8 -8.65 20.1 -7.8 19.7 -6.75 19.65 -6.6 19.35 -6.7 17.0 -7.4 17.05 -7.5 16.8 -7.45 14.4 -8.15 12.0 -8.85 19.15 -9.8 21.35 -9.8 19.15 -9.8 12.0 -8.85 9.6 -9.55 2.8 -11.55 19.7 -11.4 19.8 -10.85 9.6 -9.55 19.8 -10.85 19.8 -10.8 19.85 -10.85 21.05 -11.4 22.1 -11.95 M15.65 2.0 L15.6 2.3 15.0 3.1 14.2 4.15 13.55 5.0 10.45 4.85 10.75 4.5 -16.0 7.9 -15.1 6.75 -14.7 6.2 4.45 3.4 10.75 2.55 11.1 2.5 12.15 2.35 12.2 2.15 13.35 2.2 11.1 2.5 13.35 2.2 15.65 2.0 M-8.95 17.9 L-8.9 17.95 -8.95 17.95 -8.95 17.9 M20.1 -7.8 L17.05 -7.5 20.1 -7.8 M19.7 -6.75 L19.35 -6.7 19.7 -6.75 M20.8 -8.65 L18.1 -8.65 14.4 -8.15 18.1 -8.65 20.8 -8.65 M12.3 1.75 L10.0 1.5 9.95 1.5 10.4 1.45 10.45 1.45 10.7 1.45 12.45 1.2 12.3 1.75 M14.2 4.15 L10.75 4.5 14.2 4.15 M10.4 1.45 L10.0 1.5 10.4 1.45 M-15.1 6.75 L15.0 3.1 -15.1 6.75" fill="#dddddd" fill-rule="evenodd" stroke="none"/>
      <path d="M-14.7 6.2 L-14.65 6.15 -14.55 5.75 -14.25 4.65 -13.95 3.55 -13.7 2.5 -13.4 1.5 -13.15 0.4 -12.9 -0.4 -12.75 -0.65 -12.7 -0.65 -8.25 -0.2 -3.7 0.25 0.85 0.65 5.4 1.1 9.95 1.5 10.0 1.5 12.3 1.75 12.2 2.15 12.15 2.35 11.1 2.5 10.75 2.55 4.45 3.4 -14.7 6.2 M19.8 -10.85 L19.7 -11.4 21.05 -11.4 19.85 -10.85 19.8 -10.8 19.8 -10.85 M-14.25 4.65 L10.0 1.5 -14.25 4.65 M-13.95 3.55 L5.4 1.1 -13.95 3.55 M-13.4 1.5 L-3.7 0.25 -13.4 1.5 M-13.15 0.4 L-8.25 -0.2 -13.15 0.4 M-14.55 5.75 L4.45 3.4 -14.55 5.75 M0.85 0.65 L-13.7 2.5 0.85 0.65" fill="#c4c4c4" fill-rule="evenodd" stroke="none"/>
      <path d="M9.6 -9.55 L19.8 -10.85 M21.05 -11.4 L19.85 -10.85 19.8 -10.8 M16.8 -7.45 L17.05 -7.5 20.1 -7.8 M19.35 -6.7 L19.7 -6.75 M19.35 -6.7 L-10.65 -2.95 M14.4 -8.15 L18.1 -8.65 20.8 -8.65 M12.0 -8.85 L19.15 -9.8 21.35 -9.8 M14.4 -8.15 L-8.6 -5.25 M9.6 -9.55 L-6.85 -7.5 M11.1 2.5 L13.35 2.2 15.65 2.0 M10.0 1.5 L-14.25 4.65 M11.1 2.5 L10.75 2.55 4.45 3.4 -14.55 5.75 M10.4 1.45 L10.45 1.45 10.7 1.45 12.45 1.2 15.95 0.9 M10.75 4.5 L-16.0 7.9 M10.75 4.5 L14.2 4.15 M10.0 1.5 L10.4 1.45 M5.4 1.1 L-13.95 3.55 M5.4 1.1 L16.15 -0.15 M16.4 -1.15 L0.85 0.65 M-3.7 0.25 L-13.4 1.5 M-12.7 -0.65 L17.35 -4.35 M11.05 8.65 L-15.9 11.95 -19.35 10.9 M-18.45 10.6 L-16.95 11.05 11.65 7.55 M9.65 12.8 L-11.75 15.5 -11.8 15.5 -12.0 15.4 -21.1 12.55 M-21.55 13.0 L-10.75 16.4 9.25 13.9 M-19.8 11.25 L-14.9 12.85 10.7 9.7 M10.35 10.8 L-13.85 13.75 -13.9 13.7 -20.2 11.7 M-20.65 12.15 L-12.8 14.6 10.0 11.8 M-8.25 -0.2 L-13.15 0.4 M12.5 6.4 L-17.6 10.15 M13.4 5.25 L-16.8 9.0 M15.0 3.1 L-15.1 6.75 M18.6 -5.55 L-11.7 -1.8 M16.95 -3.4 L-8.25 -0.2 M-3.7 0.25 L16.65 -2.35 M-13.7 2.5 L0.85 0.65 M-7.6 -6.4 L12.0 -8.85 M-9.6 -4.1 L16.8 -7.45" fill="none" stroke="#270f8a" stroke-linecap="round" stroke-linejoin="round" stroke-opacity="0.13725491" stroke-width="0.25"/>
      <path d="M19.7 -6.75 L19.65 -6.6" fill="none" stroke="#2c2b29" stroke-linecap="round" stroke-linejoin="round" stroke-opacity="0.49803922" stroke-width="0.25"/>
      <path d="M14.95 -15.05 L20.9 -17.9 22.1 -11.95 21.35 -9.8 20.8 -8.65 20.1 -7.8 19.7 -6.75 M19.65 -6.6 L18.6 -5.55 17.35 -4.35 17.05 -4.0 16.95 -3.4 16.65 -2.35 16.4 -1.15 16.15 -0.15 15.95 0.9 15.65 2.0 15.6 2.3 15.0 3.1 14.2 4.15 13.55 5.0 13.4 5.25 12.5 6.4 11.65 7.55 11.25 8.1 11.05 8.65 10.7 9.7 10.35 10.8 10.0 11.8 9.65 12.7 9.65 12.75 9.65 12.8 9.25 13.9 8.65 15.7 -8.95 17.9 M-9.1 17.9 L-21.3 14.05 Q-22.35 13.7 -22.05 13.45 L-21.55 13.0 -21.1 12.55 -20.65 12.15 -20.2 11.7 -19.8 11.25 -19.35 10.9 -19.3 10.8 -18.45 10.6 -17.8 10.4 -17.6 10.15 -16.8 9.0 -16.0 7.9 -15.1 6.75 -14.7 6.2 -14.65 6.15 -14.55 5.75 -14.25 4.65 -13.95 3.55 -13.7 2.5 -13.4 1.5 -13.15 0.4 -12.9 -0.4 -12.75 -0.65 -12.7 -0.65 -11.7 -1.8 -10.65 -2.95 -9.6 -4.1 -8.6 -5.25 -7.6 -6.4 -7.0 -7.0 -6.85 -7.5 -5.25 -11.85 Q-5.0 -12.6 -4.1 -12.7 L14.9 -15.1" fill="none" stroke="#5a5856" stroke-linecap="round" stroke-linejoin="round" stroke-opacity="0.49803922" stroke-width="0.25"/>
      <path d="M0.2 -7.3 L0.8 -7.3 0.95 -7.55 0.95 -7.75 1.15 -7.75 0.95 -7.55 0.95 -7.3 2.9 -7.1 3.25 -7.15 Q3.65 -7.15 3.95 -6.7 L4.0 -6.7 Q3.7 -7.35 4.6 -7.3 L5.15 -6.6 5.45 -6.6 Q5.45 -7.0 5.8 -7.25 L6.15 -7.35 6.4 -7.4 6.0 -7.05 6.0 -6.7 6.25 -6.65 6.9 -7.35 7.0 -6.05 Q8.1 -6.45 8.5 -6.9 L8.95 -7.5 M2.05 -7.95 L2.25 -8.1 M-3.6 -6.45 L-3.7 -6.0 -3.05 -5.8 -2.75 -6.5 -2.2 -6.45 -1.8 -6.7 -0.85 -6.7 -0.85 -6.25 Q-0.4 -6.25 -0.3 -6.55 L-0.4 -6.65 -0.4 -6.9 -0.3 -6.85 -0.3 -6.55 -0.2 -6.45 Q-0.35 -6.3 0.0 -6.35 0.45 -6.4 0.55 -6.75 L0.8 -7.3 0.95 -7.3 0.95 -6.7 1.25 -6.5 Q1.8 -6.5 1.8 -7.1 1.8 -6.65 2.2 -6.65 L2.75 -7.0 2.9 -7.1 M4.2 -6.45 L4.15 -6.2 4.25 -5.3 4.45 -5.7 4.35 -6.35 4.2 -6.45 M10.65 -3.5 L9.55 -3.9 Q8.7 -3.9 8.75 -3.35 L8.8 -3.35 8.8 -3.25 8.75 -3.35 7.65 -3.8 Q7.3 -3.8 7.3 -3.25 L6.85 -3.25 6.7 -3.3 6.6 -2.9 6.4 -2.15 6.1 -2.1 Q5.4 -2.1 5.25 -3.45 L5.0 -4.65 5.05 -5.0 4.8 -5.1 4.85 -5.1 5.05 -5.35 5.0 -5.6 4.55 -5.6 4.45 -4.6 4.45 -4.75 4.25 -5.3 3.85 -4.6 M4.6 -2.9 L4.15 -2.75 3.65 -2.8 3.65 -3.25 3.45 -3.25 Q2.9 -2.7 3.0 -2.5 2.7 -2.95 2.75 -3.25 2.15 -2.95 2.1 -2.25 L1.65 -2.25 1.65 -2.9 Q1.6 -2.45 1.15 -2.45 L0.75 -2.5 0.75 -2.6 Q0.7 -2.25 0.25 -2.2 L0.0 -2.2 0.0 -2.65 -0.45 -2.4 Q-0.65 -2.25 -1.1 -2.05 L-1.85 -2.05 -1.85 -2.1 -0.95 -2.4 -0.95 -2.8 -1.7 -2.8 -1.9 -2.55 -2.0 -0.4 -2.1 -0.4 -2.1 -2.1 -1.9 -2.55 -1.9 -2.65 -3.45 -1.85 M2.05 -5.4 L0.95 -4.9 0.85 -4.9 0.95 -4.75 Q0.95 -4.2 0.1 -4.2 L-0.05 -4.4 0.25 -4.8 0.25 -4.9 0.2 -4.95 Q-0.2 -4.95 -0.3 -4.55 L-0.75 -4.0 -1.9 -4.0 -1.85 -4.05 Q-1.2 -4.25 -1.2 -4.5 L-1.7 -4.9 Q-2.05 -3.75 -3.55 -3.7 -4.15 -3.75 -4.15 -4.1 L-4.0 -4.35 -4.95 -3.65 Q-5.65 -3.7 -5.8 -4.15 L-5.8 -4.05 -6.0 -3.65 Q-6.1 -3.5 -6.35 -3.35 L-6.9 -3.35 -5.8 -4.15 M0.25 -4.9 L0.85 -4.9 M0.3 -2.85 L0.45 -2.9 0.6 -2.9 0.65 -2.85 0.3 -2.85 0.0 -2.65 M-0.65 -0.5 L-0.95 -0.15 -0.85 0.05 -0.55 0.05 -0.3 -0.3 -0.2 -0.7 Q-0.2 -0.45 0.6 -0.4 1.45 -0.45 1.55 -0.65 L1.55 -0.7 1.6 -1.15 1.85 -1.15 Q2.5 -1.1 2.5 -0.75 2.5 -0.5 1.9 -0.35 L2.25 -0.3 Q2.6 -0.3 2.85 -0.8 L2.95 -1.5 Q3.65 -1.45 3.65 -0.95 L2.95 -0.55 2.95 -0.5 3.7 -0.5 4.45 -1.4 M1.8 -0.3 L1.9 -0.35 1.8 -0.45 1.8 -0.3 M1.8 -0.45 L1.55 -0.7 M4.9 -0.7 L4.9 -0.8 4.6 -0.7 4.9 -0.7 M7.0 -6.05 L7.05 -5.3 Q7.5 -5.55 7.4 -5.95 L7.65 -6.0 7.85 -5.1 7.85 -5.05 8.6 -5.95 9.6 -5.45 10.0 -5.8 10.15 -5.95 10.4 -5.95 10.0 -5.8 9.95 -5.5 10.2 -5.3 Q10.85 -5.3 10.9 -6.2 L10.85 -7.5 M7.05 -5.3 L7.05 -5.1 6.7 -3.3 6.5 -3.5 6.6 -2.9 M7.0 -6.05 L6.45 -5.85 Q5.3 -5.65 5.05 -5.0 L5.7 -4.85 Q6.15 -4.9 6.15 -5.45 L6.2 -5.5 6.4 -5.05 7.05 -5.3 M3.95 0.9 L4.6 0.75 4.6 1.15 5.25 1.15 5.6 0.6 5.6 0.9 Q6.0 0.9 6.35 1.25 L7.3 0.8 7.15 0.6 7.15 0.55 7.85 0.4 8.25 0.2 8.55 -0.05 8.65 -0.1 8.65 0.2 8.4 0.1 8.25 0.2 M13.05 -7.8 L13.4 -8.8 Q13.4 -7.8 14.1 -7.8 15.0 -7.8 14.9 -9.05 L15.65 -8.4 15.65 -8.0 15.2 -7.95 15.2 -7.9 15.6 -7.9 16.5 -8.8 16.5 -9.05 M14.0 -6.3 L14.1 -6.2 14.0 -5.9 13.6 -5.9 13.6 -6.15 13.8 -6.3 13.85 -6.35 14.0 -6.3 14.55 -6.3 15.0 -6.5 15.35 -7.25 15.45 -7.2 15.45 -6.95 15.0 -6.5 14.95 -6.35 14.95 -6.1 15.45 -5.1 Q15.45 -4.35 14.95 -4.15 L14.95 -6.1 M14.0 -6.3 L13.8 -6.3 M12.65 -9.4 L13.15 -9.3 M11.8 -0.65 L10.8 -0.5 10.8 0.55 11.05 0.55 11.35 0.4 M10.8 -1.05 L10.65 -1.05 10.65 -0.5 10.8 -0.5 10.8 -1.05 M7.85 0.4 L7.85 0.8 Q8.35 0.75 8.55 0.2 L8.75 0.55 9.2 0.55 9.7 -0.1 Q9.7 0.35 9.85 0.55 L10.15 0.55 Q10.55 0.4 10.65 -0.5 L9.85 -0.4 M0.6 3.75 L0.15 3.75 -0.05 3.9 -0.05 4.1 0.45 4.15 Q1.05 4.15 1.05 3.65 L1.05 3.6 Q0.8 3.4 0.95 2.75 L0.95 2.95 1.05 3.6 1.45 3.75 1.9 3.55 1.95 3.5 1.95 3.45 2.0 3.45 2.15 3.3 2.35 3.4 3.95 3.4 3.95 3.8 Q3.95 3.2 4.2 3.05 4.65 3.05 5.05 3.75 L6.15 3.5 6.0 3.3 6.0 3.1 Q6.05 2.85 6.25 2.85 6.65 2.85 6.65 3.05 L6.15 3.5 6.75 3.6 Q7.55 3.6 8.25 3.1 M-0.45 1.1 L0.2 0.9 0.2 0.55 0.2 0.45 0.4 0.85 1.2 0.65 M0.4 0.85 Q0.65 1.3 1.2 1.35 L0.45 1.45 M0.4 0.85 L0.2 0.9 Q0.05 1.7 -0.6 1.7 L-1.0 1.65 -1.35 1.35 -1.7 1.35 -1.85 2.0 -1.85 1.95 -2.15 1.3 Q-3.0 1.7 -3.0 2.2 L-3.15 2.25 -3.6 2.25 -3.7 1.95 -3.85 2.5 -4.4 2.5 -4.4 2.25 Q-4.1 1.85 -3.85 1.85 L-3.9 1.7 -4.2 1.85 -4.6 2.35 -5.0 2.75 -5.8 2.75 -5.8 2.5 -5.7 2.2 -5.35 2.2 M2.35 3.4 L2.4 3.45 2.1 3.45 2.1 3.6 2.15 3.65 2.85 3.75 2.2 4.0 1.85 3.95 1.85 3.6 1.9 3.55 M2.0 3.45 L2.1 3.45 2.1 3.4 2.35 3.4 M1.95 3.5 L2.0 3.45 M1.6 5.65 L1.6 5.75 1.95 5.75 1.6 5.65 M-7.85 10.55 L-8.1 10.35 -8.0 10.3 -7.85 10.55 -7.8 10.55 -7.75 10.55 -7.1 9.95 -7.35 9.6 -7.3 9.15 -6.95 9.15 -6.9 9.35 -7.1 9.95 -6.35 10.45 -6.55 10.8 Q-6.05 10.75 -5.55 10.3 L-5.5 10.65 -5.05 10.65 -4.6 10.1 -4.15 10.5 -4.1 9.85 Q-3.55 9.9 -3.5 10.5 L-2.7 9.6 -2.55 9.6 -2.5 9.9 -2.55 9.85 -2.7 10.15 Q-2.75 10.45 -2.3 10.45 L-1.4 10.15 -1.55 10.15 -1.55 9.75 -1.35 9.75 -1.35 10.1 -1.4 10.15 -1.15 10.2 Q-0.65 10.2 -0.7 9.6 L-0.3 9.6 -0.25 10.0 0.4 10.0 0.6 9.85 0.6 9.4 0.9 9.4 0.9 9.65 0.6 9.85 0.65 9.95 1.25 9.95 2.05 9.15 2.05 8.5 2.15 8.35 2.15 8.4 2.25 8.8 2.05 9.15 2.05 9.8 Q2.6 9.8 2.85 9.25 L3.0 9.25 3.05 10.0 3.65 10.0 Q4.05 9.9 4.1 9.45 L4.1 10.0 5.75 8.55 5.05 8.95 M-2.25 12.75 L-1.7 12.55 -1.7 12.15 -1.45 12.15 -1.45 12.5 -1.7 12.55 -1.7 12.65 -1.6 12.75 -1.15 12.75 Q-1.15 12.15 -0.45 11.9 L-0.3 11.9 -0.3 11.95 -0.45 11.95 -0.7 12.3 -0.7 12.45 -0.3 12.5 0.0 12.4 0.0 12.15 0.05 12.2 0.0 12.4 0.4 12.45 Q0.3 12.25 0.85 11.95 L0.9 12.5 Q0.9 12.2 1.25 11.95 L1.6 11.95 1.65 12.55 2.5 12.55 M4.1 10.0 L4.1 10.1 3.85 10.55 Q3.45 11.0 1.7 11.75 L1.65 11.55 4.1 10.0 M-4.35 -6.65 L-4.75 -6.3 -4.75 -5.8 -4.35 -5.75 -3.7 -6.0 M-0.55 -7.4 L-0.25 -7.7 M-6.6 -2.05 L-6.95 -2.05 Q-7.6 -1.8 -7.55 -1.55 -7.55 -1.25 -7.0 -1.25 -6.4 -1.25 -6.4 -1.75 L-6.35 -1.45 -5.45 -1.45 M-6.95 -0.4 L-7.3 0.2 -7.3 0.8 -7.15 0.8 -6.95 0.2 -6.65 -0.15 -6.2 -0.3 -6.15 0.6 -5.1 0.6 -4.95 0.6 -5.05 0.2 -5.0 -0.3 -4.55 -0.3 -4.35 0.1 -4.95 0.6 -4.35 0.8 -3.5 0.8 M-3.9 -5.1 L-4.0 -4.35 -3.7 -4.6 -3.7 -5.1 -3.9 -5.1 M-3.3 3.95 L-3.5 4.25 -3.0 4.15 -3.0 3.95 -3.3 3.95 M-3.5 4.25 L-3.5 4.3 Q-3.5 4.55 -2.35 4.6 M-6.2 4.95 L-5.8 4.25 -5.8 4.1 -5.75 3.65 -5.55 3.65 -5.55 3.9 -5.8 4.25 -5.5 4.7 -5.0 5.05 Q-4.45 5.05 -4.4 4.5 L-4.5 4.2 -4.9 4.1 -4.75 4.1 -4.5 4.2 -3.55 4.25 -3.5 4.25 M-1.9 5.05 L-1.6 5.0 M-0.45 5.5 L-0.75 4.8 -0.8 5.5 -0.45 5.5 0.6 5.5 M-0.45 5.5 L-0.2 6.05 0.4 5.95 M-2.15 6.3 L-1.8 5.4 -1.25 6.1 Q-0.95 6.1 -0.8 5.5 L-1.4 5.5 M-7.85 -0.05 L-8.15 0.05 -8.3 0.1 Q-8.35 0.45 -7.7 0.45 L-7.3 0.2 M-8.15 3.3 L-8.7 3.1 -9.3 3.25 -9.95 2.7 -9.95 2.4 -9.2 2.4 -8.9 2.5 -8.95 2.2 Q-9.05 1.65 -8.7 1.45 L-8.6 1.5 Q-8.3 1.9 -8.3 2.25 -8.35 2.85 -8.7 3.1 L-8.9 2.5 M-9.0 1.0 L-8.3 0.1 -8.95 0.3 M-9.6 5.0 L-9.7 5.3 -9.1 5.4 -8.7 5.3 -8.7 4.85 -9.4 4.8 -9.6 5.0 -9.9 5.3 -10.3 5.3 -10.3 4.55 -10.6 4.6 -10.8 5.2 -10.75 5.65 M-8.5 4.6 L-9.4 4.8 M-9.15 6.35 L-8.35 6.2 -7.5 5.95 -7.35 5.65 -6.8 6.4 -6.85 6.65 Q-6.6 6.7 -6.1 7.05 L-5.8 6.85 M-7.05 6.6 L-7.35 6.85 -6.85 6.65 -7.05 6.6 M-7.5 6.85 L-7.6 6.85 -7.55 7.3 -7.5 7.35 -7.35 6.85 -7.5 6.85 M-8.35 6.2 L-8.3 6.5 Q-8.15 6.8 -7.6 6.85 L-7.6 6.45 -7.5 5.95 M-13.8 7.85 L-12.6 7.35 -12.35 6.85 -12.2 6.8 Q-12.2 7.55 -11.85 7.55 -11.45 7.55 -11.45 7.05 L-11.3 7.0 -10.4 7.35 -10.3 6.85 -9.9 7.0 Q-9.45 6.95 -9.5 6.6 L-9.45 6.5 -9.3 6.95 -8.9 7.1 Q-8.3 7.1 -8.3 6.5 M-8.5 11.0 L-7.75 10.55 -7.35 10.7 -6.65 10.8 -6.55 10.8 -7.0 10.9 -7.75 10.55 M-3.45 10.8 L-3.5 10.9 -3.5 11.2 -3.3 11.25 -3.3 10.8 -3.45 10.8 M-3.3 11.25 L-3.3 11.95 -4.15 12.75 -3.45 12.85 Q-2.3 12.85 -2.3 12.2 -2.3 11.85 -2.6 11.7 L-3.3 11.25 M-5.45 9.45 L-3.95 9.3 M-11.1 4.6 L-10.6 4.6 -10.3 4.1 -10.3 4.55 -9.15 4.45 M-11.1 4.85 L-10.8 5.2 M-4.15 12.75 L-4.4 12.5" fill="none" stroke="#2c2b29" stroke-linecap="round" stroke-linejoin="round" stroke-opacity="0.49803922" stroke-width="0.25"/>
    </g>
  </defs>
</svg>
