<?xml version="1.0" encoding="UTF-8" standalone="no"?>
<svg xmlns:xlink="http://www.w3.org/1999/xlink" height="45.85px" width="69.0px" xmlns="http://www.w3.org/2000/svg">
  <g transform="matrix(1.0, 0.0, 0.0, 1.0, 34.5, 22.9)">
    <use height="45.85" transform="matrix(1.0, 0.0, 0.0, 1.0, -34.5, -22.9)" width="69.0" xlink:href="#shape0"/>
  </g>
  <defs>
    <g id="shape0" transform="matrix(1.0, 0.0, 0.0, 1.0, 34.5, 22.9)">
      <path d="M-6.95 -18.15 L13.15 -22.5 Q17.95 -23.5 19.35 -20.25 L23.55 -13.05 Q25.5 -9.6 21.4 -7.75 L-2.0 -2.0 -2.15 -2.6 21.15 -8.4 Q21.7 -8.95 21.15 -9.9 L17.85 -15.5 Q16.55 -18.5 12.1 -17.5 L-6.95 -13.2 -6.95 -18.15 M2.25 -15.7 L2.25 -17.2 -0.45 -16.55 -0.45 -15.05 2.25 -15.7" fill="url(#gradient0)" fill-rule="evenodd" stroke="none"/>
      <path d="M-6.95 -13.2 L12.1 -17.5 Q16.55 -18.5 17.85 -15.5 L21.15 -9.9 Q21.7 -8.95 21.15 -8.4 L-2.15 -2.6 -25.4 3.2 Q-28.1 3.85 -29.65 2.8 L-30.05 2.05 -31.65 -3.5 Q-33.15 -7.3 -28.0 -8.4 L-6.95 -13.2 M-2.0 -2.0 L21.4 -7.75 Q26.1 -8.4 27.45 -6.8 L33.05 -0.45 Q35.85 2.7 32.65 3.95 L32.05 4.15 31.4 4.3 30.7 4.5 25.7 5.95 24.85 6.2 24.0 6.45 22.45 6.9 16.75 8.6 15.7 8.9 14.8 9.15 13.2 9.6 7.6 11.25 6.15 11.65 5.35 11.9 3.75 12.35 -1.8 13.95 -3.25 14.4 -4.45 14.75 -6.35 15.3 -12.05 16.95 -13.45 17.35 -14.45 17.65 -16.45 18.25 -20.0 19.25 -21.35 19.5 Q-23.0 19.6 -24.1 18.75 L-24.15 18.7 Q-24.95 18.1 -25.5 17.1 L-28.7 8.4 Q-29.5 5.75 -25.15 3.6 L-2.0 -2.0 M3.25 -1.25 L4.25 -1.05 4.7 -0.5 4.65 -0.3 4.25 0.0 3.95 0.15 3.25 0.25 2.2 0.0 1.85 -0.35 1.8 -0.5 2.2 -1.05 3.25 -1.25 M11.3 -2.6 L11.25 -2.75 11.65 -3.3 12.7 -3.5 12.8 -3.5 13.7 -3.3 14.15 -2.75 14.1 -2.55 13.7 -2.25 13.4 -2.1 12.7 -2.0 11.65 -2.25 11.3 -2.6 M12.65 -4.4 L3.25 -2.1 -6.85 0.4 -16.4 2.75 -25.1 4.85 Q-27.7 5.65 -27.95 7.9 L-27.35 9.6 -24.15 11.95 -20.0 13.3 -23.05 13.0 Q-25.2 14.35 -25.25 15.75 L-24.9 16.75 Q-23.05 19.15 -19.75 17.95 L32.05 3.35 33.15 2.85 Q33.8 2.4 33.35 1.75 L30.9 -1.1 Q29.15 -2.25 27.4 -2.15 L24.8 0.65 24.65 0.7 26.7 -2.6 Q27.35 -4.2 26.1 -6.3 24.45 -7.25 22.3 -6.8 L21.6 -6.6 12.65 -4.4 M20.55 -5.3 L20.5 -5.45 20.9 -6.0 21.7 -6.2 21.95 -6.2 22.95 -6.0 23.4 -5.45 23.35 -5.25 22.95 -4.95 22.65 -4.8 21.95 -4.7 20.9 -4.95 20.55 -5.3 M-6.05 2.75 L-6.75 2.85 -7.8 2.6 -8.15 2.25 -8.2 2.1 -7.8 1.55 -6.9 1.35 -6.75 1.35 -5.75 1.55 Q-5.3 1.8 -5.3 2.1 L-5.35 2.3 -5.75 2.6 -6.05 2.75 M-16.4 3.45 L-15.5 3.65 Q-15.05 3.9 -15.05 4.2 L-15.1 4.4 -15.5 4.7 -15.8 4.85 -16.5 4.95 -17.55 4.7 -17.9 4.35 -17.95 4.2 -17.55 3.65 -16.5 3.45 -16.4 3.45" fill="#d5cdc2" fill-rule="evenodd" stroke="none"/>
      <path d="M4.65 -0.3 L4.7 -0.5 4.25 -1.05 3.25 -1.25 3.25 -2.1 12.65 -4.4 12.8 -3.5 12.7 -3.5 11.65 -3.3 11.25 -2.75 11.3 -2.6 9.85 3.5 Q7.6 5.8 5.55 4.7 L4.65 -0.3" fill="url(#gradient1)" fill-rule="evenodd" stroke="none"/>
      <path d="M3.25 -2.1 L3.25 -1.25 2.2 -1.05 1.8 -0.5 1.85 -0.35 0.35 6.2 Q-2.05 8.65 -4.4 7.5 L-5.35 2.3 -5.3 2.1 Q-5.3 1.8 -5.75 1.55 L-6.75 1.35 -6.9 1.35 -6.85 0.4 3.25 -2.1" fill="url(#gradient2)" fill-rule="evenodd" stroke="none"/>
      <path d="M12.8 -3.5 L12.65 -4.4 21.6 -6.6 21.7 -6.2 20.9 -6.0 20.5 -5.45 20.55 -5.3 19.1 0.9 Q17.05 2.9 14.95 2.1 L14.1 -2.55 14.15 -2.75 13.7 -3.3 12.8 -3.5" fill="url(#gradient3)" fill-rule="evenodd" stroke="none"/>
      <path d="M32.65 3.95 L30.65 7.75 29.8 8.65 30.7 4.5 31.4 4.3 32.05 4.15 32.65 3.95 M25.65 9.85 L25.05 9.35 24.85 6.2 25.7 5.95 25.65 9.85 M23.4 9.8 L23.4 9.85 22.55 10.7 22.45 6.9 24.0 6.45 23.4 9.8 M17.35 12.2 L16.5 11.7 15.7 8.9 16.75 8.6 17.35 12.2 M14.35 12.3 L14.35 12.35 13.35 13.35 13.2 9.6 14.8 9.15 14.35 12.3 M8.6 14.7 L7.1 14.3 6.15 11.65 7.6 11.25 8.6 14.7 M4.8 14.9 L3.7 16.1 3.75 12.35 5.35 11.9 4.8 14.9 M-0.9 17.45 L-2.25 16.9 -3.25 14.4 -1.8 13.95 -0.9 17.45 M-5.25 17.7 L-5.25 17.75 -6.55 19.05 -6.35 15.3 -4.45 14.75 -5.25 17.7 M-10.95 20.35 L-12.25 19.65 -13.45 17.35 -12.05 16.95 -10.95 20.35 M-15.2 20.45 L-16.35 21.85 -16.45 18.25 -14.45 17.65 -15.2 20.45 M-19.65 22.8 L-21.85 22.3 -24.1 18.75 Q-23.0 19.6 -21.35 19.5 L-19.65 22.8 M9.85 3.5 L11.3 -2.6 11.65 -2.25 12.7 -2.0 13.4 -2.1 13.8 3.75 9.5 5.0 9.85 3.5 M1.85 -0.35 L2.2 0.0 3.25 0.25 3.95 0.15 4.35 6.45 0.0 7.7 0.35 6.2 1.85 -0.35 M19.1 0.9 L20.55 -5.3 20.9 -4.95 21.95 -4.7 22.65 -4.8 23.05 1.15 18.75 2.35 19.1 0.9 M24.45 0.75 L24.65 0.7 24.8 0.65 27.3 -0.05 27.35 4.25 24.25 5.1 23.7 0.95 24.4 0.75 24.45 0.75 M8.4 9.45 L4.1 10.65 4.35 6.45 8.55 5.25 8.4 9.45 M-5.6 9.3 L-10.1 10.55 -9.75 9.05 -8.15 2.25 -7.8 2.6 -6.75 2.85 -6.05 2.75 -5.6 9.3 M-11.3 10.9 L-11.9 15.05 -15.35 16.0 -15.35 12.05 -16.05 12.25 -18.95 14.6 -20.0 13.3 -17.9 4.35 -17.55 4.7 -16.5 4.95 -15.8 4.85 -15.35 12.05 -14.3 11.75 -11.3 10.9" fill="#a39b91" fill-rule="evenodd" stroke="none"/>
      <path d="M4.65 -0.3 L5.55 4.7 Q7.6 5.8 9.85 3.5 L9.5 5.0 8.55 5.25 4.35 6.45 3.95 0.15 4.25 0.0 4.65 -0.3 M14.1 -2.55 L14.95 2.1 Q17.05 2.9 19.1 0.9 L18.75 2.35 13.8 3.75 13.4 -2.1 13.7 -2.25 14.1 -2.55 M23.35 -5.25 L24.45 0.75 24.4 0.75 23.7 0.95 23.05 1.15 22.65 -4.8 22.95 -4.95 23.35 -5.25 M18.35 6.75 L17.05 7.2 17.0 7.1 15.75 5.05 16.85 6.45 19.55 5.6 19.55 4.55 18.9 3.6 20.2 4.15 20.2 6.05 18.35 6.75 M0.0 7.7 L-5.6 9.3 -6.05 2.75 -5.75 2.6 -5.35 2.3 -4.4 7.5 Q-2.05 8.65 0.35 6.2 L0.0 7.7 M-10.1 10.55 L-11.3 10.9 -14.3 11.75 -15.35 12.05 -15.8 4.85 -15.5 4.7 -15.1 4.4 -14.0 10.25 Q-11.9 11.4 -9.75 9.05 L-10.1 10.55 M-1.5 9.55 L-0.2 10.1 -0.2 12.0 -3.35 13.15 -4.65 11.0 -3.55 12.4 -0.85 11.55 -0.85 10.5 -1.5 9.55" fill="#6a6359" fill-rule="evenodd" stroke="none"/>
      <path d="M21.7 -6.2 L21.6 -6.6 22.3 -6.8 Q24.45 -7.25 26.1 -6.3 27.35 -4.2 26.7 -2.6 L24.65 0.7 24.45 0.75 23.35 -5.25 23.4 -5.45 22.95 -6.0 21.95 -6.2 21.7 -6.2" fill="url(#gradient4)" fill-rule="evenodd" stroke="none"/>
      <path d="M32.05 3.35 L32.0 0.55 29.8 -0.8 27.3 -0.05 24.8 0.65 27.4 -2.15 Q29.15 -2.25 30.9 -1.1 L33.35 1.75 Q33.8 2.4 33.15 2.85 L32.05 3.35" fill="url(#gradient5)" fill-rule="evenodd" stroke="none"/>
      <path d="M27.3 -0.05 L29.8 -0.8 32.0 0.55 32.05 3.35 -19.75 17.95 -19.3 14.9 -18.95 14.6 -16.05 12.25 -15.35 12.05 -15.35 16.0 -11.9 15.05 -11.3 10.9 -10.1 10.55 -5.6 9.3 0.0 7.7 4.35 6.45 4.1 10.65 8.4 9.45 17.0 7.1 17.05 7.2 18.35 6.75 24.25 5.1 27.35 4.25 27.3 -0.05 M-4.65 11.0 L-3.35 13.15 -0.2 12.0 -0.2 10.1 -1.5 9.55 -4.65 10.0 -4.65 11.0" fill="url(#gradient6)" fill-rule="evenodd" stroke="none"/>
      <path d="M23.05 1.15 L23.7 0.95 24.25 5.1 18.35 6.75 20.2 6.05 20.2 4.15 18.9 3.6 15.75 4.4 15.75 5.05 17.0 7.1 8.4 9.45 8.55 5.25 9.5 5.0 13.8 3.75 18.75 2.35 23.05 1.15" fill="url(#gradient7)" fill-rule="evenodd" stroke="none"/>
      <path d="M25.05 9.35 L23.4 9.8 24.0 6.45 24.85 6.2 25.05 9.35 M16.5 11.7 L14.35 12.3 14.8 9.15 15.7 8.9 16.5 11.7 M7.1 14.3 L4.8 14.9 5.35 11.9 6.15 11.65 7.1 14.3 M-2.25 16.9 L-5.25 17.7 -4.45 14.75 -3.25 14.4 -2.25 16.9 M-12.25 19.65 L-15.2 20.45 -14.45 17.65 -13.45 17.35 -12.25 19.65" fill="#45413a" fill-rule="evenodd" stroke="none"/>
      <path d="M29.8 8.65 L25.65 9.85 25.7 5.95 30.7 4.5 29.8 8.65 M22.55 10.7 L22.55 10.75 17.35 12.2 16.75 8.6 22.45 6.9 22.55 10.7 M13.35 13.35 L8.6 14.7 7.6 11.25 13.2 9.6 13.35 13.35 M3.7 16.1 L-0.9 17.45 -1.8 13.95 3.75 12.35 3.7 16.1 M-6.55 19.05 L-10.95 20.35 -12.05 16.95 -6.35 15.3 -6.55 19.05 M-16.35 21.85 L-19.65 22.8 -21.35 19.5 -20.0 19.25 -16.45 18.25 -16.35 21.85" fill="url(#gradient8)" fill-rule="evenodd" stroke="none"/>
      <path d="M18.9 3.6 L19.55 4.55 19.55 5.6 16.85 6.45 15.75 5.05 15.75 4.4 18.9 3.6" fill="url(#gradient9)" fill-rule="evenodd" stroke="none"/>
      <path d="M-6.95 -18.15 L-6.95 -13.2 -28.0 -8.4 Q-33.15 -7.3 -31.65 -3.5 L-30.05 2.05 -29.65 2.8 Q-28.1 3.85 -25.4 3.2 L-2.15 -2.6 -2.0 -2.0 -25.15 3.6 -27.75 3.8 -29.0 3.55 -29.7 3.25 Q-30.8 2.65 -31.3 1.4 L-34.0 -7.95 Q-35.6 -12.05 -30.1 -13.15 L-6.95 -18.15 M-14.6 -11.85 L-14.6 -13.3 -17.6 -12.6 -17.45 -11.2 -14.6 -11.85" fill="url(#gradient10)" fill-rule="evenodd" stroke="none"/>
      <path d="M-8.15 2.25 L-9.75 9.05 Q-11.9 11.4 -14.0 10.25 L-15.1 4.4 -15.05 4.2 Q-15.05 3.9 -15.5 3.65 L-16.4 3.45 -16.4 2.75 -6.85 0.4 -6.9 1.35 -7.8 1.55 -8.2 2.1 -8.15 2.25" fill="url(#gradient11)" fill-rule="evenodd" stroke="none"/>
      <path d="M-4.65 11.0 L-4.65 10.0 -1.5 9.55 -0.85 10.5 -0.85 11.55 -3.55 12.4 -4.65 11.0" fill="url(#gradient12)" fill-rule="evenodd" stroke="none"/>
      <path d="M-16.4 3.45 L-16.5 3.45 -17.55 3.65 -17.95 4.2 -17.9 4.35 -20.0 13.3 -24.15 11.95 -27.35 9.6 -27.95 7.9 Q-27.7 5.65 -25.1 4.85 L-16.4 2.75 -16.4 3.45" fill="url(#gradient13)" fill-rule="evenodd" stroke="none"/>
      <path d="M-15.35 12.05 L-14.3 11.75 -15.35 12.05" fill="url(#gradient14)" fill-rule="evenodd" stroke="none"/>
      <path d="M-18.95 14.6 L-19.3 14.9 -19.75 17.95 Q-23.05 19.15 -24.9 16.75 L-25.25 15.75 Q-25.2 14.35 -23.05 13.0 L-20.0 13.3 -18.95 14.6" fill="url(#gradient15)" fill-rule="evenodd" stroke="none"/>
      <path d="M21.4 -7.75 Q25.5 -9.6 23.55 -13.05 L19.35 -20.25 Q17.95 -23.5 13.15 -22.5 L-6.95 -18.15 M-2.0 -2.0 L21.4 -7.75 Q26.1 -8.4 27.45 -6.8 L33.05 -0.45 Q35.85 2.7 32.65 3.95 L30.65 7.75 29.8 8.65 25.65 9.85 25.05 9.35 M23.4 9.8 L23.4 9.85 22.55 10.7 22.55 10.75 17.35 12.2 16.5 11.7 15.7 8.9 16.75 8.6 22.45 6.9 M14.35 12.3 L14.35 12.35 13.35 13.35 8.6 14.7 7.1 14.3 M4.8 14.9 L3.7 16.1 -0.9 17.45 -2.25 16.9 M-5.25 17.7 L-5.25 17.75 -6.55 19.05 -10.95 20.35 -12.25 19.65 M-15.2 20.45 L-16.35 21.85 -19.65 22.8 -21.85 22.3 -24.1 18.75 -24.15 18.7 Q-24.95 18.1 -25.5 17.1 L-28.7 8.4 Q-29.5 5.75 -25.15 3.6 L-27.75 3.8 -29.0 3.55 -29.7 3.25 Q-30.8 2.65 -31.3 1.4 L-34.0 -7.95 Q-35.6 -12.05 -30.1 -13.15 L-6.95 -18.15 M2.25 -15.7 L-0.45 -15.05 -0.45 -16.55 2.25 -17.2 2.25 -15.7 M12.65 -4.4 L3.25 -2.1 -6.85 0.4 -16.4 2.75 -25.1 4.85 Q-27.7 5.65 -27.95 7.9 L-27.35 9.6 -24.15 11.95 -20.0 13.3 -23.05 13.0 Q-25.2 14.35 -25.25 15.75 L-24.9 16.75 Q-23.05 19.15 -19.75 17.95 L32.05 3.35 33.15 2.85 Q33.8 2.4 33.35 1.75 L30.9 -1.1 Q29.15 -2.25 27.4 -2.15 L24.8 0.65 27.3 -0.05 29.8 -0.8 32.0 0.55 32.05 3.35 M21.6 -6.6 L12.65 -4.4 M24.45 0.75 L24.65 0.7 26.7 -2.6 Q27.35 -4.2 26.1 -6.3 24.45 -7.25 22.3 -6.8 L21.6 -6.6 M23.05 1.15 L23.7 0.95 24.4 0.75 24.45 0.75 M4.35 6.45 L0.0 7.7 -5.6 9.3 -10.1 10.55 -11.3 10.9 M-15.35 12.05 L-16.05 12.25 -18.95 14.6 -19.3 14.9 -19.75 17.95 M32.65 3.95 L32.05 4.15 31.4 4.3 30.7 4.5 M24.8 0.65 L24.65 0.7 M24.0 6.45 L24.85 6.2 25.7 5.95 30.7 4.5 M23.4 9.8 L24.0 6.45 22.45 6.9 M24.85 6.2 L25.05 9.35 M13.2 9.6 L14.8 9.15 15.7 8.9 M14.8 9.15 L14.35 12.3 M13.8 3.75 L18.75 2.35 23.05 1.15 M9.5 5.0 L8.55 5.25 M6.15 11.65 L7.6 11.25 13.2 9.6 M5.35 11.9 L6.15 11.65 7.1 14.3 M4.35 6.45 L8.55 5.25 M5.35 11.9 L3.75 12.35 M4.8 14.9 L5.35 11.9 M13.8 3.75 L9.5 5.0 M-14.6 -11.85 L-17.45 -11.2 -17.6 -12.6 -14.6 -13.3 -14.6 -11.85 M-14.3 11.75 L-11.3 10.9 M-15.35 12.05 L-14.3 11.75 M-12.05 16.95 L-13.45 17.35 -12.25 19.65 M-13.45 17.35 L-14.45 17.65 -15.2 20.45 M-12.05 16.95 L-6.35 15.3 -4.45 14.75 -3.25 14.4 -1.8 13.95 3.75 12.35 M-21.35 19.5 L-20.0 19.25 -16.45 18.25 -14.45 17.65 M-3.25 14.4 L-2.25 16.9 M-4.45 14.75 L-5.25 17.7 M-24.1 18.75 Q-23.0 19.6 -21.35 19.5 M-25.15 3.6 L-2.0 -2.0" fill="none" stroke="#81776d" stroke-linecap="round" stroke-linejoin="round" stroke-width="0.35000000000000003"/>
    </g>
    <linearGradient gradientTransform="matrix(0.019, 0.0, 0.0, 0.0127, 8.6, -12.4)" gradientUnits="userSpaceOnUse" id="gradient0" spreadMethod="pad" x1="-819.2" x2="819.2">
      <stop offset="0.0" stop-color="#d5cdc2"/>
      <stop offset="1.0" stop-color="#a0978e"/>
    </linearGradient>
    <linearGradient gradientTransform="matrix(-0.0017, 0.0063, -0.0052, -0.0014, 7.3, -0.25)" gradientUnits="userSpaceOnUse" id="gradient1" spreadMethod="pad" x1="-819.2" x2="819.2">
      <stop offset="0.0" stop-color="#d5cdc2"/>
      <stop offset="1.0" stop-color="#81756d"/>
    </linearGradient>
    <linearGradient gradientTransform="matrix(0.0, 0.0061, -0.0062, 0.0, -1.8, 2.85)" gradientUnits="userSpaceOnUse" id="gradient2" spreadMethod="pad" x1="-819.2" x2="819.2">
      <stop offset="0.0" stop-color="#d5cdc2"/>
      <stop offset="1.0" stop-color="#81756d"/>
    </linearGradient>
    <linearGradient gradientTransform="matrix(0.0, 0.0055, -0.0055, 0.0, 17.2, -2.15)" gradientUnits="userSpaceOnUse" id="gradient3" spreadMethod="pad" x1="-819.2" x2="819.2">
      <stop offset="0.0" stop-color="#d5cdc2"/>
      <stop offset="1.0" stop-color="#81756d"/>
    </linearGradient>
    <linearGradient gradientTransform="matrix(0.0, 0.0047, -0.0032, 0.0, 24.25, -3.15)" gradientUnits="userSpaceOnUse" id="gradient4" spreadMethod="pad" x1="-819.2" x2="819.2">
      <stop offset="0.0" stop-color="#d5cdc2"/>
      <stop offset="1.0" stop-color="#81756d"/>
    </linearGradient>
    <linearGradient gradientTransform="matrix(0.001, 0.004, -0.0047, 0.0012, 28.95, -0.75)" gradientUnits="userSpaceOnUse" id="gradient5" spreadMethod="pad" x1="-819.2" x2="819.2">
      <stop offset="0.0" stop-color="#d5cdc2"/>
      <stop offset="1.0" stop-color="#81756d"/>
    </linearGradient>
    <linearGradient gradientTransform="matrix(6.0E-4, 0.0024, -0.0106, 0.0028, -3.5, 12.3)" gradientUnits="userSpaceOnUse" id="gradient6" spreadMethod="pad" x1="-819.2" x2="819.2">
      <stop offset="0.0" stop-color="#d5cdc2"/>
      <stop offset="1.0" stop-color="#a0978e"/>
    </linearGradient>
    <linearGradient gradientTransform="matrix(7.0E-4, 0.0025, -0.01, 0.0027, 16.05, 5.15)" gradientUnits="userSpaceOnUse" id="gradient7" spreadMethod="pad" x1="-819.2" x2="819.2">
      <stop offset="0.0" stop-color="#d5cdc2"/>
      <stop offset="1.0" stop-color="#a0978e"/>
    </linearGradient>
    <linearGradient gradientTransform="matrix(7.0E-4, 0.0027, -0.0029, 8.0E-4, -20.05, 21.45)" gradientUnits="userSpaceOnUse" id="gradient8" spreadMethod="pad" x1="-819.2" x2="819.2">
      <stop offset="0.0" stop-color="#d5cdc2"/>
      <stop offset="1.0" stop-color="#a0978e"/>
    </linearGradient>
    <linearGradient gradientTransform="matrix(1.0E-4, 3.0E-4, -0.0022, 7.0E-4, 17.75, 5.1)" gradientUnits="userSpaceOnUse" id="gradient9" spreadMethod="pad" x1="-819.2" x2="819.2">
      <stop offset="0.0" stop-color="#d5cdc2"/>
      <stop offset="1.0" stop-color="#a0978e"/>
    </linearGradient>
    <linearGradient gradientTransform="matrix(-0.0111, 0.0, 0.0, -0.0134, -23.55, -6.75)" gradientUnits="userSpaceOnUse" id="gradient10" spreadMethod="pad" x1="-819.2" x2="819.2">
      <stop offset="0.0" stop-color="#d5cdc2"/>
      <stop offset="1.0" stop-color="#a0978e"/>
    </linearGradient>
    <linearGradient gradientTransform="matrix(0.0, 0.0063, -0.0058, 0.0, -11.4, 4.35)" gradientUnits="userSpaceOnUse" id="gradient11" spreadMethod="pad" x1="-819.2" x2="819.2">
      <stop offset="0.0" stop-color="#d5cdc2"/>
      <stop offset="1.0" stop-color="#81756d"/>
    </linearGradient>
    <linearGradient gradientTransform="matrix(1.0E-4, 4.0E-4, -0.0022, 6.0E-4, -2.65, 11.05)" gradientUnits="userSpaceOnUse" id="gradient12" spreadMethod="pad" x1="-819.2" x2="819.2">
      <stop offset="0.0" stop-color="#d5cdc2"/>
      <stop offset="1.0" stop-color="#a0978e"/>
    </linearGradient>
    <linearGradient gradientTransform="matrix(0.0014, 0.0056, -0.0074, 0.0019, -21.1, 7.4)" gradientUnits="userSpaceOnUse" id="gradient13" spreadMethod="pad" x1="-819.2" x2="819.2">
      <stop offset="0.0" stop-color="#d5cdc2"/>
      <stop offset="1.0" stop-color="#81756d"/>
    </linearGradient>
    <linearGradient gradientTransform="matrix(9.0E-4, 0.0036, -0.0069, 0.0018, -19.5, 12.65)" gradientUnits="userSpaceOnUse" id="gradient14" spreadMethod="pad" x1="-819.2" x2="819.2">
      <stop offset="0.0" stop-color="#d5cdc2"/>
      <stop offset="1.0" stop-color="#a0978e"/>
    </linearGradient>
    <linearGradient gradientTransform="matrix(9.0E-4, 0.0036, -0.0069, 0.0018, -19.5, 12.65)" gradientUnits="userSpaceOnUse" id="gradient15" spreadMethod="pad" x1="-819.2" x2="819.2">
      <stop offset="0.0" stop-color="#d5cdc2"/>
      <stop offset="1.0" stop-color="#81756d"/>
    </linearGradient>
  </defs>
</svg>
