<?xml version="1.0" encoding="UTF-8" standalone="no"?>
<svg xmlns:xlink="http://www.w3.org/1999/xlink" height="39.85px" width="65.1px" xmlns="http://www.w3.org/2000/svg">
  <g transform="matrix(1.0, 0.0, 0.0, 1.0, 32.45, 19.9)">
    <use height="39.85" transform="matrix(1.0, 0.0, 0.0, 1.0, -32.45, -19.9)" width="65.1" xlink:href="#shape0"/>
  </g>
  <defs>
    <g id="shape0" transform="matrix(1.0, 0.0, 0.0, 1.0, 32.45, 19.9)">
      <path d="M21.15 19.7 L-30.5 5.3 -31.1 -5.5 -32.2 -5.75 -32.2 -10.6 22.8 -0.75 22.8 5.75 23.4 5.0 21.05 8.25 21.15 19.7 M21.0 5.4 L22.8 5.75 21.0 5.4 -12.2 -1.55 -31.1 -5.5 -12.2 -1.55 21.05 8.25 21.0 5.4" fill="#655134" fill-rule="evenodd" stroke="none"/>
      <path d="M-32.2 -10.6 L-15.85 -19.65 32.4 -13.6 22.8 -0.75 -32.2 -10.6" fill="#76643d" fill-rule="evenodd" stroke="none"/>
      <path d="M32.4 -13.6 L32.4 -7.1 31.65 -6.15 31.7 5.3 29.95 7.8 29.95 -1.05 23.65 7.75 23.65 16.05 21.15 19.7 21.05 8.25 23.4 5.0 22.8 5.75 22.8 -0.75 32.4 -13.6 M31.65 -6.15 L23.95 4.25 23.4 5.0 23.95 4.25 31.65 -6.15" fill="#765f3d" fill-rule="evenodd" stroke="none"/>
      <path d="M21.0 5.4 L21.05 8.25 -12.2 -1.55 21.0 5.4" fill="#4f3f28" fill-rule="evenodd" stroke="none"/>
      <path d="M29.95 7.8 L23.65 16.05 23.65 7.75 29.95 -1.05 29.95 7.8" fill="#e2d7c7" fill-rule="evenodd" stroke="none"/>
      <path d="M32.4 -13.6 L32.4 -7.1 31.65 -6.15 31.7 5.3 29.95 7.8 23.65 16.05 21.15 19.7 -30.5 5.3 -31.1 -5.5 -32.2 -5.75 -32.2 -10.6 -15.85 -19.65 32.4 -13.6 22.8 -0.75 22.8 5.75 23.4 5.0 23.95 4.25 31.65 -6.15 M-12.2 -1.55 L-31.1 -5.5 M22.8 5.75 L21.0 5.4 21.05 8.25 21.15 19.7 M21.0 5.4 L-12.2 -1.55 M-32.2 -10.6 L22.8 -0.75" fill="none" stroke="#4f3f28" stroke-linecap="round" stroke-linejoin="round" stroke-width="0.5"/>
      <path d="M24.5 9.6 L24.5 8.55 24.95 8.0 25.1 7.55 25.3 6.95 25.4 6.35 25.9 5.7 25.9 11.1 25.15 12.7 25.15 8.65 24.5 9.6 M27.15 5.45 L27.0 5.35 26.9 5.75 26.85 6.6 26.85 8.15 26.9 8.85 27.0 8.8 27.15 8.4 27.15 7.65 27.15 6.05 27.15 5.45 M27.35 4.3 Q27.35 4.15 27.45 4.25 L27.5 4.3 27.65 4.9 27.65 6.05 27.65 7.25 27.5 8.15 27.45 8.95 27.3 9.7 26.85 10.15 26.45 10.2 26.3 9.6 26.25 8.4 26.3 7.05 26.45 6.0 26.7 5.2 27.0 4.55 27.35 4.3" fill="#000000" fill-opacity="0.50980395" fill-rule="evenodd" stroke="none"/>
      <path d="M-4.2 0.5 L-12.15 1.4 -17.95 -2.45 -20.35 1.15 -23.3 -3.6 -17.95 -2.45 -4.2 0.5" fill="#aaaaaa" fill-opacity="0.3372549" fill-rule="evenodd" stroke="none"/>
      <path d="M-4.2 0.5 L-4.95 2.8 Q-5.55 4.2 -6.95 3.15 -8.3 2.0 -9.65 3.6 -11.1 5.15 -12.15 5.3 L-15.9 3.45 Q-18.55 2.0 -18.6 1.85 L-18.7 1.55 -21.55 2.3 -22.7 2.75 Q-23.85 1.0 -26.0 -0.9 -28.0 -2.8 -32.4 -5.6 L-23.3 -3.6 -20.35 1.15 -17.95 -2.45 -12.15 1.4 -4.2 0.5" fill="#ffffff" fill-opacity="0.3372549" fill-rule="evenodd" stroke="none"/>
    </g>
  </defs>
</svg>
