<?xml version="1.0" encoding="UTF-8" standalone="no"?>
<svg xmlns:xlink="http://www.w3.org/1999/xlink" height="32.9px" width="53.95px" xmlns="http://www.w3.org/2000/svg">
  <g transform="matrix(1.0, 0.0, 0.0, 1.0, 27.05, 16.45)">
    <use height="32.9" transform="matrix(1.0, 0.0, 0.0, 1.0, -27.05, -16.45)" width="53.95" xlink:href="#shape0"/>
  </g>
  <defs>
    <g id="shape0" transform="matrix(1.0, 0.0, 0.0, 1.0, 27.05, 16.45)">
      <path d="M1.1 -9.55 L0.8 -9.4 Q0.65 -9.3 0.85 -9.15 L1.2 -9.15 1.6 -9.3 1.8 -9.5 1.9 -9.7 1.75 -9.7 1.45 -9.7 1.1 -9.55 M0.05 -10.15 L0.3 -10.35 0.45 -10.5 0.3 -10.55 -0.05 -10.5 -0.35 -10.4 -0.55 -10.25 -0.6 -10.0 -0.25 -10.0 0.05 -10.15 M0.95 -10.25 L0.95 -10.2 0.6 -10.2 0.25 -10.05 -0.05 -9.8 Q-0.25 -9.75 0.0 -9.6 L0.1 -9.6 0.45 -9.65 0.85 -9.8 1.0 -10.0 0.95 -10.25 M-5.45 -5.8 L-4.65 -5.25 Q-3.55 -4.7 -2.0 -4.75 -0.45 -4.85 0.5 -5.35 1.45 -5.95 1.35 -6.75 1.15 -7.55 0.1 -8.0 L-0.5 -8.3 -0.6 -8.3 -0.8 -8.3 -1.4 -8.45 -1.35 -8.65 -1.45 -8.65 -1.75 -8.65 -2.1 -8.5 -2.5 -8.5 -2.45 -8.55 -2.15 -8.75 -2.05 -8.95 -2.1 -9.0 -2.45 -8.95 -2.8 -8.75 -3.1 -8.6 -3.1 -8.4 Q-4.2 -8.3 -4.9 -7.85 -5.75 -7.45 -5.85 -6.85 L-6.2 -6.65 -6.5 -6.5 Q-6.7 -6.35 -6.5 -6.25 L-6.15 -6.25 -5.8 -6.4 -5.65 -6.0 -5.55 -5.8 -5.45 -5.8 M9.85 -3.9 Q10.7 -4.55 12.1 -4.55 13.45 -4.6 14.65 -4.05 15.75 -3.55 16.0 -2.8 16.2 -2.05 15.4 -1.4 14.5 -0.85 13.1 -0.75 11.6 -0.75 10.45 -1.25 9.2 -1.8 9.05 -2.55 8.9 -3.35 9.85 -3.9 M6.25 -1.85 Q6.75 0.3 9.0 2.45 L-3.95 11.3 Q-7.85 9.8 -9.95 7.5 -14.95 2.65 -22.7 -0.55 L0.25 -12.8 Q4.4 -8.1 6.25 -1.85 M22.0 -7.75 L22.1 -7.7 22.15 -7.6 22.1 -7.55 22.0 -7.5 21.95 -7.45 21.9 -7.45 21.75 -7.45 21.55 -7.6 21.55 -7.7 21.6 -7.75 22.0 -7.75 M22.55 -7.4 L22.6 -7.45 22.7 -7.45 22.75 -7.45 22.85 -7.4 23.0 -7.3 22.95 -7.25 22.85 -7.15 22.8 -7.15 22.7 -7.2 22.5 -7.3 Q22.3 -7.3 22.4 -7.35 L22.5 -7.4 22.55 -7.4 M23.65 -7.05 L23.75 -6.95 23.7 -6.95 23.7 -6.8 23.55 -6.85 23.5 -6.8 23.35 -6.8 23.2 -6.95 23.15 -7.05 23.2 -7.1 23.25 -7.1 23.4 -7.1 23.6 -7.1 23.65 -7.05 M24.6 -6.75 L24.6 -6.8 24.65 -6.75 24.75 -6.65 24.7 -6.6 24.5 -6.5 24.35 -6.5 24.15 -6.65 Q24.0 -6.7 24.15 -6.7 L24.15 -6.8 24.3 -6.8 24.35 -6.85 24.4 -6.85 24.45 -6.8 24.6 -6.75 M-10.2 -4.75 L-10.15 -4.55 -9.8 -4.55 -9.45 -4.7 -9.2 -4.9 -9.05 -5.1 -9.15 -5.15 -9.5 -5.1 -9.9 -4.95 -10.2 -4.75 M-12.0 -5.55 L-11.65 -5.7 -11.4 -5.9 -11.25 -6.15 -11.4 -6.2 -11.7 -6.1 -12.1 -5.95 -12.4 -5.8 -12.35 -5.55 -12.0 -5.55 M-10.95 -5.05 L-11.0 -4.85 -10.6 -4.85 -10.2 -5.0 -9.95 -5.2 -9.85 -5.45 -9.95 -5.45 -10.3 -5.4 -10.7 -5.3 -10.95 -5.05 M-10.7 -5.55 L-10.5 -5.8 -10.65 -5.85 -11.0 -5.75 -11.35 -5.6 -11.65 -5.45 -11.7 -5.2 -11.3 -5.2 -10.95 -5.35 -10.7 -5.55 M-8.65 -3.85 L-9.7 -3.9 Q-12.7 -3.95 -14.55 -2.85 -16.55 -1.75 -16.3 -0.1 -16.05 1.6 -13.65 2.9 -11.25 4.15 -8.05 4.2 -4.9 4.25 -2.95 3.05 -1.1 1.8 -1.5 0.15 -2.0 -1.5 -4.35 -2.7 -6.05 -3.5 -7.95 -3.75 L-7.8 -3.85 -7.6 -4.05 -7.45 -4.3 -7.6 -4.35 -7.95 -4.25 -8.25 -4.1 -8.6 -3.9 -8.65 -3.85 M-8.5 -4.7 L-8.85 -4.65 -9.25 -4.45 -9.5 -4.3 Q-9.7 -4.25 -9.5 -4.05 L-9.15 -4.05 -8.75 -4.2 -8.5 -4.4 -8.4 -4.65 -8.5 -4.7 M-6.55 -7.2 L-6.95 -7.05 -7.2 -6.85 -7.25 -6.6 -6.85 -6.6 Q-6.65 -6.7 -6.55 -6.75 L-6.3 -6.95 -6.15 -7.2 -6.25 -7.25 -6.55 -7.2 M-8.0 -7.2 Q-8.2 -7.15 -8.0 -7.0 L-7.65 -7.0 Q-7.45 -7.1 -7.3 -7.15 L-7.05 -7.35 -6.95 -7.55 -7.1 -7.6 -7.35 -7.55 -7.75 -7.35 -8.0 -7.2 M-7.85 -7.95 L-8.15 -7.95 -8.55 -7.75 -8.85 -7.6 -8.85 -7.35 -8.45 -7.35 -8.15 -7.55 -7.9 -7.7 -7.75 -7.95 -7.85 -7.95 M-5.5 -9.3 L-5.75 -9.3 -6.2 -9.1 -6.4 -8.9 -6.45 -8.7 -6.1 -8.7 -5.7 -8.85 -5.45 -9.05 -5.4 -9.25 -5.5 -9.3 M-5.05 -8.55 L-4.75 -8.75 -4.7 -8.9 -4.8 -9.0 -5.1 -8.95 -5.45 -8.75 -5.7 -8.6 -5.75 -8.4 -5.4 -8.4 -5.05 -8.55 M-4.0 -8.65 L-4.35 -8.6 -4.7 -8.45 -5.0 -8.3 Q-5.15 -8.2 -4.95 -8.05 L-4.65 -8.05 -4.25 -8.2 -4.05 -8.4 -3.95 -8.6 -4.0 -8.65 M-3.05 -8.85 L-2.85 -9.05 -2.7 -9.25 -2.8 -9.3 -3.1 -9.25 -3.5 -9.05 -3.75 -8.9 Q-3.95 -8.85 -3.75 -8.7 L-3.4 -8.7 -3.05 -8.85 M-3.9 -9.6 L-4.3 -9.45 -4.5 -9.25 -4.55 -9.05 -4.2 -9.05 -3.9 -9.2 -3.6 -9.4 -3.55 -9.6 -3.65 -9.65 -3.9 -9.6 M-4.3 -9.95 L-4.6 -9.95 -5.0 -9.8 -5.25 -9.6 Q-5.45 -9.5 -5.25 -9.4 L-4.9 -9.4 -4.55 -9.55 -4.3 -9.7 -4.2 -9.95 -4.3 -9.95 M-1.5 -10.85 L-1.3 -11.05 -1.15 -11.2 -1.35 -11.3 -1.6 -11.2 -2.0 -11.1 -2.25 -10.95 Q-2.45 -10.85 -2.2 -10.7 L-1.9 -10.7 -1.5 -10.85 M-0.65 -11.0 L-0.9 -10.95 -1.25 -10.75 -1.55 -10.55 -1.5 -10.4 -1.2 -10.4 -0.85 -10.5 -0.6 -10.7 -0.5 -10.95 -0.65 -11.0 M-5.25 9.75 Q-5.55 9.85 -5.25 10.05 L-4.85 10.05 -4.45 9.8 -4.2 9.6 -4.0 9.25 Q-4.05 9.15 -4.1 9.2 L-4.5 9.25 -4.95 9.45 -5.25 9.75 M-5.25 9.15 L-5.15 8.85 -5.25 8.8 -5.65 8.9 -6.1 9.05 -6.4 9.35 -6.35 9.6 -5.9 9.6 -5.6 9.4 -5.25 9.15 M-6.45 8.35 L-6.8 8.55 -7.1 8.8 Q-7.35 8.9 -7.2 9.1 L-6.75 9.05 -6.25 8.85 -6.05 8.6 Q-5.8 8.45 -5.9 8.35 L-6.0 8.2 -6.45 8.35 M-6.65 8.05 L-6.55 7.75 -6.7 7.7 -7.05 7.75 -7.45 8.0 Q-7.7 8.05 -7.75 8.2 -8.0 8.3 -7.8 8.55 L-7.4 8.55 -6.95 8.35 -6.65 8.05 M-7.15 7.2 L-7.2 7.1 -7.6 7.15 -8.0 7.35 -8.4 7.6 -8.35 7.95 -7.95 7.95 -7.55 7.7 -7.3 7.5 -7.15 7.2" fill="#d5d5aa" fill-rule="evenodd" stroke="none"/>
      <path d="M0.95 -10.25 L1.0 -10.0 0.85 -9.8 0.45 -9.65 0.1 -9.6 0.0 -9.6 Q-0.25 -9.75 -0.05 -9.8 L0.25 -10.05 0.6 -10.2 0.95 -10.2 0.95 -10.25 M0.05 -10.15 L-0.25 -10.0 -0.6 -10.0 -0.55 -10.25 -0.35 -10.4 -0.05 -10.5 0.3 -10.55 0.45 -10.5 0.3 -10.35 0.05 -10.15 M1.1 -9.55 L1.45 -9.7 1.75 -9.7 1.9 -9.7 1.8 -9.5 1.6 -9.3 1.2 -9.15 0.85 -9.15 Q0.65 -9.3 0.8 -9.4 L1.1 -9.55 M-0.5 -8.3 L-0.6 -8.0 -0.85 -7.85 -1.2 -7.7 -1.55 -7.7 -1.5 -7.9 -1.3 -8.1 -0.85 -8.3 -0.8 -8.3 -0.6 -8.3 -0.5 -8.3 M-1.4 -8.45 L-1.45 -8.4 -1.7 -8.25 -2.0 -8.1 -2.45 -8.05 -2.35 -8.3 -2.1 -8.45 -2.1 -8.5 -1.75 -8.65 -1.45 -8.65 -1.35 -8.65 -1.4 -8.45 M-2.5 -8.5 L-2.75 -8.4 -3.1 -8.4 -3.1 -8.6 -2.8 -8.75 -2.45 -8.95 -2.1 -9.0 -2.05 -8.95 -2.15 -8.75 -2.45 -8.55 -2.5 -8.5 M-5.85 -6.85 L-5.8 -6.85 -5.55 -6.9 -5.45 -6.85 -5.5 -6.6 -5.8 -6.4 -6.15 -6.25 -6.5 -6.25 Q-6.7 -6.35 -6.5 -6.5 L-6.2 -6.65 -5.85 -6.85 M-5.65 -6.0 L-5.6 -6.0 -5.3 -6.25 -4.95 -6.4 -4.6 -6.4 -4.5 -6.4 -4.6 -6.15 -4.8 -6.0 -5.25 -5.8 -5.45 -5.8 -5.55 -5.8 -5.65 -6.0 M9.85 -3.9 Q8.9 -3.35 9.05 -2.55 9.2 -1.8 10.45 -1.25 11.6 -0.75 13.1 -0.75 14.5 -0.85 15.4 -1.4 16.2 -2.05 16.0 -2.8 15.75 -3.55 14.65 -4.05 13.45 -4.6 12.1 -4.55 10.7 -4.55 9.85 -3.9 M-26.65 0.2 L3.25 -16.2 Q8.7 -14.95 19.0 -9.7 22.15 -7.9 26.55 -6.65 L-1.6 13.05 -2.4 13.6 Q-7.25 11.85 -10.3 9.25 -18.5 2.85 -26.65 0.2 M24.6 -6.75 L24.45 -6.8 24.4 -6.85 24.35 -6.85 24.3 -6.8 24.15 -6.8 24.15 -6.7 Q24.0 -6.7 24.15 -6.65 L24.35 -6.5 24.5 -6.5 24.7 -6.6 24.75 -6.65 24.65 -6.75 24.6 -6.8 24.6 -6.75 M23.65 -7.05 L23.6 -7.1 23.4 -7.1 23.25 -7.1 23.2 -7.1 23.15 -7.05 23.2 -6.95 23.35 -6.8 23.5 -6.8 23.55 -6.85 23.7 -6.8 23.7 -6.95 23.75 -6.95 23.65 -7.05 M22.55 -7.4 L22.5 -7.4 22.4 -7.35 Q22.3 -7.3 22.5 -7.3 L22.7 -7.2 22.8 -7.15 22.85 -7.15 22.95 -7.25 23.0 -7.3 22.85 -7.4 22.75 -7.45 22.7 -7.45 22.6 -7.45 22.55 -7.4 M22.0 -7.75 L21.6 -7.75 21.55 -7.7 21.55 -7.6 21.75 -7.45 21.9 -7.45 21.95 -7.45 22.0 -7.5 22.1 -7.55 22.15 -7.6 22.1 -7.7 22.0 -7.75 M6.25 -1.85 Q4.4 -8.1 0.25 -12.8 L-22.7 -0.55 Q-14.95 2.65 -9.95 7.5 -7.85 9.8 -3.95 11.3 L9.0 2.45 Q6.75 0.3 6.25 -1.85 M-10.7 -5.55 L-10.95 -5.35 -11.3 -5.2 -11.7 -5.2 -11.65 -5.45 -11.35 -5.6 -11.0 -5.75 -10.65 -5.85 -10.5 -5.8 -10.7 -5.55 M-10.95 -5.05 L-10.7 -5.3 -10.3 -5.4 -9.95 -5.45 -9.85 -5.45 -9.95 -5.2 -10.2 -5.0 -10.6 -4.85 -11.0 -4.85 -10.95 -5.05 M-12.0 -5.55 L-12.35 -5.55 -12.4 -5.8 -12.1 -5.95 -11.7 -6.1 -11.4 -6.2 -11.25 -6.15 -11.4 -5.9 -11.65 -5.7 -12.0 -5.55 M-10.2 -4.75 L-9.9 -4.95 -9.5 -5.1 -9.15 -5.15 -9.05 -5.1 -9.2 -4.9 -9.45 -4.7 -9.8 -4.55 -10.15 -4.55 -10.2 -4.75 M-8.65 -3.85 L-8.6 -3.9 -8.25 -4.1 -7.95 -4.25 -7.6 -4.35 -7.45 -4.3 -7.6 -4.05 -7.8 -3.85 -7.95 -3.75 -8.2 -3.7 -8.6 -3.65 -8.65 -3.85 M-0.65 -11.0 L-0.5 -10.95 -0.6 -10.7 -0.85 -10.5 -1.2 -10.4 -1.5 -10.4 -1.55 -10.55 -1.25 -10.75 -0.9 -10.95 -0.65 -11.0 M-1.5 -10.85 L-1.9 -10.7 -2.2 -10.7 Q-2.45 -10.85 -2.25 -10.95 L-2.0 -11.1 -1.6 -11.2 -1.35 -11.3 -1.15 -11.2 -1.3 -11.05 -1.5 -10.85 M-4.3 -9.95 L-4.2 -9.95 -4.3 -9.7 -4.55 -9.55 -4.9 -9.4 -5.25 -9.4 Q-5.45 -9.5 -5.25 -9.6 L-5.0 -9.8 -4.6 -9.95 -4.3 -9.95 M-3.9 -9.6 L-3.65 -9.65 -3.55 -9.6 -3.6 -9.4 -3.9 -9.2 -4.2 -9.05 -4.55 -9.05 -4.5 -9.25 -4.3 -9.45 -3.9 -9.6 M-3.05 -8.85 L-3.4 -8.7 -3.75 -8.7 Q-3.95 -8.85 -3.75 -8.9 L-3.5 -9.05 -3.1 -9.25 -2.8 -9.3 -2.7 -9.25 -2.85 -9.05 -3.05 -8.85 M-4.0 -8.65 L-3.95 -8.6 -4.05 -8.4 -4.25 -8.2 -4.65 -8.05 -4.95 -8.05 Q-5.15 -8.2 -5.0 -8.3 L-4.7 -8.45 -4.35 -8.6 -4.0 -8.65 M-5.05 -8.55 L-5.4 -8.4 -5.75 -8.4 -5.7 -8.6 -5.45 -8.75 -5.1 -8.95 -4.8 -9.0 -4.7 -8.9 -4.75 -8.75 -5.05 -8.55 M-5.5 -9.3 L-5.4 -9.25 -5.45 -9.05 -5.7 -8.85 -6.1 -8.7 -6.45 -8.7 -6.4 -8.9 -6.2 -9.1 -5.75 -9.3 -5.5 -9.3 M-7.85 -7.95 L-7.75 -7.95 -7.9 -7.7 -8.15 -7.55 -8.45 -7.35 -8.85 -7.35 -8.85 -7.6 -8.55 -7.75 -8.15 -7.95 -7.85 -7.95 M-8.0 -7.2 L-7.75 -7.35 -7.35 -7.55 -7.1 -7.6 -6.95 -7.55 -7.05 -7.35 -7.3 -7.15 Q-7.45 -7.1 -7.65 -7.0 L-8.0 -7.0 Q-8.2 -7.15 -8.0 -7.2 M-6.55 -7.2 L-6.25 -7.25 -6.15 -7.2 -6.3 -6.95 -6.55 -6.75 Q-6.65 -6.7 -6.85 -6.6 L-7.25 -6.6 -7.2 -6.85 -6.95 -7.05 -6.55 -7.2 M-8.5 -4.7 L-8.4 -4.65 -8.5 -4.4 -8.75 -4.2 -9.15 -4.05 -9.5 -4.05 Q-9.7 -4.25 -9.5 -4.3 L-9.25 -4.45 -8.85 -4.65 -8.5 -4.7 M-3.75 -5.8 L-4.05 -5.6 Q-4.15 -5.55 -4.35 -5.45 L-4.75 -5.45 -4.7 -5.6 -4.5 -5.85 -4.05 -6.0 -3.8 -6.05 -3.7 -6.0 -3.75 -5.8 M-7.15 7.2 L-7.3 7.5 -7.55 7.7 -7.95 7.95 -8.35 7.95 -8.4 7.6 -8.0 7.35 -7.6 7.15 -7.2 7.1 -7.15 7.2 M-6.65 8.05 L-6.95 8.35 -7.4 8.55 -7.8 8.55 Q-8.0 8.3 -7.75 8.2 -7.7 8.05 -7.45 8.0 L-7.05 7.75 -6.7 7.7 -6.55 7.75 -6.65 8.05 M-6.45 8.35 L-6.0 8.2 -5.9 8.35 Q-5.8 8.45 -6.05 8.6 L-6.25 8.85 -6.75 9.05 -7.2 9.1 Q-7.35 8.9 -7.1 8.8 L-6.8 8.55 -6.45 8.35 M-5.25 9.15 L-5.6 9.4 -5.9 9.6 -6.35 9.6 -6.4 9.35 -6.1 9.05 -5.65 8.9 -5.25 8.8 -5.15 8.85 -5.25 9.15 M-5.25 9.75 L-4.95 9.45 -4.5 9.25 -4.1 9.2 Q-4.05 9.15 -4.0 9.25 L-4.2 9.6 -4.45 9.8 -4.85 10.05 -5.25 10.05 Q-5.55 9.85 -5.25 9.75" fill="#6b6b36" fill-rule="evenodd" stroke="none"/>
      <path d="M-0.5 -8.3 L0.1 -8.0 Q1.15 -7.55 1.35 -6.75 1.45 -5.95 0.5 -5.35 -0.45 -4.85 -2.0 -4.75 -3.55 -4.7 -4.65 -5.25 L-5.45 -5.8 -5.25 -5.8 -4.8 -6.0 -4.6 -6.15 -4.5 -6.4 -4.6 -6.4 -4.95 -6.4 -5.3 -6.25 -5.6 -6.0 -5.65 -6.0 -5.8 -6.4 -5.5 -6.6 -5.45 -6.85 -5.55 -6.9 -5.8 -6.85 -5.85 -6.85 Q-5.75 -7.45 -4.9 -7.85 -4.2 -8.3 -3.1 -8.4 L-2.75 -8.4 -2.5 -8.5 -2.1 -8.5 -2.1 -8.45 -2.35 -8.3 -2.45 -8.05 -2.0 -8.1 -1.7 -8.25 -1.45 -8.4 -1.4 -8.45 -0.8 -8.3 -0.85 -8.3 -1.3 -8.1 -1.5 -7.9 -1.55 -7.7 -1.2 -7.7 -0.85 -7.85 -0.6 -8.0 -0.5 -8.3 M-7.95 -3.75 Q-6.05 -3.5 -4.35 -2.7 -2.0 -1.5 -1.5 0.15 -1.1 1.8 -2.95 3.05 -4.9 4.25 -8.05 4.2 -11.25 4.15 -13.65 2.9 -16.05 1.6 -16.3 -0.1 -16.55 -1.75 -14.55 -2.85 -12.7 -3.95 -9.7 -3.9 L-8.65 -3.85 -8.6 -3.65 -8.2 -3.7 -7.95 -3.75 M-3.75 -5.8 L-3.7 -6.0 -3.8 -6.05 -4.05 -6.0 -4.5 -5.85 -4.7 -5.6 -4.75 -5.45 -4.35 -5.45 Q-4.15 -5.55 -4.05 -5.6 L-3.75 -5.8" fill="#bcd2ac" fill-rule="evenodd" stroke="none"/>
      <path d="M-1.9 13.6 L26.55 -6.35 26.6 -6.15 Q26.4 -6.0 26.85 -5.9 L26.65 -5.8 7.55 7.75 -1.7 14.2 -1.25 14.15 -4.05 16.2 -10.3 11.55 Q-6.4 13.8 -3.15 14.5 L-1.9 13.6" fill="#ecdfac" fill-rule="evenodd" stroke="none"/>
      <path d="M-1.6 13.05 L-1.9 13.6 -3.15 14.5 Q-6.4 13.8 -10.3 11.55 L-14.3 8.45 Q-20.3 3.7 -24.0 2.2 -27.05 1.0 -26.8 0.45 L-26.65 0.2 Q-18.5 2.85 -10.3 9.25 -7.25 11.85 -2.4 13.6 L-1.6 13.05" fill="#dec976" fill-rule="evenodd" stroke="none"/>
      <path d="M-26.65 0.2 L3.25 -16.2 Q8.7 -14.95 19.0 -9.7 22.15 -7.9 26.55 -6.65 L-1.6 13.05 M26.65 -5.8 L7.55 7.75 -1.25 14.15 -4.05 16.2 -10.3 11.55 -14.3 8.45 Q-20.3 3.7 -24.0 2.2 -27.05 1.0 -26.8 0.45 L-26.65 0.2 Q-18.5 2.85 -10.3 9.25 -7.25 11.85 -2.4 13.6 L-1.6 13.05" fill="none" stroke="#666633" stroke-linecap="round" stroke-linejoin="round" stroke-width="0.5"/>
      <path d="M2.25 -12.75 L1.85 -14.55 0.4 -13.6 0.05 -13.7 2.55 -15.3 2.65 -15.2 3.25 -13.6 4.55 -14.45 Q4.65 -14.4 4.85 -14.3 L2.35 -12.7 2.25 -12.75 M5.15 -13.05 L5.8 -12.75 5.5 -12.55 4.85 -12.9 4.0 -12.35 4.95 -11.85 4.65 -11.65 3.0 -12.45 5.45 -14.05 7.15 -13.25 6.95 -13.15 5.95 -13.6 5.15 -13.05 M8.35 -12.65 L6.2 -11.25 6.45 -11.1 6.75 -11.0 7.1 -11.1 8.95 -12.35 9.5 -12.0 7.35 -10.6 7.65 -10.5 7.95 -10.35 8.25 -10.45 10.15 -11.65 10.65 -11.35 9.15 -10.4 Q8.8 -10.05 8.25 -10.05 L7.25 -10.25 6.45 -10.7 6.6 -10.8 5.95 -10.95 5.2 -11.35 7.7 -13.0 8.35 -12.65 M9.5 -9.55 Q9.4 -9.55 9.45 -9.3 L9.6 -9.15 9.85 -9.1 10.15 -9.15 10.25 -9.35 10.3 -10.15 10.6 -10.55 10.75 -10.6 Q10.95 -10.85 11.25 -10.75 L11.75 -10.55 12.05 -10.4 Q12.55 -10.1 12.1 -9.7 L11.8 -9.9 Q12.0 -10.15 11.8 -10.2 11.75 -10.45 11.55 -10.3 L11.25 -10.2 11.15 -10.05 11.0 -9.25 10.8 -8.85 10.7 -8.8 10.1 -8.65 9.55 -8.8 Q9.35 -8.9 9.25 -8.95 L9.05 -9.35 9.35 -9.75 9.55 -9.55 9.5 -9.55 M15.75 -8.1 L13.25 -6.5 Q12.9 -6.7 12.7 -6.85 L15.2 -8.45 15.75 -8.1 M16.7 -7.55 L16.75 -6.1 19.15 -6.1 19.55 -5.95 17.0 -4.3 16.3 -4.65 Q17.2 -5.2 17.95 -5.7 L15.9 -5.6 15.85 -6.85 14.3 -5.85 13.95 -6.0 16.5 -7.6 16.7 -7.55 M10.85 -7.9 L13.1 -9.35 12.6 -9.65 12.85 -9.85 14.55 -8.75 14.3 -8.6 13.75 -8.95 11.45 -7.55 10.85 -7.9 M19.25 -3.25 L17.6 -4.05 20.15 -5.65 21.75 -4.85 21.5 -4.7 20.55 -5.25 19.75 -4.75 20.35 -4.4 20.05 -4.2 19.45 -4.55 18.6 -4.0 19.55 -3.45 19.25 -3.25" fill="#d5d5aa" fill-rule="evenodd" stroke="none"/>
    </g>
  </defs>
</svg>
