<?xml version="1.0" encoding="UTF-8" standalone="no"?>
<svg xmlns:xlink="http://www.w3.org/1999/xlink" height="51.25px" width="75.35px" xmlns="http://www.w3.org/2000/svg">
  <g transform="matrix(1.0, 0.0, 0.0, 1.0, 32.85, 25.6)">
    <use height="51.25" transform="matrix(1.0, 0.0, 0.0, 1.0, -32.85, -25.6)" width="75.35" xlink:href="#shape0"/>
  </g>
  <defs>
    <g id="shape0" transform="matrix(1.0, 0.0, 0.0, 1.0, 32.85, 25.6)">
      <path d="M10.2 -25.35 L10.3 -25.35 11.8 -16.45 9.0 -17.05 10.2 -25.35" fill="#000000" fill-rule="evenodd" stroke="none"/>
      <path d="M37.2 8.15 L34.5 14.6 26.7 17.45 37.2 8.15" fill="#a17153" fill-rule="evenodd" stroke="none"/>
      <path d="M-31.15 5.1 L-32.6 0.85 -2.0 6.2 -0.1 10.65 -27.05 5.85 -31.15 5.1" fill="#9d6b4b" fill-rule="evenodd" stroke="none"/>
      <path d="M9.0 -17.05 L11.8 -16.45 -0.1 -14.55 -32.45 -21.55 -4.6 -19.95 9.0 -17.05" fill="#b6927c" fill-rule="evenodd" stroke="none"/>
      <path d="M10.3 -25.35 L11.2 -25.2 39.0 -20.7 11.8 -16.45 10.3 -25.35" fill="url(#gradient0)" fill-rule="evenodd" stroke="none"/>
      <path d="M10.25 -25.35 L10.2 -25.35 9.0 -17.05 -4.6 -19.95 -32.45 -21.55 -32.6 -21.55 10.25 -25.35" fill="url(#gradient1)" fill-rule="evenodd" stroke="none"/>
      <path d="M39.0 -20.7 L42.25 -4.5 38.15 -3.8 12.7 0.6 2.65 -3.5 -0.1 -14.55 11.8 -16.45 39.0 -20.7" fill="url(#gradient2)" fill-rule="evenodd" stroke="none"/>
      <path d="M38.15 -3.8 L37.2 8.15 26.7 17.45 34.5 14.6 35.25 17.05 -0.1 25.4 -0.1 10.65 -2.0 6.2 -0.1 1.4 -0.1 -14.55 2.65 -3.5 12.7 0.6 38.15 -3.8" fill="url(#gradient3)" fill-rule="evenodd" stroke="none"/>
      <path d="M-0.1 25.4 L-11.5 21.85 -13.75 20.2 -21.45 18.75 -32.6 15.3 -32.6 7.9 -26.5 6.3 -26.45 6.3 -26.65 6.1 -27.05 5.85 -0.1 10.65 -0.1 25.4 M-32.6 0.85 L-32.6 -18.3 -16.75 -9.25 -32.6 -20.8 -32.6 -21.55 -32.45 -21.55 -0.1 -14.55 -0.1 1.4 -2.0 6.2 -32.6 0.85 M-32.6 -21.55 L-32.45 -21.55 -32.6 -21.55" fill="url(#gradient4)" fill-rule="evenodd" stroke="none"/>
      <path d="M-32.6 7.9 L-31.15 5.1 -27.05 5.85 -26.65 6.1 -26.45 6.3 -26.5 6.3 -32.6 7.9 M-32.6 -18.3 L-32.6 -20.8 -16.75 -9.25 -32.6 -18.3" fill="url(#gradient5)" fill-rule="evenodd" stroke="none"/>
      <path d="M11.2 -25.2 L10.25 -25.35 10.2 -25.35 10.3 -25.35 11.2 -25.2 39.0 -20.7 42.25 -4.5 38.15 -3.8 37.2 8.15 34.5 14.6 35.25 17.05 -0.1 25.4 -11.5 21.85 -13.75 20.2 -21.45 18.75 -32.6 15.3 -32.6 7.9 -31.15 5.1 -32.6 0.85 -32.6 -18.3 -32.6 -20.8 -32.6 -21.55 10.25 -25.35 M11.8 -16.45 L9.0 -17.05 -4.6 -19.95 -32.45 -21.55 -0.1 -14.55 11.8 -16.45 10.3 -25.35 M11.8 -16.45 L39.0 -20.7 M10.2 -25.35 L9.0 -17.05 M38.15 -3.8 L12.7 0.6 2.65 -3.5 -0.1 -14.55 -0.1 1.4 -2.0 6.2 -0.1 10.65 -0.1 25.4 M-32.6 -21.55 L-32.45 -21.55 -32.6 -21.55" fill="none" stroke="#513f15" stroke-linecap="round" stroke-linejoin="round" stroke-width="0.5"/>
      <path d="M-25.75 -11.25 L-6.1 -5.45 -7.95 5.1 -7.95 8.75 -27.4 3.35 -29.15 1.35 -25.75 -11.25 M-9.85 6.2 L-19.75 3.5 -9.85 6.2 M-9.9 4.75 L-19.55 2.05 -9.9 4.75 M-9.95 3.3 L-19.25 0.6 -9.95 3.3 M-16.9 -5.4 L-25.45 -7.9 -16.9 -5.4 M-16.95 -3.75 L-25.9 -6.35 -16.95 -3.75 M-16.05 -6.65 L-25.15 -9.3 -16.05 -6.65" fill="url(#gradient6)" fill-rule="evenodd" stroke="none"/>
      <path d="M-25.15 -9.3 L-16.05 -6.65 M-25.9 -6.35 L-16.95 -3.75 M-25.45 -7.9 L-16.9 -5.4 M-19.25 0.6 L-9.95 3.3 M-19.55 2.05 L-9.9 4.75 M-19.75 3.5 L-9.85 6.2" fill="none" stroke="#000000" stroke-linecap="round" stroke-linejoin="round" stroke-opacity="0.23137255" stroke-width="0.5"/>
    </g>
    <linearGradient gradientTransform="matrix(0.0, 0.0019, -0.0175, 0.0, 24.65, -21.05)" gradientUnits="userSpaceOnUse" id="gradient0" spreadMethod="pad" x1="-819.2" x2="819.2">
      <stop offset="0.0" stop-color="#a37858"/>
      <stop offset="1.0" stop-color="#9d6a4b"/>
    </linearGradient>
    <linearGradient gradientTransform="matrix(0.0, 0.0021, -0.0262, 0.0, -11.15, -19.25)" gradientUnits="userSpaceOnUse" id="gradient1" spreadMethod="pad" x1="-819.2" x2="819.2">
      <stop offset="0.0" stop-color="#a37858"/>
      <stop offset="1.0" stop-color="#9d6a4b"/>
    </linearGradient>
    <linearGradient gradientTransform="matrix(0.0077, 0.0227, -0.03, 0.0063, 20.05, 1.1)" gradientUnits="userSpaceOnUse" id="gradient2" spreadMethod="pad" x1="-819.2" x2="819.2">
      <stop offset="0.0" stop-color="#b99782"/>
      <stop offset="1.0" stop-color="#9d6a4b"/>
    </linearGradient>
    <linearGradient gradientTransform="matrix(-0.0028, -0.008, 0.0275, -0.0058, 17.25, 11.45)" gradientUnits="userSpaceOnUse" id="gradient3" spreadMethod="pad" x1="-819.2" x2="819.2">
      <stop offset="0.0" stop-color="#b99782"/>
      <stop offset="1.0" stop-color="#9d6a4b"/>
    </linearGradient>
    <linearGradient gradientTransform="matrix(0.0, 0.0162, -0.0199, 0.0, -16.1, 8.6)" gradientUnits="userSpaceOnUse" id="gradient4" spreadMethod="pad" x1="-819.2" x2="819.2">
      <stop offset="0.0" stop-color="#a37858"/>
      <stop offset="1.0" stop-color="#9d6a4b"/>
    </linearGradient>
    <linearGradient gradientTransform="matrix(-1.3859, 0.0, 0.0, 0.9672, 592.4, -219.5)" gradientUnits="userSpaceOnUse" id="gradient5" spreadMethod="pad" x1="-819.2" x2="819.2">
      <stop offset="0.0" stop-color="#b99782"/>
      <stop offset="1.0" stop-color="#9d6a4b"/>
    </linearGradient>
    <linearGradient gradientTransform="matrix(0.012, 0.0035, -0.0021, 0.0087, -17.7, -1.3)" gradientUnits="userSpaceOnUse" id="gradient6" spreadMethod="pad" x1="-819.2" x2="819.2">
      <stop offset="0.0" stop-color="#f0e9df" stop-opacity="0.5921569"/>
      <stop offset="1.0" stop-color="#e3d6c5" stop-opacity="0.62352943"/>
    </linearGradient>
  </defs>
</svg>
