<?xml version="1.0" encoding="UTF-8" standalone="no"?>
<svg xmlns:xlink="http://www.w3.org/1999/xlink" height="38.45px" width="66.8px" xmlns="http://www.w3.org/2000/svg">
  <g transform="matrix(1.0, 0.0, 0.0, 1.0, 33.4, 19.2)">
    <use height="38.45" transform="matrix(1.0, 0.0, 0.0, 1.0, -33.4, -19.2)" width="66.8" xlink:href="#shape0"/>
  </g>
  <defs>
    <g id="shape0" transform="matrix(1.0, 0.0, 0.0, 1.0, 33.4, 19.2)">
      <path d="M-30.95 -4.0 L-33.15 -8.2 Q-27.95 -5.65 -14.25 -8.95 -7.35 -10.65 1.75 -13.8 8.05 -16.05 15.35 -18.95 L30.2 -11.85 Q35.05 -8.75 31.95 -4.8 L-19.75 18.85 Q-19.55 18.35 -19.85 16.2 L-22.5 11.0 Q-24.85 6.15 -30.95 -4.0" fill="url(#gradient0)" fill-rule="evenodd" stroke="none"/>
      <path d="M-31.8 -0.8 L-32.0 -1.15 -31.0 -1.15 -20.65 16.9 -20.8 17.65 -31.8 -0.8 M-31.1 -2.6 L-31.8 -3.8 -30.95 -4.0 Q-24.85 6.15 -22.5 11.0 L-19.85 16.2 -20.55 16.2 -31.1 -2.6" fill="#b58b64" fill-rule="evenodd" stroke="none"/>
      <path d="M-19.75 18.85 Q-19.95 19.25 -21.05 18.4 L-33.15 -0.85 -31.8 -0.8 -20.8 17.65 -20.65 16.9 -20.55 16.2 -19.85 16.2 Q-19.55 18.35 -19.75 18.85" fill="#dbc8b5" fill-rule="evenodd" stroke="none"/>
      <path d="M-31.0 -1.15 L-31.85 -2.6 -31.1 -2.6 -20.55 16.2 -20.65 16.9 -31.0 -1.15" fill="#7e5c3d" fill-rule="evenodd" stroke="none"/>
      <path d="M-30.95 -4.0 L-33.15 -8.2 Q-27.95 -5.65 -14.25 -8.95 -7.35 -10.65 1.75 -13.8 8.05 -16.05 15.35 -18.95 L30.2 -11.85 Q35.05 -8.75 31.95 -4.8 L-19.75 18.85 Q-19.95 19.25 -21.05 18.4 L-33.15 -0.85 -31.8 -0.8 -32.0 -1.15 -31.0 -1.15 -31.85 -2.6 -31.1 -2.6 -31.8 -3.8 -30.95 -4.0 Q-24.85 6.15 -22.5 11.0 L-19.85 16.2 Q-19.55 18.35 -19.75 18.85 M-20.55 16.2 L-20.65 16.9 -20.8 17.65 -31.8 -0.8 M-20.65 16.9 L-31.0 -1.15 M-20.55 16.2 L-31.1 -2.6" fill="none" stroke="#c4a27f" stroke-linecap="round" stroke-linejoin="round" stroke-width="0.5"/>
      <path d="M10.85 -13.45 L11.9 -13.8 13.4 -11.45 14.65 -11.9 15.05 -11.25 12.85 -10.35 10.85 -13.45 M9.65 -13.0 L12.55 -10.25 11.55 -9.85 11.05 -10.3 10.15 -10.05 10.4 -9.35 9.3 -8.95 8.25 -12.55 9.65 -13.0 M10.0 -10.7 L10.5 -10.9 9.45 -12.1 9.4 -12.1 10.0 -10.7 M0.8 -8.8 L0.5 -8.95 0.2 -8.9 Q0.0 -8.95 0.0 -8.8 L0.0 -8.6 0.25 -8.1 0.6 -7.55 1.05 -7.0 1.3 -6.7 1.55 -6.6 1.8 -6.55 Q1.9 -6.8 2.05 -6.75 L2.05 -7.0 1.85 -7.3 1.45 -7.95 1.1 -8.5 0.8 -8.8 M0.75 -9.7 L1.45 -9.6 Q1.8 -9.55 2.2 -9.15 L2.8 -8.4 3.15 -7.65 3.25 -6.95 3.05 -6.45 2.25 -6.05 1.35 -5.85 0.65 -5.9 -0.1 -6.3 -0.75 -7.05 -1.3 -7.9 -1.4 -8.55 Q-1.4 -9.0 -1.05 -9.1 L-0.2 -9.45 0.75 -9.7 M4.8 -10.0 Q4.65 -10.35 4.5 -10.2 L4.1 -10.15 3.85 -10.1 4.35 -9.35 4.6 -9.45 4.9 -9.7 4.8 -10.0 M5.85 -11.6 L7.15 -12.05 9.2 -8.9 8.05 -8.45 5.85 -11.6 M5.2 -11.1 Q5.4 -11.2 5.65 -10.9 L5.85 -10.55 6.1 -10.05 5.7 -9.5 6.4 -9.55 6.9 -9.05 7.1 -8.75 7.15 -8.6 7.25 -8.55 7.45 -8.35 7.55 -8.35 7.65 -8.35 7.7 -8.25 6.4 -7.75 6.25 -7.85 6.1 -8.1 5.95 -8.2 5.85 -8.3 5.8 -8.55 5.6 -8.85 5.45 -8.95 5.25 -8.95 Q5.05 -9.0 5.1 -8.85 L4.7 -8.8 5.65 -7.45 4.4 -6.95 2.1 -10.25 4.1 -11.0 4.7 -11.15 5.2 -11.1 M-7.55 -3.15 L-7.25 -3.3 -7.25 -3.7 -7.4 -4.05 -7.8 -4.75 -8.3 -5.4 -8.65 -5.8 -9.0 -5.95 Q-9.25 -6.15 -9.35 -5.85 L-9.65 -5.75 -7.9 -3.1 -7.55 -3.15 M-7.15 -7.45 L-5.75 -7.75 -3.45 -3.8 -4.65 -3.3 -7.15 -7.45 M-9.5 -6.8 L-8.3 -6.95 -7.45 -6.5 -6.9 -6.0 -6.45 -5.15 -6.0 -4.35 -5.8 -3.7 -6.0 -3.1 Q-6.3 -2.9 -6.85 -2.6 L-9.0 -1.85 -12.0 -6.15 -9.5 -6.8 M-3.35 -8.4 L-3.35 -8.35 -2.25 -8.75 -1.65 -7.95 -2.7 -7.55 -0.7 -4.9 -2.15 -4.35 -3.35 -5.9 -4.05 -7.15 -4.95 -6.85 -5.55 -7.85 -3.35 -8.4 M-12.45 -1.65 L-10.2 -2.5 -9.6 -1.6 -13.75 0.0 -17.35 -4.85 -12.7 -6.05 -12.1 -5.05 -14.45 -4.35 -13.8 -3.55 -11.7 -4.25 -11.0 -3.4 -13.15 -2.55 -12.45 -1.65" fill="#2b2b2b" fill-opacity="0.75686276" fill-rule="evenodd" stroke="none"/>
      <path d="M29.85 -3.9 L11.2 4.8 Q12.05 2.6 9.65 0.8 L29.1 -7.65 Q31.05 -5.7 29.85 -3.9" fill="#000000" fill-opacity="0.23137255" fill-rule="evenodd" stroke="none"/>
      <path d="M5.25 -2.45 L15.25 -6.6 M6.25 -1.8 L16.05 -5.9 M7.2 -0.95 L17.25 -5.25 M29.85 -3.9 L11.2 4.8 Q12.05 2.6 9.65 0.8 L29.1 -7.65 Q31.05 -5.7 29.85 -3.9 M19.85 -5.15 L28.05 -8.75 M16.85 -7.3 L25.25 -10.8 M17.95 -6.7 L26.15 -10.15 M19.05 -6.0 L27.2 -9.45 M8.0 0.0 L18.35 -4.5 M-19.7 7.9 L-9.55 3.7 M-19.2 8.85 L-9.05 4.6 M-18.35 9.85 L-7.9 5.45 M-17.05 12.05 L-6.35 7.5 M-17.55 11.15 L-6.9 6.5 M-16.5 13.45 L-5.9 8.8 M-16.1 14.9 L-5.8 10.35 M-15.8 16.4 L-6.2 12.15 M-4.75 8.3 L7.95 2.7 M-4.5 9.75 L8.2 4.15 M-4.45 11.35 L8.25 5.65 M-7.4 3.9 L4.75 -1.2 M-8.3 3.15 L4.1 -2.0 M-5.7 6.0 L6.55 0.65 M-6.5 4.85 L5.6 -0.3 M-5.2 7.0 L7.4 1.6" fill="none" stroke="#5a5856" stroke-linecap="round" stroke-linejoin="round" stroke-opacity="0.49803922" stroke-width="0.5"/>
      <path d="M-28.9 -5.5 L-20.25 -5.95 Q-14.4 -6.65 -4.65 -9.75 5.05 -12.9 15.65 -17.5 M-28.0 -4.45 L-19.35 -5.25 Q-13.5 -5.95 -3.75 -9.05 5.95 -12.2 16.55 -16.8 M22.9 -13.65 Q-3.9 -1.5 -23.75 3.85" fill="none" stroke="#5a5856" stroke-linecap="round" stroke-linejoin="round" stroke-width="0.5"/>
    </g>
    <linearGradient gradientTransform="matrix(-0.0029, 0.0, 0.0, -0.0231, -20.65, -0.05)" gradientUnits="userSpaceOnUse" id="gradient0" spreadMethod="pad" x1="-819.2" x2="819.2">
      <stop offset="0.0" stop-color="#f0e9df"/>
      <stop offset="1.0" stop-color="#e3d6c5"/>
    </linearGradient>
  </defs>
</svg>
