<?xml version="1.0" encoding="UTF-8" standalone="no"?>
<svg xmlns:xlink="http://www.w3.org/1999/xlink" height="39.85px" width="65.05px" xmlns="http://www.w3.org/2000/svg">
  <g transform="matrix(1.0, 0.0, 0.0, 1.0, 32.5, 19.9)">
    <use height="39.85" transform="matrix(1.0, 0.0, 0.0, 1.0, -32.5, -19.9)" width="65.05" xlink:href="#shape0"/>
  </g>
  <defs>
    <g id="shape0" transform="matrix(1.0, 0.0, 0.0, 1.0, 32.5, 19.9)">
      <path d="M32.3 -10.6 L-22.7 -0.75 -32.25 -13.6 16.0 -19.65 32.3 -10.6" fill="#666666" fill-rule="evenodd" stroke="none"/>
      <path d="M31.25 -5.5 L12.3 -1.55 31.25 -5.5 30.65 5.3 -21.05 19.7 -20.9 8.25 12.3 -1.55 -20.9 5.4 -22.7 5.75 -22.7 -0.75 32.3 -10.6 32.3 -5.75 31.25 -5.5" fill="#484848" fill-rule="evenodd" stroke="none"/>
      <path d="M-22.7 -0.75 L-22.7 5.75 -23.25 5.0 -23.85 4.25 -31.55 -6.15 -23.85 4.25 -23.25 5.0 -22.7 5.75 -20.9 8.25 -21.05 19.7 -23.55 16.05 -23.55 7.75 -29.85 -1.05 -29.85 7.8 -31.6 5.3 -31.55 -6.15 -32.25 -7.1 -32.25 -13.6 -22.7 -0.75" fill="#595959" fill-rule="evenodd" stroke="none"/>
      <path d="M-22.7 5.75 L-20.9 5.4 12.3 -1.55 -20.9 8.25 -22.7 5.75 M-20.9 5.4 L-20.9 8.25 -20.9 5.4" fill="#3c3c3c" fill-rule="evenodd" stroke="none"/>
      <path d="M-23.55 16.05 L-29.85 7.8 -29.85 -1.05 -23.55 7.75 -23.55 16.05" fill="#7b7b7b" fill-rule="evenodd" stroke="none"/>
      <path d="M12.3 -1.55 L31.25 -5.5 32.3 -5.75 32.3 -10.6 -22.7 -0.75 -22.7 5.75 -20.9 5.4 12.3 -1.55 M-20.9 8.25 L-21.05 19.7 30.65 5.3 31.25 -5.5 M32.3 -10.6 L16.0 -19.65 -32.25 -13.6 -22.7 -0.75 M-32.25 -13.6 L-32.25 -7.1 -31.55 -6.15 -23.85 4.25 -23.25 5.0 -22.7 5.75 M-20.9 8.25 L-20.9 5.4 M-23.55 16.05 L-21.05 19.7 M-23.55 16.05 L-29.85 7.8 -31.6 5.3 -31.55 -6.15" fill="none" stroke="#333333" stroke-linecap="round" stroke-linejoin="round" stroke-width="0.5"/>
    </g>
  </defs>
</svg>
