<?xml version="1.0" encoding="UTF-8" standalone="no"?>
<svg xmlns:xlink="http://www.w3.org/1999/xlink" height="62.1px" width="39.0px" xmlns="http://www.w3.org/2000/svg">
  <g transform="matrix(1.0, 0.0, 0.0, 1.0, 19.5, 31.05)">
    <use height="62.1" transform="matrix(1.0, 0.0, 0.0, 1.0, -19.5, -31.05)" width="39.0" xlink:href="#shape0"/>
  </g>
  <defs>
    <g id="shape0" transform="matrix(1.0, 0.0, 0.0, 1.0, 19.5, 31.05)">
      <path d="M-9.4 -28.4 L-9.4 -30.8 17.2 -28.75 17.25 -25.55 11.85 -24.2 11.85 -18.7 11.15 -18.45 9.8 -25.3 -3.5 -27.4 -3.85 -28.85 -8.7 -29.5 -8.75 -28.25 -9.4 -28.4" fill="url(#gradient0)" fill-rule="evenodd" stroke="none"/>
      <path d="M17.25 -25.55 L19.25 -26.0 18.35 -21.05 11.85 -18.7 11.85 -24.2 17.25 -25.55 M12.4 -12.7 L16.45 -13.95 13.35 24.0 10.1 26.6 12.4 -12.7" fill="#e1d9de" fill-rule="evenodd" stroke="none"/>
      <path d="M18.35 -21.05 L14.75 25.6 8.35 30.8 Q-4.45 25.2 -17.25 19.55 L-17.25 1.85 9.55 8.95 11.15 -18.45 11.85 -18.7 18.35 -21.05 M-17.25 -24.45 L-19.25 -29.95 -17.0 -29.6 -10.05 -28.5 -9.4 -28.4 -8.75 -28.25 -8.7 -29.5 -3.85 -28.85 -3.5 -27.4 9.8 -25.3 11.15 -18.45 -17.25 -24.45 M12.4 -12.7 L10.1 26.6 13.35 24.0 16.45 -13.95 12.4 -12.7 M8.35 30.8 L9.55 8.95 8.35 30.8" fill="#660066" fill-rule="evenodd" stroke="none"/>
      <path d="M-17.0 -29.6 L-10.7 -29.75 -10.05 -28.5 -17.0 -29.6" fill="url(#gradient1)" fill-rule="evenodd" stroke="none"/>
      <path d="M-17.25 1.85 L-17.25 -24.45 11.15 -18.45 9.55 8.95 -17.25 1.85" fill="url(#gradient2)" fill-rule="evenodd" stroke="none"/>
      <path d="M-9.4 -28.4 L-9.4 -30.8 17.2 -28.75 17.25 -25.55 19.25 -26.0 18.35 -21.05 14.75 25.6 8.35 30.8 Q-4.45 25.2 -17.25 19.55 L-17.25 1.85 -17.25 -24.45 -19.25 -29.95 -17.0 -29.6 -10.7 -29.75 -10.05 -28.5 -9.4 -28.4 -8.75 -28.25 -8.7 -29.5 -3.85 -28.85 -3.5 -27.4 9.8 -25.3 11.15 -18.45 11.85 -18.7 11.85 -24.2 17.25 -25.55 M11.85 -18.7 L18.35 -21.05 M9.55 8.95 L8.35 30.8 M11.15 -18.45 L9.55 8.95 -17.25 1.85 M-17.0 -29.6 L-10.05 -28.5 M11.15 -18.45 L-17.25 -24.45" fill="none" stroke="#824a6c" stroke-linecap="round" stroke-linejoin="round" stroke-width="0.5"/>
      <path d="M4.45 -13.5 L4.9 -12.45 Q4.9 -11.85 4.45 -11.4 4.05 -11.0 3.5 -11.0 2.95 -11.0 2.55 -11.4 2.15 -11.85 2.15 -12.45 2.15 -13.05 2.55 -13.5 2.95 -13.9 3.5 -13.9 4.05 -13.9 4.45 -13.5 M3.05 -3.25 Q3.05 -3.8 3.45 -4.2 3.8 -4.6 4.35 -4.6 4.9 -4.6 5.3 -4.2 L5.65 -3.25 Q5.65 -2.7 5.3 -2.25 4.9 -1.85 4.35 -1.85 3.8 -1.85 3.45 -2.25 3.05 -2.7 3.05 -3.25 M0.75 -8.45 Q0.75 -7.75 0.35 -7.3 -0.15 -6.9 -0.85 -6.9 -1.5 -6.9 -1.95 -7.3 -2.4 -7.75 -2.4 -8.45 -2.4 -9.15 -1.95 -9.55 -1.5 -10.05 -0.85 -10.05 -0.15 -10.05 0.35 -9.55 0.75 -9.15 0.75 -8.45 M1.85 -7.35 L2.05 -8.4 2.4 -8.8 2.8 -8.4 2.95 -7.35 2.8 -6.35 2.4 -5.9 Q2.2 -5.9 2.05 -6.35 L1.85 -7.35 M8.25 -7.55 Q8.25 -8.2 8.4 -8.6 L8.75 -9.0 9.1 -8.6 9.2 -7.55 9.1 -6.55 8.75 -6.1 Q8.55 -6.1 8.4 -6.55 8.25 -6.95 8.25 -7.55 M6.0 -8.8 L6.1 -7.75 6.0 -6.65 5.55 -6.25 5.25 -6.65 Q5.0 -7.15 5.0 -7.75 5.0 -8.4 5.25 -8.8 5.35 -9.3 5.55 -9.3 L6.0 -8.8 M7.9 -15.4 Q8.05 -15.8 8.25 -15.8 L8.65 -15.4 8.8 -14.35 8.65 -13.35 8.25 -12.95 Q8.05 -12.95 7.9 -13.35 L7.7 -14.35 7.9 -15.4 M0.05 -3.5 Q0.5 -3.9 1.05 -3.9 1.6 -3.9 2.0 -3.5 2.4 -3.1 2.4 -2.5 2.4 -1.85 2.0 -1.45 1.6 -1.05 1.05 -1.05 0.5 -1.05 0.05 -1.45 -0.35 -1.85 -0.35 -2.5 -0.35 -3.1 0.05 -3.5 M3.1 8.1 Q3.5 8.55 3.5 9.1 3.5 9.65 3.1 10.05 2.7 10.45 2.15 10.45 1.6 10.45 1.15 10.05 0.75 9.65 0.75 9.1 0.75 8.55 1.15 8.1 1.6 7.7 2.15 7.7 2.7 7.7 3.1 8.1 M0.75 3.45 Q1.15 3.85 1.15 4.4 1.15 4.95 0.75 5.35 0.35 5.8 -0.2 5.8 L-1.15 5.35 -1.6 4.4 Q-1.6 3.85 -1.15 3.45 -0.75 3.05 -0.2 3.05 0.35 3.05 0.75 3.45 M2.15 0.3 Q2.5 0.7 2.5 1.25 L2.15 2.2 Q1.7 2.6 1.15 2.6 0.6 2.6 0.3 2.2 -0.15 1.8 -0.15 1.25 -0.15 0.7 0.3 0.3 L1.15 -0.15 Q1.7 -0.15 2.15 0.3 M3.5 1.85 Q3.65 1.4 3.85 1.4 L4.25 1.85 4.4 2.9 4.25 4.0 3.85 4.4 3.5 4.0 3.3 2.9 3.5 1.85 M6.0 -0.9 Q6.1 -1.4 6.35 -1.4 L6.75 -0.9 6.9 0.15 6.75 1.25 6.35 1.65 Q6.1 1.65 6.0 1.25 L5.8 0.15 6.0 -0.9 M1.1 10.95 Q1.25 10.45 1.5 10.45 L2.0 10.95 2.15 12.05 2.0 13.2 1.5 13.6 Q1.25 13.6 1.1 13.2 L0.9 12.05 1.1 10.95 M-6.8 7.5 L-6.55 7.0 -6.35 7.1 -6.2 7.35 -6.1 7.85 -6.05 8.1 -6.35 9.85 -6.45 9.65 -6.8 7.5 M-3.9 9.9 L-3.45 8.1 Q-3.3 8.05 -3.1 8.65 -2.95 9.3 -2.95 10.2 L-2.9 10.85 -3.35 11.6 -3.9 9.9 M-1.6 12.05 L-1.1 10.4 Q-0.9 10.4 -0.75 11.0 -0.6 11.55 -0.6 12.45 L-0.55 13.0 -0.95 14.35 -1.3 14.25 -1.5 13.4 -1.6 12.25 -1.6 12.05 M-3.35 -1.4 Q-3.35 -2.0 -2.95 -2.4 -2.55 -2.8 -2.0 -2.8 -1.45 -2.8 -1.05 -2.4 -0.6 -2.0 -0.6 -1.4 -0.6 -0.75 -1.05 -0.35 -1.45 0.05 -2.0 0.05 -2.55 0.05 -2.95 -0.35 -3.35 -0.75 -3.35 -1.4 M-4.4 -3.65 L-4.6 -4.8 -4.4 -5.9 -4.0 -6.4 Q-3.7 -6.4 -3.5 -5.9 -3.35 -5.5 -3.35 -4.8 -3.35 -4.15 -3.5 -3.65 -3.7 -3.25 -4.0 -3.25 L-4.4 -3.65 M-2.15 -5.5 L-1.7 -6.0 -1.25 -5.5 Q-1.1 -5.1 -1.1 -4.45 -1.1 -3.85 -1.25 -3.35 L-1.7 -2.95 -2.15 -3.35 -2.35 -4.45 -2.15 -5.5 M-5.5 -0.55 L-5.1 -0.05 Q-4.95 0.35 -4.95 0.95 -4.95 1.6 -5.1 2.05 L-5.5 2.5 -5.85 2.05 -6.05 0.95 -5.85 -0.05 -5.5 -0.55 M-1.95 -12.65 L-1.7 -13.7 -1.4 -14.15 -0.95 -13.7 -0.85 -12.65 -0.95 -11.55 -1.4 -11.15 -1.7 -11.55 -1.95 -12.65 M-4.25 4.4 Q-3.7 4.4 -3.3 4.8 -2.95 5.25 -2.95 5.8 -2.95 6.35 -3.3 6.75 -3.7 7.15 -4.25 7.15 -4.8 7.15 -5.15 6.75 -5.55 6.35 -5.55 5.8 -5.55 5.25 -5.15 4.8 -4.8 4.4 -4.25 4.4 M-0.95 6.55 L-0.85 7.55 -0.95 8.65 -1.45 9.1 -1.85 8.65 -2.05 7.55 -1.85 6.55 Q-1.7 6.05 -1.45 6.05 -1.15 6.05 -0.95 6.55" fill="#86465a" fill-rule="evenodd" stroke="none"/>
      <path d="M0.15 -14.8 L0.6 -14.6 0.75 -14.05 0.6 -13.5 0.15 -13.25 Q-0.15 -13.25 -0.3 -13.5 -0.5 -13.7 -0.5 -14.05 L-0.3 -14.6 0.15 -14.8 M0.75 -5.9 L0.95 -5.25 0.75 -4.55 0.3 -4.25 Q0.0 -4.25 -0.2 -4.55 L-0.4 -5.25 -0.2 -5.9 Q0.0 -6.2 0.3 -6.2 L0.75 -5.9 M6.75 -5.45 L7.2 -5.1 7.45 -4.25 7.2 -3.45 Q7.0 -3.1 6.75 -3.1 6.45 -3.1 6.25 -3.45 L6.05 -4.25 6.25 -5.1 Q6.45 -5.45 6.75 -5.45 M0.05 8.2 L0.55 8.4 0.7 8.95 0.55 9.5 0.05 9.7 Q-0.2 9.7 -0.35 9.5 L-0.55 8.95 -0.35 8.4 0.05 8.2 M-1.95 1.4 L-2.15 2.15 -2.6 2.4 -3.1 2.15 -3.3 1.4 -3.1 0.7 Q-2.9 0.35 -2.6 0.35 -2.35 0.35 -2.15 0.7 L-1.95 1.4 M-3.25 12.25 L-2.9 12.05 -2.5 12.25 Q-2.35 12.45 -2.35 12.7 L-2.5 13.2 -2.55 13.25 -2.9 13.4 -3.25 13.2 -3.45 12.85 -3.45 12.7 -3.35 12.45 -3.25 12.25" fill="#660066" fill-rule="evenodd" stroke="none"/>
      <path d="M4.0 18.65 L4.05 18.65 -3.5 22.55 Q-10.1 20.85 -12.8 14.8 L-11.4 5.15 Q-10.5 10.05 4.0 18.65" fill="#b52020" fill-rule="evenodd" stroke="none"/>
      <path d="M-11.4 5.15 L-6.8 7.5 -6.45 9.65 -6.35 9.85 -6.05 8.1 -3.9 9.9 -3.35 11.6 -2.9 10.85 -2.9 10.8 -1.6 12.05 -1.6 12.25 -1.5 13.4 -1.3 14.25 -0.95 14.35 -0.55 13.0 4.0 18.65 Q-10.5 10.05 -11.4 5.15 M-3.25 12.25 L-3.35 12.45 -3.45 12.7 -3.45 12.85 -3.25 13.2 -2.9 13.4 -2.55 13.25 -2.5 13.2 -2.35 12.7 Q-2.35 12.45 -2.5 12.25 L-2.9 12.05 -3.25 12.25" fill="#fcf9e0" fill-rule="evenodd" stroke="none"/>
      <path d="M-13.1 -19.2 L-13.2 -19.65 -13.5 -20.1 -13.7 -20.0 -13.8 -19.7 -13.95 -19.0 -13.95 -17.95 -13.95 -16.95 -13.8 -16.2 -13.7 -15.85 -13.5 -15.65 -13.2 -15.85 -13.05 -16.65 -13.05 -17.2 -11.8 -16.85 -11.85 -15.45 -12.15 -14.55 Q-12.55 -14.0 -13.5 -14.25 L-14.25 -14.6 -14.85 -15.2 -15.2 -16.35 -15.35 -18.2 -15.2 -20.1 -14.8 -21.2 Q-14.55 -21.6 -14.15 -21.55 L-13.95 -21.65 -13.45 -21.55 -12.6 -21.15 -12.1 -20.5 -11.85 -19.45 -11.8 -18.15 -13.05 -18.5 -13.1 -19.2 M-1.7 -15.9 L-2.05 -15.8 -2.15 -15.2 -2.15 -14.95 -1.15 -14.75 -1.15 -14.95 -1.25 -15.6 Q-1.4 -15.85 -1.7 -15.9 M-9.15 -17.3 L-9.45 -17.6 -9.85 -17.45 -9.9 -16.9 -9.9 -16.65 -9.05 -16.45 -9.05 -16.75 -9.15 -17.3 M-8.65 -18.35 L-8.05 -17.75 -7.65 -16.95 -7.55 -15.75 -7.55 -15.2 -9.9 -15.75 -9.9 -15.1 -9.85 -14.5 -9.45 -14.35 -9.15 -14.4 -9.05 -15.05 -7.6 -14.75 Q-7.6 -13.8 -8.05 -13.45 L-9.45 -13.3 -10.4 -13.65 -11.05 -14.3 -11.35 -15.15 -11.45 -16.4 -11.35 -17.55 -11.0 -18.25 Q-10.8 -18.6 -10.4 -18.6 L-9.45 -18.6 -8.65 -18.35 M-7.15 -18.0 L-5.5 -17.7 -5.5 -16.85 -5.45 -16.8 Q-5.35 -17.3 -5.05 -17.45 L-4.35 -17.55 -4.05 -17.5 -4.05 -15.85 -4.3 -15.9 -4.45 -15.95 -5.15 -15.9 Q-5.5 -15.8 -5.45 -15.25 L-5.45 -12.4 -7.15 -12.85 -7.15 -18.0 M6.75 -17.0 L8.9 -16.6 8.9 -8.75 6.75 -9.35 6.75 -17.0 M3.15 -12.7 Q2.9 -12.65 2.8 -12.45 L2.75 -12.0 2.85 -11.5 3.2 -11.3 3.75 -11.4 3.85 -12.05 3.85 -12.8 3.55 -12.75 3.15 -12.7 M0.45 -15.15 L0.6 -13.85 0.6 -13.3 -2.15 -13.95 -2.15 -13.3 -2.05 -12.6 -1.7 -12.4 -1.25 -12.5 -1.15 -13.2 0.55 -12.8 Q0.5 -11.8 0.0 -11.4 L-1.7 -11.35 -2.7 -11.75 -3.5 -12.4 -3.85 -13.35 -4.0 -14.65 -3.85 -15.9 -3.45 -16.7 -2.7 -17.05 -1.7 -17.05 -0.7 -16.7 0.0 -16.1 0.45 -15.15 M2.6 -16.1 L3.4 -16.0 4.35 -15.75 5.15 -15.25 5.65 -14.6 5.8 -13.65 5.8 -10.85 Q5.75 -10.45 5.85 -10.1 5.8 -9.75 6.0 -9.5 L4.0 -10.0 Q3.9 -10.15 3.95 -10.35 L3.85 -10.7 3.35 -10.25 2.5 -10.25 Q2.05 -10.35 1.75 -10.55 L1.2 -11.05 0.95 -11.6 0.85 -12.25 0.95 -12.95 1.2 -13.35 Q1.35 -13.6 1.75 -13.6 L2.5 -13.7 3.35 -13.7 3.75 -13.8 3.85 -14.2 Q3.85 -14.75 3.4 -14.8 L2.95 -14.8 Q2.8 -14.6 2.8 -14.2 L1.15 -14.55 Q1.1 -15.2 1.3 -15.5 L1.85 -15.95 2.6 -16.1" fill="#a97601" fill-rule="evenodd" stroke="none"/>
    </g>
    <linearGradient gradientTransform="matrix(0.0, 0.0076, -0.0163, 0.0, 3.9, -24.7)" gradientUnits="userSpaceOnUse" id="gradient0" spreadMethod="pad" x1="-819.2" x2="819.2">
      <stop offset="0.0" stop-color="#a37858"/>
      <stop offset="1.0" stop-color="#9d6a4b"/>
    </linearGradient>
    <linearGradient gradientTransform="matrix(0.0, 8.0E-4, -0.0042, 0.0, -13.5, -29.15)" gradientUnits="userSpaceOnUse" id="gradient1" spreadMethod="pad" x1="-819.2" x2="819.2">
      <stop offset="0.0" stop-color="#a37858"/>
      <stop offset="1.0" stop-color="#9d6a4b"/>
    </linearGradient>
    <linearGradient gradientTransform="matrix(0.0, 0.0204, -0.0173, 0.0, -3.05, -7.75)" gradientUnits="userSpaceOnUse" id="gradient2" spreadMethod="pad" x1="-819.2" x2="819.2">
      <stop offset="0.0" stop-color="#660066"/>
      <stop offset="1.0" stop-color="#d9a6cf"/>
    </linearGradient>
  </defs>
</svg>
