<?xml version="1.0" encoding="UTF-8" standalone="no"?>
<svg xmlns:xlink="http://www.w3.org/1999/xlink" height="88.2px" width="81.3px" xmlns="http://www.w3.org/2000/svg">
  <g transform="matrix(1.0, 0.0, 0.0, 1.0, 40.6, 44.1)">
    <use height="88.2" transform="matrix(1.0, 0.0, 0.0, 1.0, -40.6, -44.1)" width="81.3" xlink:href="#shape0"/>
  </g>
  <defs>
    <g id="shape0" transform="matrix(1.0, 0.0, 0.0, 1.0, 40.6, 44.1)">
      <path d="M40.45 -30.8 L40.45 -26.75 22.55 -12.1 40.45 -30.8 M40.45 0.4 L38.9 4.85 40.45 6.25 37.3 9.25 38.9 4.85 37.3 9.25 17.25 28.75 40.45 0.4 M-10.95 -32.7 L-12.25 -28.1 -14.2 -32.65 -10.95 -32.7 M-7.3 -25.85 L-2.75 -34.75 0.8 -35.65 -5.45 -24.95 -7.3 -25.85" fill="url(#gradient0)" fill-rule="evenodd" stroke="none"/>
      <path d="M40.45 -26.75 L40.45 0.4 17.25 28.75 37.3 9.25 40.45 6.25 40.45 27.5 3.8 43.85 3.8 30.35 3.8 -3.1 5.75 -9.45 3.8 -13.35 3.8 -20.7 40.45 -32.05 40.45 -30.8 22.55 -12.1 40.45 -26.75" fill="url(#gradient1)" fill-rule="evenodd" stroke="none"/>
      <path d="M3.8 43.85 L-1.75 42.05 -0.9 41.45 Q1.75 40.8 2.25 40.05 L2.4 38.7 Q2.35 36.25 3.3 33.6 3.65 32.55 3.8 30.35 L3.8 43.85 M-1.85 -37.85 L5.3 -36.75 0.8 -35.65 -2.75 -34.75 -10.95 -32.7 -14.2 -32.65 -12.25 -28.1 -7.3 -25.85 -5.45 -24.95 3.8 -20.7 -40.35 -30.65 -24.1 -32.05 -1.85 -37.85" fill="#000000" fill-rule="evenodd" stroke="none"/>
      <path d="M-40.35 -30.65 L16.6 -43.85 -1.85 -37.85 -24.1 -32.05 -40.35 -30.65 M5.3 -36.75 L18.8 -40.15 40.45 -32.05 3.8 -20.7 -5.45 -24.95 0.8 -35.65 5.3 -36.75 M-12.25 -28.1 L-10.95 -32.7 -2.75 -34.75 -7.3 -25.85 -12.25 -28.1" fill="url(#gradient2)" fill-rule="evenodd" stroke="none"/>
      <path d="M-1.75 42.05 L-37.5 30.35 -37.65 26.65 -35.75 24.15 -38.15 16.1 -39.1 -4.2 -14.2 29.1 -39.4 -9.95 -39.95 -21.55 -5.75 2.2 -40.2 -27.2 -40.35 -30.65 3.8 -20.7 3.8 -13.35 5.75 -9.45 3.8 -3.1 3.8 30.35 Q3.65 32.55 3.3 33.6 2.35 36.25 2.4 38.7 L2.25 40.05 Q1.75 40.8 -0.9 41.45 L-1.75 42.05" fill="url(#gradient3)" fill-rule="evenodd" stroke="none"/>
      <path d="M-39.1 -4.2 L-39.4 -9.95 -14.2 29.1 -39.1 -4.2 M-39.95 -21.55 L-40.2 -27.2 -5.75 2.2 -39.95 -21.55" fill="url(#gradient4)" fill-rule="evenodd" stroke="none"/>
      <path d="M40.45 -30.8 L40.45 -26.75 40.45 0.4 38.9 4.85 40.45 6.25 40.45 27.5 3.8 43.85 -1.75 42.05 -37.5 30.35 -37.65 26.65 -35.75 24.15 -38.15 16.1 -39.1 -4.2 -39.4 -9.95 -39.95 -21.55 -40.2 -27.2 -40.35 -30.65 16.6 -43.85 -1.85 -37.85 5.3 -36.75 18.8 -40.15 40.45 -32.05 40.45 -30.8 M0.8 -35.65 L5.3 -36.75 M3.8 30.35 L3.8 -3.1 5.75 -9.45 3.8 -13.35 3.8 -20.7 -40.35 -30.65 -24.1 -32.05 -1.85 -37.85 M3.8 -20.7 L40.45 -32.05 M38.9 4.85 L37.3 9.25 M3.8 43.85 L3.8 30.35 Q3.65 32.55 3.3 33.6 2.35 36.25 2.4 38.7 L2.25 40.05 Q1.75 40.8 -0.9 41.45 L-1.75 42.05 M-12.25 -28.1 L-7.3 -25.85 -5.45 -24.95 M-2.75 -34.75 L-10.95 -32.7 -14.2 -32.65 -12.25 -28.1 M0.8 -35.65 L-2.75 -34.75 M3.8 -20.7 L-5.45 -24.95" fill="none" stroke="#513f15" stroke-linecap="round" stroke-linejoin="round" stroke-width="0.5"/>
      <path d="M30.05 -1.1 L28.35 -0.6 28.35 7.15 20.9 9.5 20.9 1.75 18.8 2.45 24.6 -6.2 30.05 -1.1" fill="#2b2b2b" fill-opacity="0.75686276" fill-rule="evenodd" stroke="none"/>
      <path d="M24.1 -35.8 L23.7 -35.95 23.4 -35.95 23.15 -35.9 23.95 -35.5 24.0 -35.55 24.25 -35.65 24.1 -35.8 M25.1 -35.8 L25.2 -35.55 Q25.35 -35.4 24.95 -35.2 L24.55 -35.0 25.75 -34.4 25.05 -34.15 21.9 -36.05 23.0 -36.35 23.55 -36.5 23.85 -36.35 24.65 -36.1 25.1 -35.8 M23.8 -34.4 L24.0 -34.15 24.0 -33.85 23.7 -33.6 23.25 -33.55 22.75 -33.55 22.25 -33.6 21.75 -33.75 21.2 -34.1 19.35 -35.35 19.95 -35.5 21.9 -34.3 22.45 -34.1 22.85 -34.1 22.95 -34.3 22.6 -34.55 20.75 -35.75 21.5 -35.9 23.3 -34.8 23.8 -34.4 M21.0 -32.85 L18.95 -32.2 15.9 -34.3 17.75 -34.85 18.55 -34.4 17.2 -34.1 17.7 -33.75 18.85 -34.15 19.4 -33.75 18.4 -33.4 19.0 -32.9 20.25 -33.3 21.0 -32.85 M8.25 -31.1 L7.55 -30.8 7.05 -31.05 6.65 -31.05 6.5 -30.9 6.6 -30.7 6.85 -30.7 7.15 -30.7 8.25 -30.7 8.95 -30.55 9.5 -30.25 9.9 -29.8 9.8 -29.4 9.25 -29.1 7.9 -29.0 6.9 -29.45 7.7 -29.8 8.15 -29.55 8.7 -29.55 8.85 -29.7 8.8 -29.85 8.45 -30.0 7.75 -30.1 6.75 -30.0 5.8 -30.5 5.6 -30.9 Q5.5 -31.05 5.65 -31.2 5.8 -31.35 6.3 -31.5 L7.3 -31.6 8.25 -31.1 M9.65 -32.05 Q9.5 -32.3 9.7 -32.35 9.7 -32.6 10.25 -32.7 L11.15 -32.75 12.2 -32.3 11.45 -32.05 11.05 -32.2 10.65 -32.3 10.5 -32.15 10.6 -32.0 10.8 -31.8 11.15 -31.9 12.15 -31.9 12.85 -31.8 Q13.1 -31.75 13.4 -31.5 L13.85 -31.05 13.8 -30.65 13.25 -30.35 12.05 -30.25 Q11.45 -30.5 10.95 -30.7 L11.65 -31.1 12.15 -30.8 12.7 -30.8 12.85 -30.95 12.75 -31.1 12.45 -31.25 11.85 -31.35 10.75 -31.25 9.9 -31.65 Q9.55 -32.0 9.65 -32.05 M2.75 -28.45 L3.95 -27.35 2.85 -27.15 0.2 -29.65 1.1 -29.95 2.05 -29.0 3.1 -29.3 2.15 -30.25 3.0 -30.4 5.75 -28.0 4.95 -27.7 3.7 -28.75 2.75 -28.45 M0.55 -26.25 L-1.55 -28.3 -2.45 -28.0 -3.1 -28.7 -0.2 -29.45 0.4 -28.95 -0.6 -28.6 1.5 -26.65 0.55 -26.25 M6.5 -28.2 L3.7 -30.65 4.55 -30.95 7.4 -28.55 6.5 -28.2 M17.7 -32.6 L17.85 -32.2 17.75 -31.9 17.4 -31.75 16.2 -31.45 13.25 -33.55 14.35 -33.75 15.05 -33.95 15.65 -33.75 16.3 -33.55 17.0 -33.15 17.7 -32.6 M15.35 -33.3 L14.9 -33.3 14.65 -33.25 16.3 -32.05 16.5 -32.15 16.75 -32.3 16.7 -32.5 16.2 -32.9 15.35 -33.3 M11.85 -33.05 L12.7 -33.3 15.65 -31.2 14.9 -30.95 11.85 -33.05" fill="#2b2b2b" fill-opacity="0.75686276" fill-rule="evenodd" stroke="none"/>
      <path d="M32.3 10.95 L32.45 12.6 32.4 13.05 32.3 13.45 32.05 13.85 Q31.9 13.9 31.7 14.05 L31.35 14.15 31.15 14.15 30.9 14.0 30.75 13.65 30.65 13.3 30.65 11.5 31.15 11.35 31.3 12.95 31.35 13.35 31.6 13.45 31.85 13.2 31.85 12.75 31.75 11.1 32.3 10.95 M34.05 10.55 L34.25 11.0 34.25 11.5 34.1 11.8 33.65 12.2 33.35 12.35 33.5 13.3 32.95 13.5 32.7 10.8 33.55 10.45 33.95 10.4 34.05 10.55 M33.65 11.1 L33.5 11.0 33.25 11.1 33.35 11.7 33.5 11.65 33.65 11.5 33.7 11.35 33.65 11.1 M29.4 13.5 L28.55 13.9 28.55 14.6 29.55 14.15 29.55 14.85 27.95 15.45 27.95 12.5 29.4 11.95 29.5 12.6 28.5 12.9 28.5 13.35 29.4 12.95 29.4 13.5 M27.15 12.9 L27.4 13.15 27.55 13.5 27.55 14.15 27.55 14.9 27.3 15.4 27.05 15.8 Q26.75 15.85 26.7 15.95 L25.75 16.25 25.8 13.2 26.7 12.95 27.15 12.9 M26.35 13.75 L26.35 15.4 26.55 15.3 26.85 15.15 26.9 14.9 27.0 14.3 26.85 13.65 Q26.75 13.5 26.55 13.65 L26.35 13.75 M24.0 14.05 L24.25 14.7 23.65 15.0 23.55 14.7 Q23.55 14.55 23.4 14.6 L23.15 14.75 23.1 15.0 23.15 15.15 23.4 15.1 Q23.8 15.0 23.95 15.25 L24.25 15.4 24.25 15.85 24.2 16.5 23.8 17.05 23.3 17.35 22.55 17.35 22.3 16.7 23.0 16.25 23.1 16.65 23.4 16.65 23.55 16.55 23.65 16.25 23.65 16.0 23.25 15.95 22.7 15.85 Q22.45 15.65 22.55 15.3 22.55 14.9 22.7 14.75 L22.95 14.4 Q23.15 14.05 23.5 14.05 23.8 13.85 24.0 14.05 M21.0 15.15 L21.15 15.85 20.5 16.15 20.45 15.85 Q20.35 15.7 20.2 15.85 20.05 15.85 20.05 15.95 L19.95 16.15 19.95 16.25 20.2 16.35 20.75 16.4 21.15 16.65 21.15 17.1 21.0 17.75 20.6 18.3 20.05 18.6 Q19.4 18.85 19.2 18.6 L19.0 17.9 19.75 17.6 19.8 17.9 20.1 17.95 20.35 17.8 20.45 17.6 20.35 17.25 20.05 17.2 19.4 17.1 Q19.25 16.9 19.25 16.5 L19.5 15.95 19.75 15.45 Q19.95 15.3 20.35 15.25 L21.0 15.15 M24.65 16.7 L24.75 13.65 25.35 13.45 25.25 16.5 24.65 16.7 M17.05 16.4 L17.7 16.25 17.2 19.7 16.5 20.0 16.75 18.5 15.95 18.85 15.75 20.3 14.95 20.45 15.5 16.95 16.3 16.7 15.95 17.95 16.85 17.65 17.05 16.4 M18.95 15.7 L18.55 19.15 17.85 19.45 18.25 16.0 18.95 15.7 M14.25 18.3 L13.8 21.0 13.0 21.4 13.45 18.5 12.7 18.9 12.9 17.9 15.2 17.2 15.05 17.9 14.25 18.3" fill="#2b2b2b" fill-opacity="0.75686276" fill-rule="evenodd" stroke="none"/>
      <path d="M-30.0 -17.45 L-30.0 -18.95 -28.65 -22.55 -26.6 -15.95 -25.55 -15.05 -27.2 -15.35 -27.2 -7.6 -30.15 -8.4 -30.15 -14.95 -29.6 -16.3 -30.75 -16.3 -30.0 -17.45" fill="#2b2b2b" fill-opacity="0.75686276" fill-rule="evenodd" stroke="none"/>
      <path d="M-10.2 -3.8 L-10.2 -11.55 -10.85 -11.7 -8.7 -17.9 -6.35 -10.45 -7.2 -10.75 -7.2 -3.0 -10.2 -3.8" fill="#2b2b2b" fill-opacity="0.75686276" fill-rule="evenodd" stroke="none"/>
      <path d="M-23.1 -6.55 L-22.85 -5.75 -22.15 -5.35 -21.45 -5.45 Q-21.2 -5.65 -21.2 -6.15 L-21.2 -9.6 -19.45 -9.2 -19.45 -5.8 Q-19.45 -5.3 -19.6 -4.85 -19.75 -4.45 -20.1 -4.2 L-20.8 -3.9 -22.05 -3.95 -22.95 -4.25 Q-23.45 -4.4 -23.75 -4.65 L-24.35 -5.3 -24.75 -6.05 -24.9 -7.0 -24.9 -10.4 -23.1 -10.0 -23.1 -6.55 M-15.9 -7.25 L-16.4 -7.35 -16.4 -6.1 -16.0 -6.0 -15.3 -6.0 -15.1 -6.4 Q-15.1 -6.7 -15.25 -6.9 -15.45 -7.15 -15.9 -7.25 M-15.25 -8.25 L-13.85 -7.5 Q-13.35 -6.9 -13.35 -6.05 -13.35 -5.2 -13.9 -4.85 L-15.45 -4.7 -16.4 -4.9 -16.4 -2.8 -18.2 -3.2 -18.2 -8.9 -15.25 -8.25" fill="#2b2b2b" fill-opacity="0.75686276" fill-rule="evenodd" stroke="none"/>
    </g>
    <linearGradient gradientTransform="matrix(1.5633, 0.0, 0.0, 1.5633, -664.6, -351.9)" gradientUnits="userSpaceOnUse" id="gradient0" spreadMethod="pad" x1="-819.2" x2="819.2">
      <stop offset="0.0" stop-color="#b99782"/>
      <stop offset="1.0" stop-color="#9d6a4b"/>
    </linearGradient>
    <linearGradient gradientTransform="matrix(-0.0321, 0.0082, -0.0097, -0.0381, 22.15, 5.95)" gradientUnits="userSpaceOnUse" id="gradient1" spreadMethod="pad" x1="-819.2" x2="819.2">
      <stop offset="0.0" stop-color="#b99782"/>
      <stop offset="1.0" stop-color="#9d6a4b"/>
    </linearGradient>
    <linearGradient gradientTransform="matrix(1.5633, 0.0, 0.0, 1.5633, -664.6, -351.9)" gradientUnits="userSpaceOnUse" id="gradient2" spreadMethod="pad" x1="-819.2" x2="819.2">
      <stop offset="0.0" stop-color="#b99782"/>
      <stop offset="1.0" stop-color="#c09872"/>
    </linearGradient>
    <linearGradient gradientTransform="matrix(0.027, 0.0, 0.0, 0.0444, -18.35, 5.7)" gradientUnits="userSpaceOnUse" id="gradient3" spreadMethod="pad" x1="-819.2" x2="819.2">
      <stop offset="0.0" stop-color="#a37858"/>
      <stop offset="1.0" stop-color="#9d6a4b"/>
    </linearGradient>
    <linearGradient gradientTransform="matrix(1.5633, 0.0, 0.0, 1.5633, -664.6, -351.9)" gradientUnits="userSpaceOnUse" id="gradient4" spreadMethod="pad" x1="-819.2" x2="819.2">
      <stop offset="0.0" stop-color="#a37858"/>
      <stop offset="1.0" stop-color="#9d6a4b"/>
    </linearGradient>
  </defs>
</svg>
