<?xml version="1.0" encoding="UTF-8" standalone="no"?>
<svg xmlns:xlink="http://www.w3.org/1999/xlink" height="39.05px" width="55.35px" xmlns="http://www.w3.org/2000/svg">
  <g transform="matrix(1.0, 0.0, 0.0, 1.0, 26.55, 19.25)">
    <use height="39.05" transform="matrix(1.0, 0.0, 0.0, 1.0, -26.55, -19.25)" width="55.35" xlink:href="#shape0"/>
  </g>
  <defs>
    <g id="shape0" transform="matrix(1.0, 0.0, 0.0, 1.0, 26.55, 19.25)">
      <path d="M-7.9 19.4 L-24.0 7.0 Q-26.9 3.9 -26.15 2.5 L6.2 -13.95 Q9.05 -16.0 11.55 -14.65 L28.25 -3.15 26.5 -2.1 23.15 0.05 22.1 -0.65 23.1 0.05 -4.3 16.05 -4.45 16.1 Q-7.85 18.5 -7.9 19.4" fill="url(#gradient0)" fill-rule="evenodd" stroke="none"/>
      <path d="M26.9 -0.8 L27.75 -0.05 26.7 0.6 22.55 2.85 22.5 2.85 7.95 10.8 -5.85 18.15 -3.45 16.2 Q10.25 8.4 23.9 0.65 L23.2 1.1 26.9 -0.8" fill="#7e5c3d" fill-rule="evenodd" stroke="none"/>
      <path d="M26.5 -2.1 L27.7 -1.15 26.9 -0.8 23.2 1.1 23.9 0.65 Q10.25 8.4 -3.45 16.2 L-4.45 16.1 -4.3 16.05 23.1 0.05 23.15 0.05 26.5 -2.1 M26.7 0.6 L27.4 2.25 22.55 2.85 26.7 0.6 M-5.85 18.15 L7.95 10.8 -4.75 17.9 -5.85 18.15" fill="#b58b64" fill-rule="evenodd" stroke="none"/>
      <path d="M22.5 2.85 L22.5 2.9 22.15 4.15 -5.2 18.85 Q-7.8 19.85 -7.9 19.4 -7.85 18.5 -4.45 16.1 L-3.45 16.2 -5.85 18.15 -4.75 17.9 7.95 10.8 22.5 2.85" fill="#c9ad94" fill-rule="evenodd" stroke="none"/>
      <path d="M26.5 -2.1 L27.7 -1.15 26.9 -0.8 27.75 -0.05 26.7 0.6 27.4 2.25 22.55 2.85 22.5 2.85 22.5 2.9 22.15 4.15 -5.2 18.85 Q-7.8 19.85 -7.9 19.4 L-24.0 7.0 Q-26.9 3.9 -26.15 2.5 L6.2 -13.95 Q9.05 -16.0 11.55 -14.65 L28.25 -3.15 26.5 -2.1 23.15 0.05 M23.1 0.05 L-4.3 16.05 -4.45 16.1 Q-7.85 18.5 -7.9 19.4 M-3.45 16.2 Q10.25 8.4 23.9 0.65 M23.2 1.1 L26.9 -0.8 M7.95 10.8 L22.5 2.85 M-3.45 16.2 L-5.85 18.15 M7.95 10.8 L-4.75 17.9" fill="none" stroke="#c4a27f" stroke-linecap="round" stroke-linejoin="round" stroke-width="0.5"/>
      <path d="M-26.25 2.6 Q-26.15 1.65 -24.85 0.85 L4.45 -17.05 Q9.3 -20.35 13.1 -18.05 L23.2 -11.1 20.25 -9.35 22.75 -3.4 -5.35 13.15 Q-9.4 15.55 -9.2 16.7 L-21.7 6.95 -21.7 6.9 -23.85 3.35 -26.25 2.6" fill="url(#gradient1)" fill-rule="evenodd" stroke="none"/>
      <path d="M22.75 -3.4 L20.25 -9.35 23.2 -11.1 23.1 -8.85 22.75 -3.4" fill="#f0e9df" fill-rule="evenodd" stroke="none"/>
      <path d="M27.6 -4.7 L28.3 -4.35 27.3 -3.9 26.1 -3.35 -7.05 15.3 -4.45 13.25 27.6 -4.7" fill="#7e5c3d" fill-rule="evenodd" stroke="none"/>
      <path d="M-5.35 13.15 L22.75 -3.4 23.1 -8.85 28.4 -5.1 27.6 -4.7 -4.45 13.25 -5.35 13.15" fill="url(#gradient2)" fill-rule="evenodd" stroke="none"/>
      <path d="M-9.2 16.7 Q-9.4 15.55 -5.35 13.15 L-4.45 13.25 -7.05 15.3 -5.8 15.1 25.1 -2.05 28.0 -3.35 28.55 -2.95 -6.35 16.05 Q-8.9 17.3 -9.2 16.7" fill="#dbc8b5" fill-rule="evenodd" stroke="none"/>
      <path d="M27.3 -3.9 L28.0 -3.35 25.1 -2.05 -5.8 15.1 -7.05 15.3 26.1 -3.35 27.3 -3.9" fill="#b58b64" fill-rule="evenodd" stroke="none"/>
      <path d="M23.2 -11.1 L13.1 -18.05 Q9.3 -20.35 4.45 -17.05 L-24.85 0.85 Q-26.15 1.65 -26.25 2.6 M-21.7 6.9 L-21.7 6.95 -9.2 16.7 Q-9.4 15.55 -5.35 13.15 L22.75 -3.4 20.25 -9.35 23.2 -11.1 23.1 -8.85 28.4 -5.1 27.6 -4.7 28.3 -4.35 27.3 -3.9 28.0 -3.35 28.55 -2.95 -6.35 16.05 Q-8.9 17.3 -9.2 16.7 M28.0 -3.35 L25.1 -2.05 -5.8 15.1 M-7.05 15.3 L-4.45 13.25 27.6 -4.7 M22.75 -3.4 L23.1 -8.85 M-21.7 6.9 L-24.65 4.45" fill="none" stroke="#c4a27f" stroke-linecap="round" stroke-linejoin="round" stroke-width="0.5"/>
      <path d="M-2.95 -12.4 L2.0 -15.3 Q3.7 -16.5 5.9 -15.35 L9.55 -12.85 3.85 -9.8 0.45 -12.15 Q-1.45 -13.15 -2.95 -12.4 M3.95 -15.05 L2.3 -14.4 1.3 -13.35 Q1.05 -12.7 1.7 -12.7 2.95 -12.65 4.0 -13.35 5.5 -14.4 3.95 -15.05 M15.0 -7.7 Q15.05 -8.4 14.35 -8.5 13.9 -8.5 13.75 -8.0 13.55 -7.3 14.25 -7.2 14.9 -7.05 15.0 -7.7 M10.75 -9.85 Q11.25 -9.75 11.3 -10.25 11.4 -10.8 10.85 -10.85 10.45 -10.85 10.35 -10.45 10.2 -9.95 10.75 -9.85 M12.4 -9.7 Q12.05 -9.7 11.9 -9.3 11.75 -8.8 12.3 -8.65 12.8 -8.55 12.9 -9.1 12.95 -9.6 12.4 -9.7 M16.8 -6.3 Q16.9 -7.0 16.2 -7.1 15.7 -7.1 15.6 -6.6 15.4 -5.9 16.1 -5.8 16.75 -5.65 16.8 -6.3 M11.0 -11.85 L19.85 -5.7 14.1 -2.7 5.45 -8.7 11.0 -11.85" fill="#000000" fill-opacity="0.23137255" fill-rule="evenodd" stroke="none"/>
      <path d="M3.95 -15.05 Q5.5 -14.4 4.0 -13.35 2.95 -12.65 1.7 -12.7 1.05 -12.7 1.3 -13.35 L2.3 -14.4 3.95 -15.05 M16.8 -6.3 Q16.75 -5.65 16.1 -5.8 15.4 -5.9 15.6 -6.6 15.7 -7.1 16.2 -7.1 16.9 -7.0 16.8 -6.3 M12.4 -9.7 Q12.95 -9.6 12.9 -9.1 12.8 -8.55 12.3 -8.65 11.75 -8.8 11.9 -9.3 12.05 -9.7 12.4 -9.7 M10.75 -9.85 Q10.2 -9.95 10.35 -10.45 10.45 -10.85 10.85 -10.85 11.4 -10.8 11.3 -10.25 11.25 -9.75 10.75 -9.85 M15.0 -7.7 Q14.9 -7.05 14.25 -7.2 13.55 -7.3 13.75 -8.0 13.9 -8.5 14.35 -8.5 15.05 -8.4 15.0 -7.7" fill="#959595" fill-rule="evenodd" stroke="none"/>
      <path d="M3.65 -3.8 L3.65 -4.0 3.5 -4.8 3.5 -4.95 3.65 -4.9 Q4.15 -4.8 4.2 -5.35 4.3 -5.85 3.75 -5.95 3.35 -5.95 3.25 -5.55 L3.25 -5.35 3.0 -5.4 2.95 -5.4 2.05 -5.45 1.8 -5.4 4.0 -6.8 6.3 -5.45 3.65 -3.8 M1.7 -5.3 L1.65 -5.3 1.5 -4.9 1.6 -4.55 1.05 -4.9 1.7 -5.3 M1.8 -4.4 L2.3 -4.35 2.3 -4.3 2.9 -3.75 3.2 -3.55 3.15 -3.5 1.8 -4.4" fill="#999999" fill-rule="evenodd" stroke="none"/>
      <path d="M1.8 -5.4 L2.05 -5.45 2.95 -5.4 3.0 -5.4 3.25 -5.35 3.25 -5.55 Q3.35 -5.95 3.75 -5.95 4.3 -5.85 4.2 -5.35 4.15 -4.8 3.65 -4.9 L3.5 -4.95 3.5 -4.8 3.65 -4.0 3.65 -3.8 3.2 -3.55 2.9 -3.75 2.3 -4.3 2.3 -4.35 1.8 -4.4 1.65 -4.5 1.6 -4.55 1.5 -4.9 1.65 -5.3 1.7 -5.3 1.8 -5.4" fill="#797877" fill-rule="evenodd" stroke="none"/>
      <path d="M-2.95 -12.4 L2.0 -15.3 Q3.7 -16.5 5.9 -15.35 L9.55 -12.85 3.85 -9.8 0.45 -12.15 Q-1.45 -13.15 -2.95 -12.4 L-3.45 -12.1 M4.6 -16.85 Q6.35 -18.05 8.55 -16.9 L20.2 -8.8 M3.65 -3.8 L6.3 -5.45 4.0 -6.8 1.8 -5.4 1.7 -5.3 1.05 -4.9 1.6 -4.55 M3.2 -3.55 L3.65 -3.8 M1.8 -4.4 L3.15 -3.5 3.2 -3.55 M11.0 -11.85 L5.45 -8.7 14.1 -2.7 19.85 -5.7 11.0 -11.85 M4.45 -2.6 L10.2 1.3 M6.7 -3.85 L12.4 0.0 M5.6 -3.35 L11.4 0.6 M-8.6 -8.5 L-3.0 -4.7 M-7.55 -9.1 L-1.95 -5.35 M-9.85 -7.5 L-4.35 -3.85 M-6.1 -9.9 L-0.65 -6.2 M-14.1 -4.9 L-8.85 -1.2 M-12.75 -5.75 L-7.25 -2.1 M-11.4 -6.7 L-5.85 -3.0 M-15.25 -4.25 L-9.85 -0.5 M-9.5 1.25 L-0.3 7.75 M-12.2 2.8 L-9.8 4.5 M-15.4 4.65 L-5.9 11.15 M-13.8 3.7 L-4.25 10.2 M-17.05 5.55 L-7.4 12.1 M-18.3 6.7 L-8.65 13.25 M-19.1 7.9 L-9.5 14.45 M-15.9 12.2 L-8.95 17.45 M-23.4 6.55 Q-26.4 4.1 -24.75 3.7 L-20.35 6.95 M-22.3 7.35 L-16.85 11.45 M-25.1 1.95 L-19.5 5.75 M-23.7 0.95 L-18.25 4.65 M-20.65 -1.05 L-15.1 2.75 M-17.95 -2.6 L-12.5 1.1 M-16.5 -3.5 L-11.15 0.3 M-19.0 -1.8 L-13.7 1.85 M-22.2 -0.05 L-16.75 3.65 M-4.05 -11.25 L1.55 -7.45 M-4.95 -10.6 L0.55 -6.85 M-8.25 0.55 L1.0 7.0 M-5.75 -0.85 L3.65 5.4 M-7.15 -0.1 L2.05 6.3 M-2.8 -2.55 L6.5 3.6 M-4.3 -1.75 L5.05 4.5 M-0.2 -3.95 L8.9 2.1 M-1.3 -3.45 L7.85 2.8" fill="none" stroke="#5a5856" stroke-linecap="round" stroke-linejoin="round" stroke-opacity="0.49803922" stroke-width="0.5"/>
    </g>
    <linearGradient gradientTransform="matrix(0.0037, 0.0016, 0.0389, -0.0151, 16.65, -2.3)" gradientUnits="userSpaceOnUse" id="gradient0" spreadMethod="pad" x1="-819.2" x2="819.2">
      <stop offset="0.0" stop-color="#f0e9df"/>
      <stop offset="1.0" stop-color="#d6bea9"/>
    </linearGradient>
    <linearGradient gradientTransform="matrix(0.0043, 4.0E-4, 0.0277, -0.0284, 15.15, -6.7)" gradientUnits="userSpaceOnUse" id="gradient1" spreadMethod="pad" x1="-819.2" x2="819.2">
      <stop offset="0.0" stop-color="#f0e9df"/>
      <stop offset="1.0" stop-color="#e3d6c5"/>
    </linearGradient>
    <linearGradient gradientTransform="matrix(-9.0E-4, -2.0E-4, 0.0046, -0.0169, 21.95, 5.7)" gradientUnits="userSpaceOnUse" id="gradient2" spreadMethod="pad" x1="-819.2" x2="819.2">
      <stop offset="0.0" stop-color="#f0e9df"/>
      <stop offset="1.0" stop-color="#e3d6c5"/>
    </linearGradient>
  </defs>
</svg>
