<?xml version="1.0" encoding="UTF-8" standalone="no"?>
<svg xmlns:xlink="http://www.w3.org/1999/xlink" height="64.1px" width="50.05px" xmlns="http://www.w3.org/2000/svg">
  <g transform="matrix(1.0, 0.0, 0.0, 1.0, 25.0, 32.05)">
    <use height="64.1" transform="matrix(1.0, 0.0, 0.0, 1.0, -25.0, -32.05)" width="50.05" xlink:href="#shape0"/>
  </g>
  <defs>
    <g id="shape0" transform="matrix(1.0, 0.0, 0.0, 1.0, 25.0, 32.05)">
      <path d="M0.85 -20.55 L0.65 -23.6 Q0.65 -24.9 1.95 -27.8 L3.15 -28.5 Q3.85 -29.0 6.05 -29.9 L8.2 -29.95 Q11.0 -31.25 12.15 -31.25 L15.25 -31.25 Q16.05 -29.0 16.25 -21.7 13.75 -14.25 13.15 -13.15 10.8 -9.7 10.8 -8.6 10.8 -6.5 11.9 -5.3 13.75 -5.55 14.95 -5.3 L15.35 -1.25 14.95 -5.3 14.75 -7.0 Q16.25 -9.45 16.35 -12.8 16.35 -13.5 16.95 -14.8 17.85 -12.35 20.4 -7.35 L20.4 -7.3 Q20.6 -4.8 20.0 -3.85 19.1 -2.3 19.1 0.75 L19.1 3.0 Q21.0 0.65 21.4 1.85 21.7 3.05 20.6 6.95 19.5 10.85 19.9 11.6 L21.3 12.65 21.4 12.65 Q22.6 11.25 22.9 3.0 L23.3 -1.0 Q23.9 0.85 23.9 2.05 L23.9 10.4 Q23.9 11.2 24.05 11.85 24.25 13.15 24.95 14.3 L24.95 14.7 Q24.55 15.65 22.7 17.3 L15.15 17.3 15.25 17.15 16.85 16.35 16.35 16.25 15.05 15.25 14.05 13.5 Q13.65 11.95 13.15 11.6 9.9 11.25 9.8 9.8 L9.0 8.75 Q8.6 10.15 8.6 11.8 8.6 13.6 9.4 14.3 L9.7 16.45 9.7 17.45 9.4 20.3 Q9.4 20.75 9.9 20.75 L11.6 19.55 12.25 18.5 Q13.25 17.15 14.05 17.15 L14.85 17.75 14.05 19.55 13.85 19.9 14.05 19.55 14.85 17.75 15.15 17.3 Q17.85 17.8 17.85 18.75 L17.15 20.75 17.15 22.55 Q17.35 23.85 14.05 24.45 L9.9 24.7 5.85 25.85 5.55 25.75 Q5.25 25.5 5.35 24.7 5.45 23.15 4.45 22.75 L-4.7 22.15 -3.1 23.0 0.1 25.4 Q0.95 26.1 3.45 26.8 2.85 27.15 2.45 27.55 L-0.1 29.65 2.45 27.55 Q2.85 27.15 3.45 26.8 L3.95 26.95 6.15 27.65 Q4.25 29.3 1.15 30.65 L-0.1 29.65 -1.0 28.7 Q-2.4 26.6 -2.9 26.2 L-9.65 21.1 Q-11.05 19.8 -11.25 18.95 L-11.5 13.75 Q-11.9 10.75 -14.3 9.7 -15.3 9.35 -16.7 7.2 -18.05 5.05 -19.95 3.5 L-20.25 1.45 Q-20.25 -6.5 -20.85 -7.9 L-20.85 -12.3 -20.95 -13.6 Q-19.15 -11.25 -17.0 -9.85 L-17.0 1.25 Q-17.3 4.6 -15.8 4.7 -14.9 -0.55 -14.9 -7.0 L-14.5 -9.35 -14.5 -11.0 Q-14.5 -13.6 -14.7 -14.0 -15.1 -14.95 -17.35 -16.95 L-19.95 -18.0 Q-20.85 -20.4 -22.25 -22.55 -23.5 -24.8 -24.4 -27.2 -25.4 -29.7 -24.4 -31.95 -20.65 -31.45 -18.95 -28.15 L-16.6 -23.95 -15.3 -22.3 -14.1 -20.4 Q-13.9 -18.85 -15.7 -19.25 L-15.2 -19.6 Q-16.5 -20.9 -19.35 -26.1 -22.25 -31.25 -23.05 -29.1 -22.95 -27.45 -20.45 -23.15 L-18.75 -20.65 -17.55 -18.95 Q-16.9 -16.7 -11.05 -15.05 -9.55 -13.5 -9.45 -12.95 -9.35 -11.85 -6.75 -10.4 -5.2 -9.5 -2.2 -9.8 L-2.2 -9.85 -2.1 -9.85 Q-0.9 -9.85 -0.5 -10.75 L0.45 -13.3 Q1.05 -14.8 1.05 -17.55 L0.85 -20.55 M12.75 22.05 L12.1 23.15 7.7 24.9 Q6.4 25.3 5.55 25.75 6.4 25.3 7.7 24.9 L12.1 23.15 12.75 22.05 13.25 22.05 Q13.25 21.1 13.85 20.75 L13.85 19.9 12.75 22.05 M16.25 8.25 L16.95 13.85 19.0 15.3 19.1 15.4 Q17.75 15.9 16.85 16.35 17.75 15.9 19.1 15.4 L19.0 15.3 16.95 13.85 16.25 8.25 16.25 8.05 16.25 7.9 16.15 6.8 15.75 3.5 15.35 -1.25 12.1 2.55 12.1 8.85 12.45 8.95 16.25 14.65 16.25 8.25 M11.6 -17.65 Q14.15 -17.8 13.65 -26.8 13.15 -29.45 11.1 -28.85 9.0 -28.35 5.05 -26.6 2.75 -25.5 2.75 -21.35 L2.95 -21.1 Q3.55 -19.45 6.6 -17.9 8.7 -16.75 8.7 -12.65 L8.5 -8.6 8.0 -7.35 7.8 -6.5 Q7.8 -5.9 9.3 -4.45 9.6 -4.1 9.5 -2.6 10.2 -2.95 10.2 -4.2 9.0 -7.55 9.0 -8.9 9.0 -10.3 10.0 -11.25 11.2 -12.35 11.6 -13.65 L11.6 -17.65 M2.05 -14.2 Q2.05 -8.05 -1.3 -6.7 -2.9 -6.05 -4.3 -4.2 -5.4 -2.55 -5.4 -1.75 L-5.55 2.2 Q-3.3 0.05 -3.4 -0.65 -2.2 -1.0 0.55 -4.45 L0.55 0.5 Q-0.1 2.4 -3.4 9.1 L-3.3 17.4 -3.1 17.4 -0.6 12.3 Q2.25 6.45 2.35 4.55 3.65 4.55 3.65 3.35 L3.75 3.35 Q3.75 16.35 4.05 19.2 4.15 21.2 5.25 21.6 5.25 23.1 6.6 23.1 6.9 23.1 8.0 21.1 L8.4 19.9 8.4 18.95 Q8.4 17.15 7.8 15.9 6.6 13.95 6.8 12.05 L6.6 7.55 Q7.6 3.75 7.6 0.75 7.6 -1.65 6.3 -3.15 4.95 -4.6 4.95 -6.15 6.25 -8.6 6.25 -10.15 6.25 -13.5 5.35 -14.85 3.95 -16.85 2.85 -16.85 L1.95 -16.85 2.05 -14.2 M19.0 15.3 L24.05 11.85 19.0 15.3 M-11.6 -13.9 L-10.35 -1.6 Q-10.35 1.6 -10.75 2.45 -12.5 5.9 -12.2 6.45 -11.9 6.95 -8.15 4.45 L-8.15 -3.25 Q-7.45 -4.6 -7.05 -6.05 L-6.95 -7.8 -7.05 -9.85 Q-7.25 -10.45 -8.35 -10.9 -10.75 -12.1 -11.25 -13.5 L-11.6 -13.9 M-5.1 16.7 Q-6.45 14.2 -7.05 13.7 -8.85 11.8 -9.05 11.0 -10.85 14.55 -10.75 15.25 -10.55 16.25 -7.25 17.8 L-6.85 19.05 -4.6 18.25 -5.1 16.7" fill="#cfb39a" fill-opacity="0.48235294" fill-rule="evenodd" stroke="none"/>
      <path d="M-19.95 -18.0 L-17.35 -16.95 Q-15.1 -14.95 -14.7 -14.0 -14.5 -13.6 -14.5 -11.0 L-14.5 -9.35 -14.9 -7.0 Q-14.9 -0.55 -15.8 4.7 -17.3 4.6 -17.0 1.25 L-17.0 -9.85 Q-19.15 -11.25 -20.95 -13.6 L-21.45 -14.7 -21.45 -17.35 -20.85 -17.05 -19.55 -17.05 -19.95 -18.0 M-19.95 3.5 Q-18.05 5.05 -16.7 7.2 -15.3 9.35 -14.3 9.7 -11.9 10.75 -11.5 13.75 L-11.25 18.95 Q-11.05 19.8 -9.65 21.1 L-2.9 26.2 Q-2.4 26.6 -1.0 28.7 L-0.1 29.65 -0.2 29.65 Q-1.8 31.0 -1.8 31.8 -1.8 31.0 -0.2 29.65 L-0.1 29.65 1.15 30.65 -1.8 31.8 -2.3 31.95 Q-2.0 30.75 -4.5 28.75 -7.05 26.7 -7.05 26.0 -6.65 23.25 -8.85 22.3 -10.35 21.7 -11.05 19.65 -11.7 17.15 -14.2 14.1 L-17.0 10.55 Q-19.25 6.35 -19.95 3.5 M3.45 26.8 Q0.95 26.1 0.1 25.4 L-3.1 23.0 -4.7 22.15 4.45 22.75 Q5.45 23.15 5.35 24.7 5.25 25.5 5.55 25.75 L5.85 25.85 9.9 24.7 14.05 24.45 Q17.35 23.85 17.15 22.55 L17.15 20.75 17.85 18.75 Q17.85 17.8 15.15 17.3 L22.7 17.3 19.0 20.15 Q15.95 25.75 14.05 26.45 L6.25 27.55 6.15 27.65 3.95 26.95 3.45 26.8 Q4.25 26.25 5.55 25.75 4.25 26.25 3.45 26.8 M12.75 22.05 L13.85 19.9 13.85 20.75 Q13.25 21.1 13.25 22.05 L12.75 22.05 M14.85 17.75 L14.05 17.15 Q13.25 17.15 12.25 18.5 L11.6 19.55 9.9 20.75 Q9.4 20.75 9.4 20.3 L9.7 17.45 9.7 16.45 9.4 14.3 Q8.6 13.6 8.6 11.8 8.6 10.15 9.0 8.75 L9.8 9.8 Q9.9 11.25 13.15 11.6 13.65 11.95 14.05 13.5 L15.05 15.25 16.35 16.25 16.85 16.35 15.25 17.15 15.15 17.3 14.85 17.75 M16.25 8.25 L16.25 14.65 12.45 8.95 12.1 8.85 12.1 2.55 15.35 -1.25 15.75 3.5 16.15 6.8 16.25 7.9 16.25 8.05 16.25 8.25 16.25 7.9 16.25 8.25 M14.95 -5.3 Q13.75 -5.55 11.9 -5.3 10.8 -6.5 10.8 -8.6 10.8 -9.7 13.15 -13.15 13.75 -14.25 16.25 -21.7 L16.35 -16.35 16.95 -14.8 Q16.35 -13.5 16.35 -12.8 16.25 -9.45 14.75 -7.0 L14.95 -5.3 M20.4 -7.3 Q22.4 -3.5 23.3 -1.0 L22.9 3.0 Q22.6 11.25 21.4 12.65 L21.3 12.65 19.9 11.6 Q19.5 10.85 20.6 6.95 21.7 3.05 21.4 1.85 21.0 0.65 19.1 3.0 L19.1 0.75 Q19.1 -2.3 20.0 -3.85 20.6 -4.8 20.4 -7.3 M2.95 -21.1 L4.95 -19.7 5.55 -19.35 Q8.5 -17.8 11.4 -17.65 L11.6 -17.65 11.6 -13.65 Q11.2 -12.35 10.0 -11.25 9.0 -10.3 9.0 -8.9 9.0 -7.55 10.2 -4.2 10.2 -2.95 9.5 -2.6 9.6 -4.1 9.3 -4.45 7.8 -5.9 7.8 -6.5 L8.0 -7.35 8.5 -8.6 8.7 -12.65 Q8.7 -16.75 6.6 -17.9 3.55 -19.45 2.95 -21.1 M2.05 -14.2 L1.95 -16.85 2.85 -16.85 Q3.95 -16.85 5.35 -14.85 6.25 -13.5 6.25 -10.15 6.25 -8.6 4.95 -6.15 4.95 -4.6 6.3 -3.15 7.6 -1.65 7.6 0.75 7.6 3.75 6.6 7.55 L6.8 12.05 Q6.6 13.95 7.8 15.9 8.4 17.15 8.4 18.95 L8.4 19.9 8.0 21.1 Q6.9 23.1 6.6 23.1 5.25 23.1 5.25 21.6 4.15 21.2 4.05 19.2 3.75 16.35 3.75 3.35 L3.65 3.35 Q3.65 4.55 2.35 4.55 2.25 6.45 -0.6 12.3 L-3.1 17.4 -3.3 17.4 -3.4 9.1 Q-0.1 2.4 0.55 0.5 L0.55 -4.45 Q-2.2 -1.0 -3.4 -0.65 -3.3 0.05 -5.55 2.2 L-5.4 -1.75 Q-5.4 -2.55 -4.3 -4.2 -2.9 -6.05 -1.3 -6.7 2.05 -8.05 2.05 -14.2 M15.05 17.3 L14.25 17.15 14.95 17.3 15.05 17.3 M-5.1 16.7 L-4.6 18.25 -6.85 19.05 -7.25 17.8 Q-10.55 16.25 -10.75 15.25 -10.85 14.55 -9.05 11.0 -8.85 11.8 -7.05 13.7 -6.45 14.2 -5.1 16.7 M-11.6 -13.9 L-11.25 -13.5 Q-10.75 -12.1 -8.35 -10.9 -7.25 -10.45 -7.05 -9.85 L-6.95 -7.8 -7.05 -6.05 Q-7.45 -4.6 -8.15 -3.25 L-8.15 4.45 Q-11.9 6.95 -12.2 6.45 -12.5 5.9 -10.75 2.45 -10.35 1.6 -10.35 -1.6 L-11.6 -13.9" fill="#bf967b" fill-opacity="0.5764706" fill-rule="evenodd" stroke="none"/>
      <path d="M0.85 -20.55 L1.05 -17.55 Q1.05 -14.8 0.45 -13.3 L-0.5 -10.75 Q-0.9 -9.85 -2.1 -9.85 L-2.2 -9.85 -2.2 -9.8 Q-5.2 -9.5 -6.75 -10.4 -9.35 -11.85 -9.45 -12.95 -9.55 -13.5 -11.05 -15.05 -16.9 -16.7 -17.55 -18.95 L-16.3 -18.95 -15.7 -19.25 Q-13.9 -18.85 -14.1 -20.4 L-15.3 -22.3 -14.0 -21.0 -13.6 -20.8 -13.3 -20.65 Q-13.1 -19.55 -11.8 -17.3 -11.8 -16.5 -11.05 -16.25 L-6.45 -15.5 Q-4.9 -15.55 -4.5 -16.25 L-4.3 -16.7 0.85 -20.55" fill="#cfb39a" fill-opacity="0.2" fill-rule="evenodd" stroke="none"/>
      <path d="M-13.3 -20.65 Q-10.45 -19.25 -9.85 -18.5 -7.75 -16.15 -6.15 -16.15 -5.1 -16.15 -4.3 -16.7 L-4.5 -16.25 Q-4.9 -15.55 -6.45 -15.5 L-11.05 -16.25 Q-11.8 -16.5 -11.8 -17.3 -13.1 -19.55 -13.3 -20.65" fill="#bf967b" fill-opacity="0.32941177" fill-rule="evenodd" stroke="none"/>
      <path d="M16.25 -21.7 Q16.05 -29.0 15.25 -31.25 L12.15 -31.25 Q11.0 -31.25 8.2 -29.95 L6.05 -29.9 Q3.85 -29.0 3.15 -28.5 L1.95 -27.8 Q0.65 -24.9 0.65 -23.6 L0.85 -20.55 1.05 -17.55 Q1.05 -14.8 0.45 -13.3 L-0.5 -10.75 Q-0.9 -9.85 -2.1 -9.85 L-2.2 -9.85 -2.2 -9.8 Q-5.2 -9.5 -6.75 -10.4 -9.35 -11.85 -9.45 -12.95 -9.55 -13.5 -11.05 -15.05 -16.9 -16.7 -17.55 -18.95 L-18.75 -20.65 -20.45 -23.15 Q-22.95 -27.45 -23.05 -29.1 -22.25 -31.25 -19.35 -26.1 -16.5 -20.9 -15.2 -19.6 L-15.7 -19.25 M-15.3 -22.3 L-16.6 -23.95 -18.95 -28.15 Q-20.65 -31.45 -24.4 -31.95 -25.4 -29.7 -24.4 -27.2 -23.5 -24.8 -22.25 -22.55 -20.85 -20.4 -19.95 -18.0 L-19.55 -17.05 -20.85 -17.05 -21.45 -17.35 -21.45 -14.7 -20.95 -13.6 -20.85 -12.3 -20.85 -7.9 Q-20.25 -6.5 -20.25 1.45 L-19.95 3.5 M-0.1 29.65 L2.45 27.55 Q2.85 27.15 3.45 26.8 M5.55 25.75 Q6.4 25.3 7.7 24.9 L12.1 23.15 12.75 22.05 13.85 19.9 14.05 19.55 14.85 17.75 M16.85 16.35 Q17.75 15.9 19.1 15.4 L19.0 15.3 16.95 13.85 16.25 8.25 16.25 7.9 16.15 6.8 15.75 3.5 15.35 -1.25 14.95 -5.3 14.75 -7.0 Q16.25 -9.45 16.35 -12.8 16.35 -13.5 16.95 -14.8 17.85 -12.35 20.4 -7.35 L20.4 -7.3 Q22.4 -3.5 23.3 -1.0 23.9 0.85 23.9 2.05 L23.9 10.4 Q23.9 11.2 24.05 11.85 24.25 13.15 24.95 14.3 L24.95 14.7 Q24.55 15.65 22.7 17.3 L19.0 20.15 Q15.95 25.75 14.05 26.45 L6.25 27.55 6.15 27.65 Q4.25 29.3 1.15 30.65 L-1.8 31.8 -2.3 31.95 Q-2.0 30.75 -4.5 28.75 -7.05 26.7 -7.05 26.0 -6.65 23.25 -8.85 22.3 -10.35 21.7 -11.05 19.65 -11.7 17.15 -14.2 14.1 L-17.0 10.55 Q-19.25 6.35 -19.95 3.5 M16.25 -21.7 L16.35 -16.35 16.95 -14.8 M11.6 -17.65 Q14.15 -17.8 13.65 -26.8 13.15 -29.45 11.1 -28.85 9.0 -28.35 5.05 -26.6 2.75 -25.5 2.75 -21.35 L2.95 -21.1 4.95 -19.7 5.55 -19.35 Q8.5 -17.8 11.4 -17.65 L11.6 -17.65 M16.85 16.35 L15.25 17.15 15.15 17.3 14.85 17.75 M5.55 25.75 Q4.25 26.25 3.45 26.8 M24.05 11.85 L19.0 15.3 M-4.3 -16.7 Q-5.1 -16.15 -6.15 -16.15 -7.75 -16.15 -9.85 -18.5 -10.45 -19.25 -13.3 -20.65 M-4.3 -16.7 L0.85 -20.55 M-13.6 -20.8 L-14.0 -21.0 -15.3 -22.3 M-17.55 -18.95 L-16.3 -18.95 -15.7 -19.25 M-1.8 31.8 Q-1.8 31.0 -0.2 29.65 L-0.1 29.65" fill="none" stroke="#c7a488" stroke-linecap="round" stroke-linejoin="round" stroke-width="0.25"/>
    </g>
  </defs>
</svg>
