<?xml version="1.0" encoding="UTF-8" standalone="no"?>
<svg xmlns:xlink="http://www.w3.org/1999/xlink" height="51.95px" width="16.6px" xmlns="http://www.w3.org/2000/svg">
  <g transform="matrix(1.0, 0.0, 0.0, 1.0, 8.3, 25.95)">
    <use height="51.95" transform="matrix(1.0, 0.0, 0.0, 1.0, -8.3, -25.95)" width="16.6" xlink:href="#shape0"/>
  </g>
  <defs>
    <g id="shape0" transform="matrix(1.0, 0.0, 0.0, 1.0, 8.3, 25.95)">
      <path d="M-6.35 -17.65 Q-0.8 -16.3 6.75 -17.65 L6.75 -10.9 Q-0.05 -9.4 -6.35 -10.9 L-6.35 -17.65 M7.75 -1.3 Q5.75 2.0 3.15 5.1 0.05 8.5 -2.75 12.3 -6.45 17.25 -7.6 23.05 L-8.0 15.1 Q-6.65 11.25 -3.9 8.3 -1.1 5.3 2.0 2.7 5.3 -0.25 7.55 -3.85 L7.75 -1.3" fill="url(#gradient0)" fill-rule="evenodd" stroke="none"/>
      <path d="M6.75 -17.65 Q-0.8 -16.3 -6.35 -17.65 0.2 -18.95 6.75 -17.65" fill="#37b75c" fill-rule="evenodd" stroke="none"/>
      <path d="M-6.35 -10.9 Q-0.05 -9.4 6.75 -10.9 L7.55 -3.85 Q5.3 -0.25 2.0 2.7 -1.1 5.3 -3.9 8.3 -6.65 11.25 -8.0 15.1 -8.4 0.2 -6.35 -10.9 M-7.6 23.05 Q-6.45 17.25 -2.75 12.3 0.05 8.5 3.15 5.1 5.75 2.0 7.75 -1.3 8.45 9.6 7.55 23.2 7.55 24.4 6.5 24.85 0.2 26.7 -6.5 24.75 -7.6 24.4 -7.6 23.2 L-7.6 23.05" fill="url(#gradient1)" fill-rule="evenodd" stroke="none"/>
      <path d="M-6.35 -17.65 Q-0.8 -16.3 6.75 -17.65 0.2 -18.95 -6.35 -17.65 L-6.35 -10.9 Q-0.05 -9.4 6.75 -10.9 L6.75 -17.65 M7.75 -1.3 L7.55 -3.85 M-8.0 15.1 L-7.6 23.05 -7.6 23.2 Q-7.6 24.4 -6.5 24.75 0.2 26.7 6.5 24.85 7.55 24.4 7.55 23.2 8.45 9.6 7.75 -1.3 M-8.0 15.1 Q-8.4 0.2 -6.35 -10.9 M6.75 -10.9 L7.55 -3.85" fill="none" stroke="#006600" stroke-linecap="round" stroke-linejoin="round" stroke-width="0.5"/>
      <path d="M0.35 -21.8 L0.55 -21.9 0.6 -21.95 0.45 -22.05 0.35 -22.1 0.2 -22.15 -0.05 -22.2 -0.05 -22.15 -0.45 -22.1 -0.6 -22.05 -0.65 -22.0 -0.7 -21.95 -0.65 -21.9 -0.45 -21.8 Q-0.05 -21.6 0.35 -21.8 M-2.75 -18.95 L-4.1 -19.45 Q-5.85 -20.35 -5.85 -21.55 -5.85 -22.85 -4.1 -23.75 -2.3 -24.65 0.15 -24.65 2.65 -24.65 4.4 -23.75 6.2 -22.85 6.2 -21.55 6.2 -20.5 4.85 -19.7 L4.4 -19.45 Q2.7 -18.7 0.45 -18.6 L-0.65 -18.6 -2.75 -18.95" fill="url(#gradient2)" fill-rule="evenodd" stroke="none"/>
      <path d="M0.35 -21.8 Q-0.05 -21.6 -0.45 -21.8 L-0.65 -21.9 -0.7 -21.95 -0.65 -22.0 -0.6 -22.05 -0.45 -22.1 -0.05 -22.15 -0.05 -22.2 0.2 -22.15 0.35 -22.1 0.45 -22.05 0.6 -21.95 0.55 -21.9 0.35 -21.8" fill="url(#gradient3)" fill-rule="evenodd" stroke="none"/>
      <path d="M4.85 -19.7 Q6.2 -20.5 6.2 -21.55 6.2 -22.85 4.4 -23.75 2.65 -24.65 0.15 -24.65 -2.3 -24.65 -4.1 -23.75 -5.85 -22.85 -5.85 -21.55 -5.85 -20.35 -4.1 -19.45 L-2.75 -18.95 Q-3.75 -19.2 -4.7 -19.7 -6.65 -20.7 -6.65 -22.15 -6.65 -23.65 -4.7 -24.75 -2.7 -25.75 0.1 -25.7 2.9 -25.75 4.85 -24.75 6.85 -23.65 6.85 -22.15 6.85 -20.7 4.85 -19.7" fill="url(#gradient4)" fill-rule="evenodd" stroke="none"/>
      <path d="M-2.75 -18.95 L-4.1 -19.45 Q-5.85 -20.35 -5.85 -21.55 -5.85 -22.85 -4.1 -23.75 -2.3 -24.65 0.15 -24.65 2.65 -24.65 4.4 -23.75 6.2 -22.85 6.2 -21.55 6.2 -20.5 4.85 -19.7 6.85 -20.7 6.85 -22.15 6.85 -23.65 4.85 -24.75 2.9 -25.75 0.1 -25.7 -2.7 -25.75 -4.7 -24.75 -6.65 -23.65 -6.65 -22.15 -6.65 -20.7 -4.7 -19.7 -3.75 -19.2 -2.75 -18.95 L-0.65 -18.6 0.45 -18.6 Q2.7 -18.7 4.4 -19.45 L4.85 -19.7 M-2.75 -18.95 L-0.5 -18.55 0.5 -18.55 Q2.75 -18.65 4.4 -19.45" fill="none" stroke="#006600" stroke-linecap="round" stroke-linejoin="round" stroke-width="0.5"/>
      <path d="M1.05 -17.8 L-0.95 -17.8 -0.95 -18.75 1.05 -18.75 1.05 -17.8" fill="url(#gradient5)" fill-rule="evenodd" stroke="none"/>
      <path d="M1.05 -17.8 L-0.95 -17.8 -0.95 -18.75 1.05 -18.75 1.05 -17.8 Z" fill="none" stroke="#006600" stroke-linecap="round" stroke-linejoin="round" stroke-width="0.5"/>
    </g>
    <linearGradient gradientTransform="matrix(0.008, 0.0, 0.0, 0.0046, 0.2, -13.9)" gradientUnits="userSpaceOnUse" id="gradient0" spreadMethod="pad" x1="-819.2" x2="819.2">
      <stop offset="0.0" stop-color="#226f38"/>
      <stop offset="0.33725490196078434" stop-color="#2e964d"/>
      <stop offset="1.0" stop-color="#24753c"/>
    </linearGradient>
    <linearGradient gradientTransform="matrix(0.0098, 0.0, 0.0, 0.0223, -0.05, 7.4)" gradientUnits="userSpaceOnUse" id="gradient1" spreadMethod="pad" x1="-819.2" x2="819.2">
      <stop offset="0.0" stop-color="#2b8e47"/>
      <stop offset="0.33725490196078434" stop-color="#37b75c"/>
      <stop offset="0.6" stop-color="#36b45b"/>
      <stop offset="1.0" stop-color="#298945"/>
    </linearGradient>
    <linearGradient gradientTransform="matrix(0.0, -0.001, 0.0074, 0.0, 0.15, -21.25)" gradientUnits="userSpaceOnUse" id="gradient2" spreadMethod="pad" x1="-819.2" x2="819.2">
      <stop offset="0.0" stop-color="#2e964d"/>
      <stop offset="1.0" stop-color="#24753c"/>
    </linearGradient>
    <linearGradient gradientTransform="matrix(8.0E-4, 0.0, 0.0, 3.0E-4, -0.05, -22.0)" gradientUnits="userSpaceOnUse" id="gradient3" spreadMethod="pad" x1="-819.2" x2="819.2">
      <stop offset="0.0" stop-color="#2b8e47"/>
      <stop offset="0.33725490196078434" stop-color="#37b75c"/>
      <stop offset="0.6" stop-color="#36b45b"/>
      <stop offset="1.0" stop-color="#298945"/>
    </linearGradient>
    <linearGradient gradientTransform="matrix(0.0082, 0.0, 0.0, 0.0041, 0.1, -22.4)" gradientUnits="userSpaceOnUse" id="gradient4" spreadMethod="pad" x1="-819.2" x2="819.2">
      <stop offset="0.0" stop-color="#226f38"/>
      <stop offset="0.33725490196078434" stop-color="#2e964d"/>
      <stop offset="1.0" stop-color="#24753c"/>
    </linearGradient>
    <linearGradient gradientTransform="matrix(0.0012, 0.0, 0.0, 6.0E-4, 0.05, -18.3)" gradientUnits="userSpaceOnUse" id="gradient5" spreadMethod="pad" x1="-819.2" x2="819.2">
      <stop offset="0.0" stop-color="#226f38"/>
      <stop offset="0.33725490196078434" stop-color="#2e964d"/>
      <stop offset="1.0" stop-color="#24753c"/>
    </linearGradient>
  </defs>
</svg>
