<?xml version="1.0" encoding="UTF-8" standalone="no"?>
<svg xmlns:xlink="http://www.w3.org/1999/xlink" height="40.15px" width="13.9px" xmlns="http://www.w3.org/2000/svg">
  <g transform="matrix(1.0, 0.0, 0.0, 1.0, 6.95, 20.05)">
    <use height="40.15" transform="matrix(1.0, 0.0, 0.0, 1.0, -6.95, -20.05)" width="13.9" xlink:href="#shape0"/>
  </g>
  <defs>
    <g id="shape0" transform="matrix(1.0, 0.0, 0.0, 1.0, 6.95, 20.05)">
      <path d="M6.7 -11.5 L6.7 1.4 Q5.5 3.9 6.7 6.45 L6.7 16.8 Q6.15 18.55 5.0 19.4 L2.5 19.55 Q1.3 18.85 0.4 18.8 L0.0 18.75 -0.45 18.8 Q-1.35 18.85 -2.55 19.55 L-4.95 19.4 Q-6.25 18.55 -6.7 16.8 L-6.7 6.45 Q-5.55 3.9 -6.7 1.4 L-6.7 -11.5 Q-6.1 -13.7 -2.4 -16.55 L-2.4 -19.8 2.35 -19.8 2.35 -16.55 Q6.1 -13.7 6.7 -11.5" fill="url(#gradient0)" fill-rule="evenodd" stroke="none"/>
      <path d="M6.7 -11.5 L6.7 1.4 Q5.5 3.9 6.7 6.45 L6.7 16.8 Q6.15 18.55 5.0 19.4 L2.5 19.55 Q1.3 18.85 0.4 18.8 L0.0 18.75 -0.45 18.8 Q-1.35 18.85 -2.55 19.55 L-4.95 19.4 Q-6.25 18.55 -6.7 16.8 L-6.7 6.45 Q-5.55 3.9 -6.7 1.4 L-6.7 -11.5 Q-6.1 -13.7 -2.4 -16.55 L-2.4 -19.8 2.35 -19.8 2.35 -16.55 Q6.1 -13.7 6.7 -11.5 Z" fill="none" stroke="#84a6c8" stroke-linecap="round" stroke-linejoin="round" stroke-opacity="0.6509804" stroke-width="0.5"/>
      <path d="M-6.65 0.8 Q0.0 2.25 6.65 0.8 M-6.65 14.5 Q0.0 15.9 6.65 14.5 M-6.65 7.9 Q0.0 9.35 6.65 7.9 M-6.65 12.85 Q0.0 14.25 6.65 12.85 M-6.65 9.55 Q0.0 11.0 6.65 9.55 M-6.65 11.2 Q0.0 12.6 6.65 11.2 M-6.65 -4.1 Q0.0 -2.7 6.65 -4.1 M-6.65 -5.75 Q0.0 -4.35 6.65 -5.75 M-6.65 -2.5 Q0.0 -1.05 6.65 -2.5 M-6.65 -0.85 Q0.0 0.6 6.65 -0.85 M-2.5 -19.15 L2.3 -19.8 M-2.5 -18.05 L2.3 -18.75 M-2.5 -17.0 L2.3 -17.65 M-6.65 -7.4 Q0.0 -6.0 6.65 -7.4" fill="none" stroke="#96a4b6" stroke-linecap="round" stroke-linejoin="round" stroke-width="0.25"/>
      <path d="M-6.65 -6.85 Q0.0 -5.45 6.65 -6.85 M-6.65 1.35 Q0.0 2.75 6.65 1.35 M-6.65 -1.95 Q0.0 -0.5 6.65 -1.95 M-6.65 -3.55 Q0.0 -2.15 6.65 -3.55 M-6.65 11.75 Q0.0 13.15 6.65 11.75 M-6.65 15.05 Q0.0 16.45 6.65 15.05 M-6.65 8.45 Q0.0 9.9 6.65 8.45 M-6.65 6.8 Q0.0 8.25 6.65 6.8 M-6.65 13.4 Q0.0 14.8 6.65 13.4 M-6.65 10.1 Q0.0 11.55 6.65 10.1 M-6.65 -0.3 Q0.0 1.15 6.65 -0.3 M-6.65 -5.2 Q0.0 -3.8 6.65 -5.2 M-6.65 -8.5 Q0.0 -7.1 6.65 -8.5 M-2.5 -16.55 L2.3 -17.2 M-2.5 -17.65 L2.3 -18.3 M-2.5 -18.75 L2.3 -19.4" fill="none" stroke="#ffffff" stroke-linecap="round" stroke-linejoin="round" stroke-opacity="0.6313726" stroke-width="0.25"/>
      <path d="M3.05 -10.25 Q3.05 -7.9 1.7 -6.25 0.35 -4.6 -1.6 -4.6 -3.5 -4.6 -4.85 -6.25 -6.25 -7.9 -6.25 -10.25 -6.25 -12.6 -4.85 -14.25 -3.5 -15.9 -1.6 -15.9 0.35 -15.9 1.7 -14.25 3.05 -12.6 3.05 -10.25" fill="url(#gradient1)" fill-rule="evenodd" stroke="none"/>
      <path d="M6.8 -1.4 Q-0.05 0.15 -6.95 -1.4 L-6.95 -7.5 Q-0.25 -5.8 6.8 -7.5 L6.8 -1.4" fill="url(#gradient2)" fill-rule="evenodd" stroke="none"/>
    </g>
    <radialGradient cx="0" cy="0" gradientTransform="matrix(0.0254, 0.0, 0.0, 0.0254, -0.55, 0.35)" gradientUnits="userSpaceOnUse" id="gradient0" r="819.2" spreadMethod="pad">
      <stop offset="0.0" stop-color="#43ace6" stop-opacity="0.2901961"/>
      <stop offset="0.8470588235294118" stop-color="#ddf2f7" stop-opacity="0.67058825"/>
    </radialGradient>
    <radialGradient cx="0" cy="0" gradientTransform="matrix(0.0069, 0.0, 0.0, 0.0069, -1.6, -10.25)" gradientUnits="userSpaceOnUse" id="gradient1" r="819.2" spreadMethod="pad">
      <stop offset="0.0" stop-color="#ffffff"/>
      <stop offset="1.0" stop-color="#ffffff" stop-opacity="0.0"/>
    </radialGradient>
    <linearGradient gradientTransform="matrix(0.0084, 0.0, 0.0, 0.0037, -0.05, -4.45)" gradientUnits="userSpaceOnUse" id="gradient2" spreadMethod="pad" x1="-819.2" x2="819.2">
      <stop offset="0.4117647058823529" stop-color="#367be2"/>
      <stop offset="1.0" stop-color="#133d64"/>
    </linearGradient>
  </defs>
</svg>
