<?xml version="1.0" encoding="UTF-8" standalone="no"?>
<svg xmlns:xlink="http://www.w3.org/1999/xlink" height="46.15px" width="19.5px" xmlns="http://www.w3.org/2000/svg">
  <g transform="matrix(1.0, 0.0, 0.0, 1.0, 9.75, 23.1)">
    <use height="46.15" transform="matrix(1.0, 0.0, 0.0, 1.0, -9.75, -23.1)" width="19.5" xlink:href="#shape0"/>
  </g>
  <defs>
    <g id="shape0" transform="matrix(1.0, 0.0, 0.0, 1.0, 9.75, 23.1)">
      <path d="M2.75 -22.85 L7.3 -22.2 7.85 -22.05 Q9.6 -21.4 9.6 -20.45 9.55 -19.55 7.85 -18.85 L7.3 -18.7 3.7 -18.15 Q3.45 -18.4 2.75 -22.85 M-9.6 -20.45 Q-9.6 -21.45 -7.45 -22.2 L-2.9 -22.85 Q-3.6 -18.45 -3.85 -18.15 L-7.45 -18.7 Q-9.6 -19.5 -9.6 -20.45" fill="url(#gradient0)" fill-rule="evenodd" stroke="none"/>
      <path d="M9.6 -20.45 L9.6 -18.85 Q9.55 -17.95 7.85 -17.25 L7.3 -17.15 4.1 -16.6 3.7 -18.15 4.1 -16.6 -0.1 -16.4 -4.3 -16.6 -7.45 -17.15 Q-9.6 -17.9 -9.6 -18.85 L-9.6 -20.45 Q-9.6 -19.5 -7.45 -18.7 L-3.85 -18.15 -0.1 -18.0 3.7 -18.15 7.3 -18.7 7.85 -18.85 Q9.55 -19.55 9.6 -20.45 M-4.3 -16.6 L-3.85 -18.15 -4.3 -16.6" fill="url(#gradient1)" fill-rule="evenodd" stroke="none"/>
      <path d="M9.6 -18.85 L9.6 -14.3 Q9.55 -13.45 7.85 -12.75 L7.3 -12.6 -0.1 -11.85 Q-4.4 -11.85 -7.45 -12.6 -9.6 -13.35 -9.6 -14.3 L-9.6 -18.85 Q-9.6 -17.9 -7.45 -17.15 L-4.3 -16.6 Q-4.05 -15.9 -3.1 -15.35 -1.85 -14.65 -0.1 -14.65 1.65 -14.65 2.9 -15.35 3.85 -15.9 4.1 -16.6 L7.3 -17.15 7.85 -17.25 Q9.55 -17.95 9.6 -18.85" fill="url(#gradient2)" fill-rule="evenodd" stroke="none"/>
      <path d="M4.1 -16.6 Q3.85 -15.9 2.9 -15.35 1.65 -14.65 -0.1 -14.65 -1.85 -14.65 -3.1 -15.35 -4.05 -15.9 -4.3 -16.6 L-0.1 -16.4 4.1 -16.6" fill="#0162a0" fill-rule="evenodd" stroke="none"/>
      <path d="M9.6 -14.3 L9.55 20.25 9.6 20.45 Q9.6 21.35 7.85 22.1 L7.3 22.2 -0.1 22.95 -7.45 22.2 Q-9.6 21.45 -9.6 20.45 L-9.6 -14.3 Q-9.6 -13.35 -7.45 -12.6 -4.4 -11.85 -0.1 -11.85 L7.3 -12.6 7.85 -12.75 Q9.55 -13.45 9.6 -14.3" fill="url(#gradient3)" fill-rule="evenodd" stroke="none"/>
      <path d="M-2.9 -22.85 L-0.1 -22.95 2.75 -22.85 Q3.45 -18.4 3.7 -18.15 L-0.1 -18.0 -3.85 -18.15 Q-3.6 -18.45 -2.9 -22.85" fill="url(#gradient4)" fill-rule="evenodd" stroke="none"/>
      <path d="M2.75 -22.85 L7.3 -22.2 7.85 -22.05 Q9.6 -21.4 9.6 -20.45 L9.6 -18.85 9.6 -14.3 Q9.55 -13.45 7.85 -12.75 L7.3 -12.6 -0.1 -11.85 Q-4.4 -11.85 -7.45 -12.6 -9.6 -13.35 -9.6 -14.3 L-9.6 -18.85 -9.6 -20.45 Q-9.6 -21.45 -7.45 -22.2 L-2.9 -22.85 -0.1 -22.95 2.75 -22.85 Q3.45 -18.4 3.7 -18.15 L4.1 -16.6 7.3 -17.15 7.85 -17.25 Q9.55 -17.95 9.6 -18.85 M-4.3 -16.6 L-7.45 -17.15 Q-9.6 -17.9 -9.6 -18.85 M-3.85 -18.15 L-4.3 -16.6 -0.1 -16.4 4.1 -16.6 M-3.85 -18.15 Q-3.6 -18.45 -2.9 -22.85" fill="none" stroke="#01578f" stroke-linecap="round" stroke-linejoin="round" stroke-width="0.35000000000000003"/>
      <path d="M9.6 -14.3 L9.55 20.25 9.6 20.45 Q9.6 21.35 7.85 22.1 L7.3 22.2 -0.1 22.95 -7.45 22.2 Q-9.6 21.45 -9.6 20.45 L-9.6 -14.3" fill="none" stroke="#999999" stroke-linecap="round" stroke-linejoin="round" stroke-width="0.25"/>
      <path d="M5.8 -8.05 Q5.6 -8.0 5.75 -7.6 L5.8 -7.5 5.85 -7.35 Q6.2 -6.55 6.4 -6.6 L6.5 -7.05 6.35 -7.4 6.15 -7.7 5.95 -8.0 5.8 -8.05 M5.75 -8.4 Q6.15 -8.6 6.7 -8.15 L7.25 -7.35 7.35 -6.95 7.25 -6.2 6.75 -5.7 5.95 -5.8 5.35 -6.35 5.05 -7.1 Q4.9 -7.85 5.35 -8.2 L5.75 -8.4 M7.95 -9.2 Q8.25 -9.35 8.7 -8.95 L9.1 -8.1 9.15 -7.7 9.1 -7.0 8.7 -6.5 8.15 -6.6 7.9 -6.8 7.6 -7.15 7.35 -7.9 Q7.2 -8.6 7.65 -9.0 L7.9 -9.2 7.95 -9.2 M8.0 -8.8 L8.0 -8.35 8.05 -8.25 8.05 -8.15 Q8.3 -7.35 8.45 -7.4 L8.5 -7.85 8.4 -8.15 8.25 -8.45 8.15 -8.75 8.0 -8.8 M2.45 -6.9 L2.7 -7.2 3.05 -7.55 3.1 -7.5 3.15 -7.3 3.2 -7.3 3.5 -7.7 Q4.0 -7.9 4.55 -7.25 L5.15 -6.35 5.3 -5.9 Q5.35 -5.3 4.9 -5.15 L4.45 -5.1 4.25 -5.15 4.2 -5.1 4.6 -4.3 4.9 -4.05 5.1 -3.95 5.3 -3.5 Q5.45 -3.05 5.05 -2.9 L4.55 -2.8 Q3.6 -2.8 3.35 -3.3 L3.35 -3.75 3.45 -4.15 3.4 -4.5 2.8 -6.45 2.6 -6.65 2.4 -6.8 2.45 -6.9 M0.4 -6.25 L0.7 -6.75 1.25 -6.6 1.7 -6.1 2.3 -5.25 Q2.35 -5.2 2.55 -5.1 L2.7 -5.0 2.8 -4.85 2.8 -4.6 2.7 -4.4 2.45 -4.25 1.9 -4.2 1.5 -4.55 1.45 -4.65 1.45 -4.85 1.4 -5.05 1.0 -5.85 0.65 -6.1 Q0.5 -6.05 0.65 -5.7 L1.0 -4.9 1.2 -4.7 1.4 -4.4 Q1.55 -3.95 0.95 -3.7 L0.5 -3.65 Q0.3 -3.65 0.15 -3.8 L0.1 -3.95 0.1 -4.2 0.15 -4.35 0.15 -4.5 -0.1 -5.45 -0.2 -5.7 -0.35 -5.75 -0.45 -5.55 -0.45 -5.2 -0.2 -4.25 -0.1 -4.05 0.0 -3.85 Q0.0 -3.3 -0.7 -3.05 -1.15 -2.9 -1.25 -3.2 L-1.35 -3.6 -1.2 -3.9 -1.15 -4.2 -1.2 -5.45 -1.25 -5.55 -1.35 -5.6 -1.2 -5.9 -0.75 -6.25 -0.6 -6.15 -0.5 -5.95 -0.45 -6.1 -0.3 -6.3 -0.1 -6.45 0.2 -6.4 0.4 -6.25 M3.4 -6.85 L3.7 -6.3 3.85 -6.0 4.1 -5.85 4.2 -6.3 3.8 -6.95 3.45 -7.1 3.4 -6.85 M-6.2 -4.7 L-5.95 -4.0 -5.9 -4.0 -5.85 -4.15 -5.65 -4.45 -5.3 -4.35 -5.05 -4.1 -4.5 -3.1 -4.35 -2.95 -4.25 -2.85 -4.2 -2.8 -3.75 -2.4 Q-3.7 -2.2 -3.95 -2.05 L-4.25 -1.9 -4.75 -1.85 -5.05 -2.2 -5.05 -2.35 -5.05 -2.65 -5.15 -2.95 -5.5 -3.7 -5.75 -3.8 -5.8 -3.7 -5.85 -3.6 -5.5 -2.55 -5.35 -2.35 -5.2 -2.15 -5.2 -1.8 -5.6 -1.35 -6.0 -1.3 -6.3 -1.65 -6.2 -2.1 -6.2 -2.45 -6.55 -4.0 -6.55 -4.1 -6.6 -4.15 -6.6 -4.25 -6.6 -4.3 -6.55 -4.45 -6.55 -4.5 -6.3 -4.75 -6.2 -4.7 M-7.55 -4.2 L-7.65 -4.3 -7.9 -4.35 -8.0 -4.1 -7.95 -4.1 -7.8 -3.9 -7.4 -3.85 Q-7.15 -3.85 -6.95 -3.65 L-6.8 -3.2 -6.6 -2.65 -6.55 -1.7 Q-6.7 -0.95 -7.05 -0.7 L-7.7 -0.65 -8.25 -1.25 -8.4 -2.0 -8.3 -2.55 -8.25 -2.55 -7.9 -2.0 Q-7.7 -1.75 -7.55 -1.85 L-7.45 -1.9 -7.4 -2.35 -7.7 -2.7 -8.1 -2.85 -8.35 -3.0 -8.5 -3.6 -8.4 -4.2 -8.15 -4.65 -7.95 -4.7 -7.8 -4.7 -7.75 -4.75 -7.7 -4.8 -7.55 -4.7 -7.35 -4.4 Q-7.3 -4.2 -7.4 -4.1 L-7.55 -4.2 M-1.8 -3.9 L-1.5 -3.6 Q-1.4 -3.2 -1.8 -2.8 L-1.85 -2.75 -2.2 -2.85 -2.5 -3.05 -2.6 -2.75 -2.75 -2.45 -3.5 -2.4 -3.8 -2.85 -3.95 -3.25 Q-4.1 -4.1 -3.3 -4.35 L-3.3 -4.4 Q-3.1 -4.45 -3.25 -4.7 L-3.5 -4.95 -3.6 -4.85 -3.7 -4.55 -3.85 -4.45 -4.05 -4.6 -3.85 -5.05 -3.5 -5.3 -2.85 -5.2 -2.4 -4.7 -2.1 -4.05 Q-2.0 -3.9 -1.8 -3.9 M-3.1 -4.1 L-3.25 -3.9 -3.2 -3.65 -3.05 -3.3 -2.9 -3.25 -2.8 -3.7 -2.85 -3.8 -3.0 -4.05 -3.1 -4.1" fill="#007bbf" fill-rule="evenodd" stroke="none"/>
      <path d="M8.15 1.65 L9.5 4.1 9.5 14.1 8.15 16.6 Q5.9 19.65 2.65 19.65 -0.55 19.6 -2.85 16.5 -5.1 13.35 -5.1 9.0 -5.1 4.6 -2.85 1.55 -0.55 -1.55 2.65 -1.55 5.9 -1.5 8.15 1.65" fill="url(#gradient5)" fill-rule="evenodd" stroke="none"/>
      <path d="M2.05 -1.85 Q4.35 -2.35 6.05 -0.75 8.0 1.2 8.25 3.8 L8.45 5.3 8.85 9.65 Q9.0 11.65 8.45 13.75 7.65 16.6 5.0 17.45 2.5 18.3 0.25 16.9 -1.7 15.65 -2.65 13.45 -3.45 11.6 -3.45 9.5 -3.5 7.35 -2.3 5.4 -1.05 3.3 1.45 2.15 3.55 2.85 4.45 4.7 5.2 6.2 5.65 8.15 6.15 10.2 5.0 11.9 3.75 13.75 1.7 12.6 -2.0 10.6 -0.65 6.6 1.15 6.35 2.75 7.05 L2.7 7.65 1.85 7.7 Q0.75 9.15 0.4 10.8 L1.0 11.15 1.95 10.55 Q4.35 8.7 3.15 5.55 L1.35 4.45 Q0.5 4.7 0.0 5.25 -2.5 7.9 -1.7 11.55 -1.2 13.9 0.95 14.75 3.05 15.45 4.75 14.0 6.1 12.8 6.55 10.9 7.15 8.15 6.75 5.5 6.0 0.75 2.05 -1.85" fill="url(#gradient6)" fill-rule="evenodd" stroke="none"/>
      <path d="M2.95 19.85 L3.05 19.95 Q3.3 20.4 2.75 20.55 L1.7 20.0 2.1 19.5 2.05 19.35 Q2.0 19.2 2.5 19.15 L2.95 19.85 M4.8 18.65 Q4.9 18.55 4.95 18.6 L5.45 18.8 6.55 19.9 6.5 19.9 5.8 20.05 5.3 18.95 5.3 20.15 5.2 20.25 Q4.8 20.4 4.55 20.05 L4.8 18.65 M3.95 19.2 L4.45 19.6 4.0 20.5 Q3.1 20.7 3.3 19.8 L3.65 19.95 Q3.95 20.0 3.45 19.55 L3.95 19.2 M4.1 21.2 L4.5 21.65 3.55 21.8 3.05 21.75 3.9 21.05 Q4.5 21.1 4.1 21.2 M2.4 20.1 L2.4 19.7 2.2 19.7 2.2 20.1 2.4 20.1 M0.85 21.25 L1.75 21.25 1.75 21.85 1.05 21.45 0.85 21.25 M1.15 20.6 L0.45 19.75 0.05 20.5 -0.35 19.3 1.5 19.25 1.15 20.6 M1.9 21.75 L2.15 21.05 2.65 21.5 Q3.15 21.65 2.6 21.9 L2.45 21.9 1.9 21.75 M6.15 21.0 L6.5 21.4 5.75 21.5 5.7 20.9 5.15 21.6 4.6 21.6 5.8 20.85 Q5.7 20.5 6.0 20.8 L6.15 21.0 M-5.8 18.85 L-5.85 19.9 Q-6.25 20.25 -6.6 19.65 L-6.25 19.0 -6.1 18.6 Q-5.8 18.15 -5.9 18.7 L-4.7 20.0 -5.25 20.05 -5.8 18.85 M-6.65 21.5 L-5.55 20.9 -5.05 20.8 -4.9 20.8 -4.65 21.6 -5.3 21.7 -5.4 21.65 -5.4 21.0 -5.9 21.6 -6.6 21.5 -6.65 21.5 M-0.95 19.45 L-1.15 19.8 -1.85 20.45 -1.85 19.45 -0.95 19.45 M-1.8 21.6 L-2.85 21.9 Q-3.4 21.8 -3.15 21.55 L-3.05 21.5 -2.6 21.1 -2.15 21.2 -2.15 21.3 -1.8 21.6 M-2.3 21.65 L-2.3 21.4 -2.5 21.4 -2.5 21.65 -2.3 21.65 M-4.2 19.35 Q-4.6 19.15 -4.0 19.1 L-3.15 20.35 -3.65 20.4 -4.6 20.1 -4.2 19.35 M-2.25 19.05 L-2.0 20.3 -2.55 20.6 -2.7 20.6 Q-3.25 20.2 -2.75 19.85 L-2.25 19.05 M-4.05 21.1 L-3.55 21.3 Q-4.05 21.55 -3.75 21.55 L-3.4 21.45 Q-3.2 21.95 -4.1 21.85 L-4.55 21.35 -4.05 21.1 M-1.25 21.9 L-1.6 21.15 0.25 21.2 -0.15 21.85 -0.55 21.45 -1.25 21.9" fill="#007bbf" fill-rule="evenodd" stroke="none"/>
    </g>
    <linearGradient gradientTransform="matrix(0.0069, 0.0055, -0.0016, 0.0023, 0.85, -19.8)" gradientUnits="userSpaceOnUse" id="gradient0" spreadMethod="pad" x1="-819.2" x2="819.2">
      <stop offset="0.0" stop-color="#0079be"/>
      <stop offset="0.3803921568627451" stop-color="#00aee7"/>
      <stop offset="1.0" stop-color="#006bb3"/>
    </linearGradient>
    <linearGradient gradientTransform="matrix(0.0092, 0.0, 0.0, 0.0023, -2.6, -18.1)" gradientUnits="userSpaceOnUse" id="gradient1" spreadMethod="pad" x1="-819.2" x2="819.2">
      <stop offset="0.0" stop-color="#0079be"/>
      <stop offset="0.3803921568627451" stop-color="#00aee7"/>
      <stop offset="1.0" stop-color="#006bb3"/>
    </linearGradient>
    <linearGradient gradientTransform="matrix(0.0117, 0.0, 0.0, 0.0042, 0.0, -15.35)" gradientUnits="userSpaceOnUse" id="gradient2" spreadMethod="pad" x1="-819.2" x2="819.2">
      <stop offset="0.0" stop-color="#0079be"/>
      <stop offset="0.3803921568627451" stop-color="#00aee7"/>
      <stop offset="1.0" stop-color="#006bb3"/>
    </linearGradient>
    <linearGradient gradientTransform="matrix(0.0117, 0.0, 0.0, 0.0227, 0.0, 4.3)" gradientUnits="userSpaceOnUse" id="gradient3" spreadMethod="pad" x1="-819.2" x2="819.2">
      <stop offset="0.0" stop-color="#cdcdcd"/>
      <stop offset="0.26666666666666666" stop-color="#f2f2f2"/>
      <stop offset="0.7176470588235294" stop-color="#ffffff"/>
      <stop offset="1.0" stop-color="#b8b8b8"/>
    </linearGradient>
    <linearGradient gradientTransform="matrix(0.0039, 0.0031, -0.0028, 0.0038, -1.75, -20.9)" gradientUnits="userSpaceOnUse" id="gradient4" spreadMethod="pad" x1="-819.2" x2="819.2">
      <stop offset="0.0" stop-color="#0079be"/>
      <stop offset="0.3803921568627451" stop-color="#00aee7"/>
      <stop offset="1.0" stop-color="#006bb3"/>
    </linearGradient>
    <radialGradient cx="0" cy="0" gradientTransform="matrix(0.0092, 1.0E-4, 0.0, 0.0135, 2.65, 9.05)" gradientUnits="userSpaceOnUse" id="gradient5" r="819.2" spreadMethod="pad">
      <stop offset="0.0196078431372549" stop-color="#3366cc" stop-opacity="0.75686276"/>
      <stop offset="1.0" stop-color="#3366cc" stop-opacity="0.0"/>
    </radialGradient>
    <linearGradient gradientTransform="matrix(0.0117, 0.0, 0.0, 0.0042, 0.0, -15.35)" gradientUnits="userSpaceOnUse" id="gradient6" spreadMethod="pad" x1="-819.2" x2="819.2">
      <stop offset="0.0" stop-color="#0079be"/>
      <stop offset="0.3803921568627451" stop-color="#00aee7"/>
      <stop offset="1.0" stop-color="#006bb3"/>
    </linearGradient>
  </defs>
</svg>
