<?xml version="1.0" encoding="UTF-8" standalone="no"?>
<svg xmlns:xlink="http://www.w3.org/1999/xlink" height="67.05px" width="23.95px" xmlns="http://www.w3.org/2000/svg">
  <g transform="matrix(1.0, 0.0, 0.0, 1.0, 11.95, 33.5)">
    <use height="67.05" transform="matrix(1.0, 0.0, 0.0, 1.0, -11.95, -33.5)" width="23.95" xlink:href="#shape0"/>
  </g>
  <defs>
    <g id="shape0" transform="matrix(1.0, 0.0, 0.0, 1.0, 11.95, 33.5)">
      <path d="M2.9 -32.5 L2.7 -32.3 2.05 -32.1 0.05 -31.9 -1.95 -32.1 -2.6 -32.3 -2.8 -32.5 -2.8 -32.55 Q-2.8 -32.85 -1.95 -33.05 L0.05 -33.25 2.05 -33.05 Q2.9 -32.85 2.9 -32.55 L2.9 -32.5" fill="#3eb9b9" fill-opacity="0.49803922" fill-rule="evenodd" stroke="none"/>
      <path d="M-2.8 -32.5 L-2.6 -32.3 -1.95 -32.1 0.05 -31.9 2.05 -32.1 2.7 -32.3 2.9 -32.5 2.9 -31.5 2.7 -31.3 2.05 -31.1 0.05 -30.9 -1.95 -31.1 -2.6 -31.3 -2.8 -31.5 -2.6 -31.3 -1.95 -31.1 0.05 -30.9 2.05 -31.1 2.7 -31.3 2.9 -31.5 2.9 -30.5 2.9 -29.5 2.9 -28.75 2.9 -28.25 0.1 -28.0 -2.9 -28.3 -2.9 -28.7 -2.85 -29.5 -2.6 -29.3 -1.95 -29.1 0.05 -28.9 2.05 -29.1 2.7 -29.3 2.9 -29.5 2.7 -29.3 2.05 -29.1 0.05 -28.9 -1.95 -29.1 -2.6 -29.3 -2.85 -29.5 -2.85 -30.5 -2.8 -31.5 -2.8 -32.5 M-4.1 -28.15 L-3.75 -27.85 -2.9 -27.65 0.1 -27.35 2.9 -27.6 3.05 -27.65 3.95 -27.85 4.3 -28.15 4.3 -27.55 Q4.3 -27.25 3.05 -27.0 L2.9 -27.0 0.1 -26.75 -2.9 -27.0 0.1 -26.75 2.9 -27.0 2.9 -26.35 Q3.05 -25.05 4.2 -24.15 10.35 -20.1 11.75 -10.45 0.0 -9.0 -11.7 -10.45 -10.35 -20.1 -4.15 -24.15 -3.05 -25.05 -2.9 -26.35 L-2.9 -27.0 Q-4.1 -27.25 -4.1 -27.55 L-4.1 -28.15 M2.9 -30.5 L2.7 -30.3 2.05 -30.1 0.05 -29.9 -1.95 -30.1 -2.6 -30.3 -2.85 -30.5 -2.6 -30.3 -1.95 -30.1 0.05 -29.9 2.05 -30.1 2.7 -30.3 2.9 -30.5 M11.35 18.85 L11.25 24.15 Q9.4 35.35 3.25 31.0 L2.95 31.4 Q-0.3 35.2 -3.35 31.3 L-3.65 30.9 Q-9.95 35.6 -11.25 24.15 L-11.3 18.85 Q0.0 19.9 11.35 18.85 M4.55 29.05 L3.25 31.0 4.55 29.05 M-4.8 29.05 L-3.65 30.9 -4.8 29.05" fill="url(#gradient0)" fill-rule="evenodd" stroke="none"/>
      <path d="M4.3 -28.15 L3.95 -27.85 3.05 -27.65 2.9 -27.6 0.1 -27.35 -2.9 -27.65 -3.75 -27.85 -4.1 -28.15 Q-4.1 -28.45 -2.9 -28.7 L-2.9 -28.3 0.1 -28.0 2.9 -28.25 2.9 -28.75 3.05 -28.7 4.3 -28.15" fill="#eaeaea" fill-opacity="0.8117647" fill-rule="evenodd" stroke="none"/>
      <path d="M11.75 -10.45 L11.35 18.85 Q0.0 19.9 -11.3 18.85 L-11.45 10.7 Q-11.4 11.65 -10.65 12.4 -9.85 13.2 -8.75 13.2 -7.65 13.2 -6.85 12.4 -6.05 11.6 -6.05 10.5 -6.05 9.4 -6.85 8.6 -7.65 7.8 -8.75 7.8 -9.85 7.8 -10.65 8.6 -11.35 9.3 -11.45 10.3 L-11.7 -10.45 Q0.0 -9.0 11.75 -10.45 M7.4 15.55 Q7.4 14.5 6.65 13.75 5.95 13.05 4.9 13.05 3.85 13.05 3.1 13.75 2.4 14.5 2.4 15.55 2.4 16.6 3.1 17.3 3.85 18.05 4.9 18.05 5.95 18.05 6.65 17.3 7.4 16.6 7.4 15.55 M2.55 2.0 Q1.1 2.0 0.05 3.0 -0.95 4.05 -0.95 5.5 -0.95 6.95 0.05 7.95 1.1 9.0 2.55 9.0 4.0 9.0 5.0 7.95 6.05 6.95 6.05 5.5 6.05 4.05 5.0 3.0 4.0 2.0 2.55 2.0 M8.95 2.9 Q9.35 2.5 9.35 1.95 9.35 1.4 8.95 1.0 8.55 0.6 8.0 0.6 7.45 0.6 7.05 1.0 6.65 1.4 6.65 1.95 6.65 2.5 7.05 2.9 7.45 3.3 8.0 3.3 8.55 3.3 8.95 2.9 M10.15 10.05 L10.6 9.0 Q10.6 8.4 10.15 7.95 9.7 7.5 9.1 7.5 8.5 7.5 8.05 7.95 7.6 8.4 7.6 9.0 7.6 9.6 8.05 10.05 8.5 10.5 9.1 10.5 9.7 10.5 10.15 10.05 M5.75 -2.4 Q6.5 -1.65 7.5 -1.65 8.5 -1.65 9.2 -2.4 9.95 -3.1 9.95 -4.1 9.95 -5.1 9.2 -5.85 8.5 -6.55 7.5 -6.55 6.5 -6.55 5.75 -5.85 5.05 -5.1 5.05 -4.1 5.05 -3.1 5.75 -2.4 M1.7 -3.3 Q1.05 -3.95 0.1 -3.95 -0.85 -3.95 -1.55 -3.3 -2.2 -2.6 -2.2 -1.65 -2.2 -0.7 -1.55 -0.05 -0.85 0.65 0.1 0.65 1.05 0.65 1.7 -0.05 2.4 -0.7 2.4 -1.65 2.4 -2.6 1.7 -3.3 M1.05 -7.65 Q0.65 -7.25 0.65 -6.7 0.65 -6.15 1.05 -5.75 1.45 -5.35 2.0 -5.35 2.55 -5.35 2.95 -5.75 3.35 -6.15 3.35 -6.7 3.35 -7.25 2.95 -7.65 2.55 -8.05 2.0 -8.05 1.45 -8.05 1.05 -7.65 M-2.65 3.55 Q-2.65 2.45 -3.4 1.7 -4.15 0.95 -5.25 0.95 -6.35 0.95 -7.1 1.7 -7.85 2.45 -7.85 3.55 -7.85 4.65 -7.1 5.4 -6.35 6.15 -5.25 6.15 -4.15 6.15 -3.4 5.4 -2.65 4.65 -2.65 3.55 M-8.2 -5.95 Q-8.95 -5.2 -8.95 -4.15 -8.95 -3.1 -8.2 -2.35 -7.45 -1.6 -6.4 -1.6 -5.35 -1.6 -4.6 -2.35 -3.85 -3.1 -3.85 -4.15 -3.85 -5.2 -4.6 -5.95 -5.35 -6.7 -6.4 -6.7 -7.45 -6.7 -8.2 -5.95 M-9.15 16.05 L-9.45 16.75 -9.15 17.45 -8.45 17.75 -7.75 17.45 Q-7.45 17.15 -7.45 16.75 -7.45 16.35 -7.75 16.05 -8.05 15.75 -8.45 15.75 -8.85 15.75 -9.15 16.05 M-3.2 11.15 Q-4.2 11.15 -4.95 11.85 -5.65 12.6 -5.65 13.6 -5.65 14.6 -4.95 15.3 -4.2 16.05 -3.2 16.05 -2.2 16.05 -1.5 15.3 -0.75 14.6 -0.75 13.6 -0.75 12.6 -1.5 11.85 -2.2 11.15 -3.2 11.15" fill="url(#gradient1)" fill-rule="evenodd" stroke="none"/>
      <path d="M-11.45 10.7 L-11.45 10.5 -11.45 10.3 Q-11.35 9.3 -10.65 8.6 -9.85 7.8 -8.75 7.8 -7.65 7.8 -6.85 8.6 -6.05 9.4 -6.05 10.5 -6.05 11.6 -6.85 12.4 -7.65 13.2 -8.75 13.2 -9.85 13.2 -10.65 12.4 -11.4 11.65 -11.45 10.7 M1.05 -7.65 Q1.45 -8.05 2.0 -8.05 2.55 -8.05 2.95 -7.65 3.35 -7.25 3.35 -6.7 3.35 -6.15 2.95 -5.75 2.55 -5.35 2.0 -5.35 1.45 -5.35 1.05 -5.75 0.65 -6.15 0.65 -6.7 0.65 -7.25 1.05 -7.65 M1.7 -3.3 Q2.4 -2.6 2.4 -1.65 2.4 -0.7 1.7 -0.05 1.05 0.65 0.1 0.65 -0.85 0.65 -1.55 -0.05 -2.2 -0.7 -2.2 -1.65 -2.2 -2.6 -1.55 -3.3 -0.85 -3.95 0.1 -3.95 1.05 -3.95 1.7 -3.3 M5.75 -2.4 Q5.05 -3.1 5.05 -4.1 5.05 -5.1 5.75 -5.85 6.5 -6.55 7.5 -6.55 8.5 -6.55 9.2 -5.85 9.95 -5.1 9.95 -4.1 9.95 -3.1 9.2 -2.4 8.5 -1.65 7.5 -1.65 6.5 -1.65 5.75 -2.4 M10.15 10.05 Q9.7 10.5 9.1 10.5 8.5 10.5 8.05 10.05 7.6 9.6 7.6 9.0 7.6 8.4 8.05 7.95 8.5 7.5 9.1 7.5 9.7 7.5 10.15 7.95 10.6 8.4 10.6 9.0 L10.15 10.05 M8.95 2.9 Q8.55 3.3 8.0 3.3 7.45 3.3 7.05 2.9 6.65 2.5 6.65 1.95 6.65 1.4 7.05 1.0 7.45 0.6 8.0 0.6 8.55 0.6 8.95 1.0 9.35 1.4 9.35 1.95 9.35 2.5 8.95 2.9 M2.55 2.0 Q4.0 2.0 5.0 3.0 6.05 4.05 6.05 5.5 6.05 6.95 5.0 7.95 4.0 9.0 2.55 9.0 1.1 9.0 0.05 7.95 -0.95 6.95 -0.95 5.5 -0.95 4.05 0.05 3.0 1.1 2.0 2.55 2.0 M7.4 15.55 Q7.4 16.6 6.65 17.3 5.95 18.05 4.9 18.05 3.85 18.05 3.1 17.3 2.4 16.6 2.4 15.55 2.4 14.5 3.1 13.75 3.85 13.05 4.9 13.05 5.95 13.05 6.65 13.75 7.4 14.5 7.4 15.55 M-8.2 -5.95 Q-7.45 -6.7 -6.4 -6.7 -5.35 -6.7 -4.6 -5.95 -3.85 -5.2 -3.85 -4.15 -3.85 -3.1 -4.6 -2.35 -5.35 -1.6 -6.4 -1.6 -7.45 -1.6 -8.2 -2.35 -8.95 -3.1 -8.95 -4.15 -8.95 -5.2 -8.2 -5.95 M-2.65 3.55 Q-2.65 4.65 -3.4 5.4 -4.15 6.15 -5.25 6.15 -6.35 6.15 -7.1 5.4 -7.85 4.65 -7.85 3.55 -7.85 2.45 -7.1 1.7 -6.35 0.95 -5.25 0.95 -4.15 0.95 -3.4 1.7 -2.65 2.45 -2.65 3.55 M-3.2 11.15 Q-2.2 11.15 -1.5 11.85 -0.75 12.6 -0.75 13.6 -0.75 14.6 -1.5 15.3 -2.2 16.05 -3.2 16.05 -4.2 16.05 -4.95 15.3 -5.65 14.6 -5.65 13.6 -5.65 12.6 -4.95 11.85 -4.2 11.15 -3.2 11.15 M-9.15 16.05 Q-8.85 15.75 -8.45 15.75 -8.05 15.75 -7.75 16.05 -7.45 16.35 -7.45 16.75 -7.45 17.15 -7.75 17.45 L-8.45 17.75 -9.15 17.45 -9.45 16.75 -9.15 16.05" fill="#333399" fill-rule="evenodd" stroke="none"/>
      <path d="M-2.8 -32.5 L-2.6 -32.3 -1.95 -32.1 0.05 -31.9 2.05 -32.1 2.7 -32.3 2.9 -32.5 2.9 -32.55 Q2.9 -32.85 2.05 -33.05 L0.05 -33.25 -1.95 -33.05 Q-2.8 -32.85 -2.8 -32.55 L-2.8 -32.5 -2.8 -31.5 -2.6 -31.3 -1.95 -31.1 0.05 -30.9 2.05 -31.1 2.7 -31.3 2.9 -31.5 2.9 -32.5 M4.3 -28.15 L3.95 -27.85 3.05 -27.65 2.9 -27.6 0.1 -27.35 -2.9 -27.65 -3.75 -27.85 -4.1 -28.15 -4.1 -27.55 Q-4.1 -27.25 -2.9 -27.0 L0.1 -26.75 2.9 -27.0 3.05 -27.0 Q4.3 -27.25 4.3 -27.55 L4.3 -28.15 3.05 -28.7 2.9 -28.75 2.9 -28.25 0.1 -28.0 -2.9 -28.3 -2.9 -28.7 Q-4.1 -28.45 -4.1 -28.15 M-2.85 -30.5 L-2.6 -30.3 -1.95 -30.1 0.05 -29.9 2.05 -30.1 2.7 -30.3 2.9 -30.5 2.9 -31.5 M2.9 -30.5 L2.9 -29.5 2.9 -28.75 M2.9 -29.5 L2.7 -29.3 2.05 -29.1 0.05 -28.9 -1.95 -29.1 -2.6 -29.3 -2.85 -29.5 -2.9 -28.7 M2.9 -27.0 L2.9 -26.35 Q3.05 -25.05 4.2 -24.15 10.35 -20.1 11.75 -10.45 L11.35 18.85 11.25 24.15 Q9.4 35.35 3.25 31.0 L2.95 31.4 Q-0.3 35.2 -3.35 31.3 L-3.65 30.9 Q-9.95 35.6 -11.25 24.15 L-11.3 18.85 -11.45 10.7 M-11.45 10.5 L-11.45 10.3 -11.7 -10.45 Q-10.35 -20.1 -4.15 -24.15 -3.05 -25.05 -2.9 -26.35 L-2.9 -27.0 M3.25 31.0 L4.55 29.05 M-2.85 -29.5 L-2.85 -30.5 -2.8 -31.5 M-3.65 30.9 L-4.8 29.05 M-11.3 18.85 Q0.0 19.9 11.35 18.85 M11.75 -10.45 Q0.0 -9.0 -11.7 -10.45" fill="none" stroke="#d9d9d9" stroke-linecap="round" stroke-linejoin="round" stroke-opacity="0.54901963" stroke-width="0.5"/>
    </g>
    <radialGradient cx="0" cy="0" gradientTransform="matrix(0.017, 0.0, 0.0, 0.0569, 3.8, -0.2)" gradientUnits="userSpaceOnUse" id="gradient0" r="819.2" spreadMethod="pad">
      <stop offset="0.0" stop-color="#cbebf8" stop-opacity="0.2901961"/>
      <stop offset="0.8470588235294118" stop-color="#b5e7ec" stop-opacity="0.67058825"/>
    </radialGradient>
    <linearGradient gradientTransform="matrix(0.0143, 0.0, 0.0, 0.0182, 0.0, 4.45)" gradientUnits="userSpaceOnUse" id="gradient1" spreadMethod="pad" x1="-819.2" x2="819.2">
      <stop offset="0.0" stop-color="#4853ae"/>
      <stop offset="0.4117647058823529" stop-color="#4353de"/>
      <stop offset="1.0" stop-color="#37429d"/>
    </linearGradient>
  </defs>
</svg>
