<?xml version="1.0" encoding="UTF-8" standalone="no"?>
<svg xmlns:xlink="http://www.w3.org/1999/xlink" height="67.05px" width="23.95px" xmlns="http://www.w3.org/2000/svg">
  <g transform="matrix(1.0, 0.0, 0.0, 1.0, 11.95, 33.5)">
    <use height="67.05" transform="matrix(1.0, 0.0, 0.0, 1.0, -11.95, -33.5)" width="23.95" xlink:href="#shape0"/>
  </g>
  <defs>
    <g id="shape0" transform="matrix(1.0, 0.0, 0.0, 1.0, 11.95, 33.5)">
      <path d="M2.9 -32.5 L2.7 -32.3 2.05 -32.1 0.05 -31.9 -1.95 -32.1 -2.6 -32.3 -2.8 -32.5 -2.8 -32.55 Q-2.8 -32.85 -1.95 -33.05 L0.05 -33.25 2.05 -33.05 Q2.9 -32.85 2.9 -32.55 L2.9 -32.5" fill="#48852e" fill-opacity="0.68235296" fill-rule="evenodd" stroke="none"/>
      <path d="M-2.8 -32.5 L-2.6 -32.3 -1.95 -32.1 0.05 -31.9 2.05 -32.1 2.7 -32.3 2.9 -32.5 2.9 -31.5 2.7 -31.3 2.05 -31.1 0.05 -30.9 -1.95 -31.1 -2.6 -31.3 -2.8 -31.5 -2.6 -31.3 -1.95 -31.1 0.05 -30.9 2.05 -31.1 2.7 -31.3 2.9 -31.5 2.9 -30.5 2.9 -29.5 2.9 -28.75 2.9 -28.25 0.1 -28.0 -2.9 -28.3 -2.9 -28.7 -2.85 -29.5 -2.6 -29.3 -1.95 -29.1 0.05 -28.9 2.05 -29.1 2.7 -29.3 2.9 -29.5 2.7 -29.3 2.05 -29.1 0.05 -28.9 -1.95 -29.1 -2.6 -29.3 -2.85 -29.5 -2.85 -30.5 -2.6 -30.3 -1.95 -30.1 0.05 -29.9 2.05 -30.1 2.7 -30.3 2.9 -30.5 2.7 -30.3 2.05 -30.1 0.05 -29.9 -1.95 -30.1 -2.6 -30.3 -2.85 -30.5 -2.8 -31.5 -2.8 -32.5 M-4.1 -28.15 L-3.75 -27.85 -2.9 -27.65 0.1 -27.35 2.9 -27.6 3.05 -27.65 3.95 -27.85 4.3 -28.15 4.3 -27.55 Q4.3 -27.25 3.05 -27.0 L2.9 -27.0 2.9 -26.35 Q3.05 -25.05 4.2 -24.15 10.35 -20.1 11.75 -10.45 0.0 -9.0 -11.7 -10.45 -10.35 -20.1 -4.15 -24.15 -3.05 -25.05 -2.9 -26.35 L-2.9 -27.0 Q-4.1 -27.25 -4.1 -27.55 L-4.1 -28.15 M2.9 -27.0 L0.1 -26.75 -2.9 -27.0 0.1 -26.75 2.9 -27.0 M11.35 18.85 L11.25 24.15 Q9.4 35.35 3.25 31.0 L2.95 31.4 Q-0.3 35.2 -3.35 31.3 L-3.65 30.9 Q-9.95 35.6 -11.25 24.15 L-11.3 18.85 Q0.0 19.9 11.35 18.85 M4.55 29.05 L3.25 31.0 4.55 29.05 M-3.65 30.9 L-4.8 29.05 -3.65 30.9" fill="url(#gradient0)" fill-rule="evenodd" stroke="none"/>
      <path d="M4.3 -28.15 L3.95 -27.85 3.05 -27.65 2.9 -27.6 0.1 -27.35 -2.9 -27.65 -3.75 -27.85 -4.1 -28.15 Q-4.1 -28.45 -2.9 -28.7 L-2.9 -28.3 0.1 -28.0 2.9 -28.25 2.9 -28.75 3.05 -28.7 4.3 -28.15" fill="#9ae89a" fill-opacity="0.6313726" fill-rule="evenodd" stroke="none"/>
      <path d="M11.75 -10.45 L11.35 18.85 Q0.0 19.9 -11.3 18.85 L-11.7 -10.45 Q0.0 -9.0 11.75 -10.45 M0.75 12.9 Q0.1 13.55 0.1 14.5 0.1 15.45 0.75 16.1 1.4 16.75 2.35 16.75 3.3 16.75 3.95 16.1 4.6 15.45 4.6 14.5 4.6 13.55 3.95 12.9 3.3 12.25 2.35 12.25 1.4 12.25 0.75 12.9 M9.15 12.55 Q8.4 12.55 7.85 13.05 7.35 13.6 7.35 14.35 7.35 15.1 7.85 15.6 8.4 16.15 9.15 16.15 9.9 16.15 10.4 15.6 10.95 15.1 10.95 14.35 10.95 13.6 10.4 13.05 9.9 12.55 9.15 12.55 M3.45 6.5 Q2.65 7.3 2.65 8.4 2.65 9.5 3.45 10.3 4.25 11.1 5.35 11.1 6.45 11.1 7.25 10.3 8.05 9.5 8.05 8.4 8.05 7.3 7.25 6.5 6.45 5.7 5.35 5.7 4.25 5.7 3.45 6.5 M0.15 9.25 Q1.05 8.4 1.05 7.15 1.05 5.9 0.15 5.0 -0.7 4.15 -1.95 4.15 -3.2 4.15 -4.1 5.0 -4.95 5.9 -4.95 7.15 -4.95 8.4 -4.1 9.25 -3.2 10.15 -1.95 10.15 -0.7 10.15 0.15 9.25 M3.0 -4.05 Q1.45 -4.05 0.35 -3.0 -0.7 -1.9 -0.7 -0.35 -0.7 1.2 0.35 2.25 1.45 3.35 3.0 3.35 4.55 3.35 5.6 2.25 6.7 1.2 6.7 -0.35 6.7 -1.9 5.6 -3.0 4.55 -4.05 3.0 -4.05 M7.3 -7.95 Q6.4 -7.95 5.75 -7.35 5.15 -6.7 5.15 -5.8 5.15 -4.9 5.75 -4.3 6.4 -3.65 7.3 -3.65 8.2 -3.65 8.8 -4.3 9.45 -4.9 9.45 -5.8 9.45 -6.7 8.8 -7.35 8.2 -7.95 7.3 -7.95 M-6.0 11.55 Q-7.2 11.55 -8.05 12.35 -8.85 13.2 -8.85 14.4 -8.85 15.6 -8.05 16.4 -7.2 17.25 -6.0 17.25 -4.8 17.25 -4.0 16.4 -3.15 15.6 -3.15 14.4 -3.15 13.2 -4.0 12.35 -4.8 11.55 -6.0 11.55 M-6.2 8.25 Q-6.65 7.8 -7.3 7.8 -7.95 7.8 -8.4 8.25 -8.85 8.7 -8.85 9.35 -8.85 10.0 -8.4 10.45 -7.95 10.9 -7.3 10.9 -6.65 10.9 -6.2 10.45 -5.75 10.0 -5.75 9.35 -5.75 8.7 -6.2 8.25 M-4.35 3.5 Q-4.35 2.8 -4.85 2.3 -5.35 1.8 -6.05 1.8 -6.75 1.8 -7.25 2.3 -7.75 2.8 -7.75 3.5 -7.75 4.2 -7.25 4.7 -6.75 5.2 -6.05 5.2 -5.35 5.2 -4.85 4.7 -4.35 4.2 -4.35 3.5 M-6.1 -6.9 Q-7.25 -6.9 -8.05 -6.1 -8.85 -5.3 -8.85 -4.15 -8.85 -3.0 -8.05 -2.2 -7.25 -1.4 -6.1 -1.4 -4.95 -1.4 -4.15 -2.2 -3.35 -3.0 -3.35 -4.15 -3.35 -5.3 -4.15 -6.1 -4.95 -6.9 -6.1 -6.9" fill="url(#gradient1)" fill-rule="evenodd" stroke="none"/>
      <path d="M7.3 -7.95 Q8.2 -7.95 8.8 -7.35 9.45 -6.7 9.45 -5.8 9.45 -4.9 8.8 -4.3 8.2 -3.65 7.3 -3.65 6.4 -3.65 5.75 -4.3 5.15 -4.9 5.15 -5.8 5.15 -6.7 5.75 -7.35 6.4 -7.95 7.3 -7.95 M3.0 -4.05 Q4.55 -4.05 5.6 -3.0 6.7 -1.9 6.7 -0.35 6.7 1.2 5.6 2.25 4.55 3.35 3.0 3.35 1.45 3.35 0.35 2.25 -0.7 1.2 -0.7 -0.35 -0.7 -1.9 0.35 -3.0 1.45 -4.05 3.0 -4.05 M0.15 9.25 Q-0.7 10.15 -1.95 10.15 -3.2 10.15 -4.1 9.25 -4.95 8.4 -4.95 7.15 -4.95 5.9 -4.1 5.0 -3.2 4.15 -1.95 4.15 -0.7 4.15 0.15 5.0 1.05 5.9 1.05 7.15 1.05 8.4 0.15 9.25 M3.45 6.5 Q4.25 5.7 5.35 5.7 6.45 5.7 7.25 6.5 8.05 7.3 8.05 8.4 8.05 9.5 7.25 10.3 6.45 11.1 5.35 11.1 4.25 11.1 3.45 10.3 2.65 9.5 2.65 8.4 2.65 7.3 3.45 6.5 M9.15 12.55 Q9.9 12.55 10.4 13.05 10.95 13.6 10.95 14.35 10.95 15.1 10.4 15.6 9.9 16.15 9.15 16.15 8.4 16.15 7.85 15.6 7.35 15.1 7.35 14.35 7.35 13.6 7.85 13.05 8.4 12.55 9.15 12.55 M0.75 12.9 Q1.4 12.25 2.35 12.25 3.3 12.25 3.95 12.9 4.6 13.55 4.6 14.5 4.6 15.45 3.95 16.1 3.3 16.75 2.35 16.75 1.4 16.75 0.75 16.1 0.1 15.45 0.1 14.5 0.1 13.55 0.75 12.9 M-6.1 -6.9 Q-4.95 -6.9 -4.15 -6.1 -3.35 -5.3 -3.35 -4.15 -3.35 -3.0 -4.15 -2.2 -4.95 -1.4 -6.1 -1.4 -7.25 -1.4 -8.05 -2.2 -8.85 -3.0 -8.85 -4.15 -8.85 -5.3 -8.05 -6.1 -7.25 -6.9 -6.1 -6.9 M-4.35 3.5 Q-4.35 4.2 -4.85 4.7 -5.35 5.2 -6.05 5.2 -6.75 5.2 -7.25 4.7 -7.75 4.2 -7.75 3.5 -7.75 2.8 -7.25 2.3 -6.75 1.8 -6.05 1.8 -5.35 1.8 -4.85 2.3 -4.35 2.8 -4.35 3.5 M-6.2 8.25 Q-5.75 8.7 -5.75 9.35 -5.75 10.0 -6.2 10.45 -6.65 10.9 -7.3 10.9 -7.95 10.9 -8.4 10.45 -8.85 10.0 -8.85 9.35 -8.85 8.7 -8.4 8.25 -7.95 7.8 -7.3 7.8 -6.65 7.8 -6.2 8.25 M-6.0 11.55 Q-4.8 11.55 -4.0 12.35 -3.15 13.2 -3.15 14.4 -3.15 15.6 -4.0 16.4 -4.8 17.25 -6.0 17.25 -7.2 17.25 -8.05 16.4 -8.85 15.6 -8.85 14.4 -8.85 13.2 -8.05 12.35 -7.2 11.55 -6.0 11.55" fill="#cae8d2" fill-rule="evenodd" stroke="none"/>
      <path d="M-2.8 -32.5 L-2.6 -32.3 -1.95 -32.1 0.05 -31.9 2.05 -32.1 2.7 -32.3 2.9 -32.5 2.9 -32.55 Q2.9 -32.85 2.05 -33.05 L0.05 -33.25 -1.95 -33.05 Q-2.8 -32.85 -2.8 -32.55 L-2.8 -32.5 -2.8 -31.5 -2.6 -31.3 -1.95 -31.1 0.05 -30.9 2.05 -31.1 2.7 -31.3 2.9 -31.5 2.9 -32.5 M4.3 -28.15 L3.95 -27.85 3.05 -27.65 2.9 -27.6 0.1 -27.35 -2.9 -27.65 -3.75 -27.85 -4.1 -28.15 -4.1 -27.55 Q-4.1 -27.25 -2.9 -27.0 L0.1 -26.75 2.9 -27.0 3.05 -27.0 Q4.3 -27.25 4.3 -27.55 L4.3 -28.15 3.05 -28.7 2.9 -28.75 2.9 -28.25 0.1 -28.0 -2.9 -28.3 -2.9 -28.7 Q-4.1 -28.45 -4.1 -28.15 M2.9 -29.5 L2.7 -29.3 2.05 -29.1 0.05 -28.9 -1.95 -29.1 -2.6 -29.3 -2.85 -29.5 -2.9 -28.7 M2.9 -30.5 L2.7 -30.3 2.05 -30.1 0.05 -29.9 -1.95 -30.1 -2.6 -30.3 -2.85 -30.5 -2.85 -29.5 M2.9 -31.5 L2.9 -30.5 2.9 -29.5 2.9 -28.75 M2.9 -27.0 L2.9 -26.35 Q3.05 -25.05 4.2 -24.15 10.35 -20.1 11.75 -10.45 L11.35 18.85 11.25 24.15 Q9.4 35.35 3.25 31.0 L2.95 31.4 Q-0.3 35.2 -3.35 31.3 L-3.65 30.9 Q-9.95 35.6 -11.25 24.15 L-11.3 18.85 -11.7 -10.45 Q-10.35 -20.1 -4.15 -24.15 -3.05 -25.05 -2.9 -26.35 L-2.9 -27.0 M3.25 31.0 L4.55 29.05 M-2.85 -30.5 L-2.8 -31.5 M-4.8 29.05 L-3.65 30.9 M-11.3 18.85 Q0.0 19.9 11.35 18.85 M11.75 -10.45 Q0.0 -9.0 -11.7 -10.45" fill="none" stroke="#82ab70" stroke-linecap="round" stroke-linejoin="round" stroke-opacity="0.54901963" stroke-width="0.5"/>
    </g>
    <radialGradient cx="0" cy="0" gradientTransform="matrix(0.0201, 0.0, 0.0, 0.0201, -2.8, -17.4)" gradientUnits="userSpaceOnUse" id="gradient0" r="819.2" spreadMethod="pad">
      <stop offset="0.0" stop-color="#00cc00" stop-opacity="0.36862746"/>
      <stop offset="1.0" stop-color="#009900" stop-opacity="0.5686275"/>
    </radialGradient>
    <linearGradient gradientTransform="matrix(0.0143, 0.0, 0.0, 0.0182, 0.0, 4.45)" gradientUnits="userSpaceOnUse" id="gradient1" spreadMethod="pad" x1="-819.2" x2="819.2">
      <stop offset="0.0" stop-color="#dcdcdc"/>
      <stop offset="0.5294117647058824" stop-color="#fbfbfb"/>
      <stop offset="1.0" stop-color="#cccccc"/>
    </linearGradient>
  </defs>
</svg>
