<?xml version="1.0" encoding="UTF-8" standalone="no"?>
<svg xmlns:xlink="http://www.w3.org/1999/xlink" height="40.15px" width="13.9px" xmlns="http://www.w3.org/2000/svg">
  <g transform="matrix(1.0, 0.0, 0.0, 1.0, 6.75, 20.05)">
    <use height="40.15" transform="matrix(1.0, 0.0, 0.0, 1.0, -6.75, -20.05)" width="13.9" xlink:href="#shape0"/>
  </g>
  <defs>
    <g id="shape0" transform="matrix(1.0, 0.0, 0.0, 1.0, 6.75, 20.05)">
      <path d="M6.9 -11.5 L6.9 1.4 Q5.7 3.9 6.9 6.45 L6.9 16.8 Q6.35 18.55 5.2 19.4 L2.7 19.55 Q1.5 18.85 0.6 18.8 L0.2 18.75 -0.25 18.8 Q-1.15 18.85 -2.35 19.55 L-4.75 19.4 Q-6.05 18.55 -6.5 16.8 L-6.5 6.45 Q-5.35 3.9 -6.5 1.4 L-6.5 -11.5 Q-5.9 -13.7 -2.2 -16.55 L-2.2 -19.8 2.55 -19.8 2.55 -16.55 Q6.3 -13.7 6.9 -11.5" fill="url(#gradient0)" fill-rule="evenodd" stroke="none"/>
      <path d="M6.9 -11.5 L6.9 1.4 Q5.7 3.9 6.9 6.45 L6.9 16.8 Q6.35 18.55 5.2 19.4 L2.7 19.55 Q1.5 18.85 0.6 18.8 L0.2 18.75 -0.25 18.8 Q-1.15 18.85 -2.35 19.55 L-4.75 19.4 Q-6.05 18.55 -6.5 16.8 L-6.5 6.45 Q-5.35 3.9 -6.5 1.4 L-6.5 -11.5 Q-5.9 -13.7 -2.2 -16.55 L-2.2 -19.8 2.55 -19.8 2.55 -16.55 Q6.3 -13.7 6.9 -11.5 Z" fill="none" stroke="#84a6c8" stroke-linecap="round" stroke-linejoin="round" stroke-opacity="0.6509804" stroke-width="0.5"/>
      <path d="M-6.45 -2.5 Q0.2 -1.05 6.85 -2.5 M-6.45 -0.85 Q0.2 0.6 6.85 -0.85 M-6.45 11.2 Q0.2 12.6 6.85 11.2 M-6.45 0.8 Q0.2 2.25 6.85 0.8 M-6.45 -4.1 Q0.2 -2.7 6.85 -4.1 M-6.45 9.55 Q0.2 11.0 6.85 9.55 M-6.45 12.85 Q0.2 14.25 6.85 12.85 M-6.45 7.9 Q0.2 9.35 6.85 7.9 M-6.45 14.5 Q0.2 15.9 6.85 14.5 M-6.45 -5.75 Q0.2 -4.35 6.85 -5.75 M-2.3 -19.15 L2.5 -19.8 M-2.3 -18.05 L2.5 -18.75 M-2.3 -17.0 L2.5 -17.65 M-6.45 -7.4 Q0.2 -6.0 6.85 -7.4" fill="none" stroke="#96a4b6" stroke-linecap="round" stroke-linejoin="round" stroke-width="0.25"/>
      <path d="M-6.45 -6.85 Q0.2 -5.45 6.85 -6.85 M-6.45 -5.2 Q0.2 -3.8 6.85 -5.2 M-6.45 -0.3 Q0.2 1.15 6.85 -0.3 M-6.45 1.35 Q0.2 2.75 6.85 1.35 M-6.45 -1.95 Q0.2 -0.5 6.85 -1.95 M-6.45 -3.55 Q0.2 -2.15 6.85 -3.55 M-6.45 11.75 Q0.2 13.15 6.85 11.75 M-6.45 10.1 Q0.2 11.55 6.85 10.1 M-6.45 13.4 Q0.2 14.8 6.85 13.4 M-6.45 6.8 Q0.2 8.25 6.85 6.8 M-6.45 8.45 Q0.2 9.9 6.85 8.45 M-6.45 15.05 Q0.2 16.45 6.85 15.05 M-6.45 -8.5 Q0.2 -7.1 6.85 -8.5 M-2.3 -16.55 L2.5 -17.2 M-2.3 -17.65 L2.5 -18.3 M-2.3 -18.75 L2.5 -19.4" fill="none" stroke="#ffffff" stroke-linecap="round" stroke-linejoin="round" stroke-opacity="0.6313726" stroke-width="0.25"/>
      <path d="M3.25 -10.25 Q3.25 -7.9 1.9 -6.25 0.55 -4.6 -1.4 -4.6 -3.3 -4.6 -4.65 -6.25 -6.05 -7.9 -6.05 -10.25 -6.05 -12.6 -4.65 -14.25 -3.3 -15.9 -1.4 -15.9 0.55 -15.9 1.9 -14.25 3.25 -12.6 3.25 -10.25" fill="url(#gradient1)" fill-rule="evenodd" stroke="none"/>
      <path d="M7.0 -1.4 Q0.15 0.15 -6.75 -1.4 L-6.75 -7.5 Q-0.05 -5.8 7.0 -7.5 L7.0 -1.4" fill="url(#gradient2)" fill-rule="evenodd" stroke="none"/>
    </g>
    <radialGradient cx="0" cy="0" gradientTransform="matrix(0.0254, 0.0, 0.0, 0.0254, -0.35, 0.35)" gradientUnits="userSpaceOnUse" id="gradient0" r="819.2" spreadMethod="pad">
      <stop offset="0.0" stop-color="#43ace6" stop-opacity="0.2901961"/>
      <stop offset="0.8470588235294118" stop-color="#ddf2f7" stop-opacity="0.67058825"/>
    </radialGradient>
    <radialGradient cx="0" cy="0" gradientTransform="matrix(0.0069, 0.0, 0.0, 0.0069, -1.4, -10.25)" gradientUnits="userSpaceOnUse" id="gradient1" r="819.2" spreadMethod="pad">
      <stop offset="0.0" stop-color="#ffffff"/>
      <stop offset="1.0" stop-color="#ffffff" stop-opacity="0.0"/>
    </radialGradient>
    <linearGradient gradientTransform="matrix(0.0084, 0.0, 0.0, 0.0037, 0.15, -4.45)" gradientUnits="userSpaceOnUse" id="gradient2" spreadMethod="pad" x1="-819.2" x2="819.2">
      <stop offset="0.0" stop-color="#afafaf"/>
      <stop offset="0.19607843137254902" stop-color="#fbfbfb"/>
      <stop offset="0.7568627450980392" stop-color="#e2e2e2"/>
      <stop offset="1.0" stop-color="#7b7b7b"/>
    </linearGradient>
  </defs>
</svg>
