<?xml version="1.0" encoding="UTF-8" standalone="no"?>
<svg xmlns:xlink="http://www.w3.org/1999/xlink" height="50.9px" width="34.35px" xmlns="http://www.w3.org/2000/svg">
  <g transform="matrix(1.0, 0.0, 0.0, 1.0, 17.15, 25.4)">
    <use height="50.9" transform="matrix(1.0, 0.0, 0.0, 1.0, -17.15, -25.4)" width="34.35" xlink:href="#shape0"/>
  </g>
  <defs>
    <g id="shape0" transform="matrix(1.0, 0.0, 0.0, 1.0, 17.15, 25.4)">
      <path d="M-4.55 -24.05 Q-4.55 -24.5 -3.4 -24.85 L-0.4 -25.15 -0.25 -25.15 0.05 -25.15 2.95 -24.85 Q4.05 -24.5 4.05 -24.05 3.95 -23.6 2.95 -23.25 L0.0 -22.8 -0.4 -22.8 -3.4 -23.25 Q-4.5 -23.6 -4.55 -24.05" fill="url(#gradient0)" fill-rule="evenodd" stroke="none"/>
      <path d="M3.9 -21.75 L4.1 -21.75 Q4.15 -21.1 4.75 -20.8 9.65 -19.0 14.35 -16.1 15.75 -14.85 16.05 -12.9 L16.05 -12.6 16.2 -10.15 Q14.05 -11.85 11.9 -12.45 9.55 -13.2 10.15 -12.25 L13.15 -9.9 Q14.3 -8.85 14.2 -7.55 L14.55 8.65 Q14.9 12.6 16.95 9.15 L16.8 15.5 Q16.75 17.8 13.45 20.15 L12.7 20.65 10.95 19.15 8.25 23.15 7.8 23.3 5.55 24.3 Q0.2 26.2 -5.1 24.3 L-8.5 22.85 -10.15 19.6 -12.45 20.8 -13.2 20.4 Q-16.6 18.3 -16.75 13.55 L-16.85 1.7 Q-16.8 -5.45 -16.35 -12.6 -16.2 -14.7 -14.6 -16.1 -10.05 -19.0 -5.2 -20.8 -4.65 -21.1 -4.55 -21.75 L-4.35 -21.75 -2.6 -21.75 -0.4 -21.55 0.05 -21.55 2.15 -21.75 3.9 -21.75 M-4.35 -21.1 L-3.3 -20.65 -0.4 -20.3 0.05 -20.3 2.95 -20.65 3.9 -21.1 2.95 -20.65 0.05 -20.3 -0.4 -20.3 -3.3 -20.65 -4.35 -21.1 M4.95 -11.85 Q3.6 -12.3 2.35 -11.4 L-2.7 -6.3 Q-3.85 -4.85 -3.65 -2.25 L-3.65 2.2 Q-3.85 8.75 1.4 9.9 L9.45 11.85 Q11.25 12.25 11.2 9.7 L10.9 -6.85 Q10.7 -8.0 10.05 -8.55 L4.95 -11.85" fill="url(#gradient1)" fill-rule="evenodd" stroke="none"/>
      <path d="M4.05 -24.05 L4.1 -22.9 4.1 -22.7 4.1 -22.65 3.0 -22.0 2.15 -21.75 -2.6 -21.75 -4.35 -21.75 -4.55 -21.75 -4.55 -22.05 -4.55 -22.1 -4.5 -22.65 -4.5 -22.7 -4.5 -22.9 -4.55 -24.05 Q-4.5 -23.6 -3.4 -23.25 L-0.4 -22.8 0.0 -22.8 2.95 -23.25 Q3.95 -23.6 4.05 -24.05 M-2.6 -21.75 L-3.35 -22.0 Q-4.45 -22.35 -4.5 -22.65 -4.45 -22.35 -3.35 -22.0 L-2.6 -21.75 M-4.55 -22.05 L-4.35 -21.75 -4.55 -22.05" fill="url(#gradient2)" fill-rule="evenodd" stroke="none"/>
      <path d="M-2.6 -21.75 L2.15 -21.75 0.05 -21.55 -0.4 -21.55 -2.6 -21.75" fill="url(#gradient3)" fill-rule="evenodd" stroke="none"/>
      <path d="M6.25 -9.45 L9.1 -7.5 Q9.85 -7.0 9.8 -6.1 L10.1 7.3 9.4 7.7 6.7 4.9 Q5.9 4.15 6.0 3.55 L5.55 -8.7 Q5.55 -9.6 6.25 -9.45" fill="url(#gradient4)" fill-rule="evenodd" stroke="none"/>
      <path d="M-12.45 20.8 L-10.15 19.6 -8.5 22.85 -12.45 20.8 M8.25 23.15 L10.95 19.15 12.7 20.65 11.7 21.3 11.2 21.55 8.25 23.15 M16.95 9.15 Q14.9 12.6 14.55 8.65 L14.2 -7.55 Q14.3 -8.85 13.15 -9.9 L10.15 -12.25 Q9.55 -13.2 11.9 -12.45 14.05 -11.85 16.2 -10.15 16.9 0.75 16.95 9.15 M4.95 -11.85 L10.05 -8.55 Q10.7 -8.0 10.9 -6.85 L11.2 9.7 Q11.25 12.25 9.45 11.85 L1.4 9.9 Q-3.85 8.75 -3.65 2.2 L-3.65 -2.25 Q-3.85 -4.85 -2.7 -6.3 L2.35 -11.4 Q3.6 -12.3 4.95 -11.85 M6.25 -9.45 Q5.55 -9.6 5.55 -8.7 L6.0 3.55 Q5.9 4.15 6.7 4.9 L9.4 7.7 10.1 7.3 9.8 -6.1 Q9.85 -7.0 9.1 -7.5 L6.25 -9.45" fill="#d0d0d0" fill-opacity="0.84313726" fill-rule="evenodd" stroke="none"/>
      <path d="M-4.55 -24.05 Q-4.55 -24.5 -3.4 -24.85 L-0.4 -25.15 -0.25 -25.15 0.05 -25.15 2.95 -24.85 Q4.05 -24.5 4.05 -24.05 L4.1 -22.9 4.1 -22.7 4.1 -22.65 4.1 -22.1 4.1 -22.05 3.9 -21.75 M4.1 -21.75 L4.1 -22.05 M16.2 -10.15 L16.05 -12.6 16.05 -12.9 Q15.75 -14.85 14.35 -16.1 9.65 -19.0 4.75 -20.8 4.15 -21.1 4.1 -21.75 M4.05 -24.05 Q3.95 -23.6 2.95 -23.25 L0.0 -22.8 -0.4 -22.8 -3.4 -23.25 Q-4.5 -23.6 -4.55 -24.05 L-4.5 -22.9 -4.5 -22.7 -4.5 -22.65 Q-4.45 -22.35 -3.35 -22.0 L-2.6 -21.75 M2.15 -21.75 L3.0 -22.0 4.1 -22.65 M3.9 -21.1 L2.95 -20.65 0.05 -20.3 -0.4 -20.3 -3.3 -20.65 -4.35 -21.1 M2.15 -21.75 L0.05 -21.55 -0.4 -21.55 -2.6 -21.75 M-4.55 -21.75 Q-4.65 -21.1 -5.2 -20.8 -10.05 -19.0 -14.6 -16.1 -16.2 -14.7 -16.35 -12.6 -16.8 -5.45 -16.85 1.7 L-16.75 13.55 Q-16.6 18.3 -13.2 20.4 L-12.45 20.8 -8.5 22.85 -5.1 24.3 Q0.2 26.2 5.55 24.3 L7.8 23.3 8.25 23.15 11.2 21.55 11.7 21.3 12.7 20.65 13.45 20.15 Q16.75 17.8 16.8 15.5 L16.95 9.15 M16.2 -10.15 Q16.9 0.75 16.95 9.15 M-4.55 -21.75 L-4.55 -22.05 -4.55 -22.1 -4.5 -22.65 M-4.35 -21.75 L-4.55 -22.05" fill="none" stroke="#bfbfbf" stroke-linecap="round" stroke-linejoin="round" stroke-width="0.5"/>
      <path d="M-9.3 8.3 Q-10.35 10.15 -11.8 10.15 -13.4 10.15 -14.55 7.95 -15.6 5.7 -15.65 2.65 -15.75 -0.4 -14.65 -2.6 -13.6 -4.85 -12.0 -4.85 -10.6 -4.85 -9.55 -2.95 -10.15 -3.7 -11.0 -3.7 -12.3 -3.7 -13.15 -1.9 -14.05 -0.05 -14.0 2.65 -14.0 5.35 -13.05 7.15 -12.1 9.05 -10.85 9.1 -10.0 9.1 -9.3 8.3" fill="url(#gradient5)" fill-rule="evenodd" stroke="none"/>
      <path d="M-9.55 -2.95 Q-10.6 -4.85 -12.0 -4.85 -13.6 -4.85 -14.65 -2.6 -15.75 -0.4 -15.65 2.65 -15.6 5.7 -14.55 7.95 -13.4 10.15 -11.8 10.15 -10.35 10.15 -9.3 8.3 M-9.55 -2.95 Q-7.05 2.1 -8.8 7.35 L-9.3 8.3" fill="none" stroke="#bfbfbf" stroke-linecap="round" stroke-linejoin="round" stroke-width="0.5"/>
      <path d="M0.25 -8.85 L-2.95 -5.65 -3.55 -4.65 -5.85 -4.25 Q-8.45 -4.25 -10.3 -5.95 -12.15 -7.6 -12.15 -9.9 -12.2 -12.2 -10.4 -13.9 -8.6 -15.55 -6.0 -15.55 -3.45 -15.55 -1.6 -13.9 0.3 -12.2 0.35 -9.9 L0.25 -8.85" fill="url(#gradient6)" fill-rule="evenodd" stroke="none"/>
    </g>
    <linearGradient gradientTransform="matrix(0.0055, 0.0, 0.0, 0.0015, -0.4, -24.0)" gradientUnits="userSpaceOnUse" id="gradient0" spreadMethod="pad" x1="-819.2" x2="819.2">
      <stop offset="0.0" stop-color="#9d9d9d" stop-opacity="0.9490196"/>
      <stop offset="1.0" stop-color="#b3b3b3" stop-opacity="0.8235294"/>
    </linearGradient>
    <linearGradient gradientTransform="matrix(-4.0E-4, -0.0298, 0.021, 0.0, -0.15, 1.1)" gradientUnits="userSpaceOnUse" id="gradient1" spreadMethod="pad" x1="-819.2" x2="819.2">
      <stop offset="0.0" stop-color="#ffffff" stop-opacity="0.972549"/>
      <stop offset="0.2196078431372549" stop-color="#e6e6e6" stop-opacity="0.8509804"/>
    </linearGradient>
    <linearGradient gradientTransform="matrix(-4.0E-4, -0.0298, 0.021, 0.0, -0.15, 0.4)" gradientUnits="userSpaceOnUse" id="gradient2" spreadMethod="pad" x1="-819.2" x2="819.2">
      <stop offset="0.0" stop-color="#ffffff" stop-opacity="0.8901961"/>
      <stop offset="0.2196078431372549" stop-color="#e6e6e6" stop-opacity="0.76862746"/>
    </linearGradient>
    <linearGradient gradientTransform="matrix(-4.0E-4, -0.0298, 0.021, 0.0, -0.15, 1.1)" gradientUnits="userSpaceOnUse" id="gradient3" spreadMethod="pad" x1="-819.2" x2="819.2">
      <stop offset="0.0" stop-color="#ffffff" stop-opacity="0.8901961"/>
      <stop offset="0.2196078431372549" stop-color="#e6e6e6" stop-opacity="0.76862746"/>
    </linearGradient>
    <linearGradient gradientTransform="matrix(0.0027, 0.0, 2.0E-4, 0.0106, 7.9, -0.25)" gradientUnits="userSpaceOnUse" id="gradient4" spreadMethod="pad" x1="-819.2" x2="819.2">
      <stop offset="0.0" stop-color="#9d9d9d" stop-opacity="0.9490196"/>
      <stop offset="1.0" stop-color="#b3b3b3" stop-opacity="0.8235294"/>
    </linearGradient>
    <linearGradient gradientTransform="matrix(1.0E-4, 0.0053, -0.0038, 0.0, -12.5, 1.7)" gradientUnits="userSpaceOnUse" id="gradient5" spreadMethod="pad" x1="-819.2" x2="819.2">
      <stop offset="0.0" stop-color="#9d9d9d" stop-opacity="0.9490196"/>
      <stop offset="1.0" stop-color="#b3b3b3" stop-opacity="0.8235294"/>
    </linearGradient>
    <radialGradient cx="0" cy="0" gradientTransform="matrix(0.0079, 0.0, 1.0E-4, 0.0071, -5.9, -9.9)" gradientUnits="userSpaceOnUse" id="gradient6" r="819.2" spreadMethod="pad">
      <stop offset="0.23529411764705882" stop-color="#ffffff" stop-opacity="0.6901961"/>
      <stop offset="1.0" stop-color="#ffffff" stop-opacity="0.0"/>
    </radialGradient>
  </defs>
</svg>
