<?xml version="1.0" encoding="UTF-8" standalone="no"?>
<svg xmlns:xlink="http://www.w3.org/1999/xlink" height="59.6px" width="35.95px" xmlns="http://www.w3.org/2000/svg">
  <g transform="matrix(1.0, 0.0, 0.0, 1.0, 17.95, 29.8)">
    <use height="59.6" transform="matrix(1.0, 0.0, 0.0, 1.0, -17.95, -29.8)" width="35.95" xlink:href="#shape0"/>
  </g>
  <defs>
    <g id="shape0" transform="matrix(1.0, 0.0, 0.0, 1.0, 17.95, 29.8)">
      <path d="M3.75 -11.6 Q6.6 -5.2 8.05 2.85 L8.35 3.55 Q8.75 5.05 8.75 6.25 L9.1 7.45 10.2 10.75 10.55 11.75 11.2 13.5 11.65 14.6 12.05 15.55 12.45 16.55 12.75 17.35 12.8 17.4 14.1 19.45 16.1 21.25 16.7 21.3 17.3 21.15 Q17.9 21.05 18.0 21.65 16.5 22.45 15.35 22.65 14.15 21.8 13.3 21.55 L11.0 20.55 Q10.8 19.8 11.25 19.25 L11.3 19.15 11.3 18.95 11.2 18.5 11.1 18.25 11.1 18.2 11.05 18.1 10.7 17.25 10.65 17.0 8.1 12.45 8.05 12.4 7.65 11.65 Q6.7 9.95 6.3 8.5 5.85 7.0 5.9 5.8 L5.7 4.8 Q1.35 -6.05 0.7 -9.05 L3.75 -11.6" fill="#edc9a7" fill-rule="evenodd" stroke="none"/>
      <path d="M-4.35 -10.7 L-0.55 -7.7 Q0.2 -1.05 0.45 5.65 L0.5 6.55 0.6 8.15 0.35 9.45 0.6 22.65 0.55 22.65 0.6 22.7 0.6 22.9 0.6 23.0 0.7 23.65 0.85 23.8 1.0 24.55 1.2 25.0 1.2 25.1 1.95 27.05 2.4 28.5 1.8 29.7 Q1.45 30.05 0.2 29.4 -0.15 29.25 -0.15 28.1 L-0.3 27.6 -0.75 25.2 -0.75 25.1 -0.9 24.5 -0.8 23.65 -2.2 15.5 Q-2.8 11.55 -2.55 9.5 L-2.35 7.6 Q-2.5 4.05 -3.15 1.2 -4.85 -4.35 -5.55 -9.0 -5.7 -11.55 -4.35 -10.7" fill="#edc9a7" fill-rule="evenodd" stroke="none"/>
      <path d="M10.5 -12.65 Q10.15 -12.7 9.85 -12.85 L9.2 -13.35 8.95 -13.55 5.7 -15.95 4.15 -17.25 2.9 -18.55 2.45 -19.15 2.2 -19.25 2.05 -19.45 1.6 -19.8 -0.6 -21.6 -2.65 -22.85 -3.7 -23.4 -4.25 -23.4 -5.1 -26.35 -3.45 -26.65 -3.35 -26.55 -2.55 -26.05 -0.05 -23.8 0.2 -23.5 3.2 -20.3 3.45 -20.0 4.15 -19.6 5.35 -18.65 7.05 -16.9 9.6 -14.15 9.75 -14.05 10.15 -13.9 13.55 -12.9 Q13.45 -12.75 13.1 -12.75 L12.75 -12.75 13.45 -12.45 Q13.65 -12.3 13.3 -12.3 L12.8 -12.35 12.3 -12.3 11.75 -12.6 11.25 -12.55 10.5 -12.65" fill="#edc9a7" fill-rule="evenodd" stroke="none"/>
      <path d="M7.5 -14.45 L5.85 -14.15 Q4.95 -14.2 4.55 -14.75 L3.25 -16.8 0.9 -20.7 -0.9 -22.6 Q-1.4 -23.55 -3.25 -25.15 -5.15 -26.75 -3.4 -26.8 0.85 -24.6 1.65 -24.0 L3.55 -22.1 Q5.0 -20.75 7.0 -19.9 8.95 -19.2 9.65 -18.0 10.25 -17.0 9.0 -15.7 L8.85 -15.85 7.5 -14.45" fill="#fec5c5" fill-rule="evenodd" stroke="none"/>
      <path d="M7.5 -14.45 L8.85 -15.85 9.0 -15.7 10.25 -14.45 8.85 -13.1 7.5 -14.45" fill="#fea3a3" fill-rule="evenodd" stroke="none"/>
      <path d="M-7.8 -25.55 L-8.75 -29.6 -7.05 -29.8 -5.05 -25.85 -7.8 -25.55" fill="#edc9a7" fill-rule="evenodd" stroke="none"/>
      <path d="M-4.5 -26.6 Q-1.5 -23.15 -5.35 -22.75 -7.25 -22.8 -9.1 -24.95 L-7.8 -25.75 -4.5 -26.6" fill="#edc9a7" fill-rule="evenodd" stroke="none"/>
      <path d="M-4.5 -26.6 L-4.1 -26.65 -3.45 -25.85 -3.1 -25.5 -2.85 -25.35 -0.6 -24.15 0.6 -23.15 Q0.85 -22.55 0.75 -21.75 0.65 -20.95 0.0 -20.45 0.15 -18.8 0.75 -17.25 L2.25 -15.05 5.55 -9.65 15.55 17.75 Q6.4 22.95 -2.95 23.2 -6.25 -8.4 -6.15 -9.15 L-5.55 -14.6 Q-5.4 -16.0 -5.9 -17.45 -10.15 -21.45 -10.8 -23.75 L-9.1 -24.95 Q-7.25 -22.8 -5.35 -22.75 -1.5 -23.15 -4.5 -26.6" fill="#fea3a3" fill-rule="evenodd" stroke="none"/>
      <path d="M-5.25 -17.95 Q-6.3 -18.2 -6.6 -19.15 L-6.75 -19.75 Q-6.25 -18.65 -5.05 -18.3 L-4.6 -18.3 Q-3.7 -18.45 -3.15 -19.2 L-3.5 -18.5 Q-4.15 -17.65 -5.25 -17.95" fill="#fb5959" fill-rule="evenodd" stroke="none"/>
      <path d="M-10.8 -23.7 L-10.8 -23.75 Q-9.45 -24.25 -8.5 -21.4 L-10.15 -18.0 -10.95 -15.1 -11.2 -14.45 -11.3 -14.05 -11.4 -13.25 -11.7 -11.35 -12.35 -9.3 -13.8 -5.3 -14.0 -4.75 Q-14.05 -4.15 -14.25 -3.85 L-14.85 -3.3 -15.5 -2.8 -16.05 -2.55 -16.45 -2.0 Q-16.7 -1.65 -17.0 -1.8 L-17.4 -1.45 -17.65 -1.5 -17.15 -2.2 -17.45 -2.0 -17.95 -1.9 Q-16.35 -3.9 -15.15 -4.75 L-14.85 -5.05 -14.75 -5.4 -14.1 -9.3 -13.65 -11.9 -13.15 -13.45 -12.75 -14.25 -12.7 -14.6 -11.9 -19.15 -11.85 -19.55 -10.8 -23.7" fill="#edc9a7" fill-rule="evenodd" stroke="none"/>
      <path d="M-14.9 -6.9 Q-17.05 -7.55 -17.05 -9.0 -17.05 -10.7 -15.35 -12.7 -13.75 -14.8 -13.0 -17.15 L-12.15 -20.35 -10.85 -23.55 -9.2 -23.6 Q-8.0 -23.05 -8.25 -21.5 L-8.95 -18.45 Q-9.4 -16.95 -9.45 -11.65 L-9.55 -8.65 Q-9.65 -7.8 -10.55 -7.25 -11.4 -6.75 -12.5 -6.5 L-12.5 -6.55 -14.85 -7.15 -14.9 -6.9" fill="#fec5c5" fill-rule="evenodd" stroke="none"/>
      <path d="M-12.5 -6.5 L-13.15 -4.2 -15.45 -4.85 -14.9 -6.9 -14.85 -7.15 -12.5 -6.55 -12.5 -6.5" fill="#fea3a3" fill-rule="evenodd" stroke="none"/>
    </g>
  </defs>
</svg>
