<?xml version="1.0" encoding="UTF-8" standalone="no"?>
<svg xmlns:xlink="http://www.w3.org/1999/xlink" height="46.55px" width="56.8px" xmlns="http://www.w3.org/2000/svg">
  <g transform="matrix(1.0, 0.0, 0.0, 1.0, 28.4, 23.25)">
    <use height="46.55" transform="matrix(1.0, 0.0, 0.0, 1.0, -28.4, -23.25)" width="56.8" xlink:href="#shape0"/>
  </g>
  <defs>
    <g id="shape0" transform="matrix(1.0, 0.0, 0.0, 1.0, 28.4, 23.25)">
      <path d="M-22.2 -14.25 L-23.95 -14.7 -24.2 -22.4 -24.15 -22.4 Q-12.6 -23.7 -1.9 -22.8 8.75 -21.95 11.95 -20.55 L13.35 -19.9 13.4 -19.85 19.7 -16.65 Q22.45 -15.5 25.35 -12.9 L22.65 -1.75 21.15 -1.65 20.95 -12.9 19.05 -1.15 18.4 -0.9 18.05 -13.25 15.55 0.55 Q13.6 1.7 12.05 3.1 L11.95 2.9 10.8 2.2 10.6 1.85 10.6 3.8 9.9 3.8 9.65 3.6 9.55 3.55 9.8 3.9 9.9 4.0 9.9 4.35 10.0 4.55 8.65 4.55 Q8.6 4.9 8.9 4.95 L9.0 5.0 9.35 5.6 8.0 5.6 8.2 6.15 8.4 6.3 8.45 6.5 7.3 6.6 7.55 7.5 6.4 7.6 6.85 8.85 5.85 8.85 5.85 7.1 4.0 7.45 Q5.9 2.9 8.45 -1.35 11.55 -6.35 11.95 -11.05 L12.0 -11.65 -3.55 -15.6 -3.85 -15.1 Q-5.8 -9.9 -6.5 -4.55 -7.25 1.4 -12.45 5.0 L-16.3 7.6 -18.85 6.95 -18.75 6.7 -17.95 6.6 -17.85 6.55 -17.75 6.25 -17.6 6.4 -16.5 6.4 -16.55 6.15 -16.75 5.8 -15.5 5.6 -15.55 5.4 -15.7 5.0 -15.65 4.95 Q-15.2 4.5 -14.35 4.45 L-14.5 4.0 -14.7 3.95 Q-15.3 3.8 -15.05 3.55 -14.4 3.55 -13.9 3.2 L-13.9 3.1 Q-13.9 2.75 -14.25 2.65 L-12.9 2.1 -13.8 0.95 -13.7 0.9 Q-12.85 0.8 -12.55 0.15 -12.75 -0.3 -13.55 -0.15 L-13.7 -0.4 -12.8 -0.85 -12.45 -0.85 -12.35 -0.9 -12.1 -1.2 -12.1 -1.4 -12.2 -1.65 -13.45 -1.85 -13.25 -2.0 Q-12.75 -2.25 -12.55 -2.9 L-12.55 -2.95 -13.85 -2.65 -13.8 -4.95 Q-13.8 -7.25 -14.55 -9.0 L-10.3 -20.95 -15.4 -10.4 -16.5 -11.6 -16.6 -22.3 -18.2 -12.75 -19.85 -13.5 -21.25 -22.05 -22.2 -14.25 M13.3 -14.65 Q3.6 -17.9 -6.05 -17.65 L13.3 -14.65" fill="url(#gradient0)" fill-rule="evenodd" stroke="none"/>
      <path d="M-16.3 7.6 L-12.45 5.0 Q-7.25 1.4 -6.5 -4.55 -5.8 -9.9 -3.85 -15.1 L-3.55 -15.6 12.0 -11.65 11.95 -11.05 Q11.55 -6.35 8.45 -1.35 5.9 2.9 4.0 7.45 L-0.05 8.1 Q1.5 5.25 3.35 2.55 6.05 -1.3 6.9 -4.9 L7.0 -5.4 -3.25 -7.75 Q-5.15 -3.9 -6.2 0.1 -7.45 4.65 -11.35 7.4 L-12.6 8.25 -16.3 7.6" fill="#b3dddc" fill-rule="evenodd" stroke="none"/>
      <path d="M-12.6 8.25 L-11.35 7.4 Q-7.45 4.65 -6.2 0.1 -5.15 -3.9 -3.25 -7.75 L7.0 -5.4 6.9 -4.9 Q6.05 -1.3 3.35 2.55 1.5 5.25 -0.05 8.1 L-2.1 8.35 Q-6.7 8.7 -11.15 8.45 L-12.6 8.25" fill="#72c0bf" fill-rule="evenodd" stroke="none"/>
      <path d="M-22.2 -14.25 L-21.25 -22.05 -19.85 -13.5 -22.2 -14.25 M-18.2 -12.75 L-16.6 -22.3 -16.5 -11.6 -16.9 -11.9 -18.2 -12.75 M-15.4 -10.4 L-10.3 -20.95 -14.55 -9.0 -15.4 -10.4 M15.55 0.55 L18.05 -13.25 18.4 -0.9 16.7 -0.1 15.55 0.55 M19.05 -1.15 L20.95 -12.9 21.15 -1.65 19.05 -1.15 M22.65 -1.75 L25.35 -12.9 24.55 -1.4 22.65 -1.75 M25.8 -0.9 L25.25 -1.15 27.3 -7.5 25.8 -0.9 M-26.75 -5.2 L-26.55 -5.5 Q-24.25 -2.05 -21.35 1.1 L-20.25 2.3 -20.35 3.2 -25.65 -1.3 -22.05 2.65 -20.45 4.05 -20.5 4.85 -26.25 2.05 Q-27.9 -1.1 -26.75 -5.2 M-20.45 6.5 Q-23.1 6.05 -24.95 3.95 L-26.25 2.05 -20.5 5.75 -20.45 6.5" fill="#cbc8c5" fill-rule="evenodd" stroke="none"/>
      <path d="M-18.85 6.95 L-16.3 7.6 -12.6 8.25 -11.15 8.45 Q-6.7 8.7 -2.1 8.35 L-0.05 8.1 4.0 7.45 5.85 7.1 5.85 8.85 5.85 10.4 5.85 15.95 4.65 16.4 4.5 9.2 4.05 16.65 3.4 16.95 2.8 12.0 2.25 11.1 2.1 17.6 1.2 18.15 -0.8 12.0 -0.2 19.0 -1.15 19.7 Q-5.05 22.65 -10.0 23.2 L-15.5 22.05 Q-20.15 20.55 -23.3 16.9 L-23.75 16.3 Q-23.0 15.0 -12.5 15.6 -19.3 14.85 -24.2 12.8 -26.15 12.25 -26.3 11.85 L-26.65 10.35 Q-23.9 9.7 -14.6 12.0 -22.9 9.4 -26.2 7.3 -28.0 5.15 -28.2 3.25 -28.65 -1.25 -26.75 -5.2 -27.9 -1.1 -26.25 2.05 L-24.95 3.95 Q-23.1 6.05 -20.45 6.5 L-20.4 6.55 -20.05 6.65 -19.3 6.85 -18.85 6.95 M25.35 -12.9 Q28.0 -10.5 28.3 -9.3 L26.15 -0.7 25.8 -0.9 27.3 -7.5 25.25 -1.15 24.55 -1.4 25.35 -12.9" fill="#ebeae9" fill-rule="evenodd" stroke="none"/>
      <path d="M-13.85 -2.65 L-12.55 -2.95 -12.55 -2.9 Q-12.75 -2.25 -13.25 -2.0 L-13.45 -1.85 -12.2 -1.65 -12.1 -1.4 -12.1 -1.2 -12.35 -0.9 -12.45 -0.85 -12.8 -0.85 -13.7 -0.4 -13.55 -0.15 Q-12.75 -0.3 -12.55 0.15 -12.85 0.8 -13.7 0.9 L-13.8 0.95 -12.9 2.1 -14.25 2.65 Q-13.9 2.75 -13.9 3.1 L-13.9 3.2 Q-14.4 3.55 -15.05 3.55 -15.3 3.8 -14.7 3.95 L-14.5 4.0 -14.35 4.45 Q-15.2 4.5 -15.65 4.95 L-15.7 5.0 -15.55 5.4 -15.5 5.6 -16.75 5.8 -16.55 6.15 -16.5 6.4 -17.6 6.4 -17.75 6.25 -17.85 6.55 -17.95 6.6 -18.75 6.7 -18.85 6.95 -19.3 6.85 -20.05 6.65 Q-18.1 6.05 -15.05 2.75 -14.05 1.6 -13.85 -2.65 M5.85 8.85 L6.85 8.85 6.4 7.6 7.55 7.5 7.3 6.6 8.45 6.5 8.4 6.3 8.2 6.15 8.0 5.6 9.35 5.6 9.0 5.0 8.9 4.95 Q8.6 4.9 8.65 4.55 L10.0 4.55 9.9 4.35 9.9 4.0 9.8 3.9 9.55 3.55 9.65 3.6 9.9 3.8 10.6 3.8 10.6 1.85 10.8 2.2 11.95 2.9 12.05 3.1 12.0 3.15 Q10.55 4.4 9.45 5.9 L5.85 10.4 5.85 8.85" fill="#aeaaa6" fill-rule="evenodd" stroke="none"/>
      <path d="M2.1 17.6 L2.25 11.1 2.8 12.0 3.4 16.95 2.1 17.6 M4.05 16.65 L4.5 9.2 4.65 16.4 4.05 16.65 M-0.2 19.0 L-0.8 12.0 1.2 18.15 -0.2 19.0 M-24.2 12.8 Q-19.3 14.85 -12.5 15.6 -23.0 15.0 -23.75 16.3 -24.9 14.55 -24.2 12.8 M-26.65 10.35 Q-26.85 8.75 -26.2 7.3 -22.9 9.4 -14.6 12.0 -23.9 9.7 -26.65 10.35 M13.3 -14.65 L-6.05 -17.65 Q3.6 -17.9 13.3 -14.65" fill="#c2c0bc" fill-rule="evenodd" stroke="none"/>
      <path d="M-26.25 2.05 L-20.5 4.85 -20.5 5.15 -20.5 5.75 -26.25 2.05 M-20.45 4.05 L-22.05 2.65 -25.65 -1.3 -20.35 3.2 -20.45 4.05" fill="#a6a09d" fill-rule="evenodd" stroke="none"/>
      <path d="M25.35 -12.9 Q22.45 -15.5 19.7 -16.65 L13.4 -19.85 13.35 -19.9 11.95 -20.55 Q8.75 -21.95 -1.9 -22.8 -12.6 -23.7 -24.15 -22.4 L-24.2 -22.4 -23.95 -14.7 -22.2 -14.25 -19.85 -13.5 -18.2 -12.75 -16.9 -11.9 -16.5 -11.6 -15.4 -10.4 -14.55 -9.0 Q-13.8 -7.25 -13.8 -4.95 L-13.85 -2.65 Q-14.05 1.6 -15.05 2.75 -18.1 6.05 -20.05 6.65 L-20.4 6.55 -20.45 6.5 Q-23.1 6.05 -24.95 3.95 L-26.25 2.05 M-18.85 6.95 L-16.3 7.6 M4.0 7.45 L5.85 7.1 5.85 8.85 M12.05 3.1 Q13.6 1.7 15.55 0.55 L16.7 -0.1 18.4 -0.9 19.05 -1.15 21.15 -1.65 22.65 -1.75 M25.35 -12.9 Q28.0 -10.5 28.3 -9.3 L26.15 -0.7 25.8 -0.9 25.25 -1.15 24.55 -1.4 22.65 -1.75 M-0.05 8.1 L4.0 7.45 M5.85 10.4 L9.45 5.9 Q10.55 4.4 12.0 3.15 L12.05 3.1 M2.1 17.6 L3.4 16.95 4.05 16.65 M4.65 16.4 L5.85 15.95 5.85 10.4 5.85 8.85 M4.65 16.4 L4.05 16.65 M1.2 18.15 L2.1 17.6 M-20.35 3.2 L-20.25 2.3 -21.35 1.1 Q-24.25 -2.05 -26.55 -5.5 L-26.75 -5.2 Q-27.9 -1.1 -26.25 2.05 M-20.5 4.85 L-20.45 4.05 M-20.35 3.2 L-20.45 4.05 M-0.05 8.1 L-2.1 8.35 Q-6.7 8.7 -11.15 8.45 L-12.6 8.25 -16.3 7.6 M-18.85 6.95 L-19.3 6.85 -20.05 6.65 M-20.5 5.75 L-20.5 5.15 -20.5 4.85 M-23.75 16.3 L-23.3 16.9 Q-20.15 20.55 -15.5 22.05 L-10.0 23.2 Q-5.05 22.65 -1.15 19.7 L-0.2 19.0 M1.2 18.15 L-0.2 19.0 M-26.65 10.35 L-26.3 11.85 Q-26.15 12.25 -24.2 12.8 M-23.75 16.3 Q-24.9 14.55 -24.2 12.8 M-26.2 7.3 Q-26.85 8.75 -26.65 10.35 M-26.2 7.3 Q-28.0 5.15 -28.2 3.25 -28.65 -1.25 -26.75 -5.2 M-20.45 6.5 L-20.5 5.75" fill="none" stroke="#999999" stroke-linecap="round" stroke-linejoin="round" stroke-width="0.25"/>
      <path d="M8.75 -1.85 L8.45 -1.35 Q5.9 2.9 4.0 7.45 L-0.05 8.1 -2.1 8.35 Q-6.7 8.7 -11.15 8.45 L-12.6 8.25 -16.3 7.6 -12.45 5.0 Q-8.5 2.25 -7.1 -1.85 L8.75 -1.85" fill="url(#gradient1)" fill-rule="evenodd" stroke="none"/>
      <path d="M-21.0 -21.7 L-21.0 -14.95 -23.35 -14.95 -23.35 -21.7 -21.0 -21.7" fill="#b3dddc" fill-rule="evenodd" stroke="none"/>
      <path d="M27.2 -9.55 L26.0 -1.95 23.65 -3.2 24.85 -10.8 27.2 -9.55" fill="#b3dddc" fill-rule="evenodd" stroke="none"/>
    </g>
    <linearGradient gradientTransform="matrix(2.0E-4, -0.0038, 0.0304, 0.0017, -0.05, -6.95)" gradientUnits="userSpaceOnUse" id="gradient0" spreadMethod="pad" x1="-819.2" x2="819.2">
      <stop offset="0.0" stop-color="#cecaca"/>
      <stop offset="1.0" stop-color="#ebeae9"/>
    </linearGradient>
    <radialGradient cx="0" cy="0" gradientTransform="matrix(0.0062, 0.0059, -0.0109, 0.0116, -6.3, 9.6)" gradientUnits="userSpaceOnUse" id="gradient1" r="819.2" spreadMethod="pad">
      <stop offset="0.0" stop-color="#331a00" stop-opacity="0.8235294"/>
      <stop offset="0.33725490196078434" stop-color="#753c02" stop-opacity="0.7490196"/>
      <stop offset="0.615686274509804" stop-color="#7d4002" stop-opacity="0.31764707"/>
      <stop offset="0.9882352941176471" stop-color="#7d4002" stop-opacity="0.0"/>
    </radialGradient>
  </defs>
</svg>
