<?xml version="1.0" encoding="UTF-8" standalone="no"?>
<svg xmlns:xlink="http://www.w3.org/1999/xlink" height="56.85px" width="82.05px" xmlns="http://www.w3.org/2000/svg">
  <g transform="matrix(1.0, 0.0, 0.0, 1.0, 41.0, 27.35)">
    <use height="56.85" transform="matrix(1.0, 0.0, 0.0, 1.0, -41.0, -27.35)" width="82.05" xlink:href="#shape0"/>
  </g>
  <defs>
    <g id="shape0" transform="matrix(1.0, 0.0, 0.0, 1.0, 41.0, 27.35)">
      <path d="M20.6 -14.55 L8.7 -11.9 Q5.9 -11.35 4.3 -13.05 L-0.95 -18.5 Q-2.5 -20.05 0.0 -20.65 L18.4 -24.7 21.05 -24.75 20.6 -14.55 M-11.3 -7.45 L-24.55 -4.5 Q-27.45 -3.9 -28.75 -5.65 L-33.0 -11.4 Q-34.25 -13.05 -31.55 -13.65 L-13.3 -17.7 -11.1 -17.75 -11.3 -7.45" fill="#484742" fill-rule="evenodd" stroke="none"/>
      <path d="M21.05 -24.75 Q22.05 -24.55 22.9 -23.8 L29.0 -18.5 Q30.9 -16.85 28.05 -16.2 L20.6 -14.55 21.05 -24.75 M-11.3 -7.45 L-11.1 -17.75 Q-9.95 -17.6 -9.1 -16.7 L-4.05 -11.15 Q-2.5 -9.45 -5.35 -8.8 L-11.3 -7.45" fill="#68696b" fill-rule="evenodd" stroke="none"/>
      <path d="M-28.0 0.7 L39.85 -14.35 40.85 -14.75 41.05 -15.05 39.8 12.25 Q39.75 13.2 36.3 13.9 L-25.75 29.3 -28.0 0.7" fill="url(#gradient0)" fill-rule="evenodd" stroke="none"/>
      <path d="M-25.75 29.3 L-26.25 29.4 -27.45 29.5 Q-28.4 29.45 -28.8 28.85 L-29.55 27.8 -30.55 0.2 Q-29.9 1.1 -28.05 0.7 L-28.0 0.7 -25.75 29.3" fill="url(#gradient1)" fill-rule="evenodd" stroke="none"/>
      <path d="M20.7 -27.05 L19.55 -26.65 18.85 -26.7 18.75 -26.85 Q19.05 -27.35 19.85 -27.35 L20.65 -27.1 20.7 -27.05 M22.8 -27.15 L23.6 -26.9 Q23.25 -26.55 22.8 -26.55 L22.1 -26.6 22.0 -26.75 Q22.25 -27.15 22.8 -27.15 M23.65 -25.1 Q23.65 -25.4 24.45 -25.4 25.5 -25.4 25.8 -24.9 L24.95 -24.6 Q24.15 -24.6 23.7 -24.95 L23.65 -25.1 M13.45 -25.75 L13.35 -25.9 Q13.55 -26.3 14.3 -26.3 L14.85 -26.25 14.95 -25.9 14.15 -25.7 13.45 -25.75 M16.3 -25.4 L17.1 -25.15 17.15 -25.1 Q17.0 -24.75 16.3 -24.75 15.75 -24.75 15.5 -25.0 15.8 -25.45 16.3 -25.4 M9.65 -11.1 L10.45 -10.85 Q10.1 -10.5 9.65 -10.5 L8.95 -10.55 8.85 -10.7 Q9.1 -11.1 9.65 -11.1 M7.1 -10.2 L7.9 -9.95 Q7.55 -9.6 7.1 -9.6 L6.4 -9.65 6.3 -9.8 Q6.55 -10.2 7.1 -10.2 M0.2 -7.55 Q-0.4 -7.25 -0.65 -7.25 L-1.45 -7.45 Q-1.15 -7.9 -0.65 -7.85 L0.15 -7.6 0.2 -7.55 M20.05 -12.0 L19.25 -11.6 18.45 -11.85 Q18.7 -12.25 19.25 -12.25 L20.05 -12.0 M32.4 -18.6 Q32.05 -18.25 31.6 -18.25 L30.9 -18.3 30.8 -18.45 Q31.05 -18.85 31.6 -18.85 L32.4 -18.6 M31.95 -14.4 Q31.8 -14.05 31.1 -14.05 30.6 -14.05 30.35 -14.3 L30.3 -14.4 31.1 -14.7 31.9 -14.45 31.95 -14.4 M33.95 -15.2 L34.75 -14.95 Q34.4 -14.6 33.95 -14.6 L33.25 -14.65 33.15 -14.8 Q33.4 -15.2 33.95 -15.2 M28.15 -24.0 Q28.0 -23.65 27.3 -23.65 26.8 -23.65 26.55 -23.9 L26.5 -24.0 Q26.8 -24.3 27.3 -24.3 L28.1 -24.05 28.15 -24.0 M25.05 -14.2 L25.15 -13.85 24.25 -13.65 23.45 -13.7 23.35 -13.85 Q23.6 -14.25 24.4 -14.25 L25.05 -14.2 M22.15 -11.95 Q22.4 -12.35 22.95 -12.35 L23.75 -12.1 Q23.4 -11.75 22.95 -11.75 L22.25 -11.8 22.15 -11.95 M-28.0 -17.15 Q-28.6 -16.85 -28.85 -16.85 L-29.65 -17.05 Q-29.35 -17.5 -28.85 -17.45 L-28.05 -17.2 -28.0 -17.15 M-21.45 -18.35 Q-21.2 -18.75 -20.65 -18.75 L-19.85 -18.5 Q-20.2 -18.15 -20.65 -18.15 L-21.35 -18.2 -21.45 -18.35 M-23.75 -17.55 L-24.55 -17.35 -25.25 -17.4 -25.35 -17.55 Q-25.15 -17.95 -24.4 -17.95 L-23.85 -17.9 -23.75 -17.55 M-23.05 -15.85 L-23.0 -15.8 -23.85 -15.5 -24.65 -15.7 Q-24.35 -16.15 -23.85 -16.1 L-23.05 -15.85 M-36.75 -15.4 L-36.2 -15.35 -36.05 -15.1 -36.9 -14.8 -37.6 -14.95 -37.7 -15.1 Q-37.25 -15.55 -36.75 -15.4 M-31.25 -15.3 Q-31.0 -15.7 -30.45 -15.7 L-29.65 -15.45 -30.45 -15.05 -31.25 -15.3 M-32.7 -14.2 L-33.55 -13.75 -34.35 -13.95 Q-34.45 -14.5 -33.55 -14.5 -33.0 -14.5 -32.7 -14.2 M-33.85 -6.6 Q-33.65 -7.0 -32.7 -7.0 L-32.0 -6.95 -31.9 -6.6 -32.9 -6.4 -33.75 -6.45 -33.85 -6.6 M-34.1 -9.15 L-33.25 -8.9 Q-33.5 -8.55 -34.1 -8.55 L-34.85 -8.6 -34.95 -8.75 Q-34.7 -9.15 -34.1 -9.15 M-36.3 -12.25 L-35.5 -12.0 -36.3 -11.6 -37.1 -11.85 Q-36.85 -12.25 -36.3 -12.25 M-32.0 -5.0 L-32.7 -5.05 -32.8 -5.4 Q-32.8 -5.7 -31.85 -5.7 L-31.15 -5.4 Q-31.55 -5.0 -32.0 -5.0 M-26.15 -1.3 Q-25.9 -1.7 -25.3 -1.7 L-24.45 -1.45 Q-24.7 -1.1 -25.3 -1.1 L-26.05 -1.15 -26.15 -1.3 M-28.65 -2.55 L-29.65 -2.9 Q-29.35 -3.25 -28.7 -3.25 L-27.8 -2.85 -28.65 -2.55 M-21.85 -3.75 L-21.0 -3.5 Q-21.35 -3.1 -21.85 -3.1 L-22.7 -3.35 Q-22.45 -3.75 -21.85 -3.75 M-3.95 -20.4 Q-4.75 -20.4 -4.75 -20.75 -4.75 -21.2 -3.95 -21.2 -3.15 -21.2 -3.15 -20.8 -3.15 -20.4 -3.95 -20.4 M-2.15 -12.55 Q-1.9 -12.95 -1.2 -12.95 L-0.55 -12.7 Q-0.9 -12.35 -1.35 -12.35 L-2.05 -12.4 -2.15 -12.55 M-4.25 -17.7 Q-4.7 -17.25 -5.05 -17.25 L-5.85 -17.45 Q-5.7 -17.95 -4.9 -17.95 L-4.25 -17.7 M-15.15 -19.2 Q-14.85 -19.65 -14.35 -19.6 L-13.55 -19.35 Q-13.9 -19.0 -14.35 -19.0 L-15.15 -19.2 M-12.95 -20.4 L-12.4 -20.35 -12.25 -20.1 -13.1 -19.8 -13.8 -19.85 -13.9 -20.0 Q-13.7 -20.4 -12.95 -20.4 M-11.15 -19.3 Q-10.9 -19.7 -10.15 -19.7 L-9.15 -19.45 Q-9.45 -19.1 -10.15 -19.1 L-11.15 -19.3 M-16.9 -19.4 Q-16.65 -19.8 -16.1 -19.8 L-15.3 -19.55 Q-15.65 -19.2 -16.1 -19.2 L-16.8 -19.25 -16.9 -19.4 M-17.6 -3.55 Q-17.3 -4.0 -16.8 -3.95 L-16.0 -3.7 Q-16.35 -3.35 -16.8 -3.35 L-17.6 -3.55 M-14.6 -4.6 L-14.65 -4.7 -13.85 -5.0 -13.05 -4.75 -13.0 -4.7 Q-13.15 -4.35 -13.85 -4.35 -14.35 -4.35 -14.6 -4.6 M-4.7 -7.15 Q-5.3 -6.85 -5.55 -6.85 L-6.35 -7.05 Q-6.05 -7.5 -5.55 -7.45 L-4.75 -7.2 -4.7 -7.15" fill="#696a6c" fill-opacity="0.29803923" fill-rule="evenodd" stroke="none"/>
      <path d="M6.85 -7.0 L6.75 21.2 6.15 21.35 6.3 -6.9 6.85 -7.0 M9.35 -7.55 L9.4 20.55 8.9 20.7 8.75 -7.45 9.35 -7.55 M8.0 -7.25 L7.9 20.95 7.3 21.1 7.45 -7.15 8.0 -7.25 M4.55 -6.5 L4.65 21.75 4.1 21.85 3.95 -6.4 4.55 -6.5 M2.05 -5.95 L2.0 22.4 1.4 22.55 1.5 -5.85 2.05 -5.95 M5.55 -6.75 L5.95 21.4 5.45 21.55 5.0 -6.6 5.55 -6.75 M3.25 -6.25 L3.15 22.1 2.5 22.25 2.65 -6.1 3.25 -6.25 M19.4 -9.8 L19.5 18.05 18.95 18.2 18.8 -9.65 19.4 -9.8 M18.1 -9.5 L18.0 18.45 17.35 18.6 17.55 -9.35 18.1 -9.5 M16.9 -9.25 L16.85 18.7 16.25 18.85 16.35 -9.1 16.9 -9.25 M14.6 -8.75 L14.7 19.25 14.2 19.35 14.0 -8.6 14.6 -8.75 M12.15 -8.2 L12.05 19.9 11.45 20.05 11.6 -8.05 12.15 -8.2 M13.3 -8.45 L13.2 19.6 12.6 19.75 12.75 -8.3 13.3 -8.45 M15.6 -8.95 L16.0 18.9 15.45 19.05 15.1 -8.85 15.6 -8.95 M10.35 -7.8 L10.7 20.25 10.2 20.35 9.8 -7.65 10.35 -7.8 M32.15 -12.65 L32.05 14.95 31.5 15.1 31.6 -12.5 32.15 -12.65 M34.65 -13.2 L34.7 14.3 34.2 14.4 34.05 -13.05 34.65 -13.2 M33.3 -12.9 L33.2 14.65 32.6 14.8 32.75 -12.75 33.3 -12.9 M40.4 -14.55 L40.55 -4.15 40.15 4.75 39.85 -14.35 40.4 -14.55 M36.9 -13.7 L36.85 13.8 36.3 13.9 36.25 13.9 36.35 -13.6 36.9 -13.7 M38.1 -13.95 L38.0 13.5 37.35 13.65 37.5 -13.85 38.1 -13.95 M39.4 -14.25 L39.5 12.8 38.95 13.1 38.8 -14.15 39.4 -14.25 M35.65 -13.4 L36.0 13.95 35.5 14.1 35.1 -13.3 35.65 -13.4 M26.85 -11.45 L26.75 16.25 26.15 16.4 26.3 -11.35 26.85 -11.45 M28.0 -11.75 L27.9 16.0 27.3 16.15 27.45 -11.6 28.0 -11.75 M29.3 -12.0 L29.4 15.6 28.85 15.75 28.7 -11.9 29.3 -12.0 M30.3 -12.25 L30.7 15.3 30.2 15.4 29.8 -12.1 30.3 -12.25 M24.55 -10.95 L24.65 16.8 24.1 16.95 23.95 -10.8 24.55 -10.95 M22.05 -10.4 L22.0 17.45 21.4 17.6 21.5 -10.25 22.05 -10.4 M23.25 -10.65 L23.15 17.15 22.5 17.3 22.65 -10.5 23.25 -10.65 M25.55 -11.15 L25.95 16.45 25.4 16.6 25.0 -11.05 25.55 -11.15 M20.4 -10.0 L20.8 17.75 20.25 17.85 19.85 -9.9 20.4 -10.0 M0.25 22.8 L-0.15 -5.45 0.4 -5.6 0.8 22.7 0.25 22.8 M-40.95 -13.4 L-41.0 -14.5 -40.95 -14.4 -40.95 -13.4 M-39.9 -12.9 L-40.05 4.2 -40.3 -0.4 -40.2 -13.35 -39.9 -12.9 M-38.45 -10.9 L-38.35 15.35 -38.75 14.8 -38.8 -11.4 -38.45 -10.9 M-36.35 -7.95 L-36.45 18.1 -36.8 17.6 -36.7 -8.4 -36.35 -7.95 M-35.6 -6.8 L-35.5 19.45 -35.85 18.9 -35.95 -7.35 -35.6 -6.8 M-37.75 -9.9 L-37.7 16.35 -38.05 15.8 -38.1 -10.4 -37.75 -9.9 M-37.05 -8.85 L-37.25 17.0 -37.55 16.55 -37.35 -9.3 -37.05 -8.85 M-33.9 -4.5 L-34.15 21.35 -34.45 20.9 -34.25 -4.95 -33.9 -4.5 M-33.25 -3.55 L-33.35 22.45 -33.65 22.05 -33.6 -4.05 -33.25 -3.55 M-31.05 -0.45 L-31.25 25.4 -31.6 24.95 -31.35 -0.9 -31.05 -0.45 M-32.5 -2.5 L-32.4 23.8 -32.75 23.3 -32.85 -2.95 -32.5 -2.5 M-31.75 -1.45 L-31.7 24.8 -32.05 24.3 -32.1 -1.95 -31.75 -1.45 M-34.9 -5.85 L-34.8 20.4 -35.2 19.85 -35.2 -6.3 -34.9 -5.85 M-23.1 -0.4 L-23.15 28.6 -23.8 28.75 -23.65 -0.25 -23.1 -0.4 M-21.9 -0.65 L-22.0 28.35 -22.65 28.5 -22.45 -0.55 -21.9 -0.65 M-20.6 -0.95 L-20.5 27.95 -21.05 28.1 -21.2 -0.8 -20.6 -0.95 M-39.25 -12.0 L-39.3 13.45 -39.65 10.1 -39.6 -12.5 -39.25 -12.0 M-15.45 -2.1 L-15.35 26.7 -15.9 26.8 -16.05 -1.95 -15.45 -2.1 M-19.6 -1.15 L-19.2 27.65 -19.7 27.75 -20.15 -1.05 -19.6 -1.15 M-16.75 -1.8 L-16.85 27.05 -17.5 27.2 -17.35 -1.65 -16.75 -1.8 M-17.95 -1.55 L-18.0 27.35 -18.65 27.5 -18.5 -1.4 -17.95 -1.55 M-13.15 -2.6 L-13.25 26.15 -13.85 26.3 -13.7 -2.45 -13.15 -2.6 M-14.45 -2.3 L-14.05 26.35 -14.55 26.5 -15.0 -2.2 -14.45 -2.3 M-12.0 -2.85 L-12.1 25.9 -12.7 26.05 -12.55 -2.75 -12.0 -2.85 M-10.7 -3.15 L-10.6 25.5 -11.15 25.65 -11.3 -3.0 -10.7 -3.15 M-7.85 -3.75 L-7.95 24.85 -8.55 25.0 -8.4 -3.65 -7.85 -3.75 M-6.7 -4.0 L-6.8 24.55 -7.4 24.7 -7.25 -3.9 -6.7 -4.0 M-5.35 -4.3 L-5.3 24.2 -5.8 24.3 -5.95 -4.2 -5.35 -4.3 M-1.9 -5.1 L-2.0 23.4 -2.65 23.55 -2.5 -4.95 -1.9 -5.1 M-3.1 -4.8 L-3.15 23.65 -3.75 23.8 -3.65 -4.7 -3.1 -4.8 M-4.35 -4.55 L-3.95 23.85 -4.5 24.0 -4.9 -4.4 -4.35 -4.55 M-0.6 -5.35 L-0.5 23.0 -1.05 23.15 -1.2 -5.25 -0.6 -5.35 M-9.7 -3.35 L-9.25 25.2 -9.8 25.3 -10.2 -3.25 -9.7 -3.35 M-29.6 0.75 L-29.5 27.9 -29.9 27.35 -29.95 0.7 -29.6 0.75 M-28.9 0.8 L-28.8 28.85 -29.2 28.3 -29.25 0.8 -28.9 0.8 M-25.4 0.1 L-25.3 29.15 -25.8 29.25 -26.0 0.25 -25.4 0.1 M-28.0 0.7 L-27.85 0.65 -27.95 29.45 -28.55 29.15 -28.4 0.75 -28.05 0.7 -28.0 0.7 M-26.7 0.4 L-26.8 29.5 -27.45 29.5 -27.25 0.5 -26.7 0.4 M-30.4 0.4 L-30.5 26.45 -30.8 26.1 -30.75 -0.05 -30.55 0.2 -30.4 0.4 M-24.5 28.95 L-24.9 0.0 -24.4 -0.1 -23.95 28.8 -24.5 28.95" fill="#bfbfbf" fill-opacity="0.29803923" fill-rule="evenodd" stroke="none"/>
    </g>
    <linearGradient gradientTransform="matrix(0.6353, 0.7681, -0.7681, 0.6353, -222.2, -1253.4)" gradientUnits="userSpaceOnUse" id="gradient0" spreadMethod="pad" x1="-819.2" x2="819.2">
      <stop offset="0.23529411764705882" stop-color="#484742"/>
      <stop offset="0.3215686274509804" stop-color="#58595a"/>
      <stop offset="0.396078431372549" stop-color="#696a6c"/>
    </linearGradient>
    <linearGradient gradientTransform="matrix(0.0038, -1.0E-4, 4.0E-4, 0.018, -28.7, 14.9)" gradientUnits="userSpaceOnUse" id="gradient1" spreadMethod="pad" x1="-819.2" x2="819.2">
      <stop offset="0.23529411764705882" stop-color="#484742"/>
      <stop offset="0.40784313725490196" stop-color="#58595a"/>
      <stop offset="0.5607843137254902" stop-color="#696a6c"/>
    </linearGradient>
  </defs>
</svg>
