<?xml version="1.0" encoding="UTF-8" standalone="no"?>
<svg xmlns:xlink="http://www.w3.org/1999/xlink" height="27.55px" width="16.55px" xmlns="http://www.w3.org/2000/svg">
  <g transform="matrix(1.0, 0.0, 0.0, 1.0, 8.25, 13.75)">
    <use height="27.55" transform="matrix(1.0, 0.0, 0.0, 1.0, -8.25, -13.75)" width="16.55" xlink:href="#shape0"/>
  </g>
  <defs>
    <g id="shape0" transform="matrix(1.0, 0.0, 0.0, 1.0, 8.25, 13.75)">
      <path d="M-6.6 -2.6 Q-8.15 -4.75 -8.15 -7.55 -8.15 -11.1 -5.7 -13.55 L-5.6 -13.65 -7.05 -6.45 -5.9 -6.45 -5.9 -2.4 -4.25 -3.5 -4.25 -4.35 -1.3 -0.3 -1.3 -4.0 -1.05 -4.55 -1.3 -4.0 -1.3 -4.8 -1.05 -4.55 1.25 -2.25 2.05 -1.45 4.1 -4.1 4.1 -1.45 7.45 -5.9 8.1 -4.3 7.35 -2.9 5.9 -0.55 Q4.5 2.65 3.95 5.8 L3.9 6.1 3.8 6.85 -3.3 6.85 -3.4 6.1 -3.45 5.8 Q-4.05 2.1 -5.25 -0.55 L-6.6 -2.6" fill="url(#gradient0)" fill-rule="evenodd" stroke="none"/>
      <path d="M-5.6 -13.65 L-5.1 -9.8 -3.95 -10.9 -3.95 -8.95 -1.65 -8.95 1.2 -8.95 1.2 -7.6 1.1 -7.05 1.05 -7.1 0.7 -7.25 -0.8 -7.25 -1.05 -7.15 -1.15 -7.1 -1.15 -7.05 -1.3 -6.75 -1.15 -6.4 -0.95 -6.25 -0.8 -6.25 -0.8 -5.1 -1.05 -4.55 -1.3 -4.8 -1.3 -4.0 -1.3 -0.3 -4.25 -4.35 -4.25 -3.5 -5.9 -2.4 -5.9 -6.45 -7.05 -6.45 -5.6 -13.65 M1.2 -6.7 L1.2 -5.45 4.55 -8.0 4.55 -5.35 6.65 -7.0 7.2 -7.7 Q8.5 -6.6 8.15 -4.4 L8.1 -4.3 7.45 -5.9 4.1 -1.45 4.1 -4.1 2.05 -1.45 1.25 -2.25 1.25 -3.95 0.7 -5.05 0.7 -6.25 1.05 -6.4 1.2 -6.7 M-1.15 -7.05 L-1.65 -8.95 -1.15 -7.05" fill="url(#gradient1)" fill-rule="evenodd" stroke="none"/>
      <path d="M1.2 -6.7 L1.05 -6.4 0.7 -6.25 0.7 -5.05 1.25 -3.95 1.25 -2.25 -1.05 -4.55 -0.8 -5.1 -0.8 -6.25 -0.95 -6.25 -1.15 -6.4 -1.3 -6.75 -1.15 -7.05 -1.15 -7.1 -1.05 -7.15 -0.8 -7.25 0.7 -7.25 1.05 -7.1 1.1 -7.05 1.2 -6.75 1.2 -6.7" fill="#666666" fill-rule="evenodd" stroke="none"/>
      <path d="M1.1 -7.05 L1.2 -7.6 1.2 -6.75 1.1 -7.05" fill="url(#gradient2)" fill-rule="evenodd" stroke="none"/>
      <path d="M-3.2 7.65 L-3.4 7.55 -3.5 7.35 -3.5 7.3 -3.4 7.05 -3.2 7.0 3.6 7.0 3.85 7.05 3.9 7.3 3.9 7.35 3.85 7.55 3.6 7.65 -3.2 7.65" fill="url(#gradient3)" fill-rule="evenodd" stroke="none"/>
      <path d="M-3.2 7.65 L3.6 7.65 3.6 8.3 -3.2 8.3 -3.2 7.65" fill="url(#gradient4)" fill-rule="evenodd" stroke="none"/>
      <path d="M3.6 8.3 L3.85 8.35 3.9 8.6 3.9 8.65 3.85 8.85 3.6 8.95 -3.2 8.95 -3.4 8.85 -3.5 8.65 -3.5 8.6 -3.4 8.35 -3.2 8.3 3.6 8.3" fill="url(#gradient5)" fill-rule="evenodd" stroke="none"/>
      <path d="M3.6 8.95 L3.6 9.6 -3.2 9.6 -3.2 8.95 3.6 8.95" fill="url(#gradient6)" fill-rule="evenodd" stroke="none"/>
      <path d="M3.6 9.6 L3.85 9.65 3.9 9.9 3.9 9.95 3.85 10.15 3.6 10.25 -3.2 10.25 -3.4 10.15 -3.5 9.95 -3.5 9.9 -3.4 9.65 -3.2 9.6 3.6 9.6" fill="url(#gradient7)" fill-rule="evenodd" stroke="none"/>
      <path d="M3.6 10.9 L3.85 10.95 3.9 11.2 3.9 11.25 3.85 11.45 3.6 11.55 -3.2 11.55 -3.4 11.45 -3.5 11.25 -3.5 11.2 -3.4 10.95 -3.2 10.9 3.6 10.9" fill="url(#gradient8)" fill-rule="evenodd" stroke="none"/>
      <path d="M3.6 10.25 L3.6 10.9 -3.2 10.9 -3.2 10.25 3.6 10.25" fill="url(#gradient9)" fill-rule="evenodd" stroke="none"/>
      <path d="M3.6 11.55 L2.3 12.55 -1.95 12.6 -3.2 11.55 3.6 11.55" fill="url(#gradient10)" fill-rule="evenodd" stroke="none"/>
      <path d="M2.3 12.55 L0.95 13.65 -0.75 13.65 -1.95 12.6 2.3 12.55" fill="#2f2f2f" fill-rule="evenodd" stroke="none"/>
      <path d="M-5.6 -13.65 L-5.1 -9.8 -3.95 -10.9 -3.95 -8.95 -1.65 -8.95 M8.15 -4.4 Q8.5 -6.6 7.2 -7.7 L6.65 -7.0 4.55 -5.35 4.55 -8.0 1.2 -5.45 1.2 -6.7 M1.25 -2.25 L2.05 -1.45 4.1 -4.1 4.1 -1.45 7.45 -5.9 8.1 -4.3 M1.2 -7.6 L1.2 -8.95 -1.65 -8.95 M1.2 -6.75 L1.2 -7.6 M1.25 -2.25 L-1.05 -4.55 -1.3 -4.0 -1.3 -0.3 -4.25 -4.35 -4.25 -3.5 -5.9 -2.4 -5.9 -6.45 -7.05 -6.45 -5.6 -13.65 M7.35 -2.9 L5.9 -0.55 Q4.5 2.65 3.95 5.8 L3.9 6.1 3.8 6.85 M-3.3 6.85 L-3.4 6.1 -3.45 5.8 Q-4.05 2.1 -5.25 -0.55 L-6.6 -2.6 M-1.05 -4.55 L-1.3 -4.8 -1.3 -4.0" fill="none" stroke="#cccccc" stroke-linecap="round" stroke-linejoin="round" stroke-width="0.25"/>
      <path d="M-6.6 -2.6 Q-8.15 -4.75 -8.15 -7.55 -8.15 -11.1 -5.7 -13.55 L-5.6 -13.65 M8.1 -4.3 L8.15 -4.4 M8.1 -4.3 L7.35 -2.9" fill="none" stroke="#cccccc" stroke-linecap="round" stroke-linejoin="round" stroke-width="0.25"/>
      <path d="M-1.65 -8.95 L-1.95 -10.15 -2.05 -10.5 M1.65 -10.15 L1.7 -10.4 M1.1 -7.05 L1.2 -7.6 1.65 -10.15 M-1.65 -8.95 L-1.15 -7.05" fill="none" stroke="#666666" stroke-linecap="round" stroke-linejoin="round" stroke-width="0.35000000000000003"/>
      <path d="M1.65 -10.15 L1.25 -10.15 1.25 -9.8 0.9 -9.8 0.5 -10.25 0.5 -9.6 0.2 -10.05 -0.25 -10.25 -0.25 -9.55 -0.8 -10.2 -1.15 -9.65 -1.95 -10.15" fill="none" stroke="#666666" stroke-linecap="round" stroke-linejoin="round" stroke-width="0.05"/>
      <path d="M3.6 7.65 L3.85 7.55 3.9 7.35 3.9 7.3 3.85 7.05 3.6 7.0 -3.2 7.0 -3.4 7.05 -3.5 7.3 -3.5 7.35 -3.4 7.55 -3.2 7.65 M3.6 7.65 L3.6 8.3 3.85 8.35 3.9 8.6 3.9 8.65 3.85 8.85 3.6 8.95 3.6 9.6 3.85 9.65 3.9 9.9 3.9 9.95 3.85 10.15 3.6 10.25 3.6 10.9 3.85 10.95 3.9 11.2 3.9 11.25 3.85 11.45 3.6 11.55 2.3 12.55 0.95 13.65 -0.75 13.65 -1.95 12.6 -3.2 11.55 -3.4 11.45 -3.5 11.25 -3.5 11.2 -3.4 10.95 -3.2 10.9 -3.2 10.25 -3.4 10.15 -3.5 9.95 -3.5 9.9 -3.4 9.65 -3.2 9.6 -3.2 8.95 -3.4 8.85 -3.5 8.65 -3.5 8.6 -3.4 8.35 -3.2 8.3 -3.2 7.65" fill="none" stroke="#666666" stroke-linecap="round" stroke-linejoin="round" stroke-width="0.35000000000000003"/>
    </g>
    <radialGradient cx="0" cy="0" gradientTransform="matrix(0.0208, 0.0, 0.0, 0.0202, 0.75, -8.35)" gradientUnits="userSpaceOnUse" id="gradient0" r="819.2" spreadMethod="pad">
      <stop offset="0.3215686274509804" stop-color="#ffffff"/>
      <stop offset="0.9137254901960784" stop-color="#b7b7b7"/>
    </radialGradient>
    <radialGradient cx="0" cy="0" gradientTransform="matrix(0.0131, 0.0, 0.0, 0.0131, -0.5, -5.35)" gradientUnits="userSpaceOnUse" id="gradient1" r="819.2" spreadMethod="pad">
      <stop offset="0.0" stop-color="#959595"/>
      <stop offset="0.8" stop-color="#eaeaea"/>
    </radialGradient>
    <radialGradient cx="0" cy="0" gradientTransform="matrix(0.0131, 0.0, 0.0, 0.0131, -0.5, -5.35)" gradientUnits="userSpaceOnUse" id="gradient2" r="819.2" spreadMethod="pad">
      <stop offset="0.0" stop-color="#b7b7b7"/>
      <stop offset="0.7058823529411765" stop-color="#ffffff"/>
    </radialGradient>
    <linearGradient gradientTransform="matrix(0.0045, 0.0, 0.0, 4.0E-4, 0.2, 7.3)" gradientUnits="userSpaceOnUse" id="gradient3" spreadMethod="pad" x1="-819.2" x2="819.2">
      <stop offset="0.0784313725490196" stop-color="#d5d5d5"/>
      <stop offset="0.39215686274509803" stop-color="#9b9b9b"/>
      <stop offset="0.596078431372549" stop-color="#cccccc"/>
      <stop offset="0.7490196078431373" stop-color="#c8c8c8"/>
      <stop offset="1.0" stop-color="#444444"/>
    </linearGradient>
    <linearGradient gradientTransform="matrix(0.0042, 0.0, 0.0, 4.0E-4, 0.2, 7.95)" gradientUnits="userSpaceOnUse" id="gradient4" spreadMethod="pad" x1="-819.2" x2="819.2">
      <stop offset="0.09019607843137255" stop-color="#959595"/>
      <stop offset="0.2784313725490196" stop-color="#7b7b7b"/>
      <stop offset="0.5019607843137255" stop-color="#9b9b9b"/>
      <stop offset="0.7490196078431373" stop-color="#737373"/>
      <stop offset="1.0" stop-color="#444444"/>
    </linearGradient>
    <linearGradient gradientTransform="matrix(0.0045, 0.0, 0.0, 4.0E-4, 0.2, 8.6)" gradientUnits="userSpaceOnUse" id="gradient5" spreadMethod="pad" x1="-819.2" x2="819.2">
      <stop offset="0.0784313725490196" stop-color="#d5d5d5"/>
      <stop offset="0.39215686274509803" stop-color="#9b9b9b"/>
      <stop offset="0.596078431372549" stop-color="#cccccc"/>
      <stop offset="0.7490196078431373" stop-color="#c8c8c8"/>
      <stop offset="1.0" stop-color="#444444"/>
    </linearGradient>
    <linearGradient gradientTransform="matrix(0.0042, 0.0, 0.0, 4.0E-4, 0.2, 9.25)" gradientUnits="userSpaceOnUse" id="gradient6" spreadMethod="pad" x1="-819.2" x2="819.2">
      <stop offset="0.09019607843137255" stop-color="#959595"/>
      <stop offset="0.2784313725490196" stop-color="#7b7b7b"/>
      <stop offset="0.5019607843137255" stop-color="#9b9b9b"/>
      <stop offset="0.7490196078431373" stop-color="#737373"/>
      <stop offset="1.0" stop-color="#444444"/>
    </linearGradient>
    <linearGradient gradientTransform="matrix(0.0045, 0.0, 0.0, 4.0E-4, 0.2, 9.85)" gradientUnits="userSpaceOnUse" id="gradient7" spreadMethod="pad" x1="-819.2" x2="819.2">
      <stop offset="0.0784313725490196" stop-color="#d5d5d5"/>
      <stop offset="0.39215686274509803" stop-color="#9b9b9b"/>
      <stop offset="0.596078431372549" stop-color="#cccccc"/>
      <stop offset="0.7490196078431373" stop-color="#c8c8c8"/>
      <stop offset="1.0" stop-color="#444444"/>
    </linearGradient>
    <linearGradient gradientTransform="matrix(0.0045, 0.0, 0.0, 4.0E-4, 0.2, 11.15)" gradientUnits="userSpaceOnUse" id="gradient8" spreadMethod="pad" x1="-819.2" x2="819.2">
      <stop offset="0.0784313725490196" stop-color="#d5d5d5"/>
      <stop offset="0.39215686274509803" stop-color="#9b9b9b"/>
      <stop offset="0.596078431372549" stop-color="#cccccc"/>
      <stop offset="0.7490196078431373" stop-color="#c8c8c8"/>
      <stop offset="1.0" stop-color="#444444"/>
    </linearGradient>
    <linearGradient gradientTransform="matrix(0.0042, 0.0, 0.0, 4.0E-4, 0.2, 10.5)" gradientUnits="userSpaceOnUse" id="gradient9" spreadMethod="pad" x1="-819.2" x2="819.2">
      <stop offset="0.09019607843137255" stop-color="#959595"/>
      <stop offset="0.2784313725490196" stop-color="#7b7b7b"/>
      <stop offset="0.5019607843137255" stop-color="#9b9b9b"/>
      <stop offset="0.7490196078431373" stop-color="#737373"/>
      <stop offset="1.0" stop-color="#444444"/>
    </linearGradient>
    <linearGradient gradientTransform="matrix(0.0042, 0.0, 0.0, 7.0E-4, 0.2, 12.05)" gradientUnits="userSpaceOnUse" id="gradient10" spreadMethod="pad" x1="-819.2" x2="819.2">
      <stop offset="0.09019607843137255" stop-color="#959595"/>
      <stop offset="0.2784313725490196" stop-color="#7b7b7b"/>
      <stop offset="0.5019607843137255" stop-color="#9b9b9b"/>
      <stop offset="0.7490196078431373" stop-color="#737373"/>
      <stop offset="1.0" stop-color="#444444"/>
    </linearGradient>
  </defs>
</svg>
