<?xml version="1.0" encoding="UTF-8" standalone="no"?>
<svg xmlns:xlink="http://www.w3.org/1999/xlink" height="47.0px" width="77.95px" xmlns="http://www.w3.org/2000/svg">
  <g transform="matrix(1.0, 0.0, 0.0, 1.0, 38.95, 23.5)">
    <use height="47.0" transform="matrix(1.0, 0.0, 0.0, 1.0, -38.95, -23.5)" width="77.95" xlink:href="#shape0"/>
  </g>
  <defs>
    <g id="shape0" transform="matrix(1.0, 0.0, 0.0, 1.0, 38.95, 23.5)">
      <path d="M-15.0 7.55 L-0.5 1.9 6.85 -6.95 6.9 -7.15 6.55 -7.25 6.15 -7.4 5.75 -7.25 -1.75 1.35 -15.95 6.95 -17.3 6.2 -3.25 0.85 4.3 -7.85 4.3 -8.0 4.05 -8.25 3.6 -8.3 3.15 -8.25 -4.45 0.3 -18.2 5.7 -19.75 4.8 -19.85 4.75 -20.25 4.5 -19.75 4.15 0.6 -8.9 Q2.1 -10.0 1.9 -10.95 L33.15 -0.2 Q36.2 1.25 36.95 -0.15 36.85 0.75 35.55 1.7 L13.3 18.5 Q9.45 21.35 4.8 18.85 L-12.6 8.9 -12.3 8.85 2.35 2.95 9.45 -6.05 9.55 -6.25 9.25 -6.4 8.75 -6.5 8.4 -6.4 0.95 2.5 -13.6 8.25 -13.65 8.3 Q-14.3 7.95 -15.0 7.55 M14.95 -4.3 L14.6 -4.45 14.1 -4.6 13.75 -4.45 6.65 4.65 -7.9 10.65 -8.0 10.95 -7.65 11.25 -7.15 11.3 -6.65 11.25 7.95 5.1 14.85 -4.1 14.95 -4.3 M11.4 -5.55 L11.0 -5.45 3.75 3.55 -10.75 9.5 Q-11.0 9.55 -10.85 9.65 L-10.55 10.0 -10.05 10.05 -9.5 10.0 5.05 4.0 12.15 -5.1 12.25 -5.2 11.9 -5.45 11.4 -5.55 M17.35 -3.6 L16.85 -3.7 16.45 -3.6 9.55 5.75 -4.95 11.95 Q-5.2 11.95 -5.1 12.2 L-4.8 12.45 -4.15 12.5 -3.8 12.45 10.95 6.25 17.65 -3.2 17.7 -3.4 17.35 -3.6 M19.25 -2.55 L12.45 6.9 -2.05 13.1 Q-2.3 13.15 -2.2 13.45 L-1.75 13.65 -1.25 13.85 -0.8 13.65 13.9 7.45 20.45 -2.15 20.5 -2.35 Q20.4 -2.55 20.15 -2.55 L19.6 -2.65 19.25 -2.55 M23.45 -1.25 L23.35 -1.35 22.95 -1.6 22.45 -1.65 22.1 -1.55 15.45 8.1 0.95 14.45 Q0.8 14.45 0.9 14.7 L1.2 14.95 1.8 15.0 2.25 14.95 16.9 8.55 23.3 -1.15 23.45 -1.25" fill="url(#gradient0)" fill-rule="evenodd" stroke="none"/>
      <path d="M-15.95 6.95 L-1.75 1.35 5.75 -7.25 6.15 -7.4 6.55 -7.25 6.9 -7.15 6.85 -6.95 -0.5 1.9 -15.0 7.55 -15.95 6.95 M-13.65 8.3 L-13.6 8.25 0.95 2.5 8.4 -6.4 8.75 -6.5 9.25 -6.4 9.55 -6.25 9.45 -6.05 2.35 2.95 -12.3 8.85 -12.6 8.9 -12.85 8.9 -13.3 8.85 -13.65 8.5 -13.65 8.3 M-18.2 5.7 L-4.45 0.3 3.15 -8.25 3.6 -8.3 4.05 -8.25 4.3 -8.0 4.3 -7.85 -3.25 0.85 -17.3 6.2 -18.2 5.7 M19.25 -2.55 L19.6 -2.65 20.15 -2.55 Q20.4 -2.55 20.5 -2.35 L20.45 -2.15 13.9 7.45 -0.8 13.65 -1.25 13.85 -1.75 13.65 -2.2 13.45 Q-2.3 13.15 -2.05 13.1 L12.45 6.9 19.25 -2.55 M17.35 -3.6 L17.7 -3.4 17.65 -3.2 10.95 6.25 -3.8 12.45 -4.15 12.5 -4.8 12.45 -5.1 12.2 Q-5.2 11.95 -4.95 11.95 L9.55 5.75 16.45 -3.6 16.85 -3.7 17.35 -3.6 M11.4 -5.55 L11.9 -5.45 12.25 -5.2 12.15 -5.1 5.05 4.0 -9.5 10.0 -10.05 10.05 -10.55 10.0 -10.85 9.65 Q-11.0 9.55 -10.75 9.5 L3.75 3.55 11.0 -5.45 11.4 -5.55 M14.95 -4.3 L14.85 -4.1 7.95 5.1 -6.65 11.25 -7.15 11.3 -7.65 11.25 -8.0 10.95 -7.9 10.65 6.65 4.65 13.75 -4.45 14.1 -4.6 14.6 -4.45 14.95 -4.3 M23.45 -1.25 L23.3 -1.15 16.9 8.55 2.25 14.95 1.8 15.0 1.2 14.95 0.9 14.7 Q0.8 14.45 0.95 14.45 L15.45 8.1 22.1 -1.55 22.45 -1.65 22.95 -1.6 23.35 -1.35 23.45 -1.25" fill="#292929" fill-rule="evenodd" stroke="none"/>
      <path d="M1.9 -10.95 Q2.1 -10.0 0.6 -8.9 L-19.75 4.15 -20.25 4.5 -33.85 -3.2 -33.4 -3.55 -13.35 -15.35 -13.25 -15.55 Q-10.8 -16.85 -8.4 -16.4 -7.05 -16.4 -5.65 -15.6 L-0.35 -12.9 Q1.65 -12.0 1.9 -10.95" fill="url(#gradient1)" fill-rule="evenodd" stroke="none"/>
      <path d="M36.95 -0.15 Q36.2 1.25 33.15 -0.2 L1.9 -10.95 Q1.65 -12.0 -0.35 -12.9 L-5.65 -15.6 Q-7.05 -16.4 -8.4 -16.4 L-8.25 -22.45 Q-6.6 -22.5 -4.6 -21.55 L34.4 -2.85 Q36.95 -1.6 36.95 -0.15" fill="url(#gradient2)" fill-rule="evenodd" stroke="none"/>
      <path d="M-15.0 7.55 Q-14.3 7.95 -13.65 8.3 L-13.65 8.5 -13.3 8.85 -12.85 8.9 -12.6 8.9 4.8 18.85 Q9.45 21.35 13.3 18.5 L35.55 1.7 Q36.85 0.75 36.95 -0.15 36.95 -1.6 34.4 -2.85 L-4.6 -21.55 Q-6.6 -22.5 -8.25 -22.45 -10.0 -22.45 -11.6 -21.4 L-34.7 -8.1 Q-38.65 -5.9 -34.85 -3.7 L-33.85 -3.2 -20.25 4.5 -19.85 4.75 -19.75 4.8 -18.2 5.7 -17.3 6.2 -15.95 6.95 -15.0 7.55 M37.65 1.85 L37.6 1.85 36.1 3.0 33.25 5.15 19.7 15.55 15.95 18.2 13.8 19.9 Q11.7 21.3 9.65 21.6 7.2 21.7 4.75 20.2 L-37.1 -3.6 -37.7 -3.95 Q-39.2 -5.05 -38.9 -6.05 -38.8 -7.2 -36.8 -8.25 L-12.1 -22.45 Q-10.2 -23.55 -8.25 -23.5 -6.6 -23.55 -4.6 -22.6 L36.25 -3.05 Q40.9 -0.85 37.65 1.85" fill="url(#gradient3)" fill-rule="evenodd" stroke="none"/>
      <path d="M-8.25 -22.45 L-8.4 -16.4 Q-10.8 -16.85 -13.25 -15.55 L-13.35 -15.35 -33.4 -3.55 -33.85 -3.2 -34.85 -3.7 Q-38.65 -5.9 -34.7 -8.1 L-11.6 -21.4 Q-10.0 -22.45 -8.25 -22.45" fill="url(#gradient4)" fill-rule="evenodd" stroke="none"/>
      <path d="M36.1 3.0 L37.6 1.85 37.65 1.85 Q37.85 3.45 36.8 4.7 L36.45 4.95 36.1 3.0 M-37.7 -3.95 L-37.1 -3.6 4.75 20.2 Q7.2 21.7 9.65 21.6 11.7 21.3 13.8 19.9 L15.95 18.2 16.35 23.45 12.8 22.35 12.1 22.95 Q9.0 24.05 6.0 22.9 L-34.3 5.45 -34.55 5.3 Q-36.95 3.95 -37.7 -3.95 M19.7 15.55 L33.25 5.15 34.15 10.1 29.9 9.75 19.8 17.15 19.7 15.55" fill="url(#gradient5)" fill-rule="evenodd" stroke="none"/>
      <path d="M33.25 5.15 L36.1 3.0 36.45 4.95 36.9 8.0 34.15 10.1 33.25 5.15" fill="url(#gradient6)" fill-rule="evenodd" stroke="none"/>
      <path d="M15.95 18.2 L19.7 15.55 19.8 17.15 20.35 20.3 16.35 23.45 15.95 18.2" fill="url(#gradient7)" fill-rule="evenodd" stroke="none"/>
      <path d="M2.6 -13.6 Q3.3 -13.6 3.4 -13.0 3.3 -12.45 2.7 -12.4 2.05 -12.4 1.9 -12.65 L1.85 -13.0 Q1.9 -13.6 2.6 -13.6 M5.95 -11.25 Q6.8 -11.25 6.75 -10.65 L6.75 -10.55 Q8.8 -9.85 11.3 -9.3 L11.25 -9.6 Q11.3 -10.15 12.15 -10.15 12.9 -10.15 12.9 -9.5 L12.55 -9.0 Q16.5 -8.1 16.5 -7.55 16.45 -6.65 14.75 -5.55 13.05 -4.45 13.05 -4.1 13.0 -3.55 13.2 -3.0 L13.75 -3.15 Q14.4 -3.2 14.45 -2.5 14.4 -1.95 13.75 -1.95 L13.1 -2.1 Q12.55 -1.4 10.3 -0.85 7.35 -0.1 7.3 1.65 7.25 2.1 8.8 3.6 10.3 5.05 10.25 5.75 L9.6 7.45 Q9.55 8.2 10.45 11.3 10.2 14.45 8.7 15.25 6.7 16.3 5.25 17.9 L4.3 18.6 -12.6 8.9 -12.85 8.9 -13.3 8.85 -13.65 8.5 -13.65 8.3 -18.2 5.7 -19.7 4.8 -19.85 4.75 -32.65 -2.45 -31.2 -3.55 Q-31.75 -3.65 -31.85 -4.05 L-31.85 -4.5 Q-31.85 -5.3 -31.1 -5.2 -30.45 -5.15 -30.45 -4.35 L-30.45 -4.1 -28.25 -5.6 -27.8 -6.35 -27.7 -6.6 -27.8 -6.85 -27.35 -7.35 -27.3 -7.3 -27.05 -7.5 -26.6 -7.75 -25.85 -8.1 -25.45 -8.4 -25.7 -8.4 -26.05 -8.9 -25.15 -9.25 -24.9 -9.0 -24.75 -9.35 -24.3 -9.95 -23.8 -10.1 -23.05 -10.0 -21.65 -9.8 -21.5 -9.8 -19.7 -10.8 -19.7 -10.85 -19.6 -11.1 -19.5 -11.4 -19.3 -11.6 -18.9 -11.9 -18.5 -12.2 -17.2 -12.65 -16.95 -12.8 -16.75 -12.85 -16.0 -13.45 -16.35 -13.35 Q-16.9 -13.5 -17.1 -14.0 L-17.2 -14.6 Q-17.15 -15.7 -16.2 -15.6 -15.4 -15.45 -15.35 -14.4 L-15.4 -13.7 -15.3 -13.9 -14.85 -14.15 -14.25 -14.5 -12.65 -15.3 -11.8 -15.7 -11.85 -15.8 -11.9 -16.15 Q-11.85 -16.75 -11.1 -16.75 -10.45 -16.8 -10.45 -16.25 L-7.85 -16.45 -7.85 -16.5 Q-7.8 -17.1 -7.05 -17.1 -6.4 -17.1 -6.4 -16.5 L-6.55 -16.1 -5.95 -15.8 -5.3 -15.9 -4.85 -15.75 -4.65 -15.7 -4.4 -15.45 -2.8 -15.2 -2.4 -15.1 -2.1 -15.1 -1.95 -15.05 -1.95 -15.0 -1.8 -14.2 -1.65 -13.95 -1.0 -13.5 2.9 -12.1 Q3.95 -11.55 5.25 -11.1 L5.95 -11.25 M-20.55 -13.1 Q-20.45 -13.95 -19.7 -13.85 -18.85 -13.7 -18.8 -12.75 -19.0 -11.9 -19.6 -11.95 -20.2 -12.1 -20.4 -12.55 L-20.55 -13.1 M-30.4 -7.0 L-30.05 -7.0 Q-29.7 -6.95 -29.7 -6.35 L-29.8 -5.8 -30.05 -5.8 Q-30.25 -5.8 -30.45 -6.0 L-30.4 -7.0 M-21.25 -10.5 L-21.5 -11.05 -21.05 -11.5 -20.75 -11.05 Q-20.75 -10.65 -21.25 -10.5 M-4.4 -16.45 Q-4.4 -17.1 -3.5 -17.1 -2.65 -17.1 -2.65 -16.45 -2.7 -15.9 -3.45 -15.8 -4.45 -15.8 -4.4 -16.45 M-0.05 -15.4 Q0.85 -15.4 0.8 -14.55 0.75 -13.8 -0.25 -13.8 -1.1 -13.8 -1.05 -14.65 -1.05 -15.4 -0.05 -15.4" fill="url(#gradient8)" fill-rule="evenodd" stroke="none"/>
      <path d="M-1.8 -15.3 L-1.3 -15.7 -0.95 -15.4 Q-1.0 -15.25 -1.5 -15.0 L-1.8 -15.3" fill="url(#gradient9)" fill-rule="evenodd" stroke="none"/>
      <path d="M7.95 -11.05 Q7.35 -11.1 7.4 -11.5 L7.45 -11.7 7.8 -11.8 8.3 -11.4 8.2 -11.1 7.95 -11.05" fill="url(#gradient10)" fill-rule="evenodd" stroke="none"/>
      <path d="M19.5 -8.8 Q19.7 -8.65 19.85 -8.55 L19.75 -8.3 19.5 -8.2 19.2 -8.25 19.15 -8.45 Q19.15 -8.7 19.5 -8.8" fill="url(#gradient11)" fill-rule="evenodd" stroke="none"/>
      <path d="M14.1 -0.15 Q14.05 0.6 13.05 0.7 12.15 0.6 12.2 -0.2 12.25 -1.0 13.25 -0.95 14.15 -1.0 14.1 -0.15" fill="url(#gradient12)" fill-rule="evenodd" stroke="none"/>
      <path d="M16.7 -4.85 Q17.4 -4.9 17.45 -4.25 17.4 -3.7 16.6 -3.65 16.1 -3.65 16.0 -4.0 L16.0 -4.35 Q16.0 -4.85 16.7 -4.85" fill="url(#gradient13)" fill-rule="evenodd" stroke="none"/>
      <path d="M16.7 -1.0 Q16.25 -1.05 16.35 -1.4 16.35 -1.9 16.7 -1.9 17.15 -1.9 17.05 -1.45 L16.9 -1.05 16.7 -1.0" fill="url(#gradient14)" fill-rule="evenodd" stroke="none"/>
      <path d="M10.2 1.15 L10.05 1.15 Q9.45 1.15 9.35 0.85 L9.25 0.5 Q9.25 -0.15 10.05 -0.1 10.65 -0.1 10.65 0.5 L10.6 0.85 10.9 1.2 10.85 1.4 10.55 1.5 10.2 1.15" fill="url(#gradient15)" fill-rule="evenodd" stroke="none"/>
      <path d="M11.3 2.5 Q11.35 1.9 12.05 1.9 12.75 1.9 12.85 2.55 12.75 3.15 12.15 3.2 11.5 3.15 11.35 2.8 L11.3 2.5" fill="url(#gradient16)" fill-rule="evenodd" stroke="none"/>
      <path d="M11.2 4.4 L11.25 4.2 11.6 4.2 11.95 4.4 11.9 4.65 11.55 4.75 11.2 4.4" fill="url(#gradient17)" fill-rule="evenodd" stroke="none"/>
      <path d="M14.5 5.85 Q14.5 6.45 13.75 6.45 13.25 6.45 13.1 6.15 L13.1 5.85 Q13.1 5.25 13.8 5.25 14.5 5.25 14.5 5.85" fill="url(#gradient18)" fill-rule="evenodd" stroke="none"/>
      <path d="M13.0 8.85 Q12.95 9.15 12.6 9.15 L12.25 9.1 12.2 8.8 Q12.2 8.5 12.6 8.5 L12.9 8.55 13.0 8.85" fill="url(#gradient19)" fill-rule="evenodd" stroke="none"/>
      <path d="M10.3 8.1 L10.25 7.75 Q10.3 7.2 11.1 7.2 11.8 7.2 11.7 7.75 11.7 8.4 11.1 8.45 10.45 8.4 10.3 8.1" fill="url(#gradient20)" fill-rule="evenodd" stroke="none"/>
      <path d="M11.7 11.95 Q11.25 11.95 11.15 11.65 L11.0 11.3 Q11.1 10.7 11.85 10.7 12.55 10.7 12.5 11.25 12.4 11.95 11.7 11.95" fill="url(#gradient21)" fill-rule="evenodd" stroke="none"/>
      <path d="M17.95 8.6 Q18.0 8.05 18.5 8.1 L18.85 8.3 Q18.8 8.85 18.35 8.9 L18.0 8.85 17.95 8.6" fill="url(#gradient22)" fill-rule="evenodd" stroke="none"/>
      <path d="M8.2 2.25 L8.2 1.9 Q8.2 1.3 9.0 1.3 9.6 1.3 9.7 1.9 9.6 2.55 8.9 2.55 L8.2 2.25" fill="url(#gradient23)" fill-rule="evenodd" stroke="none"/>
      <path d="M7.5 18.05 Q7.45 18.65 6.8 18.7 6.25 18.65 6.1 18.35 L6.05 18.05 Q6.05 17.5 6.8 17.5 7.45 17.4 7.5 18.05" fill="url(#gradient24)" fill-rule="evenodd" stroke="none"/>
      <path d="M8.5 15.95 Q9.15 15.95 9.15 16.55 9.1 17.2 8.45 17.2 7.95 17.2 7.8 16.9 L7.7 16.55 Q7.75 15.95 8.5 15.95" fill="url(#gradient25)" fill-rule="evenodd" stroke="none"/>
      <path d="M6.1 -7.6 L6.5 -7.45 6.85 -7.35 6.8 -7.15 -0.55 1.7 -15.05 7.35 -16.0 6.75 -1.8 1.15 5.7 -7.45 6.1 -7.6" fill="url(#gradient26)" fill-rule="evenodd" stroke="none"/>
      <path d="M9.5 -6.45 L9.4 -6.25 2.3 2.75 -12.35 8.65 -12.65 8.7 -13.7 8.1 -13.65 8.05 0.9 2.3 8.35 -6.6 8.7 -6.7 9.2 -6.6 9.5 -6.45" fill="url(#gradient27)" fill-rule="evenodd" stroke="none"/>
      <path d="M4.25 -8.2 L4.25 -8.05 -3.3 0.65 -17.35 6.0 -18.25 5.5 -4.5 0.1 3.1 -8.45 3.55 -8.5 4.0 -8.45 4.25 -8.2" fill="url(#gradient28)" fill-rule="evenodd" stroke="none"/>
      <path d="M14.55 -4.65 L14.9 -4.5 14.8 -4.3 7.9 4.9 -6.7 11.05 -7.2 11.1 -7.7 11.05 -8.05 10.75 -7.95 10.45 6.6 4.45 13.7 -4.65 14.05 -4.8 14.55 -4.65" fill="url(#gradient29)" fill-rule="evenodd" stroke="none"/>
      <path d="M11.35 -5.75 L11.85 -5.65 12.2 -5.4 12.1 -5.3 5.0 3.8 -9.6 9.8 -10.1 9.85 -10.65 9.8 -10.9 9.45 Q-11.05 9.35 -10.8 9.3 L3.7 3.35 10.95 -5.65 11.35 -5.75" fill="url(#gradient30)" fill-rule="evenodd" stroke="none"/>
      <path d="M19.55 -2.85 L20.1 -2.75 20.45 -2.55 20.4 -2.35 13.85 7.25 -0.85 13.45 -1.3 13.65 -1.8 13.45 -2.25 13.25 Q-2.35 12.95 -2.1 12.9 L12.4 6.7 19.2 -2.75 19.55 -2.85" fill="url(#gradient31)" fill-rule="evenodd" stroke="none"/>
      <path d="M17.3 -3.8 L17.65 -3.6 17.6 -3.4 10.9 6.05 -3.85 12.25 -4.2 12.3 -4.85 12.25 -5.15 12.0 -5.05 11.75 9.5 5.55 16.4 -3.8 16.8 -3.9 17.3 -3.8" fill="url(#gradient32)" fill-rule="evenodd" stroke="none"/>
      <path d="M22.4 -1.85 L22.9 -1.8 23.3 -1.55 23.4 -1.45 23.25 -1.35 16.85 8.35 2.2 14.75 1.75 14.8 1.15 14.75 0.85 14.5 Q0.75 14.25 0.9 14.25 L15.4 7.9 22.05 -1.75 22.4 -1.85" fill="url(#gradient33)" fill-rule="evenodd" stroke="none"/>
    </g>
    <linearGradient gradientTransform="matrix(0.0217, -0.0157, 0.0101, 0.0139, 7.25, 4.5)" gradientUnits="userSpaceOnUse" id="gradient0" spreadMethod="pad" x1="-819.2" x2="819.2">
      <stop offset="0.0" stop-color="#6a6a6a"/>
      <stop offset="1.0" stop-color="#1b1b1b"/>
    </linearGradient>
    <linearGradient gradientTransform="matrix(-0.0851, 0.0228, -0.0035, -0.013, -4.4, -10.75)" gradientUnits="userSpaceOnUse" id="gradient1" spreadMethod="pad" x1="-819.2" x2="819.2">
      <stop offset="0.0" stop-color="#6a6a6a"/>
      <stop offset="1.0" stop-color="#1b1b1b"/>
    </linearGradient>
    <linearGradient gradientTransform="matrix(0.0252, 0.0145, -0.0026, 0.0045, 3.2, -15.45)" gradientUnits="userSpaceOnUse" id="gradient2" spreadMethod="pad" x1="-819.2" x2="819.2">
      <stop offset="0.0" stop-color="#6a6a6a"/>
      <stop offset="1.0" stop-color="#1b1b1b"/>
    </linearGradient>
    <linearGradient gradientTransform="matrix(-0.0343, -0.0195, 0.0101, -0.0179, -0.6, -0.75)" gradientUnits="userSpaceOnUse" id="gradient3" spreadMethod="pad" x1="-819.2" x2="819.2">
      <stop offset="0.0" stop-color="#6a6a6a"/>
      <stop offset="1.0" stop-color="#1b1b1b"/>
    </linearGradient>
    <linearGradient gradientTransform="matrix(-0.0169, 0.0098, -0.002, -0.0035, -22.25, -14.75)" gradientUnits="userSpaceOnUse" id="gradient4" spreadMethod="pad" x1="-819.2" x2="819.2">
      <stop offset="0.0" stop-color="#6a6a6a"/>
      <stop offset="1.0" stop-color="#1b1b1b"/>
    </linearGradient>
    <linearGradient gradientTransform="matrix(0.0098, -0.0098, 0.0212, 0.0212, -11.75, 10.65)" gradientUnits="userSpaceOnUse" id="gradient5" spreadMethod="pad" x1="-819.2" x2="819.2">
      <stop offset="0.0" stop-color="#6a6a6a"/>
      <stop offset="1.0" stop-color="#1b1b1b"/>
    </linearGradient>
    <linearGradient gradientTransform="matrix(0.0, -0.0015, 0.0017, 0.0, 30.2, 9.6)" gradientUnits="userSpaceOnUse" id="gradient6" spreadMethod="pad" x1="-819.2" x2="819.2">
      <stop offset="0.0" stop-color="#6a6a6a"/>
      <stop offset="1.0" stop-color="#1b1b1b"/>
    </linearGradient>
    <linearGradient gradientTransform="matrix(0.0, -0.0014, 0.0021, 0.0, 14.5, 20.25)" gradientUnits="userSpaceOnUse" id="gradient7" spreadMethod="pad" x1="-819.2" x2="819.2">
      <stop offset="0.0" stop-color="#6a6a6a"/>
      <stop offset="1.0" stop-color="#1b1b1b"/>
    </linearGradient>
    <linearGradient gradientTransform="matrix(0.0304, -2.0E-4, -0.0013, 0.0223, -8.85, 1.15)" gradientUnits="userSpaceOnUse" id="gradient8" spreadMethod="pad" x1="-819.2" x2="819.2">
      <stop offset="0.4" stop-color="#ffffff"/>
      <stop offset="1.0" stop-color="#ffffff" stop-opacity="0.10980392"/>
    </linearGradient>
    <linearGradient gradientTransform="matrix(5.0E-4, 0.0, 0.0, 4.0E-4, -1.35, -15.4)" gradientUnits="userSpaceOnUse" id="gradient9" spreadMethod="pad" x1="-819.2" x2="819.2">
      <stop offset="0.4" stop-color="#ffffff"/>
      <stop offset="1.0" stop-color="#ffffff" stop-opacity="0.10980392"/>
    </linearGradient>
    <linearGradient gradientTransform="matrix(5.0E-4, 0.0, 0.0, 4.0E-4, 7.85, -11.45)" gradientUnits="userSpaceOnUse" id="gradient10" spreadMethod="pad" x1="-819.2" x2="819.2">
      <stop offset="0.4" stop-color="#ffffff"/>
      <stop offset="1.0" stop-color="#ffffff" stop-opacity="0.10980392"/>
    </linearGradient>
    <linearGradient gradientTransform="matrix(4.0E-4, 0.0, 0.0, 4.0E-4, 19.5, -8.55)" gradientUnits="userSpaceOnUse" id="gradient11" spreadMethod="pad" x1="-819.2" x2="819.2">
      <stop offset="0.4" stop-color="#ffffff"/>
      <stop offset="1.0" stop-color="#ffffff" stop-opacity="0.10980392"/>
    </linearGradient>
    <linearGradient gradientTransform="matrix(0.0012, 0.0, 0.0, 0.001, 13.1, -0.15)" gradientUnits="userSpaceOnUse" id="gradient12" spreadMethod="pad" x1="-819.2" x2="819.2">
      <stop offset="0.4" stop-color="#ffffff"/>
      <stop offset="1.0" stop-color="#ffffff" stop-opacity="0.10980392"/>
    </linearGradient>
    <linearGradient gradientTransform="matrix(9.0E-4, 0.0, 0.0, 7.0E-4, 16.7, -4.2)" gradientUnits="userSpaceOnUse" id="gradient13" spreadMethod="pad" x1="-819.2" x2="819.2">
      <stop offset="0.4" stop-color="#ffffff"/>
      <stop offset="1.0" stop-color="#ffffff" stop-opacity="0.10980392"/>
    </linearGradient>
    <linearGradient gradientTransform="matrix(4.0E-4, 0.0, 0.0, 5.0E-4, 16.6, -1.4)" gradientUnits="userSpaceOnUse" id="gradient14" spreadMethod="pad" x1="-819.2" x2="819.2">
      <stop offset="0.4" stop-color="#ffffff"/>
      <stop offset="1.0" stop-color="#ffffff" stop-opacity="0.10980392"/>
    </linearGradient>
    <linearGradient gradientTransform="matrix(0.001, 0.0, 0.0, 0.001, 10.05, 0.7)" gradientUnits="userSpaceOnUse" id="gradient15" spreadMethod="pad" x1="-819.2" x2="819.2">
      <stop offset="0.4" stop-color="#ffffff"/>
      <stop offset="1.0" stop-color="#ffffff" stop-opacity="0.10980392"/>
    </linearGradient>
    <linearGradient gradientTransform="matrix(9.0E-4, 0.0, 0.0, 8.0E-4, 11.95, 2.55)" gradientUnits="userSpaceOnUse" id="gradient16" spreadMethod="pad" x1="-819.2" x2="819.2">
      <stop offset="0.4" stop-color="#ffffff"/>
      <stop offset="1.0" stop-color="#ffffff" stop-opacity="0.10980392"/>
    </linearGradient>
    <linearGradient gradientTransform="matrix(4.0E-4, 0.0, 0.0, 4.0E-4, 11.55, 4.4)" gradientUnits="userSpaceOnUse" id="gradient17" spreadMethod="pad" x1="-819.2" x2="819.2">
      <stop offset="0.4" stop-color="#ffffff"/>
      <stop offset="1.0" stop-color="#ffffff" stop-opacity="0.10980392"/>
    </linearGradient>
    <linearGradient gradientTransform="matrix(9.0E-4, 0.0, 0.0, 7.0E-4, 13.8, 5.85)" gradientUnits="userSpaceOnUse" id="gradient18" spreadMethod="pad" x1="-819.2" x2="819.2">
      <stop offset="0.4" stop-color="#ffffff"/>
      <stop offset="1.0" stop-color="#ffffff" stop-opacity="0.10980392"/>
    </linearGradient>
    <linearGradient gradientTransform="matrix(5.0E-4, 0.0, 0.0, 4.0E-4, 12.6, 8.8)" gradientUnits="userSpaceOnUse" id="gradient19" spreadMethod="pad" x1="-819.2" x2="819.2">
      <stop offset="0.4" stop-color="#ffffff"/>
      <stop offset="1.0" stop-color="#ffffff" stop-opacity="0.10980392"/>
    </linearGradient>
    <linearGradient gradientTransform="matrix(9.0E-4, 0.0, 0.0, 7.0E-4, 10.95, 7.75)" gradientUnits="userSpaceOnUse" id="gradient20" spreadMethod="pad" x1="-819.2" x2="819.2">
      <stop offset="0.4" stop-color="#ffffff"/>
      <stop offset="1.0" stop-color="#ffffff" stop-opacity="0.10980392"/>
    </linearGradient>
    <linearGradient gradientTransform="matrix(9.0E-4, 0.0, 0.0, 7.0E-4, 11.65, 11.25)" gradientUnits="userSpaceOnUse" id="gradient21" spreadMethod="pad" x1="-819.2" x2="819.2">
      <stop offset="0.4" stop-color="#ffffff"/>
      <stop offset="1.0" stop-color="#ffffff" stop-opacity="0.10980392"/>
    </linearGradient>
    <linearGradient gradientTransform="matrix(5.0E-4, 0.0, 0.0, 5.0E-4, 18.35, 8.45)" gradientUnits="userSpaceOnUse" id="gradient22" spreadMethod="pad" x1="-819.2" x2="819.2">
      <stop offset="0.4" stop-color="#ffffff"/>
      <stop offset="1.0" stop-color="#ffffff" stop-opacity="0.10980392"/>
    </linearGradient>
    <linearGradient gradientTransform="matrix(9.0E-4, 0.0, 0.0, 7.0E-4, 8.85, 1.9)" gradientUnits="userSpaceOnUse" id="gradient23" spreadMethod="pad" x1="-819.2" x2="819.2">
      <stop offset="0.4" stop-color="#ffffff"/>
      <stop offset="1.0" stop-color="#ffffff" stop-opacity="0.10980392"/>
    </linearGradient>
    <linearGradient gradientTransform="matrix(9.0E-4, 0.0, 0.0, 7.0E-4, 6.75, 18.0)" gradientUnits="userSpaceOnUse" id="gradient24" spreadMethod="pad" x1="-819.2" x2="819.2">
      <stop offset="0.4" stop-color="#ffffff"/>
      <stop offset="1.0" stop-color="#ffffff" stop-opacity="0.10980392"/>
    </linearGradient>
    <linearGradient gradientTransform="matrix(9.0E-4, 0.0, 0.0, 7.0E-4, 8.35, 16.55)" gradientUnits="userSpaceOnUse" id="gradient25" spreadMethod="pad" x1="-819.2" x2="819.2">
      <stop offset="0.4" stop-color="#ffffff"/>
      <stop offset="1.0" stop-color="#ffffff" stop-opacity="0.10980392"/>
    </linearGradient>
    <linearGradient gradientTransform="matrix(0.0139, 0.0, 0.0, 0.0091, -4.55, -0.1)" gradientUnits="userSpaceOnUse" id="gradient26" spreadMethod="pad" x1="-819.2" x2="819.2">
      <stop offset="0.0" stop-color="#5b5b5b" stop-opacity="0.30980393"/>
      <stop offset="1.0" stop-color="#000000" stop-opacity="0.5764706"/>
    </linearGradient>
    <linearGradient gradientTransform="matrix(0.0142, 0.0, 0.0, 0.0094, -2.15, 1.0)" gradientUnits="userSpaceOnUse" id="gradient27" spreadMethod="pad" x1="-819.2" x2="819.2">
      <stop offset="0.0" stop-color="#5b5b5b" stop-opacity="0.30980393"/>
      <stop offset="1.0" stop-color="#000000" stop-opacity="0.5764706"/>
    </linearGradient>
    <linearGradient gradientTransform="matrix(0.0137, 0.0, 0.0, 0.0089, -7.0, -1.3)" gradientUnits="userSpaceOnUse" id="gradient28" spreadMethod="pad" x1="-819.2" x2="819.2">
      <stop offset="0.0" stop-color="#5b5b5b" stop-opacity="0.30980393"/>
      <stop offset="1.0" stop-color="#000000" stop-opacity="0.5764706"/>
    </linearGradient>
    <linearGradient gradientTransform="matrix(0.014, 0.0, 0.0, 0.0097, 3.45, 3.15)" gradientUnits="userSpaceOnUse" id="gradient29" spreadMethod="pad" x1="-819.2" x2="819.2">
      <stop offset="0.0" stop-color="#5b5b5b" stop-opacity="0.30980393"/>
      <stop offset="1.0" stop-color="#000000" stop-opacity="0.5764706"/>
    </linearGradient>
    <linearGradient gradientTransform="matrix(0.0141, 0.0, 0.0, 0.0095, 0.55, 2.05)" gradientUnits="userSpaceOnUse" id="gradient30" spreadMethod="pad" x1="-819.2" x2="819.2">
      <stop offset="0.0" stop-color="#5b5b5b" stop-opacity="0.30980393"/>
      <stop offset="1.0" stop-color="#000000" stop-opacity="0.5764706"/>
    </linearGradient>
    <linearGradient gradientTransform="matrix(0.0139, 0.0, 0.0, 0.0101, 9.1, 5.35)" gradientUnits="userSpaceOnUse" id="gradient31" spreadMethod="pad" x1="-819.2" x2="819.2">
      <stop offset="0.0" stop-color="#5b5b5b" stop-opacity="0.30980393"/>
      <stop offset="1.0" stop-color="#000000" stop-opacity="0.5764706"/>
    </linearGradient>
    <linearGradient gradientTransform="matrix(0.0139, 0.0, 0.0, 0.0099, 6.25, 4.2)" gradientUnits="userSpaceOnUse" id="gradient32" spreadMethod="pad" x1="-819.2" x2="819.2">
      <stop offset="0.0" stop-color="#5b5b5b" stop-opacity="0.30980393"/>
      <stop offset="1.0" stop-color="#000000" stop-opacity="0.5764706"/>
    </linearGradient>
    <linearGradient gradientTransform="matrix(0.0138, 0.0, 0.0, 0.0102, 12.05, 6.5)" gradientUnits="userSpaceOnUse" id="gradient33" spreadMethod="pad" x1="-819.2" x2="819.2">
      <stop offset="0.0" stop-color="#5b5b5b" stop-opacity="0.30980393"/>
      <stop offset="1.0" stop-color="#000000" stop-opacity="0.5764706"/>
    </linearGradient>
  </defs>
</svg>
