<?xml version="1.0" encoding="UTF-8" standalone="no"?>
<svg xmlns:xlink="http://www.w3.org/1999/xlink" height="60.05px" width="50.85px" xmlns="http://www.w3.org/2000/svg">
  <g transform="matrix(1.0, 0.0, 0.0, 1.0, 25.4, 30.0)">
    <use height="60.05" transform="matrix(1.0, 0.0, 0.0, 1.0, -25.4, -30.0)" width="50.85" xlink:href="#shape0"/>
  </g>
  <defs>
    <g id="shape0" transform="matrix(1.0, 0.0, 0.0, 1.0, 25.4, 30.0)">
      <path d="M12.7 27.95 L12.45 27.55 Q12.2 26.25 12.3 25.35 12.35 24.35 12.8 23.8 L12.95 23.6 14.25 23.35 Q15.05 23.4 16.0 24.15 16.7 24.95 17.1 26.05 L17.25 26.7 17.25 26.75 Q17.25 28.05 16.1 28.9 15.0 29.65 14.0 29.15 L12.7 27.95" fill="#1a1a1a" fill-rule="evenodd" stroke="none"/>
      <path d="M12.7 27.95 L14.0 29.15 Q15.0 29.65 16.1 28.9 17.25 28.05 17.25 26.75 L17.25 26.7 17.1 26.05 Q16.7 24.95 16.0 24.15 L16.15 24.15 Q16.95 25.0 17.5 26.2 L17.6 26.45 17.75 26.7 Q18.15 28.0 16.4 29.4 14.45 30.9 13.15 28.85 L12.7 27.95" fill="#000000" fill-rule="evenodd" stroke="none"/>
      <path d="M18.9 15.4 Q19.9 13.9 21.95 12.25 22.9 11.15 24.2 11.35 25.45 11.5 25.45 12.55 23.75 16.1 18.35 18.75 18.0 18.45 17.95 17.9 18.0 16.7 18.9 15.4" fill="#1a1a1a" fill-rule="evenodd" stroke="none"/>
      <path d="M9.2 22.85 Q5.0 22.4 2.6 15.95 L1.7 15.5 Q-1.7 10.6 -4.15 5.65 L-6.8 -0.5 -0.95 -5.25 3.05 2.5 -3.65 5.35 Q-1.55 9.6 1.3 13.65 L3.2 16.25 5.4 17.25 3.7 17.05 Q7.45 19.1 9.85 22.2 L9.2 22.85" fill="#2d3311" fill-rule="evenodd" stroke="none"/>
      <path d="M9.85 22.2 Q7.45 19.1 3.7 17.05 L5.4 17.25 3.2 16.25 1.3 13.65 Q-1.55 9.6 -3.65 5.35 L3.05 2.5 6.4 8.95 11.65 16.3 12.7 19.45 9.85 22.2" fill="#3e4617" fill-rule="evenodd" stroke="none"/>
      <path d="M9.2 22.85 L9.85 22.2 12.7 19.45 Q13.25 21.9 16.25 24.2 13.55 24.35 12.65 27.3 L12.55 27.7 Q11.85 24.4 9.45 22.85 L9.2 22.85" fill="#1a1a1a" fill-rule="evenodd" stroke="none"/>
      <path d="M2.1 1.25 Q4.0 -4.2 5.35 -5.15 L7.25 -3.5 3.9 1.45 7.0 4.2 12.8 12.45 13.0 13.65 6.65 5.05 2.1 1.25" fill="#2d3311" fill-rule="evenodd" stroke="none"/>
      <path d="M2.1 1.25 L-4.55 -4.15 0.65 -8.75 1.8 -7.6 5.35 -5.15 Q4.0 -4.2 2.1 1.25 M7.25 -3.5 Q11.4 0.5 16.95 7.7 L17.8 10.55 14.9 14.05 14.4 13.65 13.0 13.65 12.8 12.45 7.0 4.2 3.9 1.45 7.25 -3.5" fill="#3e4617" fill-rule="evenodd" stroke="none"/>
      <path d="M17.8 10.55 Q19.05 14.3 21.9 13.85 19.0 18.0 18.0 18.3 17.55 16.15 14.9 14.05 L17.8 10.55" fill="#1a1a1a" fill-rule="evenodd" stroke="none"/>
      <path d="M4.25 -8.9 Q2.0 -8.8 0.2 -10.05 L-2.85 -12.45 -2.9 -12.4 -3.25 -12.5 -4.45 -13.0 Q-5.45 -13.5 -6.25 -14.25 L-9.05 -16.9 Q-12.15 -20.65 -8.1 -22.2 -4.85 -21.3 -1.9 -17.25 L-0.85 -15.85 Q0.45 -15.65 1.95 -14.55 2.55 -14.05 4.1 -13.25 L5.9 -11.5 6.45 -10.75 6.5 -10.75 6.55 -10.6 7.4 -9.15 7.2 -9.35 Q5.95 -7.8 4.35 -8.9 L4.3 -8.95 4.25 -8.95 4.25 -8.9 M5.9 -11.5 L4.3 -8.95 5.9 -11.5" fill="#3e4617" fill-rule="evenodd" stroke="none"/>
      <path d="M7.4 -9.15 L8.5 -7.6 Q8.4 -6.5 7.8 -5.55 L7.5 -5.4 7.4 -5.4 7.35 -5.35 6.85 -5.35 6.3 -5.45 6.3 -6.0 6.55 -6.0 6.65 -6.0 6.8 -6.05 7.05 -6.15 6.8 -6.1 6.5 -6.1 5.6 -6.2 5.8 -6.0 6.15 -5.9 5.85 -5.45 5.6 -5.45 4.9 -5.75 4.75 -5.9 Q4.25 -6.55 4.6 -7.05 4.8 -8.4 4.25 -8.9 L4.25 -8.95 4.3 -8.95 4.35 -8.9 Q5.95 -7.8 7.2 -9.35 L7.4 -9.15 M4.3 -8.95 L4.25 -8.9 4.3 -8.95" fill="#feba76" fill-rule="evenodd" stroke="none"/>
      <path d="M7.5 -5.4 L7.3 -5.3 7.1 -5.25 6.3 -5.2 6.05 -5.45 5.65 -5.25 5.6 -5.3 5.5 -5.35 5.0 -5.6 4.9 -5.75 5.6 -5.45 5.85 -5.45 6.15 -5.9 5.8 -6.0 5.6 -6.2 6.5 -6.1 6.8 -6.1 7.05 -6.15 6.8 -6.05 6.65 -6.0 6.55 -6.0 6.3 -6.0 6.3 -5.45 6.85 -5.35 7.35 -5.35 7.4 -5.4 7.5 -5.4" fill="#cc9966" fill-rule="evenodd" stroke="none"/>
      <path d="M4.3 -8.95 L5.9 -11.5 M4.25 -8.9 L4.3 -8.95 Z" fill="none" stroke="#2d3311" stroke-linecap="round" stroke-linejoin="round" stroke-width="0.25"/>
      <path d="M1.65 -3.55 L2.85 -2.1 2.95 -1.15 3.8 -2.7 3.9 -2.7 4.0 -2.5 2.45 0.05 2.15 0.1 2.6 -1.4 2.5 -1.65 1.5 -3.45 1.55 -3.55 1.65 -3.55 M4.8 -1.5 L4.95 -1.6 5.1 -1.45 2.75 0.65 2.7 0.7 Q2.55 0.35 2.95 0.1 L4.0 -0.85 4.8 -1.5" fill="#2d3311" fill-rule="evenodd" stroke="none"/>
      <path d="M-18.4 -7.0 L-21.95 -9.6 Q-18.85 -19.35 -8.15 -22.3 -4.35 -19.45 -3.65 -15.2 L0.1 -11.05 0.15 -11.05 1.85 -9.45 6.15 -4.5 Q5.3 -1.2 2.65 1.15 -0.15 3.55 -5.4 4.95 L-6.05 3.65 -4.75 -1.65 -6.7 2.3 -8.45 -1.35 -8.05 -6.2 -9.3 -3.2 -9.35 -3.2 -18.4 -7.0" fill="#3e4617" fill-rule="evenodd" stroke="none"/>
      <path d="M-18.4 -7.0 L-9.35 -3.2 -9.3 -3.2 -8.05 -6.2 -8.45 -1.35 -6.7 2.3 -4.75 -1.65 -6.05 3.65 -5.4 4.95 -5.8 5.2 -6.05 5.3 -10.0 -2.55 Q-14.25 -4.3 -18.4 -7.0" fill="#2d3311" fill-rule="evenodd" stroke="none"/>
      <path d="M-12.0 7.3 Q-13.2 6.65 -13.9 5.5 L-15.45 2.9 -17.3 0.95 -19.3 -2.25 -19.35 -2.25 Q-21.5 -5.6 -21.8 -8.95 L-21.85 -9.65 Q-19.15 -13.55 -16.0 -9.25 L-13.35 -6.15 Q-12.4 -3.75 -12.85 -2.25 L-10.4 1.3 Q-9.0 3.45 -9.2 4.5 L-9.2 4.8 Q-10.5 6.8 -12.0 7.3 -10.5 6.8 -9.2 4.8 -9.1 5.4 -8.15 5.85 -9.65 9.05 -10.8 7.7 L-12.0 7.3 M-16.7 -4.3 L-18.5 -8.0 -20.8 -7.05 -18.95 -3.25 -16.7 -4.3 -18.95 -3.25 -20.8 -7.05 -18.5 -8.0 -16.7 -4.3" fill="#3e4617" fill-rule="evenodd" stroke="none"/>
      <path d="M-8.15 5.85 Q-6.65 5.85 -5.95 6.4 L-5.8 6.6 -5.5 7.4 -5.5 7.65 -5.6 7.75 -6.0 7.95 -6.15 7.55 -6.3 7.35 -6.25 8.35 -6.25 8.65 -6.35 8.95 -6.2 8.65 -6.15 8.5 -6.1 8.4 -6.1 8.15 -5.5 8.15 -5.4 8.75 -5.5 9.3 -5.5 9.4 -5.55 9.45 -5.6 9.6 -5.75 9.8 Q-6.8 10.4 -8.0 10.5 -9.55 9.65 -10.8 7.7 -9.65 9.05 -8.15 5.85" fill="#feba76" fill-rule="evenodd" stroke="none"/>
      <path d="M-5.8 6.6 L-5.6 6.75 -5.35 7.25 -5.35 7.3 -5.3 7.45 -5.3 7.5 -5.5 7.9 -5.25 8.2 -5.35 9.05 -5.4 9.25 -5.6 9.6 -5.55 9.45 -5.5 9.4 -5.5 9.3 -5.4 8.75 -5.5 8.15 -6.1 8.15 -6.1 8.4 -6.15 8.5 -6.2 8.65 -6.35 8.95 -6.25 8.65 -6.25 8.35 -6.3 7.35 -6.15 7.55 -6.0 7.95 -5.6 7.75 -5.5 7.65 -5.5 7.4 -5.8 6.6" fill="#cc9966" fill-rule="evenodd" stroke="none"/>
      <path d="M-12.0 7.3 Q-10.5 6.8 -9.2 4.8 M-16.7 -4.3 L-18.95 -3.25 -20.8 -7.05 -18.5 -8.0 -16.7 -4.3" fill="none" stroke="#2d3311" stroke-linecap="round" stroke-linejoin="round" stroke-width="0.25"/>
      <path d="M-13.85 -20.9 L-12.35 -19.2 -9.55 -14.8 Q-18.5 -14.85 -19.25 -16.55 L-13.85 -20.9" fill="#888844" fill-rule="evenodd" stroke="none"/>
      <path d="M-19.25 -16.55 Q-18.5 -14.85 -9.55 -14.8 L-12.35 -19.2 -13.85 -20.9 -8.95 -20.9 -11.7 -19.0 -8.05 -13.7 -15.95 -15.1 -18.5 -12.3 -19.25 -16.55" fill="#3e4617" fill-rule="evenodd" stroke="none"/>
      <path d="M-2.6 -16.55 L-2.8 -16.1 -1.05 -12.85 -1.8 -10.85 -4.05 -10.4 -6.05 -13.5 -6.5 -13.45 -7.3 -14.95 -3.35 -17.85 -2.6 -16.55 M-2.8 -16.1 L-3.8 -13.9 -6.05 -13.5 M-19.25 -16.55 Q-18.5 -14.85 -9.55 -14.8 L-12.35 -19.2 -13.85 -20.9 -19.25 -16.55 -18.5 -12.3 -15.95 -15.1 -8.05 -13.7 -11.7 -19.0 -8.95 -20.9 -13.85 -20.9 M-14.45 -9.0 L-9.55 -12.75 -8.6 -11.6 -8.85 -11.1 -6.65 -8.25 -7.6 -6.1 -10.4 -5.15 -12.9 -7.8 -13.45 -7.65 -14.45 -9.0 M-8.85 -11.1 L-10.1 -8.7 -12.9 -7.8 M-8.05 -13.7 L1.85 1.35" fill="none" stroke="#2d3311" stroke-linecap="round" stroke-linejoin="round" stroke-width="0.25"/>
      <path d="M-18.6 -25.05 Q-18.0 -25.55 -17.35 -25.7 -16.7 -25.9 -16.4 -25.55 -16.1 -25.25 -16.35 -24.6 -16.65 -24.0 -17.25 -23.5 -17.9 -22.95 -18.45 -22.75 L-19.4 -22.9 Q-19.7 -23.25 -19.45 -23.85 L-18.6 -25.05" fill="#ffffff" fill-rule="evenodd" stroke="none"/>
      <path d="M-16.55 -25.7 L-16.3 -25.65 -16.25 -25.35 -16.35 -25.15 -16.65 -25.05 Q-16.75 -25.05 -16.85 -25.15 L-16.95 -25.4 -16.75 -25.65 -16.55 -25.7 M-18.75 -23.6 L-18.75 -23.45 -18.6 -23.4 -18.45 -23.45 -18.35 -23.6 -18.4 -23.75 -18.5 -23.8 -18.75 -23.75 -18.75 -23.6 -18.75 -23.75 -18.5 -23.8 -18.4 -23.75 -18.35 -23.6 -18.45 -23.45 -18.6 -23.4 -18.75 -23.45 -18.75 -23.6 M-18.3 -23.3 Q-18.45 -23.15 -18.6 -23.15 -18.8 -23.15 -18.95 -23.3 L-19.0 -23.6 -18.85 -23.9 -18.5 -24.0 -18.2 -23.95 -18.1 -23.55 -18.3 -23.3" fill="#000000" fill-rule="evenodd" stroke="none"/>
      <path d="M-18.75 -23.6 L-18.75 -23.75 -18.5 -23.8 -18.4 -23.75 -18.35 -23.6 -18.45 -23.45 -18.6 -23.4 -18.75 -23.45 -18.75 -23.6 Z" fill="none" stroke="#000000" stroke-linecap="round" stroke-linejoin="round" stroke-width="0.5"/>
      <path d="M-13.4 -19.85 L-12.7 -19.35 Q-13.4 -16.75 -17.9 -15.95 L-20.1 -19.75 -19.0 -20.9 Q-19.85 -19.55 -17.2 -18.55 -14.55 -17.5 -13.4 -19.85" fill="#ffcc99" fill-rule="evenodd" stroke="none"/>
      <path d="M-13.4 -19.85 Q-14.55 -17.5 -17.2 -18.55 -19.85 -19.55 -19.0 -20.9 L-17.05 -22.9 -13.4 -19.85" fill="#bb7c3e" fill-rule="evenodd" stroke="none"/>
      <path d="M-20.1 -19.75 L-17.9 -15.95 -18.2 -15.9 -20.35 -19.5 -20.1 -19.75" fill="#ffdfbf" fill-rule="evenodd" stroke="none"/>
      <path d="M-16.8 -25.55 L-17.05 -25.1 -16.95 -24.7 -16.9 -24.65 -16.15 -25.45 -15.9 -25.4 -14.95 -24.6 -13.65 -22.6 Q-12.95 -21.2 -16.05 -20.0 -19.25 -18.8 -20.35 -19.35 -21.25 -19.7 -23.35 -22.3 -24.0 -23.0 -23.85 -23.8 L-23.8 -23.8 -23.75 -24.0 Q-23.55 -24.95 -22.75 -25.5 -19.75 -28.25 -18.75 -27.85 -17.75 -27.5 -16.75 -26.7 L-16.4 -25.95 -16.35 -25.7 -16.75 -25.55 -16.8 -25.55 M-17.9 -23.75 L-18.4 -23.95 -18.45 -24.0 -19.0 -23.55 Q-19.3 -23.25 -19.15 -22.75 L-17.9 -23.75" fill="#ffcc99" fill-rule="evenodd" stroke="none"/>
      <path d="M-14.55 -23.0 Q-14.65 -23.55 -15.15 -24.15 L-14.8 -24.05 -14.6 -23.8 Q-13.6 -22.9 -13.05 -21.6 -12.6 -20.7 -13.35 -20.05 -14.7 -18.85 -16.45 -18.7 -18.5 -18.5 -19.45 -20.05 L-19.4 -20.1 -19.3 -20.1 -16.6 -20.65 -16.5 -22.0 Q-16.4 -23.25 -14.55 -23.0" fill="#ffcc99" fill-rule="evenodd" stroke="none"/>
      <path d="M-18.35 -27.8 L-18.95 -27.0 Q-23.0 -24.95 -21.2 -23.5 -21.4 -22.3 -20.45 -21.35 L-21.05 -20.8 Q-22.1 -21.35 -21.45 -20.35 L-20.75 -18.8 -25.4 -23.1 Q-25.15 -27.1 -19.1 -30.0 L-19.1 -29.95 -18.35 -27.8" fill="#dace69" fill-rule="evenodd" stroke="none"/>
      <path d="M-16.25 -23.3 L-17.95 -25.5 -15.55 -24.3 -16.25 -23.3" fill="#ffcc99" fill-rule="evenodd" stroke="none"/>
      <path d="M-17.95 -25.5 L-15.3 -24.45 -16.1 -23.2 -16.25 -23.3 -15.55 -24.3 -17.95 -25.5" fill="#bf8040" fill-rule="evenodd" stroke="none"/>
      <path d="M-21.1 -21.05 L-20.8 -20.8 -20.2 -20.25 -19.8 -19.75 Q-19.7 -19.5 -19.75 -19.0 -19.85 -18.5 -20.9 -18.85 -21.95 -19.25 -22.25 -19.55 L-22.55 -20.25 -22.2 -20.9 -21.5 -21.15 -21.1 -21.05 M-21.05 -20.8 L-21.5 -20.95 -22.05 -20.75 -22.3 -20.25 -22.1 -19.7 -22.2 -20.0 -22.0 -20.45 -21.45 -20.65 -21.05 -20.5 -21.1 -20.3 -21.0 -19.9 -20.45 -19.9 -20.55 -20.0 Q-20.95 -20.2 -20.85 -20.6 L-20.95 -20.7 -21.0 -20.75 -21.05 -20.8" fill="#ffcc99" fill-rule="evenodd" stroke="none"/>
      <path d="M-21.05 -20.8 L-21.0 -20.75 -20.95 -20.7 -20.85 -20.6 Q-20.95 -20.2 -20.55 -20.0 L-20.45 -19.9 -21.0 -19.9 -21.1 -20.3 -21.05 -20.5 -21.45 -20.65 -22.0 -20.45 -22.2 -20.0 -22.1 -19.7 -22.3 -20.25 -22.05 -20.75 -21.5 -20.95 -21.05 -20.8" fill="#bb7c3e" fill-rule="evenodd" stroke="none"/>
      <path d="M-17.45 -25.45 L-17.6 -25.75 -16.55 -26.65 -16.4 -26.15 -17.45 -25.45" fill="#dace69" fill-rule="evenodd" stroke="none"/>
      <path d="M-19.45 -23.75 L-20.2 -22.6 -20.35 -23.5 -18.35 -25.25 -17.9 -24.85 -19.45 -23.75" fill="#dace69" fill-rule="evenodd" stroke="none"/>
      <path d="M-14.75 -23.15 Q-14.2 -23.25 -14.3 -22.65 -14.35 -23.2 -14.8 -23.0 L-14.85 -23.1 -14.75 -23.15" fill="#af753a" fill-rule="evenodd" stroke="none"/>
      <path d="M-14.5 -22.1 L-14.25 -22.1 -14.2 -22.0 -14.25 -21.85 -14.55 -21.45 -14.9 -21.25 -15.05 -21.25 -15.2 -21.25 -15.15 -21.5 -14.9 -21.85 -14.5 -22.1" fill="#cc9966" fill-opacity="0.69803923" fill-rule="evenodd" stroke="none"/>
      <path d="M-16.7 -21.3 Q-16.4 -21.35 -16.25 -21.65 -15.4 -23.35 -14.65 -23.4 L-14.95 -23.55 -15.4 -23.95 -14.9 -23.7 Q-14.35 -23.65 -14.5 -23.35 L-16.15 -21.45 Q-16.4 -21.15 -16.7 -21.3" fill="#af753a" fill-rule="evenodd" stroke="none"/>
      <path d="M2.9 -8.0 Q-0.05 -2.8 -7.45 2.4 L-8.65 0.6 1.25 -9.65 2.9 -8.0" fill="#2d3311" fill-rule="evenodd" stroke="none"/>
      <path d="M-4.55 -0.45 Q-3.45 0.95 -3.5 2.3 -3.4 3.6 -4.35 4.55 -5.25 5.45 -6.65 5.45 -7.9 5.4 -9.3 4.2 -10.8 2.9 -10.65 1.65 -10.6 1.0 -10.15 0.25 -10.4 0.0 -10.3 -0.4 L-9.85 -1.35 Q-9.45 -1.75 -8.9 -1.8 L-8.15 -1.65 -7.05 -1.85 Q-5.75 -1.85 -4.55 -0.45" fill="#2d3311" fill-rule="evenodd" stroke="none"/>
      <path d="M3.65 -5.7 L1.5 -3.55 -1.15 -6.2 1.0 -8.4 3.65 -5.7" fill="#2d3311" fill-rule="evenodd" stroke="none"/>
      <path d="M4.4 -8.8 L2.25 -6.65 -0.4 -9.3 1.75 -11.5 4.4 -8.8" fill="#2d3311" fill-rule="evenodd" stroke="none"/>
    </g>
  </defs>
</svg>
