<?xml version="1.0" encoding="UTF-8" standalone="no"?>
<svg xmlns:xlink="http://www.w3.org/1999/xlink" height="59.55px" width="51.1px" xmlns="http://www.w3.org/2000/svg">
  <g transform="matrix(1.0, 0.0, 0.0, 1.0, 25.55, 29.75)">
    <use height="59.55" transform="matrix(1.0, 0.0, 0.0, 1.0, -25.55, -29.75)" width="51.1" xlink:href="#shape0"/>
  </g>
  <defs>
    <g id="shape0" transform="matrix(1.0, 0.0, 0.0, 1.0, 25.55, 29.75)">
      <path d="M12.3 27.65 L12.05 27.3 Q11.8 26.0 11.95 25.05 12.05 24.05 12.55 23.45 L12.7 23.2 14.05 22.9 Q14.9 23.0 15.85 23.7 16.6 24.5 16.95 25.6 L17.05 26.25 17.1 26.35 Q17.0 27.7 15.75 28.55 14.6 29.4 13.55 28.95 L12.3 27.65" fill="#1a1a1a" fill-rule="evenodd" stroke="none"/>
      <path d="M12.3 27.65 L13.55 28.95 Q14.6 29.4 15.75 28.55 17.0 27.7 17.1 26.35 L17.05 26.25 16.95 25.6 Q16.6 24.5 15.85 23.7 L15.95 23.7 Q16.8 24.55 17.35 25.75 L17.45 26.0 17.55 26.25 Q17.95 27.6 16.15 29.05 14.0 30.7 12.75 28.6 L12.3 27.65" fill="#000000" fill-rule="evenodd" stroke="none"/>
      <path d="M25.15 12.45 Q25.55 12.45 25.55 12.85 24.1 15.9 18.4 19.05 L18.05 18.6 Q24.05 15.1 25.15 12.45" fill="#000000" fill-rule="evenodd" stroke="none"/>
      <path d="M25.15 12.45 Q24.05 15.1 18.05 18.6 17.8 18.35 17.65 17.75 17.75 16.6 18.6 15.3 19.6 13.8 21.65 12.15 22.65 11.05 23.9 11.2 25.15 11.4 25.15 12.45" fill="#1a1a1a" fill-rule="evenodd" stroke="none"/>
      <path d="M12.2 27.0 L3.25 16.75 4.95 16.95 2.8 15.9 0.9 13.3 Q-4.05 6.4 -6.75 -1.2 L-1.35 -5.55 6.0 8.65 11.25 15.95 14.55 19.75 15.85 23.95 Q13.1 24.1 12.2 27.0" fill="#000000" fill-rule="evenodd" stroke="none"/>
      <path d="M12.2 27.0 L12.15 27.45 7.4 24.45 2.2 15.65 1.3 15.2 Q-4.25 7.25 -7.25 -0.8 L-6.75 -1.2 Q-4.05 6.4 0.9 13.3 L2.8 15.9 4.95 16.95 3.25 16.75 12.2 27.0" fill="#404040" fill-rule="evenodd" stroke="none"/>
      <path d="M1.65 0.95 L-5.05 -4.5 Q-2.4 -6.75 0.2 -9.05 L1.35 -7.85 Q6.75 -4.5 9.6 1.0 L21.4 13.6 Q18.55 17.7 17.5 18.05 L12.65 14.1 12.55 13.35 12.35 12.15 6.55 3.9 3.45 1.2 4.05 -0.7 1.65 0.95" fill="#000000" fill-rule="evenodd" stroke="none"/>
      <path d="M12.55 13.35 L6.15 4.75 1.65 0.95 4.05 -0.7 3.45 1.2 6.55 3.9 12.35 12.15 12.55 13.35" fill="#404040" fill-rule="evenodd" stroke="none"/>
      <path d="M3.7 -10.15 Q2.3 -9.65 0.45 -10.95 L-2.6 -13.35 -3.0 -13.35 -4.2 -13.85 -5.95 -15.15 -8.8 -17.8 Q-11.9 -21.55 -7.8 -23.15 -4.6 -22.2 -1.6 -18.1 L-0.55 -16.75 Q0.7 -16.55 2.2 -15.45 2.85 -14.95 4.35 -14.15 5.85 -13.35 5.5 -12.25 L3.7 -10.15 M7.9 -6.3 L7.6 -6.2 7.4 -6.15 6.6 -6.05 6.35 -6.35 5.95 -6.2 5.9 -6.25 5.8 -6.25 5.7 -6.25 5.3 -6.5 5.15 -6.65 Q5.5 -6.4 5.85 -6.4 L6.15 -6.35 6.45 -6.8 6.4 -6.75 6.1 -6.95 5.85 -7.1 6.75 -7.0 7.05 -7.05 7.3 -7.05 7.05 -6.9 6.9 -6.95 6.85 -6.9 6.6 -6.85 6.6 -6.4 7.15 -6.25 7.6 -6.3 7.7 -6.3 7.8 -6.3 7.9 -6.3" fill="#000000" fill-rule="evenodd" stroke="none"/>
      <path d="M5.5 -12.25 L6.4 -11.1 Q8.1 -9.9 8.8 -8.5 8.65 -7.45 8.05 -6.45 L7.9 -6.3 7.8 -6.3 7.7 -6.3 7.6 -6.3 7.15 -6.25 6.6 -6.4 6.6 -6.85 6.85 -6.9 6.9 -6.95 7.05 -6.9 7.3 -7.05 7.05 -7.05 6.75 -7.0 5.85 -7.1 6.1 -6.95 6.4 -6.75 6.45 -6.8 6.15 -6.35 5.85 -6.4 Q5.5 -6.4 5.15 -6.65 L5.05 -6.8 Q4.5 -7.45 4.85 -8.0 5.2 -9.65 4.15 -10.05 L3.7 -10.15 5.5 -12.25" fill="#333333" fill-rule="evenodd" stroke="none"/>
      <path d="M2.85 -7.0 L4.05 -5.65 Q2.65 -4.1 -4.4 1.1 L-6.3 0.15 2.85 -7.0 M-18.1 -7.95 L-21.7 -10.45 Q-18.55 -20.2 -7.85 -23.15 -4.1 -20.35 -3.35 -16.15 -1.75 -14.55 -0.5 -11.55 L-8.1 -4.9 -7.75 -7.1 -9.05 -4.1 -9.05 -4.15 -18.1 -7.95 M0.1 -10.15 L2.0 -7.95 -6.95 -0.15 -5.2 -3.85 -7.3 -0.8 -8.35 -2.8 0.1 -10.15" fill="#000000" fill-rule="evenodd" stroke="none"/>
      <path d="M2.85 -7.0 L-6.3 0.15 -4.4 1.1 -6.95 0.7 -9.7 -3.45 Q-14.0 -5.2 -18.1 -7.95 L-9.05 -4.15 -9.05 -4.1 -7.75 -7.1 -8.1 -4.9 -0.5 -11.55 -0.1 -10.35 0.1 -10.15 -8.35 -2.8 -7.3 -0.8 -5.2 -3.85 -6.95 -0.15 2.0 -7.95 2.85 -7.0 M-21.7 -10.45 L-21.9 -10.65 Q-18.95 -21.3 -7.9 -23.25 L-7.85 -23.15 Q-18.55 -20.2 -21.7 -10.45" fill="#404040" fill-rule="evenodd" stroke="none"/>
      <path d="M-6.25 -19.55 Q-7.35 -20.1 -8.55 -20.1 L-8.95 -20.15 -7.25 -19.4 -7.1 -19.3 Q-5.85 -18.3 -5.8 -16.75 -5.85 -16.0 -6.05 -15.45 L-6.4 -15.75 -6.2 -16.85 Q-6.25 -18.15 -7.4 -19.05 -8.65 -19.8 -9.9 -19.95 L-10.45 -20.1 -10.45 -20.0 -11.3 -20.0 -10.55 -20.55 -8.65 -20.55 Q-6.3 -20.45 -4.5 -18.8 -3.3 -16.7 -3.7 -13.95 -4.0 -11.55 -4.95 -10.45 L-4.95 -10.85 -5.0 -11.1 -4.85 -11.35 -4.85 -11.4 Q-4.3 -12.35 -4.05 -14.15 -3.65 -16.75 -4.75 -18.5 L-5.55 -19.15 -6.25 -19.55 M-5.15 -12.9 L-5.15 -12.55 -5.1 -11.75 -5.0 -10.9 -5.05 -10.2 -5.4 -10.25 Q-6.45 -10.45 -6.8 -10.85 L-6.85 -10.9 -7.25 -11.4 -7.25 -11.5 Q-6.7 -11.05 -5.75 -10.8 L-5.45 -10.7 -5.5 -10.8 -5.45 -11.35 -5.45 -11.4 -5.45 -11.8 -5.5 -12.65 -5.7 -13.65 -5.65 -13.7 -5.65 -13.8 -6.0 -14.5 -6.1 -14.6 -6.25 -14.85 -6.25 -14.9 -6.55 -15.2 -6.8 -15.4 -8.05 -16.55 -9.2 -17.9 -9.75 -18.25 -10.4 -18.15 Q-10.75 -17.8 -10.5 -17.6 L-9.95 -17.05 -9.9 -17.05 -9.7 -17.1 -9.5 -17.1 -9.3 -17.05 -9.1 -17.05 -9.0 -16.95 -9.0 -16.9 Q-9.15 -16.75 -8.9 -16.7 L-8.75 -16.45 -8.55 -16.2 -8.35 -15.8 -8.3 -15.5 -8.2 -15.3 -8.1 -14.95 -7.95 -14.8 -7.85 -14.2 -8.0 -14.2 -8.2 -14.15 -8.4 -14.95 -8.8 -15.65 -9.0 -16.1 -9.3 -16.6 -9.4 -16.7 -9.45 -16.7 -9.55 -16.65 -9.7 -16.65 -9.9 -16.0 -9.95 -15.9 -10.05 -16.15 -10.15 -16.4 -10.1 -16.7 -10.15 -16.85 Q-10.8 -17.05 -10.9 -17.4 -11.4 -17.85 -10.75 -18.4 L-10.7 -18.45 -9.8 -18.65 Q-9.45 -18.6 -8.9 -18.05 L-7.7 -16.8 -6.5 -15.8 Q-5.6 -15.15 -5.4 -14.05 L-5.35 -14.0 -5.35 -13.8 -5.3 -13.35 -5.2 -13.2 -5.15 -12.9 M-8.15 -10.25 Q-7.0 -9.7 -6.0 -10.25 L-5.3 -10.2 -5.3 -10.15 Q-6.65 -9.0 -8.2 -9.7 -9.85 -10.55 -11.0 -12.65 -12.7 -14.45 -13.0 -16.35 -13.4 -17.4 -12.9 -18.25 L-12.35 -19.05 -12.55 -18.1 -12.45 -18.05 Q-12.65 -17.75 -12.45 -17.55 -12.3 -16.25 -11.15 -15.4 -10.05 -14.55 -8.9 -14.2 L-8.0 -14.15 -7.45 -14.2 -6.75 -14.65 -6.7 -14.65 -6.65 -14.7 -6.75 -14.5 Q-7.2 -13.9 -7.65 -13.65 L-8.9 -13.75 -9.5 -13.95 -10.8 -14.75 -10.95 -14.85 -11.35 -15.15 -12.15 -15.85 -12.45 -16.25 -12.45 -16.2 -12.5 -16.3 -12.65 -16.6 -12.55 -16.3 Q-12.1 -14.5 -10.65 -12.95 -9.6 -11.0 -8.15 -10.25 M-10.0 -17.85 L-9.85 -17.8 -9.8 -17.6 -9.75 -17.55 -9.85 -17.5 -10.1 -17.55 -10.25 -17.65 -10.15 -17.8 -10.0 -17.85" fill="#ffffff" fill-opacity="0.29803923" fill-rule="evenodd" stroke="none"/>
      <path d="M-8.55 -20.1 L-8.5 -20.05 Q-7.3 -20.05 -6.25 -19.55 L-5.55 -19.15 -4.75 -18.5 Q-3.65 -16.75 -4.05 -14.15 -4.3 -12.35 -4.85 -11.4 L-4.85 -11.35 -5.0 -11.25 -5.0 -11.75 -5.05 -12.55 -5.15 -12.9 -5.2 -13.2 -5.2 -13.4 -5.25 -13.8 -5.3 -13.9 -5.35 -13.95 -5.25 -14.05 -5.95 -15.4 -5.7 -16.65 Q-5.8 -18.3 -7.1 -19.3 L-7.25 -19.4 -8.5 -20.05 -8.6 -20.05 -8.55 -20.1 M-6.8 -10.85 Q-6.6 -10.4 -6.05 -10.3 L-8.1 -10.25 -8.15 -10.25 Q-9.55 -11.05 -10.65 -13.0 -12.1 -14.6 -12.45 -16.2 L-12.45 -16.25 -12.15 -15.85 -11.4 -15.15 -10.95 -14.85 -10.8 -14.75 -9.5 -13.95 -8.85 -13.65 -7.6 -13.6 -7.65 -13.5 -6.75 -14.35 -6.5 -14.75 -6.55 -14.85 -6.65 -14.7 -6.7 -14.65 -6.75 -14.65 Q-7.15 -14.4 -7.4 -14.3 L-7.8 -14.25 -7.75 -14.35 -7.9 -14.75 -7.95 -14.8 -8.25 -15.65 -8.3 -15.8 -8.5 -16.15 -8.55 -16.2 -8.6 -16.5 -8.85 -16.75 -9.0 -16.9 -9.0 -16.95 -9.1 -17.05 -9.3 -17.05 -9.4 -17.15 -9.6 -17.2 -9.75 -17.1 -9.8 -17.15 -9.95 -17.2 Q-10.35 -17.3 -10.45 -17.55 L-10.25 -18.05 Q-10.2 -18.3 -9.75 -18.2 -9.7 -18.1 -9.2 -17.9 L-8.05 -16.55 -6.8 -15.4 -6.55 -15.2 -6.25 -14.9 -6.25 -14.85 -6.1 -14.6 -6.0 -14.5 -5.7 -13.75 -5.65 -13.7 -5.7 -13.65 -5.5 -12.65 -5.5 -11.8 -5.45 -11.4 -5.45 -11.35 -5.5 -10.8 -5.5 -10.75 -5.7 -10.85 Q-6.65 -11.1 -7.3 -11.55 L-7.25 -11.5 -7.3 -11.45 -7.25 -11.4 -6.85 -10.9 -6.8 -10.85 M-10.25 -17.65 L-10.1 -17.5 -9.85 -17.45 -9.65 -17.5 -9.65 -17.65 -9.8 -17.8 -10.0 -17.85 -10.15 -17.9 -10.25 -17.65" fill="#006666" fill-opacity="0.49019608" fill-rule="evenodd" stroke="none"/>
      <path d="M-11.6 5.8 Q-12.85 6.05 -13.85 4.25 L-15.45 1.7 -17.25 -0.3 -19.3 -3.45 Q-21.45 -6.75 -21.75 -10.2 L-21.85 -10.85 Q-19.15 -14.75 -15.95 -10.5 L-13.3 -7.35 Q-12.35 -4.95 -12.85 -3.45 L-10.35 0.1 Q-9.0 2.25 -9.15 3.3 L-9.4 4.3 -9.45 4.3 -11.6 5.8 M-5.75 5.35 L-5.6 5.55 -5.3 6.05 -5.35 6.05 -5.3 6.2 -5.25 6.3 -5.45 6.7 -5.2 7.0 -5.35 7.85 -5.4 8.1 -5.55 8.4 -5.5 8.25 -5.5 8.15 -5.45 8.1 -5.4 7.55 -5.5 6.95 -6.1 6.95 -6.1 7.25 -6.1 7.3 -6.15 7.45 -6.3 7.75 -6.25 7.45 -6.2 7.15 -6.3 6.15 -6.1 6.35 -5.95 6.75 -5.6 6.55 -5.5 6.45 -5.45 6.15 -5.75 5.35" fill="#000000" fill-rule="evenodd" stroke="none"/>
      <path d="M-11.6 5.8 L-9.45 4.3 Q-8.95 5.25 -7.2 5.0 -6.65 4.7 -5.95 5.25 L-5.75 5.35 -5.45 6.15 -5.5 6.45 -5.6 6.55 -5.95 6.75 -6.1 6.35 -6.3 6.15 -6.2 7.15 -6.25 7.45 -6.3 7.75 -6.15 7.45 -6.1 7.3 -6.1 7.25 -6.1 6.95 -5.5 6.95 -5.4 7.55 -5.45 8.1 -5.5 8.15 -5.5 8.25 -5.55 8.4 -5.7 8.6 Q-6.75 9.2 -8.0 9.3 -9.5 8.45 -10.8 6.5 L-11.6 5.8" fill="#333333" fill-rule="evenodd" stroke="none"/>
      <path d="M-18.65 -26.2 Q-18.05 -26.7 -17.4 -26.85 L-16.45 -26.7 Q-16.15 -26.4 -16.4 -25.75 -16.7 -25.15 -17.3 -24.65 L-18.5 -23.9 -19.45 -24.05 Q-19.75 -24.4 -19.5 -25.0 L-18.65 -26.2" fill="#ffffff" fill-rule="evenodd" stroke="none"/>
      <path d="M-18.35 -25.0 L-18.25 -24.6 -18.45 -24.35 Q-18.6 -24.2 -18.75 -24.2 L-19.1 -24.35 -19.15 -24.65 -19.0 -24.95 -18.65 -25.05 -18.35 -25.0 M-18.55 -24.8 L-18.65 -24.85 -18.9 -24.8 -18.9 -24.65 -18.9 -24.5 -18.75 -24.45 -18.6 -24.5 -18.5 -24.65 -18.55 -24.8 -18.5 -24.65 -18.6 -24.5 -18.75 -24.45 -18.9 -24.5 -18.9 -24.65 -18.9 -24.8 -18.65 -24.85 -18.55 -24.8 M-17.0 -26.2 L-17.1 -26.45 -16.9 -26.7 -16.7 -26.75 -16.45 -26.7 Q-16.35 -26.6 -16.4 -26.4 L-16.5 -26.2 -16.8 -26.1 -17.0 -26.2" fill="#000000" fill-rule="evenodd" stroke="none"/>
      <path d="M-18.55 -24.8 L-18.5 -24.65 -18.6 -24.5 -18.75 -24.45 -18.9 -24.5 -18.9 -24.65 -18.9 -24.8 -18.65 -24.85 -18.55 -24.8 Z" fill="none" stroke="#000000" stroke-linecap="round" stroke-linejoin="round" stroke-width="0.5"/>
      <path d="M-20.45 -20.6 L-18.0 -16.85 -18.35 -16.8 -20.7 -20.4 -20.45 -20.6" fill="#333333" fill-rule="evenodd" stroke="none"/>
      <path d="M-20.45 -20.6 L-17.1 -23.8 -12.4 -20.25 Q-13.15 -17.65 -18.0 -16.85 L-20.45 -20.6" fill="#000000" fill-rule="evenodd" stroke="none"/>
      <path d="M-18.5 -25.0 L-18.55 -25.05 -19.15 -24.6 Q-19.45 -24.3 -19.25 -23.85 L-18.0 -24.85 Q-18.25 -25.1 -18.5 -25.0 M-16.3 -26.55 L-16.05 -26.45 Q-15.5 -26.25 -15.05 -25.7 -14.55 -25.15 -13.8 -23.7 -13.05 -22.3 -16.2 -21.05 -19.35 -19.85 -20.45 -20.45 -21.35 -20.75 -23.45 -23.35 -24.1 -24.1 -23.95 -24.85 L-23.9 -24.9 -23.85 -25.1 Q-23.65 -26.0 -22.85 -26.55 -19.85 -29.35 -18.85 -28.95 -17.9 -28.55 -16.9 -27.75 L-16.55 -27.0 -16.5 -26.8 -16.85 -26.65 -16.9 -26.6 -17.2 -26.15 -17.05 -25.75 -17.0 -25.7 -16.3 -26.55" fill="#ffcc99" fill-rule="evenodd" stroke="none"/>
      <path d="M-14.9 -25.1 L-14.7 -24.85 Q-13.7 -23.95 -13.15 -22.65 -12.7 -21.75 -13.45 -21.1 -14.8 -19.9 -16.55 -19.75 -18.6 -19.55 -19.55 -21.1 L-19.5 -21.15 -19.4 -21.15 -16.7 -21.7 -16.6 -23.05 Q-16.5 -24.3 -14.65 -24.05 -14.75 -24.6 -15.25 -25.2 L-14.9 -25.1" fill="#ffcc99" fill-rule="evenodd" stroke="none"/>
      <path d="M-16.4 -24.45 L-15.7 -25.45 -18.1 -26.65 -15.45 -25.6 -16.25 -24.35 -16.4 -24.45" fill="#bf8040" fill-rule="evenodd" stroke="none"/>
      <path d="M-18.1 -26.65 L-15.7 -25.45 -16.4 -24.45 -18.1 -26.65" fill="#ffcc99" fill-rule="evenodd" stroke="none"/>
      <path d="M-18.4 -29.35 Q-18.1 -28.45 -17.0 -28.1 L-18.2 -27.05 -21.4 -24.2 Q-19.9 -21.45 -15.4 -25.9 -12.6 -24.2 -13.2 -21.2 -17.3 -17.95 -19.9 -19.35 -24.8 -20.15 -25.55 -24.15 -25.35 -28.25 -22.05 -29.2 L-18.4 -29.35" fill="#000000" fill-rule="evenodd" stroke="none"/>
      <path d="M-17.6 -26.5 L-17.75 -26.8 -16.7 -27.7 -16.5 -27.25 -17.6 -26.5" fill="#000000" fill-rule="evenodd" stroke="none"/>
      <path d="M-19.6 -24.8 L-20.3 -23.7 -20.45 -24.6 -18.45 -26.35 -18.0 -25.95 -19.6 -24.8" fill="#000000" fill-rule="evenodd" stroke="none"/>
    </g>
  </defs>
</svg>
