<?xml version="1.0" encoding="UTF-8" standalone="no"?>
<svg xmlns:xlink="http://www.w3.org/1999/xlink" height="29.95px" width="17.05px" xmlns="http://www.w3.org/2000/svg">
  <g transform="matrix(1.0, 0.0, 0.0, 1.0, 8.5, 14.95)">
    <use height="29.95" transform="matrix(1.0, 0.0, 0.0, 1.0, -8.5, -14.95)" width="17.05" xlink:href="#shape0"/>
  </g>
  <defs>
    <g id="shape0" transform="matrix(1.0, 0.0, 0.0, 1.0, 8.5, 14.95)">
      <path d="M-6.85 -1.4 Q-8.4 -3.55 -8.4 -6.35 -8.4 -9.9 -5.95 -12.35 -3.45 -14.85 0.05 -14.85 3.5 -14.85 5.95 -12.35 8.45 -9.9 8.45 -6.35 8.45 -3.75 7.1 -1.7 L5.65 0.65 Q4.25 3.85 3.7 7.0 L3.65 7.3 3.55 8.05 -3.55 8.05 -3.65 7.3 -3.7 7.0 Q-4.3 3.3 -5.5 0.65 L-6.85 -1.4" fill="url(#gradient0)" fill-rule="evenodd" stroke="none"/>
      <path d="M-3.45 8.85 L-3.65 8.75 -3.75 8.55 -3.75 8.5 -3.65 8.25 -3.45 8.2 3.35 8.2 3.6 8.25 3.65 8.5 3.65 8.55 3.6 8.75 3.35 8.85 -3.45 8.85" fill="url(#gradient1)" fill-rule="evenodd" stroke="none"/>
      <path d="M3.35 9.5 L3.6 9.55 3.65 9.8 3.65 9.85 3.6 10.05 3.35 10.15 -3.45 10.15 -3.65 10.05 -3.75 9.85 -3.75 9.8 -3.65 9.55 -3.45 9.5 3.35 9.5" fill="url(#gradient2)" fill-rule="evenodd" stroke="none"/>
      <path d="M3.35 10.8 L3.6 10.85 3.65 11.1 3.65 11.15 3.6 11.35 3.35 11.45 -3.45 11.45 -3.65 11.35 -3.75 11.15 -3.75 11.1 -3.65 10.85 -3.45 10.8 3.35 10.8" fill="url(#gradient3)" fill-rule="evenodd" stroke="none"/>
      <path d="M3.35 10.15 L3.35 10.8 -3.45 10.8 -3.45 10.15 3.35 10.15" fill="url(#gradient4)" fill-rule="evenodd" stroke="none"/>
      <path d="M3.35 11.45 L3.35 12.1 -3.45 12.1 -3.45 11.45 3.35 11.45" fill="url(#gradient5)" fill-rule="evenodd" stroke="none"/>
      <path d="M3.35 12.1 L3.6 12.15 3.65 12.4 3.65 12.45 3.6 12.65 3.35 12.75 -3.45 12.75 -3.65 12.65 -3.75 12.45 -3.75 12.4 -3.65 12.15 -3.45 12.1 3.35 12.1" fill="url(#gradient6)" fill-rule="evenodd" stroke="none"/>
      <path d="M-3.45 8.85 L3.35 8.85 3.35 9.5 -3.45 9.5 -3.45 8.85" fill="url(#gradient7)" fill-rule="evenodd" stroke="none"/>
      <path d="M3.35 12.75 L2.05 13.75 -2.2 13.8 -3.45 12.75 3.35 12.75" fill="url(#gradient8)" fill-rule="evenodd" stroke="none"/>
      <path d="M2.05 13.75 L0.7 14.85 -1.0 14.85 -2.2 13.8 2.05 13.75" fill="#2f2f2f" fill-rule="evenodd" stroke="none"/>
      <path d="M-6.85 -1.4 Q-8.4 -3.55 -8.4 -6.35 -8.4 -9.9 -5.95 -12.35 -3.45 -14.85 0.05 -14.85 3.5 -14.85 5.95 -12.35 8.45 -9.9 8.45 -6.35 8.45 -3.75 7.1 -1.7" fill="none" stroke="#cccccc" stroke-linecap="round" stroke-linejoin="round" stroke-width="0.25"/>
      <path d="M7.1 -1.7 L5.65 0.65 Q4.25 3.85 3.7 7.0 L3.65 7.3 3.55 8.05 M-3.55 8.05 L-3.65 7.3 -3.7 7.0 Q-4.3 3.3 -5.5 0.65 L-6.85 -1.4" fill="none" stroke="#cccccc" stroke-linecap="round" stroke-linejoin="round" stroke-width="0.25"/>
      <path d="M3.35 8.85 L3.6 8.75 3.65 8.55 3.65 8.5 3.6 8.25 3.35 8.2 -3.45 8.2 -3.65 8.25 -3.75 8.5 -3.75 8.55 -3.65 8.75 -3.45 8.85 M3.35 9.5 L3.6 9.55 3.65 9.8 3.65 9.85 3.6 10.05 3.35 10.15 M3.35 10.8 L3.6 10.85 3.65 11.1 3.65 11.15 3.6 11.35 3.35 11.45 M3.35 12.1 L3.6 12.15 3.65 12.4 3.65 12.45 3.6 12.65 3.35 12.75 M-3.45 12.75 L-3.65 12.65 -3.75 12.45 -3.75 12.4 -3.65 12.15 -3.45 12.1 M-3.45 11.45 L-3.65 11.35 -3.75 11.15 -3.75 11.1 -3.65 10.85 -3.45 10.8 M-3.45 10.15 L-3.65 10.05 -3.75 9.85 -3.75 9.8 -3.65 9.55 -3.45 9.5" fill="none" stroke="#666666" stroke-linecap="round" stroke-linejoin="round" stroke-width="0.35000000000000003"/>
      <path d="M3.35 8.85 L3.35 9.5 M3.35 10.15 L3.35 10.8 M3.35 11.45 L3.35 12.1 M3.35 12.75 L2.05 13.75 0.7 14.85 -1.0 14.85 -2.2 13.8 -3.45 12.75 M-3.45 12.1 L-3.45 11.45 M-3.45 10.8 L-3.45 10.15 M-3.45 9.5 L-3.45 8.85" fill="none" stroke="#666666" stroke-linecap="round" stroke-linejoin="round" stroke-width="0.35000000000000003"/>
    </g>
    <radialGradient cx="0" cy="0" gradientTransform="matrix(0.0208, 0.0, 0.0, 0.0202, 0.5, -7.15)" gradientUnits="userSpaceOnUse" id="gradient0" r="819.2" spreadMethod="pad">
      <stop offset="0.3215686274509804" stop-color="#ffffff"/>
      <stop offset="0.9137254901960784" stop-color="#b7b7b7"/>
    </radialGradient>
    <linearGradient gradientTransform="matrix(0.0045, 0.0, 0.0, 4.0E-4, -0.05, 8.5)" gradientUnits="userSpaceOnUse" id="gradient1" spreadMethod="pad" x1="-819.2" x2="819.2">
      <stop offset="0.0784313725490196" stop-color="#d5d5d5"/>
      <stop offset="0.39215686274509803" stop-color="#9b9b9b"/>
      <stop offset="0.596078431372549" stop-color="#cccccc"/>
      <stop offset="0.7490196078431373" stop-color="#c8c8c8"/>
      <stop offset="1.0" stop-color="#444444"/>
    </linearGradient>
    <linearGradient gradientTransform="matrix(0.0045, 0.0, 0.0, 4.0E-4, -0.05, 9.8)" gradientUnits="userSpaceOnUse" id="gradient2" spreadMethod="pad" x1="-819.2" x2="819.2">
      <stop offset="0.0784313725490196" stop-color="#d5d5d5"/>
      <stop offset="0.39215686274509803" stop-color="#9b9b9b"/>
      <stop offset="0.596078431372549" stop-color="#cccccc"/>
      <stop offset="0.7490196078431373" stop-color="#c8c8c8"/>
      <stop offset="1.0" stop-color="#444444"/>
    </linearGradient>
    <linearGradient gradientTransform="matrix(0.0045, 0.0, 0.0, 4.0E-4, -0.05, 11.05)" gradientUnits="userSpaceOnUse" id="gradient3" spreadMethod="pad" x1="-819.2" x2="819.2">
      <stop offset="0.0784313725490196" stop-color="#d5d5d5"/>
      <stop offset="0.39215686274509803" stop-color="#9b9b9b"/>
      <stop offset="0.596078431372549" stop-color="#cccccc"/>
      <stop offset="0.7490196078431373" stop-color="#c8c8c8"/>
      <stop offset="1.0" stop-color="#444444"/>
    </linearGradient>
    <linearGradient gradientTransform="matrix(0.0042, 0.0, 0.0, 4.0E-4, -0.05, 10.45)" gradientUnits="userSpaceOnUse" id="gradient4" spreadMethod="pad" x1="-819.2" x2="819.2">
      <stop offset="0.09019607843137255" stop-color="#959595"/>
      <stop offset="0.2784313725490196" stop-color="#7b7b7b"/>
      <stop offset="0.5019607843137255" stop-color="#9b9b9b"/>
      <stop offset="0.7490196078431373" stop-color="#737373"/>
      <stop offset="1.0" stop-color="#444444"/>
    </linearGradient>
    <linearGradient gradientTransform="matrix(0.0042, 0.0, 0.0, 4.0E-4, -0.05, 11.7)" gradientUnits="userSpaceOnUse" id="gradient5" spreadMethod="pad" x1="-819.2" x2="819.2">
      <stop offset="0.09019607843137255" stop-color="#959595"/>
      <stop offset="0.2784313725490196" stop-color="#7b7b7b"/>
      <stop offset="0.5019607843137255" stop-color="#9b9b9b"/>
      <stop offset="0.7490196078431373" stop-color="#737373"/>
      <stop offset="1.0" stop-color="#444444"/>
    </linearGradient>
    <linearGradient gradientTransform="matrix(0.0045, 0.0, 0.0, 4.0E-4, -0.05, 12.35)" gradientUnits="userSpaceOnUse" id="gradient6" spreadMethod="pad" x1="-819.2" x2="819.2">
      <stop offset="0.0784313725490196" stop-color="#d5d5d5"/>
      <stop offset="0.39215686274509803" stop-color="#9b9b9b"/>
      <stop offset="0.596078431372549" stop-color="#cccccc"/>
      <stop offset="0.7490196078431373" stop-color="#c8c8c8"/>
      <stop offset="1.0" stop-color="#444444"/>
    </linearGradient>
    <linearGradient gradientTransform="matrix(0.0042, 0.0, 0.0, 4.0E-4, -0.05, 9.15)" gradientUnits="userSpaceOnUse" id="gradient7" spreadMethod="pad" x1="-819.2" x2="819.2">
      <stop offset="0.09019607843137255" stop-color="#959595"/>
      <stop offset="0.2784313725490196" stop-color="#7b7b7b"/>
      <stop offset="0.5019607843137255" stop-color="#9b9b9b"/>
      <stop offset="0.7490196078431373" stop-color="#737373"/>
      <stop offset="1.0" stop-color="#444444"/>
    </linearGradient>
    <linearGradient gradientTransform="matrix(0.0042, 0.0, 0.0, 7.0E-4, -0.05, 13.25)" gradientUnits="userSpaceOnUse" id="gradient8" spreadMethod="pad" x1="-819.2" x2="819.2">
      <stop offset="0.09019607843137255" stop-color="#959595"/>
      <stop offset="0.2784313725490196" stop-color="#7b7b7b"/>
      <stop offset="0.5019607843137255" stop-color="#9b9b9b"/>
      <stop offset="0.7490196078431373" stop-color="#737373"/>
      <stop offset="1.0" stop-color="#444444"/>
    </linearGradient>
  </defs>
</svg>
