<?xml version="1.0" encoding="UTF-8" standalone="no"?>
<svg xmlns:xlink="http://www.w3.org/1999/xlink" height="70.85px" width="36.0px" xmlns="http://www.w3.org/2000/svg">
  <g transform="matrix(1.0, 0.0, 0.0, 1.0, 18.0, 35.4)">
    <use height="70.85" transform="matrix(1.0, 0.0, 0.0, 1.0, -18.0, -35.4)" width="36.0" xlink:href="#shape0"/>
  </g>
  <defs>
    <g id="shape0" transform="matrix(1.0, 0.0, 0.0, 1.0, 18.0, 35.4)">
      <path d="M0.1 -14.4 L2.0 -9.35 -7.75 -6.5 -10.0 -13.6 -8.8 -6.2 -13.3 -4.9 Q-13.15 -9.0 -14.5 -14.7 -16.35 -22.45 -16.4 -26.35 -14.45 -38.4 -4.55 -30.8 L-1.5 -23.95 Q0.55 -19.25 2.5 -16.7 L6.45 -10.7 2.7 -9.55 0.1 -14.4" fill="url(#gradient0)" fill-rule="evenodd" stroke="none"/>
      <path d="M3.75 -5.95 Q6.6 0.45 8.05 8.5 L8.35 9.2 Q8.75 10.7 8.75 11.9 L9.1 13.1 10.2 16.4 10.55 17.4 11.2 19.15 11.65 20.25 12.05 21.2 12.45 22.2 12.75 23.0 12.8 23.05 14.1 25.1 16.1 26.9 16.7 26.95 17.3 26.8 Q17.9 26.7 18.0 27.3 16.5 28.1 15.35 28.3 14.15 27.45 13.3 27.2 L11.05 26.35 Q10.8 25.45 11.25 24.9 L11.3 24.8 11.3 24.6 11.2 24.15 11.1 23.9 11.1 23.85 11.05 23.75 10.7 22.9 10.65 22.65 8.1 18.1 8.05 18.05 7.65 17.3 Q6.7 15.6 6.3 14.15 5.85 12.65 5.9 11.45 L5.7 10.45 Q1.35 -0.4 0.7 -3.4 L3.75 -5.95" fill="#edc9a7" fill-rule="evenodd" stroke="none"/>
      <path d="M-4.35 -5.05 L-0.55 -2.05 Q0.2 4.6 0.45 11.3 L0.5 12.2 0.6 13.8 0.35 15.1 0.6 28.3 0.55 28.3 0.6 28.35 0.6 28.55 0.6 28.65 0.7 29.3 0.85 29.45 1.0 30.2 1.2 30.65 1.2 30.75 1.95 32.7 2.4 34.15 1.8 35.35 Q1.45 35.7 0.2 35.05 -0.15 34.9 -0.15 33.75 L-0.3 33.25 -0.75 30.85 -0.75 30.75 -0.9 30.15 -0.8 29.3 -2.2 21.15 Q-2.8 17.2 -2.55 15.15 L-2.35 13.25 Q-2.5 9.7 -3.15 6.85 -4.85 1.3 -5.55 -3.35 -5.7 -5.9 -4.35 -5.05" fill="#edc9a7" fill-rule="evenodd" stroke="none"/>
      <path d="M9.05 -7.8 L8.95 -7.9 5.7 -10.3 4.15 -11.6 2.9 -12.9 2.45 -13.5 2.2 -13.6 2.05 -13.8 1.6 -14.15 -0.6 -15.95 -2.65 -17.2 -3.7 -17.75 -4.25 -17.75 -5.1 -20.7 -3.45 -21.0 -3.35 -20.9 -2.55 -20.4 -0.05 -18.15 0.2 -17.85 3.2 -14.65 3.45 -14.35 4.15 -13.95 5.35 -13.0 7.05 -11.25 9.4 -8.75 9.05 -7.8" fill="#996600" fill-rule="evenodd" stroke="none"/>
      <path d="M9.4 -8.75 L9.6 -8.5 9.75 -8.4 10.15 -8.25 13.55 -7.25 Q13.45 -7.1 13.1 -7.1 L12.75 -7.1 13.45 -6.8 Q13.65 -6.65 13.3 -6.65 L12.8 -6.7 12.3 -6.65 11.75 -6.95 11.25 -6.9 10.5 -7.0 Q10.15 -7.05 9.85 -7.2 L9.2 -7.7 9.05 -7.8 9.4 -8.75" fill="#edc9a7" fill-rule="evenodd" stroke="none"/>
      <path d="M3.25 -7.9 Q-0.1 -5.0 -6.0 -4.85 L-5.6 -8.6 Q-3.45 -19.2 2.8 -8.6 L3.25 -7.9" fill="#28261c" fill-rule="evenodd" stroke="none"/>
      <path d="M3.25 -7.9 L5.55 -4.0 14.2 21.85 Q3.8 28.05 -6.6 27.85 L-6.15 -3.5 -6.0 -4.85 Q-0.1 -5.0 3.25 -7.9" fill="#996600" fill-rule="evenodd" stroke="none"/>
      <path d="M-4.5 -20.95 L-4.1 -21.0 -3.45 -20.2 -3.1 -19.85 -2.85 -19.7 -0.6 -18.5 0.6 -17.5 Q0.85 -16.9 0.75 -16.1 0.65 -15.3 0.0 -14.8 0.2 -12.9 0.95 -11.2 -2.45 -9.1 -5.2 -9.9 L-5.5 -11.4 Q-10.15 -15.65 -10.8 -18.1 L-9.1 -19.3 Q-7.55 -17.0 -5.45 -17.15 -1.05 -17.0 -4.5 -20.95" fill="#996600" fill-rule="evenodd" stroke="none"/>
      <path d="M-4.5 -20.95 Q-1.05 -17.0 -5.45 -17.15 -7.55 -17.0 -9.1 -19.3 L-7.8 -20.1 -4.5 -20.95" fill="#edc9a7" fill-rule="evenodd" stroke="none"/>
      <path d="M-5.95 -21.9 L-5.05 -20.2 -7.8 -19.9 -8.45 -22.7 Q-6.6 -21.2 -5.95 -21.9" fill="#edc9a7" fill-rule="evenodd" stroke="none"/>
      <path d="M-8.45 -22.7 L-8.75 -23.95 -7.05 -24.15 -5.95 -21.9 Q-6.6 -21.2 -8.45 -22.7" fill="#c99a6b" fill-rule="evenodd" stroke="none"/>
      <path d="M-14.7 -0.05 L-14.1 -3.65 -13.65 -6.25 -13.15 -7.8 -12.75 -8.6 -12.7 -8.9 -11.95 -13.55 -11.9 -13.95 Q-11.4 -16.65 -10.8 -18.05 L-10.75 -18.1 Q-9.4 -18.6 -8.5 -15.75 L-10.1 -12.35 -11.0 -9.45 -11.2 -8.8 -11.35 -8.4 -11.4 -7.6 -11.75 -5.7 -12.35 -3.65 -13.7 0.1 -14.7 -0.05" fill="#996600" fill-rule="evenodd" stroke="none"/>
      <path d="M-14.7 -0.05 L-13.7 0.1 -13.8 0.35 -14.0 0.95 Q-14.05 1.45 -14.25 1.8 L-14.85 2.35 -15.55 2.8 -16.05 3.05 -16.45 3.65 Q-16.7 4.0 -16.95 3.85 L-17.4 4.15 Q-17.8 4.4 -17.65 4.15 L-17.1 3.45 -17.45 3.65 -18.0 3.7 -15.15 0.9 -14.85 0.6 -14.8 0.6 -14.75 0.25 -14.7 -0.05" fill="#edc9a7" fill-rule="evenodd" stroke="none"/>
      <path d="M-7.25 -29.0 L-7.05 -29.05 -5.45 -29.4 Q-4.85 -28.9 -5.0 -28.05 -5.65 -27.65 -6.45 -27.35 L-6.5 -27.3 -6.7 -27.25 -6.9 -27.2 -6.9 -27.15 -6.95 -27.15 -9.35 -26.55 Q-10.45 -26.35 -10.55 -26.85 -10.65 -27.35 -9.6 -27.95 L-7.55 -28.95 -7.45 -28.95 -7.25 -29.0" fill="#ffffff" fill-rule="evenodd" stroke="none"/>
      <path d="M-6.4 -28.2 L-6.4 -28.6 -6.05 -28.9 -5.65 -28.9 -5.4 -28.6 -5.4 -28.25 -5.7 -27.95 -6.15 -27.95 -6.4 -28.2 M-5.8 -28.6 L-5.95 -28.6 -6.1 -28.5 -6.1 -28.35 -6.0 -28.2 -5.8 -28.2 -5.7 -28.3 -5.7 -28.45 -5.8 -28.6 M-9.1 -27.85 L-8.65 -27.9 -8.35 -27.6 -8.4 -27.15 -8.75 -26.85 -9.2 -26.85 -9.5 -27.15 -9.45 -27.6 Q-9.45 -27.8 -9.1 -27.85 M-8.75 -27.45 L-8.9 -27.6 -9.05 -27.6 -9.2 -27.5 -9.15 -27.3 -9.05 -27.15 -8.9 -27.15 -8.75 -27.25 -8.75 -27.45" fill="#015789" fill-rule="evenodd" stroke="none"/>
      <path d="M-5.8 -28.6 L-5.7 -28.45 -5.7 -28.3 -5.8 -28.2 -6.0 -28.2 -6.1 -28.35 -6.1 -28.5 -5.95 -28.6 -5.8 -28.6 M-8.75 -27.45 L-8.75 -27.25 -8.9 -27.15 -9.05 -27.15 -9.15 -27.3 -9.2 -27.5 -9.05 -27.6 -8.9 -27.6 -8.75 -27.45" fill="#000000" fill-rule="evenodd" stroke="none"/>
      <path d="M-11.95 -28.95 Q-11.5 -30.3 -10.35 -31.25 -8.9 -32.55 -8.1 -32.5 -7.35 -32.55 -6.5 -31.55 L-5.4 -29.85 -5.05 -29.1 -5.0 -28.7 -5.0 -28.65 -4.95 -28.35 -4.95 -28.3 Q-4.45 -26.65 -4.45 -25.55 -4.5 -24.4 -4.8 -23.65 -5.0 -22.85 -5.5 -22.8 L-6.4 -22.8 -7.95 -22.95 Q-9.35 -23.4 -10.5 -24.25 -11.7 -25.2 -11.8 -26.6 L-11.95 -28.95 M-9.35 -27.65 L-10.3 -26.85 Q-8.65 -26.65 -7.75 -27.3 -8.35 -28.15 -9.35 -27.65 M-6.55 -27.7 Q-5.55 -27.75 -5.05 -28.7 -6.2 -29.0 -6.35 -28.45 -6.65 -28.0 -6.55 -27.7" fill="#edc9a7" fill-rule="evenodd" stroke="none"/>
      <path d="M-9.35 -27.65 L-10.3 -26.85 Q-8.65 -26.65 -7.75 -27.3 -8.35 -28.15 -9.35 -27.65 M-6.55 -27.7 Q-5.55 -27.75 -5.05 -28.7 -6.2 -29.0 -6.35 -28.45 -6.65 -28.0 -6.55 -27.7" fill="none" stroke="#333333" stroke-linecap="round" stroke-linejoin="round" stroke-width="0.25"/>
      <path d="M-7.25 -24.85 L-7.15 -24.9 -6.45 -25.4 Q-6.2 -25.55 -6.0 -25.3 -5.85 -25.75 -5.6 -25.65 L-5.4 -25.6 -5.3 -25.55 -5.2 -25.5 -5.2 -25.35 -5.25 -24.9 Q-5.35 -24.5 -5.8 -24.3 -6.35 -24.1 -6.85 -24.3 L-7.45 -24.6 -7.55 -24.55 -7.25 -24.85 M-5.5 -25.25 L-6.1 -25.05 -6.9 -24.75 -6.3 -24.85 Q-5.85 -24.9 -5.5 -25.25" fill="#ff9999" fill-rule="evenodd" stroke="none"/>
      <path d="M-5.5 -25.25 Q-5.85 -24.9 -6.3 -24.85 L-6.9 -24.75 -6.1 -25.05 -5.5 -25.25" fill="#000000" fill-rule="evenodd" stroke="none"/>
      <path d="M-6.9 -29.1 Q-6.3 -29.8 -5.9 -29.9 L-5.4 -29.9 -5.35 -29.8 -5.55 -29.8 Q-6.1 -29.75 -6.85 -28.8 L-6.9 -29.1 M-9.8 -28.2 L-10.55 -27.5 -9.65 -28.5 -8.35 -28.55 -8.2 -28.25 -9.8 -28.2" fill="#734917" fill-rule="evenodd" stroke="none"/>
      <path d="M-6.85 -27.45 L-5.95 -26.65 -6.05 -26.0 -6.85 -26.05 -6.1 -26.6 -6.85 -27.45" fill="#cc9966" fill-rule="evenodd" stroke="none"/>
      <path d="M-9.55 -30.75 Q-8.95 -19.65 0.3 -13.4 -0.25 -13.55 -4.8 -15.65 -9.35 -17.7 -13.2 -26.7 -12.3 -29.25 -9.55 -30.75" fill="url(#gradient1)" fill-rule="evenodd" stroke="none"/>
      <path d="M-4.65 -19.95 Q-11.55 -22.65 -11.95 -27.15 L-10.95 -28.95 Q-10.95 -23.4 -4.65 -19.95" fill="url(#gradient2)" fill-rule="evenodd" stroke="none"/>
      <path d="M-13.15 -7.8 Q-12.15 -13.3 -13.5 -24.65 L-12.35 -28.3 -11.1 -16.9 Q-11.1 -9.65 -13.15 -7.8" fill="url(#gradient3)" fill-rule="evenodd" stroke="none"/>
      <path d="M-15.9 -25.75 Q-16.6 -28.55 -15.6 -31.3 -14.6 -33.95 -12.0 -34.95 -9.05 -36.2 -6.7 -33.9 L-6.3 -33.5 -13.35 -28.65 Q-13.25 -25.95 -13.65 -23.25 -14.25 -18.85 -17.45 -16.1 -16.3 -17.8 -15.8 -19.8 -15.05 -22.75 -15.9 -25.75" fill="url(#gradient4)" fill-rule="evenodd" stroke="none"/>
      <path d="M-14.35 -25.2 Q-9.85 -19.25 -15.65 -12.9 -15.45 -13.3 -14.95 -15.5 -14.25 -18.65 -14.3 -21.05 L-14.35 -25.2" fill="url(#gradient5)" fill-rule="evenodd" stroke="none"/>
      <path d="M-9.75 -34.25 L-9.6 -34.25 Q-7.35 -34.4 -7.25 -32.75 -7.15 -31.2 -10.1 -26.9 -13.1 -22.6 -12.35 -19.75 L-12.25 -19.55 -12.2 -19.3 -12.65 -19.8 Q-14.65 -22.4 -15.0 -25.05 -15.25 -26.75 -15.05 -28.35 -14.75 -30.75 -13.75 -32.4 -12.8 -34.1 -11.1 -34.5 L-9.75 -34.25" fill="url(#gradient6)" fill-rule="evenodd" stroke="none"/>
      <path d="M-11.35 -26.95 Q-6.2 -14.0 2.9 -11.7 -2.55 -12.15 -5.85 -14.55 -9.15 -17.0 -11.35 -26.95" fill="url(#gradient7)" fill-rule="evenodd" stroke="none"/>
      <path d="M-15.75 -22.8 Q-12.7 -25.85 -10.9 -32.0 L-9.2 -33.25 -7.9 -33.85 -7.75 -32.4 Q-8.45 -32.2 -10.4 -28.2 -12.65 -23.75 -15.75 -22.8" fill="url(#gradient8)" fill-rule="evenodd" stroke="none"/>
      <path d="M-7.35 -31.95 L-8.1 -33.95 -7.7 -34.1 Q-7.35 -34.25 -6.1 -33.3 -4.75 -32.4 -4.5 -31.45 -4.2 -30.55 -4.2 -29.35 L-4.65 -30.25 -7.35 -31.95" fill="url(#gradient9)" fill-rule="evenodd" stroke="none"/>
    </g>
    <linearGradient gradientTransform="matrix(-0.0019, 0.0144, 0.0074, 7.0E-4, -4.55, -15.15)" gradientUnits="userSpaceOnUse" id="gradient0" spreadMethod="pad" x1="-819.2" x2="819.2">
      <stop offset="0.0" stop-color="#eee8d6"/>
      <stop offset="1.0" stop-color="#c2ae89"/>
    </linearGradient>
    <linearGradient gradientTransform="matrix(-0.0021, 0.0011, -0.0069, -0.0101, -6.7, -20.95)" gradientUnits="userSpaceOnUse" id="gradient1" spreadMethod="pad" x1="-819.2" x2="819.2">
      <stop offset="0.0" stop-color="#eee8d6"/>
      <stop offset="1.0" stop-color="#c2ae89"/>
    </linearGradient>
    <linearGradient gradientTransform="matrix(-0.0044, -0.0051, 0.0016, -0.001, -8.6, -23.95)" gradientUnits="userSpaceOnUse" id="gradient2" spreadMethod="pad" x1="-819.2" x2="819.2">
      <stop offset="0.0" stop-color="#eee8d6"/>
      <stop offset="1.0" stop-color="#c2ae89"/>
    </linearGradient>
    <linearGradient gradientTransform="matrix(-0.0024, -0.0014, -0.0017, 0.0033, -11.55, -19.15)" gradientUnits="userSpaceOnUse" id="gradient3" spreadMethod="pad" x1="-819.2" x2="819.2">
      <stop offset="0.0" stop-color="#eee8d6"/>
      <stop offset="1.0" stop-color="#c2ae89"/>
    </linearGradient>
    <linearGradient gradientTransform="matrix(0.0054, -0.0035, 0.0016, 0.0032, -14.2, -27.7)" gradientUnits="userSpaceOnUse" id="gradient4" spreadMethod="pad" x1="-819.2" x2="819.2">
      <stop offset="0.0" stop-color="#eee8d6"/>
      <stop offset="1.0" stop-color="#c2ae89"/>
    </linearGradient>
    <linearGradient gradientTransform="matrix(-0.0028, -0.0058, 0.0037, -0.0018, -14.9, -19.15)" gradientUnits="userSpaceOnUse" id="gradient5" spreadMethod="pad" x1="-819.2" x2="819.2">
      <stop offset="0.0" stop-color="#eee8d6"/>
      <stop offset="1.0" stop-color="#c2ae89"/>
    </linearGradient>
    <linearGradient gradientTransform="matrix(0.0054, -0.0035, 0.0016, 0.0032, -12.55, -27.45)" gradientUnits="userSpaceOnUse" id="gradient6" spreadMethod="pad" x1="-819.2" x2="819.2">
      <stop offset="0.0" stop-color="#eee8d6"/>
      <stop offset="1.0" stop-color="#c2ae89"/>
    </linearGradient>
    <linearGradient gradientTransform="matrix(-0.006, -0.0078, 0.0039, -0.003, -2.55, -17.9)" gradientUnits="userSpaceOnUse" id="gradient7" spreadMethod="pad" x1="-819.2" x2="819.2">
      <stop offset="0.0" stop-color="#eee8d6"/>
      <stop offset="1.0" stop-color="#c2ae89"/>
    </linearGradient>
    <linearGradient gradientTransform="matrix(0.0034, -6.0E-4, -7.0E-4, -0.0037, -9.5, -30.9)" gradientUnits="userSpaceOnUse" id="gradient8" spreadMethod="pad" x1="-819.2" x2="819.2">
      <stop offset="0.0" stop-color="#eee8d6"/>
      <stop offset="1.0" stop-color="#c2ae89"/>
    </linearGradient>
    <linearGradient gradientTransform="matrix(-9.0E-4, -0.0025, -0.0015, 6.0E-4, -5.8, -31.6)" gradientUnits="userSpaceOnUse" id="gradient9" spreadMethod="pad" x1="-819.2" x2="819.2">
      <stop offset="0.0" stop-color="#eee8d6"/>
      <stop offset="1.0" stop-color="#c2ae89"/>
    </linearGradient>
  </defs>
</svg>
