<?xml version="1.0" encoding="UTF-8" standalone="no"?>
<svg xmlns:xlink="http://www.w3.org/1999/xlink" height="62.2px" width="53.05px" xmlns="http://www.w3.org/2000/svg">
  <g transform="matrix(1.0, 0.0, 0.0, 1.0, 26.75, 31.35)">
    <use height="62.2" transform="matrix(1.0, 0.0, 0.0, 1.0, -26.75, -31.35)" width="53.05" xlink:href="#shape0"/>
  </g>
  <defs>
    <g id="shape0" transform="matrix(1.0, 0.0, 0.0, 1.0, 26.75, 31.35)">
      <path d="M13.55 24.45 L14.8 24.2 Q15.6 24.3 16.5 25.05 L16.7 25.05 18.05 27.05 18.15 27.3 18.25 27.6 Q18.65 28.9 17.0 30.2 15.05 31.7 13.8 29.65 L13.1 28.35 Q12.75 27.1 12.9 26.15 12.95 25.2 13.35 24.65 L13.55 24.45" fill="url(#gradient0)" fill-rule="evenodd" stroke="none"/>
      <path d="M19.2 20.0 L18.85 19.6 18.35 18.7 Q18.4 18.05 18.8 17.25 L23.05 13.5 Q25.3 12.35 25.8 12.9 26.35 13.45 26.3 13.8 26.1 16.0 19.2 20.0" fill="url(#gradient1)" fill-rule="evenodd" stroke="none"/>
      <path d="M1.2 3.45 L-4.15 -3.15 1.1 -7.75 2.2 -6.6 Q7.65 -3.2 10.45 2.3 L20.95 15.55 Q19.45 19.0 18.45 19.3 L13.5 15.4 13.4 14.65 13.25 13.45 7.4 5.2 4.35 2.45 4.95 0.6 1.2 3.45" fill="url(#gradient2)" fill-rule="evenodd" stroke="none"/>
      <path d="M1.2 3.45 L4.95 0.6 4.35 2.45 7.4 5.2 13.25 13.45 13.4 14.65 6.8 7.0 1.2 3.45" fill="#4d4d4d" fill-rule="evenodd" stroke="none"/>
      <path d="M13.1 28.25 Q9.25 22.65 4.15 18.0 L5.85 18.2 3.7 17.2 1.75 14.6 Q-3.15 7.65 -5.85 0.05 L-0.45 -4.35 6.85 9.9 11.1 15.5 12.8 20.2 16.7 25.15 Q14.0 25.3 13.1 28.25" fill="url(#gradient3)" fill-rule="evenodd" stroke="none"/>
      <path d="M-5.85 0.05 Q-3.15 7.65 1.75 14.6 L3.7 17.2 5.85 18.2 4.15 18.0 Q9.25 22.65 13.1 28.25 L13.0 28.7 Q11.2 27.45 8.5 23.9 L3.1 16.9 2.2 16.45 Q-3.3 8.45 -6.35 0.45 L-5.85 0.05" fill="#4d4d4d" fill-rule="evenodd" stroke="none"/>
      <path d="M4.7 -7.9 Q2.4 -7.8 0.65 -9.05 L-2.4 -11.45 -2.85 -11.45 -4.0 -11.95 -5.8 -13.25 -8.6 -15.95 Q-11.7 -19.65 -7.7 -21.25 -4.4 -20.3 -1.5 -16.2 L-0.4 -14.85 Q0.9 -14.65 2.35 -13.55 3.0 -13.05 4.5 -12.3 5.6 -11.7 6.85 -9.75 L6.9 -9.75 7.0 -9.6 7.85 -8.15 7.65 -8.35 Q6.4 -6.85 4.75 -7.9 L4.65 -7.95 4.7 -7.9" fill="url(#gradient4)" fill-rule="evenodd" stroke="none"/>
      <path d="M7.85 -8.15 L8.95 -6.6 Q8.8 -5.55 8.25 -4.6 L8.05 -4.45 8.0 -4.4 7.95 -4.4 7.8 -4.4 7.25 -4.35 6.75 -4.5 6.75 -5.0 7.0 -5.0 7.1 -5.05 7.25 -5.0 7.45 -5.15 7.2 -5.15 6.9 -5.1 6.05 -5.2 6.25 -5.05 6.6 -4.9 6.3 -4.45 6.05 -4.5 5.3 -4.75 5.15 -4.9 Q4.7 -5.55 5.0 -6.1 5.2 -7.35 4.7 -7.9 L4.65 -7.95 4.75 -7.9 Q6.4 -6.85 7.65 -8.35 L7.85 -8.15" fill="#feba76" fill-rule="evenodd" stroke="none"/>
      <path d="M7.95 -4.4 L7.55 -4.25 6.75 -4.15 6.5 -4.45 6.05 -4.3 6.05 -4.35 6.0 -4.35 5.9 -4.4 5.45 -4.6 5.3 -4.75 6.05 -4.5 6.3 -4.45 6.6 -4.9 6.25 -5.05 6.05 -5.2 6.9 -5.1 7.2 -5.15 7.45 -5.15 7.25 -5.0 7.1 -5.05 7.0 -5.0 6.75 -5.0 6.75 -4.5 7.25 -4.35 7.8 -4.4 7.95 -4.4" fill="#cc9966" fill-rule="evenodd" stroke="none"/>
      <path d="M-17.95 -6.0 L-21.55 -8.6 Q-18.4 -18.35 -7.7 -21.3 -3.95 -18.45 -3.2 -14.2 L0.55 -10.05 2.25 -8.45 6.6 -3.5 Q5.75 -0.2 3.05 2.15 0.25 4.55 -4.95 5.95 L-5.65 4.65 -4.35 -0.65 -6.25 3.3 -8.0 -0.3 -8.0 -2.6 -7.95 -2.6 -7.6 -5.2 -8.9 -2.2 -17.95 -6.0" fill="url(#gradient5)" fill-rule="evenodd" stroke="none"/>
      <path d="M-17.95 -6.0 L-8.9 -2.2 -7.6 -5.2 -7.95 -2.6 -8.0 -2.6 -8.0 -0.3 -6.25 3.3 -4.35 -0.65 -5.65 4.65 -4.95 5.95 -5.35 6.2 -5.6 6.3 -9.55 -1.55 Q-13.8 -3.3 -17.95 -6.0" fill="#4d4d4d" fill-rule="evenodd" stroke="none"/>
      <path d="M-10.35 8.75 Q-12.4 8.25 -13.45 6.5 L-15.0 3.9 -16.8 1.9 -18.85 -1.25 Q-21.05 -4.55 -21.3 -7.95 L-21.4 -8.65 Q-18.7 -12.55 -15.5 -8.25 L-12.95 -5.15 Q-11.9 -2.75 -12.45 -1.25 L-9.9 2.3 Q-8.55 4.45 -8.75 5.5 -8.85 6.3 -7.75 6.9 -9.25 10.05 -10.35 8.75" fill="url(#gradient6)" fill-rule="evenodd" stroke="none"/>
      <path d="M-5.3 7.6 L-5.15 7.75 -4.9 8.3 -4.9 8.45 -4.8 8.5 -5.0 8.85 -4.75 9.2 -4.9 10.05 -4.95 10.25 -5.1 10.6 -5.05 10.45 -5.05 10.35 -5.0 10.3 -4.95 9.75 -5.05 9.15 -5.2 9.2 -5.25 9.15 -5.65 9.15 -5.65 9.4 -5.7 9.5 -5.75 9.65 -5.9 9.95 -5.8 9.7 -5.8 9.35 -5.85 8.35 -5.65 8.55 -5.55 8.95 -5.15 8.7 -5.05 8.65 -5.0 8.4 -5.3 7.6" fill="#cc9966" fill-rule="evenodd" stroke="none"/>
      <path d="M-10.35 8.75 Q-9.25 10.05 -7.75 6.9 -6.2 6.9 -5.5 7.4 L-5.3 7.6 -5.0 8.4 -5.05 8.65 -5.15 8.7 -5.55 8.95 -5.65 8.55 -5.85 8.35 -5.8 9.35 -5.8 9.7 -5.9 9.95 -5.75 9.65 -5.7 9.5 -5.65 9.4 -5.65 9.15 -5.25 9.15 -5.2 9.2 -5.05 9.15 -4.95 9.75 -5.0 10.3 -5.05 10.35 -5.05 10.45 -5.1 10.6 -5.25 10.8 Q-6.3 11.4 -7.55 11.5 -9.1 10.7 -10.35 8.75" fill="#feba76" fill-rule="evenodd" stroke="none"/>
      <path d="M-18.0 -24.1 Q-17.4 -24.6 -16.75 -24.75 -16.1 -24.95 -15.8 -24.6 -15.5 -24.3 -15.75 -23.65 L-16.65 -22.55 Q-17.3 -22.0 -17.85 -21.8 L-18.8 -21.95 Q-19.1 -22.3 -18.85 -22.9 L-18.0 -24.1" fill="#ffffff" fill-rule="evenodd" stroke="none"/>
      <path d="M-15.8 -24.4 L-15.9 -24.2 -16.2 -24.1 -16.4 -24.2 -16.5 -24.45 -16.3 -24.7 -16.1 -24.75 -15.85 -24.7 Q-15.75 -24.6 -15.8 -24.4 M-18.3 -22.5 L-18.15 -22.45 -18.0 -22.5 -17.9 -22.65 -17.95 -22.8 -18.05 -22.85 -18.3 -22.8 -18.3 -22.65 -18.3 -22.5 -18.3 -22.65 -18.3 -22.8 -18.05 -22.85 -17.95 -22.8 -17.9 -22.65 -18.0 -22.5 -18.15 -22.45 -18.3 -22.5 M-17.75 -23.0 L-17.65 -22.6 -17.85 -22.35 Q-18.0 -22.2 -18.15 -22.2 L-18.5 -22.35 -18.55 -22.65 -18.4 -22.95 -18.05 -23.05 -17.75 -23.0" fill="#000000" fill-rule="evenodd" stroke="none"/>
      <path d="M-18.3 -22.5 L-18.3 -22.65 -18.3 -22.8 -18.05 -22.85 -17.95 -22.8 -17.9 -22.65 -18.0 -22.5 -18.15 -22.45 -18.3 -22.5 Z" fill="none" stroke="#000000" stroke-linecap="round" stroke-linejoin="round" stroke-width="0.5"/>
      <path d="M-18.65 -19.8 L-16.5 -21.75 -12.5 -18.7 Q-13.8 -16.35 -16.65 -17.4 -19.5 -18.4 -18.65 -19.8" fill="#bb7c3e" fill-rule="evenodd" stroke="none"/>
      <path d="M-17.4 -14.8 L-17.75 -14.75 -20.05 -18.35 -19.85 -18.55 -17.4 -14.8" fill="#ffdfbf" fill-rule="evenodd" stroke="none"/>
      <path d="M-18.65 -19.8 Q-19.5 -18.4 -16.65 -17.4 -13.8 -16.35 -12.5 -18.7 L-11.75 -18.2 Q-12.55 -15.6 -17.4 -14.8 L-19.85 -18.55 -18.65 -19.8" fill="#ffcc99" fill-rule="evenodd" stroke="none"/>
      <path d="M-16.25 -25.75 L-15.9 -25.0 -15.85 -24.75 -16.25 -24.6 -16.3 -24.6 -16.55 -24.15 -16.45 -23.75 -16.4 -23.7 -15.65 -24.5 -15.4 -24.45 -14.45 -23.65 -13.15 -21.65 Q-12.45 -20.25 -15.55 -19.05 -18.75 -17.85 -19.85 -18.4 -20.75 -18.75 -22.85 -21.35 -23.5 -22.05 -23.35 -22.85 L-23.3 -22.85 -23.25 -23.05 Q-23.05 -24.0 -22.25 -24.55 -19.25 -27.3 -18.25 -26.9 -17.25 -26.55 -16.25 -25.75 M-18.65 -21.8 L-17.4 -22.8 -17.9 -23.0 -17.95 -23.05 -18.5 -22.6 Q-18.8 -22.3 -18.65 -21.8" fill="#ffcc99" fill-rule="evenodd" stroke="none"/>
      <path d="M-14.05 -22.05 Q-14.15 -22.6 -14.65 -23.2 L-14.3 -23.1 -14.1 -22.85 Q-13.1 -21.95 -12.55 -20.65 -12.1 -19.75 -12.85 -19.1 -14.2 -17.9 -15.95 -17.75 -18.0 -17.55 -18.95 -19.1 L-18.9 -19.15 -18.8 -19.15 Q-17.45 -19.2 -16.1 -19.7 L-16.0 -21.05 Q-15.9 -22.3 -14.05 -22.05" fill="#ffcc99" fill-rule="evenodd" stroke="none"/>
      <path d="M-17.95 -26.8 L-18.55 -26.0 Q-22.55 -23.95 -20.8 -22.5 -20.9 -21.3 -20.0 -20.35 L-20.6 -19.8 Q-21.65 -20.35 -21.05 -19.35 L-20.3 -17.8 Q-23.25 -19.05 -24.4 -22.1 -24.75 -24.9 -21.8 -26.4 -18.85 -27.8 -18.2 -27.8 L-17.95 -26.8" fill="#663300" fill-rule="evenodd" stroke="none"/>
      <path d="M-15.75 -22.35 L-15.05 -23.35 -17.45 -24.55 -14.8 -23.5 Q-15.1 -22.8 -15.6 -22.25 L-15.75 -22.35" fill="#bf8040" fill-rule="evenodd" stroke="none"/>
      <path d="M-17.45 -24.55 L-15.05 -23.35 -15.75 -22.35 -17.45 -24.55" fill="#ffcc99" fill-rule="evenodd" stroke="none"/>
      <path d="M-22.05 -19.3 L-21.7 -19.95 -21.0 -20.2 -20.6 -20.1 -20.3 -19.85 -19.7 -19.3 -19.3 -18.8 Q-19.2 -18.55 -19.25 -18.05 -19.35 -17.55 -20.4 -17.9 L-21.75 -18.6 -22.05 -19.3 M-21.55 -19.8 L-21.8 -19.3 -21.6 -18.75 -21.7 -19.05 -21.5 -19.5 -20.95 -19.7 -20.55 -19.55 -20.6 -19.35 -20.5 -18.95 -19.95 -18.95 -20.05 -19.05 Q-20.45 -19.25 -20.35 -19.65 L-20.45 -19.75 -20.5 -19.8 -20.55 -19.85 -21.0 -20.0 -21.55 -19.8" fill="#ffcc99" fill-rule="evenodd" stroke="none"/>
      <path d="M-21.55 -19.8 L-21.0 -20.0 -20.55 -19.85 -20.5 -19.8 -20.45 -19.75 -20.35 -19.65 Q-20.45 -19.25 -20.05 -19.05 L-19.95 -18.95 -20.5 -18.95 -20.6 -19.35 -20.55 -19.55 -20.95 -19.7 -21.5 -19.5 -21.7 -19.05 -21.6 -18.75 -21.8 -19.3 -21.55 -19.8" fill="#bb7c3e" fill-rule="evenodd" stroke="none"/>
      <path d="M-17.05 -24.45 L-17.2 -24.75 -16.15 -25.65 -15.95 -25.15 -17.05 -24.45" fill="#663300" fill-rule="evenodd" stroke="none"/>
      <path d="M-19.05 -22.75 L-19.75 -21.6 -19.9 -22.5 -17.9 -24.25 -17.45 -23.85 -19.05 -22.75" fill="#663300" fill-rule="evenodd" stroke="none"/>
      <path d="M-14.2 -22.2 Q-13.65 -22.3 -13.75 -21.7 -13.8 -22.25 -14.25 -22.05 L-14.3 -22.15 -14.2 -22.2" fill="#af753a" fill-rule="evenodd" stroke="none"/>
      <path d="M-13.65 -21.05 L-13.7 -20.9 -14.0 -20.5 -14.35 -20.3 -14.5 -20.3 -14.65 -20.3 -14.6 -20.55 -14.35 -20.9 -13.95 -21.15 -13.7 -21.15 -13.65 -21.05" fill="#cc9966" fill-opacity="0.69803923" fill-rule="evenodd" stroke="none"/>
      <path d="M-16.15 -20.35 L-15.7 -20.7 Q-14.85 -22.4 -14.1 -22.45 -14.05 -22.6 -14.4 -22.6 L-14.85 -23.0 -14.35 -22.75 Q-13.8 -22.7 -13.95 -22.4 L-15.6 -20.5 Q-15.85 -20.2 -16.15 -20.35" fill="#af753a" fill-rule="evenodd" stroke="none"/>
      <path d="M-11.85 -28.05 Q-9.6 -25.5 -9.8 -22.1 -10.05 -18.7 -12.6 -16.45 -15.2 -14.2 -18.6 -14.4 -22.0 -14.65 -24.25 -17.2 -26.5 -19.8 -26.25 -23.2 -26.0 -26.6 -23.45 -28.85 -20.9 -31.1 -17.5 -30.85 -14.1 -30.6 -11.85 -28.05" fill="#99ffcc" fill-opacity="0.10980392" fill-rule="evenodd" stroke="none"/>
      <path d="M-11.85 -28.05 Q-9.6 -25.5 -9.8 -22.1 -10.05 -18.7 -12.6 -16.45 -15.2 -14.2 -18.6 -14.4 -22.0 -14.65 -24.25 -17.2 -26.5 -19.8 -26.25 -23.2 -26.0 -26.6 -23.45 -28.85 -20.9 -31.1 -17.5 -30.85 -14.1 -30.6 -11.85 -28.05 Z" fill="none" stroke="#666666" stroke-linecap="round" stroke-linejoin="round" stroke-opacity="0.27058825" stroke-width="1.0"/>
      <path d="M-19.4 -23.1 Q-20.35 -22.25 -21.65 -22.35 -22.8 -22.4 -23.65 -23.4 -24.5 -24.35 -24.45 -25.55 -24.3 -26.8 -23.35 -27.6 -22.4 -28.45 -21.2 -28.35 -20.0 -28.3 -19.15 -27.35 -18.3 -26.35 -18.4 -25.15 -18.45 -23.9 -19.4 -23.1" fill="url(#gradient7)" fill-rule="evenodd" stroke="none"/>
    </g>
    <linearGradient gradientTransform="matrix(0.0053, 0.001, 0.001, 0.0193, 12.7, 12.2)" gradientUnits="userSpaceOnUse" id="gradient0" spreadMethod="pad" x1="-819.2" x2="819.2">
      <stop offset="0.0784313725490196" stop-color="#4d4d4d"/>
      <stop offset="0.39215686274509803" stop-color="#9b9b9b"/>
      <stop offset="0.596078431372549" stop-color="#cccccc"/>
      <stop offset="0.7490196078431373" stop-color="#c8c8c8"/>
      <stop offset="1.0" stop-color="#444444"/>
    </linearGradient>
    <linearGradient gradientTransform="matrix(-5.0E-4, -0.0051, 0.0059, -7.0E-4, 21.8, 15.65)" gradientUnits="userSpaceOnUse" id="gradient1" spreadMethod="pad" x1="-819.2" x2="819.2">
      <stop offset="0.0784313725490196" stop-color="#4d4d4d"/>
      <stop offset="0.39215686274509803" stop-color="#9b9b9b"/>
      <stop offset="0.596078431372549" stop-color="#cccccc"/>
      <stop offset="0.7490196078431373" stop-color="#c8c8c8"/>
      <stop offset="1.0" stop-color="#444444"/>
    </linearGradient>
    <linearGradient gradientTransform="matrix(0.0037, -0.0033, 0.0128, 0.0147, 9.35, 6.15)" gradientUnits="userSpaceOnUse" id="gradient2" spreadMethod="pad" x1="-819.2" x2="819.2">
      <stop offset="0.0784313725490196" stop-color="#4d4d4d"/>
      <stop offset="0.39215686274509803" stop-color="#9b9b9b"/>
      <stop offset="0.596078431372549" stop-color="#cccccc"/>
      <stop offset="0.7490196078431373" stop-color="#c8c8c8"/>
      <stop offset="1.0" stop-color="#444444"/>
    </linearGradient>
    <linearGradient gradientTransform="matrix(0.0054, -0.0027, 0.0095, 0.0193, 5.3, 12.45)" gradientUnits="userSpaceOnUse" id="gradient3" spreadMethod="pad" x1="-819.2" x2="819.2">
      <stop offset="0.0784313725490196" stop-color="#4d4d4d"/>
      <stop offset="0.39215686274509803" stop-color="#9b9b9b"/>
      <stop offset="0.596078431372549" stop-color="#cccccc"/>
      <stop offset="0.7490196078431373" stop-color="#c8c8c8"/>
      <stop offset="1.0" stop-color="#444444"/>
    </linearGradient>
    <linearGradient gradientTransform="matrix(0.0021, -0.0031, 0.0107, 0.0071, -1.1, -13.7)" gradientUnits="userSpaceOnUse" id="gradient4" spreadMethod="pad" x1="-819.2" x2="819.2">
      <stop offset="0.0784313725490196" stop-color="#4d4d4d"/>
      <stop offset="0.39215686274509803" stop-color="#9b9b9b"/>
      <stop offset="0.596078431372549" stop-color="#cccccc"/>
      <stop offset="0.7490196078431373" stop-color="#c8c8c8"/>
      <stop offset="1.0" stop-color="#444444"/>
    </linearGradient>
    <linearGradient gradientTransform="matrix(0.0088, -0.0076, 0.0108, 0.0124, -7.3, -6.8)" gradientUnits="userSpaceOnUse" id="gradient5" spreadMethod="pad" x1="-819.2" x2="819.2">
      <stop offset="0.0784313725490196" stop-color="#4d4d4d"/>
      <stop offset="0.39215686274509803" stop-color="#9b9b9b"/>
      <stop offset="0.596078431372549" stop-color="#cccccc"/>
      <stop offset="0.7490196078431373" stop-color="#c8c8c8"/>
      <stop offset="1.0" stop-color="#444444"/>
    </linearGradient>
    <linearGradient gradientTransform="matrix(0.004, -0.002, 0.0059, 0.012, -14.65, -0.55)" gradientUnits="userSpaceOnUse" id="gradient6" spreadMethod="pad" x1="-819.2" x2="819.2">
      <stop offset="0.0784313725490196" stop-color="#4d4d4d"/>
      <stop offset="0.39215686274509803" stop-color="#9b9b9b"/>
      <stop offset="0.596078431372549" stop-color="#cccccc"/>
      <stop offset="0.7490196078431373" stop-color="#c8c8c8"/>
      <stop offset="1.0" stop-color="#444444"/>
    </linearGradient>
    <radialGradient cx="0" cy="0" gradientTransform="matrix(0.0036, -0.0031, 0.0031, 0.0036, -21.4, -25.35)" gradientUnits="userSpaceOnUse" id="gradient7" r="819.2" spreadMethod="pad">
      <stop offset="0.0" stop-color="#ffffff"/>
      <stop offset="0.8627450980392157" stop-color="#ffffff" stop-opacity="0.0"/>
    </radialGradient>
  </defs>
</svg>
