<?xml version="1.0" encoding="UTF-8" standalone="no"?>
<svg xmlns:xlink="http://www.w3.org/1999/xlink" height="29.25px" width="47.9px" xmlns="http://www.w3.org/2000/svg">
  <g transform="matrix(1.0, 0.0, 0.0, 1.0, 23.95, 14.6)">
    <use height="29.25" transform="matrix(1.0, 0.0, 0.0, 1.0, -23.95, -14.6)" width="47.9" xlink:href="#shape0"/>
  </g>
  <defs>
    <g id="shape0" transform="matrix(1.0, 0.0, 0.0, 1.0, 23.95, 14.6)">
      <path d="M-4.0 -5.35 Q-5.3 -3.45 -6.0 -0.25 L-9.3 -0.35 Q-8.6 -2.8 -7.65 -4.7 -6.55 -6.85 -5.15 -8.25 L-9.55 -10.05 Q-12.05 -9.35 -14.0 -3.55 L-14.15 -3.15 -15.75 -2.65 Q-14.2 -8.45 -10.9 -10.75 -7.6 -13.05 -1.4 -14.3 6.35 -15.3 12.8 -13.05 16.8 -12.05 18.0 -11.0 L19.7 -4.9 13.1 -3.45 Q12.3 -10.0 6.8 -9.3 L3.9 -8.8 -1.1 -7.7 Q-2.8 -7.15 -4.0 -5.35 M21.6 5.55 Q21.35 0.35 16.95 -0.2 L16.35 -0.15 Q12.9 0.3 11.4 3.5 L10.85 4.9 10.6 5.9 10.45 6.9 10.4 7.35 10.3 8.3 3.0 9.15 2.8 8.15 2.75 7.85 Q2.35 3.15 -2.35 2.75 -4.65 2.7 -6.2 3.65 -8.55 4.95 -9.35 8.4 L-9.35 8.45 -9.7 10.7 -9.75 11.85 Q-11.05 12.55 -12.45 12.65 -15.6 12.9 -19.65 10.2 L-22.25 10.7 Q-23.45 10.85 -23.9 10.2 -24.15 8.75 -22.1 8.5 L-23.2 7.55 Q-24.25 5.45 -21.2 4.7 -22.9 5.6 -21.9 7.0 L-16.95 9.9 -13.2 10.9 -12.45 11.05 -12.4 9.85 -12.35 9.55 Q-11.25 1.35 -3.95 0.7 3.5 0.05 4.1 7.0 L7.6 6.45 7.6 6.4 Q8.25 -0.55 14.15 -2.45 17.95 -3.55 20.85 -0.9 22.7 0.6 23.15 3.75 L23.95 3.75 23.95 5.7 21.6 6.25 21.6 5.55 M2.45 -11.15 Q7.0 -12.2 11.9 -12.45 L7.05 -13.8 Q-1.35 -14.65 -7.65 -11.75 L-6.95 -11.2 Q-5.6 -10.45 -2.65 -9.65 L2.45 -11.15 M-14.35 -1.55 Q-11.0 -1.8 -10.55 0.8 L-14.4 2.15 -14.65 3.1 -16.85 9.3 -21.5 6.6 -19.35 0.7 Q-18.45 -0.65 -17.3 -0.9 L-16.9 -1.0 -14.35 -1.55 M-9.15 1.95 Q-11.7 4.35 -12.3 6.85 L-12.45 7.55 -12.9 8.45 Q-12.05 4.6 -12.25 2.6 -12.55 2.35 -12.8 2.4 L-9.65 0.75 -9.15 1.95 M-15.3 3.3 L-15.1 2.5 -15.1 2.45 -15.1 1.45 Q-15.25 0.55 -16.05 0.15 L-17.1 0.0 -17.45 0.05 -17.75 0.2 -18.6 0.8 -19.05 1.35 -19.1 1.5 -19.4 2.35 -19.75 3.2 -20.1 4.2 -20.35 4.95 -20.65 5.7 -20.85 6.4 -17.25 8.5 -16.9 7.8 -16.6 7.0 -16.3 6.15 -15.9 5.05 -15.6 4.1 -15.3 3.3" fill="#0033ff" fill-rule="evenodd" stroke="none"/>
      <path d="M-4.0 -5.35 L4.4 -6.85 3.9 -8.8 6.8 -9.3 Q12.3 -10.0 13.1 -3.45 L-6.0 -0.25 Q-5.3 -3.45 -4.0 -5.35 M-14.15 -3.15 L-14.0 -3.55 -7.65 -4.7 Q-8.6 -2.8 -9.3 -0.35 L-14.15 -3.15 M16.35 -0.15 L16.95 -0.2 Q21.35 0.35 21.6 5.55 L21.35 5.6 21.35 5.35 21.35 5.2 Q21.35 3.35 20.2 1.95 L19.65 1.35 19.0 0.8 Q17.8 0.0 16.35 -0.15 M-6.2 3.65 Q-4.65 2.7 -2.35 2.75 2.35 3.15 2.75 7.85 L2.1 7.95 Q1.85 6.55 0.95 5.45 L0.35 4.85 Q-1.4 3.2 -3.9 3.25 L-6.2 3.65 M-6.95 -11.2 L-7.65 -11.75 Q-1.35 -14.65 7.05 -13.8 L11.9 -12.45 Q7.0 -12.2 2.45 -11.15 0.1 -13.8 -6.95 -11.2 M-15.1 2.45 L-15.1 2.5 -15.3 3.3 -19.1 1.5 -19.05 1.35 -18.6 0.8 -15.1 2.45 M-15.6 4.1 L-15.9 5.05 -19.75 3.2 -19.4 2.35 -15.6 4.1 M-16.3 6.15 L-16.6 7.0 -20.35 4.95 -20.1 4.2 -16.3 6.15 M-16.9 7.8 L-17.25 8.5 -20.85 6.4 -20.65 5.7 -16.9 7.8 M-17.75 0.2 L-17.45 0.05 -17.1 0.0 -16.05 0.15 Q-15.25 0.55 -15.1 1.45 L-17.75 0.2" fill="#011d87" fill-rule="evenodd" stroke="none"/>
      <path d="M-6.0 -0.25 L13.1 -3.45 19.7 -4.9 Q20.75 -4.6 20.85 -0.9 17.95 -3.55 14.15 -2.45 8.25 -0.55 7.6 6.4 L7.6 6.45 4.1 7.0 Q3.5 0.05 -3.95 0.7 -11.25 1.35 -12.35 9.55 L-12.4 9.85 -12.45 11.05 -13.2 10.9 -16.95 9.9 -21.9 7.0 Q-22.9 5.6 -21.2 4.7 L-19.65 -0.6 Q-18.5 -2.25 -15.75 -2.65 L-14.15 -3.15 -9.3 -0.35 -6.0 -0.25 M10.6 5.9 L10.85 4.9 11.4 3.5 Q12.9 0.3 16.35 -0.15 17.8 0.0 19.0 0.8 L19.65 1.35 20.2 1.95 Q21.35 3.35 21.35 5.2 L21.35 5.35 20.15 4.25 17.65 4.7 Q17.55 3.45 16.2 3.45 14.8 3.45 14.8 4.9 L14.9 5.15 10.6 5.9 M-14.35 -1.55 L-16.9 -1.0 -17.3 -0.9 Q-18.45 -0.65 -19.35 0.7 L-21.5 6.6 -16.85 9.3 -14.65 3.1 -14.4 2.15 -10.55 0.8 Q-11.0 -1.8 -14.35 -1.55 M-9.15 1.95 L-9.65 0.75 -12.8 2.4 Q-12.55 2.35 -12.25 2.6 -12.05 4.6 -12.9 8.45 L-12.45 7.55 -12.3 6.85 Q-11.7 4.35 -9.15 1.95 M-15.3 3.3 L-15.6 4.1 -19.4 2.35 -19.1 1.5 -15.3 3.3 M-15.9 5.05 L-16.3 6.15 -20.1 4.2 -19.75 3.2 -15.9 5.05 M-16.6 7.0 L-16.9 7.8 -20.65 5.7 -20.35 4.95 -16.6 7.0 M-18.6 0.8 L-17.75 0.2 -15.1 1.45 -15.1 2.45 -18.6 0.8" fill="#0126ba" fill-rule="evenodd" stroke="none"/>
      <path d="M20.15 4.25 Q20.45 4.9 20.35 5.7 L20.35 5.95 20.15 6.6 20.15 4.25 M1.1 9.75 Q0.85 11.2 -0.4 12.25 -1.6 13.3 -3.05 13.3 -4.55 13.3 -5.45 12.25 -6.3 11.2 -6.0 9.75 -5.8 8.3 -4.55 7.25 -3.35 6.2 -1.85 6.2 -0.4 6.2 0.45 7.25 1.35 8.3 1.1 9.75 M-0.1 7.75 Q-0.8 6.95 -1.95 6.95 -3.15 6.95 -4.1 7.75 -5.1 8.6 -5.3 9.8 -5.5 10.95 -4.8 11.8 -4.15 12.6 -2.95 12.65 -1.75 12.6 -0.8 11.8 0.2 10.95 0.4 9.8 0.6 8.6 -0.1 7.75 M-0.75 8.35 Q-0.3 8.9 -0.4 9.75 -0.6 10.55 -1.25 11.15 -1.95 11.75 -2.75 11.75 -3.6 11.75 -4.05 11.15 -4.55 10.55 -4.4 9.75 -4.25 8.9 -3.6 8.35 -2.9 7.75 -2.05 7.75 -1.25 7.75 -0.75 8.35" fill="#f0ece3" fill-rule="evenodd" stroke="none"/>
      <path d="M17.65 4.7 L17.65 4.9 Q17.65 6.3 16.2 6.3 15.35 6.3 15.0 5.6 L14.9 5.15 14.8 4.9 Q14.8 3.45 16.2 3.45 17.55 3.45 17.65 4.7 M1.1 9.75 Q1.35 8.3 0.45 7.25 -0.4 6.2 -1.85 6.2 -3.35 6.2 -4.55 7.25 -5.8 8.3 -6.0 9.75 -6.3 11.2 -5.45 12.25 -4.55 13.3 -3.05 13.3 -1.6 13.3 -0.4 12.25 0.85 11.2 1.1 9.75 M2.1 7.95 L2.2 8.95 Q2.15 11.3 0.35 12.95 -1.4 14.65 -3.9 14.65 -6.15 14.65 -7.85 13.3 -9.05 11.8 -9.05 9.85 -9.1 7.45 -7.3 5.75 -5.55 4.1 -3.0 4.1 -0.75 4.1 0.95 5.45 1.85 6.55 2.1 7.95" fill="#333333" fill-rule="evenodd" stroke="none"/>
      <path d="M-9.7 10.7 L-9.35 8.45 -9.35 8.4 Q-8.55 4.95 -6.2 3.65 L-3.9 3.25 Q-1.4 3.2 0.35 4.85 L0.95 5.45 Q-0.75 4.1 -3.0 4.1 -5.55 4.1 -7.3 5.75 -9.1 7.45 -9.05 9.85 -9.05 11.8 -7.85 13.3 L-8.2 12.95 Q-9.3 11.95 -9.7 10.7" fill="#2b2b2b" fill-rule="evenodd" stroke="none"/>
      <path d="M-0.1 7.75 Q0.6 8.6 0.4 9.8 0.2 10.95 -0.8 11.8 -1.75 12.6 -2.95 12.65 -4.15 12.6 -4.8 11.8 -5.5 10.95 -5.3 9.8 -5.1 8.6 -4.1 7.75 -3.15 6.95 -1.95 6.95 -0.8 6.95 -0.1 7.75 M-0.75 8.35 Q-1.25 7.75 -2.05 7.75 -2.9 7.75 -3.6 8.35 -4.25 8.9 -4.4 9.75 -4.55 10.55 -4.05 11.15 -3.6 11.75 -2.75 11.75 -1.95 11.75 -1.25 11.15 -0.6 10.55 -0.4 9.75 -0.3 8.9 -0.75 8.35" fill="#7e7b70" fill-rule="evenodd" stroke="none"/>
      <path d="M5.3 5.6 L6.4 5.55 7.35 6.15 Q7.65 6.6 7.55 7.05 L6.9 7.75 5.8 7.8 4.9 7.2 Q4.55 6.75 4.7 6.3 4.8 5.8 5.3 5.6 M8.15 2.1 L8.15 3.25 4.1 4.85 3.8 4.95 Q2.85 5.25 2.7 4.1 L2.65 3.7 8.15 2.1 M13.4 -3.0 L12.85 -3.35 16.7 -4.15 16.7 -3.3 13.4 -3.0 M17.4 -7.4 L18.35 -7.85 19.25 -5.35 12.95 -8.55 12.95 -9.25 17.4 -7.4 M10.1 -1.3 L9.85 -1.15 8.2 0.15 8.0 0.35 1.45 2.7 2.6 2.25 Q1.4 0.15 -1.45 0.2 L-1.05 -0.3 -1.3 -1.25 Q-0.25 -2.8 0.7 -1.4 L0.75 -1.25 0.8 -1.1 Q6.85 -1.0 10.1 -1.3 M-4.1 -9.7 Q-3.5 -9.7 -3.45 -9.05 L-7.3 -2.95 Q-8.0 -2.95 -8.0 -3.65 L-6.4 -6.7 Q-4.7 -9.7 -4.1 -9.7 M-4.95 0.15 Q-4.4 0.15 -4.3 0.8 -4.3 1.05 -6.0 1.75 L-8.3 2.4 -8.95 1.75 Q-8.95 1.25 -6.95 0.65 L-4.95 0.15" fill="#432801" fill-opacity="0.48235294" fill-rule="evenodd" stroke="none"/>
    </g>
  </defs>
</svg>
