<?xml version="1.0" encoding="UTF-8" standalone="no"?>
<svg xmlns:xlink="http://www.w3.org/1999/xlink" height="32.95px" width="42.45px" xmlns="http://www.w3.org/2000/svg">
  <g transform="matrix(1.0, 0.0, 0.0, 1.0, 21.1, 16.45)">
    <use height="32.95" transform="matrix(1.0, 0.0, 0.0, 1.0, -21.1, -16.45)" width="42.45" xlink:href="#shape0"/>
  </g>
  <defs>
    <g id="shape0" transform="matrix(1.0, 0.0, 0.0, 1.0, 21.1, 16.45)">
      <path d="M-20.95 -7.15 L10.9 -16.3 21.2 -14.2 -5.25 -5.0 -5.55 -4.9 -6.0 -5.0 -7.95 -5.05 -8.25 -5.0 -8.5 -4.95 -10.75 -4.9 -10.85 -4.85 -11.45 -4.7 -12.35 -4.65 -12.35 -4.5 -20.95 -7.15" fill="#924b4b" fill-rule="evenodd" stroke="none"/>
      <path d="M21.2 -14.2 L20.95 2.45 -9.3 16.35 -9.3 0.45 -9.2 0.4 -9.05 0.35 -8.8 -0.3 -8.8 -0.45 -8.6 -0.9 -8.25 -1.0 -8.0 -1.05 Q-7.7 -1.25 -7.8 -1.7 L-7.7 -2.05 -6.8 -2.75 -6.75 -2.85 -6.35 -3.0 Q-5.85 -3.15 -5.95 -3.75 L-5.75 -4.65 -5.5 -4.85 -5.55 -4.9 -5.25 -5.0 21.2 -14.2 M-5.25 -5.0 L-5.5 -4.85 -5.25 -5.0" fill="#7e2b25" fill-rule="evenodd" stroke="none"/>
      <path d="M-9.3 16.35 L-20.25 11.4 -20.95 -7.15 -12.35 -4.5 Q-12.35 -4.25 -11.95 -4.15 L-11.75 -4.0 Q-11.55 -3.5 -11.65 -2.85 -11.75 -2.25 -11.25 -1.9 L-11.15 -1.85 -11.05 -1.75 -10.55 -1.45 -10.25 -1.3 -10.25 -1.1 Q-10.5 -0.55 -10.0 -0.25 L-9.85 -0.1 Q-9.55 0.15 -9.4 0.7 L-9.3 0.45 -9.3 16.35" fill="#682020" fill-rule="evenodd" stroke="none"/>
      <path d="M-12.35 -4.5 L-12.35 -4.65 -11.45 -4.7 -10.85 -4.85 -10.75 -4.9 -8.5 -4.95 -8.25 -5.0 -7.95 -5.05 -6.0 -5.0 -5.55 -4.9 -5.5 -4.85 -5.75 -4.65 -5.95 -3.75 Q-5.85 -3.15 -6.35 -3.0 L-6.75 -2.85 -6.8 -2.75 -7.7 -2.05 -7.8 -1.7 Q-7.7 -1.25 -8.0 -1.05 L-8.25 -1.0 -8.6 -0.9 -8.8 -0.45 -8.8 -0.3 -9.05 0.35 -9.2 0.4 -9.3 0.45 -9.4 0.7 Q-9.55 0.15 -9.85 -0.1 L-10.0 -0.25 Q-10.5 -0.55 -10.25 -1.1 L-10.25 -1.3 -10.55 -1.45 -11.05 -1.75 -11.15 -1.85 -11.25 -1.9 Q-11.75 -2.25 -11.65 -2.85 -11.55 -3.5 -11.75 -4.0 L-11.95 -4.15 Q-12.35 -4.25 -12.35 -4.5" fill="#863535" fill-rule="evenodd" stroke="none"/>
      <path d="M-20.95 -7.15 L10.9 -16.3 21.2 -14.2 20.95 2.45 -9.3 16.35 -20.25 11.4 -20.95 -7.15 -12.35 -4.5 -12.35 -4.65 -11.45 -4.7 -10.85 -4.85 -10.75 -4.9 -8.5 -4.95 -8.25 -5.0 -7.95 -5.05 -6.0 -5.0 -5.55 -4.9 -5.25 -5.0 21.2 -14.2 M-9.3 0.45 L-9.4 0.7 Q-9.55 0.15 -9.85 -0.1 L-10.0 -0.25 Q-10.5 -0.55 -10.25 -1.1 L-10.25 -1.3 -10.55 -1.45 -11.05 -1.75 -11.15 -1.85 -11.25 -1.9 Q-11.75 -2.25 -11.65 -2.85 -11.55 -3.5 -11.75 -4.0 L-11.95 -4.15 Q-12.35 -4.25 -12.35 -4.5 M-5.55 -4.9 L-5.5 -4.85 -5.25 -5.0 M-5.5 -4.85 L-5.75 -4.65 -5.95 -3.75 Q-5.85 -3.15 -6.35 -3.0 L-6.75 -2.85 -6.8 -2.75 -7.7 -2.05 -7.8 -1.7 Q-7.7 -1.25 -8.0 -1.05 L-8.25 -1.0 -8.6 -0.9 -8.8 -0.45 -8.8 -0.3 -9.05 0.35 -9.2 0.4 -9.3 0.45 -9.3 16.35" fill="none" stroke="#551a1a" stroke-linecap="round" stroke-linejoin="round" stroke-width="0.35000000000000003"/>
      <path d="M11.5 -14.45 L11.75 -14.35 11.9 -14.15 11.75 -13.95 10.9 -13.6 9.45 -13.25 Q8.75 -13.1 9.9 -13.65 L11.2 -14.35 11.5 -14.45 M12.9 -14.1 L12.7 -14.3 12.9 -14.5 13.35 -14.6 13.8 -14.5 14.0 -14.3 13.8 -14.1 13.35 -14.0 12.9 -14.1 M9.7 -11.7 L9.6 -11.9 9.7 -12.1 10.0 -12.2 10.25 -12.1 10.4 -11.9 10.25 -11.7 10.0 -11.6 9.7 -11.7 M6.3 -11.15 L5.95 -11.25 5.8 -11.45 5.95 -11.65 7.4 -11.95 Q8.75 -12.15 8.15 -11.9 L7.15 -11.5 6.65 -11.25 6.3 -11.15 M8.55 -8.0 L10.75 -8.45 Q12.45 -8.8 10.5 -8.2 L8.5 -7.6 8.25 -7.55 8.0 -7.6 7.9 -7.75 8.0 -7.9 8.55 -8.0 M3.65 -12.2 L4.25 -12.95 Q5.15 -12.8 4.45 -12.35 L3.65 -12.2 M1.75 -10.35 L1.5 -10.25 1.2 -10.35 1.1 -10.55 1.2 -10.75 1.5 -10.85 1.75 -10.75 1.9 -10.55 1.75 -10.35 M2.5 -9.15 L2.7 -9.0 0.95 -8.3 Q0.7 -9.0 1.55 -9.05 L2.5 -9.15 M4.9 -5.5 L5.0 -5.35 4.9 -5.2 4.75 -5.15 4.55 -5.2 4.5 -5.35 4.55 -5.5 4.75 -5.55 4.9 -5.5 M3.0 -3.45 L2.75 -3.35 2.45 -3.45 2.35 -3.65 2.45 -3.85 2.75 -3.95 3.0 -3.85 3.15 -3.65 3.0 -3.45 M5.6 -3.25 L5.7 -3.05 5.6 -2.85 5.4 -2.75 5.2 -2.85 5.1 -3.05 5.2 -3.25 5.4 -3.35 5.6 -3.25 M9.4 -0.6 L10.95 -0.9 Q10.7 -0.4 9.65 -0.15 L8.25 -0.05 Q7.85 -0.25 9.4 -0.6 M9.3 -3.15 L11.2 -3.9 11.65 -4.05 11.9 -3.95 12.0 -3.7 11.9 -3.45 Q11.8 -3.35 11.65 -3.35 L9.6 -2.95 Q7.7 -2.55 9.3 -3.15 M19.0 -10.4 L18.45 -10.45 19.0 -11.15 Q19.4 -10.75 19.0 -10.4 M17.9 -8.75 L18.4 -8.75 20.35 -8.5 17.9 -8.2 17.9 -8.75 M17.2 -8.55 L15.25 -7.85 Q14.7 -8.3 15.4 -8.55 L17.2 -8.55 M14.35 -5.3 L14.95 -5.95 14.3 -4.7 Q13.6 -5.0 14.35 -5.3 M14.6 -1.5 L14.0 -1.5 14.0 -2.1 14.6 -2.1 14.6 -1.5 M15.5 -6.15 L18.25 -6.6 15.95 -5.9 Q15.45 -5.75 15.5 -6.15 M17.0 1.0 L17.85 0.45 17.2 1.15 17.0 1.0 M13.5 1.1 L13.7 1.0 14.75 0.8 15.75 0.65 14.75 1.2 13.7 1.6 13.5 1.5 13.45 1.3 13.5 1.1 M11.7 1.0 L11.9 1.1 12.0 1.3 11.9 1.5 11.7 1.6 10.45 1.95 9.3 2.2 10.4 1.6 11.7 1.0 M12.55 4.45 L13.1 4.1 13.3 4.0 13.5 4.1 13.6 4.3 13.5 4.5 11.85 5.1 Q10.3 5.6 11.2 5.15 L12.55 4.45 M12.75 3.65 L10.1 4.35 12.1 3.15 12.75 3.15 12.75 3.65 M10.4 6.65 L10.3 6.8 9.7 7.0 7.55 7.7 Q5.85 8.3 7.75 7.45 L9.8 6.5 10.05 6.45 10.3 6.5 10.4 6.65 M8.7 4.65 L6.5 6.1 Q6.55 5.9 7.9 5.0 L8.7 4.65 M2.65 1.15 Q1.05 1.45 2.0 1.1 L3.6 0.5 4.4 0.25 4.65 0.35 4.8 0.55 4.65 0.75 4.4 0.85 2.65 1.15 M4.1 5.3 L3.75 5.5 3.5 5.45 Q-1.1 6.2 4.05 4.75 4.65 4.85 4.1 5.3 M1.15 8.4 L1.0 8.5 0.8 8.4 0.75 8.15 0.8 7.9 1.0 7.8 1.15 7.9 1.25 8.15 1.15 8.4 M3.55 9.5 L4.45 8.4 5.1 8.4 3.65 9.85 Q3.0 9.65 3.55 9.5 M-14.15 -7.4 L-14.5 -7.45 -14.6 -7.6 -14.5 -7.75 -14.15 -7.8 -13.85 -7.75 -13.7 -7.6 -13.85 -7.45 -14.15 -7.4 M-11.85 -8.3 Q-11.35 -8.05 -12.2 -7.75 -12.45 -7.65 -12.4 -8.0 L-11.85 -8.3 M-11.4 -6.75 L-11.4 -6.35 -12.45 -6.35 -12.45 -6.75 -11.4 -6.75 M-2.8 -10.3 L-0.65 -10.35 -2.85 -9.95 Q-3.4 -10.15 -2.8 -10.3 M-2.85 -8.2 L-2.5 -8.25 -2.15 -8.2 -2.0 -8.05 -2.15 -7.9 -2.5 -7.85 -2.85 -7.9 -3.0 -8.05 -2.85 -8.2 M-7.6 -7.85 L-7.95 -7.95 -8.1 -8.15 -7.95 -8.35 -7.55 -8.45 Q-7.3 -8.5 -5.2 -9.3 -3.15 -10.1 -5.15 -9.05 L-7.25 -7.95 -7.6 -7.85 M-6.4 -5.15 L-4.8 -5.9 -5.3 -5.2 -6.4 -5.15 M-8.6 -5.8 L-8.75 -5.65 -9.1 -5.6 -9.45 -5.65 -9.6 -5.8 -9.45 -5.95 -9.1 -6.0 -8.75 -5.95 -8.6 -5.8 M-1.85 -3.8 L-2.0 -3.6 -3.1 -3.3 -4.5 -3.2 -3.75 -3.55 Q-2.65 -3.9 -2.55 -4.0 L-2.25 -4.1 -2.0 -4.0 -1.85 -3.8 M-1.3 -0.35 L-4.1 0.3 Q-2.2 -0.55 -1.45 -0.45 L-1.3 -0.35 M-0.8 2.7 Q-0.3 2.8 -1.65 3.25 L-3.05 3.7 -3.25 3.55 -3.3 3.2 -3.25 2.85 -3.05 2.7 -2.15 2.7 -0.8 2.7 M-7.85 2.3 L-4.85 1.65 Q-5.0 2.7 -5.6 2.1 L-7.85 2.3 M-5.3 5.65 L-5.2 5.9 -5.3 6.15 -5.45 6.25 -6.9 6.45 Q-8.2 6.6 -7.5 6.3 L-6.2 5.8 -5.45 5.55 Q-5.35 5.55 -5.3 5.65 M-6.05 11.05 L-5.85 10.9 Q-5.75 10.9 -5.65 11.05 L-5.55 11.35 -5.65 11.7 -5.95 11.85 -8.2 12.4 Q-10.3 12.9 -8.25 12.05 L-6.05 11.05" fill="#ffffff" fill-opacity="0.15686275" fill-rule="evenodd" stroke="none"/>
      <path d="M12.9 -12.4 Q12.75 -12.05 12.6 -12.45 13.2 -12.9 12.9 -12.4 M11.45 -13.15 Q11.4 -13.0 11.2 -13.3 11.6 -13.65 11.45 -13.15 M15.65 -13.4 L15.45 -13.25 Q14.9 -13.45 15.5 -13.8 L15.7 -13.8 15.65 -13.4 M2.7 -12.65 L2.5 -12.7 2.45 -12.9 2.5 -13.05 2.7 -13.15 2.85 -13.05 2.95 -12.9 2.85 -12.7 2.7 -12.65 M7.35 -12.65 Q7.8 -13.1 7.55 -12.55 7.45 -12.25 7.35 -12.65 M7.9 -14.35 L7.7 -14.4 7.6 -14.6 7.7 -14.75 7.9 -14.85 8.1 -14.75 8.2 -14.6 8.1 -14.4 7.9 -14.35 M8.9 -13.75 Q8.5 -14.35 9.0 -13.9 9.3 -13.6 8.9 -13.75 M5.1 -11.3 L5.2 -11.45 5.4 -11.55 5.6 -11.45 5.7 -11.3 5.6 -11.1 5.4 -11.05 5.2 -11.1 5.1 -11.3 M2.9 -9.3 Q3.35 -9.1 2.8 -9.0 L2.5 -9.3 Q2.35 -9.6 2.9 -9.3 M2.95 -2.2 Q2.65 -2.35 2.85 -2.5 L3.75 -2.45 3.9 -2.3 Q3.6 -1.8 2.95 -2.2 M10.05 -2.8 L10.0 -2.65 Q9.5 -2.35 9.5 -2.8 L9.65 -3.15 10.05 -2.8 M7.9 -3.3 L8.1 -3.35 Q7.9 -2.35 6.7 -2.4 6.5 -2.7 6.9 -2.9 L7.9 -3.3 M19.25 -11.35 L19.05 -11.5 19.5 -11.55 19.25 -11.35 M13.65 -9.8 Q13.35 -9.6 13.3 -10.1 13.3 -10.65 13.8 -10.3 14.0 -10.1 13.65 -9.8 M12.05 -7.4 Q12.55 -8.05 12.3 -7.35 12.2 -7.1 12.05 -7.4 M10.2 -4.65 L10.1 -4.85 10.2 -5.0 10.45 -5.1 10.7 -5.0 10.8 -4.85 10.7 -4.65 10.45 -4.6 10.2 -4.65 M16.2 -4.0 L16.0 -4.1 15.95 -4.3 16.0 -4.5 16.2 -4.6 16.35 -4.5 16.45 -4.3 16.35 -4.1 16.2 -4.0 M16.15 -0.5 Q16.4 -1.25 17.15 -1.2 L17.25 -1.15 Q17.2 -0.05 16.15 -0.5 M19.8 -1.4 L19.7 -1.6 19.8 -1.75 20.05 -1.85 20.3 -1.75 20.4 -1.6 20.3 -1.4 20.05 -1.35 19.8 -1.4 M13.85 2.75 Q14.0 3.35 13.45 3.5 12.95 3.75 12.85 3.2 13.0 2.55 13.85 2.75 M6.05 4.8 L5.9 5.35 5.0 5.4 Q4.9 4.65 5.8 4.7 L6.05 4.8 M9.05 1.35 L8.9 1.15 Q9.65 0.8 9.5 1.5 L9.05 1.35 M3.4 5.7 Q3.0 5.65 3.2 5.35 L4.55 5.3 Q4.1 5.8 3.4 5.7 M1.7 9.85 L1.6 9.6 Q2.25 9.4 2.45 9.85 L2.5 10.0 1.7 9.85 M-15.05 -8.3 L-15.0 -8.45 -14.8 -8.55 -14.65 -8.45 -14.55 -8.3 -14.65 -8.1 -14.8 -8.05 -15.0 -8.1 -15.05 -8.3 M-19.65 -2.95 Q-19.05 -3.05 -18.95 -2.25 L-19.25 -1.95 Q-19.75 -2.05 -19.65 -2.65 L-19.65 -2.95 M-16.45 -2.7 L-16.2 -2.3 -16.35 -2.05 -16.55 -2.65 -16.45 -2.7 M-16.8 -0.25 Q-16.35 -0.15 -16.6 0.45 L-16.8 0.6 Q-17.4 0.55 -17.05 -0.05 L-16.8 -0.25 M-10.7 -3.85 L-9.9 -3.95 -6.3 -4.1 -6.2 -3.95 -10.85 -3.7 -10.7 -3.85 M-14.4 -5.75 L-14.5 -5.55 -14.7 -5.5 -14.9 -5.55 -15.0 -5.75 -14.9 -5.9 -14.7 -6.0 -14.5 -5.9 -14.4 -5.75 M-10.2 -1.2 L-8.95 -1.3 -8.8 -1.2 -10.15 -1.15 -10.2 -1.2 M-3.85 -7.25 L-3.8 -7.65 -3.6 -7.8 Q-2.9 -7.5 -3.7 -7.2 L-3.85 -7.25 M-7.8 -9.5 L-7.6 -9.4 -7.5 -9.25 -7.6 -9.05 -7.8 -9.0 -8.0 -9.05 -8.1 -9.25 -8.0 -9.4 -7.8 -9.5 M-5.65 -9.15 L-5.75 -9.3 Q-5.7 -9.8 -5.45 -9.15 -5.35 -8.9 -5.65 -9.15 M-8.0 -1.95 L-8.05 -1.75 -10.05 -1.8 -10.1 -1.95 -10.05 -2.1 -8.15 -2.1 -8.0 -1.95 M-9.25 -6.15 Q-9.4 -5.85 -9.5 -6.25 -9.0 -6.8 -9.25 -6.15 M-0.45 1.05 Q0.2 1.3 -0.35 1.95 L-0.85 2.05 -0.65 1.3 -0.45 1.05 M-2.2 5.7 L-2.9 5.7 Q-2.9 5.15 -1.95 4.95 L-1.8 4.85 Q-1.3 4.85 -1.65 5.3 L-2.2 5.7 M-5.9 8.15 L-6.05 7.85 Q-6.15 7.15 -5.75 7.65 L-5.55 8.3 -5.9 8.15 M-3.25 10.35 L-3.6 10.9 -4.15 11.05 Q-4.6 11.15 -4.5 10.7 -3.95 10.35 -3.4 10.15 L-3.25 10.15 -3.25 10.35 M-12.85 1.05 L-13.2 0.6 Q-12.7 0.0 -12.7 0.85 L-12.85 1.05 M-15.75 5.55 L-15.8 5.2 Q-15.1 4.75 -15.1 5.95 L-15.25 6.05 Q-15.75 6.2 -15.75 5.55 M-16.5 8.1 L-16.9 8.0 -17.05 7.85 -16.6 7.2 Q-15.6 7.25 -16.5 8.1 M-11.6 10.05 L-11.7 9.95 -11.55 9.2 -11.4 9.9 -11.6 10.05 M-15.5 12.2 Q-15.5 11.55 -15.15 12.15 L-15.5 12.2 M-5.15 13.05 Q-5.1 12.1 -4.05 12.4 L-3.95 12.55 Q-4.0 13.1 -4.45 13.1 L-5.15 13.05" fill="#4f1717" fill-opacity="0.7490196" fill-rule="evenodd" stroke="none"/>
    </g>
  </defs>
</svg>
