<?xml version="1.0" encoding="UTF-8" standalone="no"?>
<svg xmlns:xlink="http://www.w3.org/1999/xlink" height="47.0px" width="78.0px" xmlns="http://www.w3.org/2000/svg">
  <g transform="matrix(1.0, 0.0, 0.0, 1.0, 39.0, 23.5)">
    <use height="47.0" transform="matrix(1.0, 0.0, 0.0, 1.0, -39.0, -23.5)" width="78.0" xlink:href="#shape0"/>
  </g>
  <defs>
    <g id="shape0" transform="matrix(1.0, 0.0, 0.0, 1.0, 39.0, 23.5)">
      <path d="M-12.65 8.9 L-12.35 8.85 2.35 2.95 9.4 -6.05 9.5 -6.25 9.25 -6.4 8.7 -6.5 8.35 -6.4 0.95 2.5 -13.65 8.25 -13.7 8.3 -15.05 7.55 -0.5 1.9 6.85 -6.95 6.9 -7.15 6.55 -7.25 6.15 -7.4 5.75 -7.25 -1.8 1.35 -15.95 6.95 -17.3 6.2 -3.25 0.85 4.25 -7.85 4.25 -8.0 4.05 -8.25 3.55 -8.3 3.1 -8.25 -4.45 0.3 -18.25 5.7 -19.75 4.8 -20.3 4.5 -19.75 4.15 0.6 -8.9 Q2.05 -10.0 1.9 -10.95 L33.15 -0.2 Q36.2 1.25 36.95 -0.15 36.8 0.75 35.55 1.7 L13.25 18.5 Q9.4 21.35 4.8 18.85 L-12.65 8.9 M14.95 -4.3 L14.6 -4.45 14.05 -4.6 13.7 -4.45 6.6 4.65 -7.9 10.65 -8.05 10.95 -7.7 11.2 -7.15 11.3 -6.7 11.2 7.95 5.1 14.85 -4.1 14.95 -4.3 M11.4 -5.55 L11.0 -5.45 3.75 3.55 -10.75 9.5 -10.9 9.65 -10.6 10.0 -10.05 10.05 -9.55 10.0 5.05 4.0 12.15 -5.1 12.2 -5.2 11.85 -5.45 11.4 -5.55 M19.55 -2.65 L19.2 -2.55 12.45 6.9 -2.1 13.1 -2.2 13.45 -1.8 13.65 -1.25 13.85 -0.8 13.65 13.9 7.45 20.45 -2.15 20.5 -2.35 20.15 -2.55 19.55 -2.65 M17.35 -3.6 L16.8 -3.7 16.4 -3.6 9.5 5.75 -5.0 11.9 Q-5.25 11.9 -5.1 12.2 L-4.8 12.45 -4.2 12.5 -3.85 12.45 10.9 6.25 17.65 -3.2 17.7 -3.4 17.35 -3.6 M23.35 -1.35 L22.95 -1.6 22.4 -1.65 22.05 -1.55 15.4 8.1 0.95 14.45 Q0.8 14.45 0.9 14.7 L1.2 14.95 1.75 15.0 2.25 14.95 16.85 8.55 23.3 -1.15 23.4 -1.25 23.35 -1.35" fill="url(#gradient0)" fill-rule="evenodd" stroke="none"/>
      <path d="M-13.7 8.3 L-13.65 8.25 0.95 2.5 8.35 -6.4 8.7 -6.5 9.25 -6.4 9.5 -6.25 9.4 -6.05 2.35 2.95 -12.35 8.85 -12.65 8.9 -12.85 8.9 -13.35 8.85 -13.7 8.5 -13.7 8.3 M-18.25 5.7 L-4.45 0.3 3.1 -8.25 3.55 -8.3 4.05 -8.25 4.25 -8.0 4.25 -7.85 -3.25 0.85 -17.3 6.2 -18.25 5.7 M-15.95 6.95 L-1.8 1.35 5.75 -7.25 6.15 -7.4 6.55 -7.25 6.9 -7.15 6.85 -6.95 -0.5 1.9 -15.05 7.55 -15.95 6.95 M23.35 -1.35 L23.4 -1.25 23.3 -1.15 16.85 8.55 2.25 14.95 1.75 15.0 1.2 14.95 0.9 14.7 Q0.8 14.45 0.95 14.45 L15.4 8.1 22.05 -1.55 22.4 -1.65 22.95 -1.6 23.35 -1.35 M17.35 -3.6 L17.7 -3.4 17.65 -3.2 10.9 6.25 -3.85 12.45 -4.2 12.5 -4.8 12.45 -5.1 12.2 Q-5.25 11.9 -5.0 11.9 L9.5 5.75 16.4 -3.6 16.8 -3.7 17.35 -3.6 M19.55 -2.65 L20.15 -2.55 20.5 -2.35 20.45 -2.15 13.9 7.45 -0.8 13.65 -1.25 13.85 -1.8 13.65 -2.2 13.45 -2.1 13.1 12.45 6.9 19.2 -2.55 19.55 -2.65 M11.4 -5.55 L11.85 -5.45 12.2 -5.2 12.15 -5.1 5.05 4.0 -9.55 10.0 -10.05 10.05 -10.6 10.0 -10.9 9.65 -10.75 9.5 3.75 3.55 11.0 -5.45 11.4 -5.55 M14.95 -4.3 L14.85 -4.1 7.95 5.1 -6.7 11.2 -7.15 11.3 -7.7 11.2 -8.05 10.95 -7.9 10.65 6.6 4.65 13.7 -4.45 14.05 -4.6 14.6 -4.45 14.95 -4.3" fill="#292929" fill-rule="evenodd" stroke="none"/>
      <path d="M1.9 -10.95 Q2.05 -10.0 0.6 -8.9 L-19.75 4.15 -20.3 4.5 -33.85 -3.2 -33.4 -3.55 -13.4 -15.35 -13.3 -15.55 Q-10.85 -16.85 -8.45 -16.4 -7.1 -16.4 -5.7 -15.6 L-0.4 -12.9 Q1.65 -12.0 1.9 -10.95" fill="url(#gradient1)" fill-rule="evenodd" stroke="none"/>
      <path d="M36.95 -0.15 Q36.2 1.25 33.15 -0.2 L1.9 -10.95 Q1.65 -12.0 -0.4 -12.9 L-5.7 -15.6 Q-7.1 -16.4 -8.45 -16.4 L-8.25 -22.45 Q-6.65 -22.5 -4.65 -21.55 L34.35 -2.85 Q36.95 -1.6 36.95 -0.15" fill="url(#gradient2)" fill-rule="evenodd" stroke="none"/>
      <path d="M-12.65 8.9 L4.8 18.85 Q9.4 21.35 13.25 18.5 L35.55 1.7 Q36.8 0.75 36.95 -0.15 36.95 -1.6 34.35 -2.85 L-4.65 -21.55 Q-6.65 -22.5 -8.25 -22.45 -10.0 -22.45 -11.65 -21.4 L-34.75 -8.1 Q-38.65 -5.9 -34.85 -3.7 L-33.85 -3.2 -20.3 4.5 -19.75 4.8 -18.25 5.7 -17.3 6.2 -15.95 6.95 -15.05 7.55 -13.7 8.3 -13.7 8.5 -13.35 8.85 -12.85 8.9 -12.65 8.9 M37.65 1.85 L37.6 1.85 36.05 3.0 33.2 5.15 19.65 15.55 15.95 18.2 13.8 19.9 Q11.7 21.3 9.65 21.6 7.2 21.7 4.75 20.2 L-37.15 -3.6 -37.7 -3.95 Q-39.25 -5.05 -38.95 -6.05 -38.8 -7.2 -36.85 -8.25 L-12.1 -22.45 Q-10.25 -23.55 -8.25 -23.5 -6.65 -23.55 -4.65 -22.6 L36.25 -3.05 Q40.9 -0.85 37.65 1.85" fill="url(#gradient3)" fill-rule="evenodd" stroke="none"/>
      <path d="M-8.25 -22.45 L-8.45 -16.4 Q-10.85 -16.85 -13.3 -15.55 L-13.4 -15.35 -33.4 -3.55 -33.85 -3.2 -34.85 -3.7 Q-38.65 -5.9 -34.75 -8.1 L-11.65 -21.4 Q-10.0 -22.45 -8.25 -22.45" fill="url(#gradient4)" fill-rule="evenodd" stroke="none"/>
      <path d="M37.65 1.85 Q37.8 3.45 36.75 4.7 L36.4 4.95 36.05 3.0 37.6 1.85 37.65 1.85 M34.15 10.1 L29.9 9.75 19.8 17.15 19.65 15.55 33.2 5.15 34.15 10.1 M16.35 23.45 L12.8 22.35 12.1 22.95 Q9.0 24.05 5.95 22.9 L-34.35 5.45 -34.55 5.3 Q-36.95 3.95 -37.7 -3.95 L-37.15 -3.6 4.75 20.2 Q7.2 21.7 9.65 21.6 11.7 21.3 13.8 19.9 L15.95 18.2 16.35 23.45" fill="url(#gradient5)" fill-rule="evenodd" stroke="none"/>
      <path d="M36.05 3.0 L36.4 4.95 36.9 8.0 34.15 10.1 33.2 5.15 36.05 3.0" fill="url(#gradient6)" fill-rule="evenodd" stroke="none"/>
      <path d="M19.8 17.15 L20.3 20.3 16.35 23.45 15.95 18.2 19.65 15.55 19.8 17.15" fill="url(#gradient7)" fill-rule="evenodd" stroke="none"/>
      <path d="M3.35 -13.0 Q3.3 -12.45 2.65 -12.4 2.0 -12.4 1.9 -12.65 L1.85 -13.0 Q1.9 -13.6 2.6 -13.6 3.3 -13.6 3.35 -13.0 M6.75 -10.55 Q8.8 -9.85 11.3 -9.3 L11.25 -9.6 Q11.3 -10.15 12.1 -10.15 12.85 -10.15 12.85 -9.5 L12.5 -9.0 Q16.5 -8.1 16.5 -7.55 16.4 -6.65 14.75 -5.55 13.05 -4.45 13.05 -4.1 L13.15 -3.0 13.75 -3.15 Q14.4 -3.2 14.45 -2.55 14.4 -1.95 13.75 -1.95 L13.1 -2.1 Q12.5 -1.4 10.3 -0.85 7.3 -0.1 7.25 1.65 7.2 2.1 8.8 3.6 10.3 5.05 10.25 5.75 L9.6 7.45 Q9.55 8.2 10.4 11.3 10.2 14.45 8.65 15.25 6.7 16.3 5.2 17.9 L4.3 18.6 -12.6 8.9 -12.85 8.9 -13.3 8.85 -13.65 8.5 -13.65 8.3 -18.2 5.7 -19.75 4.8 -32.7 -2.45 -31.25 -3.55 Q-31.75 -3.65 -31.85 -4.05 L-31.85 -4.5 Q-31.85 -5.3 -31.1 -5.2 -30.45 -5.15 -30.45 -4.35 L-30.45 -4.1 -28.25 -5.6 -27.85 -6.35 -27.75 -6.6 -27.85 -6.85 -27.4 -7.35 -27.3 -7.3 -27.1 -7.5 -26.6 -7.75 -25.85 -8.1 -25.45 -8.4 -25.75 -8.4 -26.1 -8.9 -25.15 -9.25 -24.95 -9.0 -24.75 -9.35 -24.35 -9.95 -23.8 -10.1 -23.05 -10.0 -21.65 -9.8 -21.55 -9.8 -19.75 -10.8 -19.75 -10.85 -19.6 -11.1 -19.5 -11.4 -19.35 -11.6 -18.9 -11.9 -18.5 -12.2 -17.25 -12.65 -17.0 -12.8 -16.75 -12.85 -16.0 -13.45 -16.35 -13.35 Q-16.95 -13.5 -17.1 -14.0 L-17.25 -14.6 Q-17.15 -15.7 -16.25 -15.6 -15.4 -15.45 -15.35 -14.4 -15.35 -14.0 -15.5 -13.7 L-15.3 -13.9 -14.9 -14.15 -14.25 -14.5 -12.7 -15.3 -11.8 -15.7 -11.85 -15.8 -11.9 -16.15 Q-11.85 -16.75 -11.1 -16.75 -10.45 -16.8 -10.45 -16.25 L-7.9 -16.45 -7.9 -16.5 Q-7.85 -17.1 -7.1 -17.1 -6.45 -17.1 -6.45 -16.5 L-6.55 -16.1 -5.95 -15.8 -5.35 -15.9 -4.85 -15.75 -4.7 -15.7 -4.4 -15.45 -2.8 -15.2 -2.4 -15.1 -2.1 -15.1 -1.95 -15.05 -1.95 -15.0 -1.85 -14.2 -1.65 -13.95 -1.0 -13.5 2.9 -12.1 5.2 -11.1 5.9 -11.25 Q6.8 -11.25 6.75 -10.65 L6.75 -10.55 M-20.55 -13.1 Q-20.5 -13.95 -19.75 -13.85 -18.85 -13.7 -18.8 -12.75 -19.05 -11.9 -19.6 -11.95 -20.2 -12.1 -20.45 -12.55 L-20.55 -13.1 M-30.4 -7.0 L-30.05 -7.0 Q-29.7 -6.95 -29.7 -6.35 L-29.85 -5.8 -30.05 -5.8 Q-30.3 -5.8 -30.45 -6.0 L-30.4 -7.0 M-20.8 -11.05 Q-20.8 -10.65 -21.25 -10.5 L-21.55 -11.05 -21.1 -11.5 -20.8 -11.05 M-3.5 -17.1 Q-2.65 -17.1 -2.65 -16.45 -2.7 -15.9 -3.45 -15.8 -4.45 -15.8 -4.4 -16.45 -4.4 -17.1 -3.5 -17.1 M-0.1 -15.4 Q0.85 -15.4 0.8 -14.55 0.75 -13.8 -0.25 -13.8 -1.15 -13.8 -1.1 -14.65 -1.1 -15.4 -0.1 -15.4" fill="url(#gradient8)" fill-rule="evenodd" stroke="none"/>
      <path d="M8.25 -11.4 L8.2 -11.1 7.9 -11.05 Q7.3 -11.1 7.4 -11.5 L7.45 -11.7 7.8 -11.8 8.25 -11.4" fill="url(#gradient9)" fill-rule="evenodd" stroke="none"/>
      <path d="M19.45 -8.8 L19.8 -8.55 19.75 -8.3 19.45 -8.2 19.15 -8.25 19.1 -8.45 Q19.1 -8.7 19.45 -8.8" fill="url(#gradient10)" fill-rule="evenodd" stroke="none"/>
      <path d="M14.1 -0.15 Q14.05 0.6 13.05 0.7 12.1 0.6 12.15 -0.2 12.2 -1.0 13.2 -0.95 14.15 -1.0 14.1 -0.15" fill="url(#gradient11)" fill-rule="evenodd" stroke="none"/>
      <path d="M16.65 -4.85 Q17.35 -4.9 17.4 -4.25 17.35 -3.7 16.6 -3.65 16.05 -3.65 15.95 -4.0 L15.95 -4.35 Q15.95 -4.85 16.65 -4.85" fill="url(#gradient12)" fill-rule="evenodd" stroke="none"/>
      <path d="M16.65 -1.9 Q17.1 -1.9 17.0 -1.5 L16.9 -1.05 16.65 -1.0 Q16.25 -1.05 16.3 -1.4 16.3 -1.9 16.65 -1.9" fill="url(#gradient13)" fill-rule="evenodd" stroke="none"/>
      <path d="M-1.85 -15.3 Q-1.85 -15.6 -1.3 -15.7 L-0.95 -15.4 -1.55 -15.0 -1.85 -15.3" fill="url(#gradient14)" fill-rule="evenodd" stroke="none"/>
      <path d="M10.2 1.15 L10.0 1.15 Q9.4 1.15 9.3 0.85 L9.25 0.5 Q9.25 -0.15 10.0 -0.1 10.65 -0.1 10.65 0.5 L10.6 0.85 10.9 1.2 10.8 1.4 10.55 1.5 10.2 1.15" fill="url(#gradient15)" fill-rule="evenodd" stroke="none"/>
      <path d="M11.3 2.5 Q11.35 1.9 12.05 1.9 12.75 1.9 12.8 2.55 12.75 3.15 12.1 3.2 11.45 3.15 11.35 2.8 L11.3 2.5" fill="url(#gradient16)" fill-rule="evenodd" stroke="none"/>
      <path d="M11.5 4.75 L11.15 4.4 11.25 4.2 11.6 4.2 11.95 4.4 11.85 4.65 11.5 4.75" fill="url(#gradient17)" fill-rule="evenodd" stroke="none"/>
      <path d="M13.1 5.85 Q13.1 5.25 13.8 5.25 14.5 5.25 14.5 5.85 14.5 6.45 13.75 6.45 13.2 6.45 13.1 6.15 L13.1 5.85" fill="url(#gradient18)" fill-rule="evenodd" stroke="none"/>
      <path d="M13.0 8.85 L12.55 9.15 12.2 9.1 12.15 8.8 Q12.15 8.5 12.55 8.5 L12.85 8.55 13.0 8.85" fill="url(#gradient19)" fill-rule="evenodd" stroke="none"/>
      <path d="M10.3 8.1 L10.25 7.75 Q10.3 7.2 11.05 7.2 11.75 7.2 11.7 7.75 11.7 8.4 11.05 8.45 10.4 8.4 10.3 8.1" fill="url(#gradient20)" fill-rule="evenodd" stroke="none"/>
      <path d="M11.8 10.7 Q12.5 10.7 12.45 11.25 12.4 11.95 11.7 11.95 11.25 11.95 11.1 11.65 L11.0 11.3 Q11.05 10.7 11.8 10.7" fill="url(#gradient21)" fill-rule="evenodd" stroke="none"/>
      <path d="M18.35 8.9 L18.0 8.85 17.95 8.6 Q18.0 8.05 18.45 8.1 L18.8 8.3 Q18.75 8.85 18.35 8.9" fill="url(#gradient22)" fill-rule="evenodd" stroke="none"/>
      <path d="M8.9 2.55 Q8.3 2.55 8.2 2.25 L8.2 1.9 Q8.2 1.3 8.95 1.3 9.6 1.3 9.65 1.9 9.6 2.55 8.9 2.55" fill="url(#gradient23)" fill-rule="evenodd" stroke="none"/>
      <path d="M6.05 18.05 Q6.05 17.5 6.8 17.5 7.45 17.4 7.5 18.05 7.45 18.65 6.8 18.7 6.2 18.65 6.1 18.35 L6.05 18.05" fill="url(#gradient24)" fill-rule="evenodd" stroke="none"/>
      <path d="M7.65 16.55 Q7.75 15.95 8.5 15.95 9.15 15.95 9.15 16.55 9.05 17.2 8.45 17.2 7.9 17.2 7.8 16.9 7.65 16.8 7.65 16.55" fill="url(#gradient25)" fill-rule="evenodd" stroke="none"/>
      <path d="M5.7 -7.75 L6.1 -7.6 6.45 -7.5 6.4 -7.3 -0.95 1.55 -15.45 7.2 -16.4 6.6 -2.2 1.0 5.3 -7.6 5.7 -7.75" fill="url(#gradient26)" fill-rule="evenodd" stroke="none"/>
      <path d="M9.1 -6.6 L9.0 -6.4 1.9 2.6 -12.75 8.5 -13.05 8.55 -14.1 7.95 -14.05 7.9 0.5 2.15 7.95 -6.75 8.3 -6.85 8.8 -6.75 9.1 -6.6" fill="url(#gradient27)" fill-rule="evenodd" stroke="none"/>
      <path d="M3.85 -8.35 L3.85 -8.2 -3.7 0.5 -17.75 5.85 -18.65 5.35 -4.9 -0.05 2.7 -8.6 3.15 -8.65 3.6 -8.6 3.85 -8.35" fill="url(#gradient28)" fill-rule="evenodd" stroke="none"/>
      <path d="M14.15 -4.8 L14.5 -4.65 14.4 -4.45 7.5 4.75 -7.1 10.9 -7.6 10.95 -8.1 10.9 -8.45 10.6 -8.35 10.3 6.2 4.3 13.3 -4.8 13.65 -4.95 14.15 -4.8" fill="url(#gradient29)" fill-rule="evenodd" stroke="none"/>
      <path d="M10.95 -5.9 L11.45 -5.8 11.8 -5.55 11.7 -5.45 4.6 3.65 -10.0 9.65 -10.5 9.7 -11.05 9.65 -11.3 9.3 Q-11.45 9.2 -11.2 9.15 L3.3 3.2 10.55 -5.8 10.95 -5.9" fill="url(#gradient30)" fill-rule="evenodd" stroke="none"/>
      <path d="M20.05 -2.7 L20.0 -2.5 13.45 7.1 -1.25 13.3 -1.7 13.5 -2.2 13.3 -2.65 13.1 Q-2.75 12.8 -2.5 12.75 L12.0 6.55 18.8 -2.9 19.15 -3.0 19.7 -2.9 20.05 -2.7" fill="url(#gradient31)" fill-rule="evenodd" stroke="none"/>
      <path d="M16.9 -3.95 L17.25 -3.75 17.2 -3.55 10.5 5.9 -4.25 12.1 -4.6 12.15 -5.25 12.1 -5.55 11.85 -5.45 11.6 9.1 5.4 16.0 -3.95 16.4 -4.05 16.9 -3.95" fill="url(#gradient32)" fill-rule="evenodd" stroke="none"/>
      <path d="M22.0 -2.0 L22.5 -1.95 22.9 -1.7 23.0 -1.6 22.85 -1.5 16.45 8.2 1.8 14.6 1.35 14.65 0.75 14.6 0.45 14.35 Q0.35 14.1 0.5 14.1 L15.0 7.75 21.65 -1.9 22.0 -2.0" fill="url(#gradient33)" fill-rule="evenodd" stroke="none"/>
    </g>
    <linearGradient gradientTransform="matrix(0.0217, -0.0157, 0.0101, 0.0139, 7.25, 4.5)" gradientUnits="userSpaceOnUse" id="gradient0" spreadMethod="pad" x1="-819.2" x2="819.2">
      <stop offset="0.0" stop-color="#6a6a6a"/>
      <stop offset="1.0" stop-color="#1b1b1b"/>
    </linearGradient>
    <linearGradient gradientTransform="matrix(-0.0851, 0.0228, -0.0035, -0.013, -4.4, -10.75)" gradientUnits="userSpaceOnUse" id="gradient1" spreadMethod="pad" x1="-819.2" x2="819.2">
      <stop offset="0.0" stop-color="#6a6a6a"/>
      <stop offset="1.0" stop-color="#1b1b1b"/>
    </linearGradient>
    <linearGradient gradientTransform="matrix(0.0252, 0.0145, -0.0026, 0.0045, 3.15, -15.45)" gradientUnits="userSpaceOnUse" id="gradient2" spreadMethod="pad" x1="-819.2" x2="819.2">
      <stop offset="0.0" stop-color="#6a6a6a"/>
      <stop offset="1.0" stop-color="#1b1b1b"/>
    </linearGradient>
    <linearGradient gradientTransform="matrix(-0.0343, -0.0195, 0.0101, -0.0179, -0.6, -0.75)" gradientUnits="userSpaceOnUse" id="gradient3" spreadMethod="pad" x1="-819.2" x2="819.2">
      <stop offset="0.0" stop-color="#6a6a6a"/>
      <stop offset="1.0" stop-color="#1b1b1b"/>
    </linearGradient>
    <linearGradient gradientTransform="matrix(-0.0169, 0.0098, -0.002, -0.0035, -22.25, -14.75)" gradientUnits="userSpaceOnUse" id="gradient4" spreadMethod="pad" x1="-819.2" x2="819.2">
      <stop offset="0.0" stop-color="#6a6a6a"/>
      <stop offset="1.0" stop-color="#1b1b1b"/>
    </linearGradient>
    <linearGradient gradientTransform="matrix(0.0098, -0.0098, 0.0212, 0.0212, -11.75, 10.65)" gradientUnits="userSpaceOnUse" id="gradient5" spreadMethod="pad" x1="-819.2" x2="819.2">
      <stop offset="0.0" stop-color="#6a6a6a"/>
      <stop offset="1.0" stop-color="#1b1b1b"/>
    </linearGradient>
    <linearGradient gradientTransform="matrix(0.0, -0.0015, 0.0017, 0.0, 30.15, 9.6)" gradientUnits="userSpaceOnUse" id="gradient6" spreadMethod="pad" x1="-819.2" x2="819.2">
      <stop offset="0.0" stop-color="#6a6a6a"/>
      <stop offset="1.0" stop-color="#1b1b1b"/>
    </linearGradient>
    <linearGradient gradientTransform="matrix(0.0, -0.0014, 0.0021, 0.0, 14.5, 20.25)" gradientUnits="userSpaceOnUse" id="gradient7" spreadMethod="pad" x1="-819.2" x2="819.2">
      <stop offset="0.0" stop-color="#6a6a6a"/>
      <stop offset="1.0" stop-color="#1b1b1b"/>
    </linearGradient>
    <linearGradient gradientTransform="matrix(0.0304, -2.0E-4, -0.0013, 0.0223, -8.9, 1.15)" gradientUnits="userSpaceOnUse" id="gradient8" spreadMethod="pad" x1="-819.2" x2="819.2">
      <stop offset="0.3137254901960784" stop-color="#990000"/>
      <stop offset="0.803921568627451" stop-color="#990000" stop-opacity="0.1882353"/>
    </linearGradient>
    <linearGradient gradientTransform="matrix(5.0E-4, 0.0, 0.0, 4.0E-4, 7.85, -11.45)" gradientUnits="userSpaceOnUse" id="gradient9" spreadMethod="pad" x1="-819.2" x2="819.2">
      <stop offset="0.3137254901960784" stop-color="#990000"/>
      <stop offset="0.803921568627451" stop-color="#990000" stop-opacity="0.1882353"/>
    </linearGradient>
    <linearGradient gradientTransform="matrix(4.0E-4, 0.0, 0.0, 4.0E-4, 19.45, -8.55)" gradientUnits="userSpaceOnUse" id="gradient10" spreadMethod="pad" x1="-819.2" x2="819.2">
      <stop offset="0.3137254901960784" stop-color="#990000"/>
      <stop offset="0.803921568627451" stop-color="#990000" stop-opacity="0.1882353"/>
    </linearGradient>
    <linearGradient gradientTransform="matrix(0.0012, 0.0, 0.0, 0.001, 13.1, -0.15)" gradientUnits="userSpaceOnUse" id="gradient11" spreadMethod="pad" x1="-819.2" x2="819.2">
      <stop offset="0.3137254901960784" stop-color="#990000"/>
      <stop offset="0.803921568627451" stop-color="#990000" stop-opacity="0.1882353"/>
    </linearGradient>
    <linearGradient gradientTransform="matrix(9.0E-4, 0.0, 0.0, 7.0E-4, 16.65, -4.2)" gradientUnits="userSpaceOnUse" id="gradient12" spreadMethod="pad" x1="-819.2" x2="819.2">
      <stop offset="0.3137254901960784" stop-color="#990000"/>
      <stop offset="0.803921568627451" stop-color="#990000" stop-opacity="0.1882353"/>
    </linearGradient>
    <linearGradient gradientTransform="matrix(4.0E-4, 0.0, 0.0, 5.0E-4, 16.6, -1.4)" gradientUnits="userSpaceOnUse" id="gradient13" spreadMethod="pad" x1="-819.2" x2="819.2">
      <stop offset="0.3137254901960784" stop-color="#990000"/>
      <stop offset="0.803921568627451" stop-color="#990000" stop-opacity="0.1882353"/>
    </linearGradient>
    <linearGradient gradientTransform="matrix(5.0E-4, 0.0, 0.0, 4.0E-4, -1.35, -15.4)" gradientUnits="userSpaceOnUse" id="gradient14" spreadMethod="pad" x1="-819.2" x2="819.2">
      <stop offset="0.3137254901960784" stop-color="#990000"/>
      <stop offset="0.803921568627451" stop-color="#990000" stop-opacity="0.1882353"/>
    </linearGradient>
    <linearGradient gradientTransform="matrix(0.001, 0.0, 0.0, 0.001, 10.0, 0.7)" gradientUnits="userSpaceOnUse" id="gradient15" spreadMethod="pad" x1="-819.2" x2="819.2">
      <stop offset="0.3137254901960784" stop-color="#990000"/>
      <stop offset="0.803921568627451" stop-color="#990000" stop-opacity="0.1882353"/>
    </linearGradient>
    <linearGradient gradientTransform="matrix(9.0E-4, 0.0, 0.0, 8.0E-4, 11.95, 2.55)" gradientUnits="userSpaceOnUse" id="gradient16" spreadMethod="pad" x1="-819.2" x2="819.2">
      <stop offset="0.3137254901960784" stop-color="#990000"/>
      <stop offset="0.803921568627451" stop-color="#990000" stop-opacity="0.1882353"/>
    </linearGradient>
    <linearGradient gradientTransform="matrix(4.0E-4, 0.0, 0.0, 4.0E-4, 11.5, 4.4)" gradientUnits="userSpaceOnUse" id="gradient17" spreadMethod="pad" x1="-819.2" x2="819.2">
      <stop offset="0.3137254901960784" stop-color="#990000"/>
      <stop offset="0.803921568627451" stop-color="#990000" stop-opacity="0.1882353"/>
    </linearGradient>
    <linearGradient gradientTransform="matrix(9.0E-4, 0.0, 0.0, 7.0E-4, 13.8, 5.85)" gradientUnits="userSpaceOnUse" id="gradient18" spreadMethod="pad" x1="-819.2" x2="819.2">
      <stop offset="0.3137254901960784" stop-color="#990000"/>
      <stop offset="0.803921568627451" stop-color="#990000" stop-opacity="0.1882353"/>
    </linearGradient>
    <linearGradient gradientTransform="matrix(5.0E-4, 0.0, 0.0, 4.0E-4, 12.55, 8.8)" gradientUnits="userSpaceOnUse" id="gradient19" spreadMethod="pad" x1="-819.2" x2="819.2">
      <stop offset="0.3137254901960784" stop-color="#990000"/>
      <stop offset="0.803921568627451" stop-color="#990000" stop-opacity="0.1882353"/>
    </linearGradient>
    <linearGradient gradientTransform="matrix(9.0E-4, 0.0, 0.0, 7.0E-4, 10.95, 7.75)" gradientUnits="userSpaceOnUse" id="gradient20" spreadMethod="pad" x1="-819.2" x2="819.2">
      <stop offset="0.3137254901960784" stop-color="#990000"/>
      <stop offset="0.803921568627451" stop-color="#990000" stop-opacity="0.1882353"/>
    </linearGradient>
    <linearGradient gradientTransform="matrix(9.0E-4, 0.0, 0.0, 7.0E-4, 11.65, 11.25)" gradientUnits="userSpaceOnUse" id="gradient21" spreadMethod="pad" x1="-819.2" x2="819.2">
      <stop offset="0.3137254901960784" stop-color="#990000"/>
      <stop offset="0.803921568627451" stop-color="#990000" stop-opacity="0.1882353"/>
    </linearGradient>
    <linearGradient gradientTransform="matrix(5.0E-4, 0.0, 0.0, 5.0E-4, 18.35, 8.45)" gradientUnits="userSpaceOnUse" id="gradient22" spreadMethod="pad" x1="-819.2" x2="819.2">
      <stop offset="0.3137254901960784" stop-color="#990000"/>
      <stop offset="0.803921568627451" stop-color="#990000" stop-opacity="0.1882353"/>
    </linearGradient>
    <linearGradient gradientTransform="matrix(9.0E-4, 0.0, 0.0, 7.0E-4, 8.85, 1.9)" gradientUnits="userSpaceOnUse" id="gradient23" spreadMethod="pad" x1="-819.2" x2="819.2">
      <stop offset="0.3137254901960784" stop-color="#990000"/>
      <stop offset="0.803921568627451" stop-color="#990000" stop-opacity="0.1882353"/>
    </linearGradient>
    <linearGradient gradientTransform="matrix(9.0E-4, 0.0, 0.0, 7.0E-4, 6.75, 18.0)" gradientUnits="userSpaceOnUse" id="gradient24" spreadMethod="pad" x1="-819.2" x2="819.2">
      <stop offset="0.3137254901960784" stop-color="#990000"/>
      <stop offset="0.803921568627451" stop-color="#990000" stop-opacity="0.1882353"/>
    </linearGradient>
    <linearGradient gradientTransform="matrix(9.0E-4, 0.0, 0.0, 7.0E-4, 8.3, 16.55)" gradientUnits="userSpaceOnUse" id="gradient25" spreadMethod="pad" x1="-819.2" x2="819.2">
      <stop offset="0.3137254901960784" stop-color="#990000"/>
      <stop offset="0.803921568627451" stop-color="#990000" stop-opacity="0.1882353"/>
    </linearGradient>
    <linearGradient gradientTransform="matrix(0.0139, 0.0, 0.0, 0.0091, -4.95, -0.25)" gradientUnits="userSpaceOnUse" id="gradient26" spreadMethod="pad" x1="-819.2" x2="819.2">
      <stop offset="0.0" stop-color="#5b5b5b" stop-opacity="0.30980393"/>
      <stop offset="1.0" stop-color="#000000" stop-opacity="0.5764706"/>
    </linearGradient>
    <linearGradient gradientTransform="matrix(0.0142, 0.0, 0.0, 0.0094, -2.55, 0.85)" gradientUnits="userSpaceOnUse" id="gradient27" spreadMethod="pad" x1="-819.2" x2="819.2">
      <stop offset="0.0" stop-color="#5b5b5b" stop-opacity="0.30980393"/>
      <stop offset="1.0" stop-color="#000000" stop-opacity="0.5764706"/>
    </linearGradient>
    <linearGradient gradientTransform="matrix(0.0137, 0.0, 0.0, 0.0089, -7.4, -1.45)" gradientUnits="userSpaceOnUse" id="gradient28" spreadMethod="pad" x1="-819.2" x2="819.2">
      <stop offset="0.0" stop-color="#5b5b5b" stop-opacity="0.30980393"/>
      <stop offset="1.0" stop-color="#000000" stop-opacity="0.5764706"/>
    </linearGradient>
    <linearGradient gradientTransform="matrix(0.014, 0.0, 0.0, 0.0097, 3.05, 3.0)" gradientUnits="userSpaceOnUse" id="gradient29" spreadMethod="pad" x1="-819.2" x2="819.2">
      <stop offset="0.0" stop-color="#5b5b5b" stop-opacity="0.30980393"/>
      <stop offset="1.0" stop-color="#000000" stop-opacity="0.5764706"/>
    </linearGradient>
    <linearGradient gradientTransform="matrix(0.0141, 0.0, 0.0, 0.0095, 0.15, 1.9)" gradientUnits="userSpaceOnUse" id="gradient30" spreadMethod="pad" x1="-819.2" x2="819.2">
      <stop offset="0.0" stop-color="#5b5b5b" stop-opacity="0.30980393"/>
      <stop offset="1.0" stop-color="#000000" stop-opacity="0.5764706"/>
    </linearGradient>
    <linearGradient gradientTransform="matrix(0.0139, 0.0, 0.0, 0.0101, 8.7, 5.2)" gradientUnits="userSpaceOnUse" id="gradient31" spreadMethod="pad" x1="-819.2" x2="819.2">
      <stop offset="0.0" stop-color="#5b5b5b" stop-opacity="0.30980393"/>
      <stop offset="1.0" stop-color="#000000" stop-opacity="0.5764706"/>
    </linearGradient>
    <linearGradient gradientTransform="matrix(0.0139, 0.0, 0.0, 0.0099, 5.85, 4.05)" gradientUnits="userSpaceOnUse" id="gradient32" spreadMethod="pad" x1="-819.2" x2="819.2">
      <stop offset="0.0" stop-color="#5b5b5b" stop-opacity="0.30980393"/>
      <stop offset="1.0" stop-color="#000000" stop-opacity="0.5764706"/>
    </linearGradient>
    <linearGradient gradientTransform="matrix(0.0138, 0.0, 0.0, 0.0102, 11.65, 6.35)" gradientUnits="userSpaceOnUse" id="gradient33" spreadMethod="pad" x1="-819.2" x2="819.2">
      <stop offset="0.0" stop-color="#5b5b5b" stop-opacity="0.30980393"/>
      <stop offset="1.0" stop-color="#000000" stop-opacity="0.5764706"/>
    </linearGradient>
  </defs>
</svg>
