<?xml version="1.0" encoding="UTF-8" standalone="no"?>
<svg xmlns:xlink="http://www.w3.org/1999/xlink" height="27.3px" width="47.9px" xmlns="http://www.w3.org/2000/svg">
  <g transform="matrix(1.0, 0.0, 0.0, 1.0, 23.95, 13.65)">
    <use height="27.3" transform="matrix(1.0, 0.0, 0.0, 1.0, -23.95, -13.65)" width="47.9" xlink:href="#shape0"/>
  </g>
  <defs>
    <g id="shape0" transform="matrix(1.0, 0.0, 0.0, 1.0, 23.95, 13.65)">
      <path d="M19.7 -3.9 L13.1 -2.45 Q12.3 -9.0 6.8 -8.3 L3.9 -7.85 -1.1 -6.7 Q-2.8 -6.15 -4.0 -4.35 -5.3 -2.45 -6.0 0.75 L-9.3 0.65 Q-8.6 -1.8 -7.65 -3.7 -6.55 -5.85 -5.15 -7.25 L-9.55 -9.05 Q-12.05 -8.35 -14.0 -2.55 L-14.15 -2.15 -15.75 -1.7 Q-14.2 -7.45 -10.9 -9.75 -7.6 -12.05 -1.4 -13.3 6.35 -14.35 12.8 -12.1 16.8 -11.05 18.0 -10.0 L19.7 -3.9 M2.45 -10.15 Q7.0 -11.2 11.9 -11.45 L7.05 -12.85 Q-1.35 -13.65 -7.65 -10.75 L-6.95 -10.2 Q-5.6 -9.45 -2.65 -8.65 L2.45 -10.15 M21.6 6.55 Q21.35 1.35 16.95 0.8 L16.35 0.85 Q12.9 1.3 11.4 4.45 L10.85 5.9 10.45 7.9 10.4 8.35 10.3 9.3 3.0 10.15 2.8 9.15 2.75 8.85 Q2.35 4.15 -2.35 3.75 -4.65 3.7 -6.2 4.65 -8.55 5.95 -9.35 9.4 L-9.35 9.45 -9.65 11.5 -9.7 11.7 -9.75 12.85 Q-11.05 13.55 -12.45 13.65 -15.6 13.9 -19.65 11.2 L-22.25 11.7 Q-23.45 11.85 -23.9 11.2 -24.15 9.75 -22.1 9.5 L-23.2 8.55 Q-24.25 6.45 -21.2 5.7 -22.9 6.6 -21.9 8.0 L-16.95 10.9 -13.2 11.9 -12.45 12.05 -12.4 10.85 -12.35 10.55 Q-11.25 2.35 -3.95 1.7 3.5 1.05 4.1 8.0 L7.6 7.45 Q8.25 0.45 14.15 -1.45 17.95 -2.55 20.85 0.1 22.7 1.6 23.15 4.75 L23.95 4.75 23.95 6.7 21.6 7.25 21.6 6.55 M-9.15 2.95 Q-11.7 5.35 -12.3 7.85 L-12.45 8.55 -12.9 9.45 Q-12.05 5.6 -12.25 3.6 -12.55 3.35 -12.8 3.4 L-9.65 1.75 -9.15 2.95 M-14.65 4.1 L-16.85 10.3 -21.5 7.55 -19.35 1.7 Q-18.45 0.35 -17.3 0.05 L-16.9 0.0 -14.35 -0.55 Q-11.0 -0.8 -10.55 1.8 L-14.4 3.15 -14.65 4.1 M-15.1 3.45 L-15.1 2.45 Q-15.25 1.55 -16.05 1.15 L-17.1 1.0 -17.45 1.05 -17.75 1.2 -18.6 1.8 -19.05 2.35 -19.1 2.5 -19.4 3.35 -19.75 4.2 -20.1 5.2 -20.35 5.95 -20.65 6.7 -20.85 7.35 -17.25 9.5 -16.9 8.8 -16.6 8.0 -16.3 7.15 -15.9 6.0 -15.6 5.1 -15.3 4.3 -15.1 3.5 -15.1 3.45" fill="#ffcc00" fill-rule="evenodd" stroke="none"/>
      <path d="M-14.15 -2.15 L-14.0 -2.55 -7.65 -3.7 Q-8.6 -1.8 -9.3 0.65 L-14.15 -2.15 M-6.0 0.75 Q-5.3 -2.45 -4.0 -4.35 L4.4 -5.85 3.9 -7.85 6.8 -8.3 Q12.3 -9.0 13.1 -2.45 L-6.0 0.75 M-6.95 -10.2 L-7.65 -10.75 Q-1.35 -13.65 7.05 -12.85 L11.9 -11.45 Q7.0 -11.2 2.45 -10.15 0.1 -12.8 -6.95 -10.2 M21.35 6.6 L21.35 6.2 Q21.35 4.35 20.2 2.95 L19.65 2.35 Q18.25 1.05 16.35 0.85 L16.95 0.8 Q21.35 1.35 21.6 6.55 L21.35 6.6 M-9.65 11.5 L-9.35 9.45 -9.35 9.4 Q-8.55 5.95 -6.2 4.65 -4.65 3.7 -2.35 3.75 2.35 4.15 2.75 8.85 L-1.9 9.85 -1.8 9.2 Q-1.8 7.7 -3.2 7.7 -4.65 7.7 -4.65 9.15 L-4.4 9.9 -4.05 10.3 -9.65 11.5 M-15.1 3.45 L-15.1 3.5 -15.3 4.3 -19.1 2.5 -19.05 2.35 -18.6 1.8 -15.1 3.45 M-15.6 5.1 L-15.9 6.0 -19.75 4.2 -19.4 3.35 -15.6 5.1 M-16.3 7.15 L-16.6 8.0 -20.35 5.95 -20.1 5.2 -16.3 7.15 M-16.9 8.8 L-17.25 9.5 -20.85 7.35 -20.65 6.7 -16.9 8.8 M-17.75 1.2 L-17.45 1.05 -17.1 1.0 -16.05 1.15 Q-15.25 1.55 -15.1 2.45 L-17.75 1.2" fill="#a08001" fill-rule="evenodd" stroke="none"/>
      <path d="M13.1 -2.45 L19.7 -3.9 Q20.75 -3.6 20.85 0.1 17.95 -2.55 14.15 -1.45 8.25 0.45 7.6 7.45 L4.1 8.0 Q3.5 1.05 -3.95 1.7 -11.25 2.35 -12.35 10.55 L-12.4 10.85 -12.45 12.05 -13.2 11.9 -16.95 10.9 -21.9 8.0 Q-22.9 6.6 -21.2 5.7 L-19.65 0.4 Q-18.5 -1.25 -15.75 -1.7 L-14.15 -2.15 -9.3 0.65 -6.0 0.75 13.1 -2.45 M-9.15 2.95 L-9.65 1.75 -12.8 3.4 Q-12.55 3.35 -12.25 3.6 -12.05 5.6 -12.9 9.45 L-12.45 8.55 -12.3 7.85 Q-11.7 5.35 -9.15 2.95 M-14.65 4.1 L-14.4 3.15 -10.55 1.8 Q-11.0 -0.8 -14.35 -0.55 L-16.9 0.0 -17.3 0.05 Q-18.45 0.35 -19.35 1.7 L-21.5 7.55 -16.85 10.3 -14.65 4.1 M-15.1 2.45 L-15.1 3.45 -18.6 1.8 -17.75 1.2 -15.1 2.45 M-15.3 4.3 L-15.6 5.1 -19.4 3.35 -19.1 2.5 -15.3 4.3 M-15.9 6.0 L-16.3 7.15 -20.1 5.2 -19.75 4.2 -15.9 6.0 M-16.6 8.0 L-16.9 8.8 -20.65 6.7 -20.35 5.95 -16.6 8.0" fill="#e3b602" fill-rule="evenodd" stroke="none"/>
      <path d="M20.2 2.95 Q21.35 4.35 21.35 6.2 L21.35 6.6 Q21.2 8.55 19.65 10.0 18.0 11.6 15.65 11.6 13.5 11.55 11.9 10.25 11.0 9.2 10.85 7.85 L10.75 7.0 10.85 5.9 11.4 4.45 Q11.8 3.75 12.4 3.2 14.1 1.6 16.45 1.65 18.6 1.65 20.2 2.95 M20.35 6.95 L20.35 6.7 Q20.5 5.5 19.75 4.6 18.95 3.6 17.55 3.6 16.2 3.6 15.05 4.6 13.85 5.55 13.65 6.95 L13.55 7.55 Q13.55 8.55 14.2 9.3 15.0 10.3 16.4 10.3 17.8 10.3 18.95 9.3 20.1 8.35 20.35 6.95 M-1.9 9.85 Q-2.15 10.6 -3.2 10.6 L-4.05 10.3 -4.4 9.9 -4.65 9.15 Q-4.65 7.7 -3.2 7.7 -1.8 7.7 -1.8 9.2 L-1.9 9.85" fill="#333333" fill-rule="evenodd" stroke="none"/>
      <path d="M20.35 6.95 Q20.1 8.35 18.95 9.3 17.8 10.3 16.4 10.3 15.0 10.3 14.2 9.3 13.55 8.55 13.55 7.55 L13.65 6.95 Q13.85 5.55 15.05 4.6 16.2 3.6 17.55 3.6 18.95 3.6 19.75 4.6 20.5 5.5 20.35 6.7 L20.35 6.95 M17.5 4.3 Q16.35 4.3 15.45 5.1 14.5 5.85 14.3 7.0 L14.3 7.45 Q14.25 8.25 14.75 8.9 15.4 9.65 16.55 9.65 17.65 9.65 18.55 8.9 19.5 8.1 19.7 7.0 L19.7 6.8 Q19.8 5.8 19.25 5.1 18.6 4.3 17.5 4.3 M17.35 5.1 Q18.15 5.1 18.6 5.65 19.05 6.15 18.95 6.9 L18.95 6.95 Q18.8 7.75 18.15 8.3 17.5 8.85 16.7 8.85 15.9 8.85 15.45 8.3 15.1 7.85 15.15 7.35 L15.15 6.95 Q15.3 6.2 15.95 5.65 16.6 5.1 17.35 5.1" fill="#f0ece3" fill-rule="evenodd" stroke="none"/>
      <path d="M16.35 0.85 Q18.25 1.05 19.65 2.35 L20.2 2.95 Q18.6 1.65 16.45 1.65 14.1 1.6 12.4 3.2 11.8 3.75 11.4 4.45 12.9 1.3 16.35 0.85 M10.85 5.9 L10.75 7.0 10.85 7.85 Q11.0 9.2 11.9 10.25 L11.6 10.0 10.4 8.35 10.45 7.9 10.85 5.9" fill="#1e1e1e" fill-rule="evenodd" stroke="none"/>
      <path d="M17.5 4.3 Q18.6 4.3 19.25 5.1 19.8 5.8 19.7 6.8 L19.7 7.0 Q19.5 8.1 18.55 8.9 17.65 9.65 16.55 9.65 15.4 9.65 14.75 8.9 14.25 8.25 14.3 7.45 L14.3 7.0 Q14.5 5.85 15.45 5.1 16.35 4.3 17.5 4.3 M17.35 5.1 Q16.6 5.1 15.95 5.65 15.3 6.2 15.15 6.95 L15.15 7.35 Q15.1 7.85 15.45 8.3 15.9 8.85 16.7 8.85 17.5 8.85 18.15 8.3 18.8 7.75 18.95 6.95 L18.95 6.9 Q19.05 6.15 18.6 5.65 18.15 5.1 17.35 5.1" fill="#7e7b70" fill-rule="evenodd" stroke="none"/>
      <path d="M4.9 8.7 Q4.55 8.25 4.7 7.8 4.8 7.3 5.3 7.1 L6.4 7.05 7.35 7.65 Q7.65 8.1 7.55 8.55 L6.9 9.25 5.8 9.3 4.9 8.7 M8.15 3.6 L8.15 4.75 4.1 6.35 3.8 6.45 Q2.85 6.75 2.7 5.6 L2.65 5.2 8.15 3.6 M12.3 -2.15 L10.8 -1.45 16.7 -2.65 16.7 -1.8 Q13.7 -2.35 9.85 0.35 L8.2 1.65 8.0 1.85 1.45 4.2 2.6 3.75 Q1.4 1.65 -1.45 1.7 L12.3 -2.15 M12.95 -7.05 L12.95 -7.75 17.4 -5.9 18.35 -6.35 19.25 -3.85 12.95 -7.05 M18.35 -7.45 L18.35 -6.35 11.4 -9.85 11.5 -10.45 18.35 -7.45 M-6.0 3.25 L-8.3 3.9 -8.95 3.25 Q-8.95 2.75 -6.95 2.15 L-4.95 1.65 Q-4.4 1.65 -4.3 2.3 -4.3 2.55 -6.0 3.25" fill="#432801" fill-opacity="0.34901962" fill-rule="evenodd" stroke="none"/>
    </g>
  </defs>
</svg>
