<?xml version="1.0" encoding="UTF-8" standalone="no"?>
<svg xmlns:xlink="http://www.w3.org/1999/xlink" height="70.85px" width="36.0px" xmlns="http://www.w3.org/2000/svg">
  <g transform="matrix(1.0, 0.0, 0.0, 1.0, 18.0, 35.4)">
    <use height="70.85" transform="matrix(1.0, 0.0, 0.0, 1.0, -18.0, -35.4)" width="36.0" xlink:href="#shape0"/>
  </g>
  <defs>
    <g id="shape0" transform="matrix(1.0, 0.0, 0.0, 1.0, 18.0, 35.4)">
      <path d="M6.75 -10.65 L3.0 -9.55 0.4 -14.4 2.3 -9.35 -7.45 -6.5 -9.7 -13.55 -8.5 -6.2 -13.0 -4.9 Q-12.85 -9.0 -14.2 -14.65 -16.1 -22.4 -16.1 -26.35 -14.15 -38.4 -4.3 -30.75 -3.15 -28.65 -1.15 -23.95 0.85 -19.3 2.8 -16.7 L6.75 -10.65" fill="url(#gradient0)" fill-rule="evenodd" stroke="none"/>
      <path d="M3.75 -5.95 Q6.6 0.45 8.05 8.5 L8.35 9.2 Q8.75 10.7 8.75 11.9 L9.1 13.1 10.2 16.4 10.55 17.4 11.2 19.15 11.65 20.25 12.05 21.2 12.45 22.2 12.75 23.0 12.8 23.05 14.1 25.1 16.1 26.9 16.7 26.95 17.3 26.8 Q17.9 26.7 18.0 27.3 16.5 28.1 15.35 28.3 14.15 27.45 13.3 27.2 L11.05 26.3 Q10.8 25.45 11.25 24.9 L11.3 24.8 11.3 24.6 11.2 24.15 11.1 23.9 11.1 23.85 11.05 23.75 10.7 22.9 10.65 22.65 8.1 18.1 8.05 18.05 7.65 17.3 Q6.7 15.6 6.3 14.15 5.85 12.65 5.9 11.45 L5.7 10.45 Q1.35 -0.4 0.7 -3.4 L3.75 -5.95" fill="#9c6f52" fill-rule="evenodd" stroke="none"/>
      <path d="M-4.35 -5.05 L-0.55 -2.05 Q0.2 4.6 0.45 11.3 L0.5 12.2 0.6 13.8 0.35 15.1 0.6 28.3 0.55 28.3 0.6 28.35 0.6 28.55 0.6 28.65 0.7 29.3 0.85 29.45 1.0 30.2 1.2 30.65 1.2 30.75 1.95 32.7 2.4 34.15 1.8 35.35 Q1.45 35.7 0.2 35.05 -0.15 34.9 -0.15 33.75 L-0.3 33.25 -0.75 30.85 -0.75 30.75 -0.9 30.15 -0.8 29.3 -2.2 21.15 Q-2.8 17.2 -2.55 15.15 L-2.35 13.25 Q-2.5 9.7 -3.15 6.85 -4.85 1.3 -5.55 -3.35 -5.7 -5.9 -4.35 -5.05" fill="#9c6f52" fill-rule="evenodd" stroke="none"/>
      <path d="M8.25 -8.4 Q7.35 -7.55 6.2 -8.4 5.05 -9.3 4.25 -10.8 L2.9 -12.9 2.45 -13.5 2.2 -13.6 2.05 -13.8 1.6 -14.15 -0.6 -15.95 -2.65 -17.2 -3.7 -17.75 -4.25 -17.75 -5.1 -20.7 -3.45 -21.0 -3.35 -20.9 -2.55 -20.4 -0.05 -18.15 0.2 -17.85 3.2 -14.65 3.45 -14.35 4.15 -13.95 6.9 -12.55 Q9.1 -11.55 9.15 -10.7 L9.0 -9.65 8.8 -9.35 8.25 -8.4" fill="#3399cc" fill-rule="evenodd" stroke="none"/>
      <path d="M8.8 -9.35 L9.6 -8.5 9.75 -8.4 10.15 -8.25 13.55 -7.25 Q13.45 -7.1 13.1 -7.1 L12.75 -7.1 13.45 -6.8 Q13.65 -6.65 13.3 -6.65 L12.8 -6.7 12.3 -6.65 11.75 -6.95 11.25 -6.9 10.5 -7.0 Q10.15 -7.05 9.85 -7.2 L9.2 -7.7 8.95 -7.9 8.25 -8.4 8.8 -9.35" fill="#9c6f52" fill-rule="evenodd" stroke="none"/>
      <path d="M3.8 -7.0 L5.55 -4.0 13.9 23.45 -1.65 29.35 -6.15 -3.5 -6.1 -4.1 Q1.35 -4.7 3.8 -7.0" fill="#3399cc" fill-rule="evenodd" stroke="none"/>
      <path d="M-5.55 -9.15 Q-0.05 -9.05 1.05 -11.2 L2.25 -9.4 3.8 -7.0 Q1.35 -4.7 -6.1 -4.1 L-5.55 -8.95 -5.55 -9.15" fill="#257596" fill-rule="evenodd" stroke="none"/>
      <path d="M-5.55 -9.15 Q-5.4 -10.7 -6.1 -12.3 L0.35 -12.25 1.05 -11.2 Q-0.05 -9.05 -5.55 -9.15" fill="#63b6d8" fill-rule="evenodd" stroke="none"/>
      <path d="M-4.5 -20.95 L-4.1 -21.0 -3.45 -20.2 -3.1 -19.85 -2.85 -19.7 -0.6 -18.5 0.6 -17.5 Q0.85 -16.9 0.75 -16.1 0.65 -15.3 0.0 -14.8 0.2 -12.9 0.95 -11.2 L-5.2 -9.9 -5.5 -11.4 Q-10.15 -15.65 -10.8 -18.1 L-9.1 -19.3 Q-7.3 -17.4 -5.45 -17.15 -1.85 -16.45 -4.5 -20.95" fill="#63b6d8" fill-rule="evenodd" stroke="none"/>
      <path d="M-4.5 -20.95 Q-1.85 -16.45 -5.45 -17.15 -7.3 -17.4 -9.1 -19.3 L-7.8 -20.1 -4.5 -20.95" fill="#9c6f52" fill-rule="evenodd" stroke="none"/>
      <path d="M-5.25 -12.3 Q-6.3 -12.55 -6.6 -13.5 L-6.75 -14.1 Q-6.25 -13.0 -5.05 -12.65 L-4.6 -12.65 Q-3.7 -12.8 -3.15 -13.55 L-3.5 -12.85 Q-4.15 -12.0 -5.25 -12.3" fill="#2b84aa" fill-rule="evenodd" stroke="none"/>
      <path d="M-7.8 -19.9 L-8.75 -23.95 -7.05 -24.15 -5.05 -20.2 -7.8 -19.9" fill="#9c6f52" fill-rule="evenodd" stroke="none"/>
      <path d="M-14.6 -0.5 L-14.95 -0.55 Q-16.0 -0.9 -15.25 -2.7 L-13.9 -5.95 -13.15 -7.8 -12.75 -8.6 -12.7 -8.9 -11.95 -13.55 -11.9 -13.95 Q-11.4 -16.65 -10.8 -18.05 L-10.75 -18.1 Q-9.4 -18.6 -8.5 -15.75 L-10.1 -12.35 -11.0 -9.45 -11.2 -8.8 -11.35 -8.4 -11.4 -7.6 -11.6 -5.55 -11.75 -2.05 Q-11.8 -0.1 -13.1 -0.2 L-13.55 -0.3 -14.6 -0.5" fill="#3399cc" fill-rule="evenodd" stroke="none"/>
      <path d="M-14.6 -0.5 L-13.55 -0.3 -13.8 0.35 -14.0 0.95 Q-14.05 1.45 -14.25 1.8 L-14.85 2.35 -15.55 2.8 -16.05 3.05 -16.45 3.65 Q-16.7 4.0 -16.95 3.85 L-17.4 4.15 Q-17.8 4.4 -17.65 4.15 L-17.1 3.45 -17.45 3.65 -18.0 3.7 -15.15 0.9 -14.85 0.6 -14.8 0.6 -14.75 0.25 -14.6 -0.5" fill="#9c6f52" fill-rule="evenodd" stroke="none"/>
      <path d="M-7.25 -29.0 L-7.05 -29.05 -5.45 -29.4 Q-4.85 -28.9 -5.0 -28.05 -5.65 -27.65 -6.45 -27.35 L-6.5 -27.3 -6.7 -27.25 -6.9 -27.2 -6.9 -27.15 -6.95 -27.15 -9.35 -26.55 Q-10.45 -26.35 -10.55 -26.85 -10.65 -27.35 -9.6 -27.95 L-7.55 -28.95 -7.45 -28.95 -7.25 -29.0" fill="#ffffff" fill-rule="evenodd" stroke="none"/>
      <path d="M-9.15 -27.9 L-8.7 -27.9 -8.35 -27.55 Q-8.3 -27.35 -8.4 -27.15 -8.5 -26.95 -8.75 -26.85 L-9.2 -26.85 -9.5 -27.15 -9.5 -27.6 -9.15 -27.9 M-5.65 -28.9 L-5.4 -28.6 -5.4 -28.2 -5.75 -27.9 -6.15 -27.9 -6.4 -28.2 -6.4 -28.6 -6.1 -28.9 -5.65 -28.9" fill="#000000" fill-rule="evenodd" stroke="none"/>
      <path d="M-10.35 -31.25 Q-8.95 -32.5 -8.1 -32.55 -7.3 -32.55 -6.55 -31.55 L-5.4 -29.85 -5.05 -29.05 -5.0 -28.75 -5.0 -28.65 -4.95 -28.35 Q-4.4 -26.65 -4.45 -25.5 L-4.75 -23.65 Q-5.05 -22.9 -5.5 -22.85 L-6.45 -22.8 -7.95 -23.0 Q-9.4 -23.4 -10.5 -24.25 -11.7 -25.2 -11.8 -26.6 L-12.0 -28.95 Q-11.5 -30.3 -10.35 -31.25 M-9.35 -27.65 L-10.3 -26.85 Q-8.65 -26.6 -7.75 -27.3 -8.4 -28.1 -9.35 -27.65 M-6.55 -27.7 Q-5.55 -27.75 -5.05 -28.7 -6.15 -29.05 -6.35 -28.5 L-6.55 -27.7" fill="#9c6f52" fill-rule="evenodd" stroke="none"/>
      <path d="M-9.35 -27.65 L-10.3 -26.85 Q-8.65 -26.6 -7.75 -27.3 -8.4 -28.1 -9.35 -27.65 M-6.55 -27.7 Q-5.55 -27.75 -5.05 -28.7 -6.15 -29.05 -6.35 -28.5 L-6.55 -27.7" fill="none" stroke="#333333" stroke-linecap="round" stroke-linejoin="round" stroke-width="0.25"/>
      <path d="M-7.2 -24.9 L-6.45 -25.4 Q-6.2 -25.55 -6.0 -25.3 L-5.55 -25.65 -5.4 -25.6 -5.3 -25.55 -5.2 -25.5 -5.2 -25.4 -5.25 -25.4 -5.25 -24.9 Q-5.3 -24.5 -5.8 -24.3 -6.3 -24.1 -6.8 -24.3 L-7.45 -24.6 -7.5 -24.6 -7.25 -24.85 -7.2 -24.9" fill="#600606" fill-rule="evenodd" stroke="none"/>
      <path d="M-5.35 -29.8 L-5.55 -29.75 Q-6.15 -29.7 -6.8 -28.75 L-6.9 -29.1 -5.9 -29.85 -5.4 -29.9 -5.35 -29.8 M-9.8 -28.15 L-10.55 -27.5 -9.6 -28.45 -8.35 -28.55 -8.2 -28.25 -9.8 -28.15" fill="#000000" fill-rule="evenodd" stroke="none"/>
      <path d="M-6.05 -26.6 L-6.8 -27.45 -5.9 -26.65 -6.05 -26.0 -6.9 -26.0 -6.05 -26.6" fill="#664422" fill-rule="evenodd" stroke="none"/>
      <path d="M-9.5 -30.75 Q-8.9 -19.65 0.35 -13.4 -0.25 -13.55 -4.8 -15.6 -9.35 -17.7 -13.2 -26.7 -12.3 -29.25 -9.5 -30.75" fill="url(#gradient1)" fill-rule="evenodd" stroke="none"/>
      <path d="M-4.65 -19.95 Q-11.6 -22.65 -11.9 -27.1 L-10.9 -28.95 Q-10.95 -23.45 -4.65 -19.95" fill="url(#gradient2)" fill-rule="evenodd" stroke="none"/>
      <path d="M-13.15 -7.75 Q-12.15 -13.3 -13.5 -24.65 L-12.35 -28.3 -11.1 -16.9 Q-11.05 -9.65 -13.15 -7.75" fill="url(#gradient3)" fill-rule="evenodd" stroke="none"/>
      <path d="M-15.6 -31.25 Q-14.6 -33.95 -12.0 -35.0 -9.05 -36.2 -6.7 -33.9 L-6.35 -33.5 -13.3 -28.65 Q-13.25 -25.95 -13.65 -23.2 -14.3 -18.8 -17.45 -16.1 -16.3 -17.8 -15.8 -19.75 -15.05 -22.75 -15.85 -25.75 -16.6 -28.55 -15.6 -31.25" fill="url(#gradient4)" fill-rule="evenodd" stroke="none"/>
      <path d="M-14.35 -25.2 Q-9.85 -19.25 -15.65 -12.9 -15.45 -13.3 -14.95 -15.5 -14.25 -18.65 -14.25 -21.05 L-14.35 -25.2" fill="url(#gradient5)" fill-rule="evenodd" stroke="none"/>
      <path d="M-9.6 -34.25 Q-7.35 -34.4 -7.25 -32.8 -7.15 -31.2 -10.1 -26.85 -13.05 -22.55 -12.3 -19.75 L-12.25 -19.55 -12.2 -19.3 -12.6 -19.8 Q-14.65 -22.4 -15.0 -25.0 L-15.05 -28.35 Q-14.75 -30.75 -13.75 -32.4 -12.8 -34.1 -11.05 -34.5 L-9.7 -34.25 -9.6 -34.25" fill="url(#gradient6)" fill-rule="evenodd" stroke="none"/>
      <path d="M-11.35 -26.95 Q-6.2 -14.0 2.9 -11.7 -2.55 -12.15 -5.8 -14.55 -9.1 -17.0 -11.35 -26.95" fill="url(#gradient7)" fill-rule="evenodd" stroke="none"/>
      <path d="M-15.75 -22.75 Q-12.7 -25.8 -10.9 -32.0 L-9.15 -33.2 -7.9 -33.85 -7.75 -32.4 Q-8.45 -32.25 -10.4 -28.2 -12.65 -23.75 -15.75 -22.75" fill="url(#gradient8)" fill-rule="evenodd" stroke="none"/>
      <path d="M-4.65 -30.25 L-7.35 -31.95 -8.1 -33.95 -7.7 -34.1 Q-7.35 -34.25 -6.05 -33.3 -4.8 -32.35 -4.5 -31.45 -4.2 -30.55 -4.2 -29.35 L-4.65 -30.25" fill="url(#gradient9)" fill-rule="evenodd" stroke="none"/>
    </g>
    <linearGradient gradientTransform="matrix(-0.0019, 0.0144, 0.0074, 7.0E-4, -4.25, -15.15)" gradientUnits="userSpaceOnUse" id="gradient0" spreadMethod="pad" x1="-819.2" x2="819.2">
      <stop offset="0.0" stop-color="#000000"/>
      <stop offset="1.0" stop-color="#482926"/>
    </linearGradient>
    <linearGradient gradientTransform="matrix(-0.0021, 0.0011, -0.0069, -0.0101, -6.7, -20.95)" gradientUnits="userSpaceOnUse" id="gradient1" spreadMethod="pad" x1="-819.2" x2="819.2">
      <stop offset="0.0" stop-color="#000000"/>
      <stop offset="1.0" stop-color="#482926"/>
    </linearGradient>
    <linearGradient gradientTransform="matrix(-0.0044, -0.0051, 0.0016, -0.001, -8.6, -23.95)" gradientUnits="userSpaceOnUse" id="gradient2" spreadMethod="pad" x1="-819.2" x2="819.2">
      <stop offset="0.0" stop-color="#000000"/>
      <stop offset="1.0" stop-color="#482926"/>
    </linearGradient>
    <linearGradient gradientTransform="matrix(-0.0024, -0.0014, -0.0017, 0.0033, -11.55, -19.15)" gradientUnits="userSpaceOnUse" id="gradient3" spreadMethod="pad" x1="-819.2" x2="819.2">
      <stop offset="0.0" stop-color="#000000"/>
      <stop offset="1.0" stop-color="#482926"/>
    </linearGradient>
    <linearGradient gradientTransform="matrix(0.0054, -0.0035, 0.0016, 0.0032, -14.2, -27.7)" gradientUnits="userSpaceOnUse" id="gradient4" spreadMethod="pad" x1="-819.2" x2="819.2">
      <stop offset="0.0" stop-color="#000000"/>
      <stop offset="1.0" stop-color="#482926"/>
    </linearGradient>
    <linearGradient gradientTransform="matrix(-0.0028, -0.0058, 0.0037, -0.0018, -14.9, -19.15)" gradientUnits="userSpaceOnUse" id="gradient5" spreadMethod="pad" x1="-819.2" x2="819.2">
      <stop offset="0.0" stop-color="#000000"/>
      <stop offset="1.0" stop-color="#482926"/>
    </linearGradient>
    <linearGradient gradientTransform="matrix(0.0054, -0.0035, 0.0016, 0.0032, -12.55, -27.45)" gradientUnits="userSpaceOnUse" id="gradient6" spreadMethod="pad" x1="-819.2" x2="819.2">
      <stop offset="0.0" stop-color="#000000"/>
      <stop offset="1.0" stop-color="#482926"/>
    </linearGradient>
    <linearGradient gradientTransform="matrix(-0.006, -0.0078, 0.0039, -0.003, -2.55, -17.9)" gradientUnits="userSpaceOnUse" id="gradient7" spreadMethod="pad" x1="-819.2" x2="819.2">
      <stop offset="0.0" stop-color="#000000"/>
      <stop offset="1.0" stop-color="#482926"/>
    </linearGradient>
    <linearGradient gradientTransform="matrix(0.0034, -6.0E-4, -7.0E-4, -0.0037, -9.5, -30.9)" gradientUnits="userSpaceOnUse" id="gradient8" spreadMethod="pad" x1="-819.2" x2="819.2">
      <stop offset="0.0" stop-color="#000000"/>
      <stop offset="1.0" stop-color="#482926"/>
    </linearGradient>
    <linearGradient gradientTransform="matrix(-9.0E-4, -0.0025, -0.0015, 6.0E-4, -5.8, -31.6)" gradientUnits="userSpaceOnUse" id="gradient9" spreadMethod="pad" x1="-819.2" x2="819.2">
      <stop offset="0.0" stop-color="#000000"/>
      <stop offset="1.0" stop-color="#482926"/>
    </linearGradient>
  </defs>
</svg>
