<?xml version="1.0" encoding="UTF-8" standalone="no"?>
<svg xmlns:xlink="http://www.w3.org/1999/xlink" height="65.45px" width="36.9px" xmlns="http://www.w3.org/2000/svg">
  <g transform="matrix(1.0, 0.0, 0.0, 1.0, 18.45, 32.7)">
    <use height="65.45" transform="matrix(1.0, 0.0, 0.0, 1.0, -18.45, -32.7)" width="36.9" xlink:href="#shape0"/>
  </g>
  <defs>
    <g id="shape0" transform="matrix(1.0, 0.0, 0.0, 1.0, 18.45, 32.7)">
      <path d="M15.9 -18.5 L16.15 -19.0 16.7 -19.2 Q17.0 -19.25 17.15 -18.95 L17.35 -18.45 17.15 -12.95 Q17.05 -10.1 14.85 -9.5 L14.9 -9.55 5.8 -5.4 Q3.95 -4.45 3.9 -1.65 L4.15 21.4 3.95 21.85 Q3.8 22.05 3.45 22.1 3.15 22.1 2.95 21.9 L2.7 21.35 2.5 -1.65 Q2.45 -5.45 5.25 -6.65 L14.3 -10.8 14.4 -10.85 Q15.6 -11.3 15.7 -13.0 L15.9 -18.5" fill="url(#gradient0)" fill-rule="evenodd" stroke="none"/>
      <path d="M0.45 9.3 L0.55 5.45 Q3.35 4.15 6.25 5.7 L6.1 9.0 Q4.85 11.85 6.15 15.1 L6.2 32.1 Q3.1 33.55 0.1 31.85 L0.35 14.85 Q1.75 12.35 0.45 9.3 M3.55 14.35 Q3.4 17.6 3.6 23.05 L3.7 30.05 Q3.7 30.95 4.1 30.95 4.7 30.95 4.8 28.65 L4.8 23.3 4.8 18.1 Q4.7 13.8 4.15 13.75 L3.55 14.35 M4.3 7.1 Q3.75 7.1 3.65 8.45 3.6 9.8 4.15 9.8 L4.45 9.75 Q4.8 9.55 4.8 8.5 4.9 7.15 4.3 7.1" fill="#331e00" fill-rule="evenodd" stroke="none"/>
      <path d="M4.3 7.1 Q4.9 7.15 4.8 8.5 4.8 9.55 4.45 9.75 L4.15 9.8 Q3.6 9.8 3.65 8.45 3.75 7.1 4.3 7.1 M3.55 14.35 L4.15 13.75 Q4.7 13.8 4.8 18.1 L4.8 23.3 4.8 28.65 Q4.7 30.95 4.1 30.95 3.7 30.95 3.7 30.05 L3.6 23.05 Q3.4 17.6 3.55 14.35" fill="#4b2e01" fill-rule="evenodd" stroke="none"/>
      <path d="M-12.65 -32.6 L16.35 -25.95 Q17.3 -25.4 17.9 -24.3 18.75 -22.5 18.3 -20.25 17.9 -18.35 16.75 -17.1 L16.25 -16.6 Q14.75 -15.3 13.1 -15.4 L-15.1 -20.3 Q-13.4 -20.05 -11.9 -21.6 -10.4 -23.2 -9.85 -25.75 -9.4 -28.4 -10.35 -30.4 -11.2 -32.15 -12.65 -32.6" fill="url(#gradient1)" fill-rule="evenodd" stroke="none"/>
      <path d="M-15.1 -20.3 L-15.15 -20.35 -15.4 -20.35 Q-17.0 -20.8 -17.85 -22.7 -18.8 -24.7 -18.3 -27.25 -17.85 -29.85 -16.3 -31.4 -14.75 -33.0 -13.0 -32.65 L-12.65 -32.6 Q-11.2 -32.15 -10.35 -30.4 -9.4 -28.4 -9.85 -25.75 -10.4 -23.2 -11.9 -21.6 -13.4 -20.05 -15.1 -20.3 M-15.85 -30.4 Q-17.1 -29.1 -17.45 -27.05 -17.85 -25.05 -17.1 -23.35 -16.35 -21.8 -14.95 -21.55 -13.55 -21.35 -12.3 -22.6 -11.15 -23.85 -10.75 -25.9 -10.4 -27.95 -11.05 -29.5 -11.8 -31.15 -13.25 -31.4 -14.6 -31.7 -15.85 -30.4" fill="#a2c4c4" fill-rule="evenodd" stroke="none"/>
      <path d="M-15.85 -30.4 Q-14.6 -31.7 -13.25 -31.4 -11.8 -31.15 -11.05 -29.5 -10.4 -27.95 -10.75 -25.9 -11.15 -23.85 -12.3 -22.6 -13.55 -21.35 -14.95 -21.55 -16.35 -21.8 -17.1 -23.35 -17.85 -25.05 -17.45 -27.05 -17.1 -29.1 -15.85 -30.4 M-15.55 -29.65 Q-16.55 -28.6 -16.8 -26.9 -17.1 -25.3 -16.55 -24.0 -15.95 -22.75 -14.85 -22.5 -13.7 -22.35 -12.7 -23.35 -11.75 -24.4 -11.4 -26.0 -11.15 -27.65 -11.7 -28.9 -12.3 -30.2 -13.4 -30.45 -14.55 -30.65 -15.55 -29.65" fill="#385858" fill-rule="evenodd" stroke="none"/>
      <path d="M-15.55 -29.65 Q-14.55 -30.65 -13.4 -30.45 -12.3 -30.2 -11.7 -28.9 -11.15 -27.65 -11.4 -26.0 -11.75 -24.4 -12.7 -23.35 -13.7 -22.35 -14.85 -22.5 -15.95 -22.75 -16.55 -24.0 -17.1 -25.3 -16.8 -26.9 -16.55 -28.6 -15.55 -29.65" fill="#d0e1e0" fill-rule="evenodd" stroke="none"/>
      <path d="M9.35 -25.95 Q9.7 -26.3 10.15 -26.3 L10.65 -26.05 Q11.75 -25.05 13.0 -24.9 L13.0 -25.15 Q12.7 -26.1 13.1 -26.6 L13.35 -26.55 13.6 -26.15 Q14.05 -24.9 15.0 -23.65 15.7 -22.7 16.7 -22.9 16.6 -24.55 16.05 -26.0 L16.35 -25.95 Q17.3 -25.4 17.9 -24.3 18.75 -22.5 18.3 -20.25 17.9 -18.35 16.75 -17.1 L16.25 -16.6 Q14.75 -15.3 13.1 -15.4 L5.85 -16.7 5.7 -18.0 Q5.65 -18.35 5.1 -18.25 L4.85 -18.25 4.55 -20.2 2.35 -19.15 Q1.55 -18.75 1.4 -17.45 L-2.8 -18.2 -3.05 -18.55 -2.6 -18.6 -2.35 -18.9 -2.25 -19.85 Q-2.3 -20.8 -2.75 -21.4 L-3.05 -21.55 Q-3.85 -21.4 -3.6 -22.1 L-3.6 -23.05 -4.25 -22.6 Q-4.9 -21.6 -5.9 -20.75 L-6.5 -20.4 -9.95 -19.95 -9.85 -20.4 Q-9.95 -21.2 -9.4 -21.6 -8.55 -22.45 -8.05 -23.5 -7.2 -25.35 -7.65 -27.65 L-7.9 -28.9 -8.0 -29.3 Q-8.5 -30.4 -9.6 -31.1 L-10.95 -32.2 -3.45 -30.5 -3.4 -30.45 -2.8 -29.9 Q-1.45 -28.55 0.55 -28.15 L1.1 -28.1 3.4 -28.35 5.4 -28.4 6.3 -27.2 Q6.75 -26.15 7.55 -25.4 L8.0 -25.3 Q8.55 -25.4 9.1 -25.75 L9.35 -25.95" fill="#f2f2f2" fill-opacity="0.6431373" fill-rule="evenodd" stroke="none"/>
    </g>
    <linearGradient gradientTransform="matrix(-0.007, 0.0181, -0.0081, -0.0031, 12.45, -3.4)" gradientUnits="userSpaceOnUse" id="gradient0" spreadMethod="pad" x1="-819.2" x2="819.2">
      <stop offset="0.0784313725490196" stop-color="#4d4d4d"/>
      <stop offset="0.39215686274509803" stop-color="#9b9b9b"/>
      <stop offset="0.596078431372549" stop-color="#cccccc"/>
      <stop offset="0.7490196078431373" stop-color="#c8c8c8"/>
      <stop offset="1.0" stop-color="#444444"/>
    </linearGradient>
    <linearGradient gradientTransform="matrix(-0.0013, 0.0075, -0.0198, -0.0035, 2.2, -23.65)" gradientUnits="userSpaceOnUse" id="gradient1" spreadMethod="pad" x1="-819.2" x2="819.2">
      <stop offset="0.0" stop-color="#638484"/>
      <stop offset="0.09019607843137255" stop-color="#96b8b8"/>
      <stop offset="0.5411764705882353" stop-color="#a2c4c4"/>
      <stop offset="1.0" stop-color="#567777"/>
    </linearGradient>
  </defs>
</svg>
