<?xml version="1.0" encoding="UTF-8" standalone="no"?>
<svg xmlns:xlink="http://www.w3.org/1999/xlink" height="22.85px" width="33.7px" xmlns="http://www.w3.org/2000/svg">
  <g transform="matrix(1.0, 0.0, 0.0, 1.0, 16.8, 11.35)">
    <use height="22.85" transform="matrix(1.0, 0.0, 0.0, 1.0, -16.8, -11.35)" width="33.7" xlink:href="#shape0"/>
  </g>
  <defs>
    <g id="shape0" transform="matrix(1.0, 0.0, 0.0, 1.0, 16.8, 11.35)">
      <path d="M4.55 -3.0 L3.7 -3.5 Q1.55 -4.5 -1.05 -4.2 -3.65 -3.9 -5.15 -2.4 L-5.4 -2.2 Q-6.65 -0.85 -6.2 0.8 -5.8 2.35 -4.1 3.3 L-3.55 3.6 Q-1.4 4.6 1.25 4.25 3.8 3.95 5.3 2.5 L5.45 2.35 Q6.75 0.95 6.3 -0.75 5.95 -2.1 4.55 -3.0 M16.45 -1.95 Q17.6 2.35 14.2 6.0 L13.75 6.5 Q9.8 10.3 3.0 11.15 -3.85 12.0 -9.5 9.35 L-11.1 8.5 Q-15.35 6.0 -16.35 2.1 -17.55 -2.25 -14.15 -5.9 L-13.7 -6.35 Q-9.8 -10.2 -2.95 -11.0 3.85 -11.85 9.5 -9.2 L11.5 -8.15 Q15.4 -5.7 16.45 -1.95" fill="url(#gradient0)" fill-rule="evenodd" stroke="none"/>
      <path d="M5.45 -0.65 Q5.1 -1.8 3.95 -2.55 L3.15 -3.0 Q1.3 -3.9 -0.9 -3.6 -3.15 -3.35 -4.4 -2.1 L-4.6 -1.85 Q-5.65 -0.7 -5.3 0.7 -4.95 2.0 -3.45 2.85 L-3.0 3.05 Q-1.2 3.9 1.05 3.65 3.25 3.4 4.55 2.15 L4.65 2.0 Q5.8 0.8 5.45 -0.65 M4.55 -3.0 Q5.95 -2.1 6.3 -0.75 6.75 0.95 5.45 2.35 L5.3 2.5 Q3.8 3.95 1.25 4.25 -1.4 4.6 -3.55 3.6 L-4.1 3.3 Q-5.8 2.35 -6.2 0.8 -6.65 -0.85 -5.4 -2.2 L-5.15 -2.4 Q-3.65 -3.9 -1.05 -4.2 1.55 -4.5 3.7 -3.5 L4.55 -3.0" fill="url(#gradient1)" fill-rule="evenodd" stroke="none"/>
      <path d="M5.45 -0.65 Q5.8 0.8 4.65 2.0 L4.55 2.15 Q3.25 3.4 1.05 3.65 -1.2 3.9 -3.0 3.05 L-3.45 2.85 Q-4.95 2.0 -5.3 0.7 -5.65 -0.7 -4.6 -1.85 L-4.4 -2.1 Q-3.15 -3.35 -0.9 -3.6 1.3 -3.9 3.15 -3.0 L3.95 -2.55 Q5.1 -1.8 5.45 -0.65 M2.4 -0.25 L1.85 -1.0 1.4 -1.3 -0.45 -1.55 Q-1.45 -1.45 -2.0 -0.85 L-2.05 -0.8 Q-2.55 -0.25 -2.4 0.35 -2.2 1.0 -1.45 1.4 L-1.4 1.45 0.45 1.7 Q1.4 1.55 2.0 1.0 L2.05 0.95 Q2.55 0.4 2.4 -0.25" fill="#cccccc" fill-opacity="0.5764706" fill-rule="evenodd" stroke="none"/>
      <path d="M16.45 -1.95 Q17.6 2.35 14.2 6.0 L13.75 6.5 Q9.8 10.3 3.0 11.15 -3.85 12.0 -9.5 9.35 L-11.1 8.5 Q-15.35 6.0 -16.35 2.1 -17.55 -2.25 -14.15 -5.9 L-13.7 -6.35 Q-9.8 -10.2 -2.95 -11.0 3.85 -11.85 9.5 -9.2 L11.5 -8.15 Q15.4 -5.7 16.45 -1.95 Z" fill="none" stroke="#cc9900" stroke-linecap="round" stroke-linejoin="round" stroke-width="0.35000000000000003"/>
      <path d="M11.25 -8.5 Q16.05 -5.6 16.75 -1.35 L6.4 -0.6 Q6.2 -2.15 4.35 -3.3 L2.8 -4.0 7.55 -10.25 Q9.45 -9.55 11.25 -8.5" fill="url(#gradient2)" fill-rule="evenodd" stroke="none"/>
      <path d="M11.45 -8.25 Q15.4 -5.75 16.45 -2.05 17.05 0.4 16.35 2.55 L6.25 1.0 Q6.55 0.1 6.3 -0.8 5.9 -2.2 4.55 -3.1 L11.45 -8.25" fill="url(#gradient3)" fill-rule="evenodd" stroke="none"/>
      <path d="M-14.15 6.05 L-5.25 2.4 -4.1 3.25 -11.15 8.45 Q-12.95 7.35 -14.15 6.05 M-14.2 -5.95 L-5.35 -2.25 Q-6.65 -0.9 -6.2 0.75 L-5.25 2.4 -15.05 4.9 Q-16.0 3.55 -16.4 2.0 -17.55 -2.3 -14.2 -5.95" fill="url(#gradient4)" fill-rule="evenodd" stroke="none"/>
      <path d="M-3.0 -3.75 L-7.75 -10.05 -3.0 -11.1 0.05 -11.3 -0.1 -4.35 -1.1 -4.2 -3.0 -3.75" fill="url(#gradient5)" fill-rule="evenodd" stroke="none"/>
      <path d="M-8.8 9.6 L-3.35 3.65 Q-1.25 4.55 1.2 4.25 3.25 4.0 4.6 3.05 L12.15 7.75 Q8.5 10.4 2.95 11.1 -3.45 11.9 -8.8 9.6" fill="url(#gradient6)" fill-rule="evenodd" stroke="none"/>
      <path d="M5.0 -3.3 L4.0 -3.85 Q1.65 -4.95 -1.2 -4.6 -4.05 -4.25 -5.7 -2.65 L-5.95 -2.4 Q-7.3 -0.9 -6.85 0.9 -6.4 2.55 -4.5 3.65 L-3.95 4.0 Q-1.55 5.05 1.3 4.7 4.15 4.35 5.8 2.8 L6.0 2.6 Q7.4 1.05 6.95 -0.8 6.5 -2.35 5.0 -3.3 M15.9 -1.85 Q17.0 2.35 13.75 5.9 L13.25 6.35 Q9.45 10.05 2.9 10.85 -3.7 11.65 -9.2 9.1 L-10.8 8.25 Q-14.85 5.8 -15.85 2.05 -17.0 -2.15 -13.75 -5.65 L-13.3 -6.1 Q-9.5 -9.85 -2.9 -10.65 3.7 -11.45 9.2 -8.85 L11.1 -7.85 Q14.9 -5.5 15.9 -1.85" fill="url(#gradient7)" fill-rule="evenodd" stroke="none"/>
      <path d="M13.7 -0.5 Q11.9 -7.9 3.3 -9.05 M10.0 7.45 L6.4 3.7 M9.55 8.0 L5.8 4.1 M8.3 8.7 L4.55 4.8 M8.85 8.4 L5.15 4.45 M-5.25 -4.05 L-8.85 -7.8 M-3.55 -5.0 L-7.15 -8.75 M-4.45 -4.5 L-7.95 -8.3 M-6.05 -3.65 L-9.6 -7.35 M-2.75 9.1 Q-12.85 7.9 -13.95 -0.4" fill="none" stroke="#cccccc" stroke-linecap="round" stroke-linejoin="round" stroke-opacity="0.5764706" stroke-width="0.35000000000000003"/>
    </g>
    <linearGradient gradientTransform="matrix(-0.0036, -0.0135, 0.02, -0.0025, 0.05, 0.05)" gradientUnits="userSpaceOnUse" id="gradient0" spreadMethod="pad" x1="-819.2" x2="819.2">
      <stop offset="0.0" stop-color="#f7c811"/>
      <stop offset="0.26666666666666666" stop-color="#8c7005"/>
      <stop offset="0.5019607843137255" stop-color="#f5cc2c"/>
      <stop offset="0.8352941176470589" stop-color="#b18e06"/>
      <stop offset="1.0" stop-color="#7b6304"/>
    </linearGradient>
    <linearGradient gradientTransform="matrix(-0.0014, -0.0052, 0.0076, -9.0E-4, 0.05, 0.05)" gradientUnits="userSpaceOnUse" id="gradient1" spreadMethod="pad" x1="-819.2" x2="819.2">
      <stop offset="0.0" stop-color="#c49e09"/>
      <stop offset="0.26666666666666666" stop-color="#8c7005"/>
      <stop offset="0.5019607843137255" stop-color="#c19c0b"/>
      <stop offset="0.8352941176470589" stop-color="#b18e06"/>
      <stop offset="1.0" stop-color="#7b6304"/>
    </linearGradient>
    <linearGradient gradientTransform="matrix(0.0098, -4.0E-4, 6.0E-4, 0.0067, 8.25, -6.2)" gradientUnits="userSpaceOnUse" id="gradient2" spreadMethod="pad" x1="-819.2" x2="819.2">
      <stop offset="0.0" stop-color="#ffff00" stop-opacity="0.4627451"/>
      <stop offset="1.0" stop-color="#df7253" stop-opacity="0.6313726"/>
    </linearGradient>
    <linearGradient gradientTransform="matrix(-0.0078, -0.0037, 0.0056, -0.0055, 12.05, -1.25)" gradientUnits="userSpaceOnUse" id="gradient3" spreadMethod="pad" x1="-819.2" x2="819.2">
      <stop offset="0.0" stop-color="#009933" stop-opacity="0.3764706"/>
      <stop offset="1.0" stop-color="#00cccc" stop-opacity="0.0"/>
    </linearGradient>
    <linearGradient gradientTransform="matrix(-0.0081, -0.0038, 0.0057, -0.0055, -11.9, 1.4)" gradientUnits="userSpaceOnUse" id="gradient4" spreadMethod="pad" x1="-819.2" x2="819.2">
      <stop offset="0.0" stop-color="#ffff00" stop-opacity="0.4627451"/>
      <stop offset="1.0" stop-color="#df7253" stop-opacity="0.6313726"/>
    </linearGradient>
    <linearGradient gradientTransform="matrix(-0.0044, 0.0013, -0.0028, -0.0041, -1.9, -7.8)" gradientUnits="userSpaceOnUse" id="gradient5" spreadMethod="pad" x1="-819.2" x2="819.2">
      <stop offset="0.0" stop-color="#996633" stop-opacity="0.1764706"/>
      <stop offset="1.0" stop-color="#df7253" stop-opacity="0.36862746"/>
    </linearGradient>
    <linearGradient gradientTransform="matrix(0.0054, -0.0053, 0.0081, 0.0038, 1.85, 8.15)" gradientUnits="userSpaceOnUse" id="gradient6" spreadMethod="pad" x1="-819.2" x2="819.2">
      <stop offset="0.0" stop-color="#0066cc" stop-opacity="0.4"/>
      <stop offset="1.0" stop-color="#00cccc" stop-opacity="0.0"/>
    </linearGradient>
    <linearGradient gradientTransform="matrix(0.0197, 0.0, 0.0, 0.0134, 0.0, 0.1)" gradientUnits="userSpaceOnUse" id="gradient7" spreadMethod="pad" x1="-819.2" x2="819.2">
      <stop offset="0.0" stop-color="#ffffff"/>
      <stop offset="1.0" stop-color="#dfdfdf"/>
    </linearGradient>
  </defs>
</svg>
