<?xml version="1.0" encoding="UTF-8" standalone="no"?>
<svg xmlns:xlink="http://www.w3.org/1999/xlink" height="45.7px" width="62.1px" xmlns="http://www.w3.org/2000/svg">
  <g transform="matrix(1.0, 0.0, 0.0, 1.0, 31.05, 22.85)">
    <use height="45.7" transform="matrix(1.0, 0.0, 0.0, 1.0, -31.05, -22.85)" width="62.1" xlink:href="#shape0"/>
  </g>
  <defs>
    <g id="shape0" transform="matrix(1.0, 0.0, 0.0, 1.0, 31.05, 22.85)">
      <path d="M11.45 -11.5 L12.0 -12.4 Q13.05 -15.2 16.5 -19.6 L17.8 -21.45 21.45 -21.85 22.65 -9.9 22.65 -19.0 24.4 -7.9 24.4 -19.25 25.65 -16.95 26.65 -4.65 25.75 -22.5 27.05 -22.75 Q28.55 -17.5 29.45 -11.65 L27.25 -11.2 27.25 -10.6 28.75 -1.0 Q29.0 0.35 28.85 4.7 29.2 7.05 28.75 13.35 28.55 13.75 30.85 14.1 L30.8 14.95 Q30.5 18.55 30.5 20.65 L27.2 21.25 24.5 8.6 24.5 21.65 22.05 21.95 20.5 16.25 20.05 22.15 16.7 22.45 14.35 19.1 12.35 16.65 13.2 14.65 12.3 14.65 12.3 12.85 9.3 12.85 9.3 10.6 6.25 12.1 6.25 10.25 3.25 12.95 3.25 9.85 1.35 12.1 1.35 9.35 -0.65 11.5 -0.65 8.7 -3.05 11.6 -3.05 9.45 -4.8 12.8 -4.8 10.0 -6.0 12.9 -8.1 10.25 -8.1 12.35 -9.35 10.75 -9.35 14.35 -12.5 12.6 -11.6 14.4 -10.5 15.4 -11.2 16.2 -16.4 22.75 -20.15 22.75 -18.55 15.0 -23.6 22.75 -24.4 22.75 Q-23.05 18.75 -23.1 14.4 L-23.2 4.45 -25.15 11.55 -25.15 11.3 Q-24.85 5.0 -24.85 -0.95 -24.85 -8.95 -25.0 -11.05 L-28.05 -11.3 -28.3 -21.05 -23.45 -21.1 -23.45 -12.45 -21.95 -17.95 -17.4 -5.0 -17.4 -21.05 -16.3 -21.05 Q-13.4 -14.2 -10.35 -12.0 L-10.35 -9.8 -9.25 -9.8 -9.25 -8.4 -7.35 -9.9 Q-6.8 -9.65 -6.1 -8.55 L-5.5 -10.5 -5.45 -10.5 -4.2 -7.65 -3.2 -10.25 -1.95 -7.25 -0.65 -8.9 1.35 -6.15 2.05 -10.35 4.35 -6.9 5.5 -8.8 Q5.8 -9.2 6.5 -7.5 L7.5 -9.55 7.5 -8.8 8.55 -7.9 8.55 -8.65 10.4 -8.65 10.4 -9.3 12.95 -9.3 11.45 -11.5 M-28.2 22.65 L-30.05 22.55 -30.6 22.5 Q-30.95 22.35 -30.95 20.85 L-29.95 16.55 -29.8 16.05 -29.45 14.05 -25.85 14.1 -28.2 22.65" fill="url(#gradient0)" fill-rule="evenodd" stroke="none"/>
      <path d="M11.45 -11.5 L12.95 -9.3 10.4 -9.3 10.4 -8.65 8.55 -8.65 8.55 -7.9 7.5 -8.8 7.5 -9.55 6.5 -7.5 Q5.8 -9.2 5.5 -8.8 L4.35 -6.9 2.05 -10.35 1.35 -6.15 -0.65 -8.9 -1.95 -7.25 -3.2 -10.25 -4.2 -7.65 -5.45 -10.5 -0.3 -10.3 2.05 -10.35 7.15 -10.45 Q10.25 -10.25 11.45 -11.5 M-5.5 -10.5 L-6.1 -8.55 Q-6.8 -9.65 -7.35 -9.9 L-9.25 -8.4 -9.25 -9.8 -10.35 -9.8 -10.35 -12.0 Q-9.55 -11.45 -8.75 -11.2 L-5.5 -10.5 M-9.35 14.35 L-9.35 10.75 -8.1 12.35 -8.1 10.25 -6.0 12.9 -8.1 13.55 -9.35 14.35 M-4.8 12.8 L-3.05 9.45 -3.05 11.6 -0.65 8.7 -0.65 11.5 1.35 9.35 1.35 12.1 3.25 9.85 3.25 12.95 6.25 10.25 6.25 12.1 9.3 10.6 9.3 12.85 12.3 12.85 12.3 14.65 13.2 14.65 12.35 16.65 10.25 14.85 Q7.95 13.1 3.25 12.95 L3.15 12.95 -4.65 12.8 -4.8 12.8" fill="#c8c8c8" fill-rule="evenodd" stroke="none"/>
      <path d="M-17.4 -21.05 L-17.4 -5.0 -21.95 -17.95 -23.45 -12.45 -23.45 -21.1 -17.4 -21.05 M-25.15 11.55 L-23.2 4.45 -23.1 14.4 Q-23.05 18.75 -24.4 22.75 L-25.6 22.7 -28.2 22.65 -25.85 14.1 Q-25.2 13.95 -25.15 13.35 L-25.15 11.55 M-23.6 22.75 L-18.55 15.0 -20.15 22.75 -23.6 22.75 M20.05 22.15 L20.5 16.25 22.05 21.95 20.05 22.15 M24.5 21.65 L24.5 8.6 27.2 21.25 24.5 21.65 M25.75 -22.5 L26.65 -4.65 25.65 -16.95 24.4 -19.25 24.4 -7.9 22.65 -19.0 22.65 -9.9 21.45 -21.85 25.75 -22.5" fill="#b3b3b3" fill-rule="evenodd" stroke="none"/>
      <path d="M-28.05 -11.3 L-25.0 -11.05 Q-24.85 -8.95 -24.85 -0.95 -24.85 5.0 -25.15 11.3 L-25.15 11.55 -25.15 13.35 Q-25.2 13.95 -25.85 14.1 L-29.45 14.05 Q-28.7 9.35 -28.3 0.05 -28.05 -5.3 -28.05 -11.3 M30.85 14.1 Q28.55 13.75 28.75 13.35 29.2 7.05 28.85 4.7 29.0 0.35 28.75 -1.0 L27.25 -10.6 27.25 -11.2 29.45 -11.65 Q30.9 -2.7 30.95 7.55 L30.95 8.15 30.95 9.95 30.85 14.1" fill="#b3dddc" fill-rule="evenodd" stroke="none"/>
      <path d="M-10.5 15.4 L-11.6 14.4 -12.5 12.6 -9.35 14.35 -10.5 15.4 M-6.0 12.9 L-4.8 10.0 -4.8 12.8 -6.0 12.9" fill="#bfbfbf" fill-rule="evenodd" stroke="none"/>
      <path d="M21.45 -21.85 L17.8 -21.45 16.5 -19.6 Q13.05 -15.2 12.0 -12.4 L11.45 -11.5 Q10.25 -10.25 7.15 -10.45 L2.05 -10.35 -0.3 -10.3 -5.45 -10.5 -5.5 -10.5 -8.75 -11.2 Q-9.55 -11.45 -10.35 -12.0 -13.4 -14.2 -16.3 -21.05 L-17.4 -21.05 -23.45 -21.1 -28.3 -21.05 -28.05 -11.3 M-24.4 22.75 L-23.6 22.75 -20.15 22.75 -16.4 22.75 -11.2 16.2 -10.5 15.4 -9.35 14.35 -8.1 13.55 -6.0 12.9 -4.8 12.8 -4.65 12.8 3.15 12.95 3.25 12.95 Q7.95 13.1 10.25 14.85 L12.35 16.65 14.35 19.1 16.7 22.45 20.05 22.15 22.05 21.95 24.5 21.65 27.2 21.25 30.5 20.65 Q30.5 18.55 30.8 14.95 L30.85 14.1 30.95 9.95 30.95 8.15 30.95 7.55 Q30.9 -2.7 29.45 -11.65 28.55 -17.5 27.05 -22.75 L25.75 -22.5 M21.45 -21.85 L25.75 -22.5 M-28.2 22.65 L-30.05 22.55 -30.6 22.5 Q-30.95 22.35 -30.95 20.85 L-29.95 16.55 -29.8 16.05 -29.45 14.05 Q-28.7 9.35 -28.3 0.05 -28.05 -5.3 -28.05 -11.3 M-28.2 22.65 L-25.6 22.7 -24.4 22.75" fill="none" stroke="#999999" stroke-linecap="round" stroke-linejoin="round" stroke-width="0.25"/>
      <path d="M9.3 -5.25 Q11.35 -5.25 12.8 -3.8 14.3 -2.3 14.3 -0.25 L14.3 3.95 Q14.3 6.0 12.8 7.45 11.35 8.95 9.3 8.95 L-7.9 8.95 Q-9.95 8.95 -11.45 7.45 -12.9 6.0 -12.9 3.95 L-12.9 -0.25 Q-12.9 -2.3 -11.45 -3.8 -9.95 -5.25 -7.9 -5.25 L9.3 -5.25" fill="#b3dddc" fill-rule="evenodd" stroke="none"/>
      <path d="M7.05 -3.75 Q8.4 -3.75 8.8 -4.7 L9.3 -5.65 10.5 -5.65 10.25 -3.75 Q9.9 -1.4 12.65 -2.55 15.4 -3.7 15.9 -2.6 L15.6 -1.4 Q15.6 -0.8 13.95 0.2 12.25 1.15 12.25 2.1 12.25 3.1 14.1 3.3 15.95 3.5 15.95 3.95 15.95 4.15 13.75 4.65 11.5 5.2 11.5 6.25 11.5 6.75 11.95 7.5 13.25 9.5 11.9 9.6 L8.35 7.65 Q6.75 6.8 6.45 8.9 6.15 11.0 5.1 10.2 4.0 9.4 3.3 7.95 2.55 6.45 1.65 6.45 0.2 6.45 -3.1 8.1 -6.0 10.3 -5.5 7.15 -5.35 6.05 -6.1 4.85 -13.1 7.0 -11.8 4.4 -10.5 1.8 -9.0 1.55 -7.55 1.3 -7.55 0.35 -7.55 -0.75 -8.7 -1.3 -11.1 -4.5 -8.35 -4.8 -5.6 -5.1 -3.9 -4.35 -2.25 -3.6 -2.35 -4.6 -1.4 -8.1 -0.8 -6.2 -0.25 -4.3 0.8 -4.3 1.85 -4.3 3.45 -7.25 L5.25 -4.5 Q5.85 -3.75 7.05 -3.75" fill="url(#gradient1)" fill-rule="evenodd" stroke="none"/>
    </g>
    <radialGradient cx="0" cy="0" gradientTransform="matrix(0.0, 0.0309, -0.0555, 0.0, 1.35, 4.05)" gradientUnits="userSpaceOnUse" id="gradient0" r="819.2" spreadMethod="pad">
      <stop offset="0.0" stop-color="#ffffff"/>
      <stop offset="0.6392156862745098" stop-color="#eaeaea"/>
      <stop offset="1.0" stop-color="#bfbfbf"/>
    </radialGradient>
    <radialGradient cx="0" cy="0" gradientTransform="matrix(0.0, 0.0109, -0.0189, 0.0, 3.1, 1.85)" gradientUnits="userSpaceOnUse" id="gradient1" r="819.2" spreadMethod="pad">
      <stop offset="0.0" stop-color="#331a00" stop-opacity="0.8235294"/>
      <stop offset="0.33725490196078434" stop-color="#753c02" stop-opacity="0.7490196"/>
      <stop offset="0.615686274509804" stop-color="#7d4002" stop-opacity="0.31764707"/>
      <stop offset="0.9882352941176471" stop-color="#7d4002" stop-opacity="0.0"/>
    </radialGradient>
  </defs>
</svg>
