<?xml version="1.0" encoding="UTF-8" standalone="no"?>
<svg xmlns:xlink="http://www.w3.org/1999/xlink" height="22.9px" width="33.75px" xmlns="http://www.w3.org/2000/svg">
  <g transform="matrix(1.0, 0.0, 0.0, 1.0, 16.85, 11.5)">
    <use height="22.9" transform="matrix(1.0, 0.0, 0.0, 1.0, -16.85, -11.5)" width="33.75" xlink:href="#shape0"/>
  </g>
  <defs>
    <g id="shape0" transform="matrix(1.0, 0.0, 0.0, 1.0, 16.85, 11.5)">
      <path d="M1.75 -3.45 Q3.55 -3.05 4.65 -1.9 5.7 -0.75 5.35 0.6 L5.3 0.85 Q4.8 2.3 2.9 3.15 0.95 3.95 -1.2 3.6 L-2.15 3.4 Q-3.7 2.95 -4.6 1.95 -5.75 0.7 -5.35 -0.7 L-5.3 -0.85 Q-4.8 -2.3 -2.85 -3.1 -0.95 -3.95 1.25 -3.6 L1.75 -3.45 M0.7 -1.65 L0.6 -1.65 -1.2 -1.45 Q-2.1 -1.1 -2.3 -0.4 L-2.35 -0.3 Q-2.5 0.3 -2.0 0.85 L-1.05 1.45 -0.5 1.55 1.3 1.35 Q2.15 1.0 2.4 0.35 L2.4 0.25 Q2.6 -0.35 2.1 -0.9 1.6 -1.45 0.7 -1.65" fill="#8cc08b" fill-opacity="0.49019608" fill-rule="evenodd" stroke="none"/>
      <path d="M2.1 -4.05 L1.45 -4.2 Q-1.15 -4.6 -3.35 -3.65 -5.6 -2.7 -6.2 -1.0 L-6.25 -0.8 Q-6.75 0.8 -5.4 2.3 -4.35 3.45 -2.5 3.95 L-1.45 4.2 Q1.1 4.6 3.3 3.65 5.55 2.7 6.2 1.0 L6.25 0.7 Q6.7 -0.85 5.4 -2.25 4.2 -3.6 2.1 -4.05 M5.8 -10.65 Q11.05 -9.35 14.15 -5.95 17.6 -2.25 16.45 1.95 L16.25 2.5 Q14.7 7.05 8.8 9.55 2.9 12.0 -3.75 10.95 L-6.15 10.45 Q-11.15 9.15 -14.15 5.9 -17.6 2.15 -16.4 -2.05 L-16.2 -2.6 Q-14.65 -7.15 -8.75 -9.6 -2.9 -12.1 3.8 -11.05 L5.8 -10.65" fill="url(#gradient0)" fill-rule="evenodd" stroke="none"/>
      <path d="M2.1 -4.05 Q4.2 -3.6 5.4 -2.25 6.7 -0.85 6.25 0.7 L6.2 1.0 Q5.55 2.7 3.3 3.65 1.1 4.6 -1.45 4.2 L-2.5 3.95 Q-4.35 3.45 -5.4 2.3 -6.75 0.8 -6.25 -0.8 L-6.2 -1.0 Q-5.6 -2.7 -3.35 -3.65 -1.15 -4.6 1.45 -4.2 L2.1 -4.05 M1.75 -3.45 L1.25 -3.6 Q-0.95 -3.95 -2.85 -3.1 -4.8 -2.3 -5.3 -0.85 L-5.35 -0.7 Q-5.75 0.7 -4.6 1.95 -3.7 2.95 -2.15 3.4 L-1.2 3.6 Q0.95 3.95 2.9 3.15 4.8 2.3 5.3 0.85 L5.35 0.6 Q5.7 -0.75 4.65 -1.9 3.55 -3.05 1.75 -3.45" fill="url(#gradient1)" fill-rule="evenodd" stroke="none"/>
      <path d="M5.8 -10.65 Q11.05 -9.35 14.15 -5.95 17.6 -2.25 16.45 1.95 L16.25 2.5 Q14.7 7.05 8.8 9.55 2.9 12.0 -3.75 10.95 L-6.15 10.45 Q-11.15 9.15 -14.15 5.9 -17.6 2.15 -16.4 -2.05 L-16.2 -2.6 Q-14.65 -7.15 -8.75 -9.6 -2.9 -12.1 3.8 -11.05 L5.8 -10.65 Z" fill="none" stroke="#cc9900" stroke-linecap="round" stroke-linejoin="round" stroke-width="0.35000000000000003"/>
      <path d="M-5.85 10.65 Q-11.9 9.15 -14.8 5.35 L-5.65 2.05 Q-4.55 3.55 -2.25 4.1 L-0.4 4.35 -1.45 11.35 -5.85 10.65" fill="url(#gradient2)" fill-rule="evenodd" stroke="none"/>
      <path d="M5.35 -2.3 Q4.65 -3.1 3.55 -3.55 L11.35 -8.35 14.15 -6.0 Q17.55 -2.3 16.4 1.95 L6.2 0.7 Q6.65 -0.9 5.35 -2.3 M9.8 -9.15 L3.55 -3.55 2.05 -4.05 5.75 -10.65 Q8.0 -10.1 9.8 -9.15" fill="url(#gradient3)" fill-rule="evenodd" stroke="none"/>
      <path d="M-6.25 10.4 Q-11.2 9.1 -14.2 5.95 -16.05 3.85 -16.55 1.65 L-6.35 0.65 Q-6.15 1.45 -5.45 2.25 -4.35 3.45 -2.55 3.95 L-6.25 10.4" fill="url(#gradient4)" fill-rule="evenodd" stroke="none"/>
      <path d="M2.95 -11.1 L1.15 -4.25 Q-1.3 -4.55 -3.45 -3.65 -5.2 -2.9 -5.9 -1.7 L-15.5 -4.2 Q-13.6 -7.55 -8.8 -9.6 -3.3 -11.9 2.95 -11.1" fill="url(#gradient5)" fill-rule="evenodd" stroke="none"/>
      <path d="M4.8 2.7 L12.65 7.4 Q11.05 8.6 8.8 9.5 L6.1 10.5 2.4 3.95 3.3 3.65 4.8 2.7" fill="url(#gradient6)" fill-rule="evenodd" stroke="none"/>
      <path d="M-14.85 4.55 Q-17.05 1.4 -16.1 -2.05 L-15.9 -2.55 Q-14.4 -7.0 -8.65 -9.4 -2.85 -11.85 3.75 -10.85 L5.7 -10.45 Q8.15 -9.85 10.15 -8.75 L1.6 -4.2 1.45 -4.2 Q-1.15 -4.6 -3.35 -3.65 -5.6 -2.7 -6.2 -1.0 L-6.25 -0.8 -6.4 0.05 -14.85 4.55 M10.85 -8.35 Q12.55 -7.3 13.85 -5.85 L14.85 -4.65 6.35 -0.1 Q6.35 -1.25 5.4 -2.25 4.35 -3.4 2.75 -3.9 L10.85 -8.35 M15.4 -3.8 Q16.9 -1.05 16.05 1.9 L15.95 2.45 Q14.35 6.9 8.6 9.3 2.85 11.75 -3.7 10.7 L-6.1 10.2 -8.95 9.25 0.3 4.3 Q1.85 4.25 3.3 3.65 5.45 2.75 6.15 1.15 L15.4 -3.8 M-10.05 8.7 Q-12.25 7.5 -13.85 5.8 L-14.2 5.4 -6.2 1.0 Q-6.0 1.65 -5.4 2.3 -4.35 3.45 -2.5 3.95 L-1.6 4.15 -10.05 8.7 M-10.8 -5.3 Q-10.65 -5.15 -10.4 -5.15 L-9.95 -5.3 -9.8 -5.75 -9.95 -6.15 -10.4 -6.35 -10.8 -6.15 -11.0 -5.75 -10.8 -5.3 M-12.05 -5.0 L-12.25 -4.6 -12.05 -4.15 Q-11.9 -4.0 -11.65 -4.0 -11.4 -4.0 -11.2 -4.15 L-11.1 -4.25 -11.05 -4.6 -11.2 -5.0 Q-11.4 -5.2 -11.65 -5.2 L-11.95 -5.1 -12.05 -5.0 M-3.75 -9.1 L-4.2 -9.3 -4.6 -9.1 -4.8 -8.7 -4.6 -8.25 Q-4.45 -8.1 -4.2 -8.1 -3.95 -8.1 -3.75 -8.25 -3.6 -8.45 -3.6 -8.7 L-3.75 -9.1 M-9.55 -6.7 L-9.4 -6.3 -9.35 -6.25 Q-9.2 -6.1 -8.95 -6.1 -8.7 -6.1 -8.5 -6.25 -8.35 -6.45 -8.35 -6.7 L-8.35 -6.85 -8.5 -7.1 -8.95 -7.3 -9.35 -7.1 -9.55 -6.7 M-7.75 -7.1 L-7.35 -6.95 Q-7.1 -6.95 -6.9 -7.1 -6.75 -7.3 -6.75 -7.55 L-6.9 -7.95 -7.35 -8.15 -7.75 -7.95 -7.95 -7.55 -7.75 -7.1 M-5.35 -8.55 Q-5.55 -8.75 -5.8 -8.75 L-6.2 -8.55 -6.4 -8.15 -6.2 -7.7 Q-6.05 -7.55 -5.8 -7.55 -5.55 -7.55 -5.35 -7.7 -5.2 -7.9 -5.2 -8.15 L-5.35 -8.55" fill="url(#gradient7)" fill-rule="evenodd" stroke="none"/>
      <path d="M-14.85 4.55 L-6.4 0.05 -6.2 1.0 -14.2 5.4 -14.85 4.55 M1.6 -4.2 L10.15 -8.75 10.85 -8.35 2.75 -3.9 2.1 -4.05 1.6 -4.2 M14.85 -4.65 L15.4 -3.8 6.15 1.15 6.2 1.0 6.25 0.7 6.35 -0.1 14.85 -4.65 M-8.95 9.25 L-10.05 8.7 -1.6 4.15 -1.45 4.2 0.3 4.3 -8.95 9.25" fill="url(#gradient8)" fill-rule="evenodd" stroke="none"/>
      <path d="M-5.35 -8.55 L-5.2 -8.15 Q-5.2 -7.9 -5.35 -7.7 -5.55 -7.55 -5.8 -7.55 -6.05 -7.55 -6.2 -7.7 L-6.4 -8.15 -6.2 -8.55 -5.8 -8.75 Q-5.55 -8.75 -5.35 -8.55 M-7.75 -7.1 L-7.95 -7.55 -7.75 -7.95 -7.35 -8.15 -6.9 -7.95 -6.75 -7.55 Q-6.75 -7.3 -6.9 -7.1 -7.1 -6.95 -7.35 -6.95 L-7.75 -7.1 M-9.55 -6.7 L-9.35 -7.1 -8.95 -7.3 -8.5 -7.1 -8.35 -6.85 -8.35 -6.7 Q-8.35 -6.45 -8.5 -6.25 -8.7 -6.1 -8.95 -6.1 -9.2 -6.1 -9.35 -6.25 L-9.4 -6.3 -9.55 -6.7 M-3.75 -9.1 L-3.6 -8.7 Q-3.6 -8.45 -3.75 -8.25 -3.95 -8.1 -4.2 -8.1 -4.45 -8.1 -4.6 -8.25 L-4.8 -8.7 -4.6 -9.1 -4.2 -9.3 -3.75 -9.1 M-12.05 -5.0 L-11.95 -5.1 -11.65 -5.2 Q-11.4 -5.2 -11.2 -5.0 L-11.05 -4.6 -11.1 -4.25 -11.2 -4.15 Q-11.4 -4.0 -11.65 -4.0 -11.9 -4.0 -12.05 -4.15 L-12.25 -4.6 -12.05 -5.0 M-10.8 -5.3 L-11.0 -5.75 -10.8 -6.15 -10.4 -6.35 -9.95 -6.15 -9.8 -5.75 -9.95 -5.3 -10.4 -5.15 Q-10.65 -5.15 -10.8 -5.3" fill="#cccccc" fill-rule="evenodd" stroke="none"/>
    </g>
    <linearGradient gradientTransform="matrix(0.0107, 0.0117, -0.0173, 0.0073, 0.0, -0.05)" gradientUnits="userSpaceOnUse" id="gradient0" spreadMethod="pad" x1="-819.2" x2="819.2">
      <stop offset="0.0" stop-color="#f7c811"/>
      <stop offset="0.26666666666666666" stop-color="#8c7005"/>
      <stop offset="0.5019607843137255" stop-color="#f5cc2c"/>
      <stop offset="0.8352941176470589" stop-color="#b18e06"/>
      <stop offset="1.0" stop-color="#7b6304"/>
    </linearGradient>
    <linearGradient gradientTransform="matrix(0.0041, 0.0045, -0.0066, 0.0028, 0.0, 0.0)" gradientUnits="userSpaceOnUse" id="gradient1" spreadMethod="pad" x1="-819.2" x2="819.2">
      <stop offset="0.0" stop-color="#c49e09"/>
      <stop offset="0.26666666666666666" stop-color="#8c7005"/>
      <stop offset="0.5019607843137255" stop-color="#c19c0b"/>
      <stop offset="0.8352941176470589" stop-color="#b18e06"/>
      <stop offset="1.0" stop-color="#7b6304"/>
    </linearGradient>
    <linearGradient gradientTransform="matrix(-0.0089, 0.0028, -0.0042, -0.0061, -4.3, 7.75)" gradientUnits="userSpaceOnUse" id="gradient2" spreadMethod="pad" x1="-819.2" x2="819.2">
      <stop offset="0.0" stop-color="#ffff00" stop-opacity="0.4627451"/>
      <stop offset="1.0" stop-color="#df7253" stop-opacity="0.6313726"/>
    </linearGradient>
    <linearGradient gradientTransform="matrix(0.0095, 0.0015, -0.0023, 0.0065, 10.3, -4.3)" gradientUnits="userSpaceOnUse" id="gradient3" spreadMethod="pad" x1="-819.2" x2="819.2">
      <stop offset="0.0" stop-color="#ffff00" stop-opacity="0.4627451"/>
      <stop offset="1.0" stop-color="#df7253" stop-opacity="0.6313726"/>
    </linearGradient>
    <linearGradient gradientTransform="matrix(0.0092, 0.0015, -0.0023, 0.0065, -10.55, 4.1)" gradientUnits="userSpaceOnUse" id="gradient4" spreadMethod="pad" x1="-819.2" x2="819.2">
      <stop offset="0.0" stop-color="#009933" stop-opacity="0.3764706"/>
      <stop offset="1.0" stop-color="#00cccc" stop-opacity="0.0"/>
    </linearGradient>
    <linearGradient gradientTransform="matrix(-0.0022, 0.0063, -0.0096, -0.0015, -6.15, -7.15)" gradientUnits="userSpaceOnUse" id="gradient5" spreadMethod="pad" x1="-819.2" x2="819.2">
      <stop offset="0.0" stop-color="#0066cc" stop-opacity="0.4"/>
      <stop offset="1.0" stop-color="#00cccc" stop-opacity="0.0"/>
    </linearGradient>
    <linearGradient gradientTransform="matrix(0.0033, -0.0023, 0.0048, 0.0031, 6.0, 6.75)" gradientUnits="userSpaceOnUse" id="gradient6" spreadMethod="pad" x1="-819.2" x2="819.2">
      <stop offset="0.0" stop-color="#996633" stop-opacity="0.1764706"/>
      <stop offset="1.0" stop-color="#df7253" stop-opacity="0.36862746"/>
    </linearGradient>
    <linearGradient gradientTransform="matrix(0.0143, 0.0, 0.0, 0.0096, 2.6, -2.9)" gradientUnits="userSpaceOnUse" id="gradient7" spreadMethod="pad" x1="-819.2" x2="819.2">
      <stop offset="0.0" stop-color="#7ea549"/>
      <stop offset="1.0" stop-color="#4b6b36"/>
    </linearGradient>
    <linearGradient gradientTransform="matrix(0.0168, 0.0, 0.0, 0.0033, -2.25, 2.0)" gradientUnits="userSpaceOnUse" id="gradient8" spreadMethod="pad" x1="-819.2" x2="819.2">
      <stop offset="0.0" stop-color="#ffffff"/>
      <stop offset="1.0" stop-color="#c8c8c8"/>
    </linearGradient>
  </defs>
</svg>
