<?xml version="1.0" encoding="UTF-8" standalone="no"?>
<svg xmlns:xlink="http://www.w3.org/1999/xlink" height="22.85px" width="33.65px" xmlns="http://www.w3.org/2000/svg">
  <g transform="matrix(1.0, 0.0, 0.0, 1.0, 16.8, 11.5)">
    <use height="22.85" transform="matrix(1.0, 0.0, 0.0, 1.0, -16.8, -11.5)" width="33.65" xlink:href="#shape0"/>
  </g>
  <defs>
    <g id="shape0" transform="matrix(1.0, 0.0, 0.0, 1.0, 16.8, 11.5)">
      <path d="M3.65 -2.8 Q2.15 -3.75 0.1 -3.75 -1.95 -3.75 -3.4 -2.9 L-3.8 -2.65 Q-5.4 -1.6 -5.4 -0.05 -5.4 1.45 -3.8 2.55 L-3.65 2.65 Q-2.1 3.65 0.1 3.65 1.8 3.6 3.15 3.0 L3.95 2.55 Q5.55 1.45 5.55 -0.05 5.55 -1.6 3.95 -2.65 L3.65 -2.8 M4.25 -3.3 L4.55 -3.1 Q6.4 -1.85 6.4 -0.05 6.4 1.75 4.55 3.0 L3.7 3.5 Q2.1 4.25 0.05 4.25 -2.45 4.25 -4.3 3.15 L-4.5 3.0 Q-6.35 1.75 -6.3 -0.05 -6.35 -1.85 -4.5 -3.1 L-3.95 -3.4 Q-2.25 -4.4 0.05 -4.35 2.5 -4.35 4.25 -3.3" fill="url(#gradient0)" fill-rule="evenodd" stroke="none"/>
      <path d="M3.65 -2.8 L3.95 -2.65 Q5.55 -1.6 5.55 -0.05 5.55 1.45 3.95 2.55 L3.15 3.0 Q1.8 3.6 0.1 3.65 -2.1 3.65 -3.65 2.65 L-3.8 2.55 Q-5.4 1.45 -5.4 -0.05 -5.4 -1.6 -3.8 -2.65 L-3.4 -2.9 Q-1.95 -3.75 0.1 -3.75 2.15 -3.75 3.65 -2.8 M1.75 -1.25 L1.65 -1.3 Q0.95 -1.75 0.05 -1.75 L-1.65 -1.3 -1.7 -1.25 Q-2.4 -0.8 -2.4 -0.1 -2.4 0.6 -1.7 1.05 L-1.6 1.1 0.05 1.55 1.3 1.3 1.75 1.05 Q2.45 0.6 2.45 -0.1 2.45 -0.8 1.75 -1.25" fill="#cccccc" fill-opacity="0.5764706" fill-rule="evenodd" stroke="none"/>
      <path d="M4.25 -3.3 Q2.5 -4.35 0.05 -4.35 -2.25 -4.4 -3.95 -3.4 L-4.5 -3.1 Q-6.35 -1.85 -6.3 -0.05 -6.35 1.75 -4.5 3.0 L-4.3 3.15 Q-2.45 4.25 0.05 4.25 2.1 4.25 3.7 3.5 L4.55 3.0 Q6.4 1.75 6.4 -0.05 6.4 -1.85 4.55 -3.1 L4.25 -3.3 M16.7 -0.1 Q16.7 4.6 11.8 7.9 L9.9 9.0 Q5.65 11.2 0.0 11.2 -6.5 11.2 -11.2 8.3 L-11.8 7.9 Q-16.7 4.6 -16.65 -0.1 -16.7 -4.8 -11.8 -8.1 L-10.25 -9.0 Q-5.85 -11.4 0.0 -11.35 6.5 -11.4 11.2 -8.45 L11.8 -8.1 Q16.7 -4.8 16.7 -0.1" fill="url(#gradient1)" fill-rule="evenodd" stroke="none"/>
      <path d="M16.7 -0.1 Q16.7 4.6 11.8 7.9 L9.9 9.0 Q5.65 11.2 0.0 11.2 -6.5 11.2 -11.2 8.3 L-11.8 7.9 Q-16.7 4.6 -16.65 -0.1 -16.7 -4.8 -11.8 -8.1 L-10.25 -9.0 Q-5.85 -11.4 0.0 -11.35 6.5 -11.4 11.2 -8.45 L11.8 -8.1 Q16.7 -4.8 16.7 -0.1 Z" fill="none" stroke="#cc9900" stroke-linecap="round" stroke-linejoin="round" stroke-width="0.35000000000000003"/>
      <path d="M13.55 6.75 L10.4 8.9 Q5.3 11.6 -1.0 11.25 L-0.3 4.25 Q2.1 4.4 4.05 3.4 L5.35 2.5 13.55 6.75" fill="url(#gradient2)" fill-rule="evenodd" stroke="none"/>
      <path d="M4.25 -3.3 Q2.5 -4.35 0.05 -4.35 L-2.5 -4.0 -4.4 -11.0 0.0 -11.4 Q6.5 -11.4 11.25 -8.5 L4.25 -3.3 M-6.3 -10.6 L-2.5 -4.0 -4.0 -3.4 -10.3 -9.05 Q-8.4 -10.05 -6.3 -10.6" fill="url(#gradient3)" fill-rule="evenodd" stroke="none"/>
      <path d="M9.9 9.0 Q5.65 11.2 0.0 11.2 L-6.6 10.35 -2.5 3.9 0.05 4.25 Q2.15 4.25 3.7 3.5 L9.9 9.0" fill="url(#gradient4)" fill-rule="evenodd" stroke="none"/>
      <path d="M6.05 -1.4 L16.05 -3.45 Q16.7 -1.9 16.7 -0.1 L16.5 1.95 6.3 0.6 6.35 -0.05 6.05 -1.4" fill="url(#gradient5)" fill-rule="evenodd" stroke="none"/>
      <path d="M-16.65 -0.1 Q-16.65 -4.5 -12.35 -7.65 L-4.7 -3.0 Q-6.35 -1.75 -6.35 -0.05 -6.35 1.35 -5.2 2.4 L-13.4 6.6 Q-16.65 3.7 -16.65 -0.1" fill="url(#gradient6)" fill-rule="evenodd" stroke="none"/>
    </g>
    <linearGradient gradientTransform="matrix(0.0078, 0.0, 0.0, 0.0053, 0.0, -0.1)" gradientUnits="userSpaceOnUse" id="gradient0" spreadMethod="pad" x1="-819.2" x2="819.2">
      <stop offset="0.0" stop-color="#c49e09"/>
      <stop offset="0.26666666666666666" stop-color="#8c7005"/>
      <stop offset="0.5019607843137255" stop-color="#c19c0b"/>
      <stop offset="0.8352941176470589" stop-color="#b18e06"/>
      <stop offset="1.0" stop-color="#7b6304"/>
    </linearGradient>
    <linearGradient gradientTransform="matrix(0.0204, 0.0, 0.0, 0.0138, 0.0, -0.1)" gradientUnits="userSpaceOnUse" id="gradient1" spreadMethod="pad" x1="-819.2" x2="819.2">
      <stop offset="0.0" stop-color="#f7c811"/>
      <stop offset="0.26666666666666666" stop-color="#8c7005"/>
      <stop offset="0.5019607843137255" stop-color="#f5cc2c"/>
      <stop offset="0.8352941176470589" stop-color="#b18e06"/>
      <stop offset="1.0" stop-color="#7b6304"/>
    </linearGradient>
    <linearGradient gradientTransform="matrix(-0.0012, 0.0066, -0.0099, -8.0E-4, 7.55, 6.5)" gradientUnits="userSpaceOnUse" id="gradient2" spreadMethod="pad" x1="-819.2" x2="819.2">
      <stop offset="0.0" stop-color="#ffff00" stop-opacity="0.4627451"/>
      <stop offset="1.0" stop-color="#df7253" stop-opacity="0.6313726"/>
    </linearGradient>
    <linearGradient gradientTransform="matrix(0.0069, -0.0047, 0.007, 0.0048, 0.1, -8.25)" gradientUnits="userSpaceOnUse" id="gradient3" spreadMethod="pad" x1="-819.2" x2="819.2">
      <stop offset="0.0" stop-color="#ffff00" stop-opacity="0.4627451"/>
      <stop offset="1.0" stop-color="#df7253" stop-opacity="0.6313726"/>
    </linearGradient>
    <linearGradient gradientTransform="matrix(0.0067, -0.0045, 0.007, 0.0047, -0.35, 8.15)" gradientUnits="userSpaceOnUse" id="gradient4" spreadMethod="pad" x1="-819.2" x2="819.2">
      <stop offset="0.0" stop-color="#009933" stop-opacity="0.3764706"/>
      <stop offset="1.0" stop-color="#00cccc" stop-opacity="0.0"/>
    </linearGradient>
    <linearGradient gradientTransform="matrix(-0.0012, -0.0031, 0.0065, -0.0011, 11.7, 0.05)" gradientUnits="userSpaceOnUse" id="gradient5" spreadMethod="pad" x1="-819.2" x2="819.2">
      <stop offset="0.0" stop-color="#996633" stop-opacity="0.1764706"/>
      <stop offset="1.0" stop-color="#df7253" stop-opacity="0.36862746"/>
    </linearGradient>
    <linearGradient gradientTransform="matrix(0.0067, 0.0045, -0.007, 0.0047, -12.15, -0.35)" gradientUnits="userSpaceOnUse" id="gradient6" spreadMethod="pad" x1="-819.2" x2="819.2">
      <stop offset="0.0" stop-color="#0066cc" stop-opacity="0.4"/>
      <stop offset="1.0" stop-color="#00cccc" stop-opacity="0.0"/>
    </linearGradient>
  </defs>
</svg>
