<?xml version="1.0" encoding="UTF-8" standalone="no"?>
<svg xmlns:xlink="http://www.w3.org/1999/xlink" height="50.7px" width="50.8px" xmlns="http://www.w3.org/2000/svg">
  <g transform="matrix(1.0, 0.0, 0.0, 1.0, 25.4, 24.0)">
    <use height="50.7" transform="matrix(1.0, 0.0, 0.0, 1.0, -25.4, -24.0)" width="50.8" xlink:href="#shape0"/>
  </g>
  <defs>
    <g id="shape0" transform="matrix(1.0, 0.0, 0.0, 1.0, 25.4, 24.0)">
      <path d="M12.4 -2.1 L12.45 -2.1 Q14.3 -1.7 14.95 -2.6 L13.95 25.0 13.2 26.05 Q12.8 26.65 11.85 26.7 L10.65 26.6 10.15 26.5 12.4 -2.1" fill="url(#gradient0)" fill-rule="evenodd" stroke="none"/>
      <path d="M-4.5 -20.55 L-2.3 -20.5 15.95 -16.45 Q18.65 -15.85 17.4 -14.2 L13.15 -8.45 Q11.85 -6.7 8.95 -7.3 L-4.3 -10.25 -4.5 -20.55" fill="#484742" fill-rule="evenodd" stroke="none"/>
      <path d="M12.4 -2.1 L10.15 26.5 -23.85 18.05 -23.85 17.1 -23.9 16.85 -24.2 16.5 -24.5 16.1 Q-24.85 15.6 -24.7 14.95 L-24.55 13.9 -24.5 13.65 Q-24.3 13.25 -24.35 12.65 L-24.4 12.1 Q-24.85 10.6 -24.9 9.05 L-24.85 8.85 -24.75 8.45 -24.6 7.85 -24.4 7.15 Q-24.0 5.65 -24.45 4.15 L-24.75 3.6 -25.15 2.55 -25.1 2.3 Q-24.75 1.5 -24.75 0.55 L-24.85 -1.65 -24.85 -1.85 -25.15 -3.1 Q-25.5 -4.2 -25.35 -5.35 L-25.35 -5.45 Q-25.2 -6.05 -25.35 -6.55 L-25.3 -8.1 -25.2 -8.35 -25.15 -8.6 -25.15 -9.2 -25.25 -10.15 -25.3 -10.45 12.4 -2.1 M-14.65 -21.3 L-15.05 -20.85 -15.05 -23.3 Q-13.3 -22.65 -14.65 -21.3" fill="url(#gradient1)" fill-rule="evenodd" stroke="none"/>
      <path d="M-4.3 -10.25 L-10.25 -11.6 Q-13.1 -12.25 -11.55 -13.95 L-6.5 -19.5 Q-5.65 -20.4 -4.5 -20.55 L-4.3 -10.25" fill="#68696b" fill-rule="evenodd" stroke="none"/>
      <path d="M0.4 -6.5 L1.2 -6.75 Q1.7 -6.8 2.0 -6.35 L1.2 -6.15 Q0.75 -6.15 0.4 -6.5 M5.4 -6.3 Q5.65 -6.55 6.25 -6.55 6.85 -6.55 7.1 -6.15 L6.25 -5.9 Q5.75 -5.9 5.4 -6.3 M0.5 -22.6 Q1.05 -22.6 1.3 -22.2 L1.2 -22.05 0.5 -22.0 Q0.05 -22.0 -0.3 -22.35 L0.5 -22.6 M8.15 -20.35 L8.25 -20.7 8.8 -20.75 Q9.55 -20.75 9.75 -20.35 L9.65 -20.2 8.95 -20.15 8.15 -20.35 M7.4 -18.6 L7.45 -18.65 8.25 -18.9 Q8.75 -18.95 9.05 -18.5 L8.25 -18.3 7.4 -18.6 M5.85 -21.15 L5.75 -21.0 5.05 -20.95 Q4.6 -20.95 4.25 -21.3 L5.05 -21.55 Q5.6 -21.55 5.85 -21.15 M17.95 -16.55 Q17.4 -16.55 17.1 -17.0 17.4 -17.3 17.95 -17.3 18.85 -17.3 18.75 -16.75 L17.95 -16.55 M14.85 -17.85 L14.05 -18.25 14.85 -18.5 Q15.4 -18.5 15.65 -18.1 15.4 -17.85 14.85 -17.85 M13.25 -19.65 Q13.0 -19.65 12.4 -19.95 L12.45 -20.0 13.25 -20.25 Q13.75 -20.3 14.05 -19.85 L13.25 -19.65 M9.7 -3.9 Q9.1 -3.9 8.85 -4.25 L9.7 -4.5 Q10.3 -4.5 10.55 -4.1 L10.45 -3.95 9.7 -3.9 M17.1 -7.85 L16.4 -7.8 Q15.95 -7.8 15.55 -8.2 L16.25 -8.5 17.2 -8.2 17.1 -7.85 M16.4 -9.75 L17.1 -9.8 Q18.05 -9.8 18.25 -9.4 L18.15 -9.25 17.3 -9.2 16.3 -9.4 16.4 -9.75 M19.25 -11.4 L18.5 -11.35 Q17.9 -11.35 17.65 -11.7 L18.5 -11.95 Q19.1 -11.95 19.35 -11.55 L19.25 -11.4 M13.1 -6.05 Q13.75 -6.05 14.05 -5.7 13.5 -5.35 13.05 -5.35 12.8 -5.35 12.2 -5.65 L13.1 -6.05 M20.7 -15.05 Q21.25 -15.05 21.5 -14.65 21.0 -14.4 20.7 -14.4 L19.9 -14.8 20.7 -15.05 M20.45 -17.9 L20.6 -18.15 21.15 -18.2 Q21.65 -18.35 22.1 -17.9 L22.0 -17.75 21.3 -17.6 20.45 -17.9 M-13.45 -15.35 L-13.55 -15.2 -14.25 -15.15 Q-14.7 -15.15 -15.05 -15.5 L-14.4 -15.75 Q-13.7 -15.75 -13.45 -15.35 M-10.55 -20.05 Q-10.9 -20.05 -11.35 -20.5 L-10.7 -20.75 Q-9.9 -20.75 -9.75 -20.25 L-10.55 -20.05 M-12.45 -23.6 Q-12.45 -24.0 -11.65 -24.0 -10.85 -24.0 -10.85 -23.55 -10.85 -23.2 -11.65 -23.2 -12.45 -23.2 -12.45 -23.6 M-6.45 -22.25 L-5.45 -22.5 Q-4.7 -22.5 -4.45 -22.1 L-5.45 -21.9 Q-6.15 -21.9 -6.45 -22.25 M-2.05 -22.15 L-1.25 -22.4 Q-0.75 -22.45 -0.45 -22.0 L-1.25 -21.8 Q-1.7 -21.8 -2.05 -22.15 M-1.7 -22.8 L-1.8 -22.65 -2.5 -22.6 -3.35 -22.9 -3.2 -23.15 -2.65 -23.2 Q-1.9 -23.2 -1.7 -22.8 M-22.0 -12.45 L-22.7 -12.4 Q-23.15 -12.4 -23.5 -12.75 L-22.7 -13.0 Q-22.15 -13.0 -21.9 -12.6 L-22.0 -12.45 M-10.9 -9.95 L-10.85 -10.0 -10.05 -10.25 Q-9.55 -10.3 -9.25 -9.85 L-10.05 -9.65 -10.9 -9.95 M-14.95 -10.65 Q-14.45 -10.7 -14.15 -10.25 L-14.95 -10.05 -15.8 -10.35 -15.75 -10.4 -14.95 -10.65 M-0.95 -7.5 L-1.0 -7.4 Q-1.25 -7.15 -1.75 -7.15 -2.45 -7.15 -2.6 -7.5 L-2.55 -7.55 -1.75 -7.8 -0.95 -7.5" fill="#696a6c" fill-opacity="0.29803923" fill-rule="evenodd" stroke="none"/>
      <path d="M6.3 -3.45 L6.85 -3.35 7.05 25.7 6.4 25.55 6.3 -3.45 M4.0 -3.95 L4.55 -3.85 4.1 24.95 3.6 24.85 4.0 -3.95 M2.35 -4.35 L2.9 -4.2 3.05 24.7 2.4 24.55 2.35 -4.35 M1.15 -4.6 L1.75 -4.45 1.9 24.4 1.25 24.25 1.15 -4.6 M5.0 -3.75 L5.6 -3.6 5.45 25.3 4.9 25.15 5.0 -3.75 M8.8 -2.9 L9.3 -2.8 8.9 26.15 8.35 26.0 8.8 -2.9 M7.5 -3.2 L8.05 -3.05 8.2 25.95 7.55 25.8 7.5 -3.2 M17.65 -6.35 L18.0 -6.85 18.05 19.25 17.75 19.65 17.65 -6.35 M18.3 -7.3 L18.65 -7.75 18.85 18.1 18.55 18.55 18.3 -7.3 M19.3 -8.65 L19.6 -9.1 19.6 17.05 19.2 17.6 19.3 -8.65 M24.3 -15.7 L24.6 -16.15 24.7 -3.2 24.45 1.4 24.3 -15.7 M9.8 -2.7 L10.4 -2.55 10.2 26.45 9.7 26.35 9.8 -2.7 M16.9 -5.3 L17.25 -5.75 17.15 20.5 16.8 21.0 16.9 -5.3 M16.15 -4.25 L16.5 -4.75 16.45 21.5 16.1 22.0 16.15 -4.25 M15.45 -3.25 L15.75 -3.7 16.0 22.15 15.65 22.6 15.45 -3.25 M14.0 -2.05 L14.35 -2.1 14.3 24.55 13.9 25.1 14.0 -2.05 M13.3 -2.0 L13.65 -2.0 13.6 25.5 13.2 26.05 13.3 -2.0 M14.8 -2.4 L14.95 -2.6 15.15 -2.85 15.2 23.3 14.9 23.65 14.8 -2.4 M12.4 -2.1 L12.45 -2.1 12.8 -2.05 12.95 26.35 12.35 26.65 12.25 -2.15 12.4 -2.1 M11.1 -2.4 L11.65 -2.3 11.85 26.7 11.2 26.7 11.1 -2.4 M-21.15 -9.55 L-20.6 -9.4 -21.05 18.75 -21.55 18.6 -21.15 -9.55 M-23.6 -10.05 L-23.05 -9.95 -22.9 18.3 -23.5 18.15 -23.6 -10.05 M-22.45 -9.8 L-21.9 -9.7 -21.75 18.55 -22.35 18.4 -22.45 -9.8 M0.45 -4.75 L0.3 24.0 -0.25 23.9 -0.15 -4.9 0.45 -4.75 M20.0 -9.6 L20.35 -10.15 20.25 16.1 19.9 16.65 20.0 -9.6 M21.45 -11.65 L21.75 -12.1 21.95 13.75 21.65 14.2 21.45 -11.65 M20.75 -10.75 L21.1 -11.2 21.2 14.8 20.85 15.3 20.75 -10.75 M25.35 -17.2 L25.4 -17.3 25.35 -16.2 25.35 -17.2 M23.65 -14.8 L24.0 -15.3 24.05 7.3 23.7 10.65 23.65 -14.8 M22.85 -13.7 L23.2 -14.2 23.15 12.0 22.75 12.55 22.85 -13.7 M22.15 -12.7 L22.5 -13.2 22.45 13.0 22.1 13.55 22.15 -12.7 M-13.7 -7.9 L-13.1 -7.75 -12.95 20.75 -13.6 20.6 -13.7 -7.9 M-18.85 -9.05 L-18.25 -8.9 -18.1 19.45 -18.75 19.3 -18.85 -9.05 M-17.65 -8.75 L-17.1 -8.65 -17.0 19.75 -17.6 19.6 -17.65 -8.75 M-20.15 -9.3 L-19.55 -9.2 -19.7 19.05 -20.25 18.95 -20.15 -9.3 M-16.0 -8.4 L-15.45 -8.25 -15.85 20.0 -16.4 19.9 -16.0 -8.4 M-12.5 -7.6 L-11.95 -7.5 -11.85 21.0 -12.45 20.85 -12.5 -7.6 M-11.25 -7.35 L-10.7 -7.2 -11.1 21.2 -11.65 21.05 -11.25 -7.35 M-15.0 -8.15 L-14.4 -8.05 -14.55 20.35 -15.1 20.2 -15.0 -8.15 M-10.25 -7.1 L-9.65 -7.0 -9.8 21.5 -10.3 21.4 -10.25 -7.1 M-3.6 -5.65 L-3.05 -5.55 -2.9 23.25 -3.5 23.1 -3.6 -5.65 M-4.9 -5.95 L-4.3 -5.8 -4.45 22.85 -5.0 22.7 -4.9 -5.95 M-1.15 -5.1 L-0.6 -5.0 -1.05 23.7 -1.55 23.55 -1.15 -5.1 M-2.45 -5.4 L-1.9 -5.25 -1.75 23.5 -2.35 23.35 -2.45 -5.4 M-5.9 -6.15 L-5.4 -6.05 -5.8 22.5 -6.35 22.4 -5.9 -6.15 M-8.9 -6.8 L-8.35 -6.7 -8.2 21.9 -8.8 21.75 -8.9 -6.8 M-7.75 -6.55 L-7.2 -6.45 -7.05 22.2 -7.65 22.05 -7.75 -6.55" fill="#bfbfbf" fill-opacity="0.29803923" fill-rule="evenodd" stroke="none"/>
    </g>
    <linearGradient gradientTransform="matrix(-0.0038, -1.0E-4, -4.0E-4, 0.018, 13.1, 12.1)" gradientUnits="userSpaceOnUse" id="gradient0" spreadMethod="pad" x1="-819.2" x2="819.2">
      <stop offset="0.23529411764705882" stop-color="#484742"/>
      <stop offset="0.40784313725490196" stop-color="#58595a"/>
      <stop offset="0.5607843137254902" stop-color="#696a6c"/>
    </linearGradient>
    <linearGradient gradientTransform="matrix(-0.6353, 0.7681, 0.7681, 0.6353, 206.6, -1256.2)" gradientUnits="userSpaceOnUse" id="gradient1" spreadMethod="pad" x1="-819.2" x2="819.2">
      <stop offset="0.23529411764705882" stop-color="#484742"/>
      <stop offset="0.3215686274509804" stop-color="#58595a"/>
      <stop offset="0.396078431372549" stop-color="#696a6c"/>
    </linearGradient>
  </defs>
</svg>
