<?xml version="1.0" encoding="UTF-8" standalone="no"?>
<svg xmlns:xlink="http://www.w3.org/1999/xlink" height="48.4px" width="40.05px" xmlns="http://www.w3.org/2000/svg">
  <g transform="matrix(1.0, 0.0, 0.0, 1.0, 20.0, 24.2)">
    <use height="48.4" transform="matrix(1.0, 0.0, 0.0, 1.0, -20.0, -24.2)" width="40.05" xlink:href="#shape0"/>
  </g>
  <defs>
    <g id="shape0" transform="matrix(1.0, 0.0, 0.0, 1.0, 20.0, 24.2)">
      <path d="M17.05 -22.05 L16.35 -21.8 16.1 -21.1 Q16.1 -20.7 16.35 -20.45 16.65 -20.15 17.05 -20.15 17.45 -20.15 17.7 -20.45 L18.0 -21.1 17.7 -21.8 17.05 -22.05 M2.35 -4.85 Q3.2 -5.8 3.95 -7.3 10.6 -18.1 17.6 -24.1 19.25 -24.3 19.95 -22.3 15.45 -13.95 6.1 -4.7 1.8 -0.4 5.35 4.15 L4.75 4.95 -1.25 -0.5 -3.1 -2.15 -4.35 -3.25 -3.85 -4.0 Q-3.0 -3.5 -2.2 -3.3 0.25 -2.6 2.2 -4.65 L2.35 -4.85" fill="#333333" fill-rule="evenodd" stroke="none"/>
      <path d="M3.75 6.25 L3.2 7.0 -2.95 1.55 -4.75 0.0 -6.0 -1.1 -5.4 -1.85 -4.2 -0.75 -2.35 0.85 3.75 6.25 M1.2 9.55 L0.2 10.85 -6.15 5.4 -7.85 3.95 -9.0 2.9 -8.0 1.6 -6.8 2.6 -5.1 4.1 1.2 9.55" fill="#a38d3a" fill-rule="evenodd" stroke="none"/>
      <path d="M4.75 4.95 L3.75 6.25 -2.35 0.85 -1.25 -0.5 4.75 4.95 M3.2 7.0 L1.2 9.55 -5.1 4.1 -2.95 1.55 3.2 7.0 M0.2 10.85 L-0.8 12.15 -1.1 11.9 -2.0 11.1 -2.9 10.35 -4.0 9.4 -5.1 8.45 -6.05 7.65 -7.0 6.85 -7.25 6.65 -6.15 5.4 0.2 10.85 M-9.7 4.55 L-10.05 4.25 -9.0 2.9 -7.85 3.95 -8.85 5.25 -9.3 4.85 -9.7 4.55 M-8.0 1.6 L-6.0 -1.1 -4.75 0.0 -6.8 2.6 -8.0 1.6 M-5.4 -1.85 L-4.35 -3.25 -3.1 -2.15 -4.2 -0.75 -5.4 -1.85" fill="#c9b569" fill-rule="evenodd" stroke="none"/>
      <path d="M-3.1 -2.15 L-1.25 -0.5 -2.35 0.85 -4.2 -0.75 -3.1 -2.15 M-4.75 0.0 L-2.95 1.55 -5.1 4.1 -6.8 2.6 -4.75 0.0 M-8.0 6.0 L-8.85 5.25 -7.85 3.95 -6.15 5.4 -7.25 6.65 -8.0 6.0" fill="#f1edc9" fill-rule="evenodd" stroke="none"/>
      <path d="M-1.1 11.9 Q-5.55 17.9 -9.15 24.1 L-9.3 23.8 -9.35 23.75 -9.35 23.7 -9.75 23.75 -9.75 23.6 -9.75 23.5 -9.8 23.45 -9.9 23.25 -10.05 23.3 -10.25 23.25 -10.35 22.9 -10.4 22.8 -10.6 22.75 -10.85 22.75 -10.9 22.65 -11.0 22.5 -11.1 22.45 -11.2 22.05 -11.2 21.95 -11.7 21.9 -11.8 21.85 -11.85 21.0 -11.85 20.9 -12.0 20.85 -12.9 20.75 -13.1 20.7 -13.2 20.1 -13.25 20.05 -13.75 20.05 -14.25 20.1 -14.35 20.05 -14.15 18.95 -14.25 18.95 -14.65 19.0 -14.85 18.95 -14.95 18.5 -14.95 18.4 -15.75 18.4 -15.85 18.25 -15.85 18.0 -16.05 17.85 -16.1 17.85 -16.15 17.45 -16.2 17.4 -16.85 17.4 -16.9 17.35 -16.9 17.05 -16.9 17.0 -17.3 16.95 -17.25 16.65 -17.25 16.4 -17.35 16.2 -17.95 16.25 -18.3 16.15 -18.4 15.85 -18.4 15.8 -19.0 15.8 -19.05 15.75 -19.05 15.65 Q-19.05 15.4 -19.3 15.45 -19.5 15.5 -19.5 15.35 -19.45 15.1 -19.7 15.15 L-19.9 15.0 -19.9 14.95 Q-14.8 10.55 -9.7 4.55 L-9.3 4.85 -8.95 5.2 -14.0 12.6 -8.0 6.0 -7.25 6.65 -7.0 6.85 -12.6 15.0 -6.05 7.65 -5.1 8.45 -10.15 15.9 -4.0 9.4 -2.9 10.35 -9.9 18.5 -2.0 11.1 -1.1 11.9" fill="url(#gradient0)" fill-rule="evenodd" stroke="none"/>
      <path d="M-8.85 5.25 L-8.0 6.0 -14.0 12.6 -8.95 5.2 -8.85 5.25 M-5.1 8.45 L-4.0 9.4 -10.15 15.9 -5.1 8.45 M-2.9 10.35 L-2.0 11.1 -9.9 18.5 -2.9 10.35 M-7.0 6.85 L-6.05 7.65 -12.6 15.0 -7.0 6.85" fill="#342f2a" fill-rule="evenodd" stroke="none"/>
      <path d="M17.05 -22.05 L17.7 -21.8 18.0 -21.1 17.7 -20.45 Q17.45 -20.15 17.05 -20.15 16.65 -20.15 16.35 -20.45 16.1 -20.7 16.1 -21.1 L16.35 -21.8 17.05 -22.05 M2.35 -4.85 Q3.2 -5.8 3.95 -7.3 10.6 -18.1 17.6 -24.1 19.25 -24.3 19.95 -22.3 15.45 -13.95 6.1 -4.7 1.8 -0.4 5.35 4.15 L4.75 4.95 M-4.35 -3.25 L-3.85 -4.0 Q-3.0 -3.5 -2.2 -3.3 0.25 -2.6 2.2 -4.65" fill="none" stroke="#000000" stroke-linecap="round" stroke-linejoin="round" stroke-width="0.25"/>
      <path d="M4.75 4.95 L3.75 6.25 M3.2 7.0 L1.2 9.55 M0.2 10.85 L-0.8 12.15 -1.1 11.9 M-9.7 4.55 L-10.05 4.25 -9.0 2.9 -7.85 3.95 M-8.0 1.6 L-6.0 -1.1 M-5.4 -1.85 L-4.35 -3.25 M-1.25 -0.5 L-3.1 -2.15 -4.35 -3.25 M-4.2 -0.75 L-2.35 0.85 3.75 6.25 M-1.25 -0.5 L4.75 4.95 M-5.4 -1.85 L-4.2 -0.75 M-4.75 0.0 L-2.95 1.55 3.2 7.0 M-8.85 5.25 L-8.0 6.0 -7.25 6.65 M-6.15 5.4 L-7.85 3.95 M-8.85 5.25 L-9.3 4.85 M-9.7 4.55 L-9.3 4.85 M-8.0 1.6 L-6.8 2.6 -5.1 4.1 1.2 9.55 M-4.75 0.0 L-6.0 -1.1 M-6.05 7.65 L-5.1 8.45 -4.0 9.4 -2.9 10.35 -2.0 11.1 -1.1 11.9 M-7.0 6.85 L-6.05 7.65 M-7.0 6.85 L-7.25 6.65 M-6.15 5.4 L0.2 10.85" fill="none" stroke="#a38d3a" stroke-linecap="round" stroke-linejoin="round" stroke-width="0.25"/>
      <path d="M-9.8 11.1 L-9.9 11.35 -10.15 12.65 -10.05 13.1 -9.85 13.25 -9.45 13.35 -8.25 13.35 Q-8.0 13.35 -7.95 13.55 -7.7 14.1 -7.75 14.7 L-7.9 15.3 -8.05 15.65 -8.1 16.1 -7.85 16.5 -7.8 16.55 -7.45 16.95 -7.35 16.95 -6.65 16.8 -6.1 16.5 -5.3 16.2 -5.05 16.15 -4.1 16.15 -9.15 24.1 -9.3 23.8 -9.35 23.75 -9.35 23.7 -9.75 23.75 -9.75 23.6 -9.75 23.5 -9.8 23.45 -9.9 23.25 -10.05 23.3 -10.25 23.25 -10.35 22.9 -10.4 22.8 -10.6 22.75 -10.85 22.75 -10.9 22.65 -11.0 22.5 -11.1 22.45 -11.2 22.05 -11.2 21.95 -11.7 21.9 -11.8 21.85 -11.85 21.0 -11.85 20.9 -12.0 20.85 -12.9 20.75 -13.1 20.7 -13.2 20.1 -13.25 20.05 -13.75 20.05 -14.25 20.1 -14.35 20.05 -14.15 18.95 -14.25 18.95 -14.65 19.0 -14.85 18.95 -14.95 18.5 -14.95 18.4 -15.75 18.4 -15.85 18.25 -15.85 18.0 -16.05 17.85 -16.1 17.85 -16.15 17.45 -16.2 17.4 -16.85 17.4 -16.9 17.35 -16.9 17.05 -16.9 17.0 -17.3 16.95 -17.25 16.65 -17.25 16.4 -17.35 16.2 -17.95 16.25 -18.3 16.15 -18.4 15.85 -18.4 15.8 -19.0 15.8 -19.05 15.75 -19.05 15.65 Q-19.05 15.4 -19.3 15.45 -19.5 15.5 -19.5 15.35 -19.45 15.1 -19.7 15.15 L-19.9 15.0 -19.9 14.95 Q-15.6 11.2 -11.3 6.4 L-11.2 6.8 Q-11.15 7.25 -11.4 7.7 L-11.55 8.6 -11.55 8.85 -11.5 8.9 -10.3 8.95 -10.15 8.95 -10.0 9.05 Q-9.7 9.35 -9.7 9.8 L-9.7 10.05 -9.8 11.1" fill="#ffffff" fill-rule="evenodd" stroke="none"/>
      <path d="M-9.8 11.1 L-9.9 11.35 -10.15 12.65 -10.05 13.1 -9.85 13.25 -9.45 13.35 -8.25 13.35 Q-8.0 13.35 -7.95 13.55 -7.7 14.1 -7.75 14.7 L-7.9 15.3 -8.05 15.65 -8.1 16.1 -7.85 16.5 -7.8 16.55 -7.45 16.95 -7.35 16.95 -6.65 16.8 -6.1 16.5 -5.3 16.2 -5.05 16.15 -4.1 16.15 -9.15 24.1 -9.3 23.8 -9.35 23.75 -9.35 23.7 -9.75 23.75 -9.75 23.6 -9.75 23.5 -9.8 23.45 -9.9 23.25 -10.05 23.3 -10.25 23.25 -10.35 22.9 -10.4 22.8 -10.6 22.75 -10.85 22.75 -10.9 22.65 -11.0 22.5 -11.1 22.45 -11.2 22.05 -11.2 21.95 -11.7 21.9 -11.8 21.85 -11.85 21.0 -11.85 20.9 -12.0 20.85 -12.9 20.75 -13.1 20.7 -13.2 20.1 -13.25 20.05 -13.75 20.05 -14.25 20.1 -14.35 20.05 -14.15 18.95 -14.25 18.95 -14.65 19.0 -14.85 18.95 -14.95 18.5 -14.95 18.4 -15.75 18.4 -15.85 18.25 -15.85 18.0 -16.05 17.85 -16.1 17.85 -16.15 17.45 -16.2 17.4 -16.85 17.4 -16.9 17.35 -16.9 17.05 -16.9 17.0 -17.3 16.95 -17.25 16.65 -17.25 16.4 -17.35 16.2 -17.95 16.25 -18.3 16.15 -18.4 15.85 -18.4 15.8 -19.0 15.8 -19.05 15.75 -19.05 15.65 Q-19.05 15.4 -19.3 15.45 -19.5 15.5 -19.5 15.35 -19.45 15.1 -19.7 15.15 L-19.9 15.0 -19.9 14.95 Q-15.6 11.2 -11.3 6.4 L-11.2 6.8 Q-11.15 7.25 -11.4 7.7 L-11.55 8.6 -11.55 8.85 -11.5 8.9 -10.3 8.95 -10.15 8.95 -10.0 9.05 Q-9.7 9.35 -9.7 9.8 L-9.7 10.05 -9.8 11.1 Z" fill="none" stroke="#e1e1e1" stroke-linecap="round" stroke-linejoin="round" stroke-width="0.25"/>
    </g>
    <linearGradient gradientTransform="matrix(0.0067, -0.0067, 0.0061, 0.0061, -9.6, 14.45)" gradientUnits="userSpaceOnUse" id="gradient0" spreadMethod="pad" x1="-819.2" x2="819.2">
      <stop offset="0.2784313725490196" stop-color="#2a2623"/>
      <stop offset="0.47843137254901963" stop-color="#b3a582"/>
      <stop offset="0.6235294117647059" stop-color="#504a3c"/>
    </linearGradient>
  </defs>
</svg>
