<?xml version="1.0" encoding="UTF-8" standalone="no"?>
<svg xmlns:xlink="http://www.w3.org/1999/xlink" height="29.3px" width="47.85px" xmlns="http://www.w3.org/2000/svg">
  <g transform="matrix(1.0, 0.0, 0.0, 1.0, 23.9, 14.65)">
    <use height="29.3" transform="matrix(1.0, 0.0, 0.0, 1.0, -23.9, -14.65)" width="47.85" xlink:href="#shape0"/>
  </g>
  <defs>
    <g id="shape0" transform="matrix(1.0, 0.0, 0.0, 1.0, 23.9, 14.65)">
      <path d="M3.9 -8.85 L6.85 -9.3 Q12.35 -10.05 13.1 -3.5 L-5.95 -0.25 Q-5.25 -3.45 -3.95 -5.35 L4.45 -6.85 3.9 -8.85 M-7.6 -4.7 L-9.25 -0.35 -14.1 -3.15 -13.95 -3.55 -7.6 -4.7 M16.4 -0.15 L16.95 -0.2 Q21.4 0.35 21.65 5.55 L21.35 5.55 21.4 5.15 Q21.35 3.3 20.2 1.9 L19.7 1.35 Q18.3 0.0 16.4 -0.15 M-6.15 3.6 Q-4.6 2.7 -2.35 2.75 2.4 3.15 2.8 7.85 L2.1 7.9 Q1.85 6.55 0.95 5.45 L0.4 4.85 Q-1.35 3.2 -3.85 3.25 L-6.15 3.6 M-6.9 -11.2 L-7.65 -11.75 Q-1.3 -14.65 7.1 -13.85 L11.9 -12.45 Q7.05 -12.2 2.5 -11.15 0.15 -13.8 -6.9 -11.2 M-15.05 2.45 L-15.05 2.5 -15.25 3.3 -19.1 1.5 -19.05 1.35 -18.55 0.75 -15.05 2.45 M-15.55 4.1 L-15.9 5.0 -19.7 3.2 -19.4 2.35 -15.55 4.1 M-16.25 6.1 L-16.55 7.0 -20.35 4.95 -20.05 4.2 -16.25 6.1 M-16.85 7.8 L-17.2 8.45 -20.8 6.35 -20.6 5.7 -16.85 7.8 M-17.75 0.2 L-17.4 0.05 -17.05 0.0 -16.0 0.15 Q-15.2 0.55 -15.05 1.45 L-17.75 0.2" fill="#760101" fill-rule="evenodd" stroke="none"/>
      <path d="M13.1 -3.5 Q12.35 -10.05 6.85 -9.3 L3.9 -8.85 -1.05 -7.75 Q-2.75 -7.15 -3.95 -5.35 -5.25 -3.45 -5.95 -0.25 L-9.25 -0.35 -7.6 -4.7 Q-6.55 -6.85 -5.1 -8.25 L-10.3 -11.1 Q-7.1 -13.15 -1.35 -14.3 6.4 -15.35 12.85 -13.1 16.85 -12.05 18.05 -11.0 L19.75 -4.9 13.1 -3.5 M21.65 5.55 Q21.4 0.35 16.95 -0.2 L16.4 -0.15 Q12.95 0.3 11.45 3.45 L10.9 4.9 10.5 6.9 10.4 7.35 10.35 8.3 3.05 9.15 2.85 8.15 2.8 7.85 Q2.4 3.15 -2.35 2.75 -4.6 2.7 -6.15 3.6 -8.5 4.95 -9.3 8.4 L-9.3 8.45 -9.65 10.7 -9.7 11.85 Q-11.0 12.55 -12.4 12.65 -15.6 12.85 -19.65 10.2 L-22.2 10.7 Q-23.4 10.85 -23.9 10.2 -24.1 8.75 -22.05 8.5 L-23.15 7.55 Q-24.2 5.45 -21.2 4.7 -22.85 5.6 -21.9 7.0 L-16.95 9.9 -13.15 10.9 -12.4 11.05 -12.35 9.85 -12.35 9.55 Q-11.2 1.35 -3.9 0.7 3.5 0.05 4.15 7.0 L7.65 6.45 Q8.3 -0.55 14.2 -2.45 18.0 -3.55 20.85 -0.9 22.75 0.6 23.2 3.75 L23.95 3.75 23.95 5.7 21.65 6.25 21.65 5.55 M2.5 -11.15 Q7.05 -12.2 11.9 -12.45 L7.1 -13.85 Q-1.3 -14.65 -7.65 -11.75 L-6.9 -11.2 Q-5.6 -10.45 -2.65 -9.65 L2.5 -11.15 M-14.3 -1.6 Q-10.95 -1.85 -10.5 0.75 L-14.35 2.1 -14.65 3.1 -16.8 9.3 Q-19.1 7.95 -21.45 6.55 L-19.3 0.7 Q-18.4 -0.65 -17.3 -0.95 L-16.85 -1.0 -14.3 -1.6 M-9.1 1.9 Q-11.65 4.35 -12.3 6.85 L-12.45 7.55 -12.85 8.45 Q-12.0 4.6 -12.25 2.6 -12.5 2.35 -12.75 2.4 L-9.65 0.75 -9.1 1.9 M-15.25 3.3 L-15.05 2.5 -15.05 2.45 -15.05 1.45 Q-15.2 0.55 -16.0 0.15 L-17.05 0.0 -17.4 0.05 -17.75 0.2 -18.55 0.75 -19.05 1.35 -19.1 1.5 -19.4 2.35 -19.7 3.2 -20.05 4.2 -20.35 4.95 -20.6 5.7 -20.8 6.35 -17.2 8.45 -16.85 7.8 -16.55 7.0 -16.25 6.1 -15.9 5.0 -15.55 4.1 -15.25 3.3" fill="#cc0000" fill-rule="evenodd" stroke="none"/>
      <path d="M13.1 -3.5 L19.75 -4.9 Q20.8 -4.6 20.85 -0.9 18.0 -3.55 14.2 -2.45 8.3 -0.55 7.65 6.45 L4.15 7.0 Q3.5 0.05 -3.9 0.7 -11.2 1.35 -12.35 9.55 L-12.35 9.85 -12.4 11.05 -13.15 10.9 -16.95 9.9 -21.9 7.0 Q-22.85 5.6 -21.2 4.7 L-19.65 -0.6 Q-18.45 -2.25 -15.75 -2.7 L-14.1 -3.15 -9.25 -0.35 -5.95 -0.25 13.1 -3.5 M-14.3 -1.6 L-16.85 -1.0 -17.3 -0.95 Q-18.4 -0.65 -19.3 0.7 L-21.45 6.55 Q-19.1 7.95 -16.8 9.3 L-14.65 3.1 -14.35 2.1 -10.5 0.75 Q-10.95 -1.85 -14.3 -1.6 M-9.1 1.9 L-9.65 0.75 -12.75 2.4 Q-12.5 2.35 -12.25 2.6 -12.0 4.6 -12.85 8.45 L-12.45 7.55 -12.3 6.85 Q-11.65 4.35 -9.1 1.9 M-15.25 3.3 L-15.55 4.1 -19.4 2.35 -19.1 1.5 -15.25 3.3 M-15.9 5.0 L-16.25 6.1 -20.05 4.2 -19.7 3.2 -15.9 5.0 M-16.55 7.0 L-16.85 7.8 -20.6 5.7 -20.35 4.95 -16.55 7.0 M-18.55 0.75 L-17.75 0.2 -15.05 1.45 -15.05 2.45 -18.55 0.75" fill="#a90101" fill-rule="evenodd" stroke="none"/>
      <path d="M10.9 4.9 L11.45 3.45 Q11.8 2.75 12.45 2.2 14.15 0.6 16.5 0.65 18.65 0.6 20.2 1.9 21.35 3.3 21.4 5.15 L21.35 5.55 Q21.2 7.55 19.7 9.0 18.05 10.55 15.7 10.55 13.5 10.55 11.9 9.25 11.05 8.2 10.85 6.85 L10.8 6.0 10.9 4.9 M20.4 5.95 L20.4 5.7 Q20.5 4.5 19.8 3.6 18.95 2.6 17.6 2.6 16.2 2.6 15.05 3.6 13.9 4.55 13.65 5.95 L13.6 6.55 Q13.6 7.55 14.25 8.3 15.05 9.3 16.45 9.3 17.85 9.3 19.0 8.3 20.15 7.3 20.4 5.95 M0.95 5.45 Q1.85 6.55 2.1 7.9 L2.2 8.95 Q2.2 11.3 0.4 12.95 -1.35 14.65 -3.85 14.65 -6.15 14.65 -7.85 13.25 -9.05 11.75 -9.05 9.8 -9.05 7.45 -7.3 5.75 -5.5 4.1 -2.95 4.1 -0.7 4.1 0.95 5.45 M1.15 9.75 Q1.4 8.3 0.5 7.25 -0.35 6.2 -1.8 6.2 -3.3 6.2 -4.5 7.25 -5.75 8.3 -6.0 9.75 -6.25 11.2 -5.4 12.25 -4.55 13.3 -3.05 13.3 -1.6 13.3 -0.35 12.25 0.85 11.2 1.15 9.75" fill="#194b7a" fill-rule="evenodd" stroke="none"/>
      <path d="M-9.65 10.7 L-9.3 8.45 -9.3 8.4 Q-8.5 4.95 -6.15 3.6 L-3.85 3.25 Q-1.35 3.2 0.4 4.85 L0.95 5.45 Q-0.7 4.1 -2.95 4.1 -5.5 4.1 -7.3 5.75 -9.05 7.45 -9.05 9.8 -9.05 11.75 -7.85 13.25 L-8.15 12.95 Q-9.25 11.95 -9.65 10.7 M10.4 7.35 L10.5 6.9 10.9 4.9 10.8 6.0 10.85 6.85 Q11.05 8.2 11.9 9.25 L11.6 9.0 10.4 7.35 M11.45 3.45 Q12.95 0.3 16.4 -0.15 18.3 0.0 19.7 1.35 L20.2 1.9 Q18.65 0.6 16.5 0.65 14.15 0.6 12.45 2.2 11.8 2.75 11.45 3.45 M20.4 5.95 Q20.15 7.3 19.0 8.3 17.85 9.3 16.45 9.3 15.05 9.3 14.25 8.3 13.6 7.55 13.6 6.55 L13.65 5.95 Q13.9 4.55 15.05 3.6 16.2 2.6 17.6 2.6 18.95 2.6 19.8 3.6 20.5 4.5 20.4 5.7 L20.4 5.95 M17.4 4.1 Q16.6 4.05 15.95 4.6 15.3 5.15 15.2 5.95 L15.2 6.35 Q15.15 6.85 15.5 7.3 15.95 7.85 16.75 7.85 17.5 7.85 18.15 7.3 18.8 6.7 18.95 5.95 L18.95 5.9 Q19.05 5.15 18.65 4.6 18.15 4.05 17.4 4.1" fill="#123a54" fill-rule="evenodd" stroke="none"/>
      <path d="M17.4 4.1 Q18.15 4.05 18.65 4.6 19.05 5.15 18.95 5.9 L18.95 5.95 Q18.8 6.7 18.15 7.3 17.5 7.85 16.75 7.85 15.95 7.85 15.5 7.3 15.15 6.85 15.2 6.35 L15.2 5.95 Q15.3 5.15 15.95 4.6 16.6 4.05 17.4 4.1 M16.95 5.6 L16.95 6.15 17.5 6.15 17.5 5.6 16.95 5.6" fill="#030a0e" fill-rule="evenodd" stroke="none"/>
      <path d="M16.95 5.6 L17.5 5.6 17.5 6.15 16.95 6.15 16.95 5.6 M1.15 9.75 Q0.85 11.2 -0.35 12.25 -1.6 13.3 -3.05 13.3 -4.55 13.3 -5.4 12.25 -6.25 11.2 -6.0 9.75 -5.75 8.3 -4.5 7.25 -3.3 6.2 -1.8 6.2 -0.35 6.2 0.5 7.25 1.4 8.3 1.15 9.75 M-0.05 7.75 Q-0.75 6.9 -1.9 6.9 -3.1 6.9 -4.05 7.75 -5.05 8.6 -5.25 9.8 -5.45 10.95 -4.8 11.8 -4.1 12.6 -2.9 12.65 -1.75 12.6 -0.75 11.8 0.2 10.95 0.45 9.8 0.65 8.6 -0.05 7.75 M-0.75 8.35 Q-0.25 8.9 -0.4 9.75 -0.55 10.55 -1.2 11.15 -1.9 11.7 -2.7 11.75 -3.55 11.7 -4.05 11.15 -4.5 10.55 -4.35 9.75 -4.25 8.9 -3.55 8.35 -2.85 7.75 -2.05 7.75 -1.25 7.75 -0.75 8.35" fill="#f0ece3" fill-rule="evenodd" stroke="none"/>
      <path d="M-0.05 7.75 Q0.65 8.6 0.45 9.8 0.2 10.95 -0.75 11.8 -1.75 12.6 -2.9 12.65 -4.1 12.6 -4.8 11.8 -5.45 10.95 -5.25 9.8 -5.05 8.6 -4.05 7.75 -3.1 6.9 -1.9 6.9 -0.75 6.9 -0.05 7.75 M-0.75 8.35 Q-1.25 7.75 -2.05 7.75 -2.85 7.75 -3.55 8.35 -4.25 8.9 -4.35 9.75 -4.5 10.55 -4.05 11.15 -3.55 11.7 -2.7 11.75 -1.9 11.7 -1.2 11.15 -0.55 10.55 -0.4 9.75 -0.25 8.9 -0.75 8.35" fill="#7e7b70" fill-rule="evenodd" stroke="none"/>
      <path d="M5.2 7.1 Q5.3 6.6 5.8 6.4 L6.9 6.35 7.85 6.95 Q8.15 7.4 8.05 7.85 L7.4 8.55 6.3 8.6 5.4 8.0 Q5.05 7.55 5.2 7.1 M8.65 2.9 L8.65 4.05 4.6 5.65 4.3 5.75 Q3.35 6.05 3.2 4.9 L3.15 4.5 8.65 2.9 M18.85 -8.15 L18.85 -7.05 11.9 -10.55 12.0 -11.15 18.85 -8.15 M17.9 -6.6 L18.85 -7.05 19.75 -4.55 13.45 -7.75 13.45 -8.45 17.9 -6.6 M1.2 -0.6 L1.25 -0.45 1.3 -0.3 12.8 -2.85 11.3 -2.15 17.2 -3.35 17.2 -2.5 Q14.2 -3.05 10.35 -0.35 L8.7 0.95 8.5 1.15 1.95 3.5 3.1 3.05 Q1.9 0.95 -0.95 1.0 L-0.55 0.5 -0.8 -0.45 Q0.25 -2.0 1.2 -0.6 M-3.6 -8.9 Q-3.0 -8.9 -2.95 -8.25 L-6.8 -2.15 Q-7.5 -2.15 -7.5 -2.85 L-5.9 -5.9 Q-4.2 -8.9 -3.6 -8.9 M-8.45 2.55 Q-8.45 2.05 -6.45 1.45 L-4.45 0.95 Q-3.9 0.95 -3.8 1.6 -3.8 1.85 -5.5 2.55 L-7.8 3.2 -8.45 2.55" fill="#432801" fill-opacity="0.48235294" fill-rule="evenodd" stroke="none"/>
    </g>
  </defs>
</svg>
