<?xml version="1.0" encoding="UTF-8" standalone="no"?>
<svg xmlns:xlink="http://www.w3.org/1999/xlink" height="43.85px" width="69.8px" xmlns="http://www.w3.org/2000/svg">
  <g transform="matrix(1.0, 0.0, 0.0, 1.0, 34.9, 21.9)">
    <use height="43.85" transform="matrix(1.0, 0.0, 0.0, 1.0, -34.9, -21.9)" width="69.8" xlink:href="#shape0"/>
  </g>
  <defs>
    <g id="shape0" transform="matrix(1.0, 0.0, 0.0, 1.0, 34.9, 21.9)">
      <path d="M8.2 -17.3 L8.5 -0.55 -6.05 4.55 -6.05 4.45 Q-6.0 4.25 -6.1 4.1 L-6.2 3.9 -6.4 3.0 -6.4 2.2 Q-6.45 1.35 -5.75 1.05 -5.05 0.75 -5.15 0.0 L-5.3 -0.3 -5.7 -0.65 Q-5.9 -0.3 -6.4 -0.3 -7.9 -0.4 -7.9 -1.55 -7.9 -2.3 -7.25 -2.3 L-7.3 -2.7 -6.95 -4.2 -6.7 -4.6 -6.55 -4.8 -6.15 -5.4 Q-6.0 -5.7 -6.3 -5.9 L-6.75 -6.25 -8.0 -7.3 -8.9 -8.35 -9.05 -8.65 -9.05 -9.3 -9.15 -10.0 Q-9.85 -11.35 -11.1 -12.0 L-11.7 -12.3 -12.35 -12.6 8.2 -17.3 M-12.55 -7.1 L-12.7 -6.6 Q-12.95 -6.05 -13.6 -6.1 -14.4 -6.15 -14.4 -7.05 -14.25 -8.35 -13.5 -8.25 -12.55 -8.2 -12.55 -7.1 M-18.15 8.8 L-18.3 8.15 -18.6 6.6 -18.7 6.15 Q-19.35 4.4 -19.3 2.55 L-19.35 1.95 -19.2 1.35 -18.8 0.9 -17.8 0.0 Q-17.6 -0.25 -17.65 -0.65 L-17.65 -1.1 -17.7 -1.35 -18.05 -1.3 Q-18.85 -1.4 -18.85 -2.25 -18.75 -3.1 -18.1 -3.1 L-18.3 -4.35 -18.25 -4.45 -17.1 -4.9 -16.7 -5.2 -16.7 -5.3 -17.15 -6.0 -17.55 -6.9 -17.55 -7.6 -17.45 -7.9 -17.35 -8.2 -17.65 -8.15 Q-18.45 -8.25 -18.45 -9.15 -18.45 -10.1 -17.6 -10.05 -16.8 -10.0 -16.85 -9.1 L-16.9 -8.6 -16.95 -8.5 -16.7 -8.1 -16.5 -7.6 Q-15.55 -6.3 -15.2 -4.7 L-15.1 -3.9 -15.2 -2.4 -14.75 -1.75 -13.7 -1.2 -12.9 -0.6 -12.4 0.0 Q-12.1 -0.65 -11.5 -0.6 -10.7 -0.6 -10.7 0.35 L-10.95 1.1 -11.3 1.55 -10.35 3.1 -9.45 5.1 -9.3 5.7 -18.15 8.8 M-16.2 -2.9 L-16.55 -2.75 -16.7 -2.4 -16.6 -1.55 -16.5 -0.75 -16.7 1.55 -16.95 2.2 -17.95 3.35 -18.05 3.6 Q-18.05 4.3 -17.45 4.85 L-16.75 5.55 -16.0 5.8 Q-14.35 5.7 -12.75 5.85 L-12.6 5.95 Q-12.0 6.7 -11.45 5.95 L-11.45 5.9 -11.75 4.25 -11.85 3.6 Q-11.95 3.15 -12.4 3.05 -13.45 2.8 -14.15 2.15 L-15.4 0.55 -15.65 -0.2 -15.75 -0.6 -15.8 -2.5 -15.85 -2.65 -16.2 -2.9 M-8.15 1.45 Q-9.05 1.4 -9.05 0.45 -9.05 -0.45 -8.25 -0.4 -7.3 -0.35 -7.35 0.65 -7.35 1.5 -8.15 1.45 M-10.2 -3.85 L-10.95 -4.85 Q-10.9 -5.7 -10.0 -5.6 -9.15 -5.6 -8.55 -4.9 -8.0 -4.3 -8.0 -3.95 L-8.1 -3.5 Q-8.3 -3.05 -8.8 -3.05 -9.4 -3.1 -10.2 -3.85 M-11.25 -3.0 Q-11.55 -2.3 -12.4 -2.3 -13.75 -2.4 -13.75 -4.05 -13.85 -5.6 -12.6 -5.55 -11.0 -5.45 -11.05 -3.8 L-11.25 -3.0" fill="#999999" fill-rule="evenodd" stroke="none"/>
      <path d="M-29.75 -16.1 Q-27.3 -14.65 -26.95 -14.7 L-26.9 -14.7 -20.0 -10.85 -19.35 9.2 -29.75 2.6 -29.75 -16.1" fill="#682020" fill-rule="evenodd" stroke="none"/>
      <path d="M8.2 -17.3 L-12.35 -12.6 -16.7 -11.6 -16.55 -11.75 -16.6 -11.75 -20.0 -10.85 -26.9 -14.7 -29.75 -16.1 -0.55 -21.75 8.2 -17.3" fill="#924b4b" fill-rule="evenodd" stroke="none"/>
      <path d="M-12.35 -12.6 L-11.7 -12.3 -11.1 -12.0 Q-9.85 -11.35 -9.15 -10.0 L-9.05 -9.3 -9.05 -8.65 -8.9 -8.35 -8.0 -7.3 -6.75 -6.25 -6.3 -5.9 Q-6.0 -5.7 -6.15 -5.4 L-6.55 -4.8 -6.7 -4.6 -6.95 -4.2 -7.3 -2.7 -7.25 -2.3 Q-7.9 -2.3 -7.9 -1.55 -7.9 -0.4 -6.4 -0.3 -5.9 -0.3 -5.7 -0.65 L-5.3 -0.3 -5.15 0.0 Q-5.05 0.75 -5.75 1.05 -6.45 1.35 -6.4 2.2 L-6.4 3.0 -6.2 3.9 -6.1 4.1 Q-6.0 4.25 -6.05 4.45 L-6.05 4.55 -9.3 5.7 -9.45 5.1 -10.35 3.1 -11.3 1.55 -10.95 1.1 -10.7 0.35 Q-10.7 -0.6 -11.5 -0.6 -12.1 -0.65 -12.4 0.0 L-12.9 -0.6 -13.7 -1.2 -14.75 -1.75 -15.2 -2.4 -15.1 -3.9 -15.2 -4.7 Q-15.55 -6.3 -16.5 -7.6 L-16.7 -8.1 -16.95 -8.5 -16.9 -8.6 -16.85 -9.1 Q-16.8 -10.0 -17.6 -10.05 -18.45 -10.1 -18.45 -9.15 -18.45 -8.25 -17.65 -8.15 L-17.35 -8.2 -17.45 -7.9 -17.55 -7.6 -17.55 -6.9 -17.15 -6.0 -16.7 -5.3 -16.7 -5.2 -17.1 -4.9 -18.25 -4.45 -18.3 -4.35 -18.1 -3.1 Q-18.75 -3.1 -18.85 -2.25 -18.85 -1.4 -18.05 -1.3 L-17.7 -1.35 -17.65 -1.1 -17.65 -0.65 Q-17.6 -0.25 -17.8 0.0 L-18.8 0.9 -19.2 1.35 -19.35 1.95 -19.3 2.55 Q-19.35 4.4 -18.7 6.15 L-18.6 6.6 -18.3 8.15 -18.15 8.8 -19.35 9.2 -20.0 -10.85 -16.7 -11.6 -12.35 -12.6 M-12.55 -7.1 Q-12.55 -8.2 -13.5 -8.25 -14.25 -8.35 -14.4 -7.05 -14.4 -6.15 -13.6 -6.1 -12.95 -6.05 -12.7 -6.6 L-12.55 -7.1 M-11.25 -3.0 L-11.05 -3.8 Q-11.0 -5.45 -12.6 -5.55 -13.85 -5.6 -13.75 -4.05 -13.75 -2.4 -12.4 -2.3 -11.55 -2.3 -11.25 -3.0 M-10.2 -3.85 Q-9.4 -3.1 -8.8 -3.05 -8.3 -3.05 -8.1 -3.5 L-8.0 -3.95 Q-8.0 -4.3 -8.55 -4.9 -9.15 -5.6 -10.0 -5.6 -10.9 -5.7 -10.95 -4.85 L-10.2 -3.85 M-8.15 1.45 Q-7.35 1.5 -7.35 0.65 -7.3 -0.35 -8.25 -0.4 -9.05 -0.45 -9.05 0.45 -9.05 1.4 -8.15 1.45" fill="#7e2b25" fill-rule="evenodd" stroke="none"/>
      <path d="M-16.2 -2.9 L-15.85 -2.65 -15.8 -2.5 -15.75 -0.6 -15.65 -0.2 -15.4 0.55 -14.15 2.15 Q-13.45 2.8 -12.4 3.05 -11.95 3.15 -11.85 3.6 L-11.75 4.25 -11.45 5.9 -11.45 5.95 Q-12.0 6.7 -12.6 5.95 L-12.75 5.85 Q-14.35 5.7 -16.0 5.8 L-16.75 5.55 -17.45 4.85 Q-18.05 4.3 -18.05 3.6 L-17.95 3.35 -16.95 2.2 -16.7 1.55 -16.5 -0.75 -16.6 -1.55 -16.7 -2.4 -16.55 -2.75 -16.2 -2.9" fill="#7b7b7b" fill-rule="evenodd" stroke="none"/>
      <path d="M8.2 -17.3 L-12.35 -12.6 M-6.05 4.55 L8.5 -0.55 M-29.75 -16.1 L-29.75 2.6 -19.35 9.2 -20.0 -10.85 -26.9 -14.7 -29.75 -16.1 -0.55 -21.75 8.2 -17.3 M-16.7 -11.6 L-12.35 -12.6 M-18.15 8.8 L-9.3 5.7 -6.05 4.55 M-20.0 -10.85 L-16.7 -11.6 M-18.15 8.8 L-19.35 9.2" fill="none" stroke="#551a1a" stroke-linecap="round" stroke-linejoin="round" stroke-width="0.35000000000000003"/>
      <path d="M1.4 -18.65 L1.6 -18.45 1.4 -18.25 0.95 -18.2 Q0.75 -18.25 0.55 -18.4 L0.35 -18.6 0.55 -18.8 0.95 -18.8 1.4 -18.65 M6.35 -14.55 Q6.75 -14.05 6.4 -13.75 6.05 -13.45 5.9 -13.9 L6.35 -14.55 M5.9 -12.2 L7.75 -11.65 5.45 -11.7 5.45 -12.25 5.9 -12.2 M2.2 -8.7 Q1.5 -9.1 2.2 -9.3 L2.75 -9.85 2.2 -8.7 M3.3 -9.95 L5.8 -10.0 3.7 -9.65 Q3.25 -9.55 3.3 -9.95 M2.95 -11.75 Q2.45 -12.3 3.1 -12.45 L4.8 -12.15 2.95 -11.75 M0.0 -7.8 L-0.2 -7.7 -2.15 -7.6 Q-3.9 -7.5 -2.4 -7.85 L-0.7 -8.35 -0.25 -8.4 -0.05 -8.3 0.05 -8.0 0.0 -7.8 M2.6 -5.4 L2.05 -5.5 2.05 -6.1 2.6 -6.0 2.6 -5.4 M0.15 -3.2 L0.25 -2.95 0.15 -2.8 0.0 -2.7 -1.2 -2.55 -2.2 -2.45 -1.25 -2.9 0.0 -3.3 0.15 -3.2 M1.0 -0.95 L1.05 -0.45 -1.4 -0.15 0.4 -1.05 1.0 -0.95 M1.85 -3.0 L2.85 -3.05 3.7 -3.1 Q3.75 -3.0 2.85 -2.65 L1.85 -2.4 1.65 -2.55 1.6 -2.75 1.65 -2.95 1.85 -3.0 M5.15 -2.35 L4.95 -2.55 5.7 -2.95 5.15 -2.35 M0.25 0.85 Q-1.2 1.15 -0.35 0.8 L0.85 0.3 1.4 0.05 1.6 -0.05 1.75 0.1 1.85 0.3 1.75 0.5 0.25 0.85 M-22.7 -15.6 L-22.95 -15.9 -22.45 -16.1 Q-21.95 -15.8 -22.7 -15.6 M-24.55 -15.55 L-24.85 -15.65 -24.95 -15.8 -24.85 -15.95 -24.55 -15.95 -24.25 -15.85 -24.1 -15.65 -24.25 -15.55 -24.55 -15.55 M-22.95 -14.65 L-21.95 -14.5 -21.9 -14.05 -22.9 -14.2 -22.95 -14.65 M-0.75 -18.95 L-0.55 -18.8 -0.4 -18.6 -0.55 -18.4 Q-0.6 -18.3 -1.3 -18.15 L-2.65 -18.05 Q-3.3 -18.0 -2.25 -18.35 L-1.05 -18.9 -0.75 -18.95 M-7.3 -17.85 L-8.05 -17.8 -7.5 -18.5 Q-6.65 -18.2 -7.3 -17.85 M-5.55 -16.4 Q-5.7 -16.4 -5.85 -16.55 L-6.0 -16.75 -5.85 -16.95 -4.5 -17.05 Q-3.3 -17.05 -3.8 -16.85 L-4.75 -16.6 -5.2 -16.45 -5.55 -16.4 M-10.0 -16.15 L-10.25 -16.25 -10.35 -16.5 -10.3 -16.65 -10.05 -16.75 -9.8 -16.6 -9.6 -16.35 -9.75 -16.2 -10.0 -16.15 M-8.8 -14.7 L-10.45 -14.25 Q-10.7 -15.0 -9.9 -14.9 L-9.0 -14.9 -8.8 -14.7 M-2.35 -16.85 L-2.1 -16.9 -1.85 -16.75 -1.7 -16.55 -1.85 -16.35 -2.05 -16.3 Q-2.2 -16.3 -2.35 -16.45 L-2.45 -16.65 -2.35 -16.85 M-3.85 -12.85 L-3.3 -12.85 -1.25 -13.0 Q0.35 -13.1 -1.5 -12.8 L-3.3 -12.45 -3.55 -12.45 -3.8 -12.55 -3.9 -12.7 -3.85 -12.85 M-16.15 -15.9 Q-18.0 -15.15 -18.1 -15.1 L-18.45 -15.05 Q-18.65 -15.05 -18.8 -15.2 L-18.9 -15.4 -18.8 -15.6 -18.4 -15.65 -16.25 -16.15 Q-14.35 -16.65 -16.15 -15.9 M-20.1 -13.05 L-20.2 -13.25 -20.1 -13.35 -19.75 -13.35 -19.45 -13.25 -19.3 -13.1 -19.45 -12.95 -19.75 -12.95 -20.1 -13.05 M-14.0 -16.8 L-12.0 -16.55 -14.05 -16.45 Q-14.55 -16.75 -14.0 -16.8 M-13.65 -14.3 L-14.0 -14.4 -14.15 -14.6 -14.0 -14.7 -13.65 -14.7 -13.35 -14.6 -13.2 -14.45 -13.35 -14.3 -13.65 -14.3 M-13.55 -10.4 L-13.3 -10.45 -13.05 -10.35 -12.9 -10.1 -13.05 -9.95 -14.05 -9.8 -15.35 -9.9 -14.65 -10.15 -13.55 -10.4 M-12.25 -6.55 L-14.85 -6.3 -12.4 -6.65 -12.25 -6.55 M-17.25 -12.1 L-15.75 -12.65 -16.2 -12.0 -17.25 -12.1 M-16.25 -4.7 L-18.3 -4.75 -15.5 -5.05 Q-15.6 -3.95 -16.25 -4.7 M-15.8 -0.55 L-15.95 -0.5 -17.25 -0.5 Q-18.45 -0.5 -17.85 -0.7 L-16.65 -1.05 -15.95 -1.2 -15.8 -1.05 -15.7 -0.8 -15.8 -0.55 M-11.7 -3.35 Q-11.2 -3.2 -12.5 -2.95 L-13.75 -2.7 -13.95 -2.85 -14.0 -3.2 -13.95 -3.55 -13.8 -3.7 -12.95 -3.55 -11.7 -3.35 M-6.65 -10.85 L-6.55 -10.65 -6.65 -10.55 -6.8 -10.5 -6.95 -10.6 -7.0 -10.75 -6.95 -10.9 -6.8 -10.9 -6.65 -10.85 M-8.6 -9.6 L-8.35 -9.45 -8.25 -9.25 -8.3 -9.05 -8.55 -9.0 Q-8.7 -9.0 -8.85 -9.15 L-9.0 -9.35 -8.9 -9.55 -8.6 -9.6 M-6.25 -8.15 L-6.35 -8.35 -6.25 -8.55 -6.05 -8.6 -5.9 -8.5 -5.8 -8.25 -5.9 -8.1 -6.05 -8.0 -6.25 -8.15 M-6.7 -4.95 L-6.55 -4.75 -6.65 -4.55 -6.85 -4.5 -8.5 -4.45 Q-10.0 -4.4 -9.1 -4.6 L-7.65 -4.95 -6.9 -5.1 -6.7 -4.95 M-7.0 -0.05 L-7.3 0.1 -7.55 0.0 Q-11.85 0.1 -7.1 -0.6 -6.55 -0.4 -7.0 -0.05 M-2.25 -5.25 L-0.85 -5.3 Q-1.0 -4.85 -2.0 -4.75 L-3.3 -4.85 Q-3.7 -5.1 -2.25 -5.25 M-1.35 1.95 L-1.15 2.05 -1.05 2.25 -1.15 2.4 -1.7 2.5 -3.7 2.9 Q-5.25 3.25 -3.5 2.65 L-1.6 1.95 -1.35 1.95 M-3.45 0.2 L-2.75 -0.05 Q-4.8 1.3 -4.75 1.1 L-3.45 0.2 M-10.05 2.35 L-10.0 2.1 -9.85 2.05 -9.65 2.15 -9.55 2.45 -9.65 2.65 -9.8 2.75 -10.0 2.6 -10.05 2.35 M-5.95 3.25 L-7.25 4.5 Q-7.85 4.2 -7.35 4.1 L-6.55 3.15 -5.95 3.25 M-18.25 5.4 Q-20.25 5.55 -18.35 5.0 L-16.3 4.35 -16.1 4.15 -15.9 4.4 -15.85 4.7 -15.9 5.05 -16.2 5.15 -18.25 5.4" fill="#ffffff" fill-opacity="0.15686275" fill-rule="evenodd" stroke="none"/>
      <path d="M3.0 -17.7 L2.95 -17.35 2.8 -17.2 Q2.3 -17.5 2.85 -17.7 L3.0 -17.7 M0.2 -16.8 Q0.75 -17.2 0.45 -16.7 0.3 -16.4 0.2 -16.8 M-25.15 -13.7 L-25.35 -13.85 -25.45 -14.0 -25.35 -14.2 -25.15 -14.2 -25.0 -14.1 -24.9 -13.95 -25.0 -13.75 -25.15 -13.7 M-21.35 -11.5 L-20.65 -11.45 -17.3 -11.1 -17.15 -10.9 -21.5 -11.35 -21.35 -11.5 M-23.55 -7.3 Q-23.05 -7.9 -23.1 -7.0 L-23.2 -6.8 -23.55 -7.3 M-20.7 -9.6 L-18.9 -9.3 -18.75 -9.15 -18.8 -8.95 -20.7 -9.35 -20.7 -9.45 -20.7 -9.6 M-20.75 -8.75 L-19.6 -8.6 -19.5 -8.5 -20.7 -8.65 -20.75 -8.75 M-26.6 -10.45 L-26.8 -11.05 -26.7 -11.1 -26.45 -10.65 -26.6 -10.45 M-26.95 -7.85 Q-27.5 -8.0 -27.2 -8.55 L-26.95 -8.7 Q-26.5 -8.55 -26.75 -7.95 -26.75 -7.85 -26.95 -7.85 M-25.85 -3.05 Q-25.15 -3.4 -25.15 -2.15 L-25.3 -2.1 Q-25.7 -2.05 -25.75 -2.65 L-25.85 -3.05 M-26.35 -0.2 L-26.75 -0.35 -26.9 -0.5 -26.5 -1.1 Q-25.55 -0.95 -26.35 -0.2 M-4.35 -19.9 L-4.2 -19.8 -4.05 -19.6 -4.15 -19.45 -4.3 -19.4 -4.5 -19.5 -4.65 -19.65 -4.55 -19.85 -4.35 -19.9 M-3.25 -18.75 Q-3.0 -18.4 -3.35 -18.65 -3.75 -19.3 -3.25 -18.75 M-9.3 -18.85 L-9.15 -18.95 -9.0 -18.85 -8.9 -18.6 -9.0 -18.5 -9.1 -18.4 -9.3 -18.5 -9.35 -18.7 -9.3 -18.85 M-6.5 -16.45 L-6.7 -16.55 -6.85 -16.75 -6.75 -16.9 -6.55 -16.95 -6.35 -16.8 -6.25 -16.65 -6.35 -16.45 -6.5 -16.45 M-9.2 -15.05 L-8.85 -15.0 Q-8.4 -14.75 -8.9 -14.7 L-9.2 -15.05 M-0.9 -17.7 Q-0.95 -17.55 -1.2 -17.85 -0.85 -18.15 -0.9 -17.7 M-4.6 -17.65 Q-4.65 -17.35 -4.75 -17.75 -4.35 -18.15 -4.6 -17.65 M-16.95 -16.25 Q-16.85 -16.75 -16.65 -16.05 -16.55 -15.8 -16.8 -16.1 L-16.95 -16.25 M-19.0 -16.7 L-18.85 -16.8 -18.65 -16.65 -18.55 -16.45 -18.65 -16.3 -18.85 -16.25 -19.0 -16.35 -19.15 -16.55 -19.0 -16.7 M-15.1 -13.9 L-15.05 -14.3 -14.85 -14.4 Q-14.15 -14.0 -14.9 -13.85 L-15.1 -13.9 M-11.8 -4.8 L-11.6 -5.05 Q-10.95 -4.7 -11.45 -4.05 -11.7 -3.9 -11.95 -4.05 L-11.8 -4.8 M-13.7 -0.65 Q-13.7 -1.2 -12.85 -1.3 L-12.75 -1.4 Q-12.25 -1.3 -12.6 -0.9 -12.7 -0.7 -13.1 -0.55 L-13.7 -0.65 M-8.65 -8.15 L-7.75 -7.95 -7.6 -7.8 -8.5 -7.85 -8.65 -8.15 M-5.4 -0.3 L-5.5 0.25 -6.35 0.15 Q-6.45 -0.6 -5.6 -0.4 L-5.4 -0.3 M-20.3 -13.7 Q-19.85 -14.2 -20.1 -13.6 -20.2 -13.3 -20.3 -13.7 M-7.8 0.25 Q-8.2 0.15 -8.05 -0.15 L-6.75 0.0 Q-7.15 0.45 -7.8 0.25 M-9.35 3.9 Q-8.8 3.8 -8.55 4.3 L-8.5 4.45 -9.3 4.2 -9.35 3.9 M-15.05 4.15 Q-14.55 3.9 -14.05 3.8 L-13.9 3.8 -13.9 4.0 -14.2 4.5 -14.7 4.6 -15.05 4.15 M-14.45 6.05 Q-14.5 6.6 -14.9 6.6 L-15.55 6.45 Q-15.5 5.5 -14.55 5.9 L-14.45 6.05 M-16.1 1.55 L-16.4 1.4 -16.55 1.0 Q-16.7 0.35 -16.35 0.9 -16.1 1.1 -16.1 1.55 M-21.55 2.3 L-21.75 2.45 -21.85 2.35 -21.75 1.6 -21.55 2.3 M-25.25 4.1 Q-25.3 3.45 -24.95 4.1 -24.8 4.35 -25.25 4.1" fill="#4f1717" fill-opacity="0.7490196" fill-rule="evenodd" stroke="none"/>
      <path d="M17.95 -16.0 Q16.8 -15.9 16.35 -15.15 15.35 -13.5 8.9 -13.85 6.55 -14.0 2.45 -12.8 L-2.8 -11.65 Q-4.4 -11.5 -6.0 -9.8 L-10.0 -8.55 -14.0 -8.4 -15.15 -8.25 -15.65 -8.35 -19.3 -7.85 Q-20.7 -7.05 -23.9 -6.1 -25.0 -6.15 -25.0 -7.45 -25.0 -9.15 -22.35 -9.4 L-20.55 -10.2 -18.7 -10.4 Q-17.75 -10.15 -16.65 -10.7 -15.55 -11.35 -14.65 -11.0 L-14.5 -11.05 Q-11.95 -12.2 -10.0 -12.15 L-9.5 -12.05 -9.4 -12.1 Q-7.85 -12.3 -5.15 -13.65 -1.8 -14.4 -1.0 -14.85 1.1 -15.85 5.8 -16.25 L11.2 -17.0 Q14.5 -17.05 15.0 -18.05 15.45 -18.85 18.7 -18.6 20.65 -20.2 23.7 -20.15 26.75 -20.1 30.4 -18.55 34.05 -17.05 33.35 -16.25 L32.45 -15.05 Q32.15 -14.5 31.5 -14.5 30.7 -14.55 30.15 -14.9 29.65 -15.35 28.9 -15.4 26.0 -15.6 24.8 -16.45 23.65 -17.4 23.15 -17.4 22.55 -17.45 18.55 -15.85 L17.95 -16.0" fill="#7b7b7b" fill-rule="evenodd" stroke="none"/>
      <path d="M10.45 -8.65 L8.35 -8.0 10.15 -8.65 10.45 -8.65 M25.25 5.05 L25.2 3.65 Q25.8 3.05 25.85 2.15 L25.85 0.7 Q25.8 0.2 26.05 0.05 L26.8 -0.75 Q27.3 -1.55 27.15 -2.65 L27.25 -3.1 27.6 -3.6 27.55 -3.75 27.3 -4.2 26.75 -4.6 26.4 -4.9 26.2 -5.0 24.95 -5.35 24.7 -5.5 Q24.3 -5.8 24.2 -6.35 L24.25 -6.55 24.55 -6.85 24.9 -7.05 26.6 -8.3 28.25 -10.25 28.35 -10.75 28.25 -10.85 25.2 -10.9 Q24.8 -11.0 24.9 -11.4 L24.95 -11.6 24.9 -12.3 34.75 -14.8 34.4 1.7 25.25 5.05" fill="#7e2b25" fill-rule="evenodd" stroke="none"/>
      <path d="M8.35 -8.0 L10.45 -8.65 24.9 -12.3 24.95 -11.6 24.9 -11.4 Q24.8 -11.0 25.2 -10.9 L28.25 -10.85 28.35 -10.75 28.25 -10.25 26.6 -8.3 24.9 -7.05 24.55 -6.85 24.25 -6.55 24.2 -6.35 Q24.3 -5.8 24.7 -5.5 L24.95 -5.35 26.2 -5.0 26.4 -4.9 26.75 -4.6 27.3 -4.2 27.55 -3.75 27.6 -3.6 27.25 -3.1 27.15 -2.65 Q27.3 -1.55 26.8 -0.75 L26.05 0.05 Q25.8 0.2 25.85 0.7 L25.85 2.15 Q25.8 3.05 25.2 3.65 L25.25 5.05 6.5 12.0 -3.45 5.85 Q-9.1 -11.4 -3.9 -12.6 L7.0 -7.55 8.35 -8.0" fill="#999999" fill-rule="evenodd" stroke="none"/>
      <path d="M10.45 -8.65 L10.15 -8.65 8.35 -8.0 7.0 -7.55 -3.9 -12.6 23.3 -18.65 34.75 -14.8 24.9 -12.3 10.45 -8.65" fill="#924b4b" fill-rule="evenodd" stroke="none"/>
      <path d="M8.35 -8.0 L10.45 -8.65 10.15 -8.65 8.35 -8.0 7.0 -7.55 -3.9 -12.6 23.3 -18.65 34.75 -14.8 34.4 1.7 25.25 5.05 M-3.45 5.85 L6.5 12.0 25.25 5.05 M24.9 -12.3 L10.45 -8.65 M34.75 -14.8 L24.9 -12.3" fill="none" stroke="#551a1a" stroke-linecap="round" stroke-linejoin="round" stroke-width="0.35000000000000003"/>
      <path d="M12.85 -13.7 L14.85 -13.5 12.8 -13.35 Q12.3 -13.6 12.85 -13.7 M10.7 -12.75 L8.8 -11.85 8.45 -11.8 8.15 -11.95 8.0 -12.15 8.15 -12.35 8.5 -12.4 10.65 -13.0 Q12.55 -13.55 10.7 -12.75 M16.8 -13.75 L17.05 -13.65 17.15 -13.4 17.05 -13.25 16.8 -13.15 16.5 -13.3 16.45 -13.5 16.5 -13.7 16.8 -13.75 M18.8 -14.85 L19.35 -15.5 Q20.2 -15.25 19.55 -14.85 L18.8 -14.85 M4.6 -12.75 Q5.05 -12.45 4.25 -12.25 4.05 -12.15 4.05 -12.5 L4.6 -12.75 M2.75 -12.4 L2.9 -12.25 2.75 -12.1 2.45 -12.1 2.15 -12.2 2.05 -12.35 2.15 -12.5 2.45 -12.5 2.75 -12.4 M7.05 -9.8 L6.7 -9.85 6.6 -10.05 6.7 -10.15 7.05 -10.2 7.35 -10.1 7.5 -9.9 7.35 -9.8 7.05 -9.8 M4.0 -10.9 L4.0 -11.3 4.95 -11.2 4.95 -10.8 4.0 -10.9 M17.7 -11.95 L17.9 -11.75 16.3 -11.3 Q16.05 -12.0 16.85 -11.95 L17.7 -11.95 M17.55 -6.5 L17.6 -6.7 17.9 -6.75 18.1 -6.65 18.25 -6.4 18.1 -6.25 17.9 -6.15 17.6 -6.3 17.55 -6.5 M19.5 -7.95 L19.55 -8.1 19.7 -8.15 19.85 -8.05 19.95 -7.9 19.85 -7.75 19.7 -7.75 19.55 -7.8 19.5 -7.95 M13.6 -11.35 L13.45 -11.25 13.15 -11.2 12.8 -11.3 12.7 -11.5 12.8 -11.6 13.15 -11.6 13.45 -11.55 13.6 -11.35 M11.95 -7.1 L13.05 -7.45 13.3 -7.5 13.55 -7.35 13.7 -7.15 13.55 -6.95 12.55 -6.8 11.25 -6.85 Q10.95 -6.95 11.95 -7.1 M10.5 -8.95 L9.5 -9.0 11.0 -9.6 10.5 -8.95 M14.15 -3.7 L11.55 -3.35 14.0 -3.8 14.15 -3.7 M12.25 -0.4 L12.3 -0.75 12.5 -0.9 13.3 -0.8 14.55 -0.65 Q15.0 -0.45 13.75 -0.15 L12.5 0.1 12.3 -0.05 12.25 -0.4 M10.2 -1.75 L8.15 -1.8 10.9 -2.1 Q10.7 -1.1 10.2 -1.75 M20.05 -5.6 L20.15 -5.8 20.3 -5.85 20.5 -5.75 20.6 -5.55 20.5 -5.35 20.3 -5.25 20.15 -5.4 20.05 -5.6 M17.75 -1.75 Q16.3 -1.6 17.15 -1.85 L18.6 -2.25 19.35 -2.45 19.6 -2.3 19.7 -2.1 19.6 -1.9 19.35 -1.85 17.75 -1.75 M22.25 -14.2 Q23.5 -14.25 22.95 -14.05 L21.95 -13.75 21.5 -13.55 21.2 -13.5 20.85 -13.65 20.75 -13.85 20.9 -14.05 22.25 -14.2 M24.25 -13.9 L24.35 -14.05 24.65 -14.15 24.85 -14.0 25.0 -13.8 24.85 -13.6 24.65 -13.55 24.35 -13.65 24.25 -13.9 M24.55 -15.55 L25.75 -16.1 26.0 -16.15 26.25 -16.05 26.35 -15.8 26.25 -15.65 25.45 -15.4 24.15 -15.2 Q23.5 -15.15 24.55 -15.55 M28.1 -15.55 L27.7 -15.5 27.3 -15.65 27.1 -15.9 27.3 -16.05 27.7 -16.1 28.1 -15.95 28.3 -15.75 28.1 -15.55 M29.55 -9.85 L31.15 -9.65 29.4 -9.2 Q28.9 -9.7 29.55 -9.85 M29.55 -7.5 L32.1 -7.65 30.0 -7.2 Q29.5 -7.1 29.55 -7.5 M29.05 -7.35 L28.45 -6.2 Q27.85 -6.55 28.5 -6.8 L29.05 -7.35 M23.2 -9.7 L23.0 -9.7 22.75 -9.75 22.65 -9.95 22.75 -10.05 23.25 -10.1 25.25 -10.3 Q26.8 -10.45 25.05 -10.1 L23.2 -9.7 M23.9 -5.2 L25.65 -5.75 26.05 -5.85 26.25 -5.7 26.35 -5.45 26.25 -5.2 26.05 -5.15 24.15 -5.0 Q22.45 -4.8 23.9 -5.2 M23.95 -2.7 L25.35 -2.85 Q25.1 -2.35 24.15 -2.25 L22.9 -2.3 Q22.5 -2.55 23.95 -2.7 M28.7 -3.6 L28.7 -3.0 28.15 -3.1 28.15 -3.7 28.7 -3.6 M26.2 -0.3 L26.05 -0.25 24.9 -0.05 23.85 0.1 24.85 -0.4 26.05 -0.85 26.2 -0.7 26.3 -0.5 26.2 -0.3 M27.65 -0.35 L27.7 -0.55 27.85 -0.6 28.85 -0.7 29.75 -0.75 Q29.75 -0.65 28.85 -0.3 L27.85 0.0 27.7 -0.15 27.65 -0.35 M34.05 -9.25 L31.8 -9.25 31.8 -9.8 34.05 -9.25 M32.3 -11.4 L32.8 -12.05 Q33.2 -11.6 32.8 -11.3 32.45 -11.0 32.3 -11.4 M31.05 -0.05 L30.9 -0.25 31.65 -0.7 31.05 -0.05 M27.45 2.3 L27.65 2.4 27.75 2.65 27.65 2.8 26.15 3.25 Q24.7 3.55 25.55 3.2 L26.75 2.65 27.25 2.35 27.45 2.3 M26.95 1.9 L24.5 2.3 26.35 1.3 26.95 1.4 26.95 1.9 M22.3 5.05 L24.25 4.4 24.5 4.35 24.7 4.45 24.8 4.6 24.7 4.75 24.1 4.9 22.15 5.3 Q20.6 5.7 22.3 5.05 M21.25 3.6 L22.5 2.65 23.25 2.4 21.25 3.6 M19.05 2.55 L18.7 2.7 18.5 2.6 Q14.25 2.85 19.0 2.0 19.55 2.15 19.05 2.55 M16.15 5.35 L15.95 5.2 15.9 4.95 15.95 4.7 16.15 4.65 16.3 4.75 16.35 5.0 16.3 5.25 16.15 5.35 M19.9 5.7 L18.55 7.0 Q17.95 6.7 18.5 6.6 L19.3 5.65 19.9 5.7 M10.3 2.4 L8.95 2.4 Q7.75 2.4 8.4 2.2 L9.6 1.85 10.3 1.7 10.4 1.8 10.5 2.05 10.4 2.3 10.3 2.4 M7.6 7.8 L9.7 7.05 9.85 6.95 10.05 7.1 10.15 7.45 10.0 7.75 9.75 7.9 7.65 8.1 Q5.75 8.4 7.6 7.8" fill="#ffffff" fill-opacity="0.15686275" fill-rule="evenodd" stroke="none"/>
      <path d="M17.95 -15.75 L18.05 -15.6 17.95 -15.4 17.8 -15.35 17.65 -15.5 17.6 -15.65 17.65 -15.85 17.8 -15.85 17.95 -15.75 M20.1 -13.9 L20.3 -13.95 20.5 -13.85 20.55 -13.65 20.5 -13.5 20.3 -13.45 20.1 -13.55 20.0 -13.75 20.1 -13.9 M1.55 -13.2 L1.75 -13.3 1.85 -13.2 1.95 -13.0 1.85 -12.85 1.75 -12.8 1.55 -12.85 1.5 -13.05 1.55 -13.2 M7.95 -13.35 L8.15 -13.4 8.35 -13.35 8.4 -13.15 8.35 -13.0 Q8.25 -12.9 8.15 -12.9 L7.95 -13.0 7.85 -13.25 7.95 -13.35 M10.05 -13.0 Q10.1 -13.5 10.3 -12.85 10.4 -12.6 10.1 -12.85 L10.05 -13.0 M6.8 -10.3 Q6.7 -10.05 6.6 -10.4 7.05 -10.95 6.8 -10.3 M1.55 -10.55 L1.65 -10.7 1.85 -10.8 2.0 -10.7 2.1 -10.5 2.0 -10.35 1.85 -10.3 1.65 -10.35 1.55 -10.55 M12.0 -11.3 Q12.65 -10.95 11.9 -10.7 L11.75 -10.8 11.8 -11.2 12.0 -11.3 M17.95 -12.0 Q18.35 -11.75 17.85 -11.7 L17.6 -12.05 17.95 -12.0 M23.5 -15.75 Q23.15 -16.35 23.6 -15.8 23.85 -15.55 23.5 -15.75 M22.4 -16.5 L22.3 -16.7 22.4 -16.85 22.6 -16.95 22.75 -16.8 22.85 -16.6 22.75 -16.45 22.6 -16.45 22.4 -16.5 M22.1 -14.8 Q22.5 -15.25 22.25 -14.7 22.15 -14.4 22.1 -14.8 M27.15 -13.95 Q27.05 -13.6 26.9 -14.0 27.45 -14.45 27.15 -13.95 M25.6 -15.05 Q25.95 -15.4 25.85 -14.9 25.8 -14.75 25.6 -15.05 M29.5 -14.5 Q29.0 -14.8 29.55 -15.05 L29.75 -15.0 29.7 -14.65 29.5 -14.5 M27.5 -11.6 Q27.5 -12.2 27.95 -11.75 L27.8 -11.25 Q27.55 -11.1 27.5 -11.6 M26.35 -9.1 Q26.8 -9.7 26.55 -9.05 26.45 -8.8 26.35 -9.1 M29.9 -5.75 L30.1 -5.8 30.25 -5.7 30.3 -5.5 30.25 -5.35 30.1 -5.25 29.9 -5.4 29.85 -5.55 29.9 -5.75 M33.0 -12.15 L32.8 -12.35 Q33.05 -12.75 33.2 -12.35 L33.0 -12.15 M31.0 -2.3 Q30.95 -1.2 30.0 -1.75 30.2 -2.5 30.9 -2.35 L31.0 -2.3 M33.35 -2.6 L33.55 -2.65 33.8 -2.6 33.9 -2.4 33.8 -2.25 Q33.7 -2.15 33.55 -2.15 L33.35 -2.25 33.25 -2.45 33.35 -2.6 M27.9 1.15 Q27.95 1.75 27.45 1.9 L27.4 1.9 27.45 1.05 27.9 1.15 M-2.75 -8.3 L-2.2 -7.9 -2.75 -7.95 -2.75 -8.0 -2.75 -8.3" fill="#4f1717" fill-opacity="0.7490196" fill-rule="evenodd" stroke="none"/>
      <path d="M-23.7 19.45 L-34.15 12.85 -34.75 4.3 -34.45 4.1 -34.1 3.65 -34.05 3.35 -34.05 3.15 Q-34.15 2.25 -33.55 1.85 L-33.5 1.75 Q-33.4 1.15 -33.6 0.6 L-33.75 0.25 -33.75 0.1 -32.95 -0.6 Q-32.75 -0.85 -32.7 -1.2 -32.55 -1.7 -32.75 -2.2 L-32.7 -2.85 -32.75 -4.25 -32.7 -4.35 -32.45 -4.4 -32.15 -4.35 -24.4 -0.6 -23.7 19.45" fill="#682020" fill-rule="evenodd" stroke="none"/>
      <path d="M-24.4 -0.6 L-32.15 -4.35 -31.35 -4.4 Q-31.2 -4.4 -31.2 -4.55 -31.15 -4.75 -30.95 -4.75 L-29.55 -4.55 -27.75 -4.85 Q-27.3 -5.1 -27.35 -5.6 -27.55 -6.25 -27.2 -6.45 L-25.75 -7.75 -4.95 -11.5 3.8 -7.1 -16.75 -2.4 -21.1 -1.35 -20.95 -1.5 -21.0 -1.55 -24.4 -0.6" fill="#924b4b" fill-rule="evenodd" stroke="none"/>
      <path d="M-23.7 19.45 L-24.4 -0.6 -21.1 -1.35 -16.75 -2.4 -16.05 -2.1 -15.45 -1.75 Q-14.25 -1.1 -13.55 0.25 L-13.45 0.95 -13.45 1.6 -13.3 1.9 -12.4 2.95 -11.15 3.95 -10.7 4.35 Q-10.4 4.55 -10.55 4.85 L-10.95 5.45 -11.1 5.65 -11.35 6.05 -11.65 7.55 -11.6 7.95 Q-12.25 7.95 -12.3 8.7 -12.3 9.85 -10.8 9.95 -10.3 9.95 -10.1 9.65 L-9.7 9.95 -9.55 10.25 Q-9.45 11.0 -10.15 11.35 -10.85 11.6 -10.75 12.45 L-10.8 13.25 -10.6 14.15 -10.5 14.35 Q-10.4 14.5 -10.45 14.7 L-10.45 14.8 -13.7 15.95 -13.8 15.35 -14.75 13.35 -15.65 11.8 -15.35 11.3 -15.1 10.65 Q-15.1 9.7 -15.9 9.65 -16.5 9.6 -16.8 10.3 L-17.3 9.65 -18.1 9.05 -19.2 8.5 -19.6 7.85 -19.5 6.3 -19.6 5.55 Q-19.95 4.0 -20.85 2.6 L-21.1 2.1 -21.3 1.75 -21.25 1.6 -21.25 1.15 Q-21.25 0.25 -22.0 0.2 -22.85 0.15 -22.85 1.05 -22.85 2.0 -22.0 2.05 L-21.75 2.0 -21.8 2.3 -21.9 2.6 Q-22.1 2.95 -21.95 3.35 L-21.55 4.25 -21.1 4.95 -21.1 5.05 -21.45 5.35 -22.65 5.8 -22.7 5.9 -22.45 7.15 Q-23.1 7.15 -23.25 8.0 -23.25 8.9 -22.45 8.95 L-22.1 8.9 -22.05 9.15 -22.0 9.6 Q-21.95 10.0 -22.2 10.25 L-23.15 11.15 -23.55 11.55 -23.75 12.2 -23.7 12.8 Q-23.75 14.65 -23.05 16.4 L-23.0 16.8 -22.7 18.35 -22.55 19.05 -23.7 19.45 M-14.4 4.6 Q-15.3 4.55 -15.3 5.4 L-14.6 6.4 Q-13.75 7.1 -13.15 7.15 -12.65 7.2 -12.5 6.75 L-12.4 6.3 Q-12.4 5.95 -12.95 5.35 -13.6 4.65 -14.4 4.6 M-18.0 4.15 Q-17.35 4.2 -17.1 3.65 L-16.9 3.1 Q-16.9 2.0 -17.9 1.95 -18.65 1.9 -18.8 3.2 -18.8 4.1 -18.0 4.15 M-15.6 7.25 L-15.4 6.4 Q-15.4 4.8 -16.95 4.7 -18.25 4.65 -18.1 6.2 -18.15 7.85 -16.8 7.95 -15.95 8.0 -15.6 7.25 M-12.6 9.85 Q-13.45 9.8 -13.45 10.7 -13.45 11.65 -12.55 11.7 -11.7 11.75 -11.7 10.9 -11.7 9.9 -12.6 9.85" fill="#7e2b25" fill-rule="evenodd" stroke="none"/>
      <path d="M3.8 -7.1 L4.1 9.7 -10.45 14.8 -10.45 14.7 Q-10.4 14.5 -10.5 14.35 L-10.6 14.15 -10.8 13.25 -10.75 12.45 Q-10.85 11.6 -10.15 11.35 -9.45 11.0 -9.55 10.25 L-9.7 9.95 -10.1 9.65 Q-10.3 9.95 -10.8 9.95 -12.3 9.85 -12.3 8.7 -12.25 7.95 -11.6 7.95 L-11.65 7.55 -11.35 6.05 -11.1 5.65 -10.95 5.45 -10.55 4.85 Q-10.4 4.55 -10.7 4.35 L-11.15 3.95 -12.4 2.95 -13.3 1.9 -13.45 1.6 -13.45 0.95 -13.55 0.25 Q-14.25 -1.1 -15.45 -1.75 L-16.05 -2.1 -16.75 -2.4 3.8 -7.1 M-13.7 15.95 L-22.55 19.05 -22.7 18.35 -23.0 16.8 -23.05 16.4 Q-23.75 14.65 -23.7 12.8 L-23.75 12.2 -23.55 11.55 -23.15 11.15 -22.2 10.25 Q-21.95 10.0 -22.0 9.6 L-22.05 9.15 -22.1 8.9 -22.45 8.95 Q-23.25 8.9 -23.25 8.0 -23.1 7.15 -22.45 7.15 L-22.7 5.9 -22.65 5.8 -21.45 5.35 -21.1 5.05 -21.1 4.95 -21.55 4.25 -21.95 3.35 Q-22.1 2.95 -21.9 2.6 L-21.8 2.3 -21.75 2.0 -22.0 2.05 Q-22.85 2.0 -22.85 1.05 -22.85 0.15 -22.0 0.2 -21.25 0.25 -21.25 1.15 L-21.25 1.6 -21.3 1.75 -21.1 2.1 -20.85 2.6 Q-19.95 4.0 -19.6 5.55 L-19.5 6.3 -19.6 7.85 -19.2 8.5 -18.1 9.05 -17.3 9.65 -16.8 10.3 Q-16.5 9.6 -15.9 9.65 -15.1 9.7 -15.1 10.65 L-15.35 11.3 -15.65 11.8 -14.75 13.35 -13.8 15.35 -13.7 15.95 M-15.6 7.25 Q-15.95 8.0 -16.8 7.95 -18.15 7.85 -18.1 6.2 -18.25 4.65 -16.95 4.7 -15.4 4.8 -15.4 6.4 L-15.6 7.25 M-18.0 4.15 Q-18.8 4.1 -18.8 3.2 -18.65 1.9 -17.9 1.95 -16.9 2.0 -16.9 3.1 L-17.1 3.65 Q-17.35 4.2 -18.0 4.15 M-14.4 4.6 Q-13.6 4.65 -12.95 5.35 -12.4 5.95 -12.4 6.3 L-12.5 6.75 Q-12.65 7.2 -13.15 7.15 -13.75 7.1 -14.6 6.4 L-15.3 5.4 Q-15.3 4.55 -14.4 4.6 M-20.25 7.55 Q-20.25 7.35 -20.55 7.35 L-20.9 7.45 -21.1 7.8 -21.0 8.65 Q-20.85 9.1 -20.85 9.5 L-21.05 11.75 -21.4 12.45 -22.35 13.6 -22.45 13.85 Q-22.45 14.6 -21.85 15.1 L-21.1 15.75 -20.35 16.0 Q-18.7 15.9 -17.1 16.05 L-17.0 16.15 -15.85 16.2 -15.85 16.15 -16.15 14.5 -16.25 13.85 Q-16.4 13.4 -16.8 13.3 -17.85 13.05 -18.55 12.35 L-19.75 10.8 -20.05 10.1 -20.15 9.65 -20.25 7.7 -20.25 7.55 M-12.6 9.85 Q-11.7 9.9 -11.7 10.9 -11.7 11.75 -12.55 11.7 -13.45 11.65 -13.45 10.7 -13.45 9.8 -12.6 9.85" fill="#999999" fill-rule="evenodd" stroke="none"/>
      <path d="M-20.25 7.55 L-20.25 7.7 -20.15 9.65 -20.05 10.1 -19.75 10.8 -18.55 12.35 Q-17.85 13.05 -16.8 13.3 -16.4 13.4 -16.25 13.85 L-16.15 14.5 -15.85 16.15 -15.85 16.2 -17.0 16.15 -17.1 16.05 Q-18.7 15.9 -20.35 16.0 L-21.1 15.75 -21.85 15.1 Q-22.45 14.6 -22.45 13.85 L-22.35 13.6 -21.4 12.45 -21.05 11.75 -20.85 9.5 Q-20.85 9.1 -21.0 8.65 L-21.1 7.8 -20.9 7.45 -20.55 7.35 Q-20.25 7.35 -20.25 7.55" fill="#7b7b7b" fill-rule="evenodd" stroke="none"/>
      <path d="M-32.15 -4.35 L-32.45 -4.4 -32.7 -4.35 -32.75 -4.25 -32.7 -2.85 -32.75 -2.2 Q-32.55 -1.7 -32.7 -1.2 -32.75 -0.85 -32.95 -0.6 L-33.75 0.1 -33.75 0.25 -33.6 0.6 Q-33.4 1.15 -33.5 1.75 L-33.55 1.85 Q-34.15 2.25 -34.05 3.15 L-34.05 3.35 -34.1 3.65 -34.45 4.1 -34.75 4.3 -34.15 12.85 -23.7 19.45 -24.4 -0.6 -32.15 -4.35 -31.35 -4.4 Q-31.2 -4.4 -31.2 -4.55 -31.15 -4.75 -30.95 -4.75 L-29.55 -4.55 -27.75 -4.85 Q-27.3 -5.1 -27.35 -5.6 -27.55 -6.25 -27.2 -6.45 L-25.75 -7.75 -4.95 -11.5 3.8 -7.1 M4.1 9.7 L-10.45 14.8 -13.7 15.95 -22.55 19.05 -23.7 19.45 M-24.4 -0.6 L-21.1 -1.35 -16.75 -2.4 3.8 -7.1" fill="none" stroke="#551a1a" stroke-linecap="round" stroke-linejoin="round" stroke-width="0.35000000000000003"/>
      <path d="M1.05 -1.45 L1.05 -2.0 1.5 -1.95 3.35 -1.4 1.05 -1.45 M2.0 -3.5 Q1.65 -3.2 1.5 -3.65 L1.95 -4.3 Q2.35 -3.8 2.0 -3.5 M0.55 7.7 L1.3 7.3 0.75 7.9 0.55 7.7 M-26.85 -5.85 Q-26.35 -5.55 -27.1 -5.35 -27.35 -5.3 -27.35 -5.65 L-26.85 -5.85 M-26.35 -4.25 L-26.3 -3.8 -27.3 -3.95 -27.35 -4.4 -26.35 -4.25 M-28.95 -5.3 L-29.25 -5.4 -29.35 -5.55 -29.25 -5.7 -28.95 -5.7 -28.65 -5.6 -28.5 -5.4 -28.65 -5.3 -28.95 -5.3 M-22.5 -4.85 L-22.85 -4.8 Q-23.05 -4.8 -23.2 -4.95 L-23.3 -5.15 -23.2 -5.35 -22.8 -5.4 -20.65 -5.9 Q-18.75 -6.4 -20.55 -5.65 L-22.5 -4.85 M-24.15 -3.1 L-23.85 -3.0 -23.7 -2.85 -23.85 -2.7 -24.15 -2.7 -24.5 -2.8 -24.6 -3.0 -24.5 -3.1 -24.15 -3.1 M-21.65 -1.85 L-20.15 -2.4 -20.6 -1.75 -21.65 -1.85 M-11.9 -8.25 Q-11.05 -7.95 -11.7 -7.6 L-12.45 -7.55 -11.9 -8.25 M-10.4 -6.5 L-10.25 -6.7 -8.9 -6.8 Q-7.7 -6.8 -8.2 -6.6 L-9.15 -6.35 -9.6 -6.2 -9.95 -6.15 Q-10.1 -6.15 -10.25 -6.3 L-10.4 -6.5 M-14.7 -6.4 L-14.45 -6.5 -14.2 -6.35 -14.0 -6.1 -14.15 -5.95 -14.4 -5.9 -14.65 -6.0 -14.75 -6.25 -14.7 -6.4 M-18.45 -6.2 Q-18.95 -6.5 -18.4 -6.55 L-16.4 -6.3 -18.45 -6.2 M-18.05 -4.05 L-18.4 -4.15 -18.55 -4.35 -18.4 -4.45 -18.05 -4.45 -17.75 -4.35 -17.6 -4.2 -17.75 -4.05 -18.05 -4.05 M-17.45 -0.1 Q-17.3 0.05 -17.3 0.15 L-17.45 0.3 -18.45 0.45 -19.75 0.35 Q-20.05 0.25 -19.05 0.1 L-17.95 -0.15 -17.7 -0.2 -17.45 -0.1 M-14.3 -4.65 L-13.4 -4.65 -13.2 -4.45 -14.85 -4.0 Q-15.1 -4.75 -14.3 -4.65 M-11.35 -0.35 L-11.4 -0.5 -11.35 -0.65 -11.2 -0.65 -11.05 -0.6 -10.95 -0.4 -11.05 -0.3 -11.2 -0.25 -11.35 -0.35 M-3.0 -8.4 L-2.8 -8.2 -3.0 -8.0 -3.45 -7.95 Q-3.65 -8.0 -3.85 -8.15 L-4.05 -8.35 -3.85 -8.55 -3.45 -8.55 -3.0 -8.4 M-4.8 -8.35 L-4.95 -8.15 Q-5.0 -8.05 -5.7 -7.9 L-7.05 -7.8 Q-7.7 -7.75 -6.65 -8.1 L-5.45 -8.65 -5.15 -8.7 -4.95 -8.55 -4.8 -8.35 M-6.75 -6.6 L-6.5 -6.65 -6.25 -6.5 -6.1 -6.3 -6.25 -6.1 -6.45 -6.05 Q-6.6 -6.05 -6.75 -6.2 L-6.85 -6.4 -6.75 -6.6 M-7.7 -2.2 L-7.95 -2.2 -8.2 -2.3 -8.3 -2.45 -8.25 -2.6 -7.7 -2.6 -5.65 -2.75 Q-4.05 -2.85 -5.9 -2.55 L-7.7 -2.2 M-1.3 -2.2 L0.4 -1.9 -1.45 -1.5 Q-1.95 -2.05 -1.3 -2.2 M-1.65 0.4 L-2.2 1.55 Q-2.9 1.15 -2.2 0.95 L-1.65 0.4 M-1.1 0.3 L1.4 0.25 -0.7 0.6 Q-1.15 0.7 -1.1 0.3 M-4.45 1.95 L-4.35 2.25 Q-4.3 2.4 -4.4 2.45 L-4.6 2.55 -6.55 2.65 Q-8.3 2.75 -6.8 2.4 L-5.1 1.9 -4.65 1.85 -4.45 1.95 M-2.35 4.75 L-2.35 4.15 -1.8 4.25 -1.8 4.85 -2.35 4.75 M-5.25 4.95 Q-5.4 5.4 -6.4 5.5 L-7.7 5.4 Q-8.1 5.15 -6.65 5.0 L-5.25 4.95 M-9.15 11.35 L-7.85 10.45 -7.15 10.2 Q-9.2 11.55 -9.15 11.35 M-5.75 12.2 L-5.55 12.3 -5.45 12.5 -5.55 12.65 -6.1 12.75 -8.1 13.15 Q-9.65 13.5 -7.9 12.9 L-6.0 12.2 -5.75 12.2 M-6.6 7.8 L-5.65 7.35 -4.4 6.95 Q-4.35 6.95 -4.25 7.05 L-4.15 7.3 -4.25 7.45 -4.4 7.55 -5.6 7.7 -6.6 7.8 M-0.7 7.15 L-1.55 7.6 -2.55 7.85 -2.75 7.7 -2.8 7.5 -2.75 7.3 -2.55 7.25 -1.55 7.2 -0.7 7.15 M-4.15 11.1 Q-5.6 11.4 -4.75 11.05 L-3.55 10.55 -3.0 10.3 -2.8 10.2 -2.65 10.35 -2.55 10.55 -2.65 10.75 -4.15 11.1 M-3.35 9.8 L-5.8 10.1 -4.0 9.2 -3.4 9.3 -3.35 9.8 M-10.65 2.1 L-10.75 1.9 -10.65 1.7 -10.45 1.65 -10.3 1.75 -10.2 2.0 -10.3 2.15 -10.45 2.25 -10.65 2.1 M-12.95 1.25 L-13.25 1.1 -13.4 0.9 -13.3 0.7 -13.0 0.65 Q-12.85 0.65 -12.75 0.8 L-12.65 1.0 -12.7 1.2 -12.95 1.25 M-13.5 5.65 L-12.05 5.3 -11.3 5.15 Q-11.15 5.15 -11.1 5.3 L-10.95 5.5 -11.05 5.7 -11.25 5.75 -12.9 5.8 Q-14.4 5.85 -13.5 5.65 M-19.25 3.95 Q-17.5 3.4 -16.8 3.6 L-16.65 3.7 -19.25 3.95 M-16.1 6.9 Q-15.6 7.05 -16.9 7.3 L-18.15 7.55 -18.35 7.4 -18.4 7.05 -18.35 6.7 -18.2 6.55 -17.35 6.7 -16.1 6.9 M-20.2 9.7 L-20.35 9.75 -21.65 9.75 Q-22.85 9.75 -22.25 9.55 L-21.05 9.2 -20.35 9.05 -20.2 9.2 -20.1 9.45 -20.2 9.7 M-14.25 12.3 L-14.05 12.4 -13.95 12.7 -14.05 12.9 -14.2 13.0 -14.4 12.85 -14.45 12.6 -14.4 12.35 -14.25 12.3 M-11.5 9.65 Q-10.95 9.85 -11.4 10.2 L-11.7 10.35 -11.95 10.25 Q-16.25 10.35 -11.5 9.65 M-11.65 14.75 Q-12.25 14.45 -11.75 14.35 L-10.95 13.4 -10.35 13.5 -11.65 14.75 M-22.7 5.5 L-19.9 5.2 Q-20.0 6.3 -20.65 5.55 L-22.7 5.5 M-20.7 14.6 L-20.5 14.4 -20.3 14.65 -20.25 14.95 -20.3 15.3 -20.6 15.4 -22.65 15.65 Q-24.65 15.8 -22.75 15.25 L-20.7 14.6" fill="#ffffff" fill-opacity="0.15686275" fill-rule="evenodd" stroke="none"/>
      <path d="M-31.0 -0.2 L-31.2 -0.8 -31.1 -0.85 -30.85 -0.4 -31.0 -0.2 M-23.05 -6.4 L-22.95 -6.2 -23.05 -6.05 -23.25 -6.0 -23.4 -6.1 -23.55 -6.3 -23.4 -6.45 -23.25 -6.55 -23.05 -6.4 M-29.75 -3.95 L-29.55 -3.95 -29.4 -3.85 -29.3 -3.7 -29.4 -3.5 -29.55 -3.45 Q-29.65 -3.45 -29.75 -3.6 L-29.85 -3.75 -29.75 -3.95 M-25.75 -1.25 L-25.05 -1.2 -21.7 -0.85 -21.55 -0.65 -25.9 -1.1 -25.75 -1.25 M-21.35 -6.0 Q-21.25 -6.5 -21.05 -5.8 -20.95 -5.55 -21.2 -5.85 L-21.35 -6.0 M-24.7 -3.45 Q-24.25 -3.95 -24.5 -3.35 -24.6 -3.05 -24.7 -3.45 M-13.55 -8.7 L-13.4 -8.6 -13.3 -8.35 -13.4 -8.25 -13.5 -8.15 -13.7 -8.25 -13.75 -8.45 -13.7 -8.6 -13.55 -8.7 M-11.1 -6.3 L-11.25 -6.5 -11.15 -6.65 -10.95 -6.7 -10.75 -6.55 -10.65 -6.4 -10.75 -6.2 -10.9 -6.2 -11.1 -6.3 M-19.5 -3.65 L-19.45 -4.05 -19.25 -4.15 Q-18.55 -3.75 -19.3 -3.6 L-19.5 -3.65 M-13.3 -4.45 L-13.6 -4.8 -13.25 -4.75 Q-12.8 -4.5 -13.3 -4.45 M-1.4 -7.45 L-1.45 -7.1 -1.6 -6.95 Q-2.1 -7.25 -1.55 -7.45 L-1.4 -7.45 M-4.2 -6.55 Q-3.65 -6.95 -3.95 -6.45 -4.1 -6.15 -4.2 -6.55 M-8.75 -9.65 L-8.6 -9.55 -8.45 -9.35 -8.55 -9.2 -8.7 -9.15 -8.9 -9.25 -9.05 -9.4 -8.95 -9.6 -8.75 -9.65 M-7.65 -8.5 Q-7.4 -8.15 -7.75 -8.4 -8.15 -9.05 -7.65 -8.5 M-9.0 -7.4 Q-9.05 -7.1 -9.15 -7.5 -8.75 -7.9 -9.0 -7.4 M-5.3 -7.45 Q-5.35 -7.3 -5.6 -7.6 -5.25 -7.9 -5.3 -7.45 M-9.8 9.95 L-9.9 10.5 -10.75 10.4 Q-10.85 9.65 -10.0 9.85 L-9.8 9.95 M-13.05 2.1 L-12.15 2.3 -12.0 2.45 -12.9 2.4 -13.05 2.1 M-16.0 5.2 Q-15.35 5.55 -15.85 6.2 L-16.35 6.2 -16.2 5.45 -16.0 5.2 M-17.25 8.95 L-17.15 8.85 Q-16.65 8.95 -17.0 9.35 L-17.5 9.7 -18.1 9.6 Q-18.1 9.05 -17.25 8.95 M-12.45 10.1 L-11.15 10.25 Q-11.55 10.7 -12.2 10.5 -12.6 10.4 -12.45 10.1 M-13.75 14.15 Q-13.2 14.05 -12.95 14.55 L-12.9 14.7 -13.7 14.45 -13.75 14.15 M-18.3 14.25 L-18.6 14.75 -19.1 14.85 Q-19.5 14.85 -19.45 14.4 L-18.45 14.05 -18.3 14.05 -18.3 14.25 M-18.95 16.15 L-18.85 16.3 Q-18.9 16.85 -19.3 16.85 L-19.95 16.7 Q-19.9 15.75 -18.95 16.15 M-23.15 1.1 L-23.2 1.3 -25.1 0.9 -25.1 0.8 -25.1 0.65 -23.3 0.95 -23.15 1.1 M-23.9 1.75 L-25.1 1.6 -25.15 1.5 -24.0 1.65 -23.9 1.75 M-27.5 3.25 L-27.6 3.45 -27.95 2.95 Q-27.45 2.35 -27.5 3.25 M-29.7 8.15 Q-30.1 8.2 -30.15 7.6 L-30.25 7.2 Q-29.55 6.85 -29.55 8.1 L-29.7 8.15 M-20.75 11.15 Q-20.5 11.35 -20.5 11.8 L-20.8 11.65 -20.95 11.25 Q-21.1 10.6 -20.75 11.15 M-30.75 10.05 L-31.15 9.9 -31.3 9.75 -30.9 9.15 Q-29.95 9.3 -30.75 10.05 M-31.6 1.7 L-31.35 1.55 Q-30.9 1.7 -31.15 2.3 L-31.35 2.4 Q-31.9 2.25 -31.6 1.7 M-26.25 12.6 L-26.15 11.85 -25.95 12.55 -26.15 12.7 -26.25 12.6 M-29.65 14.35 Q-29.7 13.7 -29.35 14.35 -29.2 14.6 -29.65 14.35" fill="#4f1717" fill-opacity="0.7490196" fill-rule="evenodd" stroke="none"/>
      <path d="M-8.5 -2.2 L20.8 -9.45 30.2 -6.75 5.85 0.85 5.55 0.95 5.15 0.8 3.35 0.65 3.1 0.7 2.85 0.7 0.8 0.65 0.7 0.7 0.15 0.8 -0.65 0.8 -0.65 0.95 -8.5 -2.2" fill="#924b4b" fill-rule="evenodd" stroke="none"/>
      <path d="M5.55 0.95 L5.85 0.85 30.2 -6.75 29.8 9.65 1.95 21.8 2.1 6.05 2.2 6.0 2.3 5.95 2.55 5.3 2.55 5.15 2.75 4.7 3.05 4.65 3.3 4.6 3.5 3.95 3.6 3.6 4.45 2.95 4.45 2.85 4.85 2.75 Q5.3 2.65 5.2 2.05 5.15 1.55 5.4 1.2 L5.6 1.0 5.55 0.95 M5.6 1.0 L5.85 0.85 5.6 1.0" fill="#7e2b25" fill-rule="evenodd" stroke="none"/>
      <path d="M-0.65 0.95 L-0.65 0.8 0.15 0.8 0.7 0.7 0.8 0.65 2.85 0.7 3.1 0.7 3.35 0.65 5.15 0.8 5.55 0.95 5.6 1.0 5.4 1.2 Q5.15 1.55 5.2 2.05 5.3 2.65 4.85 2.75 L4.45 2.85 4.45 2.95 3.6 3.6 3.5 3.95 3.3 4.6 3.05 4.65 2.75 4.7 2.55 5.15 2.55 5.3 2.3 5.95 2.2 6.0 2.1 6.05 2.0 6.25 1.6 5.45 1.45 5.3 Q1.0 4.95 1.2 4.4 L1.25 4.2 1.0 4.05 0.55 3.75 0.45 3.6 0.35 3.55 Q-0.1 3.2 0.0 2.6 L-0.1 1.5 -0.3 1.35 -0.65 0.95" fill="#863535" fill-rule="evenodd" stroke="none"/>
      <path d="M-8.5 -2.2 L-0.65 0.95 -0.3 1.35 -0.1 1.5 0.0 2.6 Q-0.1 3.2 0.35 3.55 L0.45 3.6 0.55 3.75 1.0 4.05 1.25 4.2 1.2 4.4 Q1.0 4.95 1.45 5.3 L1.6 5.45 2.0 6.25 2.1 6.05 1.95 21.8 -8.05 16.25 -8.5 -2.2" fill="#682020" fill-rule="evenodd" stroke="none"/>
      <path d="M30.2 -6.75 L20.8 -9.45 -8.5 -2.2 -0.65 0.95 -0.65 0.8 0.15 0.8 0.7 0.7 0.8 0.65 2.85 0.7 3.1 0.7 3.35 0.65 5.15 0.8 5.55 0.95 5.85 0.85 30.2 -6.75 29.8 9.65 1.95 21.8 -8.05 16.25 -8.5 -2.2 M5.6 1.0 L5.4 1.2 Q5.15 1.55 5.2 2.05 5.3 2.65 4.85 2.75 L4.45 2.85 4.45 2.95 3.6 3.6 3.5 3.95 3.3 4.6 3.05 4.65 2.75 4.7 2.55 5.15 2.55 5.3 2.3 5.95 2.2 6.0 2.1 6.05 1.95 21.8 M5.6 1.0 L5.55 0.95 M5.85 0.85 L5.6 1.0 M2.1 6.05 L2.0 6.25 1.6 5.45 1.45 5.3 Q1.0 4.95 1.2 4.4 L1.25 4.2 1.0 4.05 0.55 3.75 0.45 3.6 0.35 3.55 Q-0.1 3.2 0.0 2.6 L-0.1 1.5 -0.3 1.35 -0.65 0.95" fill="none" stroke="#551a1a" stroke-linecap="round" stroke-linejoin="round" stroke-width="0.35000000000000003"/>
      <path d="M0.3 -0.9 L-0.7 -0.95 -0.7 -1.35 0.3 -1.3 0.3 -0.9 M2.4 -0.45 L2.7 -0.35 2.85 -0.2 2.7 -0.05 2.4 -0.05 2.05 -0.1 1.95 -0.25 2.05 -0.4 2.4 -0.45 M3.85 -2.75 L6.0 -3.45 Q7.9 -4.15 6.05 -3.2 4.25 -2.3 4.15 -2.2 L3.8 -2.15 3.5 -2.25 3.35 -2.45 3.5 -2.65 3.85 -2.75 M8.2 -4.3 L10.2 -4.25 8.15 -4.0 Q7.65 -4.2 8.2 -4.3 M8.5 -1.85 L8.15 -1.95 8.05 -2.1 8.15 -2.25 8.5 -2.25 8.8 -2.2 8.95 -2.05 8.8 -1.9 8.5 -1.85 M19.9 -6.9 L21.1 -7.55 21.35 -7.6 21.6 -7.5 21.75 -7.3 21.6 -7.1 20.8 -6.8 19.5 -6.55 Q18.85 -6.45 19.9 -6.9 M14.15 -5.85 L14.7 -6.55 Q15.55 -6.35 14.9 -5.9 L14.15 -5.85 M11.8 -4.35 L11.85 -4.55 12.15 -4.65 12.4 -4.5 12.5 -4.3 12.4 -4.1 12.15 -4.05 11.85 -4.15 11.8 -4.35 M12.2 -2.85 L13.05 -2.9 13.25 -2.7 11.65 -2.1 Q11.4 -2.85 12.2 -2.85 M19.7 -5.4 L20.0 -5.5 20.2 -5.4 20.35 -5.2 20.2 -5.0 20.0 -4.9 19.7 -5.0 19.6 -5.25 19.7 -5.4 M16.55 -4.65 Q16.35 -4.65 16.25 -4.8 L16.1 -5.0 16.3 -5.2 17.6 -5.4 Q18.85 -5.55 18.3 -5.3 L17.35 -4.95 16.85 -4.75 16.55 -4.65 M18.6 -1.4 L20.6 -1.7 Q22.2 -1.95 20.4 -1.5 L18.55 -1.0 18.35 -0.95 18.1 -1.0 18.0 -1.15 18.1 -1.3 18.6 -1.4 M22.45 -7.4 L22.65 -7.6 23.05 -7.65 23.45 -7.55 23.65 -7.35 23.45 -7.15 23.05 -7.05 22.65 -7.2 22.45 -7.4 M24.9 -1.55 L26.55 -1.45 24.75 -0.85 Q24.25 -1.35 24.9 -1.55 M28.2 -3.95 Q28.55 -3.55 28.2 -3.2 27.8 -2.85 27.7 -3.3 L28.2 -3.95 M27.2 -1.05 L27.2 -1.6 27.65 -1.6 29.4 -1.25 27.2 -1.05 M25.35 1.1 Q24.9 1.2 24.95 0.8 L27.45 0.5 Q25.95 0.75 25.35 1.1 M23.85 1.6 L24.4 0.95 23.85 2.2 Q23.2 1.85 23.85 1.6 M21.7 3.05 L21.65 3.3 21.4 3.4 19.5 3.65 Q17.8 3.95 19.25 3.45 L21.0 2.8 21.4 2.7 21.65 2.8 21.7 3.05 M24.05 5.35 L23.5 5.3 23.5 4.7 24.05 4.75 24.05 5.35 M24.2 7.65 L25.1 7.55 24.2 8.05 23.25 8.4 23.05 8.3 23.0 8.1 23.05 7.9 23.25 7.8 24.2 7.65 M21.6 7.8 L21.65 8.0 21.6 8.2 21.4 8.3 20.25 8.55 19.2 8.75 20.2 8.2 21.4 7.7 21.6 7.8 M22.3 10.35 L19.9 10.9 21.7 9.8 22.3 9.85 22.3 10.35 M22.1 11.15 L22.65 10.8 Q22.7 10.7 22.8 10.75 L23.0 10.85 23.1 11.05 23.0 11.25 21.5 11.75 Q20.05 12.15 20.9 11.75 L22.1 11.15 M26.25 8.0 L27.05 7.5 26.45 8.15 26.25 8.0 M15.2 1.15 L15.1 1.2 14.9 1.15 14.85 1.0 14.9 0.85 15.1 0.8 15.2 0.85 15.3 1.0 15.2 1.15 M15.65 3.65 L15.5 3.5 15.4 3.3 15.5 3.1 15.65 3.05 15.85 3.15 15.95 3.35 15.85 3.55 15.65 3.65 M13.25 2.9 L12.95 2.75 12.9 2.55 12.95 2.35 13.25 2.3 13.45 2.4 13.6 2.6 13.45 2.8 13.25 2.9 M14.7 7.15 L13.1 7.35 Q11.65 7.55 12.5 7.25 L13.95 6.75 14.7 6.55 14.95 6.65 15.05 6.85 14.95 7.05 14.7 7.15 M14.4 11.5 L14.05 11.7 13.85 11.65 Q9.6 12.1 14.35 10.95 14.9 11.1 14.4 11.5 M18.6 11.1 L16.6 12.45 Q16.65 12.25 17.85 11.45 L18.6 11.1 M18.25 6.45 Q17.85 6.2 19.3 5.95 L20.7 5.75 Q20.5 6.25 19.5 6.4 L18.25 6.45 M8.65 1.85 L8.9 1.95 9.05 2.2 8.9 2.35 7.9 2.6 6.6 2.65 Q6.3 2.55 7.3 2.3 L8.4 1.95 8.65 1.85 M9.5 5.6 L6.9 6.1 Q8.65 5.35 9.35 5.5 L9.5 5.6 M4.95 11.45 L5.65 11.25 5.75 11.35 5.85 11.6 5.75 11.85 5.65 11.95 4.3 12.05 Q3.1 12.1 3.75 11.85 L4.95 11.45 M7.85 8.5 L8.65 8.55 9.9 8.65 Q10.35 8.75 9.1 9.15 L7.85 9.5 7.65 9.35 7.6 9.0 7.65 8.65 7.85 8.5 M5.55 7.8 L3.5 7.9 6.25 7.4 Q6.05 8.4 5.55 7.8 M4.85 0.55 L6.35 -0.1 5.85 0.6 4.85 0.55 M3.0 17.8 Q1.1 18.2 2.95 17.5 L5.05 16.65 5.2 16.5 5.4 16.65 5.5 16.95 5.35 17.3 5.05 17.45 3.0 17.8 M19.6 13.05 L19.85 13.0 20.05 13.05 20.15 13.2 20.05 13.35 19.45 13.55 17.5 14.05 Q15.95 14.55 17.7 13.8 L19.6 13.05 M11.65 14.4 L11.5 14.5 11.3 14.4 11.25 14.15 11.3 13.9 11.5 13.8 11.65 13.9 11.7 14.15 11.65 14.4 M13.85 15.65 L14.65 14.6 15.25 14.6 13.9 16.0 Q13.3 15.75 13.85 15.65 M-0.6 -2.55 L-0.1 -2.85 Q0.4 -2.55 -0.4 -2.3 -0.65 -2.2 -0.6 -2.55 M-1.8 -2.25 L-1.9 -2.1 -2.2 -2.05 -2.5 -2.15 -2.6 -2.3 -2.5 -2.45 -2.2 -2.45 -1.9 -2.4 -1.8 -2.25" fill="#ffffff" fill-opacity="0.15686275" fill-rule="evenodd" stroke="none"/>
      <path d="M3.65 -3.8 L3.8 -3.7 3.9 -3.55 3.8 -3.35 3.65 -3.3 3.45 -3.35 3.35 -3.55 3.45 -3.7 3.65 -3.8 M2.0 -0.7 Q2.5 -1.2 2.25 -0.6 2.1 -0.3 2.0 -0.7 M7.3 -1.75 L7.5 -1.85 Q8.1 -1.55 7.4 -1.3 L7.25 -1.4 7.3 -1.75 M5.5 -3.5 Q5.55 -4.0 5.8 -3.3 5.85 -3.05 5.6 -3.35 L5.5 -3.5 M18.25 -8.1 L18.35 -7.95 18.25 -7.75 18.05 -7.7 17.9 -7.8 17.8 -8.0 17.9 -8.15 18.05 -8.2 18.25 -8.1 M19.0 -7.05 Q18.6 -7.7 19.05 -7.2 19.35 -6.9 19.0 -7.05 M13.3 -6.3 L13.1 -6.4 13.05 -6.6 13.1 -6.75 13.3 -6.8 13.45 -6.7 13.55 -6.55 13.45 -6.35 13.3 -6.3 M13.45 -3.0 Q13.85 -2.8 13.35 -2.7 L13.05 -3.05 13.45 -3.0 M15.45 -4.9 L15.55 -5.05 15.7 -5.1 15.9 -5.0 16.0 -4.85 15.9 -4.65 15.7 -4.6 15.55 -4.7 15.45 -4.9 M17.55 -6.05 Q17.95 -6.5 17.75 -5.95 17.65 -5.7 17.55 -6.05 M21.3 -6.3 L21.1 -6.5 Q21.45 -6.8 21.3 -6.3 M25.15 -6.35 L25.0 -6.2 Q24.5 -6.45 25.05 -6.75 L25.2 -6.75 25.15 -6.35 M22.35 -5.55 Q22.9 -6.0 22.65 -5.5 22.5 -5.2 22.35 -5.55 M22.05 -0.6 Q21.95 -0.35 21.8 -0.6 22.25 -1.2 22.05 -0.6 M22.95 -3.2 Q22.95 -3.75 23.4 -3.4 23.6 -3.2 23.3 -2.9 23.0 -2.7 22.95 -3.2 M28.25 -4.3 Q28.5 -4.75 28.65 -4.3 L28.4 -4.15 28.25 -4.3 M25.7 2.9 L25.55 3.0 25.4 2.9 25.35 2.7 25.4 2.5 Q25.5 2.4 25.55 2.4 L25.7 2.5 25.8 2.7 25.7 2.9 M26.5 5.85 Q26.45 6.95 25.45 6.45 25.7 5.7 26.4 5.8 L26.5 5.85 M29.05 5.3 L29.25 5.4 29.35 5.6 29.25 5.75 29.05 5.8 28.8 5.75 28.7 5.55 28.8 5.4 29.05 5.3 M20.6 1.85 L20.55 2.05 20.3 2.05 20.05 2.0 20.0 1.8 20.05 1.65 20.3 1.55 20.55 1.7 20.6 1.85 M23.3 9.5 Q23.45 10.1 22.95 10.25 22.5 10.45 22.4 9.9 22.55 9.25 23.3 9.5 M17.05 3.55 L17.95 3.25 18.15 3.2 Q17.95 4.15 16.85 4.0 16.7 3.75 17.05 3.55 M19.95 3.85 L19.9 4.0 Q19.45 4.2 19.45 3.8 L19.55 3.45 19.95 3.85 M13.4 4.0 Q13.15 3.85 13.35 3.75 L14.15 3.8 14.25 3.95 13.4 4.0 M13.55 11.5 L14.8 11.55 Q14.4 12.0 13.75 11.85 13.35 11.8 13.55 11.5 M10.35 7.95 L9.9 8.05 10.1 7.3 10.25 7.05 Q10.85 7.35 10.35 7.95 M15.95 11.0 L16.15 11.1 16.05 11.65 15.2 11.65 Q15.1 10.9 15.95 11.0 M18.95 7.9 L18.85 7.7 Q19.5 7.35 19.4 8.05 L18.95 7.9 M5.05 1.8 L0.8 1.75 0.9 1.65 1.65 1.6 Q3.3 1.5 4.95 1.65 L5.05 1.8 M2.45 4.25 L2.6 4.35 1.4 4.3 1.35 4.25 2.45 4.25 M1.4 3.5 L1.45 3.35 3.2 3.5 3.35 3.65 3.3 3.85 1.45 3.65 1.4 3.5 M7.95 11.5 Q7.95 10.95 8.85 10.8 L9.0 10.75 Q9.45 10.75 9.1 11.2 L8.6 11.55 7.95 11.5 M5.15 13.75 L5.05 13.45 Q4.95 12.8 5.3 13.25 L5.5 13.9 5.15 13.75 M7.45 15.9 L7.6 15.9 7.6 16.1 7.3 16.65 6.75 16.75 Q6.35 16.85 6.45 16.4 L7.45 15.9 M6.9 18.2 Q6.85 18.75 6.45 18.75 L5.8 18.65 Q5.85 17.75 6.8 18.05 L6.9 18.2 M0.15 15.2 L-0.05 15.35 -0.15 15.25 0.0 14.5 0.15 15.2 M12.15 15.9 L12.05 15.6 Q12.65 15.45 12.8 15.9 L12.85 16.05 12.15 15.9 M-2.8 -3.25 L-2.65 -3.15 -2.55 -3.0 -2.65 -2.8 -2.8 -2.75 -2.95 -2.8 -3.0 -3.0 -2.95 -3.15 -2.8 -3.25 M-2.95 -0.3 L-3.0 -0.5 -2.95 -0.65 -2.75 -0.75 -2.55 -0.65 -2.45 -0.45 -2.55 -0.3 -2.75 -0.25 -2.95 -0.3 M-4.35 2.45 L-4.15 2.8 -4.3 3.05 -4.45 2.5 -4.35 2.45 M-4.7 4.85 Q-4.3 4.95 -4.55 5.55 L-4.7 5.7 Q-5.25 5.6 -4.95 5.05 L-4.7 4.85 M-0.95 6.15 L-1.1 6.35 -1.4 5.9 Q-0.95 5.3 -0.95 6.15 M-6.95 3.0 Q-7.4 2.9 -7.3 2.35 L-7.3 2.05 Q-6.75 1.95 -6.7 2.7 L-6.95 3.0 M-3.2 11.1 L-3.35 11.2 Q-3.8 11.3 -3.8 10.65 L-3.85 10.3 Q-3.2 9.9 -3.2 11.1 M-3.35 17.25 Q-3.2 17.45 -3.7 17.25 -3.65 16.6 -3.35 17.25 M-4.9 13.0 L-5.05 12.85 -4.65 12.25 Q-3.7 12.35 -4.55 13.1 L-4.9 13.0" fill="#4f1717" fill-opacity="0.7490196" fill-rule="evenodd" stroke="none"/>
      <path d="M-8.8 16.85 L-10.15 16.7 Q-11.8 16.7 -11.8 15.55 -11.8 14.8 -10.7 14.7 -10.55 13.35 -8.65 14.1 L-8.75 12.4 Q-8.75 11.75 -8.45 11.55 L-8.55 10.5 Q-8.55 7.3 -8.7 6.25 L-9.25 0.9 Q-9.75 0.5 -9.75 -0.2 L-9.45 -1.1 Q-9.45 -2.2 -8.6 -2.15 -8.2 -2.1 -7.85 -0.6 L-5.6 -0.25 -5.45 0.25 -5.4 1.9 Q-3.7 2.75 -3.7 4.0 L-4.15 6.8 Q-4.15 7.9 -2.7 8.75 -1.25 9.55 -1.25 10.4 -1.25 10.85 -1.55 11.3 -0.4 11.85 -0.2 12.5 L0.0 13.55 Q-0.5 14.95 0.45 15.8 L0.15 16.7 -0.45 17.2 Q0.1 19.0 0.1 19.85 L0.05 20.45 -0.05 20.65 -1.95 19.75 -1.95 19.5 -2.1 19.0 -3.15 15.9 Q-3.6 14.35 -3.55 12.7 L-3.65 12.1 -4.15 10.4 -4.3 8.15 -4.3 6.6 Q-4.3 5.7 -4.85 5.1 L-5.3 4.8 -5.75 4.45 Q-6.2 3.95 -6.05 3.25 L-6.0 2.55 Q-6.0 2.1 -6.45 1.75 L-6.75 1.55 -7.05 1.3 -7.45 1.35 Q-7.7 1.45 -7.6 1.8 L-7.2 4.5 -7.1 5.6 Q-7.05 6.15 -7.55 6.4 -8.0 6.6 -8.3 6.95 L-8.4 7.35 Q-8.3 8.2 -7.55 8.75 -7.1 9.1 -7.1 9.75 L-7.0 10.05 Q-6.85 10.6 -6.95 11.05 L-7.1 11.35 -7.75 12.75 -8.3 14.3 -8.3 14.6 Q-8.15 15.8 -8.75 16.7 L-8.8 16.85" fill="#999999" fill-rule="evenodd" stroke="none"/>
      <path d="M-1.95 19.75 L-4.45 18.75 Q-5.8 18.45 -6.1 18.15 L-7.8 17.15 -8.6 16.9 -8.8 16.85 -8.75 16.7 Q-8.15 15.8 -8.3 14.6 L-8.3 14.3 -7.75 12.75 -7.1 11.35 -6.95 11.05 Q-6.85 10.6 -7.0 10.05 L-7.1 9.75 Q-7.1 9.1 -7.55 8.75 -8.3 8.2 -8.4 7.35 L-8.3 6.95 Q-8.0 6.6 -7.55 6.4 -7.05 6.15 -7.1 5.6 L-7.2 4.5 -7.6 1.8 Q-7.7 1.45 -7.45 1.35 L-7.05 1.3 -6.75 1.55 -6.45 1.75 Q-6.0 2.1 -6.0 2.55 L-6.05 3.25 Q-6.2 3.95 -5.75 4.45 L-5.3 4.8 -4.85 5.1 Q-4.3 5.7 -4.3 6.6 L-4.3 8.15 -4.15 10.4 -3.65 12.1 -3.55 12.7 Q-3.6 14.35 -3.15 15.9 L-2.1 19.0 -1.95 19.5 -1.95 19.75" fill="#7b7b7b" fill-rule="evenodd" stroke="none"/>
    </g>
  </defs>
</svg>
