<?xml version="1.0" encoding="UTF-8" standalone="no"?>
<svg xmlns:xlink="http://www.w3.org/1999/xlink" height="41.2px" width="46.05px" xmlns="http://www.w3.org/2000/svg">
  <g transform="matrix(1.0, 0.0, 0.0, 1.0, 23.0, 20.6)">
    <use height="41.2" transform="matrix(1.0, 0.0, 0.0, 1.0, -23.0, -20.6)" width="46.05" xlink:href="#shape0"/>
  </g>
  <defs>
    <g id="shape0" transform="matrix(1.0, 0.0, 0.0, 1.0, 23.0, 20.6)">
      <path d="M3.5 -12.75 L3.45 -12.7 8.2 -11.6 10.05 -11.2 6.7 -10.25 -11.25 -5.05 -13.75 -4.3 -17.05 -3.4 1.25 -11.75 3.5 -12.75 M14.5 -2.85 L15.5 -2.7 20.4 -1.8 -7.95 8.65 -4.9 7.05 13.9 -2.95 14.5 -2.85 M12.55 -1.35 L-4.9 7.05 12.55 -1.35 M4.15 -11.0 L-11.25 -5.05 4.15 -11.0" fill="#a99c9a" fill-rule="evenodd" stroke="none"/>
      <path d="M-1.5 -19.25 L-0.95 -19.4 2.65 -20.5 3.5 -12.75 1.25 -11.75 -17.05 -3.4 -13.75 -4.3 -11.25 -5.05 6.7 -10.25 10.05 -11.2 10.1 -11.2 11.3 -10.9 13.15 -3.1 13.9 -2.95 -4.9 7.05 -7.95 8.65 20.4 -1.8 20.45 -1.8 22.95 6.35 0.9 20.5 0.65 17.75 0.55 16.85 13.5 6.25 15.9 4.35 15.6 4.45 0.0 11.2 -0.05 10.8 -10.15 8.85 -11.05 4.2 -6.75 1.25 -6.25 0.9 3.0 -5.45 -3.05 -3.45 -11.95 -0.55 -11.95 -0.6 -19.65 -3.1 -20.8 -8.75 -3.3 -18.7 -1.5 -19.25 -3.3 -18.7 -3.15 -18.8 -1.5 -19.25 M-10.85 -3.05 L6.7 -10.25 -10.85 -3.05 M11.3 -10.9 L10.05 -11.2 11.3 -10.9 M10.05 4.35 L18.2 0.15 10.05 4.35 M17.85 2.8 L15.6 4.45 17.85 2.8 M-14.9 -5.6 L1.25 -11.75 -14.9 -5.6 M-16.85 -7.95 L-5.25 -11.8 -16.85 -7.95 M9.15 -8.7 L-3.05 -3.45 9.15 -8.7 M9.35 -6.35 L-6.25 0.9 9.35 -6.35 M-7.0 3.2 L10.5 -4.7 -7.0 3.2 M-6.0 5.4 L10.5 -2.1 -6.0 5.4" fill="#ddd8d5" fill-rule="evenodd" stroke="none"/>
      <path d="M8.2 -11.6 L10.1 -11.2 10.05 -11.2 8.2 -11.6" fill="#cdc5c2" fill-rule="evenodd" stroke="none"/>
      <path d="M-11.05 4.2 L-11.95 -0.55 -3.05 -3.45 -8.9 -0.95 -3.05 -3.45 3.0 -5.45 -6.25 0.9 -6.75 1.25 -11.05 4.2 M-20.8 -8.75 L-22.9 -10.9 -5.65 -18.0 -5.05 -18.2 -3.3 -18.7 -20.8 -8.75 M0.55 16.85 L0.0 11.2 15.6 4.45 13.5 6.25 0.55 16.85" fill="#ffffff" fill-rule="evenodd" stroke="none"/>
      <path d="M-5.05 -18.2 L-3.15 -18.8 -3.3 -18.7 -5.05 -18.2 M13.5 6.25 L15.6 4.45 15.9 4.35 13.5 6.25" fill="#ece9e8" fill-rule="evenodd" stroke="none"/>
      <path d="M-1.5 -19.25 L-0.95 -19.4 2.65 -20.5 3.5 -12.75 3.45 -12.7 8.2 -11.6 10.05 -11.2 11.3 -10.9 13.15 -3.1 14.5 -2.85 15.5 -2.7 20.4 -1.8 20.45 -1.8 22.95 6.35 0.9 20.5 0.65 17.75 -0.05 10.8 -10.15 8.85 -11.05 4.2 -11.95 -0.55 -11.95 -0.6 -19.65 -3.1 -20.8 -8.75 -22.9 -10.9 -5.65 -18.0 -5.05 -18.2 -3.3 -18.7 M-1.5 -19.25 L-3.3 -18.7" fill="none" stroke="#5a5856" stroke-linecap="round" stroke-linejoin="round" stroke-opacity="0.49803922" stroke-width="0.25"/>
      <path d="M6.7 -10.25 L-10.85 -3.05 M-4.9 7.05 L12.55 -1.35 M13.5 6.25 L15.6 4.45 17.85 2.8 M18.2 0.15 L10.05 4.35 M-11.25 -5.05 L-13.75 -4.3 M1.25 -11.75 L-14.9 -5.6 M-3.05 -3.45 L-8.9 -0.95 M-5.25 -11.8 L-16.85 -7.95 M-3.05 -3.45 L9.15 -8.7 M-6.75 1.25 L-6.25 0.9 9.35 -6.35 M10.5 -2.1 L-6.0 5.4 M10.5 -4.7 L-7.0 3.2 M-11.25 -5.05 L4.15 -11.0" fill="none" stroke="#5a5856" stroke-linecap="round" stroke-linejoin="round" stroke-opacity="0.49803922" stroke-width="0.5"/>
      <path d="M-0.05 10.8 L-5.35 9.8 Q-5.6 3.3 -4.3 -1.3 -2.6 -7.4 0.9 -6.5 4.35 -5.65 7.5 1.65 9.85 7.2 11.05 13.95 L0.9 20.5 0.1 12.25 0.0 11.6 -0.05 10.8" fill="url(#gradient0)" fill-rule="evenodd" stroke="none"/>
      <path d="M0.55 -16.3 Q0.9 -15.7 0.6 -15.55 L-1.15 -15.3 -2.3 -15.25 -2.25 -14.75 -2.2 -13.5 -3.15 -15.25 -3.2 -15.35 Q-3.55 -16.8 -3.2 -16.95 L-3.15 -16.95 -2.65 -16.4 -2.65 -16.35 Q-1.7 -16.75 -0.8 -16.75 0.25 -16.85 0.55 -16.3 M5.15 -1.65 Q5.5 0.2 5.2 2.35 L4.85 2.2 4.4 1.4 Q3.8 0.35 3.5 -1.85 L3.0 -5.6 Q3.4 -5.55 4.1 -4.4 3.6 -2.95 4.05 -2.1 4.35 -1.55 4.95 -1.3 L5.15 -1.65 M1.25 11.9 L0.35 10.85 0.0 10.1 Q-0.2 9.4 0.2 9.2 0.5 9.05 1.15 10.25 1.75 11.4 1.25 11.9 M0.85 9.2 Q0.5 8.6 0.4 6.5 0.9 6.6 1.5 7.65 2.15 8.95 1.8 10.1 L0.85 9.2 M9.6 1.7 L9.75 2.45 9.3 3.7 8.75 3.2 Q8.55 2.8 8.75 2.45 L9.0 1.1 9.15 1.0 9.6 1.7 M14.8 11.55 L14.2 9.6 Q14.6 9.5 15.2 10.65 L15.45 11.15 14.8 11.55 M13.7 -0.95 L14.45 -0.85 14.95 -0.05 15.2 0.3 15.4 0.95 Q15.4 1.75 13.7 2.55 13.5 2.65 13.5 2.45 L12.95 1.45 12.5 0.55 Q12.4 -0.4 13.7 -0.95 M-8.8 -16.7 L-8.15 -17.0 -7.55 -14.9 -7.9 -15.1 -8.65 -16.45 -8.8 -16.7 M-13.4 -1.75 L-13.85 -2.55 Q-15.45 -4.95 -12.5 -6.25 -12.1 -6.45 -11.5 -5.4 -10.1 -2.95 -13.0 -1.6 -13.45 -1.45 -13.4 -1.75 M-6.4 2.2 L-7.1 3.7 -7.6 3.1 -7.75 2.05 Q-7.7 1.05 -7.15 0.8 -6.9 0.7 -6.55 1.3 -6.25 1.95 -6.4 2.2 M-0.7 1.35 Q-0.4 1.9 -0.25 2.9 L-0.5 2.75 -0.85 2.2 -1.15 1.55 Q-1.35 0.9 -1.15 0.8 L-1.05 0.75 -0.7 1.35 M-4.25 -11.8 L-3.15 -9.35 -3.45 -9.35 -4.8 -11.5 Q-5.65 -13.05 -5.9 -14.1 -5.4 -13.95 -4.25 -11.8" fill="#341a09" fill-opacity="0.7921569" fill-rule="evenodd" stroke="none"/>
      <path d="M6.8 -11.95 L8.9 -11.45 Q7.9 -11.0 6.05 -9.25 L6.8 -11.95 M4.1 -4.4 L4.1 -4.45 Q4.35 -3.2 5.15 -1.65 L4.95 -1.3 Q4.35 -1.55 4.05 -2.1 3.6 -2.95 4.1 -4.4 M0.6 17.75 L0.4 15.6 1.15 15.6 Q3.7 15.6 4.15 16.4 4.6 17.4 4.25 17.55 L0.6 17.75 M-14.45 -10.05 Q-14.65 -10.35 -14.3 -11.2 -13.85 -12.3 -12.8 -12.8 -12.45 -12.95 -12.15 -12.35 -11.85 -11.85 -12.75 -11.15 L-14.0 -9.6 -14.45 -10.05 M-4.95 -0.75 Q-4.6 -1.9 -3.95 -2.2 -3.45 -2.45 -2.9 -1.45 -1.85 0.5 -4.15 1.6 -4.55 1.75 -5.05 0.75 -5.3 0.35 -4.95 -0.75" fill="#341a09" fill-opacity="0.5372549" fill-rule="evenodd" stroke="none"/>
      <path d="M11.3 -10.9 L13.15 -3.1 20.3 -1.75 22.9 6.35 0.9 20.5 -0.05 10.8 -10.15 8.85 -11.95 -0.55 -11.95 -0.6 -14.3 -1.35 Q-10.55 -5.4 -6.95 -8.4 -2.1 -12.55 3.3 -14.4 L3.5 -12.75 3.45 -12.7 11.3 -10.9" fill="url(#gradient1)" fill-rule="evenodd" stroke="none"/>
      <path d="M4.0 2.9 Q7.35 1.35 11.6 3.6 15.35 5.65 17.75 9.65 L2.7 19.35 2.05 18.25 Q0.4 15.2 0.1 12.25 L0.0 11.6 0.1 8.9 Q0.65 4.4 4.0 2.9" fill="url(#gradient2)" fill-rule="evenodd" stroke="none"/>
      <path d="M-19.65 -3.1 L-20.8 -8.75 -22.9 -10.9 -11.15 -15.75 Q2.8 -6.6 4.2 -4.0 5.95 -0.75 5.65 2.55 8.0 10.95 7.5 16.25 L0.9 20.5 -0.05 10.8 -10.15 8.85 -11.95 -0.55 -11.95 -0.6 -19.65 -3.1" fill="url(#gradient3)" fill-rule="evenodd" stroke="none"/>
    </g>
    <radialGradient cx="0" cy="0" gradientTransform="matrix(-0.0107, -0.0027, 0.0032, 0.0295, 3.35, 16.45)" gradientUnits="userSpaceOnUse" id="gradient0" r="819.2" spreadMethod="pad">
      <stop offset="0.5176470588235295" stop-color="#291101" stop-opacity="0.7921569"/>
      <stop offset="0.9372549019607843" stop-color="#5c2e01" stop-opacity="0.0"/>
    </radialGradient>
    <radialGradient cx="0" cy="0" gradientTransform="matrix(0.0161, 0.0184, -0.025, 0.021, 5.9, 5.65)" gradientUnits="userSpaceOnUse" id="gradient1" r="819.2" spreadMethod="pad">
      <stop offset="0.5176470588235295" stop-color="#432101" stop-opacity="0.7921569"/>
      <stop offset="0.9372549019607843" stop-color="#5c2e01" stop-opacity="0.0"/>
    </radialGradient>
    <radialGradient cx="0" cy="0" gradientTransform="matrix(-0.01, 0.0046, 0.0076, 0.0143, 10.2, 14.5)" gradientUnits="userSpaceOnUse" id="gradient2" r="819.2" spreadMethod="pad">
      <stop offset="0.5176470588235295" stop-color="#1e261e" stop-opacity="0.7921569"/>
      <stop offset="0.9372549019607843" stop-color="#5c2e01" stop-opacity="0.0"/>
    </radialGradient>
    <radialGradient cx="0" cy="0" gradientTransform="matrix(0.0152, -0.007, 0.0124, 0.0231, -13.25, 1.3)" gradientUnits="userSpaceOnUse" id="gradient3" r="819.2" spreadMethod="pad">
      <stop offset="0.5176470588235295" stop-color="#1e261e" stop-opacity="0.7921569"/>
      <stop offset="0.9372549019607843" stop-color="#5c2e01" stop-opacity="0.0"/>
    </radialGradient>
  </defs>
</svg>
