<?xml version="1.0" encoding="UTF-8" standalone="no"?>
<svg xmlns:xlink="http://www.w3.org/1999/xlink" height="27.05px" width="24.75px" xmlns="http://www.w3.org/2000/svg">
  <g transform="matrix(1.0, 0.0, 0.0, 1.0, 12.35, 14.5)">
    <use height="27.05" transform="matrix(1.0, 0.0, 0.0, 1.0, -12.35, -14.5)" width="24.75" xlink:href="#shape0"/>
  </g>
  <defs>
    <g id="shape0" transform="matrix(1.0, 0.0, 0.0, 1.0, 12.35, 14.5)">
      <path d="M-1.45 -9.05 L0.0 -10.25 5.9 -6.4 5.9 -5.4 8.9 -3.95 8.9 -2.45 8.25 -1.8 4.75 1.7 -2.45 -5.5 -4.1 -4.85 -5.3 -1.3 -6.65 -2.7 -6.65 -4.7 -1.45 -9.05 M-7.8 6.15 L-8.4 6.15 -12.1 1.3 -10.6 -5.05 -9.65 -5.05 -8.05 -4.0 -7.25 -2.7 -5.35 -1.1 -7.8 6.15" fill="#e0dbda" fill-rule="evenodd" stroke="none"/>
      <path d="M8.25 -1.8 L12.15 2.6 4.1 8.7 0.95 7.25 -2.0 5.05 -0.3 3.95 0.55 5.15 0.55 6.2 1.85 6.2 1.85 5.1 2.45 5.1 6.65 6.4 4.75 1.7 8.25 -1.8" fill="#ada09e" fill-rule="evenodd" stroke="none"/>
      <path d="M-2.0 5.05 L-3.7 6.15 -7.8 6.15 -5.35 -1.1 -7.25 -2.7 -8.05 -4.0 -9.65 -5.05 -7.1 -10.35 -3.4 -10.35 -1.45 -9.05 -6.65 -4.7 -6.65 -2.7 -5.3 -1.3 -4.1 -4.85 -2.45 -5.5 4.75 1.7 6.65 6.4 2.45 5.1 1.85 5.1 1.85 6.2 0.55 6.2 0.55 5.15 -0.3 3.95 -2.0 5.05 M-5.3 -1.3 L-5.35 -1.1 -5.3 -1.3" fill="#c9c0be" fill-rule="evenodd" stroke="none"/>
      <path d="M-1.45 -9.05 L0.0 -10.25 5.9 -6.4 5.9 -5.4 8.9 -3.95 8.9 -2.45 8.25 -1.8 12.15 2.6 4.1 8.7 0.95 7.25 -2.0 5.05 -3.7 6.15 -7.8 6.15 -8.4 6.15 -12.1 1.3 -10.6 -5.05 -9.65 -5.05 -7.1 -10.35 -3.4 -10.35 -1.45 -9.05 -6.65 -4.7 -6.65 -2.7 -5.3 -1.3 -4.1 -4.85 -2.45 -5.5 4.75 1.7 8.25 -1.8 M4.75 1.7 L6.65 6.4 2.45 5.1 1.85 5.1 1.85 6.2 0.55 6.2 0.55 5.15 -0.3 3.95 -2.0 5.05 M-9.65 -5.05 L-8.05 -4.0 -7.25 -2.7 -5.35 -1.1 -5.3 -1.3 M-7.8 6.15 L-5.35 -1.1" fill="none" stroke="#5a5856" stroke-linecap="round" stroke-linejoin="round" stroke-opacity="0.49803922" stroke-width="0.5"/>
      <path d="M3.65 -0.65 L-3.55 -7.9 -5.2 -7.25 -6.4 -3.7 -7.75 -5.15 -7.75 -7.15 -1.1 -12.7 4.8 -8.8 4.8 -7.85 7.8 -6.35 7.8 -4.85 3.65 -0.65" fill="url(#gradient0)" fill-rule="evenodd" stroke="none"/>
      <path d="M-1.9 -1.0 L5.3 6.25 7.2 10.9 3.0 9.6 2.4 9.6 2.4 10.7 1.1 10.7 1.1 9.65 0.25 8.4 -3.15 10.6 -7.25 10.6 -3.55 -0.35 -1.9 -1.0" fill="url(#gradient1)" fill-rule="evenodd" stroke="none"/>
      <path d="M6.05 -0.35 L3.6 -2.8 1.95 -2.15 0.75 1.4 -0.6 -0.05 -0.6 -2.05 2.85 -4.85 Q5.9 -2.4 6.05 -0.35 M5.7 8.95 L4.05 7.7 5.45 6.9 5.7 8.95 M-2.0 -1.3 L-1.2 -0.05 0.7 1.6 -1.75 8.8 -2.35 8.8 -6.05 4.0 -4.55 -2.35 -3.6 -2.35 -2.0 -1.3" fill="url(#gradient2)" fill-rule="evenodd" stroke="none"/>
      <path d="M1.45 -10.35 L0.95 -10.5 0.85 -10.9 Q0.85 -11.35 1.35 -11.35 1.9 -11.35 1.9 -10.85 1.9 -10.35 1.45 -10.35 M0.8 -8.1 L0.3 -8.2 0.25 -8.65 Q0.25 -9.6 1.0 -9.6 1.5 -9.6 1.5 -9.1 1.5 -8.1 0.8 -8.1 M11.35 -2.5 Q11.85 -2.5 11.85 -2.0 11.85 -1.5 11.4 -1.5 L10.9 -1.65 10.85 -2.1 Q10.85 -2.5 11.35 -2.5 M10.95 -0.7 Q10.95 -1.15 11.5 -1.15 12.0 -1.15 12.0 -0.6 12.0 -0.1 11.55 -0.1 L11.05 -0.25 10.95 -0.7 M11.15 2.3 Q10.35 2.3 10.35 1.7 10.35 1.25 11.1 1.25 11.9 1.25 11.85 1.8 11.85 2.3 11.15 2.3 M8.9 0.75 L8.8 0.3 9.45 -0.35 Q9.95 -0.35 9.95 0.15 9.95 0.9 9.35 0.9 L8.9 0.75 M6.7 4.7 Q6.7 4.05 7.2 4.05 7.7 4.05 7.7 4.7 7.7 5.3 7.2 5.3 L6.75 5.2 6.7 4.7 M5.2 3.55 L4.85 3.65 4.35 3.55 4.15 2.3 Q4.15 1.8 4.7 1.8 5.3 1.8 5.3 2.7 L5.2 3.55 M0.75 3.05 L-0.25 2.1 Q-0.25 1.65 0.25 1.65 1.25 1.65 1.25 2.55 1.25 3.05 0.75 3.05 M4.0 4.8 Q4.65 4.8 4.65 5.55 4.65 6.05 4.15 6.05 3.5 6.05 3.5 5.3 L4.0 4.8 M4.45 6.85 L4.4 6.4 Q4.4 5.8 4.9 5.8 5.4 5.8 5.4 6.4 L5.35 6.85 4.95 6.95 4.45 6.85 M-8.5 -13.5 L-8.0 -12.45 -7.9 -12.45 -7.6 -13.5 Q-7.3 -13.5 -7.2 -13.0 L-6.45 -13.75 -5.2 -14.25 Q-4.55 -14.25 -4.55 -13.75 -6.4 -12.35 -6.7 -12.35 L-7.15 -12.5 -7.15 -12.45 -7.65 -11.25 -8.15 -11.55 Q-8.8 -11.55 -8.65 -11.05 -8.55 -10.6 -8.85 -10.6 L-9.25 -11.55 Q-9.25 -13.7 -8.8 -13.75 L-8.85 -14.1 Q-8.85 -14.5 -8.35 -14.5 -7.85 -14.5 -7.85 -14.0 -7.85 -13.5 -8.3 -13.5 L-8.5 -13.5 M-12.0 -6.9 Q-12.0 -7.3 -11.5 -7.3 -11.0 -7.3 -11.0 -6.8 -11.0 -6.3 -11.45 -6.3 L-11.95 -6.45 -12.0 -6.9 M-10.65 -3.2 Q-10.65 -3.65 -10.1 -3.65 -9.6 -3.65 -9.6 -3.15 -9.6 -2.65 -10.05 -2.65 L-10.55 -2.75 -10.65 -3.2 M-10.65 -10.9 Q-10.65 -11.35 -10.1 -11.35 -9.6 -11.35 -9.6 -10.85 -9.6 -10.35 -10.05 -10.35 -10.2 -10.35 -10.55 -10.5 L-10.65 -10.9 M-0.6 -11.25 L-1.1 -11.35 -1.15 -11.8 Q-1.15 -12.25 -0.65 -12.25 -0.15 -12.25 -0.15 -11.75 -0.15 -11.25 -0.6 -11.25 M-8.4 -12.05 Q-8.4 -12.5 -8.65 -12.6 L-8.65 -12.05 -8.4 -12.05 M-9.35 -4.8 Q-10.0 -4.8 -10.0 -5.35 -10.0 -5.95 -9.35 -5.95 -8.85 -5.95 -8.85 -5.35 -8.85 -4.8 -9.35 -4.8 M-4.25 -2.5 L-4.3 -2.95 Q-4.3 -3.4 -3.8 -3.4 -3.3 -3.4 -3.3 -2.9 -3.3 -2.4 -3.75 -2.4 L-4.25 -2.5 M-2.5 -2.5 L-2.55 -3.0 Q-2.55 -3.65 -2.05 -3.65 -1.55 -3.65 -1.55 -3.0 -1.55 -2.4 -2.05 -2.4 L-2.5 -2.5 M-0.15 -0.75 Q0.35 -0.75 0.35 -0.25 0.35 0.25 -0.1 0.25 L-0.6 0.15 -0.65 -0.3 Q-0.65 -0.75 -0.15 -0.75 M-4.55 2.7 Q-4.55 1.65 -3.85 1.65 -3.3 1.65 -3.3 2.15 L-3.6 3.4 Q-3.7 3.55 -3.95 3.55 -4.05 3.8 -4.45 3.8 -5.05 3.8 -5.05 3.25 -5.05 2.8 -4.55 2.8 L-4.55 2.7 M-7.35 2.15 Q-7.35 2.8 -8.05 2.8 -8.75 2.8 -8.75 2.2 -8.75 1.65 -7.85 1.65 -7.35 1.65 -7.35 2.15 M-6.95 0.0 Q-6.45 0.0 -6.45 0.6 -6.45 1.15 -6.95 1.15 -7.6 1.15 -7.6 0.6 -7.6 0.0 -6.95 0.0" fill="#4a321b" fill-opacity="0.6431373" fill-rule="evenodd" stroke="none"/>
      <path d="M6.95 6.05 L-0.3 12.4 -0.45 12.55 -0.85 12.3 Q-4.3 10.25 -5.9 8.0 -7.75 5.45 -6.4 4.15 -5.1 2.8 -1.4 3.4 2.15 3.95 5.95 6.05 L6.95 6.05" fill="url(#gradient3)" fill-rule="evenodd" stroke="none"/>
    </g>
    <radialGradient cx="0" cy="0" gradientTransform="matrix(-0.0045, 0.0229, 0.026, 0.0085, -1.25, 5.05)" gradientUnits="userSpaceOnUse" id="gradient0" r="819.2" spreadMethod="pad">
      <stop offset="0.5176470588235295" stop-color="#432101" stop-opacity="0.7921569"/>
      <stop offset="0.9372549019607843" stop-color="#5c2e01" stop-opacity="0.0"/>
    </radialGradient>
    <radialGradient cx="0" cy="0" gradientTransform="matrix(-0.0262, 0.0, 0.0, 0.0338, 8.3, 2.75)" gradientUnits="userSpaceOnUse" id="gradient1" r="819.2" spreadMethod="pad">
      <stop offset="0.5176470588235295" stop-color="#291101" stop-opacity="0.7921569"/>
      <stop offset="0.9372549019607843" stop-color="#5c2e01" stop-opacity="0.0"/>
    </radialGradient>
    <radialGradient cx="0" cy="0" gradientTransform="matrix(0.0194, 0.0, 0.0, 0.0365, -8.5, 12.1)" gradientUnits="userSpaceOnUse" id="gradient2" r="819.2" spreadMethod="pad">
      <stop offset="0.5176470588235295" stop-color="#1e261e" stop-opacity="0.7921569"/>
      <stop offset="0.9372549019607843" stop-color="#5c2e01" stop-opacity="0.0"/>
    </radialGradient>
    <radialGradient cx="0" cy="0" gradientTransform="matrix(-0.0126, -0.0071, 0.0043, -0.0043, 2.95, 9.4)" gradientUnits="userSpaceOnUse" id="gradient3" r="819.2" spreadMethod="pad">
      <stop offset="0.5176470588235295" stop-color="#1e261e" stop-opacity="0.7921569"/>
      <stop offset="0.9372549019607843" stop-color="#5c2e01" stop-opacity="0.0"/>
    </radialGradient>
  </defs>
</svg>
