<?xml version="1.0" encoding="UTF-8" standalone="no"?>
<svg xmlns:xlink="http://www.w3.org/1999/xlink" height="33.55px" width="44.1px" xmlns="http://www.w3.org/2000/svg">
  <g transform="matrix(1.0, 0.0, 0.0, 1.0, 22.85, 16.75)">
    <use height="33.55" transform="matrix(1.0, 0.0, 0.0, 1.0, -22.85, -16.75)" width="44.1" xlink:href="#shape0"/>
  </g>
  <defs>
    <g id="shape0" transform="matrix(1.0, 0.0, 0.0, 1.0, 22.85, 16.75)">
      <path d="M-18.45 7.5 L-22.2 6.2 Q-22.85 5.95 -22.7 5.65 L-22.4 5.7 -22.25 5.7 -21.65 5.6 -21.4 5.35 Q-21.35 5.15 -21.45 5.05 L-21.75 4.8 -21.85 4.8 -21.65 4.65 -21.35 4.7 -21.25 4.7 -20.7 4.55 -20.4 4.3 -20.45 4.0 -20.75 3.65 -20.4 3.4 -19.9 3.55 -19.75 3.55 -19.25 3.45 -18.9 3.2 -18.95 2.85 -19.3 2.65 -19.5 2.6 -19.55 2.6 -19.15 2.25 -18.75 2.4 -18.6 2.4 -18.1 2.25 -17.85 2.0 -17.9 1.7 -18.1 1.5 -18.25 1.5 -17.95 1.2 -17.55 1.3 -17.4 1.25 -16.95 1.15 -16.6 0.9 Q-16.55 0.65 -16.65 0.6 L-16.9 0.4 -17.0 0.35 -16.75 0.1 -16.3 0.25 -16.15 0.3 -15.6 0.15 -15.35 -0.1 -15.35 -0.4 -15.65 -0.65 -15.85 -0.65 -15.9 -0.65 -15.6 -1.0 -15.1 -0.85 -14.95 -0.85 -14.4 -0.9 -14.1 -1.2 -14.1 -1.45 -14.45 -1.7 -14.65 -1.75 -14.7 -1.75 -14.45 -2.1 -14.0 -2.0 -13.85 -2.05 -13.4 -2.1 -13.15 -2.4 -13.15 -2.7 -13.35 -2.9 -13.5 -2.95 -13.3 -3.15 -12.9 -3.05 -12.75 -3.05 -12.3 -3.15 -12.0 -3.45 -12.1 -3.7 -12.35 -3.9 -12.45 -3.95 -12.15 -4.15 -11.85 -4.05 -11.75 -4.05 -11.3 -4.2 -11.05 -4.4 -11.05 -4.75 -11.35 -4.95 -11.1 -5.15 -10.8 -5.1 -10.65 -5.15 -10.1 -5.2 -9.85 -5.45 -9.9 -5.7 -10.15 -5.95 -9.9 -6.2 -9.6 -6.15 -9.5 -6.2 -9.05 -6.3 -8.65 -6.45 -8.75 -6.75 -9.05 -7.0 -8.85 -7.2 -8.45 -7.1 -8.25 -7.15 -7.85 -7.2 -7.55 -7.5 -7.65 -7.75 -7.95 -7.95 -8.0 -8.0 -7.8 -8.2 -7.4 -8.1 -7.2 -8.15 -6.75 -8.2 -6.45 -8.45 -6.55 -8.75 -6.85 -8.95 -6.95 -8.95 -6.65 -9.2 -6.25 -9.2 -6.15 -9.2 -5.7 -9.25 -5.35 -9.5 -5.45 -9.8 -5.65 -10.0 -5.8 -10.0 -5.65 -10.2 -5.35 -10.15 -5.2 -10.15 -4.7 -10.25 -4.45 -10.5 -4.5 -10.7 -4.8 -10.95 -4.6 -11.1 -4.3 -11.05 -4.15 -11.1 -3.7 -11.15 -3.4 -11.4 -3.45 -11.7 -3.8 -11.85 -3.45 -12.05 -3.15 -12.05 -3.05 -12.0 -2.6 -12.1 -2.35 -12.35 -2.45 -12.65 -2.75 -12.9 -2.5 -13.05 -2.2 -13.0 -2.1 -13.0 -1.6 -13.05 -1.35 -13.3 -1.4 -13.6 -1.7 -13.85 -1.45 -14.0 -1.15 -13.95 -1.05 -13.95 -0.6 -14.05 -0.25 -14.3 -0.35 -14.6 -0.65 -14.75 -0.45 -14.9 -0.15 -14.8 -0.05 -14.8 0.45 -14.95 0.7 -15.2 0.65 -15.45 0.35 -15.65 0.6 -15.95 0.9 -15.9 1.0 -15.9 1.5 -16.0 1.75 -16.2 1.75 -16.45 1.5 -16.6 2.5 -16.55 5.95 -15.45 2.3 -12.05 5.95 -15.45 20.4 -10.85 20.5 -10.85 20.7 -6.05 20.55 -6.1 20.35 -10.85 13.0 -8.65 11.4 -8.1 10.3 -7.75 9.85 -7.6 Q9.45 -7.35 9.85 -6.95 L10.5 -6.35 -0.1 -9.8 10.5 -6.35 12.2 -4.8 13.95 -3.2 15.75 -1.55 -2.45 -7.55 15.75 -1.55 17.6 0.1 19.35 1.7 21.0 3.2 20.95 2.25 21.1 2.3 21.15 3.2 21.05 3.3 20.25 4.15 20.25 4.2 19.5 5.05 19.2 5.35 18.7 5.85 17.9 6.7 15.25 6.85 12.4 7.05 9.7 7.25 -10.75 0.25 9.7 7.25 6.95 7.45 4.2 7.65 -12.5 1.9 4.2 7.65 1.6 7.8 0.9 7.85 0.5 8.6 0.0 9.6 -0.5 10.55 -1.05 11.55 -1.95 13.35 -18.05 7.65 -18.45 7.5 -16.85 6.05 -18.45 7.5 M-19.25 5.25 L-16.85 6.05 -19.25 5.25 M1.9 -14.2 L1.4 -14.0 Q1.1 -13.8 1.4 -13.5 L1.9 -13.35 2.05 -13.35 2.6 -13.45 2.85 -13.7 2.8 -13.95 2.5 -14.15 2.3 -14.2 1.9 -14.2 M0.7 -10.6 L9.85 -7.6 0.7 -10.6 -0.1 -9.8 0.7 -10.6 1.55 -11.25 0.7 -10.6 -1.6 -11.25 0.7 -10.6 M1.55 -11.25 L11.4 -8.1 1.55 -11.25 2.3 -12.05 1.55 -11.25 -0.75 -12.0 1.55 -11.25 M0.05 -12.8 L2.3 -12.05 0.05 -12.8 M-1.7 -8.3 L13.95 -3.2 -1.7 -8.3 -2.45 -7.55 -1.7 -8.3 -0.85 -9.05 -1.7 -8.3 -3.95 -9.05 -1.7 -8.3 M-0.85 -9.05 L12.2 -4.8 -0.85 -9.05 -0.1 -9.8 -0.85 -9.05 -3.1 -9.8 -0.85 -9.05 M2.3 -12.05 L13.0 -8.65 2.3 -12.05 M-4.1 -6.0 L19.35 1.7 -4.1 -6.0 -4.9 -5.2 -4.1 -6.0 -3.25 -6.8 -4.1 -6.0 -6.4 -6.8 -4.1 -6.0 M21.05 3.3 L-4.9 -5.2 21.05 3.3 M-5.75 -4.5 L20.2 4.15 20.25 4.15 20.2 4.15 -5.75 -4.5 -6.55 -3.7 -5.75 -4.5 -8.05 -5.2 -5.75 -4.5 -4.9 -5.2 -5.75 -4.5 M19.5 5.05 L-6.55 -3.7 19.5 5.05 M-3.25 -6.8 L17.6 0.1 -3.25 -6.8 -2.45 -7.55 -3.25 -6.8 -5.55 -7.5 -3.25 -6.8 M-7.4 -2.9 L18.7 5.85 -7.4 -2.9 -8.25 -2.1 -7.4 -2.9 -6.55 -3.7 -8.9 -4.5 -6.55 -3.7 -7.4 -2.9 -9.75 -3.7 -7.4 -2.9 M17.9 6.7 L-8.25 -2.1 17.9 6.7 M9.7 6.15 L12.4 7.05 9.7 6.15 4.55 4.4 9.7 6.15 M-9.95 -0.5 L4.55 4.4 -9.95 -0.5 -10.75 0.25 -9.95 -0.5 -9.1 -1.35 -9.95 -0.5 -12.3 -1.35 -9.95 -0.5 M-11.65 1.1 L6.95 7.45 -11.65 1.1 -12.5 1.9 -11.65 1.1 -13.95 0.3 -11.65 1.1 -10.75 0.25 -11.65 1.1 M-0.1 -9.8 L-2.4 -10.6 -0.1 -9.8 M-4.75 -8.3 L-2.45 -7.55 -4.75 -8.3 M-6.0 -6.2 L-6.45 -6.25 Q-6.8 -6.2 -6.95 -5.95 L-6.95 -5.9 Q-7.2 -5.7 -6.95 -5.45 L-6.4 -5.3 -6.25 -5.3 -5.7 -5.4 -5.55 -5.45 -5.45 -5.65 -5.55 -5.9 -5.85 -6.2 -6.0 -6.2 M-8.25 -2.1 L-9.1 -1.35 -8.25 -2.1 -10.6 -2.9 -8.25 -2.1 M15.25 6.85 L-9.1 -1.35 -11.4 -2.1 -9.1 -1.35 15.25 6.85 M-5.55 -5.45 L-4.9 -5.2 -5.55 -5.45 M-16.85 6.05 L-1.05 11.55 -16.85 6.05 -16.05 5.25 -16.85 6.05 M-18.35 4.4 L-16.05 5.25 -18.35 4.4 M-15.15 4.35 L-14.25 3.5 -15.15 4.35 0.0 9.6 -15.15 4.35 -16.05 5.25 -15.15 4.35 -16.4 3.85 -16.45 3.8 -16.75 3.6 -16.95 3.55 -17.45 3.5 Q-17.85 3.55 -17.95 3.75 -18.25 4.05 -17.95 4.4 L-17.45 4.65 Q-17.35 4.45 -17.25 4.55 L-16.7 4.4 -16.45 4.15 -16.4 3.85 -15.15 4.35 M-16.6 2.7 L-14.25 3.5 0.5 8.6 -14.25 3.5 -16.6 2.7 M-12.5 1.9 L-13.35 2.7 -12.5 1.9 -14.85 1.1 -12.5 1.9 M-14.25 3.5 L-13.35 2.7 -14.25 3.5 M-13.15 -0.45 L-10.75 0.25 -13.15 -0.45 M-13.35 2.7 L1.6 7.8 -13.35 2.7 -15.7 1.9 -13.35 2.7 M-0.5 10.55 L-16.05 5.25 -0.5 10.55" fill="#ddd8d5" fill-rule="evenodd" stroke="none"/>
      <path d="M10.5 -6.35 L9.85 -6.95 Q9.45 -7.35 9.85 -7.6 L20.65 -4.1 9.85 -7.6 10.3 -7.75 11.4 -8.1 13.0 -8.65 20.35 -10.85 20.55 -6.1 13.0 -8.65 20.55 -6.1 20.6 -5.1 20.65 -4.1 20.7 -3.05 10.5 -6.35 20.7 -3.05 20.75 -2.0 20.8 -0.95 20.85 0.15 15.75 -1.55 20.85 0.15 20.9 1.2 20.95 2.25 19.35 1.7 17.6 0.1 20.9 1.2 17.6 0.1 15.75 -1.55 13.95 -3.2 20.8 -0.95 13.95 -3.2 12.2 -4.8 10.5 -6.35 M11.5 13.65 L10.65 14.4 10.45 14.65 9.8 15.35 9.1 16.05 8.9 16.3 Q8.3 16.9 7.35 16.6 L-1.95 13.35 -1.05 11.55 -0.5 10.55 0.0 9.6 11.5 13.65 0.0 9.6 0.5 8.6 0.9 7.85 1.6 7.8 4.2 7.65 6.95 7.45 14.75 10.1 6.95 7.45 9.7 7.25 12.4 7.05 16.35 8.4 12.4 7.05 15.25 6.85 17.9 6.7 17.15 7.5 15.25 6.85 17.15 7.5 16.35 8.4 15.55 9.25 14.75 10.1 13.95 10.95 4.2 7.65 13.95 10.95 13.15 11.8 12.35 12.7 11.5 13.65 M11.4 -8.1 L20.6 -5.1 11.4 -8.1 M12.2 -4.8 L20.75 -2.0 12.2 -4.8 M10.65 14.4 L-0.5 10.55 10.65 14.4 M15.55 9.25 L9.7 7.25 15.55 9.25 M13.15 11.8 L1.6 7.8 13.15 11.8 M12.35 12.7 L0.5 8.6 12.35 12.7 M-1.05 11.55 L9.8 15.35 -1.05 11.55" fill="#b7a9a6" fill-rule="evenodd" stroke="none"/>
      <path d="M20.7 -3.05 L20.65 -4.1 20.8 -4.1 20.85 -3.0 20.9 -1.95 20.95 -0.9 21.0 0.2 21.05 1.25 21.1 2.3 20.95 2.25 20.9 1.2 20.85 0.15 20.8 -0.95 20.75 -2.0 20.9 -1.95 20.75 -2.0 20.7 -3.05 20.85 -3.0 20.7 -3.05 M20.7 -6.05 L20.75 -5.1 20.8 -4.1 20.65 -4.1 20.6 -5.1 20.55 -6.1 20.7 -6.05 M20.75 -5.1 L20.6 -5.1 20.75 -5.1 M20.95 -0.9 L20.8 -0.95 20.95 -0.9 M20.85 0.15 L21.0 0.2 20.85 0.15 M21.05 1.25 L20.9 1.2 21.05 1.25" fill="#e1e1e1" fill-rule="evenodd" stroke="none"/>
      <path d="M20.95 2.25 L21.0 3.2 19.35 1.7 20.95 2.25" fill="#d1c9c7" fill-rule="evenodd" stroke="none"/>
      <path d="M10.45 14.65 L9.8 15.35 9.1 16.05 9.8 15.35 10.45 14.65" fill="#f2f2f2" fill-rule="evenodd" stroke="none"/>
      <path d="M5.95 -15.45 L2.5 -16.55 1.5 -16.6 1.75 -16.45 1.75 -16.2 1.5 -16.0 1.0 -15.9 0.9 -15.9 0.6 -15.95 0.35 -15.65 0.65 -15.45 0.7 -15.2 0.45 -14.95 -0.05 -14.8 -0.15 -14.8 -0.45 -14.9 -0.65 -14.75 -0.35 -14.6 -0.25 -14.3 -0.6 -14.05 -1.05 -13.95 -1.15 -13.95 -1.45 -14.0 -1.7 -13.85 -1.4 -13.6 -1.35 -13.3 -1.6 -13.05 -2.1 -13.0 -2.2 -13.0 -2.5 -13.05 -2.75 -12.9 -2.45 -12.65 -2.35 -12.35 -2.6 -12.1 -3.05 -12.0 -3.15 -12.05 -3.45 -12.05 -3.8 -11.85 -3.45 -11.7 -3.4 -11.4 -3.7 -11.15 -4.15 -11.1 -4.3 -11.05 -4.6 -11.1 -4.8 -10.95 -4.5 -10.7 -4.45 -10.5 -4.7 -10.25 -5.2 -10.15 -5.35 -10.15 -5.65 -10.2 -5.8 -10.0 -5.65 -10.0 -5.45 -9.8 -5.35 -9.5 -5.7 -9.25 -6.15 -9.2 -6.25 -9.2 -6.65 -9.2 -6.95 -8.95 -6.85 -8.95 -6.55 -8.75 -6.45 -8.45 -6.75 -8.2 -7.2 -8.15 -7.4 -8.1 -7.8 -8.2 -8.0 -8.0 -7.95 -7.95 -7.65 -7.75 -7.55 -7.5 -7.85 -7.2 -8.25 -7.15 -8.45 -7.1 -8.85 -7.2 -9.05 -7.0 -8.75 -6.75 -8.65 -6.45 -9.05 -6.3 -9.5 -6.2 -9.6 -6.15 -9.9 -6.2 -10.15 -5.95 -9.9 -5.7 -9.85 -5.45 -10.1 -5.2 -10.65 -5.15 -10.8 -5.1 -11.1 -5.15 -11.35 -4.95 -11.05 -4.75 -11.05 -4.4 -11.3 -4.2 -11.75 -4.05 -11.85 -4.05 -12.15 -4.15 -12.45 -3.95 -12.35 -3.9 -12.1 -3.7 -12.0 -3.45 -12.3 -3.15 -12.75 -3.05 -12.9 -3.05 -13.3 -3.15 -13.5 -2.95 -13.35 -2.9 -13.15 -2.7 -13.15 -2.4 -13.4 -2.1 -13.85 -2.05 -14.0 -2.0 -14.45 -2.1 -14.7 -1.75 -14.65 -1.75 -14.45 -1.7 -14.1 -1.45 -14.1 -1.2 -14.4 -0.9 -14.95 -0.85 -15.1 -0.85 -15.6 -1.0 -15.9 -0.65 -15.85 -0.65 -15.65 -0.65 -15.35 -0.4 -15.35 -0.1 -15.6 0.15 -16.15 0.3 -16.3 0.25 -16.75 0.1 -17.0 0.35 -16.9 0.4 -16.65 0.6 Q-16.55 0.65 -16.6 0.9 L-16.95 1.15 -17.4 1.25 -17.55 1.3 -17.95 1.2 -18.25 1.5 -18.1 1.5 -17.9 1.7 -17.85 2.0 -18.1 2.25 -18.6 2.4 -18.75 2.4 -19.15 2.25 -19.55 2.6 -19.5 2.6 -19.3 2.65 -18.95 2.85 -18.9 3.2 -19.25 3.45 -19.75 3.55 -19.9 3.55 -20.4 3.4 -20.75 3.65 -20.45 4.0 -20.4 4.3 -20.7 4.55 -21.25 4.7 -21.35 4.7 -21.65 4.65 -21.85 4.8 -21.75 4.8 -21.45 5.05 Q-21.35 5.15 -21.4 5.35 L-21.65 5.6 -22.25 5.7 -22.4 5.7 -22.7 5.65 Q-22.85 5.95 -22.2 6.2 L-18.45 7.5 M20.7 -3.05 L20.65 -4.1 20.6 -5.1 M20.85 0.15 L20.8 -0.95 M5.95 -15.45 L20.4 -10.85 M21.05 3.3 L20.25 4.15 20.25 4.2 19.5 5.05 19.2 5.35 11.5 13.65 10.65 14.4 10.45 14.65 9.8 15.35 M9.1 16.05 L8.9 16.3 Q8.3 16.9 7.35 16.6 L-1.95 13.35 -18.05 7.65 M20.55 -6.1 L20.6 -5.1 M20.75 -2.0 L20.8 -0.95 M20.7 -3.05 L20.75 -2.0 M20.55 -6.1 L20.35 -10.85 M20.9 1.2 L20.95 2.25 21.0 3.2 M20.85 0.15 L20.9 1.2 M9.1 16.05 L9.8 15.35" fill="none" stroke="#5a5856" stroke-linecap="round" stroke-linejoin="round" stroke-opacity="0.49803922" stroke-width="0.25"/>
      <path d="M-18.45 7.5 L-16.85 6.05 -16.05 5.25 M0.7 -10.6 L-0.1 -9.8 -0.85 -9.05 -1.7 -8.3 -2.45 -7.55 M1.55 -11.25 L0.7 -10.6 M1.55 -11.25 L2.3 -12.05 5.95 -15.45 M-4.1 -6.0 L-4.9 -5.2 M-5.75 -4.5 L-6.55 -3.7 M-3.25 -6.8 L-4.1 -6.0 M-7.4 -2.9 L-8.25 -2.1 M-9.95 -0.5 L-10.75 0.25 M-11.65 1.1 L-12.5 1.9 M-3.25 -6.8 L-2.45 -7.55 M-9.1 -1.35 L-9.95 -0.5 M-9.1 -1.35 L-8.25 -2.1 M-7.4 -2.9 L-6.55 -3.7 M-5.75 -4.5 L-4.9 -5.2 M-14.25 3.5 L-15.15 4.35 -16.05 5.25 M-13.35 2.7 L-12.5 1.9 M-13.35 2.7 L-14.25 3.5 M-11.65 1.1 L-10.75 0.25" fill="none" stroke="#990000" stroke-linecap="round" stroke-linejoin="round" stroke-opacity="0.13725491" stroke-width="0.25"/>
      <path d="M-16.85 6.05 L-19.25 5.25 M9.85 -7.6 L0.7 -10.6 -1.6 -11.25 M-0.1 -9.8 L10.5 -6.35 20.7 -3.05 20.85 -3.0 M20.65 -4.1 L9.85 -7.6 M11.4 -8.1 L1.55 -11.25 M2.3 -12.05 L0.05 -12.8 M13.95 -3.2 L-1.7 -8.3 -3.95 -9.05 M-2.45 -7.55 L15.75 -1.55 20.85 0.15 M20.8 -0.95 L13.95 -3.2 M12.2 -4.8 L-0.85 -9.05 -3.1 -9.8 M13.0 -8.65 L2.3 -12.05 M20.7 -6.05 L20.55 -6.1 M20.6 -5.1 L20.75 -5.1 M20.8 -4.1 L20.65 -4.1 M20.6 -5.1 L11.4 -8.1 M20.8 -0.95 L20.95 -0.9 M20.9 -1.95 L20.75 -2.0 12.2 -4.8 M13.0 -8.65 L20.55 -6.1 M20.95 2.25 L21.1 2.3 M21.0 0.2 L20.85 0.15 M20.9 1.2 L21.05 1.25 M19.35 1.7 L-4.1 -6.0 -6.4 -6.8 M-4.9 -5.2 L21.05 3.3 M20.25 4.15 L20.2 4.15 -5.75 -4.5 M-6.55 -3.7 L19.5 5.05 M17.6 0.1 L-3.25 -6.8 -5.55 -7.5 M14.75 10.1 L6.95 7.45 -11.65 1.1 -13.95 0.3 M4.2 7.65 L13.95 10.95 M11.5 13.65 L0.0 9.6 M-0.5 10.55 L10.65 14.4 M15.25 6.85 L17.15 7.5 M16.35 8.4 L12.4 7.05 9.7 6.15 M9.7 7.25 L15.55 9.25 M18.7 5.85 L-7.4 -2.9 M-8.25 -2.1 L17.9 6.7 M4.55 4.4 L-9.95 -0.5 -12.3 -1.35 M-10.75 0.25 L9.7 7.25 M-12.5 1.9 L4.2 7.65 M1.6 7.8 L13.15 11.8 M0.5 8.6 L12.35 12.7 M9.8 15.35 L-1.05 11.55 -16.85 6.05 M17.6 0.1 L20.9 1.2 M19.35 1.7 L20.95 2.25 M-2.4 -10.6 L-0.1 -9.8 M-2.45 -7.55 L-4.75 -8.3 M-8.25 -2.1 L-10.6 -2.9 M-6.55 -3.7 L-8.9 -4.5 M-9.75 -3.7 L-7.4 -2.9 M-8.05 -5.2 L-5.75 -4.5 M-4.9 -5.2 L-5.55 -5.45 M-11.4 -2.1 L-9.1 -1.35 15.25 6.85 M-16.05 5.25 L-18.35 4.4 M-15.15 4.35 L0.0 9.6 M0.5 8.6 L-14.25 3.5 -16.6 2.7 M-12.5 1.9 L-14.85 1.1 M-10.75 0.25 L-13.15 -0.45 M-16.05 5.25 L-0.5 10.55 M-15.15 4.35 L-16.4 3.85 M-13.35 2.7 L-15.7 1.9 M-0.75 -12.0 L1.55 -11.25 M1.6 7.8 L-13.35 2.7" fill="none" stroke="#270f8a" stroke-linecap="round" stroke-linejoin="round" stroke-opacity="0.13725491" stroke-width="0.25"/>
      <path d="M9.7 6.15 L4.55 4.4" fill="none" stroke="#2c2b29" stroke-linecap="round" stroke-linejoin="round" stroke-opacity="0.2" stroke-width="0.25"/>
      <path d="M17.3 -2.1 L16.75 -2.85 16.2 -3.65 13.9 -6.85 Q13.5 -7.35 14.1 -7.65 L20.5 -10.9 20.75 -5.95 20.8 -4.9 20.85 -3.85 20.9 -2.8 20.95 -1.8 21.0 -0.75 21.05 0.3 21.1 1.35 21.15 2.35 21.15 3.25 20.7 2.6 20.1 1.8 19.55 1.05 19.0 0.25 18.45 -0.55 17.85 -1.3 17.3 -2.1 20.85 -3.85 17.3 -2.1 M19.0 0.25 L21.0 -0.75 19.0 0.25 M21.05 0.3 L19.55 1.05 21.05 0.3 M20.1 1.8 L21.1 1.35 20.1 1.8 M20.7 2.6 L21.15 2.35 20.7 2.6 M20.8 -4.9 L16.75 -2.85 20.8 -4.9 M16.2 -3.65 L20.75 -5.95 16.2 -3.65 M20.9 -2.8 L17.85 -1.3 20.9 -2.8 M18.45 -0.55 L20.95 -1.8 18.45 -0.55" fill="#ddd8d5" fill-rule="evenodd" stroke="none"/>
      <path d="M17.3 -2.1 L16.75 -2.85 16.2 -3.65 13.9 -6.85 Q13.5 -7.35 14.1 -7.65 L20.5 -10.9 20.75 -5.95 20.8 -4.9 20.85 -3.85 20.9 -2.8 20.95 -1.8 21.0 -0.75 21.05 0.3 21.1 1.35 21.15 2.35 21.15 3.25 20.7 2.6 20.1 1.8 19.55 1.05 19.0 0.25 18.45 -0.55 17.85 -1.3 17.3 -2.1" fill="none" stroke="#5a5856" stroke-linecap="round" stroke-linejoin="round" stroke-opacity="0.49803922" stroke-width="0.25"/>
      <path d="M17.3 -2.1 L20.85 -3.85 M20.95 -1.8 L18.45 -0.55 M17.85 -1.3 L20.9 -2.8 M20.75 -5.95 L16.2 -3.65 M16.75 -2.85 L20.8 -4.9 M21.15 2.35 L20.7 2.6 M21.1 1.35 L20.1 1.8 M19.55 1.05 L21.05 0.3 M21.0 -0.75 L19.0 0.25" fill="none" stroke="#270f8a" stroke-linecap="round" stroke-linejoin="round" stroke-opacity="0.13725491" stroke-width="0.25"/>
      <path d="M20.9 -2.95 L17.95 -3.25 Q16.55 -3.5 16.05 -5.85 15.55 -8.25 18.05 -9.5 L20.55 -10.75 20.9 -2.95" fill="url(#gradient0)" fill-rule="evenodd" stroke="none"/>
      <path d="M14.3 -6.7 L19.95 1.8 Q15.5 3.75 9.15 5.35 -0.2 7.7 -9.65 8.2 -13.55 8.4 -16.5 8.2 L-22.2 6.2 Q-22.85 5.95 -22.7 5.65 L-22.4 5.7 -22.25 5.7 -21.65 5.6 -21.4 5.35 Q-21.35 5.15 -21.45 5.05 L-21.75 4.8 -21.85 4.8 -21.65 4.65 -21.35 4.7 -21.25 4.7 -20.7 4.55 -20.4 4.3 -20.45 4.0 -20.75 3.65 -20.4 3.4 -19.9 3.55 -19.75 3.55 -19.25 3.45 -18.9 3.2 -18.95 2.85 -19.3 2.65 -19.5 2.6 -19.55 2.6 -19.15 2.25 -18.75 2.4 -18.6 2.4 -18.1 2.25 -17.85 2.0 -17.9 1.7 -18.1 1.5 -18.25 1.5 -17.95 1.2 -17.55 1.3 -17.4 1.25 -16.95 1.15 -16.6 0.9 Q-16.55 0.65 -16.65 0.6 L-16.9 0.4 -17.0 0.35 -16.75 0.1 -16.3 0.25 -16.15 0.3 -15.6 0.15 -15.35 -0.1 -15.35 -0.4 -15.65 -0.65 -15.75 -0.65 -15.15 -0.9 -14.1 -1.3 Q-10.55 -2.6 -6.15 -3.7 3.15 -6.1 12.95 -6.65 L14.3 -6.7 M-16.55 4.0 Q-16.55 3.3 -17.3 3.5 -18.05 3.7 -18.05 4.2 -18.05 4.65 -17.3 4.65 -16.55 4.65 -16.55 4.0" fill="url(#gradient1)" fill-rule="evenodd" stroke="none"/>
      <path d="M5.65 -13.5 Q7.4 -14.6 9.0 -8.15 10.55 -1.7 12.6 4.35 14.6 10.35 8.05 16.75 L2.05 14.8 Q1.15 8.5 1.2 4.2 1.15 -1.75 2.5 -7.05 3.85 -12.4 5.65 -13.5" fill="url(#gradient2)" fill-rule="evenodd" stroke="none"/>
      <path d="M8.1 -4.65 Q8.1 -0.4 4.95 2.6 1.85 5.65 -2.55 5.65 -6.95 5.65 -10.1 2.6 -12.6 0.15 -13.1 -3.05 L-12.9 -3.05 -12.75 -3.05 -12.3 -3.15 -12.0 -3.45 -12.1 -3.7 -12.35 -3.9 -12.45 -3.95 -12.15 -4.15 -11.85 -4.05 -11.75 -4.05 -11.3 -4.2 -11.05 -4.4 -11.05 -4.75 -11.35 -4.95 -11.1 -5.15 -10.8 -5.1 -10.65 -5.15 -10.1 -5.2 -9.85 -5.45 -9.9 -5.7 -10.15 -5.95 -9.9 -6.2 -9.6 -6.15 -9.5 -6.2 -9.05 -6.3 -8.65 -6.45 -8.75 -6.75 -9.05 -7.0 -8.85 -7.2 -8.45 -7.1 -8.25 -7.15 -7.85 -7.2 -7.55 -7.5 -7.65 -7.75 -7.95 -7.95 -8.0 -8.0 -7.8 -8.2 -7.4 -8.1 -7.2 -8.15 -6.75 -8.2 -6.45 -8.45 -6.55 -8.75 -6.85 -8.95 -6.95 -8.95 -6.65 -9.2 -6.25 -9.2 -6.15 -9.2 -5.7 -9.25 -5.35 -9.5 -5.45 -9.8 -5.65 -10.0 -5.8 -10.0 -5.65 -10.2 -5.35 -10.15 -5.2 -10.15 -4.7 -10.25 -4.45 -10.5 -4.5 -10.7 -4.8 -10.95 -4.6 -11.1 -4.3 -11.05 -4.15 -11.1 -3.7 -11.15 -3.4 -11.4 -3.45 -11.7 -3.8 -11.85 -3.45 -12.05 -3.15 -12.05 -3.05 -12.0 -2.6 -12.1 -2.35 -12.35 -2.45 -12.65 -2.75 -12.9 -2.5 -13.05 -2.2 -13.0 -2.1 -13.0 -1.6 -13.05 -1.35 -13.3 -1.4 -13.6 -1.7 -13.85 -1.45 -14.0 -1.15 -13.95 -1.05 -13.95 -0.6 -14.05 -0.25 -14.3 -0.35 -14.6 -0.65 -14.75 -0.65 -14.8 Q2.55 -14.3 4.95 -11.95 8.1 -8.9 8.1 -4.65 M-5.25 -5.75 L-6.1 -6.15 Q-7.1 -6.15 -7.1 -5.75 -7.1 -5.35 -6.1 -5.35 -5.25 -5.35 -5.25 -5.75" fill="url(#gradient3)" fill-rule="evenodd" stroke="none"/>
      <path d="M3.65 -12.4 L3.8 -12.1 Q3.8 -11.5 2.55 -11.5 L1.6 -11.75 Q2.0 -12.5 2.8 -12.5 L3.65 -12.4 M3.8 -15.3 Q4.55 -15.3 5.15 -14.05 5.65 -12.95 6.7 -13.25 L6.85 -12.95 Q6.35 -12.6 5.65 -12.6 3.0 -12.6 2.85 -14.8 2.85 -15.3 3.8 -15.3 M8.8 -13.65 L7.8 -13.35 Q6.45 -13.35 6.4 -14.15 6.85 -14.6 7.35 -14.6 7.85 -14.6 8.8 -13.65 M9.1 -10.0 Q10.05 -10.0 10.0 -9.4 9.55 -9.05 9.0 -9.05 7.95 -9.05 7.95 -9.6 7.95 -10.0 9.1 -10.0 M6.25 -10.05 Q6.55 -10.5 7.5 -10.5 L8.45 -10.15 Q8.05 -9.8 7.3 -9.8 6.55 -9.8 6.25 -10.05 M6.2 -8.45 Q5.6 -8.45 4.75 -9.0 5.15 -9.4 6.0 -9.4 7.0 -9.4 7.2 -8.75 6.7 -8.45 6.2 -8.45 M8.9 -6.75 Q10.1 -6.75 9.9 -6.15 9.9 -5.65 8.9 -5.65 8.2 -5.65 8.0 -5.9 L7.95 -6.2 Q7.95 -6.75 8.9 -6.75 M1.2 -10.0 L-1.35 -9.55 Q-2.05 -9.55 -2.3 -9.8 -2.15 -10.4 -0.5 -10.4 L1.05 -10.3 1.2 -10.0 M15.75 -7.1 Q16.05 -7.6 16.7 -7.6 L17.55 -7.5 17.7 -7.2 Q17.35 -6.85 16.7 -6.85 L15.75 -7.1 M17.2 -6.65 L18.15 -6.35 Q17.9 -5.75 17.2 -5.75 L16.25 -6.0 16.2 -6.2 Q16.2 -6.65 17.2 -6.65 M18.4 -3.85 L18.3 -4.3 Q18.3 -4.7 19.25 -4.7 20.55 -4.7 20.35 -3.95 20.35 -3.45 19.4 -3.45 18.65 -3.45 18.4 -3.85 M11.35 4.95 Q12.0 3.3 14.45 3.3 L15.1 3.45 15.25 3.65 Q13.35 5.2 12.35 5.2 L11.35 4.95 M13.15 2.05 Q13.45 1.65 14.15 1.65 15.1 1.65 16.1 2.75 15.55 3.15 15.1 3.15 14.35 3.15 13.8 2.65 L13.15 2.05 M14.0 6.95 Q13.65 7.4 13.0 7.4 L12.05 7.25 11.95 7.05 Q12.3 6.7 13.15 6.7 L13.85 6.75 14.0 6.95 M2.4 8.15 L0.75 7.7 Q0.9 7.15 1.7 7.15 L3.65 7.5 3.8 7.75 Q3.25 8.15 2.4 8.15 M4.05 11.2 Q4.35 10.75 5.2 10.75 5.65 10.75 6.0 11.1 5.5 11.45 5.0 11.45 L4.05 11.2 M9.85 10.9 L10.0 11.2 8.45 11.7 7.2 11.45 Q7.75 10.5 9.2 10.85 L9.85 10.9 M-5.35 -5.35 L-1.5 -5.55 -1.35 -5.25 Q-1.6 -4.9 -3.2 -4.9 L-7.55 -5.3 -5.35 -5.35 M-8.2 -1.7 Q-8.2 -1.4 -8.65 -1.3 L-8.6 -1.2 -8.55 -0.9 Q-8.55 -0.4 -9.55 -0.4 -10.5 -0.4 -10.5 -0.9 L-10.05 -1.45 -10.15 -1.7 Q-10.15 -2.25 -9.2 -2.25 L-8.25 -2.0 -8.2 -1.7 M-6.2 10.1 L-7.45 9.55 Q-7.15 9.1 -6.5 9.1 -5.65 9.1 -5.15 9.75 L-6.2 10.1 M-13.45 5.9 L-13.3 6.2 Q-13.8 6.55 -14.6 6.55 L-15.85 6.3 Q-15.5 5.8 -14.6 5.8 L-13.45 5.9" fill="#4a321b" fill-opacity="0.6431373" fill-rule="evenodd" stroke="none"/>
      <path d="M3.3 -6.65 Q3.3 -6.25 2.3 -6.25 1.0 -6.25 0.6 -8.55 L1.55 -8.85 Q2.8 -8.85 3.3 -6.65 M13.9 -10.05 Q12.9 -10.05 12.9 -10.55 12.9 -11.05 13.9 -11.05 15.1 -11.05 14.9 -10.5 14.9 -10.05 13.9 -10.05 M8.45 8.05 Q8.3 8.4 7.45 8.4 5.95 8.4 5.15 8.0 5.5 7.55 6.1 7.55 L8.3 7.75 8.45 8.05 M-14.45 5.0 Q-15.45 5.0 -16.5 3.4 -16.5 2.9 -15.55 2.9 -14.3 2.9 -13.45 4.65 L-14.45 5.0" fill="#382614" fill-opacity="0.8509804" fill-rule="evenodd" stroke="none"/>
      <path d="M3.2 -0.45 Q3.2 -0.85 4.35 -0.85 4.75 -0.85 5.05 -0.55 L5.9 -0.6 6.55 -0.55 6.7 -0.2 Q6.7 0.2 5.7 0.2 L5.75 0.35 Q5.35 1.05 4.15 1.05 L3.3 0.9 3.2 0.75 Q2.8 0.65 2.7 0.4 2.7 0.0 3.45 -0.05 3.2 -0.2 3.2 -0.45 M9.3 -3.1 Q9.3 -2.45 8.3 -2.45 7.5 -2.45 7.35 -2.8 L7.35 -3.15 Q7.35 -3.85 8.3 -3.85 9.6 -3.85 9.3 -3.1 M7.05 -2.35 Q8.15 -2.35 8.2 -1.6 8.2 -1.15 7.2 -1.15 6.1 -1.15 6.1 -1.95 6.1 -2.35 7.05 -2.35 M0.5 9.6 Q0.85 9.7 0.85 10.0 0.85 10.85 -0.25 10.85 L-1.05 10.7 Q-1.8 10.65 -1.85 10.3 L-1.6 12.35 Q-1.6 12.8 -2.6 12.8 -3.9 12.8 -3.8 10.3 L-3.65 9.4 -3.75 9.4 Q-4.6 9.4 -5.05 8.95 -4.7 8.55 -3.8 8.55 L-3.45 8.6 Q-3.1 7.55 -2.45 7.55 -1.1 7.55 -1.45 8.3 L-1.45 8.55 -0.9 8.65 -0.2 8.55 Q0.85 8.55 0.6 9.15 L0.5 9.6 M0.35 0.25 L-1.0 0.6 -2.3 0.35 Q-1.9 -0.15 -1.0 -0.15 L0.2 -0.05 0.35 0.25 M-5.15 -1.6 L-4.1 -1.85 -3.9 -1.85 -3.95 -1.95 -2.95 -2.35 -2.15 -2.25 -2.0 -2.05 Q-2.2 -1.6 -2.95 -1.6 L-3.4 -1.65 -3.3 -1.4 -2.85 -1.5 -2.0 -1.4 -1.85 -1.1 Q-2.2 -0.75 -2.85 -0.75 L-3.55 -0.85 -4.65 -0.65 -5.6 -0.95 -5.15 -1.6 M-2.2 3.9 Q-3.1 3.9 -3.4 3.05 -2.9 2.75 -2.45 2.75 -1.45 2.75 -1.2 3.5 -1.2 3.9 -2.2 3.9 M-1.85 5.0 Q-2.4 5.0 -2.85 4.65 -2.65 4.1 -1.85 4.1 -1.2 4.1 -0.9 4.4 -1.0 5.0 -1.85 5.0 M-7.95 2.3 L-7.95 2.95 Q-7.95 4.25 -8.95 4.25 -10.2 4.25 -9.9 2.95 -9.9 1.65 -8.95 1.65 -8.1 1.65 -7.95 2.3 M-7.9 4.4 Q-6.45 4.4 -6.45 5.3 -6.85 5.7 -7.45 5.7 -8.9 5.7 -9.05 4.75 -9.05 4.4 -7.9 4.4" fill="#000000" fill-opacity="0.8509804" fill-rule="evenodd" stroke="none"/>
      <path d="M-15.9 -0.65 L-15.0 -0.6 Q-10.55 -0.25 -4.15 2.7 2.2 5.55 6.7 9.3 10.2 12.25 10.95 14.35 L8.3 16.7 -11.1 10.4 -15.0 7.55 Q-18.45 4.65 -19.25 2.6 L-18.25 2.35 Q-17.85 2.1 -17.95 1.8 L-17.8 1.2 Q-16.7 1.25 -16.65 0.8 L-16.75 0.1 -16.15 0.2 Q-15.5 0.2 -15.5 -0.25 L-15.9 -0.65" fill="url(#gradient4)" fill-rule="evenodd" stroke="none"/>
      <path d="M20.4 -10.85 Q19.55 -9.7 17.95 -8.35 13.55 -4.7 6.05 -2.15 -1.5 0.45 -7.75 0.45 -12.4 0.45 -14.35 -1.0 L-14.1 -1.2 -14.1 -1.45 -14.45 -1.7 -14.65 -1.75 -14.7 -1.75 -14.45 -2.1 -14.0 -2.0 -13.85 -2.05 -13.4 -2.1 -13.15 -2.4 -13.15 -2.7 -13.35 -2.9 -13.5 -2.95 -13.3 -3.15 -12.9 -3.05 -12.75 -3.05 -12.3 -3.15 -12.0 -3.45 -12.1 -3.7 -12.35 -3.9 -12.45 -3.95 -12.15 -4.15 -11.85 -4.05 -11.75 -4.05 -11.3 -4.2 -11.05 -4.4 -11.05 -4.75 -11.35 -4.95 -11.1 -5.15 -10.8 -5.1 -10.65 -5.15 -10.1 -5.2 -9.85 -5.45 -9.9 -5.7 -10.15 -5.95 -9.9 -6.2 -9.6 -6.15 -9.5 -6.2 -9.05 -6.3 -8.65 -6.45 -8.75 -6.75 -9.05 -7.0 -8.85 -7.2 -8.45 -7.1 -8.25 -7.15 -7.85 -7.2 -7.55 -7.5 -7.65 -7.75 -7.95 -7.95 -8.0 -8.0 -7.8 -8.2 -7.4 -8.1 -7.2 -8.15 -6.75 -8.2 -6.45 -8.45 -6.55 -8.75 -6.85 -8.95 -6.95 -8.95 -6.65 -9.2 -6.25 -9.2 -6.15 -9.2 -5.7 -9.25 -5.35 -9.5 -5.45 -9.8 -5.65 -10.0 -5.8 -10.0 -5.65 -10.2 -5.35 -10.15 -5.2 -10.15 -4.7 -10.25 -4.45 -10.5 -4.5 -10.7 -4.8 -10.95 -4.6 -11.1 -4.3 -11.05 -4.15 -11.1 -3.7 -11.15 -3.4 -11.4 -3.45 -11.7 -3.8 -11.85 -3.45 -12.05 -3.15 -12.05 -3.05 -12.0 -2.6 -12.1 -2.35 -12.35 -2.45 -12.65 -2.75 -12.9 -2.5 -13.05 -2.2 -13.0 -2.1 -13.0 -1.6 -13.05 -1.35 -13.3 -1.4 -13.6 -1.7 -13.85 -1.45 -14.0 -1.15 -13.95 -1.05 -13.95 -0.6 -14.05 -0.25 -14.3 -0.35 -14.6 -0.4 -14.6 Q2.0 -15.45 4.3 -15.95 L20.4 -10.85" fill="url(#gradient5)" fill-rule="evenodd" stroke="none"/>
    </g>
    <radialGradient cx="0" cy="0" gradientTransform="matrix(-0.0029, 0.007, 0.0194, -0.0035, 30.35, -9.1)" gradientUnits="userSpaceOnUse" id="gradient0" r="819.2" spreadMethod="pad">
      <stop offset="0.5176470588235295" stop-color="#432101" stop-opacity="0.7921569"/>
      <stop offset="0.9372549019607843" stop-color="#5c2e01" stop-opacity="0.0"/>
    </radialGradient>
    <radialGradient cx="0" cy="0" gradientTransform="matrix(0.0096, 0.0057, -0.0305, 0.0077, 1.5, 0.8)" gradientUnits="userSpaceOnUse" id="gradient1" r="819.2" spreadMethod="pad">
      <stop offset="0.5176470588235295" stop-color="#432101" stop-opacity="0.7921569"/>
      <stop offset="0.9372549019607843" stop-color="#5c2e01" stop-opacity="0.0"/>
    </radialGradient>
    <radialGradient cx="0" cy="0" gradientTransform="matrix(0.0061, 0.0, 0.0, 0.0199, 5.7, 4.2)" gradientUnits="userSpaceOnUse" id="gradient2" r="819.2" spreadMethod="pad">
      <stop offset="0.5176470588235295" stop-color="#291101" stop-opacity="0.7921569"/>
      <stop offset="0.9372549019607843" stop-color="#5c2e01" stop-opacity="0.0"/>
    </radialGradient>
    <radialGradient cx="0" cy="0" gradientTransform="matrix(0.0131, 0.0, 0.0, 0.0131, -2.55, -4.65)" gradientUnits="userSpaceOnUse" id="gradient3" r="819.2" spreadMethod="pad">
      <stop offset="0.5176470588235295" stop-color="#432101" stop-opacity="0.7921569"/>
      <stop offset="0.9372549019607843" stop-color="#5c2e01" stop-opacity="0.0"/>
    </radialGradient>
    <radialGradient cx="0" cy="0" gradientTransform="matrix(0.0188, 0.0086, 0.0, 0.0071, -4.2, 8.4)" gradientUnits="userSpaceOnUse" id="gradient4" r="819.2" spreadMethod="pad">
      <stop offset="0.5176470588235295" stop-color="#291101" stop-opacity="0.7921569"/>
      <stop offset="0.9372549019607843" stop-color="#5c2e01" stop-opacity="0.0"/>
    </radialGradient>
    <radialGradient cx="0" cy="0" gradientTransform="matrix(0.0187, 0.0, -0.013, 0.0109, 2.8, -8.35)" gradientUnits="userSpaceOnUse" id="gradient5" r="819.2" spreadMethod="pad">
      <stop offset="0.5176470588235295" stop-color="#1e261e" stop-opacity="0.7921569"/>
      <stop offset="0.9372549019607843" stop-color="#5c2e01" stop-opacity="0.0"/>
    </radialGradient>
  </defs>
</svg>
