<?xml version="1.0" encoding="UTF-8" standalone="no"?>
<svg xmlns:xlink="http://www.w3.org/1999/xlink" height="32.9px" width="53.95px" xmlns="http://www.w3.org/2000/svg">
  <g transform="matrix(1.0, 0.0, 0.0, 1.0, 27.05, 16.45)">
    <use height="32.9" transform="matrix(1.0, 0.0, 0.0, 1.0, -27.05, -16.45)" width="53.95" xlink:href="#shape0"/>
  </g>
  <defs>
    <g id="shape0" transform="matrix(1.0, 0.0, 0.0, 1.0, 27.05, 16.45)">
      <path d="M0.35 -10.35 L1.4 -11.1 2.7 -11.65 4.1 -12.65 Q5.15 -13.7 4.95 -14.45 L4.9 -15.0 3.9 -16.0 3.85 -16.05 5.9 -15.45 5.6 -14.8 Q4.85 -13.45 4.5 -12.15 3.7 -11.75 3.05 -11.15 2.6 -10.75 2.75 -10.15 2.95 -9.4 3.45 -10.0 L4.4 -10.9 4.4 -7.25 4.7 -6.95 Q5.0 -6.75 5.05 -7.2 L6.5 -8.0 7.25 -8.6 7.9 -9.35 Q8.85 -10.25 8.2 -10.85 L8.95 -11.25 9.2 -11.6 9.5 -14.15 10.45 -13.75 19.0 -9.7 Q22.15 -7.9 26.55 -6.65 L26.6 -6.2 26.55 -6.35 -1.9 13.6 -1.6 13.05 -2.4 13.6 -2.9 13.4 -4.05 12.95 -4.1 10.4 Q-4.1 9.4 -3.45 8.35 -2.8 7.25 -2.8 6.4 L-3.25 5.4 -3.35 5.15 -4.8 3.4 -4.85 3.25 -4.85 3.1 -5.1 2.4 -5.1 2.3 -5.2 1.9 -5.3 1.15 -4.7 -0.45 -4.5 -0.95 -3.95 -2.15 -3.7 -2.75 -2.25 -4.15 -2.25 -4.1 -2.3 -4.05 -2.3 -4.0 -2.2 -3.75 -0.95 -2.8 0.25 -1.85 2.2 -0.75 4.6 0.6 4.75 0.65 4.85 0.6 4.9 0.55 4.95 0.55 Q4.75 -0.15 3.8 -0.5 L1.7 -1.5 Q0.7 -2.1 -0.15 -2.85 L-2.05 -4.2 -2.15 -4.15 -2.2 -4.15 -2.15 -4.2 -0.8 -5.45 -0.6 -6.85 -0.7 -8.75 -0.25 -9.75 0.65 -10.25 0.35 -10.35 M24.7 -6.15 L-2.9 13.4 24.7 -6.15 M8.45 -9.05 L8.0 -8.7 Q7.05 -8.1 7.4 -7.25 7.45 -7.05 7.65 -7.15 L9.6 -8.45 Q10.75 -9.4 9.8 -10.1 L8.45 -9.05 M8.5 -6.7 Q8.6 -6.35 8.95 -6.55 L10.5 -7.55 Q11.9 -8.55 10.75 -9.2 L10.75 -9.15 8.9 -7.75 Q8.35 -7.3 8.5 -6.7 M5.7 -3.35 L5.25 -3.0 Q5.15 -2.5 5.6 -2.4 6.05 -2.35 6.15 -2.8 6.2 -3.25 5.7 -3.35 M4.75 -4.3 Q4.4 -4.25 4.3 -3.95 4.2 -3.45 4.65 -3.35 5.1 -3.3 5.2 -3.75 5.25 -4.2 4.75 -4.3 M3.7 -5.15 Q3.35 -5.1 3.25 -4.8 3.15 -4.3 3.6 -4.2 4.05 -4.15 4.1 -4.6 4.2 -5.05 3.7 -5.15 M2.65 -5.15 Q3.1 -5.1 3.15 -5.55 3.25 -6.0 2.75 -6.1 L2.3 -5.75 Q2.15 -5.25 2.65 -5.15 M1.45 -6.9 L1.0 -6.55 Q0.9 -6.05 1.35 -5.95 1.8 -5.85 1.9 -6.35 1.95 -6.8 1.45 -6.9 M0.2 -7.35 Q0.05 -6.85 0.55 -6.8 1.0 -6.7 1.05 -7.15 1.15 -7.6 0.65 -7.7 L0.2 -7.35 M9.95 -6.9 Q9.5 -6.4 9.75 -5.9 9.9 -5.5 10.2 -5.8 L12.0 -7.15 Q13.05 -7.8 12.0 -8.3 L11.8 -8.2 Q10.75 -7.7 9.95 -6.9 M0.0 5.3 L0.05 5.25 0.05 5.15 0.0 5.1 0.0 5.05 Q-0.4 4.7 -0.9 4.45 L-1.95 3.75 -3.05 3.0 -4.2 2.45 -4.3 2.5 -4.35 2.5 -4.45 2.6 -4.45 2.65 -3.4 3.45 -2.1 4.2 -1.1 4.95 Q-0.6 5.35 -0.05 5.45 L0.0 5.4 0.0 5.3 M1.15 3.0 L1.2 2.95 1.2 2.85 1.15 2.8 1.15 2.75 0.2 2.0 -1.1 1.0 -2.55 0.1 -4.05 -0.55 -4.15 -0.5 -4.2 -0.5 -4.25 -0.45 -4.3 -0.4 -4.3 -0.3 -2.75 0.65 -1.35 1.4 0.05 2.4 0.7 3.15 0.85 3.2 0.95 3.2 1.05 3.15 1.1 3.15 1.15 3.1 1.15 3.0 M2.3 2.05 L1.45 1.0 -0.1 -0.3 -1.6 -1.65 -3.35 -2.7 -3.45 -2.65 -3.55 -2.6 -3.55 -2.55 -3.6 -2.55 -3.6 -2.45 -3.4 -2.15 -1.35 -0.6 0.2 0.7 1.0 1.45 Q1.65 2.3 2.3 2.05" fill="#e6d699" fill-rule="evenodd" stroke="none"/>
      <path d="M3.85 -16.05 L3.9 -16.0 4.9 -15.0 4.95 -14.45 Q5.15 -13.7 4.1 -12.65 L2.7 -11.65 1.4 -11.1 0.35 -10.35 -1.25 -11.0 -2.15 -11.4 -2.9 -11.7 -5.95 -9.95 -4.1 -9.1 -2.5 -8.4 -1.95 -8.75 -0.25 -9.75 -0.7 -8.75 -0.6 -6.85 -0.8 -5.45 -2.15 -4.2 -2.2 -4.15 -2.25 -4.15 -3.7 -2.75 -3.95 -2.15 -6.25 -3.45 -7.0 -2.95 -7.1 -2.9 -7.1 -2.85 -7.5 -2.6 -15.05 2.2 -13.0 3.4 -8.4 6.1 -6.25 7.35 -3.25 5.4 -2.8 6.4 Q-2.8 7.25 -3.45 8.35 -4.1 9.4 -4.1 10.4 L-4.05 12.95 Q-7.1 11.65 -9.3 10.05 L-10.3 9.25 Q-18.5 2.85 -26.65 0.2 L3.25 -16.2 3.85 -16.05 M-21.05 -1.4 L-23.2 -0.2 -20.15 1.2 -19.75 1.35 -17.85 0.3 -16.0 -0.75 -18.3 -1.9 -18.8 -2.2 -19.25 -2.4 -20.6 -1.65 -21.05 -1.4 M-16.3 -4.05 L-17.5 -3.4 -16.05 -2.7 -14.15 -1.8 -12.95 -2.5 -11.45 -3.35 -9.4 -4.5 -12.7 -6.1 -13.4 -5.75 -16.3 -4.05 M-9.35 -6.1 L-7.85 -5.4 -6.0 -6.45 -3.6 -7.8 -5.05 -8.45 -7.05 -9.35 -8.0 -8.8 -11.2 -7.0 -9.35 -6.1" fill="#71c181" fill-rule="evenodd" stroke="none"/>
      <path d="M5.9 -15.45 L9.5 -14.15 9.2 -11.6 8.95 -11.25 8.2 -10.85 8.0 -11.0 7.35 -10.5 Q6.75 -9.45 5.9 -8.7 5.7 -8.5 5.85 -8.3 6.15 -7.95 6.5 -8.0 L5.05 -7.2 Q5.0 -6.75 4.7 -6.95 L4.4 -7.25 4.4 -10.9 5.35 -11.5 Q6.45 -12.0 5.35 -12.45 L5.15 -12.4 4.5 -12.15 Q4.85 -13.45 5.6 -14.8 L5.9 -15.45 M6.4 -10.0 Q7.75 -10.8 6.65 -11.5 L6.35 -11.35 4.75 -10.0 4.55 -9.6 Q4.65 -8.4 5.6 -9.35 L6.4 -10.0" fill="#8f6234" fill-rule="evenodd" stroke="none"/>
      <path d="M-2.2 -4.15 L-2.15 -4.15 -2.05 -4.2 -0.15 -2.85 Q0.7 -2.1 1.7 -1.5 L3.8 -0.5 Q4.75 -0.15 4.95 0.55 L4.9 0.55 4.85 0.6 4.75 0.65 4.6 0.6 2.2 -0.75 0.25 -1.85 -0.95 -2.8 -2.2 -3.75 -2.3 -4.0 -2.3 -4.05 -2.25 -4.1 -2.25 -4.15 -2.2 -4.15 M4.5 -12.15 L5.15 -12.4 5.35 -12.45 Q6.45 -12.0 5.35 -11.5 L4.4 -10.9 3.45 -10.0 Q2.95 -9.4 2.75 -10.15 2.6 -10.75 3.05 -11.15 3.7 -11.75 4.5 -12.15 M6.5 -8.0 Q6.15 -7.95 5.85 -8.3 5.7 -8.5 5.9 -8.7 6.75 -9.45 7.35 -10.5 L8.0 -11.0 8.2 -10.85 Q8.85 -10.25 7.9 -9.35 L7.25 -8.6 6.5 -8.0 M6.4 -10.0 L5.6 -9.35 Q4.65 -8.4 4.55 -9.6 L4.75 -10.0 6.35 -11.35 6.65 -11.5 Q7.75 -10.8 6.4 -10.0 M8.5 -6.7 Q8.35 -7.3 8.9 -7.75 L10.75 -9.15 10.75 -9.2 Q11.9 -8.55 10.5 -7.55 L8.95 -6.55 Q8.6 -6.35 8.5 -6.7 M8.45 -9.05 L9.8 -10.1 Q10.75 -9.4 9.6 -8.45 L7.65 -7.15 Q7.45 -7.05 7.4 -7.25 7.05 -8.1 8.0 -8.7 L8.45 -9.05 M9.95 -6.9 Q10.75 -7.7 11.8 -8.2 L12.0 -8.3 Q13.05 -7.8 12.0 -7.15 L10.2 -5.8 Q9.9 -5.5 9.75 -5.9 9.5 -6.4 9.95 -6.9 M2.3 2.05 Q1.65 2.3 1.0 1.45 L0.2 0.7 -1.35 -0.6 -3.4 -2.15 -3.6 -2.45 -3.6 -2.55 -3.55 -2.55 -3.55 -2.6 -3.45 -2.65 -3.35 -2.7 -1.6 -1.65 -0.1 -0.3 1.45 1.0 2.3 2.05 M1.15 3.0 L1.15 3.1 1.1 3.15 1.05 3.15 0.95 3.2 0.85 3.2 0.7 3.15 0.05 2.4 -1.35 1.4 -2.75 0.65 -4.3 -0.3 -4.3 -0.4 -4.25 -0.45 -4.2 -0.5 -4.15 -0.5 -4.05 -0.55 -2.55 0.1 -1.1 1.0 0.2 2.0 1.15 2.75 1.15 2.8 1.2 2.85 1.2 2.95 1.15 3.0 M0.0 5.3 L0.0 5.4 -0.05 5.45 Q-0.6 5.35 -1.1 4.95 L-2.1 4.2 -3.4 3.45 -4.45 2.65 -4.45 2.6 -4.35 2.5 -4.3 2.5 -4.2 2.45 -3.05 3.0 -1.95 3.75 -0.9 4.45 Q-0.4 4.7 0.0 5.05 L0.0 5.1 0.05 5.15 0.05 5.25 0.0 5.3" fill="#88775e" fill-rule="evenodd" stroke="none"/>
      <path d="M0.35 -10.35 L0.65 -10.25 -0.25 -9.75 0.05 -10.15 0.35 -10.35 0.05 -10.15 -0.25 -9.75 -1.95 -8.75 -1.85 -9.2 Q-1.1 -9.8 -1.1 -10.5 L-1.25 -11.0 0.35 -10.35 M-3.95 -2.15 L-4.5 -0.95 -4.7 -0.45 -5.45 -0.6 -6.75 1.0 -6.9 1.0 -6.9 -0.45 Q-6.3 -1.0 -6.3 -1.65 -6.3 -2.55 -7.0 -2.95 L-6.25 -3.45 -3.95 -2.15 M-5.2 1.9 L-5.1 2.3 -5.3 2.35 -5.3 1.9 -5.2 1.9 M-4.85 3.1 L-4.85 3.25 -4.8 3.4 -3.35 5.15 -3.25 5.4 -6.25 7.35 -8.4 6.1 -7.65 4.8 -6.45 3.25 -4.85 3.1 M-4.1 -9.1 L-5.95 -9.95 -2.9 -11.7 -2.15 -11.4 -2.15 -10.5 -4.1 -10.05 -4.1 -9.1 M-20.15 1.2 L-23.2 -0.2 -21.05 -1.4 -21.05 -0.45 Q-20.6 -0.1 -20.15 1.2 M-20.6 -1.65 L-19.25 -2.4 -18.8 -2.2 -19.1 -2.25 -19.25 -0.35 -20.15 -0.35 Q-20.55 -0.85 -20.6 -1.65 M-18.3 -1.9 L-16.0 -0.75 -17.85 0.3 Q-18.35 0.15 -18.35 -0.3 -18.05 -0.95 -18.05 -1.35 -18.05 -1.7 -18.3 -1.9 M-16.3 -4.05 L-13.4 -5.75 -12.7 -6.1 -9.4 -4.5 -11.45 -3.35 Q-12.9 -3.95 -12.95 -4.25 L-12.35 -5.1 -12.5 -5.75 -13.4 -5.75 -13.7 -5.25 -13.55 -3.15 -14.3 -3.0 Q-15.85 -3.65 -16.3 -4.05 M-12.95 -2.5 L-14.15 -1.8 -16.05 -2.7 -15.4 -2.85 -12.95 -2.5 M-8.0 -8.8 Q-8.4 -8.05 -8.4 -7.4 -9.2 -7.8 -9.3 -6.7 L-9.35 -6.1 -11.2 -7.0 -8.0 -8.8 M-6.0 -6.45 L-6.0 -7.4 -7.05 -7.4 -7.05 -7.55 Q-5.55 -7.7 -5.05 -8.45 L-3.6 -7.8 -6.0 -6.45 M-7.5 -2.6 L-8.5 -0.9 Q-8.8 -0.25 -9.65 0.1 -11.2 0.8 -11.45 1.45 L-13.0 3.4 -15.05 2.2 -7.5 -2.6" fill="#213429" fill-rule="evenodd" stroke="none"/>
      <path d="M0.2 -7.35 L0.65 -7.7 Q1.15 -7.6 1.05 -7.15 1.0 -6.7 0.55 -6.8 0.05 -6.85 0.2 -7.35 M1.45 -6.9 Q1.95 -6.8 1.9 -6.35 1.8 -5.85 1.35 -5.95 0.9 -6.05 1.0 -6.55 L1.45 -6.9 M2.65 -5.15 Q2.15 -5.25 2.3 -5.75 L2.75 -6.1 Q3.25 -6.0 3.15 -5.55 3.1 -5.1 2.65 -5.15 M3.7 -5.15 Q4.2 -5.05 4.1 -4.6 4.05 -4.15 3.6 -4.2 3.15 -4.3 3.25 -4.8 3.35 -5.1 3.7 -5.15 M4.75 -4.3 Q5.25 -4.2 5.2 -3.75 5.1 -3.3 4.65 -3.35 4.2 -3.45 4.3 -3.95 4.4 -4.25 4.75 -4.3 M5.7 -3.35 Q6.2 -3.25 6.15 -2.8 6.05 -2.35 5.6 -2.4 5.15 -2.5 5.25 -3.0 L5.7 -3.35" fill="#6a582f" fill-rule="evenodd" stroke="none"/>
      <path d="M26.55 -6.65 L26.6 -6.0 26.6 -6.15 26.6 -6.2 26.55 -6.65" fill="#f7f1dd" fill-rule="evenodd" stroke="none"/>
      <path d="M26.6 -5.75 L6.45 8.55 -1.7 14.2 -1.25 14.15 -4.05 16.2 -10.3 11.55 Q-6.75 13.6 -3.7 14.4 L-3.15 14.5 -1.9 13.6 26.55 -6.35 26.6 -6.2 26.6 -6.15 26.6 -6.0 26.6 -5.75" fill="#d5bb55" fill-rule="evenodd" stroke="none"/>
      <path d="M26.6 -6.0 L26.85 -5.9 26.65 -5.8 26.6 -5.75 26.6 -6.0" fill="#ecdfac" fill-rule="evenodd" stroke="none"/>
      <path d="M-4.7 -0.45 L-5.3 1.15 -5.2 1.9 -5.3 1.9 -5.3 2.35 -5.1 2.3 -5.1 2.4 -4.85 3.1 -6.45 3.25 -7.65 4.8 -8.4 6.1 -13.0 3.4 -11.45 1.45 Q-11.2 0.8 -9.65 0.1 -8.8 -0.25 -8.5 -0.9 L-7.5 -2.6 -7.1 -2.85 -7.1 -2.9 -7.0 -2.95 Q-6.3 -2.55 -6.3 -1.65 -6.3 -1.0 -6.9 -0.45 L-6.9 1.0 -6.75 1.0 -5.45 -0.6 -4.7 -0.45 M-1.95 -8.75 L-2.5 -8.4 -4.1 -9.1 -4.1 -10.05 -2.15 -10.5 -2.15 -11.4 -1.25 -11.0 -1.1 -10.5 Q-1.1 -9.8 -1.85 -9.2 L-1.95 -8.75 M-21.05 -1.4 L-20.6 -1.65 Q-20.55 -0.85 -20.15 -0.35 L-19.25 -0.35 -19.1 -2.25 -18.8 -2.2 -18.3 -1.9 Q-18.05 -1.7 -18.05 -1.35 -18.05 -0.95 -18.35 -0.3 -18.35 0.15 -17.85 0.3 L-19.75 1.35 -20.15 1.2 Q-20.6 -0.1 -21.05 -0.45 L-21.05 -1.4 M-16.05 -2.7 L-17.5 -3.4 -16.3 -4.05 Q-15.85 -3.65 -14.3 -3.0 L-13.55 -3.15 -13.7 -5.25 -13.4 -5.75 -12.5 -5.75 -12.35 -5.1 -12.95 -4.25 Q-12.9 -3.95 -11.45 -3.35 L-12.95 -2.5 -15.4 -2.85 -16.05 -2.7 M-9.35 -6.1 L-9.3 -6.7 Q-9.2 -7.8 -8.4 -7.4 -8.4 -8.05 -8.0 -8.8 L-7.05 -9.35 -5.05 -8.45 Q-5.55 -7.7 -7.05 -7.55 L-7.05 -7.4 -6.0 -7.4 -6.0 -6.45 -7.85 -5.4 -9.35 -6.1" fill="#56876f" fill-rule="evenodd" stroke="none"/>
      <path d="M-4.05 12.95 L-2.9 13.4 -2.4 13.6 -1.6 13.05 -1.9 13.6 -3.15 14.5 -3.7 14.4 Q-6.75 13.6 -10.3 11.55 L-14.3 8.45 Q-20.3 3.7 -24.0 2.2 -27.05 1.0 -26.8 0.45 L-26.65 0.2 Q-18.5 2.85 -10.3 9.25 L-9.3 10.05 Q-7.1 11.65 -4.05 12.95 M-3.2 13.6 L-2.9 13.4 -3.2 13.6" fill="#dec976" fill-rule="evenodd" stroke="none"/>
      <path d="M3.85 -16.05 L3.9 -16.0 4.9 -15.0 4.95 -14.45 Q5.15 -13.7 4.1 -12.65 L2.7 -11.65 1.4 -11.1 0.35 -10.35 0.05 -10.15 -0.25 -9.75 -0.7 -8.75 -0.6 -6.85 -0.8 -5.45 -2.15 -4.2 -2.2 -4.15 -2.25 -4.15 -3.7 -2.75 -3.95 -2.15 -4.5 -0.95 -4.7 -0.45 -5.3 1.15 -5.2 1.9 -5.1 2.3 -5.1 2.4 -4.85 3.1 -4.85 3.25 -4.8 3.4 -3.35 5.15 -3.25 5.4 -2.8 6.4 Q-2.8 7.25 -3.45 8.35 -4.1 9.4 -4.1 10.4 L-4.05 12.95 M-26.65 0.2 L3.25 -16.2 3.85 -16.05 5.9 -15.45 9.5 -14.15 10.45 -13.75 19.0 -9.7 Q22.15 -7.9 26.55 -6.65 L26.6 -6.2 26.6 -6.15 26.6 -6.0 26.6 -5.75 6.45 8.55 -1.25 14.15 -4.05 16.2 -10.3 11.55 -14.3 8.45 Q-20.3 3.7 -24.0 2.2 -27.05 1.0 -26.8 0.45 L-26.65 0.2 Q-18.5 2.85 -10.3 9.25 L-9.3 10.05 Q-7.1 11.65 -4.05 12.95" fill="none" stroke="#56876f" stroke-linecap="round" stroke-linejoin="round" stroke-width="0.5"/>
      <path d="M-2.9 13.4 L24.7 -6.15 M-2.9 13.4 L-3.2 13.6" fill="none" stroke="#dec976" stroke-linecap="round" stroke-linejoin="round" stroke-width="0.5"/>
      <path d="M16.4 -5.05 Q16.3 -4.65 17.4 -3.55 18.5 -2.45 18.3 -1.65 L18.1 -0.8 18.4 -0.15 Q17.65 -0.2 17.8 0.35 L10.55 5.5 Q9.3 6.2 8.35 6.0 L5.8 5.75 -3.3 5.25 -3.35 5.15 -4.8 3.4 -4.85 3.25 -4.85 3.1 -5.1 2.4 -5.1 2.3 -5.2 1.9 -5.3 1.15 -4.7 -0.45 -4.5 -0.95 -3.7 -2.75 -2.25 -4.15 -2.2 -4.15 -2.15 -4.2 -0.8 -5.45 -0.6 -6.85 -0.65 -7.85 Q6.3 -7.3 13.2 -5.85 L14.65 -5.55 16.4 -5.05 M-26.65 0.15 L-26.15 -0.1 -26.6 0.15 -26.65 0.15" fill="url(#gradient0)" fill-rule="evenodd" stroke="none"/>
      <path d="M18.4 -0.15 L18.1 -0.8 18.3 -1.65 Q18.5 -2.45 17.4 -3.55 16.3 -4.65 16.4 -5.05 16.75 -6.2 17.75 -6.8 L18.35 -10.25 Q22.45 -8.2 26.9 -6.55 L26.6 -6.25 18.4 -0.15" fill="url(#gradient1)" fill-rule="evenodd" stroke="none"/>
      <path d="M0.15 -10.2 L0.35 -10.35 1.55 -7.35 2.2 -5.55 13.15 2.0 -3.55 13.9 -4.05 12.95 -4.1 10.4 Q-4.1 9.4 -3.45 8.35 -2.8 7.25 -2.8 6.4 L-3.25 5.4 -3.25 5.35 -3.3 5.3 -3.3 5.25 -3.35 5.15 -4.8 3.4 -4.85 3.25 -4.85 3.1 -5.1 2.4 -5.1 2.3 -5.2 1.9 -5.3 1.15 -5.05 0.35 -4.7 -0.45 -4.5 -0.95 -3.7 -2.75 -3.45 -3.05 -2.25 -4.15 -2.2 -4.15 -2.15 -4.2 -0.8 -5.45 -0.6 -6.85 -0.7 -8.75 -0.25 -9.75 0.05 -10.15 0.15 -10.2 M-2.15 -13.6 L-1.6 -13.9 -1.4 -13.65 -7.9 -10.1 -3.0 -13.05 Q-2.35 -12.9 -2.15 -13.6" fill="url(#gradient2)" fill-rule="evenodd" stroke="none"/>
      <path d="M-9.3 10.05 L-10.3 9.25 Q-18.4 2.95 -26.4 0.25 L-26.45 0.1 -14.7 -6.35 Q-9.45 5.2 -9.1 10.2 L-9.3 10.05" fill="url(#gradient3)" fill-rule="evenodd" stroke="none"/>
      <path d="M-3.35 5.15 L-4.8 3.4 -4.85 3.25 -4.85 3.1 -5.1 2.4 -5.1 2.3 -5.2 1.9 -5.3 1.15 -5.05 0.35 -4.7 -0.45 -4.5 -0.95 -3.7 -2.75 -3.45 -3.05 -2.25 -4.15 -2.2 -4.15 -2.15 -4.2 -0.8 -5.45 -0.6 -6.85 -0.7 -8.75 -0.25 -9.75 0.05 -10.15 0.15 -10.2" fill="none" stroke="#56876f" stroke-linecap="round" stroke-linejoin="round" stroke-width="0.5"/>
      <path d="M-14.0 -6.75 L3.25 -16.2 3.85 -16.05 3.9 -16.0 4.9 -15.0 4.95 -14.45 Q5.15 -13.7 4.1 -12.65 L2.7 -11.65 1.4 -11.1 0.35 -10.35 0.05 -10.15 -0.25 -9.75 -0.7 -8.75 -0.6 -6.85 -0.8 -5.45 -2.15 -4.2 -2.2 -4.15 -2.25 -4.15 -3.45 -3.05 -6.95 -3.45 -14.0 -6.75" fill="url(#gradient4)" fill-rule="evenodd" stroke="none"/>
      <path d="M-6.95 -3.45 L-6.35 -3.15 -5.7 -2.8 -2.95 -1.4 -2.55 -1.25 Q-3.55 -0.45 -5.05 0.35 L-5.75 0.65 Q-10.9 3.05 -18.6 3.75 -21.95 1.85 -25.3 0.65 L-26.5 0.05 -14.0 -6.75 -6.95 -3.45" fill="url(#gradient5)" fill-rule="evenodd" stroke="none"/>
      <path d="M10.35 -9.15 L10.35 -9.2 10.55 -9.25 18.45 -10.1 25.25 -6.8 Q24.35 -5.05 21.65 -3.3 18.2 -1.05 13.45 0.05 L13.25 0.1 10.35 -9.15" fill="url(#gradient6)" fill-rule="evenodd" stroke="none"/>
      <path d="M13.25 0.1 Q8.1 -0.65 4.1 -2.5 -0.05 -4.4 -0.65 -6.3 -1.3 -8.25 2.05 -9.05 5.2 -9.85 10.35 -9.15 L13.25 0.1" fill="url(#gradient7)" fill-rule="evenodd" stroke="none"/>
      <path d="M3.3 7.2 L5.6 7.5 -2.5 13.15 -3.0 13.15 -3.5 12.95 -4.65 12.5 -7.85 10.95 -8.65 10.45 Q-9.2 10.1 -9.7 9.7 L-4.8 7.9 -4.6 7.85 3.3 7.2" fill="url(#gradient8)" fill-rule="evenodd" stroke="none"/>
      <path d="M-7.25 -2.15 L-7.15 -1.95 Q-4.9 2.3 -3.7 7.6 -2.55 12.9 -4.75 12.95 -7.0 13.0 -10.0 10.25 -13.05 7.5 -15.3 3.25 L-15.4 3.05 -7.25 -2.15" fill="url(#gradient9)" fill-rule="evenodd" stroke="none"/>
      <path d="M-15.4 3.05 L-15.45 3.05 Q-16.0 -1.85 -15.35 -5.95 L-9.1 -9.4 Q-7.85 -6.65 -7.25 -2.15 L-15.4 3.05" fill="url(#gradient10)" fill-rule="evenodd" stroke="none"/>
    </g>
    <radialGradient cx="0" cy="0" gradientTransform="matrix(0.0086, 0.0088, -0.0344, -5.0E-4, -1.0, -1.25)" gradientUnits="userSpaceOnUse" id="gradient0" r="819.2" spreadMethod="pad">
      <stop offset="0.5176470588235295" stop-color="#432101" stop-opacity="0.7921569"/>
      <stop offset="0.9372549019607843" stop-color="#5c2e01" stop-opacity="0.0"/>
    </radialGradient>
    <radialGradient cx="0" cy="0" gradientTransform="matrix(-0.005, 0.0066, 0.0215, 0.0018, 32.25, -3.5)" gradientUnits="userSpaceOnUse" id="gradient1" r="819.2" spreadMethod="pad">
      <stop offset="0.5176470588235295" stop-color="#432101" stop-opacity="0.7921569"/>
      <stop offset="0.9372549019607843" stop-color="#5c2e01" stop-opacity="0.0"/>
    </radialGradient>
    <radialGradient cx="0" cy="0" gradientTransform="matrix(0.0037, 0.0223, 0.0075, 0.002, -1.9, 1.2)" gradientUnits="userSpaceOnUse" id="gradient2" r="819.2" spreadMethod="pad">
      <stop offset="0.5176470588235295" stop-color="#291101" stop-opacity="0.7921569"/>
      <stop offset="0.9372549019607843" stop-color="#5c2e01" stop-opacity="0.0"/>
    </radialGradient>
    <radialGradient cx="0" cy="0" gradientTransform="matrix(0.0037, 0.0223, 0.0075, 0.002, -21.0, -1.3)" gradientUnits="userSpaceOnUse" id="gradient3" r="819.2" spreadMethod="pad">
      <stop offset="0.5176470588235295" stop-color="#291101" stop-opacity="0.7921569"/>
      <stop offset="0.9372549019607843" stop-color="#5c2e01" stop-opacity="0.0"/>
    </radialGradient>
    <radialGradient cx="0" cy="0" gradientTransform="matrix(0.0197, 0.0053, -0.0168, 0.0078, 2.95, -10.5)" gradientUnits="userSpaceOnUse" id="gradient4" r="819.2" spreadMethod="pad">
      <stop offset="0.5176470588235295" stop-color="#1e261e" stop-opacity="0.7921569"/>
      <stop offset="0.9372549019607843" stop-color="#5c2e01" stop-opacity="0.0"/>
    </radialGradient>
    <radialGradient cx="0" cy="0" gradientTransform="matrix(0.0197, 0.0053, -0.0168, 0.0078, -21.75, -3.6)" gradientUnits="userSpaceOnUse" id="gradient5" r="819.2" spreadMethod="pad">
      <stop offset="0.5176470588235295" stop-color="#1e261e" stop-opacity="0.7921569"/>
      <stop offset="0.9372549019607843" stop-color="#5c2e01" stop-opacity="0.0"/>
    </radialGradient>
    <radialGradient cx="0" cy="0" gradientTransform="matrix(-0.0153, 0.0035, 0.002, 0.0062, 12.0, -4.6)" gradientUnits="userSpaceOnUse" id="gradient6" r="819.2" spreadMethod="pad">
      <stop offset="0.5176470588235295" stop-color="#1e261e" stop-opacity="0.7921569"/>
      <stop offset="0.9372549019607843" stop-color="#5c2e01" stop-opacity="0.0"/>
    </radialGradient>
    <radialGradient cx="0" cy="0" gradientTransform="matrix(-0.0172, -0.0024, 0.002, 0.0062, 12.05, -4.5)" gradientUnits="userSpaceOnUse" id="gradient7" r="819.2" spreadMethod="pad">
      <stop offset="0.5176470588235295" stop-color="#1e261e" stop-opacity="0.7921569"/>
      <stop offset="0.9372549019607843" stop-color="#5c2e01" stop-opacity="0.0"/>
    </radialGradient>
    <radialGradient cx="0" cy="0" gradientTransform="matrix(-0.012, 0.0027, 0.0015, 0.0049, -3.45, 11.45)" gradientUnits="userSpaceOnUse" id="gradient8" r="819.2" spreadMethod="pad">
      <stop offset="0.5176470588235295" stop-color="#1e261e" stop-opacity="0.7921569"/>
      <stop offset="0.9372549019607843" stop-color="#5c2e01" stop-opacity="0.0"/>
    </radialGradient>
    <radialGradient cx="0" cy="0" gradientTransform="matrix(-0.0073, -0.0139, -0.0055, 0.0035, -11.2, 0.65)" gradientUnits="userSpaceOnUse" id="gradient9" r="819.2" spreadMethod="pad">
      <stop offset="0.5176470588235295" stop-color="#1e261e" stop-opacity="0.7921569"/>
      <stop offset="0.9372549019607843" stop-color="#5c2e01" stop-opacity="0.0"/>
    </radialGradient>
    <radialGradient cx="0" cy="0" gradientTransform="matrix(-0.0021, -0.0172, -0.0055, 0.0035, -11.3, 0.7)" gradientUnits="userSpaceOnUse" id="gradient10" r="819.2" spreadMethod="pad">
      <stop offset="0.5176470588235295" stop-color="#1e261e" stop-opacity="0.7921569"/>
      <stop offset="0.9372549019607843" stop-color="#5c2e01" stop-opacity="0.0"/>
    </radialGradient>
  </defs>
</svg>
