<?xml version="1.0" encoding="UTF-8" standalone="no"?>
<svg xmlns:xlink="http://www.w3.org/1999/xlink" height="39.85px" width="65.15px" xmlns="http://www.w3.org/2000/svg">
  <g transform="matrix(1.0, 0.0, 0.0, 1.0, 32.55, 19.9)">
    <use height="39.85" transform="matrix(1.0, 0.0, 0.0, 1.0, -32.55, -19.9)" width="65.15" xlink:href="#shape0"/>
  </g>
  <defs>
    <g id="shape0" transform="matrix(1.0, 0.0, 0.0, 1.0, 32.55, 19.9)">
      <path d="M22.75 -0.75 L32.35 -13.6 32.35 -7.1 31.6 -6.15 23.9 4.25 23.35 5.0 23.9 4.25 31.6 -6.15 31.65 5.3 29.9 7.8 29.9 -1.05 23.6 7.75 23.6 16.05 21.1 19.7 21.0 8.25 23.35 5.0 22.75 5.75 22.75 -0.75" fill="#e9dba7" fill-rule="evenodd" stroke="none"/>
      <path d="M32.35 -13.6 L22.75 -0.75 -32.25 -10.6 -15.9 -19.65 32.35 -13.6" fill="#dabd83" fill-rule="evenodd" stroke="none"/>
      <path d="M22.75 5.75 L23.35 5.0 21.0 8.25 20.95 5.4 22.75 5.75 M-12.25 -1.55 L21.0 8.25 21.1 19.7 -30.55 5.3 -31.15 -5.5 -12.25 -1.55" fill="url(#gradient0)" fill-rule="evenodd" stroke="none"/>
      <path d="M22.75 -0.75 L22.75 5.75 20.95 5.4 -12.25 -1.55 -31.15 -5.5 -32.25 -5.75 -32.25 -10.6 22.75 -0.75" fill="#ad8748" fill-rule="evenodd" stroke="none"/>
      <path d="M20.95 5.4 L21.0 8.25 -12.25 -1.55 20.95 5.4" fill="#9e7b47" fill-rule="evenodd" stroke="none"/>
      <path d="M23.6 16.05 L23.6 7.75 29.9 -1.05 29.9 7.8 23.6 16.05" fill="#ffffff" fill-rule="evenodd" stroke="none"/>
      <path d="M32.35 -13.6 L22.75 -0.75 22.75 5.75 23.35 5.0 23.9 4.25 31.6 -6.15 32.35 -7.1 32.35 -13.6 -15.9 -19.65 -32.25 -10.6 22.75 -0.75 M20.95 5.4 L21.0 8.25 M-12.25 -1.55 L-31.15 -5.5 -30.55 5.3 21.1 19.7 21.0 8.25 M22.75 5.75 L20.95 5.4 -12.25 -1.55 M23.6 16.05 L21.1 19.7 M29.9 7.8 L31.65 5.3 31.6 -6.15 M29.9 7.8 L23.6 16.05 M-31.15 -5.5 L-32.25 -5.75 -32.25 -10.6" fill="none" stroke="#8c6b3e" stroke-linecap="round" stroke-linejoin="round" stroke-width="0.5"/>
      <path d="M24.45 9.6 L24.45 8.55 24.9 8.0 25.05 7.55 25.25 6.95 25.35 6.35 25.85 5.7 25.85 11.1 25.1 12.7 25.1 8.65 24.45 9.6 M27.1 5.45 L26.95 5.35 26.85 5.75 26.8 6.6 26.8 8.15 26.85 8.85 26.95 8.8 27.1 8.4 27.1 7.65 27.1 6.05 27.1 5.45 M27.3 4.3 Q27.3 4.15 27.4 4.25 L27.45 4.3 27.6 4.9 27.6 6.05 27.6 7.25 27.45 8.15 27.4 8.95 27.25 9.7 26.8 10.15 26.4 10.2 26.25 9.6 26.2 8.4 26.25 7.05 26.4 6.0 26.65 5.2 26.95 4.55 27.3 4.3" fill="#000000" fill-opacity="0.50980395" fill-rule="evenodd" stroke="none"/>
      <path d="M9.4 -3.1 L-25.45 -9.25 -25.5 -9.25 Q-22.3 -11.75 -18.8 -13.9 -13.8 -17.0 -9.4 -18.65 L9.3 -16.15 Q10.6 -13.9 10.65 -10.4 10.65 -7.0 9.4 -3.1" fill="url(#gradient1)" fill-rule="evenodd" stroke="none"/>
      <path d="M-25.45 -9.25 L9.4 -3.1 9.45 -3.1 Q14.3 0.2 17.65 3.9 L18.2 4.5 -22.7 -3.65 Q-25.3 -6.9 -25.45 -9.25" fill="url(#gradient2)" fill-rule="evenodd" stroke="none"/>
      <path d="M20.9 7.25 L20.9 19.5 -18.9 9.15 -17.05 8.35 Q-9.5 5.35 1.35 4.95 12.15 4.55 19.95 6.95 L20.9 7.25" fill="url(#gradient3)" fill-rule="evenodd" stroke="none"/>
      <path d="M32.0 -5.95 L32.0 3.8 31.95 3.85 32.0 3.85 32.0 4.45 31.65 4.35 Q16.85 28.5 -0.9 -2.0 -3.45 -5.3 -3.45 -9.1 -3.55 -14.15 0.7 -17.75 L32.4 -13.5 32.55 -6.9 32.0 -5.95" fill="url(#gradient4)" fill-rule="evenodd" stroke="none"/>
      <path d="M19.0 -1.55 L-32.0 -10.6 Q-18.3 -18.4 -15.85 -19.9 L5.35 -17.15 6.85 -17.5 Q6.85 -17.5 6.95 -17.45 L8.2 -16.1 9.05 -15.65 Q20.45 -9.45 19.75 -3.7 19.55 -2.45 19.0 -1.55" fill="url(#gradient5)" fill-rule="evenodd" stroke="none"/>
      <path d="M-15.0 -15.1 Q-9.55 -14.15 -6.6 -11.7 -3.65 -9.25 -0.3 -6.0 L0.95 -4.45 -32.45 -10.55 Q-26.9 -13.85 -21.8 -16.0 L-15.0 -15.1 M-1.45 -2.5 Q-4.6 -2.35 0.5 -2.9 L-1.45 -2.5" fill="url(#gradient6)" fill-rule="evenodd" stroke="none"/>
      <path d="M-14.6 -7.45 L-7.45 -5.95 -13.3 9.35 -14.6 9.95 Q-17.0 8.75 -18.25 8.7 L-30.85 5.7 -31.3 -5.35 -32.55 -5.8 -32.25 -10.55 -14.6 -7.45" fill="url(#gradient7)" fill-rule="evenodd" stroke="none"/>
      <path d="M22.9 5.95 L31.5 -5.65 Q31.55 3.3 31.95 5.15 L21.0 19.55 Q21.15 11.6 20.9 5.45 L22.9 5.95" fill="url(#gradient8)" fill-rule="evenodd" stroke="none"/>
      <path d="M18.1 -10.85 Q18.1 -9.05 14.65 -8.7 11.2 -8.4 6.3 -9.8 1.4 -11.25 -2.05 -13.55 -5.5 -15.85 -5.5 -17.65 L-5.35 -18.35 13.2 -15.9 14.65 -15.0 Q18.1 -12.7 18.1 -10.85" fill="url(#gradient9)" fill-rule="evenodd" stroke="none"/>
      <path d="M4.1 -15.5 L3.85 -15.15 0.45 -15.15 -2.9 -15.15 -3.15 -15.5 0.5 -15.95 3.9 -15.9 4.1 -15.5 M5.85 -9.05 Q3.4 -9.05 0.9 -10.2 L0.8 -10.35 2.4 -10.8 Q4.55 -10.8 6.95 -9.6 L7.05 -9.45 Q6.85 -9.05 5.85 -9.05 M9.9 -7.7 Q9.3 -7.25 8.45 -7.25 7.65 -7.25 7.05 -7.7 7.5 -8.15 8.45 -8.15 L9.75 -8.1 9.9 -7.7 M15.65 -6.9 Q14.55 -6.9 14.55 -7.55 14.55 -8.3 15.65 -8.3 17.1 -8.3 16.8 -7.6 16.8 -6.9 15.65 -6.9 M18.5 -6.75 Q19.2 -7.7 21.15 -7.7 L22.05 -7.65 22.25 -7.25 Q20.75 -6.45 19.9 -6.45 L18.65 -6.6 18.5 -6.75 M14.7 -11.1 L17.75 -11.25 20.75 -11.1 Q20.75 -10.9 21.0 -10.8 L20.7 -10.4 17.7 -10.35 14.55 -10.65 14.7 -11.1 M22.25 -13.2 L24.65 -13.1 Q26.85 -12.95 27.3 -12.3 26.8 -11.9 26.1 -11.9 L21.15 -12.65 Q21.45 -13.2 22.25 -13.2 M31.05 1.6 Q31.05 4.35 30.15 4.8 29.75 4.4 29.75 3.75 L30.1 1.85 Q30.5 0.25 30.65 0.15 31.05 0.7 31.05 1.6 M28.2 4.45 Q28.2 5.45 27.7 6.1 L26.3 7.7 Q25.85 7.4 25.85 6.55 25.85 4.8 27.8 3.3 28.2 3.85 28.2 4.45 M23.7 9.2 Q23.7 9.9 23.0 10.85 22.55 10.35 22.55 9.45 22.55 8.1 23.15 8.1 23.85 8.1 23.7 9.2 M28.35 6.65 Q28.35 5.3 28.95 5.3 29.55 5.3 29.45 6.5 29.45 7.3 28.65 7.7 28.35 7.35 28.35 6.65 M12.15 5.4 Q11.45 5.2 11.45 3.8 11.45 3.15 11.85 2.7 L12.0 2.7 Q12.65 2.7 12.45 4.1 L12.15 5.4 M12.45 0.4 Q12.45 0.0 13.85 0.0 14.25 0.0 15.9 1.65 15.55 2.15 14.75 2.15 13.95 2.15 13.1 1.3 L12.45 0.4 M11.15 11.15 L10.65 9.95 10.7 9.0 Q10.1 8.9 9.85 8.35 L9.75 7.6 Q9.75 6.45 10.2 6.45 11.5 6.45 11.5 7.65 L11.55 8.45 Q11.55 10.5 11.15 11.15 M2.1 5.45 L-0.65 5.9 -1.85 5.9 Q-1.85 6.25 -2.0 6.6 L-1.85 7.25 -1.9 7.9 -1.35 9.2 Q-1.35 9.75 -1.65 10.35 -2.5 9.95 -2.7 8.2 L-2.65 7.85 -2.7 7.25 -2.65 6.65 -3.45 6.0 -3.75 5.05 -3.65 4.45 -4.05 4.2 Q-3.7 3.6 -1.4 3.6 -0.05 3.6 0.05 3.9 L0.15 3.95 Q-0.3 4.35 -1.95 4.6 L-1.85 5.05 -0.65 5.0 1.95 5.1 2.1 5.45 M0.8 3.0 Q0.8 1.85 1.25 1.85 2.85 1.85 2.85 3.45 2.85 4.65 2.4 4.65 0.8 4.65 0.8 3.0 M4.2 10.85 Q3.65 10.6 3.65 9.7 3.65 8.75 4.2 8.45 L4.5 9.65 4.2 10.85 M3.15 9.6 Q3.15 10.8 2.7 10.8 0.35 10.8 0.8 9.65 0.8 8.45 2.0 8.45 3.35 8.45 3.15 9.6 M17.4 14.0 Q17.4 14.5 17.0 15.2 L16.65 14.9 16.35 15.05 Q13.3 15.05 13.2 12.5 13.2 11.4 13.65 11.4 14.9 11.4 16.55 13.6 16.6 12.9 17.0 12.9 17.4 12.9 17.4 14.0 M-27.3 -8.0 Q-26.3 -8.0 -25.2 -7.05 -25.65 -6.6 -26.35 -6.6 -26.9 -6.6 -28.5 -7.4 -28.1 -8.0 -27.3 -8.0 M-26.75 -9.45 L-29.55 -9.9 Q-29.05 -10.5 -27.9 -10.5 L-25.8 -10.1 -25.65 -9.9 Q-25.85 -9.45 -26.75 -9.45 M-29.45 -2.35 L-28.95 2.0 Q-28.95 3.6 -29.3 3.85 -30.05 3.05 -30.0 -0.65 -30.0 -2.35 -29.45 -2.35 M-24.6 -0.45 L-24.6 0.15 Q-24.6 1.05 -26.0 1.95 -26.45 1.6 -26.45 0.85 -26.45 -0.95 -25.1 -0.95 -24.7 -0.95 -24.6 -0.45 M-3.6 -13.8 Q-5.8 -13.8 -6.0 -14.25 L-3.6 -14.7 -1.35 -14.55 -1.1 -14.25 Q-1.45 -13.8 -3.6 -13.8 M-3.3 -12.45 Q-3.75 -12.3 -3.55 -12.15 L-7.4 -12.0 -11.1 -12.15 -11.55 -12.35 Q-11.7 -12.75 -11.4 -12.8 L-7.4 -12.9 -3.45 -12.8 -3.3 -12.45 M-16.35 -16.35 L-15.1 -16.8 Q-13.8 -16.8 -13.35 -16.3 L-12.8 -15.6 -13.95 -15.2 Q-15.1 -15.2 -15.3 -15.8 -15.8 -16.0 -16.35 -16.35 M-18.6 -13.65 Q-18.0 -14.4 -15.8 -14.4 -14.7 -14.4 -14.1 -13.95 -14.8 -13.35 -17.2 -13.35 L-18.6 -13.65 M-10.95 -13.35 Q-11.25 -12.75 -12.05 -12.75 -12.75 -12.75 -13.35 -13.35 -13.0 -13.95 -12.2 -13.95 -11.55 -13.95 -10.95 -13.35 M-11.8 -8.0 L-2.45 -7.8 -2.25 -7.4 -4.8 -7.05 Q-13.8 -5.6 -16.25 -7.5 -16.45 -7.8 -16.2 -7.9 L-11.8 -8.0 M-4.4 -10.05 Q-5.05 -9.6 -5.55 -9.6 -6.2 -9.6 -6.75 -10.05 L-5.55 -10.5 -4.65 -10.35 -4.4 -10.05 M-3.6 0.6 Q-2.5 0.6 -2.45 2.3 L-2.85 3.45 Q-4.05 2.6 -4.05 1.7 -4.05 0.6 -3.6 0.6 M-6.45 2.15 Q-6.45 3.35 -6.9 3.5 -7.35 3.05 -7.35 2.1 -7.35 0.75 -6.8 0.75 -6.45 0.75 -6.45 2.15 M-8.55 4.65 L-8.1 4.05 Q-6.9 4.85 -6.9 5.75 -6.9 6.9 -7.35 6.9 -8.55 6.9 -8.6 5.4 L-8.85 6.15 Q-9.7 5.8 -9.6 4.85 L-9.3 3.6 -9.15 3.6 Q-8.7 3.6 -8.6 4.3 L-8.55 4.65 M-7.95 10.65 L-8.4 9.45 Q-8.4 8.9 -8.0 8.4 L-7.85 8.4 Q-7.5 8.4 -7.5 9.5 -7.5 10.2 -7.95 10.65 M-14.1 3.45 Q-14.85 3.1 -14.85 1.95 -14.85 0.75 -14.3 0.75 L-13.65 2.3 Q-13.65 3.0 -14.1 3.45 M-12.4 5.7 L-12.35 6.3 Q-12.35 7.5 -12.75 7.5 -14.7 7.5 -14.25 6.35 -14.25 5.1 -13.8 5.1 -12.7 5.1 -12.4 5.7 M-18.3 4.7 Q-18.3 6.75 -20.15 6.75 -20.6 6.75 -20.55 5.65 L-20.4 4.7 -18.75 3.6 Q-18.3 4.05 -18.3 4.7" fill="#4a321b" fill-opacity="0.6431373" fill-rule="evenodd" stroke="none"/>
    </g>
    <linearGradient gradientTransform="matrix(0.0, 0.0154, -0.0319, 0.0, -5.0, 7.05)" gradientUnits="userSpaceOnUse" id="gradient0" spreadMethod="pad" x1="-819.2" x2="819.2">
      <stop offset="0.0" stop-color="#ad8748"/>
      <stop offset="1.0" stop-color="#dabd83"/>
    </linearGradient>
    <radialGradient cx="0" cy="0" gradientTransform="matrix(0.0367, -0.0227, 2.0E-4, 0.0271, -19.4, 7.8)" gradientUnits="userSpaceOnUse" id="gradient1" r="819.2" spreadMethod="pad">
      <stop offset="0.5176470588235295" stop-color="#432101" stop-opacity="0.7921569"/>
      <stop offset="0.9372549019607843" stop-color="#5c2e01" stop-opacity="0.0"/>
    </radialGradient>
    <radialGradient cx="0" cy="0" gradientTransform="matrix(0.0056, -0.0101, 0.029, 0.0154, -2.3, 0.9)" gradientUnits="userSpaceOnUse" id="gradient2" r="819.2" spreadMethod="pad">
      <stop offset="0.5176470588235295" stop-color="#432101" stop-opacity="0.7921569"/>
      <stop offset="0.9372549019607843" stop-color="#5c2e01" stop-opacity="0.0"/>
    </radialGradient>
    <radialGradient cx="0" cy="0" gradientTransform="matrix(6.0E-4, 0.0115, 0.0328, -0.0012, 1.45, 13.95)" gradientUnits="userSpaceOnUse" id="gradient3" r="819.2" spreadMethod="pad">
      <stop offset="0.5176470588235295" stop-color="#432101" stop-opacity="0.7921569"/>
      <stop offset="0.9372549019607843" stop-color="#5c2e01" stop-opacity="0.0"/>
    </radialGradient>
    <radialGradient cx="0" cy="0" gradientTransform="matrix(0.0275, 0.0016, 2.0E-4, 0.0186, 17.95, -8.05)" gradientUnits="userSpaceOnUse" id="gradient4" r="819.2" spreadMethod="pad">
      <stop offset="0.5176470588235295" stop-color="#432101" stop-opacity="0.7921569"/>
      <stop offset="0.9372549019607843" stop-color="#5c2e01" stop-opacity="0.0"/>
    </radialGradient>
    <radialGradient cx="0" cy="0" gradientTransform="matrix(0.0094, -0.0171, 0.0382, 0.0067, -14.65, -8.55)" gradientUnits="userSpaceOnUse" id="gradient5" r="819.2" spreadMethod="pad">
      <stop offset="0.5176470588235295" stop-color="#291101" stop-opacity="0.7921569"/>
      <stop offset="0.9372549019607843" stop-color="#5c2e01" stop-opacity="0.0"/>
    </radialGradient>
    <radialGradient cx="0" cy="0" gradientTransform="matrix(0.0056, -0.0101, 0.0227, 0.004, -23.6, -8.4)" gradientUnits="userSpaceOnUse" id="gradient6" r="819.2" spreadMethod="pad">
      <stop offset="0.5176470588235295" stop-color="#1e261e" stop-opacity="0.7921569"/>
      <stop offset="0.9372549019607843" stop-color="#5c2e01" stop-opacity="0.0"/>
    </radialGradient>
    <radialGradient cx="0" cy="0" gradientTransform="matrix(0.0249, -0.0083, 2.0E-4, -0.023, -28.0, -0.85)" gradientUnits="userSpaceOnUse" id="gradient7" r="819.2" spreadMethod="pad">
      <stop offset="0.5176470588235295" stop-color="#1e261e" stop-opacity="0.7921569"/>
      <stop offset="0.9372549019607843" stop-color="#5c2e01" stop-opacity="0.0"/>
    </radialGradient>
    <radialGradient cx="0" cy="0" gradientTransform="matrix(-0.0056, -0.0101, -0.0227, 0.004, 23.05, 7.3)" gradientUnits="userSpaceOnUse" id="gradient8" r="819.2" spreadMethod="pad">
      <stop offset="0.5176470588235295" stop-color="#1e261e" stop-opacity="0.7921569"/>
      <stop offset="0.9372549019607843" stop-color="#5c2e01" stop-opacity="0.0"/>
    </radialGradient>
    <radialGradient cx="0" cy="0" gradientTransform="matrix(0.0148, 0.0043, 0.0, 0.0056, 6.3, -14.3)" gradientUnits="userSpaceOnUse" id="gradient9" r="819.2" spreadMethod="pad">
      <stop offset="0.5176470588235295" stop-color="#1e261e" stop-opacity="0.7921569"/>
      <stop offset="0.9372549019607843" stop-color="#5c2e01" stop-opacity="0.0"/>
    </radialGradient>
  </defs>
</svg>
