<?xml version="1.0" encoding="UTF-8" standalone="no"?>
<svg xmlns:xlink="http://www.w3.org/1999/xlink" height="62.1px" width="39.0px" xmlns="http://www.w3.org/2000/svg">
  <g transform="matrix(1.0, 0.0, 0.0, 1.0, 19.5, 31.05)">
    <use height="62.1" transform="matrix(1.0, 0.0, 0.0, 1.0, -19.5, -31.05)" width="39.0" xlink:href="#shape0"/>
  </g>
  <defs>
    <g id="shape0" transform="matrix(1.0, 0.0, 0.0, 1.0, 19.5, 31.05)">
      <path d="M-11.15 -18.45 L-9.75 -25.3 3.5 -27.4 3.85 -28.85 8.75 -29.5 8.8 -28.25 9.45 -28.4 10.05 -28.5 17.05 -29.6 19.25 -29.95 17.25 -24.45 -11.15 -18.45" fill="#75b7bd" fill-rule="evenodd" stroke="none"/>
      <path d="M9.45 -28.4 L8.8 -28.25 8.75 -29.5 3.85 -28.85 3.5 -27.4 -9.75 -25.3 -11.15 -18.45 -11.8 -18.7 -11.8 -24.2 -17.2 -25.55 -17.2 -28.75 9.45 -30.8 9.45 -28.4" fill="url(#gradient0)" fill-rule="evenodd" stroke="none"/>
      <path d="M17.05 -29.6 L10.05 -28.5 10.75 -29.75 17.05 -29.6" fill="url(#gradient1)" fill-rule="evenodd" stroke="none"/>
      <path d="M-11.15 -18.45 L17.25 -24.45 17.25 -21.95 Q-6.75 -12.2 -9.1 16.8 L-11.15 -18.45 M17.25 -7.35 L17.25 19.55 -8.3 30.8 Q-0.5 -3.1 17.25 -7.35" fill="#92c6cb" fill-rule="evenodd" stroke="none"/>
      <path d="M17.25 -21.95 L17.25 -18.0 Q-3.7 -12.35 -8.9 20.8 L-9.1 16.8 Q-6.75 -12.2 17.25 -21.95" fill="#94c99d" fill-rule="evenodd" stroke="none"/>
      <path d="M17.25 -18.0 L17.25 -12.75 Q-1.2 -9.75 -8.6 25.8 L-8.9 20.8 Q-3.7 -12.35 17.25 -18.0" fill="#c8c795" fill-rule="evenodd" stroke="none"/>
      <path d="M17.25 -12.75 L17.25 -7.35 Q-0.5 -3.1 -8.3 30.8 L-8.6 25.8 Q-1.2 -9.75 17.25 -12.75" fill="#c8a995" fill-rule="evenodd" stroke="none"/>
      <path d="M-11.8 -18.7 L-11.15 -18.45 -9.1 16.8 -8.9 20.8 -8.6 25.8 -8.3 30.8 -14.7 25.6 -18.35 -21.05 -11.8 -18.7" fill="#64adb5" fill-rule="evenodd" stroke="none"/>
      <path d="M-17.2 -25.55 L-11.8 -24.2 -11.8 -18.7 -18.35 -21.05 -19.25 -26.0 -17.2 -25.55" fill="#eef7f7" fill-rule="evenodd" stroke="none"/>
      <path d="M-11.15 -18.45 L-9.75 -25.3 3.5 -27.4 3.85 -28.85 8.75 -29.5 8.8 -28.25 9.45 -28.4 9.45 -30.8 -17.2 -28.75 -17.2 -25.55 -11.8 -24.2 -11.8 -18.7 -11.15 -18.45 17.25 -24.45 19.25 -29.95 17.05 -29.6 10.05 -28.5 9.45 -28.4 M10.05 -28.5 L10.75 -29.75 17.05 -29.6 M17.25 -12.75 L17.25 -7.35 17.25 19.55 -8.3 30.8 -14.7 25.6 -18.35 -21.05 -19.25 -26.0 -17.2 -25.55 M17.25 -18.0 L17.25 -12.75 M-8.6 25.8 L-8.3 30.8 M17.25 -21.95 L17.25 -18.0 M-8.9 20.8 L-8.6 25.8 M17.25 -24.45 L17.25 -21.95 M-9.1 16.8 L-8.9 20.8 M-11.8 -18.7 L-18.35 -21.05 M-9.1 16.8 L-11.15 -18.45 Z" fill="none" stroke="#009999" stroke-linecap="round" stroke-linejoin="round" stroke-width="0.5"/>
      <path d="M0.3 -13.45 Q0.15 -13.25 -0.15 -13.25 -0.4 -13.25 -0.55 -13.45 L-0.75 -14.0 -0.55 -14.55 -0.15 -14.75 0.3 -14.55 0.5 -14.0 0.3 -13.45 M1.95 -12.65 L1.75 -11.55 1.4 -11.15 Q1.15 -11.15 1.0 -11.55 0.85 -12.05 0.85 -12.65 L1.0 -13.7 1.4 -14.15 1.75 -13.7 1.95 -12.65 M1.95 -7.3 Q1.5 -6.9 0.85 -6.85 0.15 -6.9 -0.3 -7.3 -0.75 -7.75 -0.75 -8.45 L-0.3 -9.6 Q0.15 -10.05 0.85 -10.05 1.5 -10.05 1.95 -9.6 L2.4 -8.45 Q2.4 -7.75 1.95 -7.3 M3.55 -3.65 Q3.4 -4.15 3.4 -4.8 3.4 -5.5 3.55 -5.95 3.7 -6.4 4.0 -6.4 L4.45 -5.95 4.6 -4.8 4.45 -3.65 4.0 -3.2 Q3.7 -3.25 3.55 -3.65 M2.2 -3.4 L1.75 -2.95 Q1.45 -2.95 1.3 -3.4 L1.1 -4.45 1.3 -5.5 Q1.45 -5.95 1.75 -5.95 L2.2 -5.5 2.35 -4.45 2.2 -3.4 M0.2 -4.55 L-0.25 -4.25 Q-0.55 -4.25 -0.75 -4.55 L-0.95 -5.2 -0.75 -5.9 -0.25 -6.2 0.2 -5.9 0.4 -5.2 0.2 -4.55 M2.0 -2.8 Q2.55 -2.8 2.95 -2.4 L3.4 -1.35 Q3.35 -0.75 2.95 -0.35 2.55 0.05 2.0 0.1 1.45 0.05 1.05 -0.35 0.6 -0.75 0.65 -1.35 0.6 -2.0 1.05 -2.4 1.45 -2.8 2.0 -2.8 M5.9 -0.1 L6.05 1.0 5.9 2.05 5.5 2.5 5.15 2.05 4.95 1.0 5.15 -0.1 5.5 -0.55 5.9 -0.1 M-8.6 -15.4 L-8.25 -15.8 -7.85 -15.4 Q-7.7 -15.0 -7.7 -14.35 -7.7 -13.75 -7.85 -13.35 L-8.25 -12.9 -8.6 -13.35 -8.8 -14.35 -8.6 -15.4 M-2.1 -12.45 Q-2.15 -11.85 -2.55 -11.4 -2.95 -11.0 -3.5 -11.0 -4.05 -11.0 -4.45 -11.4 -4.9 -11.85 -4.85 -12.45 -4.9 -13.05 -4.45 -13.45 -4.05 -13.9 -3.5 -13.9 -2.95 -13.9 -2.55 -13.45 -2.15 -13.05 -2.1 -12.45 M-2.75 -8.4 L-2.4 -8.8 -2.0 -8.4 Q-1.85 -8.0 -1.85 -7.35 -1.85 -6.75 -2.0 -6.3 L-2.4 -5.9 -2.75 -6.3 -2.95 -7.35 -2.75 -8.4 M-9.05 -8.6 L-8.7 -9.0 -8.4 -8.6 Q-8.25 -8.2 -8.25 -7.55 -8.25 -6.95 -8.4 -6.5 L-8.7 -6.1 -9.05 -6.5 -9.2 -7.55 -9.05 -8.6 M-5.55 -6.25 L-5.95 -6.7 -6.1 -7.75 -5.95 -8.8 -5.55 -9.25 -5.2 -8.8 -5.0 -7.75 -5.2 -6.7 Q-5.35 -6.25 -5.55 -6.25 M-6.75 -5.4 Q-6.45 -5.45 -6.25 -5.1 L-6.05 -4.25 -6.25 -3.45 Q-6.45 -3.1 -6.75 -3.1 -7.0 -3.1 -7.2 -3.45 L-7.4 -4.25 -7.2 -5.1 Q-7.0 -5.45 -6.75 -5.4 M-5.25 -4.2 Q-4.85 -4.6 -4.3 -4.6 -3.8 -4.6 -3.4 -4.2 -3.0 -3.8 -3.0 -3.2 -3.0 -2.7 -3.4 -2.25 -3.8 -1.85 -4.3 -1.85 -4.85 -1.85 -5.25 -2.25 -5.65 -2.7 -5.65 -3.2 -5.65 -3.8 -5.25 -4.2 M-6.3 -1.35 L-5.95 -0.9 -5.75 0.15 -5.95 1.2 -6.3 1.65 -6.7 1.2 -6.85 0.15 -6.7 -0.9 -6.3 -1.35 M-0.05 -3.5 Q0.35 -3.1 0.35 -2.45 0.35 -1.85 -0.05 -1.45 -0.5 -1.05 -1.0 -1.0 -1.6 -1.05 -2.0 -1.45 -2.4 -1.85 -2.4 -2.45 -2.4 -3.1 -2.0 -3.5 -1.6 -3.9 -1.0 -3.9 -0.5 -3.9 -0.05 -3.5 M-1.15 2.65 Q-1.7 2.6 -2.1 2.2 -2.5 1.8 -2.45 1.25 -2.5 0.7 -2.1 0.3 -1.7 -0.15 -1.15 -0.1 -0.65 -0.15 -0.25 0.3 0.15 0.7 0.15 1.25 0.15 1.8 -0.25 2.2 -0.65 2.6 -1.15 2.65 M-3.45 1.85 Q-3.3 2.3 -3.3 2.9 L-3.45 3.95 -3.85 4.4 -4.2 3.95 -4.4 2.9 -4.2 1.85 -3.85 1.4 -3.45 1.85 M-1.15 4.4 Q-1.15 3.85 -0.75 3.45 -0.35 3.05 0.2 3.05 0.75 3.05 1.2 3.45 1.6 3.85 1.6 4.4 1.6 4.95 1.2 5.4 L1.1 5.45 Q0.7 5.8 0.2 5.8 -0.3 5.8 -0.65 5.45 L-0.75 5.4 Q-1.15 4.95 -1.15 4.4 M-1.15 8.15 Q-0.75 8.55 -0.75 9.1 -0.75 9.65 -1.15 10.05 -1.6 10.45 -2.1 10.45 -2.7 10.45 -3.1 10.05 -3.5 9.65 -3.5 9.1 -3.5 8.55 -3.1 8.15 -2.7 7.7 -2.1 7.7 -1.6 7.7 -1.15 8.15 M-0.5 8.4 L-0.05 8.2 0.4 8.4 0.55 8.95 0.4 9.5 -0.05 9.7 Q-0.35 9.7 -0.5 9.5 L-0.7 8.95 -0.5 8.4 M-0.9 12.05 L-1.05 13.2 -1.5 13.65 -1.95 13.2 -2.1 12.05 -1.95 10.9 -1.5 10.45 Q-1.25 10.45 -1.05 10.9 -0.9 11.35 -0.9 12.05 M11.5 5.45 L11.35 5.45 10.85 5.45 11.45 5.15 11.5 5.45 M0.6 12.95 L0.65 12.4 0.75 11.0 Q0.9 10.4 1.1 10.4 1.3 10.4 1.6 12.0 L1.6 12.25 1.55 13.4 1.3 14.2 Q1.15 14.45 1.0 14.35 L0.6 12.95 M2.95 10.9 L2.95 10.2 3.15 8.7 Q3.3 8.05 3.5 8.15 L3.95 9.9 3.4 11.65 2.95 10.9 M6.05 8.1 L6.15 7.8 6.2 7.35 6.35 7.05 6.6 7.05 6.8 7.5 6.5 9.65 6.35 9.8 6.05 8.1 M5.6 5.8 Q5.6 6.35 5.2 6.75 4.8 7.15 4.3 7.15 3.7 7.15 3.35 6.75 2.95 6.35 2.95 5.8 L3.0 5.45 Q3.05 5.1 3.35 4.85 3.7 4.4 4.3 4.4 4.8 4.4 5.2 4.85 L5.55 5.45 5.6 5.8 M3.3 1.4 L3.1 2.1 2.65 2.4 Q2.35 2.4 2.15 2.1 1.9 1.8 1.95 1.4 1.9 0.95 2.15 0.65 2.35 0.35 2.65 0.35 2.9 0.35 3.1 0.65 L3.3 1.4 M1.0 6.5 Q1.15 6.05 1.45 6.05 L1.9 6.5 2.1 7.6 1.9 8.65 1.45 9.1 Q1.15 9.05 1.0 8.65 L0.85 7.6 Q0.85 6.95 1.0 6.5 M3.3 12.25 L3.4 12.45 3.45 12.75 3.45 12.85 3.3 13.2 2.9 13.4 2.55 13.25 2.5 13.2 2.35 12.75 Q2.35 12.45 2.5 12.25 L2.9 12.05 3.3 12.25" fill="#deb307" fill-rule="evenodd" stroke="none"/>
      <path d="M11.35 5.45 Q10.05 10.3 -4.0 18.6 L0.6 12.95 1.0 14.35 Q1.15 14.45 1.3 14.2 L1.55 13.4 1.6 12.25 1.6 12.0 2.9 10.8 2.95 10.9 3.4 11.65 3.95 9.9 6.05 8.1 6.35 9.8 6.5 9.65 6.8 7.5 10.85 5.45 11.35 5.45 M3.3 12.25 L2.9 12.05 2.5 12.25 Q2.35 12.45 2.35 12.75 L2.5 13.2 2.55 13.25 2.9 13.4 3.3 13.2 3.45 12.85 3.45 12.75 3.4 12.45 3.3 12.25" fill="#4f9755" fill-rule="evenodd" stroke="none"/>
      <path d="M11.5 5.45 L12.8 14.8 Q10.1 20.8 3.5 22.55 L-4.05 18.65 -4.0 18.65 -4.0 18.6 Q10.05 10.3 11.35 5.45 L11.5 5.45" fill="#7ebc84" fill-rule="evenodd" stroke="none"/>
      <path d="M16.6 -19.7 L16.1 -19.2 15.6 -18.7 Q15.6 -19.25 15.4 -19.2 L14.9 -18.55 14.75 -17.8 Q14.75 -17.6 15.0 -17.65 L15.35 -17.8 15.85 -18.1 Q16.45 -18.3 16.5 -17.6 L16.55 -17.15 16.2 -15.45 Q15.8 -14.2 15.05 -13.2 14.65 -12.65 14.25 -12.55 L13.55 -12.65 14.1 -14.95 Q14.35 -14.7 14.55 -14.8 L14.8 -14.95 15.2 -15.3 15.45 -15.95 Q15.45 -16.2 15.2 -16.1 L14.6 -15.85 14.05 -15.55 13.7 -15.55 Q13.45 -15.8 13.45 -16.45 13.55 -17.75 14.45 -19.8 15.35 -21.8 16.0 -22.05 16.65 -22.35 16.65 -20.6 L16.6 -19.7 M13.2 -18.9 Q12.75 -15.6 12.6 -12.8 L11.45 -11.95 12.1 -18.35 11.7 -18.1 11.35 -17.9 11.3 -20.1 14.15 -21.5 14.15 -19.35 13.2 -18.9 M8.4 -18.85 L8.55 -17.35 8.4 -15.5 Q8.15 -13.75 7.5 -12.15 6.75 -10.25 5.9 -10.0 5.2 -9.8 4.9 -11.1 4.75 -11.75 4.75 -12.6 L4.9 -14.45 Q5.15 -16.15 5.75 -17.75 6.5 -19.65 7.4 -19.95 8.1 -20.15 8.4 -18.85 M3.85 -15.9 L3.7 -14.1 Q3.45 -12.35 2.8 -10.75 2.05 -8.85 1.2 -8.6 0.5 -8.35 0.2 -9.7 L0.0 -11.2 0.2 -13.05 Q0.4 -14.75 1.05 -16.35 1.8 -18.25 2.65 -18.5 3.4 -18.75 3.7 -17.45 L3.85 -15.9 M1.2 -12.5 L1.15 -11.65 Q1.15 -11.2 1.3 -10.95 1.45 -10.65 1.75 -10.75 2.1 -10.85 2.4 -11.65 L2.75 -13.05 2.8 -14.8 Q2.7 -15.65 2.4 -15.55 2.0 -15.45 1.65 -14.2 L1.2 -12.5 M6.35 -15.65 L5.9 -13.9 5.85 -13.1 Q5.85 -12.65 6.0 -12.35 6.15 -12.05 6.45 -12.15 6.85 -12.25 7.1 -13.05 L7.45 -14.45 7.5 -16.2 Q7.45 -17.05 7.1 -16.95 6.75 -16.85 6.35 -15.65 M9.1 -12.5 L8.95 -11.45 7.5 -10.6 9.15 -19.55 11.2 -20.8 Q10.85 -17.1 10.9 -12.3 L9.45 -11.25 9.55 -12.8 9.1 -12.5 M9.65 -14.35 L9.95 -18.9 9.35 -14.15 9.65 -14.35 M-7.45 -12.7 L-7.65 -12.85 -8.15 -12.5 -8.2 -11.8 -8.3 -11.15 Q-7.65 -11.9 -7.5 -12.55 L-7.45 -12.7 M-6.45 -13.3 L-6.2 -14.2 Q-5.4 -16.1 -4.55 -16.35 -3.8 -16.6 -3.55 -15.25 L-3.4 -14.4 -3.45 -15.7 -0.55 -17.1 -0.6 -14.95 -1.55 -14.5 -2.1 -8.4 -3.25 -7.55 -2.65 -13.95 -3.0 -13.75 -3.4 -13.5 -3.55 -11.9 Q-3.75 -10.2 -4.4 -8.6 -5.15 -6.7 -6.0 -6.45 -6.75 -6.2 -7.05 -7.55 L-7.2 -9.05 -7.05 -10.9 -6.7 -12.45 Q-7.25 -10.95 -8.55 -9.15 L-8.75 -6.4 -9.8 -5.6 -9.65 -7.2 -9.35 -10.1 -9.0 -14.15 -7.25 -15.2 Q-6.35 -15.5 -6.35 -14.4 L-6.45 -13.3 M-4.8 -13.4 Q-5.2 -13.3 -5.55 -12.05 L-6.0 -10.35 -6.05 -9.5 -5.9 -8.8 Q-5.75 -8.5 -5.5 -8.6 -5.1 -8.7 -4.8 -9.5 -4.55 -10.1 -4.45 -10.9 L-4.4 -12.65 Q-4.5 -13.5 -4.8 -13.4" fill="#4f9755" fill-rule="evenodd" stroke="none"/>
      <path d="M-12.3 -20.95 L-12.3 7.9 -13.45 17.0 Q-14.35 22.6 -15.05 23.5 L-15.85 7.6 -15.45 1.1 Q-14.75 -8.25 -13.65 -14.9 -12.95 -19.6 -12.3 -20.95" fill="url(#gradient2)" fill-rule="evenodd" stroke="none"/>
      <path d="M-1.5 -4.95 Q-1.15 2.0 -7.2 5.75 -9.55 7.2 -12.3 7.9 L-12.3 -20.95 -8.35 -17.85 Q-1.85 -11.85 -1.5 -4.95" fill="url(#gradient3)" fill-rule="evenodd" stroke="none"/>
      <path d="M-0.85 -5.1 Q8.95 -7.6 17.25 -4.9 L17.25 2.65 17.25 19.7 -5.7 29.9 -8.4 30.85 -12.1 27.85 -14.65 25.9 -15.4 17.7 -16.5 -0.15 Q-7.35 -3.5 -0.85 -5.1" fill="url(#gradient4)" fill-rule="evenodd" stroke="none"/>
      <path d="M17.2 -24.95 L17.2 -4.65 15.9 -1.05 17.05 -0.05 16.95 0.05 14.95 1.55 14.45 2.35 Q7.15 13.55 -3.15 15.4 L-9.3 15.55 -9.35 15.55 -9.35 15.4 -9.3 15.55 -11.65 -12.5 -12.0 -18.6 Q-12.1 -20.45 -9.75 -25.3 L11.1 -28.8 Q19.4 -30.55 18.7 -28.1 18.0 -25.7 17.2 -24.95" fill="url(#gradient5)" fill-rule="evenodd" stroke="none"/>
      <path d="M-11.45 -20.65 L-10.25 -25.55 -0.4 -26.8 Q0.6 -18.8 0.6 -16.05 0.6 -11.55 -2.65 -8.3 -5.85 -5.1 -10.35 -1.2 -14.9 2.65 -16.6 -0.6 L-18.45 -21.95 Q-19.25 -24.2 -19.45 -26.05 L-11.8 -24.0 -11.45 -20.65" fill="url(#gradient6)" fill-rule="evenodd" stroke="none"/>
      <path d="M10.8 -25.25 Q10.8 -23.9 9.55 -23.9 L9.0 -25.1 Q9.0 -26.45 10.05 -26.45 10.95 -26.45 10.8 -25.25 M16.7 -27.15 Q16.7 -26.1 16.1 -25.7 L13.05 -23.9 Q12.6 -24.65 12.6 -25.15 12.6 -25.55 13.75 -26.85 15.15 -28.35 16.25 -28.35 16.85 -28.35 16.7 -27.15 M11.7 -14.55 L11.55 -13.25 11.25 -13.1 Q10.8 -13.5 10.8 -14.45 10.8 -15.65 11.4 -15.9 L11.7 -14.55 M9.4 -11.0 Q9.2 -9.95 8.55 -9.8 L8.25 -9.75 Q7.55 -9.75 7.35 -10.65 L7.35 -11.6 Q7.35 -13.25 7.85 -13.5 8.25 -13.25 8.25 -12.35 L8.9 -13.05 Q9.45 -12.65 9.45 -11.85 L9.4 -11.0 M6.6 -8.75 Q6.0 -9.15 6.0 -10.7 6.0 -12.6 6.6 -12.75 L7.05 -10.1 Q7.05 -9.35 6.6 -8.75 M2.0 -6.45 Q2.9 -6.45 3.0 -4.8 3.0 -2.9 2.1 -2.25 1.35 -2.75 1.5 -4.4 1.5 -6.1 1.85 -6.45 L2.0 -6.45 M4.95 -9.75 L5.7 -3.6 Q5.7 -2.8 5.25 -2.4 4.35 -3.6 4.35 -7.5 4.35 -9.4 4.8 -9.75 L4.95 -9.75 M15.8 -0.45 L15.9 -0.45 Q16.1 -1.95 16.55 -2.45 17.15 -2.15 17.15 -0.75 L16.55 2.15 15.5 5.1 Q14.65 4.0 14.6 1.65 L14.7 -2.1 Q14.7 -3.15 15.2 -3.3 15.65 -2.8 15.8 -0.45 M2.45 15.3 Q1.95 15.0 1.95 12.45 1.95 9.95 2.45 9.95 3.0 11.0 3.0 14.1 3.0 15.05 2.45 15.3 M-0.15 -23.15 Q0.65 -23.15 0.6 -21.95 0.6 -21.2 -0.65 -20.45 -1.9 -19.7 -3.15 -19.7 -4.15 -19.7 -3.9 -20.9 -3.9 -21.4 -2.8 -22.2 -1.5 -23.15 -0.15 -23.15 M-7.65 -22.85 Q-7.65 -22.05 -8.15 -21.3 -8.7 -21.7 -8.7 -22.4 -8.7 -24.3 -8.0 -24.2 -7.65 -23.3 -7.65 -22.85 M-3.65 -16.4 Q-4.2 -16.65 -4.2 -17.7 -4.2 -19.35 -3.2 -19.35 L-2.85 -18.2 Q-2.85 -17.5 -3.65 -16.4 M-13.95 -21.3 Q-13.95 -19.5 -14.4 -19.05 -14.85 -19.45 -14.85 -21.35 -14.85 -23.55 -14.4 -23.55 -14.0 -23.55 -13.95 -22.45 L-13.95 -21.3 M-16.7 -9.3 L-16.65 -9.3 Q-15.6 -9.3 -15.6 5.9 -15.2 3.15 -14.1 1.8 -13.25 4.25 -12.6 12.95 -12.6 13.85 -13.05 14.1 -14.05 12.7 -14.25 10.05 L-14.3 5.7 -14.4 5.7 Q-14.85 8.15 -16.1 10.35 -16.35 9.25 -16.5 1.2 L-17.15 -7.75 Q-17.15 -9.1 -16.7 -9.3 M-4.05 5.75 Q-4.05 6.4 -4.5 6.9 -5.4 6.0 -5.4 4.75 -5.4 4.0 -4.95 3.45 L-4.8 3.45 -4.05 5.75 M-8.8 25.05 L-8.55 28.25 Q-8.55 29.6 -9.0 30.05 -9.45 29.75 -9.45 29.0 L-9.45 27.95 -10.7 28.85 Q-11.1 28.55 -11.1 27.35 -11.1 26.1 -10.7 25.8 -10.45 25.8 -10.35 26.15 -9.9 25.5 -9.9 23.6 -9.9 21.7 -9.3 21.0 L-9.2 21.0 -8.9 23.95 -8.8 25.05 M-6.0 25.5 Q-6.2 21.6 -5.25 21.6 -4.95 21.6 -4.95 22.95 L-4.75 26.1 Q-4.7 27.9 -5.55 28.8 L-5.9 27.55 -6.0 25.65 -6.0 25.5" fill="#341a09" fill-opacity="0.54901963" fill-rule="evenodd" stroke="none"/>
      <path d="M11.05 -17.0 Q11.05 -18.8 11.65 -18.65 L11.8 -17.75 11.25 -16.15 Q11.05 -16.3 11.05 -17.0 M6.65 -18.75 Q6.5 -19.0 6.5 -19.65 6.5 -21.1 7.55 -21.1 8.05 -21.1 8.0 -20.15 L7.8 -19.35 Q7.6 -19.1 6.65 -18.75 M2.85 -17.7 Q3.3 -17.75 3.75 -15.8 L4.1 -13.85 3.9 -12.95 Q3.5 -13.4 3.1 -14.65 L2.85 -15.3 1.6 -14.65 -0.4 -14.05 Q-0.8 -14.05 -0.75 -14.95 -0.75 -15.7 0.45 -16.2 L2.6 -16.7 2.6 -16.75 Q2.6 -17.45 2.75 -17.7 L2.85 -17.7 M5.95 -17.55 L6.1 -16.6 6.05 -15.95 5.9 -15.75 Q5.65 -16.1 5.7 -16.6 5.65 -17.35 5.95 -17.55 M9.4 -16.85 Q9.4 -18.3 9.85 -18.25 10.5 -18.3 10.35 -17.35 10.35 -16.5 9.6 -15.95 9.4 -16.1 9.4 -16.85 M8.55 -9.8 Q9.2 -9.95 9.4 -11.0 10.7 -11.0 10.5 -10.05 10.45 -9.1 8.7 -8.8 8.55 -9.15 8.55 -9.75 L8.55 -9.8 M7.2 -0.6 Q6.95 -0.95 7.0 -1.55 L7.05 -2.65 Q7.15 -3.7 7.35 -3.95 L7.6 -3.05 7.3 -0.7 7.2 -0.6 M9.85 -3.75 Q9.85 -4.5 10.5 -4.8 L12.45 -5.95 12.65 -4.75 Q12.65 -2.8 10.8 -2.8 L9.9 -2.85 9.85 -3.75 M13.3 -5.3 Q13.05 -5.6 13.05 -6.2 13.05 -8.8 16.15 -12.65 L16.35 -11.75 Q16.35 -10.45 15.05 -8.55 13.55 -6.35 13.3 -5.3 M13.05 12.35 Q11.4 7.7 11.4 6.85 11.4 6.2 11.55 5.95 L11.65 5.95 Q12.25 5.95 13.25 11.45 L13.05 12.35 M0.05 6.0 Q0.15 6.2 -0.15 6.2 -2.25 6.2 -2.2 4.25 -2.2 3.4 -1.9 3.4 0.2 3.4 0.05 5.4 L0.05 6.0 M7.0 4.0 Q6.75 3.65 6.75 2.6 6.75 -0.45 7.1 -0.7 L7.3 0.8 7.0 4.0 M8.85 18.45 L8.6 19.35 Q7.7 19.35 7.75 17.85 7.7 17.3 7.8 17.0 7.7 16.4 7.75 15.6 L7.65 14.65 Q7.6 13.8 7.95 13.65 L8.1 15.6 8.1 16.75 Q8.9 16.9 8.85 18.45 M4.6 13.35 Q4.6 12.1 5.25 11.75 L5.4 12.65 Q5.4 14.35 4.65 14.25 L4.6 13.35 M3.95 20.4 Q3.45 19.8 3.45 18.75 3.45 17.65 3.65 17.55 L4.05 18.75 4.15 19.55 4.15 19.95 4.25 19.75 4.4 21.7 Q4.4 22.4 4.8 22.75 L5.15 23.25 5.1 24.05 4.95 24.15 Q3.75 24.15 4.0 21.75 3.9 20.85 4.05 20.3 L3.95 20.4 M0.55 23.8 Q-0.2 23.75 -0.85 21.15 L-0.65 20.25 -0.6 20.25 Q-0.25 20.25 0.75 22.9 L0.7 23.6 0.55 23.8 M9.0 22.4 L8.85 22.65 Q8.6 22.3 8.6 21.75 8.6 20.9 8.9 20.85 L9.05 21.75 9.0 22.4 M12.35 16.95 L11.55 16.85 11.5 15.95 Q11.5 15.35 11.65 15.2 L12.55 14.75 12.75 15.65 Q12.75 16.95 12.35 16.95 M14.45 17.65 Q16.55 17.6 17.1 18.25 L17.2 18.95 17.15 19.75 16.95 19.9 Q14.05 19.9 13.5 19.35 L13.35 18.9 13.4 18.6 13.5 17.95 Q13.65 17.6 14.45 17.65 M-16.05 -15.45 Q-15.65 -14.5 -15.0 -14.0 -14.6 -13.65 -14.6 -13.1 -14.6 -12.45 -14.9 -12.25 L-16.1 -13.45 -16.35 -14.45 -16.25 -15.45 -16.05 -15.45 M-14.3 -11.05 Q-14.3 -12.0 -13.95 -11.95 -13.25 -12.0 -12.65 -10.85 -12.2 -10.0 -12.2 -9.55 -12.2 -9.1 -12.35 -8.6 L-13.9 -9.95 Q-14.3 -10.15 -14.3 -11.05 M-14.9 -6.9 L-15.0 -6.1 -15.15 -5.85 -15.6 -7.85 -15.5 -8.7 -15.35 -8.7 Q-15.1 -8.7 -15.0 -7.85 L-14.9 -6.9 M-14.55 -2.85 Q-14.9 -3.75 -14.9 -4.7 L-14.65 -5.75 Q-14.35 -4.75 -14.35 -4.0 L-14.35 -3.1 -14.55 -2.85 M-1.85 -7.45 L-3.45 -6.8 -3.6 -7.7 Q-3.6 -8.35 -3.0 -8.85 -2.5 -9.35 -1.95 -9.3 -1.55 -9.35 -1.5 -8.4 -1.5 -7.65 -1.85 -7.45 M-8.35 -8.2 L-7.55 -4.9 -7.75 -4.0 Q-8.0 -4.3 -8.25 -5.5 L-8.6 -7.2 -8.35 -8.2 M-7.4 -0.6 L-7.75 -2.6 -7.65 -3.5 -7.5 -3.5 Q-7.2 -3.55 -7.2 -1.9 L-7.25 -0.85 -7.4 -0.6 M-8.05 4.1 L-8.2 4.2 -8.35 2.3 -8.1 0.4 -7.9 2.35 Q-7.9 3.6 -8.05 4.1 M-10.6 8.35 L-9.75 10.9 Q-9.25 12.35 -9.25 13.2 L-9.25 13.85 -9.4 14.05 Q-10.85 11.9 -10.85 9.85 L-10.6 8.35 M-12.35 21.25 Q-12.2 21.75 -12.0 23.95 L-12.15 24.85 Q-12.6 24.4 -12.6 22.2 -12.65 21.3 -12.35 21.25 M-4.05 17.45 L-4.0 18.0 -4.2 18.95 Q-4.65 18.75 -4.65 17.9 -4.65 16.95 -4.45 16.95 -4.15 16.9 -4.05 17.45 M-5.4 15.25 L-4.8 17.1 Q-4.8 17.65 -5.1 18.0 -5.65 17.35 -5.65 16.3 L-5.4 15.25 M-8.9 23.95 L-8.65 23.3 -8.5 24.25 -8.65 25.25 -8.8 25.05 -8.9 23.95 M-3.25 24.35 L-3.1 24.15 Q-1.85 24.15 -1.85 25.3 -1.85 26.2 -2.05 26.2 L-3.15 25.95 -3.25 26.0 -4.25 25.95 -4.3 25.05 Q-4.3 24.15 -4.05 24.15 L-3.25 24.35 M-5.9 27.55 Q-7.5 27.35 -7.15 25.95 -7.15 25.05 -6.85 25.05 L-6.0 25.5 -6.0 25.65 -5.9 27.55" fill="#341a09" fill-opacity="0.7921569" fill-rule="evenodd" stroke="none"/>
      <path d="M4.15 6.55 Q9.8 6.55 13.85 10.55 17.55 14.25 17.85 19.35 9.4 22.9 -6.1 29.8 -9.55 25.25 -9.55 20.25 -9.55 14.6 -5.5 10.55 -1.5 6.55 4.15 6.55" fill="url(#gradient7)" fill-rule="evenodd" stroke="none"/>
    </g>
    <linearGradient gradientTransform="matrix(0.0, 0.0, 0.0, 0.0, 0.0, 0.0)" gradientUnits="userSpaceOnUse" id="gradient0" spreadMethod="pad" x1="-819.2" x2="819.2">
      <stop offset="0.0" stop-color="#4d372b"/>
      <stop offset="1.0" stop-color="#9d6a4b"/>
    </linearGradient>
    <linearGradient gradientTransform="matrix(0.0, 8.0E-4, 0.0042, 0.0, 13.5, -29.15)" gradientUnits="userSpaceOnUse" id="gradient1" spreadMethod="pad" x1="-819.2" x2="819.2">
      <stop offset="0.0" stop-color="#a37858"/>
      <stop offset="1.0" stop-color="#9d6a4b"/>
    </linearGradient>
    <radialGradient cx="0" cy="0" gradientTransform="matrix(0.0023, 0.0, -0.0022, 0.0283, -13.6, 0.75)" gradientUnits="userSpaceOnUse" id="gradient2" r="819.2" spreadMethod="pad">
      <stop offset="0.5176470588235295" stop-color="#432101" stop-opacity="0.7921569"/>
      <stop offset="0.9372549019607843" stop-color="#5c2e01" stop-opacity="0.0"/>
    </radialGradient>
    <radialGradient cx="0" cy="0" gradientTransform="matrix(0.0197, 0.0182, -0.0183, 0.0114, -23.1, -9.25)" gradientUnits="userSpaceOnUse" id="gradient3" r="819.2" spreadMethod="pad">
      <stop offset="0.5176470588235295" stop-color="#432101" stop-opacity="0.7921569"/>
      <stop offset="0.9372549019607843" stop-color="#5c2e01" stop-opacity="0.0"/>
    </radialGradient>
    <radialGradient cx="0" cy="0" gradientTransform="matrix(0.0054, 0.0214, -0.0314, 0.0079, 3.7, 11.45)" gradientUnits="userSpaceOnUse" id="gradient4" r="819.2" spreadMethod="pad">
      <stop offset="0.5176470588235295" stop-color="#432101" stop-opacity="0.7921569"/>
      <stop offset="0.9372549019607843" stop-color="#5c2e01" stop-opacity="0.0"/>
    </radialGradient>
    <radialGradient cx="0" cy="0" gradientTransform="matrix(0.0328, 0.0, 0.0, 0.0316, -5.3, -12.55)" gradientUnits="userSpaceOnUse" id="gradient5" r="819.2" spreadMethod="pad">
      <stop offset="0.5176470588235295" stop-color="#291101" stop-opacity="0.7921569"/>
      <stop offset="0.9372549019607843" stop-color="#5c2e01" stop-opacity="0.0"/>
    </radialGradient>
    <radialGradient cx="0" cy="0" gradientTransform="matrix(0.0188, 0.0, 0.0, 0.0188, -13.25, -19.75)" gradientUnits="userSpaceOnUse" id="gradient6" r="819.2" spreadMethod="pad">
      <stop offset="0.5176470588235295" stop-color="#1e261e" stop-opacity="0.7921569"/>
      <stop offset="0.9372549019607843" stop-color="#5c2e01" stop-opacity="0.0"/>
    </radialGradient>
    <radialGradient cx="0" cy="0" gradientTransform="matrix(-0.0168, 0.0, 0.0, 0.0168, 4.15, 20.25)" gradientUnits="userSpaceOnUse" id="gradient7" r="819.2" spreadMethod="pad">
      <stop offset="0.5176470588235295" stop-color="#1e261e" stop-opacity="0.7921569"/>
      <stop offset="0.9372549019607843" stop-color="#5c2e01" stop-opacity="0.0"/>
    </radialGradient>
  </defs>
</svg>
