<?xml version="1.0" encoding="UTF-8" standalone="no"?>
<svg xmlns:xlink="http://www.w3.org/1999/xlink" height="32.9px" width="53.9px" xmlns="http://www.w3.org/2000/svg">
  <g transform="matrix(1.0, 0.0, 0.0, 1.0, 27.05, 16.45)">
    <use height="32.9" transform="matrix(1.0, 0.0, 0.0, 1.0, -27.05, -16.45)" width="53.9" xlink:href="#shape0"/>
  </g>
  <defs>
    <g id="shape0" transform="matrix(1.0, 0.0, 0.0, 1.0, 27.05, 16.45)">
      <path d="M-26.65 0.2 L3.25 -16.2 3.85 -16.05 Q6.6 -15.4 10.45 -13.75 L19.0 -9.7 Q22.15 -7.9 26.55 -6.65 L26.6 -6.0 26.6 -6.15 26.55 -6.35 -1.9 13.6 -2.4 13.6 -2.9 13.4 -4.05 12.95 Q-7.1 11.65 -9.3 10.05 L-10.3 9.25 Q-18.5 2.85 -26.65 0.2 M1.1 -14.1 L0.65 -13.85 -1.5 -12.65 1.55 -11.25 1.95 -11.1 3.85 -12.15 5.7 -13.2 3.4 -14.35 2.9 -14.65 2.45 -14.85 1.1 -14.1 M5.9 7.0 L1.3 4.7 5.9 7.0 M-16.0 -0.75 L-19.25 -2.4 -23.2 -0.2 -19.75 1.35 -16.0 -0.75 M-16.05 -2.7 L-14.15 -1.8 -12.95 -2.5 -11.45 -3.35 -9.4 -4.5 -12.7 -6.1 -13.4 -5.75 -16.3 -4.05 -17.5 -3.4 -16.05 -2.7 M-1.25 -11.0 L-2.15 -11.4 -2.9 -11.7 -5.95 -9.95 -4.1 -9.1 -2.5 -8.4 -1.95 -8.75 0.65 -10.25 -1.25 -11.0 M-9.35 -6.1 L-7.85 -5.4 -6.0 -6.45 -3.6 -7.8 -5.05 -8.45 -7.05 -9.35 -8.0 -8.8 -11.2 -7.0 -9.35 -6.1 M-7.0 -2.95 L-7.1 -2.9 -7.1 -2.85 -7.5 -2.6 -15.05 2.2 -13.0 3.4 -8.4 6.1 -6.25 7.35 4.35 1.5 -6.25 -3.45 -7.0 -2.95 M-0.25 10.6 L-4.5 7.95 -0.25 10.6 M-8.8 7.6 L-14.95 3.95 -8.8 7.6 M1.55 9.25 L-2.05 7.2 1.55 9.25 M8.3 0.25 L-2.05 -4.6 8.3 0.25 M6.6 0.85 L-2.8 -3.75 6.6 0.85 M3.7 8.05 L-0.25 5.9 3.7 8.05" fill="#cc6699" fill-rule="evenodd" stroke="none"/>
      <path d="M1.1 -14.1 Q1.15 -13.3 1.55 -12.8 L2.45 -12.8 Q2.45 -14.25 2.6 -14.7 L2.9 -14.65 3.4 -14.35 3.65 -13.8 3.35 -12.75 Q3.35 -12.3 3.85 -12.15 L1.95 -11.1 1.55 -11.25 Q1.1 -12.55 0.65 -12.9 L0.65 -13.85 1.1 -14.1" fill="#996633" fill-rule="evenodd" stroke="none"/>
      <path d="M2.9 -14.65 L2.6 -14.7 Q2.45 -14.25 2.45 -12.8 L1.55 -12.8 Q1.15 -13.3 1.1 -14.1 L2.45 -14.85 2.9 -14.65 M0.65 -13.85 L0.65 -12.9 Q1.1 -12.55 1.55 -11.25 L-1.5 -12.65 0.65 -13.85 M3.85 -12.15 Q3.35 -12.3 3.35 -12.75 L3.65 -13.8 3.4 -14.35 5.7 -13.2 3.85 -12.15 M-16.05 -2.7 L-15.4 -2.85 -12.95 -2.5 -14.15 -1.8 -16.05 -2.7 M-11.45 -3.35 Q-12.9 -3.95 -12.95 -4.25 L-12.35 -5.1 -12.5 -5.75 -13.4 -5.75 -13.7 -5.25 -13.55 -3.15 -14.3 -3.0 Q-15.85 -3.65 -16.3 -4.05 L-13.4 -5.75 -12.7 -6.1 -9.4 -4.5 -11.45 -3.35 M-1.95 -8.75 L-1.85 -9.2 Q-1.1 -9.8 -1.1 -10.5 L-1.25 -11.0 0.65 -10.25 -1.95 -8.75 M-2.15 -11.4 L-2.15 -10.5 -4.1 -10.05 -4.1 -9.1 -5.95 -9.95 -2.9 -11.7 -2.15 -11.4 M-8.0 -8.8 Q-8.4 -8.05 -8.4 -7.4 -9.2 -7.8 -9.3 -6.7 L-9.35 -6.1 -11.2 -7.0 -8.0 -8.8 M-6.0 -6.45 L-6.0 -7.4 -7.05 -7.4 -7.05 -7.55 Q-5.55 -7.7 -5.05 -8.45 L-3.6 -7.8 -6.0 -6.45 M-7.0 -2.95 L-6.25 -3.45 4.35 1.5 -6.25 7.35 -8.4 6.1 -7.65 4.8 -6.45 3.25 -4.85 3.1 -5.1 2.4 -5.1 2.3 -5.3 2.35 -5.3 1.9 -5.2 1.9 -5.3 1.15 -4.7 -0.45 -5.45 -0.6 -6.75 1.0 -6.9 1.0 -6.9 -0.45 Q-6.3 -1.0 -6.3 -1.65 -6.3 -2.55 -7.0 -2.95 M-13.0 3.4 L-15.05 2.2 -7.5 -2.6 -8.5 -0.9 Q-8.8 -0.25 -9.65 0.1 -11.2 0.8 -11.45 1.45 L-13.0 3.4" fill="#213429" fill-rule="evenodd" stroke="none"/>
      <path d="M26.6 -5.75 L6.45 8.55 -1.7 14.2 -1.25 14.15 -4.05 16.2 -10.3 11.55 Q-6.75 13.6 -3.7 14.4 L-3.15 14.5 -1.9 13.6 26.55 -6.35 26.6 -6.15 26.6 -6.0 26.6 -5.75" fill="#d5bb55" fill-rule="evenodd" stroke="none"/>
      <path d="M26.6 -6.0 L26.85 -5.9 26.65 -5.8 26.6 -5.75 26.6 -6.0" fill="#ecdfac" fill-rule="evenodd" stroke="none"/>
      <path d="M-16.0 -0.75 L-19.75 1.35 -23.2 -0.2 -19.25 -2.4 -16.0 -0.75 M-12.95 -2.5 L-15.4 -2.85 -16.05 -2.7 -17.5 -3.4 -16.3 -4.05 Q-15.85 -3.65 -14.3 -3.0 L-13.55 -3.15 -13.7 -5.25 -13.4 -5.75 -12.5 -5.75 -12.35 -5.1 -12.95 -4.25 Q-12.9 -3.95 -11.45 -3.35 L-12.95 -2.5 M-7.5 -2.6 L-7.1 -2.85 -7.1 -2.9 -7.0 -2.95 Q-6.3 -2.55 -6.3 -1.65 -6.3 -1.0 -6.9 -0.45 L-6.9 1.0 -6.75 1.0 -5.45 -0.6 -4.7 -0.45 -5.3 1.15 -5.2 1.9 -5.3 1.9 -5.3 2.35 -5.1 2.3 -5.1 2.4 -4.85 3.1 -6.45 3.25 -7.65 4.8 -8.4 6.1 -13.0 3.4 -11.45 1.45 Q-11.2 0.8 -9.65 0.1 -8.8 -0.25 -8.5 -0.9 L-7.5 -2.6" fill="#999999" fill-rule="evenodd" stroke="none"/>
      <path d="M-1.25 -11.0 L-1.1 -10.5 Q-1.1 -9.8 -1.85 -9.2 L-1.95 -8.75 -2.5 -8.4 -4.1 -9.1 -4.1 -10.05 -2.15 -10.5 -2.15 -11.4 -1.25 -11.0" fill="#cc6666" fill-rule="evenodd" stroke="none"/>
      <path d="M-9.35 -6.1 L-9.3 -6.7 Q-9.2 -7.8 -8.4 -7.4 -8.4 -8.05 -8.0 -8.8 L-7.05 -9.35 -5.05 -8.45 Q-5.55 -7.7 -7.05 -7.55 L-7.05 -7.4 -6.0 -7.4 -6.0 -6.45 -7.85 -5.4 -9.35 -6.1" fill="#0066cc" fill-rule="evenodd" stroke="none"/>
      <path d="M-10.3 11.55 L-14.3 8.45 Q-20.3 3.7 -24.0 2.2 -27.05 1.0 -26.8 0.45 L-26.65 0.2 Q-18.5 2.85 -10.3 9.25 L-9.3 10.05 Q-7.1 11.65 -4.05 12.95 L-2.9 13.4 -2.4 13.6 -1.9 13.6 -3.15 14.5 -3.7 14.4 Q-6.75 13.6 -10.3 11.55" fill="#887322" fill-rule="evenodd" stroke="none"/>
      <path d="M-26.65 0.2 L3.25 -16.2 3.85 -16.05 Q6.6 -15.4 10.45 -13.75 L19.0 -9.7 Q22.15 -7.9 26.55 -6.65 L26.6 -6.0 26.6 -5.75 6.45 8.55 -1.25 14.15 -4.05 16.2 -10.3 11.55 -14.3 8.45 Q-20.3 3.7 -24.0 2.2 -27.05 1.0 -26.8 0.45 L-26.65 0.2 Q-18.5 2.85 -10.3 9.25 L-9.3 10.05 Q-7.1 11.65 -4.05 12.95 L-2.9 13.4 -2.4 13.6 -1.9 13.6 26.55 -6.35 26.6 -6.15 26.6 -6.0 M1.1 -14.1 L0.65 -13.85 M1.55 -11.25 L1.95 -11.1 3.85 -12.15 M3.4 -14.35 L2.9 -14.65 2.45 -14.85 1.1 -14.1 M3.4 -14.35 L5.7 -13.2 3.85 -12.15 M1.3 4.7 L5.9 7.0 M-16.05 -2.7 L-14.15 -1.8 -12.95 -2.5 -11.45 -3.35 M-16.3 -4.05 L-17.5 -3.4 -16.05 -2.7 M-16.3 -4.05 L-13.4 -5.75 -12.7 -6.1 -9.4 -4.5 -11.45 -3.35 M-1.25 -11.0 L-2.15 -11.4 -2.9 -11.7 -5.95 -9.95 -4.1 -9.1 -2.5 -8.4 -1.95 -8.75 0.65 -10.25 -1.25 -11.0 M-9.35 -6.1 L-7.85 -5.4 -6.0 -6.45 -3.6 -7.8 -5.05 -8.45 -7.05 -9.35 -8.0 -8.8 -11.2 -7.0 -9.35 -6.1 M-7.5 -2.6 L-7.1 -2.85 -7.1 -2.9 -7.0 -2.95 -6.25 -3.45 4.35 1.5 -6.25 7.35 -8.4 6.1 -13.0 3.4 -15.05 2.2 -7.5 -2.6 M-4.5 7.95 L-0.25 10.6 M-14.95 3.95 L-8.8 7.6 M1.55 -11.25 L-1.5 -12.65 0.65 -13.85 M-0.25 5.9 L3.7 8.05 M-2.8 -3.75 L6.6 0.85 M-2.05 -4.6 L8.3 0.25 M-2.05 7.2 L1.55 9.25" fill="none" stroke="#cc3366" stroke-linecap="round" stroke-linejoin="round" stroke-width="0.5"/>
      <path d="M8.4 -11.8 L8.9 -11.2 9.5 -11.3 9.95 -11.1 8.05 -9.75 7.2 -9.55 6.35 -9.8 5.45 -10.15 4.95 -10.2 Q4.6 -10.05 5.05 -9.85 L6.15 -9.3 6.7 -9.25 6.05 -8.7 3.55 -9.85 Q3.35 -9.95 3.45 -10.1 3.35 -10.2 3.55 -10.3 L3.75 -10.45 4.1 -10.6 4.55 -10.6 Q4.35 -10.9 4.65 -11.1 L5.6 -11.75 Q6.7 -12.6 7.9 -12.0 L8.1 -11.95 8.3 -11.85 8.4 -11.8 M6.25 -10.8 L5.85 -10.75 Q5.7 -10.65 5.9 -10.55 L6.6 -10.25 7.0 -10.2 6.95 -10.45 6.25 -10.8 M9.4 -8.05 L10.4 -8.75 10.35 -8.95 9.75 -9.2 9.4 -9.15 8.45 -8.5 Q8.25 -8.4 8.5 -8.3 L9.05 -8.05 9.4 -8.05 M8.55 -7.55 L7.8 -7.9 Q7.15 -8.2 7.2 -8.5 7.15 -8.8 7.75 -9.2 L9.1 -10.15 Q9.6 -10.55 10.25 -10.6 L11.55 -10.4 11.95 -10.2 Q12.6 -9.9 12.6 -9.5 12.6 -9.15 12.1 -8.75 L10.7 -7.8 Q10.15 -7.4 9.7 -7.35 L8.55 -7.55 M1.55 -8.25 L2.15 -8.65 3.7 -8.6 2.55 -7.8 3.1 -7.55 1.5 -6.4 0.9 -6.6 -0.25 -5.8 -0.25 -5.7 -0.25 -5.6 0.1 -5.4 -0.45 -4.95 -1.05 -5.2 -1.65 -5.7 -1.05 -6.4 -0.05 -7.1 -0.6 -7.3 1.05 -8.5 1.55 -8.25 M4.65 -6.85 L5.0 -6.7 5.7 -6.0 5.15 -5.2 3.85 -4.3 Q3.25 -3.85 2.8 -3.85 L1.6 -4.0 0.9 -4.4 Q0.25 -4.65 0.3 -5.0 L0.85 -5.65 2.2 -6.6 Q2.65 -7.0 3.3 -7.1 L4.65 -6.85 M2.85 -5.65 L2.45 -5.65 1.55 -5.0 Q1.35 -4.9 1.6 -4.75 L2.15 -4.5 2.55 -4.55 3.45 -5.2 Q3.65 -5.35 3.45 -5.4 L2.85 -5.65 M3.95 -4.2 L5.25 -5.15 Q6.45 -6.0 7.75 -5.4 L8.2 -5.2 8.45 -5.05 10.2 -6.25 Q10.7 -6.0 11.15 -5.8 L5.9 -2.05 5.45 -2.25 5.5 -2.55 4.6 -2.65 4.0 -2.95 Q3.35 -3.2 3.45 -3.55 3.45 -3.85 3.95 -4.2 M4.65 -3.3 L5.3 -3.0 5.65 -3.05 6.6 -3.7 Q6.8 -3.85 6.6 -3.95 L5.95 -4.2 5.65 -4.2 4.65 -3.5 Q4.5 -3.4 4.65 -3.3 M7.85 -3.15 L9.7 -4.45 11.25 -3.75 Q12.55 -3.15 11.35 -2.3 L9.05 -0.6 8.65 -0.8 8.55 -1.15 7.75 -1.2 6.6 -1.7 Q6.45 -1.8 6.45 -2.0 L6.55 -2.3 7.15 -2.7 7.65 -2.8 8.2 -2.8 9.3 -2.25 9.7 -2.25 9.7 -2.5 8.45 -3.1 7.9 -3.15 7.85 -3.15 M8.0 -1.75 L8.4 -1.6 8.75 -1.6 9.15 -1.9 8.75 -1.9 8.25 -2.1 8.1 -2.15 7.9 -2.1 7.85 -2.05 Q7.65 -1.9 8.0 -1.75 M17.65 -7.45 L19.1 -6.85 17.35 -5.55 17.3 -5.55 17.0 -5.85 16.3 -6.15 15.9 -6.15 Q15.8 -6.1 16.05 -5.85 L16.35 -5.6 Q16.95 -5.15 16.35 -4.7 L14.55 -4.75 13.0 -5.5 13.7 -5.95 13.75 -5.95 14.05 -5.65 14.8 -5.35 Q15.05 -5.2 15.15 -5.2 L15.45 -5.25 15.4 -5.4 15.0 -5.8 14.7 -6.15 14.6 -6.6 14.95 -7.05 Q15.8 -7.65 16.65 -7.7 L17.65 -7.45 M11.95 -8.5 Q12.75 -9.1 13.65 -9.1 L14.7 -8.9 16.1 -8.2 14.3 -6.95 14.25 -7.0 13.95 -7.25 13.25 -7.6 12.85 -7.55 Q12.75 -7.45 13.0 -7.3 L13.4 -7.0 Q13.95 -6.55 13.3 -6.1 L11.55 -6.15 9.95 -6.9 10.65 -7.4 10.7 -7.35 11.0 -7.1 11.75 -6.75 12.1 -6.55 12.45 -6.65 12.4 -6.85 11.95 -7.15 11.65 -7.55 11.55 -8.05 11.95 -8.5 M10.7 -0.7 L12.75 -3.1 13.65 -2.65 12.85 -1.65 13.45 -1.4 14.9 -2.05 15.9 -1.6 11.45 0.5 10.45 0.05 11.3 -0.4 10.7 -0.7 M19.8 -4.3 L19.45 -4.0 Q19.3 -3.9 19.5 -3.85 L20.1 -3.55 20.65 -3.7 20.85 -3.85 20.8 -4.0 20.2 -4.3 19.8 -4.3 M18.15 -3.1 L17.15 -3.55 20.65 -6.1 21.1 -5.9 21.1 -5.55 22.2 -5.4 22.4 -5.3 Q23.05 -5.0 23.05 -4.6 23.05 -4.25 22.5 -3.85 L21.85 -3.35 Q21.25 -2.95 20.8 -2.9 L19.6 -3.1 18.8 -3.55 18.15 -3.1 M15.9 -4.15 L19.5 -6.65 20.45 -6.2 16.95 -3.65 15.9 -4.15 M21.0 -6.55 L20.0 -7.05 21.2 -7.9 22.2 -7.45 21.0 -6.55" fill="#cc3366" fill-rule="evenodd" stroke="none"/>
      <path d="M16.5 -10.95 L16.55 -10.95 26.2 -6.25 9.7 6.7 8.7 7.05 6.3 7.85 Q0.9 9.55 -4.7 10.45 L-8.05 10.9 -9.3 10.05 -9.75 9.7 -10.3 9.25 -14.95 5.9 Q-17.4 4.3 -19.8 3.1 -17.1 0.5 -10.3 -3.35 -1.6 -8.3 9.0 -10.1 L16.5 -10.95" fill="url(#gradient0)" fill-rule="evenodd" stroke="none"/>
      <path d="M19.0 -9.7 Q22.15 -7.9 26.55 -6.65 L26.6 -5.75 19.05 -0.35 18.85 -0.35 18.45 -0.2 18.2 0.15 18.15 0.3 -0.75 13.85 -1.4 13.25 Q-5.25 9.35 -6.9 4.05 -9.4 -4.0 -5.7 -11.3 L3.25 -16.2 3.85 -16.05 Q6.6 -15.4 10.45 -13.75 L16.5 -10.95 19.0 -9.7" fill="url(#gradient1)" fill-rule="evenodd" stroke="none"/>
      <path d="M10.95 -8.7 L10.95 -8.75 11.15 -8.8 19.25 -9.65 25.9 -6.4 25.45 -5.65 Q24.4 -4.25 22.25 -2.85 20.8 -1.9 19.15 -1.15 16.8 -0.15 14.05 0.5 L13.85 0.55 10.95 -8.7" fill="url(#gradient2)" fill-rule="evenodd" stroke="none"/>
      <path d="M13.85 0.55 Q8.7 -0.2 4.7 -2.05 0.55 -3.95 -0.05 -5.85 -0.7 -7.8 2.65 -8.6 5.8 -9.4 10.95 -8.7 L13.85 0.55" fill="url(#gradient3)" fill-rule="evenodd" stroke="none"/>
      <path d="M3.9 7.65 L6.2 7.95 -1.9 13.6 -2.4 13.6 -2.9 13.4 -4.05 12.95 -7.25 11.4 -8.05 10.9 -9.1 10.15 -4.2 8.35 -4.0 8.3 3.9 7.65" fill="url(#gradient4)" fill-rule="evenodd" stroke="none"/>
      <path d="M-3.9 9.7 Q-5.45 10.7 -7.25 11.4 L-9.3 10.05 -9.75 9.7 -10.3 9.25 -14.95 5.9 -12.75 5.1 -12.6 5.05 -4.7 4.4 Q-0.45 4.6 -0.85 6.3 -1.25 7.95 -3.9 9.7" fill="url(#gradient5)" fill-rule="evenodd" stroke="none"/>
      <path d="M-11.85 -7.75 L-11.8 -7.95 3.25 -16.2 3.85 -16.05 4.3 -15.95 3.9 -12.35 3.65 -11.1 3.5 -11.2 3.5 -11.25 3.4 -11.25 -11.85 -7.75" fill="url(#gradient6)" fill-rule="evenodd" stroke="none"/>
      <path d="M3.65 -11.1 L4.05 -10.95 Q6.5 -7.8 4.9 -5.1 3.05 -2.0 0.75 -0.65 L-4.25 -0.8 Q-6.85 -2.35 -10.55 -6.15 L-11.9 -7.75 -11.85 -7.75 3.4 -11.25 3.5 -11.2 3.65 -11.1" fill="url(#gradient7)" fill-rule="evenodd" stroke="none"/>
      <path d="M-24.6 -0.95 L-24.65 -1.05 -24.25 -1.0 -18.5 -4.3 -18.45 -4.3 -14.55 -6.4 -13.65 -6.05 Q-8.9 -3.85 -7.55 0.5 -6.15 4.85 -9.0 8.75 L-9.75 9.7 -11.1 11.0 -14.3 8.45 Q-19.8 4.05 -23.35 2.5 L-24.6 -0.95" fill="url(#gradient8)" fill-rule="evenodd" stroke="none"/>
      <path d="M-23.35 2.5 Q-23.7 2.3 -24.0 2.2 -27.05 1.0 -26.8 0.45 L-26.65 0.2 -24.6 -0.95 -23.35 2.5" fill="url(#gradient9)" fill-rule="evenodd" stroke="none"/>
    </g>
    <radialGradient cx="0" cy="0" gradientTransform="matrix(-0.0087, 0.0129, 0.0316, -0.0054, 2.0, 0.25)" gradientUnits="userSpaceOnUse" id="gradient0" r="819.2" spreadMethod="pad">
      <stop offset="0.5176470588235295" stop-color="#291101" stop-opacity="0.44313726"/>
      <stop offset="0.9372549019607843" stop-color="#5c2e01" stop-opacity="0.0"/>
    </radialGradient>
    <radialGradient cx="0" cy="0" gradientTransform="matrix(-0.0336, 0.0077, 0.009, 0.0287, 20.2, -2.1)" gradientUnits="userSpaceOnUse" id="gradient1" r="819.2" spreadMethod="pad">
      <stop offset="0.5176470588235295" stop-color="#432101" stop-opacity="0.7921569"/>
      <stop offset="0.9372549019607843" stop-color="#5c2e01" stop-opacity="0.0"/>
    </radialGradient>
    <radialGradient cx="0" cy="0" gradientTransform="matrix(-0.0153, 0.0035, 0.002, 0.0062, 12.6, -4.15)" gradientUnits="userSpaceOnUse" id="gradient2" r="819.2" spreadMethod="pad">
      <stop offset="0.5176470588235295" stop-color="#1e261e" stop-opacity="0.7921569"/>
      <stop offset="0.9372549019607843" stop-color="#5c2e01" stop-opacity="0.0"/>
    </radialGradient>
    <radialGradient cx="0" cy="0" gradientTransform="matrix(-0.0172, -0.0024, 0.002, 0.0062, 12.65, -4.05)" gradientUnits="userSpaceOnUse" id="gradient3" r="819.2" spreadMethod="pad">
      <stop offset="0.5176470588235295" stop-color="#1e261e" stop-opacity="0.7921569"/>
      <stop offset="0.9372549019607843" stop-color="#5c2e01" stop-opacity="0.0"/>
    </radialGradient>
    <radialGradient cx="0" cy="0" gradientTransform="matrix(-0.012, 0.0027, 0.0015, 0.0049, -2.85, 11.9)" gradientUnits="userSpaceOnUse" id="gradient4" r="819.2" spreadMethod="pad">
      <stop offset="0.5176470588235295" stop-color="#1e261e" stop-opacity="0.7921569"/>
      <stop offset="0.9372549019607843" stop-color="#5c2e01" stop-opacity="0.0"/>
    </radialGradient>
    <radialGradient cx="0" cy="0" gradientTransform="matrix(-0.012, 0.0027, 0.0015, 0.0049, -11.45, 8.7)" gradientUnits="userSpaceOnUse" id="gradient5" r="819.2" spreadMethod="pad">
      <stop offset="0.5176470588235295" stop-color="#1e261e" stop-opacity="0.7921569"/>
      <stop offset="0.9372549019607843" stop-color="#5c2e01" stop-opacity="0.0"/>
    </radialGradient>
    <radialGradient cx="0" cy="0" gradientTransform="matrix(-0.0112, 0.0137, 0.002, 0.0063, -4.3, -9.1)" gradientUnits="userSpaceOnUse" id="gradient6" r="819.2" spreadMethod="pad">
      <stop offset="0.5176470588235295" stop-color="#432101" stop-opacity="0.7921569"/>
      <stop offset="0.9372549019607843" stop-color="#5c2e01" stop-opacity="0.0"/>
    </radialGradient>
    <radialGradient cx="0" cy="0" gradientTransform="matrix(-5.0E-4, 0.0112, 0.0086, 0.0048, -3.9, -9.15)" gradientUnits="userSpaceOnUse" id="gradient7" r="819.2" spreadMethod="pad">
      <stop offset="0.5176470588235295" stop-color="#432101" stop-opacity="0.7921569"/>
      <stop offset="0.9372549019607843" stop-color="#5c2e01" stop-opacity="0.0"/>
    </radialGradient>
    <radialGradient cx="0" cy="0" gradientTransform="matrix(-0.0161, 0.0037, 0.0043, 0.0137, -20.6, 3.45)" gradientUnits="userSpaceOnUse" id="gradient8" r="819.2" spreadMethod="pad">
      <stop offset="0.5176470588235295" stop-color="#291101" stop-opacity="0.7921569"/>
      <stop offset="0.9372549019607843" stop-color="#5c2e01" stop-opacity="0.0"/>
    </radialGradient>
    <radialGradient cx="0" cy="0" gradientTransform="matrix(-0.0155, 0.0035, 0.0042, 0.0132, -27.6, 1.35)" gradientUnits="userSpaceOnUse" id="gradient9" r="819.2" spreadMethod="pad">
      <stop offset="0.5176470588235295" stop-color="#291101" stop-opacity="0.7921569"/>
      <stop offset="0.9372549019607843" stop-color="#5c2e01" stop-opacity="0.0"/>
    </radialGradient>
  </defs>
</svg>
