<?xml version="1.0" encoding="UTF-8" standalone="no"?>
<svg xmlns:xlink="http://www.w3.org/1999/xlink" height="26.85px" width="48.85px" xmlns="http://www.w3.org/2000/svg">
  <g transform="matrix(1.0, 0.0, 0.0, 1.0, 24.45, 13.4)">
    <use height="26.85" transform="matrix(1.0, 0.0, 0.0, 1.0, -24.45, -13.4)" width="48.85" xlink:href="#shape0"/>
  </g>
  <defs>
    <g id="shape0" transform="matrix(1.0, 0.0, 0.0, 1.0, 24.45, 13.4)">
      <path d="M4.9 -8.75 L-14.45 -3.25 4.9 -8.75 M3.35 -9.9 L-15.9 -4.6 3.35 -9.9 M6.1 -7.25 L-12.8 -1.6 6.1 -7.25 M7.55 -5.9 L-11.3 -0.05 7.55 -5.9 M24.3 4.95 L-3.9 13.35 -24.35 -4.9 3.85 -13.3 24.3 4.95 M11.9 -1.3 L-7.1 4.55 11.9 -1.3 M9.1 -4.0 L-10.2 1.5 9.1 -4.0 M10.65 -2.85 L-8.75 2.9 10.65 -2.85 M13.35 0.1 L-5.55 6.15 13.35 0.1" fill="#ddd8d5" fill-rule="evenodd" stroke="none"/>
      <path d="M-11.3 -0.05 L7.55 -5.9 M-12.8 -1.6 L6.1 -7.25 M-15.9 -4.6 L3.35 -9.9 M-14.45 -3.25 L4.9 -8.75 M-5.55 6.15 L13.35 0.1 M-8.75 2.9 L10.65 -2.85 M-10.2 1.5 L9.1 -4.0 M-7.1 4.55 L11.9 -1.3" fill="none" stroke="#5a5856" stroke-linecap="round" stroke-linejoin="round" stroke-opacity="0.49803922" stroke-width="0.5"/>
      <path d="M24.3 4.95 L-3.9 13.35 -24.35 -4.9 3.85 -13.3 24.3 4.95" fill="none" stroke="#5a5856" stroke-linecap="round" stroke-linejoin="round" stroke-opacity="0.49803922" stroke-width="0.25"/>
      <path d="M-20.45 -1.4 Q-22.4 -3.35 -23.35 -5.15 L-4.7 -10.75 -2.85 -10.2 Q7.5 -7.15 15.05 -1.1 20.0 2.85 22.15 5.6 L2.65 11.4 Q-1.75 10.0 -5.8 8.15 L-8.05 7.05 Q-11.0 5.5 -13.8 3.75 L-18.35 0.5 -20.45 -1.4" fill="url(#gradient0)" fill-rule="evenodd" stroke="none"/>
      <path d="M-23.35 -5.15 L-24.35 -4.9 -20.45 -1.4 -18.35 0.5 -3.9 13.35 2.65 11.4 22.15 5.6 24.3 4.95 3.85 -13.3 -4.7 -10.75 -23.35 -5.15 Z" fill="none" stroke="#5a5856" stroke-linecap="round" stroke-linejoin="round" stroke-opacity="0.49803922" stroke-width="0.25"/>
      <path d="M3.85 -13.3 L8.5 -9.15 Q9.55 -1.8 4.7 5.55 1.8 9.75 -2.25 12.85 L-2.25 12.9 -3.85 13.35 -19.35 -0.4 -20.1 -1.25 -20.25 -1.25 -21.1 -1.95 -20.85 -1.95 -21.2 -2.1 -24.3 -4.9 3.85 -13.3" fill="url(#gradient1)" fill-rule="evenodd" stroke="none"/>
      <path d="M-15.75 -0.45 L-15.95 -0.55 Q-20.55 -2.2 -23.35 -4.85 L-23.6 -5.1 -9.9 -9.15 -15.75 -0.45" fill="url(#gradient2)" fill-rule="evenodd" stroke="none"/>
      <path d="M-9.9 -9.15 L-9.8 -9.4 -9.2 -9.4 Q-4.05 -9.4 -1.2 -8.3 2.0 -7.05 0.75 -5.2 -0.5 -3.35 -5.4 -1.95 -10.15 -0.6 -15.75 -0.4 L-15.75 -0.45 -9.9 -9.15" fill="url(#gradient3)" fill-rule="evenodd" stroke="none"/>
      <path d="M0.5 9.55 L3.55 11.15 -3.85 13.35 -10.05 7.9 -7.7 7.9 Q-3.25 8.2 0.35 9.45 L0.5 9.55" fill="url(#gradient4)" fill-rule="evenodd" stroke="none"/>
      <path d="M4.1 11.0 L3.2 10.25 Q1.0 8.2 1.1 6.45 1.25 4.7 5.7 5.05 10.15 5.3 13.7 6.6 L13.9 6.65 15.55 7.55 4.1 11.0" fill="url(#gradient5)" fill-rule="evenodd" stroke="none"/>
      <path d="M-1.45 -10.9 L-1.35 -11.7 3.85 -13.3 11.5 -6.45 -1.1 -11.05 -1.2 -11.05 -1.25 -11.0 -1.45 -10.9" fill="url(#gradient6)" fill-rule="evenodd" stroke="none"/>
      <path d="M11.5 -6.45 L13.6 -5.7 13.7 -5.7 13.0 -5.15 11.75 -4.25 Q6.65 -0.85 3.5 0.35 0.25 1.55 -1.75 -0.05 -3.7 -1.7 -4.65 -5.05 -5.5 -7.9 -1.9 -10.8 L-1.45 -10.9 -1.25 -11.0 -1.1 -11.05 11.5 -6.45" fill="url(#gradient7)" fill-rule="evenodd" stroke="none"/>
      <path d="M22.65 5.5 L23.5 4.25 24.35 5.0 22.65 5.5" fill="url(#gradient8)" fill-rule="evenodd" stroke="none"/>
      <path d="M22.65 5.5 L5.4 10.6 5.35 10.55 Q3.65 6.3 6.45 2.05 9.25 -2.05 14.65 -3.65 L23.5 4.25 22.65 5.5" fill="url(#gradient9)" fill-rule="evenodd" stroke="none"/>
      <path d="M2.65 -10.45 Q2.1 -10.45 2.15 -11.0 2.15 -11.55 2.65 -11.55 3.05 -11.55 3.15 -11.0 3.15 -10.45 2.65 -10.45 M3.75 -5.45 Q4.65 -5.45 5.85 -4.0 5.85 -3.5 5.45 -3.5 4.25 -3.5 3.25 -5.0 3.25 -5.45 3.75 -5.45 M1.1 -1.8 Q1.0 -1.7 0.75 -1.7 -0.45 -1.7 -2.35 -3.15 L-1.7 -3.6 Q-0.35 -3.6 1.2 -2.2 L1.1 -1.8 M14.6 -1.3 Q11.8 -1.3 11.8 -2.05 11.8 -2.5 12.6 -2.5 15.1 -2.5 15.1 -1.8 15.1 -1.3 14.6 -1.3 M16.05 4.9 L14.8 6.25 14.25 5.75 14.75 5.0 15.6 4.4 Q16.05 4.4 16.05 4.9 M11.0 5.75 L10.35 5.2 Q10.35 4.75 11.0 4.75 11.65 4.75 11.7 5.25 11.7 5.75 11.0 5.75 M6.7 4.9 L7.9 6.1 Q7.9 6.6 7.4 6.6 6.85 6.6 6.5 6.1 L3.15 7.1 2.65 6.55 Q5.85 5.35 6.2 5.35 L6.25 5.35 6.7 4.9 M0.0 1.85 Q-1.3 1.85 -2.1 0.75 -2.1 0.3 -1.6 0.3 -0.4 0.3 0.5 1.35 0.5 1.85 0.0 1.85 M4.4 2.1 L4.3 2.95 3.9 3.05 3.25 2.35 Q3.25 1.25 3.9 1.25 4.4 1.25 4.4 2.1 M1.4 9.8 L0.25 10.25 Q-0.25 10.25 -0.25 9.65 -0.25 8.7 1.8 8.7 2.25 8.7 2.25 9.15 L1.4 9.8 M-16.6 -3.55 Q-17.05 -3.15 -17.3 -3.15 -17.8 -3.15 -17.8 -3.65 L-17.4 -4.2 Q-16.95 -4.6 -16.6 -4.6 L-16.1 -4.15 -16.6 -3.55 M-18.65 -1.05 Q-19.35 -1.05 -19.6 -2.45 -19.6 -3.05 -19.1 -3.05 L-18.2 -1.55 Q-18.2 -1.05 -18.65 -1.05 M-16.55 -0.1 Q-16.55 0.25 -16.95 0.4 -17.55 0.4 -17.9 -0.8 -17.9 -1.35 -17.4 -1.35 L-16.55 -0.1 M-11.05 -4.15 Q-10.0 -4.15 -9.4 -3.6 L-9.0 -3.1 Q-9.0 -2.65 -9.5 -2.65 L-11.7 -3.0 Q-12.2 -3.0 -12.2 -3.5 -12.2 -4.15 -11.05 -4.15 M-13.15 -1.1 L-12.35 0.0 Q-12.35 0.5 -12.8 0.5 -13.5 0.5 -13.65 -0.55 -13.65 -1.1 -13.15 -1.1 M-0.6 -7.05 Q-0.6 -6.45 -1.1 -6.45 -1.6 -6.45 -1.7 -6.95 -1.7 -7.55 -1.1 -7.55 -0.7 -7.55 -0.6 -7.05 M-6.95 -3.4 Q-7.35 -3.4 -7.45 -3.9 -7.45 -4.6 -5.95 -4.6 L-5.45 -4.15 Q-5.45 -3.4 -6.95 -3.4 M-5.1 1.85 Q-4.65 1.85 -4.65 2.3 -4.75 3.05 -5.85 3.05 -6.35 3.05 -6.35 2.55 -6.35 1.85 -5.1 1.85 M-9.6 4.4 Q-10.2 4.4 -10.25 3.85 -10.25 3.4 -9.6 3.4 L-9.0 3.9 Q-9.0 4.4 -9.6 4.4 M-1.85 8.85 L-1.85 9.35 Q-1.85 10.65 -2.55 10.65 -3.05 10.65 -3.05 10.1 L-2.8 9.45 -3.05 8.85 Q-3.05 8.35 -2.4 8.35 -1.95 8.35 -1.85 8.85 M-3.85 8.2 Q-5.3 8.2 -6.05 6.65 -6.2 6.15 -5.55 6.15 -3.4 7.65 -3.4 7.7 -3.4 8.2 -3.85 8.2 M-5.05 11.65 Q-5.75 11.65 -5.7 11.1 -5.7 10.5 -4.95 10.5 L-4.45 11.05 Q-4.45 11.65 -5.05 11.65" fill="#4a321b" fill-opacity="0.6431373" fill-rule="evenodd" stroke="none"/>
    </g>
    <radialGradient cx="0" cy="0" gradientTransform="matrix(0.005, 0.014, -0.0311, -0.0092, 1.1, 1.0)" gradientUnits="userSpaceOnUse" id="gradient0" r="819.2" spreadMethod="pad">
      <stop offset="0.5176470588235295" stop-color="#291101" stop-opacity="0.44313726"/>
      <stop offset="0.9372549019607843" stop-color="#5c2e01" stop-opacity="0.0"/>
    </radialGradient>
    <radialGradient cx="0" cy="0" gradientTransform="matrix(0.0325, 0.0117, -0.0185, 0.0277, -21.55, -3.9)" gradientUnits="userSpaceOnUse" id="gradient1" r="819.2" spreadMethod="pad">
      <stop offset="0.5176470588235295" stop-color="#432101" stop-opacity="0.7921569"/>
      <stop offset="0.9372549019607843" stop-color="#5c2e01" stop-opacity="0.0"/>
    </radialGradient>
    <radialGradient cx="0" cy="0" gradientTransform="matrix(0.0148, 0.0053, -0.004, 0.006, -12.95, -5.0)" gradientUnits="userSpaceOnUse" id="gradient2" r="819.2" spreadMethod="pad">
      <stop offset="0.5176470588235295" stop-color="#1e261e" stop-opacity="0.7921569"/>
      <stop offset="0.9372549019607843" stop-color="#5c2e01" stop-opacity="0.0"/>
    </radialGradient>
    <radialGradient cx="0" cy="0" gradientTransform="matrix(0.0186, -4.0E-4, -0.004, 0.006, -13.05, -4.9)" gradientUnits="userSpaceOnUse" id="gradient3" r="819.2" spreadMethod="pad">
      <stop offset="0.5176470588235295" stop-color="#1e261e" stop-opacity="0.7921569"/>
      <stop offset="0.9372549019607843" stop-color="#5c2e01" stop-opacity="0.0"/>
    </radialGradient>
    <radialGradient cx="0" cy="0" gradientTransform="matrix(0.0116, 0.0042, -0.0032, 0.0047, -2.05, 12.95)" gradientUnits="userSpaceOnUse" id="gradient4" r="819.2" spreadMethod="pad">
      <stop offset="0.5176470588235295" stop-color="#1e261e" stop-opacity="0.7921569"/>
      <stop offset="0.9372549019607843" stop-color="#5c2e01" stop-opacity="0.0"/>
    </radialGradient>
    <radialGradient cx="0" cy="0" gradientTransform="matrix(0.0116, 0.0042, -0.0032, 0.0047, 11.4, 10.15)" gradientUnits="userSpaceOnUse" id="gradient5" r="819.2" spreadMethod="pad">
      <stop offset="0.5176470588235295" stop-color="#1e261e" stop-opacity="0.7921569"/>
      <stop offset="0.9372549019607843" stop-color="#5c2e01" stop-opacity="0.0"/>
    </radialGradient>
    <radialGradient cx="0" cy="0" gradientTransform="matrix(0.0073, 0.0151, -0.0041, 0.0061, 6.2, -7.95)" gradientUnits="userSpaceOnUse" id="gradient6" r="819.2" spreadMethod="pad">
      <stop offset="0.5176470588235295" stop-color="#432101" stop-opacity="0.7921569"/>
      <stop offset="0.9372549019607843" stop-color="#5c2e01" stop-opacity="0.0"/>
    </radialGradient>
    <radialGradient cx="0" cy="0" gradientTransform="matrix(-0.0031, 0.0113, -0.0105, 0.0038, 5.75, -8.1)" gradientUnits="userSpaceOnUse" id="gradient7" r="819.2" spreadMethod="pad">
      <stop offset="0.5176470588235295" stop-color="#432101" stop-opacity="0.7921569"/>
      <stop offset="0.9372549019607843" stop-color="#5c2e01" stop-opacity="0.0"/>
    </radialGradient>
    <radialGradient cx="0" cy="0" gradientTransform="matrix(0.015, 0.0054, -0.0086, 0.0128, 27.05, 5.3)" gradientUnits="userSpaceOnUse" id="gradient8" r="819.2" spreadMethod="pad">
      <stop offset="0.5176470588235295" stop-color="#291101" stop-opacity="0.7921569"/>
      <stop offset="0.9372549019607843" stop-color="#5c2e01" stop-opacity="0.0"/>
    </radialGradient>
    <radialGradient cx="0" cy="0" gradientTransform="matrix(0.0155, 0.0056, -0.0089, 0.0132, 19.1, 6.6)" gradientUnits="userSpaceOnUse" id="gradient9" r="819.2" spreadMethod="pad">
      <stop offset="0.5176470588235295" stop-color="#291101" stop-opacity="0.7921569"/>
      <stop offset="0.9372549019607843" stop-color="#5c2e01" stop-opacity="0.0"/>
    </radialGradient>
  </defs>
</svg>
