<?xml version="1.0" encoding="UTF-8" standalone="no"?>
<svg xmlns:xlink="http://www.w3.org/1999/xlink" height="40.15px" width="65.1px" xmlns="http://www.w3.org/2000/svg">
  <g transform="matrix(1.0, 0.0, 0.0, 1.0, 32.45, 20.2)">
    <use height="40.15" transform="matrix(1.0, 0.0, 0.0, 1.0, -32.45, -20.2)" width="65.1" xlink:href="#shape0"/>
  </g>
  <defs>
    <g id="shape0" transform="matrix(1.0, 0.0, 0.0, 1.0, 32.45, 20.2)">
      <path d="M22.8 -0.75 L32.4 -13.6 32.4 -7.1 31.65 -6.15 23.95 4.25 23.4 5.0 23.95 4.25 31.65 -6.15 31.7 5.3 29.95 7.8 29.95 -1.05 23.65 7.75 23.65 16.05 21.15 19.7 21.05 8.25 23.4 5.0 22.8 5.75 22.8 -0.75" fill="#765f3d" fill-rule="evenodd" stroke="none"/>
      <path d="M32.4 -13.6 L22.8 -0.75 -32.2 -10.6 -15.85 -19.65 32.4 -13.6" fill="#76643d" fill-rule="evenodd" stroke="none"/>
      <path d="M-12.2 -1.55 L21.0 5.4 21.05 8.25 -12.2 -1.55" fill="#4f3f28" fill-rule="evenodd" stroke="none"/>
      <path d="M22.8 -0.75 L22.8 5.75 23.4 5.0 21.05 8.25 21.15 19.7 -30.5 5.3 -31.1 -5.5 -32.2 -5.75 -32.2 -10.6 22.8 -0.75 M22.8 5.75 L21.0 5.4 22.8 5.75 M21.05 8.25 L21.0 5.4 -12.2 -1.55 21.05 8.25 M-12.2 -1.55 L-31.1 -5.5 -12.2 -1.55" fill="#655134" fill-rule="evenodd" stroke="none"/>
      <path d="M23.65 16.05 L23.65 7.75 29.95 -1.05 29.95 7.8 23.65 16.05" fill="#e2d7c7" fill-rule="evenodd" stroke="none"/>
      <path d="M32.4 -13.6 L22.8 -0.75 22.8 5.75 23.4 5.0 23.95 4.25 31.65 -6.15 32.4 -7.1 32.4 -13.6 -15.85 -19.65 -32.2 -10.6 22.8 -0.75 M21.05 8.25 L21.15 19.7 23.65 16.05 29.95 7.8 31.7 5.3 31.65 -6.15 M21.0 5.4 L22.8 5.75 M21.05 8.25 L21.0 5.4 -12.2 -1.55 M-31.1 -5.5 L-12.2 -1.55 M-32.2 -10.6 L-32.2 -5.75 -31.1 -5.5 -30.5 5.3 21.15 19.7" fill="none" stroke="#4f3f28" stroke-linecap="round" stroke-linejoin="round" stroke-width="0.5"/>
      <path d="M24.5 9.6 L24.5 8.55 24.95 8.0 25.1 7.55 25.3 6.95 25.4 6.35 25.9 5.7 25.9 11.1 25.15 12.7 25.15 8.65 24.5 9.6 M27.15 5.45 L27.0 5.35 26.9 5.75 26.85 6.6 26.85 8.15 26.9 8.85 27.0 8.8 27.15 8.4 27.15 7.65 27.15 6.05 27.15 5.45 M27.35 4.3 Q27.35 4.15 27.45 4.25 L27.5 4.3 27.65 4.9 27.65 6.05 27.65 7.25 27.5 8.15 27.45 8.95 27.3 9.7 26.85 10.15 26.45 10.2 26.3 9.6 26.25 8.4 26.3 7.05 26.45 6.0 26.7 5.2 27.0 4.55 27.35 4.3" fill="#000000" fill-opacity="0.50980395" fill-rule="evenodd" stroke="none"/>
      <path d="M17.55 -14.05 Q25.6 -13.55 31.1 -12.25 L27.2 -7.05 Q21.7 -6.75 14.95 -7.2 6.5 -7.75 0.95 -9.1 -4.65 -10.5 -4.1 -11.9 -3.6 -13.35 2.8 -13.95 9.15 -14.6 17.55 -14.05" fill="url(#gradient0)" fill-rule="evenodd" stroke="none"/>
      <path d="M17.4 -15.4 L14.6 -14.4 Q13.25 -13.35 8.1 -12.85 1.7 -12.25 -6.7 -12.75 -15.1 -13.3 -20.65 -14.7 L-22.95 -15.35 -16.0 -19.7 -11.9 -19.1 -17.45 -20.2 -1.35 -17.95 4.95 -16.9 17.4 -15.4" fill="url(#gradient1)" fill-rule="evenodd" stroke="none"/>
      <path d="M9.4 -15.4 Q11.4 -14.25 5.7 -12.95 -0.05 -11.55 -10.2 -10.8 L-20.25 -10.3 -20.95 -10.3 Q-24.95 -10.25 -28.8 -10.35 L-31.05 -10.45 -31.75 -11.0 -22.05 -16.2 -19.7 -16.4 Q-9.5 -17.15 -1.0 -16.85 7.5 -16.55 9.4 -15.4" fill="url(#gradient2)" fill-rule="evenodd" stroke="none"/>
      <path d="M-23.1 -9.35 Q-28.35 -13.8 2.85 -12.4 L5.2 -12.3 Q13.55 -11.75 19.05 -9.9 24.4 -8.05 23.6 -5.95 22.8 -3.85 16.35 -2.75 L14.15 -2.45 -23.1 -9.35" fill="url(#gradient3)" fill-rule="evenodd" stroke="none"/>
      <path d="M14.15 -2.45 Q14.05 0.1 11.7 3.1 L-24.3 -3.55 Q-26.05 -7.3 -23.1 -9.35 L14.15 -2.45" fill="url(#gradient4)" fill-rule="evenodd" stroke="none"/>
      <path d="M31.55 -5.75 L31.8 -5.55 31.8 5.7 21.05 19.8 -5.75 12.3 -5.85 10.1 Q-5.85 4.6 -3.2 0.1 L22.9 5.95 31.55 -5.75" fill="url(#gradient5)" fill-rule="evenodd" stroke="none"/>
      <path d="M-3.2 0.1 Q-1.65 -2.5 0.75 -4.75 7.4 -10.9 21.65 -13.1 35.9 -15.35 31.55 -5.75 L22.9 5.95 -3.2 0.1" fill="url(#gradient6)" fill-rule="evenodd" stroke="none"/>
      <path d="M-23.55 -0.4 Q-17.4 2.0 -13.05 5.5 -8.85 8.85 -8.7 11.25 L-30.55 5.3 -30.95 -2.6 Q-27.65 -2.05 -23.55 -0.4" fill="url(#gradient7)" fill-rule="evenodd" stroke="none"/>
      <path d="M13.45 -12.4 L13.55 -12.25 9.25 -11.9 8.7 -11.95 8.6 -12.15 11.25 -12.45 13.45 -12.4 M0.0 -6.65 L-0.65 -6.85 Q-0.2 -7.45 1.1 -7.45 L1.85 -7.35 1.95 -7.2 0.0 -6.65 M4.0 -4.4 L7.75 -5.85 8.2 -5.8 8.3 -5.6 Q7.75 -4.15 4.75 -4.15 L4.05 -4.35 4.0 -4.4 M20.95 11.3 Q21.1 11.0 21.6 11.0 22.3 11.0 22.85 12.75 22.85 13.05 22.2 13.05 21.55 13.05 21.25 12.35 L20.95 11.3 M24.45 10.45 L23.8 10.1 24.4 9.0 Q25.05 8.1 25.5 8.1 25.9 8.1 26.15 8.35 25.3 10.45 24.45 10.45 M22.85 15.8 Q22.35 15.8 21.15 15.05 20.45 14.75 21.85 14.75 22.7 14.75 23.5 15.55 L22.85 15.8 M20.4 12.7 Q20.0 12.95 20.0 13.55 L19.95 13.75 19.85 13.8 Q20.25 13.95 20.1 14.65 20.1 16.85 17.45 16.85 L16.8 16.8 16.7 16.65 Q18.8 16.6 18.8 15.2 18.8 14.0 19.25 13.75 L18.65 13.3 Q18.65 12.45 19.75 12.45 L20.3 12.5 20.4 12.7 M15.15 15.05 L15.65 16.05 Q15.4 16.35 15.0 16.35 14.35 16.35 13.8 15.6 L13.05 14.65 13.7 14.35 Q14.65 14.35 15.15 15.05 M-11.6 -14.6 Q-11.4 -14.3 -12.25 -14.3 L-14.7 -14.65 -13.45 -14.95 -11.6 -14.6 M-13.95 -13.9 Q-14.3 -13.55 -13.7 -12.75 -14.0 -12.45 -14.35 -12.45 -15.3 -12.45 -15.35 -13.55 -15.35 -14.15 -14.6 -14.15 L-13.95 -13.9 M-24.15 5.4 L-25.25 4.95 Q-25.6 4.8 -24.55 4.65 -23.65 4.65 -23.5 5.1 L-24.15 5.4 M-26.65 4.65 Q-27.6 4.65 -28.25 2.9 -28.25 2.55 -27.6 2.55 -27.35 2.55 -26.0 4.35 L-26.65 4.65" fill="#382d1d" fill-rule="evenodd" stroke="none"/>
      <path d="M16.25 -12.95 Q17.2 -12.95 21.2 -10.55 20.9 -10.25 20.45 -10.25 19.1 -10.25 15.35 -12.65 L16.25 -12.95 M3.85 -10.5 Q3.0 -10.5 2.7 -11.25 3.0 -11.55 3.55 -11.55 L4.6 -10.75 3.85 -10.5 M4.75 -3.3 L7.25 -3.05 7.75 -3.15 Q8.25 -3.15 8.5 -2.65 L9.9 -1.8 Q8.45 -0.7 5.85 -0.7 L5.4 -0.7 5.2 -0.7 5.15 -0.7 4.2 -0.75 4.5 -0.6 4.4 -0.45 5.05 -0.05 4.3 0.3 3.65 0.0 3.6 0.0 Q2.85 0.0 1.3 -0.95 L1.1 -0.95 Q0.15 -0.95 0.4 -1.45 L0.4 -1.7 -0.4 -1.5 -3.7 -1.95 -3.75 -2.1 -2.8 -2.35 0.35 -1.9 0.4 -1.8 Q0.55 -3.55 1.8 -3.55 2.55 -3.55 3.2 -3.15 L4.75 -3.3 M2.2 -2.75 L2.15 -2.8 2.15 -2.75 2.2 -2.75 M8.45 -3.3 L10.0 -3.55 10.5 -3.5 Q10.5 -4.7 11.65 -4.75 L12.15 -4.7 12.25 -4.5 Q12.25 -3.15 11.25 -3.15 L11.0 -3.15 9.85 -3.0 8.55 -3.15 8.45 -3.3 M14.0 -11.45 Q15.1 -11.45 16.5 -5.05 16.2 -4.75 15.75 -4.75 14.3 -4.75 13.6 -9.6 L12.6 -9.95 Q12.6 -11.45 14.0 -11.45 M21.0 -0.15 Q20.4 3.5 19.15 3.5 L19.1 3.5 19.05 3.6 20.9 4.4 20.15 4.7 Q16.55 4.7 13.0 0.5 L13.85 0.25 Q14.35 0.25 16.0 1.85 L17.6 0.7 Q19.7 -0.6 20.4 -0.6 21.0 -0.6 21.0 -0.15 M28.1 -3.0 Q27.4 -3.0 27.4 -3.45 27.4 -4.45 28.35 -4.45 29.15 -4.45 28.95 -4.0 28.95 -3.0 28.1 -3.0 M28.6 -5.95 Q28.6 -8.25 30.1 -8.25 30.7 -8.25 30.7 -7.8 L30.3 -6.6 Q29.8 -5.6 29.3 -5.6 L28.65 -5.7 28.6 -5.95 M18.55 2.8 L18.4 2.9 18.5 2.9 18.55 2.8 M16.95 2.6 L18.2 1.55 Q17.0 2.3 16.55 2.35 L16.95 2.6 M11.25 7.35 L10.6 7.3 10.5 7.1 Q10.5 6.25 11.4 6.25 12.15 6.25 12.15 6.75 12.15 7.35 11.25 7.35 M16.0 9.95 Q16.85 9.95 18.8 12.75 L18.05 13.0 Q17.35 13.0 16.4 11.95 15.5 11.0 15.3 10.2 15.45 9.95 16.0 9.95 M19.55 8.2 L18.75 8.5 Q18.1 8.5 18.0 8.2 L18.0 7.9 Q18.0 7.35 18.7 7.35 19.55 7.35 19.55 7.65 L19.55 8.2 M9.8 6.1 L10.25 7.0 Q8.15 8.4 5.95 8.4 4.1 8.4 2.5 7.35 3.1 6.85 5.05 6.3 L7.15 5.8 9.8 6.1 M4.05 11.7 Q5.65 11.7 7.1 12.8 L6.25 13.15 Q5.45 13.15 3.35 12.1 3.55 11.7 4.05 11.7 M0.65 7.6 Q1.2 7.6 1.2 7.9 1.2 8.8 0.35 8.8 -0.4 8.8 -0.4 8.45 -0.4 7.8 0.2 7.65 -0.95 7.6 -0.95 6.6 -0.95 6.25 -0.2 6.25 0.4 6.25 1.1 7.3 L0.65 7.6 M-21.65 -10.7 Q-21.95 -10.3 -22.5 -10.3 L-23.15 -10.4 -23.25 -10.6 -22.25 -10.9 -21.75 -10.85 -21.65 -10.7 M-26.55 -5.8 Q-26.35 -6.2 -25.65 -6.2 L-25.05 -5.95 Q-25.2 -5.55 -25.8 -5.55 -26.4 -5.55 -26.55 -5.8 M-29.2 -1.2 Q-30.0 -1.2 -30.4 -2.2 L-29.55 -2.45 -28.5 -1.45 Q-28.5 -1.2 -29.2 -1.2 M-23.05 -4.9 L-24.6 -5.1 -24.7 -5.25 -23.8 -5.55 -22.3 -5.15 Q-22.55 -4.9 -23.05 -4.9 M-6.6 -16.85 L-6.45 -16.65 Q-9.0 -15.5 -9.05 -15.5 L-9.8 -15.6 -9.85 -15.75 Q-7.5 -16.95 -7.2 -16.95 L-6.6 -16.85 M-5.35 -15.35 L-4.35 -15.6 -1.55 -15.05 Q0.35 -14.4 0.35 -13.6 0.35 -13.3 -0.4 -13.3 -1.55 -14.35 -2.6 -14.65 L-5.25 -15.2 -5.35 -15.35 M-10.7 -9.55 Q-10.95 -9.3 -11.45 -9.3 -12.5 -9.3 -12.5 -10.3 -12.5 -10.65 -11.5 -10.65 L-11.0 -10.25 -10.7 -9.55 M-15.0 -8.7 Q-16.2 -8.7 -18.15 -10.3 L-20.75 -12.6 -19.85 -12.9 -14.25 -9.0 Q-14.55 -8.7 -15.0 -8.7 M-18.85 -5.15 L-18.1 -5.45 Q-17.15 -5.45 -16.6 -4.9 -16.75 -4.6 -17.35 -4.6 -18.0 -4.6 -18.85 -5.15 M-11.05 -3.55 L-10.95 -3.7 -11.35 -4.0 Q-10.05 -5.5 -8.05 -5.5 L-5.6 -5.25 -5.1 -4.4 Q-6.0 -3.35 -7.2 -3.05 L-7.1 -2.95 Q-7.4 -2.65 -7.85 -2.65 L-11.0 -3.4 -11.05 -3.55 M-7.55 -11.45 Q-6.2 -11.45 -5.7 -10.65 -6.05 -10.3 -6.45 -10.3 -7.35 -10.3 -8.3 -11.15 L-7.55 -11.45 M-6.05 4.1 L-5.45 4.3 Q-5.65 4.7 -6.1 4.7 L-6.85 4.65 -6.95 4.35 Q-6.95 4.1 -6.05 4.1 M-7.75 9.0 Q-8.5 9.0 -9.5 6.95 -9.5 6.7 -8.6 6.7 -7.75 6.7 -7.0 8.75 L-7.75 9.0 M-0.45 10.25 Q-0.45 10.75 -1.2 10.75 -2.0 10.75 -3.4 8.25 -3.4 7.9 -2.7 7.9 L-0.45 10.25 M-12.25 1.4 Q-10.75 1.4 -9.15 2.5 -10.45 3.6 -12.25 3.6 -14.15 3.6 -15.4 2.5 -13.45 1.4 -12.25 1.4 M-19.1 2.15 Q-21.8 2.15 -20.8 0.4 -23.6 -1.1 -21.7 -1.1 -18.9 -1.1 -16.15 1.05 -17.5 2.15 -19.1 2.15 M-13.75 6.8 Q-17.55 6.8 -22.5 3.5 -22.2 3.2 -21.6 3.2 -16.5 5.7 -12.8 6.45 -13.05 6.8 -13.75 6.8" fill="#4a321b" fill-opacity="0.6431373" fill-rule="evenodd" stroke="none"/>
    </g>
    <radialGradient cx="0" cy="0" gradientTransform="matrix(-0.0016, 0.0043, -0.0255, -0.0016, 16.55, -10.65)" gradientUnits="userSpaceOnUse" id="gradient0" r="819.2" spreadMethod="pad">
      <stop offset="0.5176470588235295" stop-color="#432101" stop-opacity="0.7921569"/>
      <stop offset="0.9372549019607843" stop-color="#5c2e01" stop-opacity="0.0"/>
    </radialGradient>
    <radialGradient cx="0" cy="0" gradientTransform="matrix(-0.0016, 0.0043, -0.0255, -0.0016, -5.05, -16.3)" gradientUnits="userSpaceOnUse" id="gradient1" r="819.2" spreadMethod="pad">
      <stop offset="0.5176470588235295" stop-color="#432101" stop-opacity="0.7921569"/>
      <stop offset="0.9372549019607843" stop-color="#5c2e01" stop-opacity="0.0"/>
    </radialGradient>
    <radialGradient cx="0" cy="0" gradientTransform="matrix(0.0061, 0.0036, -0.0312, 0.0023, -14.9, -13.6)" gradientUnits="userSpaceOnUse" id="gradient2" r="819.2" spreadMethod="pad">
      <stop offset="0.5176470588235295" stop-color="#291101" stop-opacity="0.7921569"/>
      <stop offset="0.9372549019607843" stop-color="#5c2e01" stop-opacity="0.0"/>
    </radialGradient>
    <radialGradient cx="0" cy="0" gradientTransform="matrix(-0.0024, 0.0062, -0.0251, -0.0016, 3.2, -7.3)" gradientUnits="userSpaceOnUse" id="gradient3" r="819.2" spreadMethod="pad">
      <stop offset="0.5176470588235295" stop-color="#1e261e" stop-opacity="0.7921569"/>
      <stop offset="0.9372549019607843" stop-color="#5c2e01" stop-opacity="0.0"/>
    </radialGradient>
    <radialGradient cx="0" cy="0" gradientTransform="matrix(0.0266, 0.0, 0.0, 0.0266, -5.05, -11.95)" gradientUnits="userSpaceOnUse" id="gradient4" r="819.2" spreadMethod="pad">
      <stop offset="0.5176470588235295" stop-color="#1e261e" stop-opacity="0.7921569"/>
      <stop offset="0.9372549019607843" stop-color="#5c2e01" stop-opacity="0.0"/>
    </radialGradient>
    <radialGradient cx="0" cy="0" gradientTransform="matrix(0.0281, 0.0, 0.0, 0.0281, 16.75, 10.1)" gradientUnits="userSpaceOnUse" id="gradient5" r="819.2" spreadMethod="pad">
      <stop offset="0.5176470588235295" stop-color="#291101" stop-opacity="0.7921569"/>
      <stop offset="0.9372549019607843" stop-color="#5c2e01" stop-opacity="0.0"/>
    </radialGradient>
    <radialGradient cx="0" cy="0" gradientTransform="matrix(0.0281, 0.0, 0.0, 0.0281, 24.35, 12.0)" gradientUnits="userSpaceOnUse" id="gradient6" r="819.2" spreadMethod="pad">
      <stop offset="0.5176470588235295" stop-color="#291101" stop-opacity="0.7921569"/>
      <stop offset="0.9372549019607843" stop-color="#5c2e01" stop-opacity="0.0"/>
    </radialGradient>
    <radialGradient cx="0" cy="0" gradientTransform="matrix(0.0182, 0.0073, 0.0, 0.0074, -23.55, 5.5)" gradientUnits="userSpaceOnUse" id="gradient7" r="819.2" spreadMethod="pad">
      <stop offset="0.5176470588235295" stop-color="#432101" stop-opacity="0.7921569"/>
      <stop offset="0.9372549019607843" stop-color="#5c2e01" stop-opacity="0.0"/>
    </radialGradient>
  </defs>
</svg>
