<?xml version="1.0" encoding="UTF-8" standalone="no"?>
<svg xmlns:xlink="http://www.w3.org/1999/xlink" height="32.9px" width="53.95px" xmlns="http://www.w3.org/2000/svg">
  <g transform="matrix(1.0, 0.0, 0.0, 1.0, 27.05, 16.45)">
    <use height="32.9" transform="matrix(1.0, 0.0, 0.0, 1.0, -27.05, -16.45)" width="53.95" xlink:href="#shape0"/>
  </g>
  <defs>
    <g id="shape0" transform="matrix(1.0, 0.0, 0.0, 1.0, 27.05, 16.45)">
      <path d="M1.1 -9.55 L0.8 -9.4 Q0.65 -9.3 0.85 -9.15 L1.2 -9.15 1.6 -9.3 1.8 -9.5 1.9 -9.7 1.75 -9.7 1.45 -9.7 1.1 -9.55 M0.45 -10.5 L0.3 -10.55 -0.05 -10.5 -0.35 -10.4 -0.55 -10.25 -0.6 -10.0 -0.25 -10.0 0.05 -10.15 0.3 -10.35 0.45 -10.5 M0.95 -10.25 L0.95 -10.2 0.6 -10.2 0.25 -10.05 -0.05 -9.8 Q-0.25 -9.75 0.0 -9.6 L0.1 -9.6 0.45 -9.65 0.85 -9.8 1.0 -10.0 0.95 -10.25 M-2.55 -13.05 Q5.85 -10.5 12.95 -5.7 16.15 -3.4 19.9 -1.95 L-1.2 12.8 -1.6 13.05 -2.4 13.6 Q-7.25 11.85 -10.3 9.25 -18.5 2.85 -26.65 0.2 L-2.55 -13.05 M3.45 6.6 L15.85 -2.1 4.35 -8.6 -7.45 -0.55 -10.75 1.7 -0.2 9.1 3.45 6.6 M-10.2 -4.75 L-10.15 -4.55 -9.8 -4.55 -9.45 -4.7 -9.2 -4.9 -9.05 -5.1 -9.15 -5.15 -9.5 -5.1 -9.9 -4.95 -10.2 -4.75 M-12.0 -5.55 L-11.65 -5.7 -11.4 -5.9 -11.25 -6.15 -11.4 -6.2 -11.7 -6.1 -12.1 -5.95 -12.4 -5.8 -12.35 -5.55 -12.0 -5.55 M-10.95 -5.05 L-11.0 -4.85 -10.6 -4.85 -10.2 -5.0 -9.95 -5.2 -9.85 -5.45 -9.95 -5.45 -10.3 -5.4 -10.7 -5.3 -10.95 -5.05 M-10.7 -5.55 L-10.5 -5.8 -10.65 -5.85 -11.0 -5.75 -11.35 -5.6 -11.65 -5.45 -11.7 -5.2 -11.3 -5.2 -10.95 -5.35 -10.7 -5.55 M-1.6 -11.2 L-2.0 -11.1 -2.25 -10.95 Q-2.45 -10.85 -2.2 -10.7 L-1.9 -10.7 -1.5 -10.85 -1.3 -11.05 -1.15 -11.2 -1.35 -11.3 -1.6 -11.2 M-0.65 -11.0 L-0.9 -10.95 -1.25 -10.75 -1.55 -10.55 -1.5 -10.4 -1.2 -10.4 -0.85 -10.5 -0.6 -10.7 -0.5 -10.95 -0.65 -11.0 M-3.75 -5.8 L-3.7 -6.0 -3.8 -6.05 -4.05 -6.0 -4.5 -5.85 -4.7 -5.6 -4.75 -5.45 -4.35 -5.45 Q-4.15 -5.55 -4.05 -5.6 L-3.75 -5.8 M-7.6 -4.35 L-7.95 -4.25 -8.25 -4.1 -8.6 -3.9 -8.65 -3.85 -8.6 -3.65 -8.2 -3.7 -7.95 -3.75 -7.8 -3.85 -7.6 -4.05 -7.45 -4.3 -7.6 -4.35 M-8.5 -4.7 L-8.85 -4.65 -9.25 -4.45 -9.5 -4.3 Q-9.7 -4.25 -9.5 -4.05 L-9.15 -4.05 -8.75 -4.2 -8.5 -4.4 -8.4 -4.65 -8.5 -4.7 M-6.5 -6.5 Q-6.7 -6.35 -6.5 -6.25 L-6.15 -6.25 -5.8 -6.4 -5.5 -6.6 -5.45 -6.85 -5.55 -6.9 -5.8 -6.85 -5.85 -6.85 -6.2 -6.65 -6.5 -6.5 M-7.2 -6.85 L-7.25 -6.6 -6.85 -6.6 Q-6.65 -6.7 -6.55 -6.75 L-6.3 -6.95 -6.15 -7.2 -6.25 -7.25 -6.55 -7.2 -6.95 -7.05 -7.2 -6.85 M-8.0 -7.0 L-7.65 -7.0 Q-7.45 -7.1 -7.3 -7.15 L-7.05 -7.35 -6.95 -7.55 -7.1 -7.6 -7.35 -7.55 -7.75 -7.35 -8.0 -7.2 Q-8.2 -7.15 -8.0 -7.0 M-8.15 -7.95 L-8.55 -7.75 -8.85 -7.6 -8.85 -7.35 -8.45 -7.35 -8.15 -7.55 -7.9 -7.7 -7.75 -7.95 -7.85 -7.95 -8.15 -7.95 M-5.5 -9.3 L-5.75 -9.3 -6.2 -9.1 -6.4 -8.9 -6.45 -8.7 -6.1 -8.7 -5.7 -8.85 -5.45 -9.05 -5.4 -9.25 -5.5 -9.3 M-1.45 -8.65 L-1.75 -8.65 -2.1 -8.5 -2.1 -8.45 -2.35 -8.3 -2.45 -8.05 -2.0 -8.1 -1.7 -8.25 -1.45 -8.4 -1.4 -8.45 -1.35 -8.65 -1.45 -8.65 M-0.6 -8.3 L-0.65 -8.3 -0.85 -8.3 -1.3 -8.1 -1.5 -7.9 -1.55 -7.7 -1.2 -7.7 -0.85 -7.85 -0.6 -8.0 -0.5 -8.3 -0.6 -8.3 M-4.6 -6.4 L-4.95 -6.4 -5.3 -6.25 -5.6 -6.0 -5.65 -6.0 -5.55 -5.8 -5.45 -5.8 -5.25 -5.8 -4.8 -6.0 -4.6 -6.15 -4.5 -6.4 -4.6 -6.4 M-4.7 -8.9 L-4.8 -9.0 -5.1 -8.95 -5.45 -8.75 -5.7 -8.6 -5.75 -8.4 -5.4 -8.4 -5.05 -8.55 -4.75 -8.75 -4.7 -8.9 M-4.0 -8.65 L-4.35 -8.6 -4.7 -8.45 -5.0 -8.3 Q-5.15 -8.2 -4.95 -8.05 L-4.65 -8.05 -4.25 -8.2 -4.05 -8.4 -3.95 -8.6 -4.0 -8.65 M-2.8 -8.75 L-3.1 -8.6 -3.1 -8.4 -2.75 -8.4 -2.5 -8.5 -2.45 -8.55 -2.15 -8.75 -2.05 -8.95 -2.1 -9.0 -2.45 -8.95 -2.8 -8.75 M-2.85 -9.05 L-2.7 -9.25 -2.8 -9.3 -3.1 -9.25 -3.5 -9.05 -3.75 -8.9 Q-3.95 -8.85 -3.75 -8.7 L-3.4 -8.7 -3.05 -8.85 -2.85 -9.05 M-3.9 -9.6 L-4.3 -9.45 -4.5 -9.25 -4.55 -9.05 -4.2 -9.05 -3.9 -9.2 -3.6 -9.4 -3.55 -9.6 -3.65 -9.65 -3.9 -9.6 M-4.6 -9.95 L-5.0 -9.8 -5.25 -9.6 Q-5.45 -9.5 -5.25 -9.4 L-4.9 -9.4 -4.55 -9.55 -4.3 -9.7 -4.2 -9.95 -4.3 -9.95 -4.6 -9.95 M-9.6 -2.15 L-14.6 -4.6 -23.0 -0.4 -17.35 1.85 -9.6 -2.15 M-5.25 9.75 Q-5.55 9.85 -5.25 10.05 L-4.85 10.05 -4.45 9.8 -4.2 9.6 -4.0 9.25 Q-4.05 9.15 -4.1 9.2 L-4.5 9.25 -4.95 9.45 -5.25 9.75 M-5.25 9.15 L-5.15 8.85 -5.25 8.8 -5.65 8.9 -6.1 9.05 -6.4 9.35 -6.35 9.6 -5.9 9.6 -5.6 9.4 -5.25 9.15 M-7.1 8.8 Q-7.35 8.9 -7.2 9.1 L-6.75 9.05 -6.25 8.85 -6.05 8.6 Q-5.8 8.45 -5.9 8.35 L-6.0 8.2 -6.45 8.35 -6.8 8.55 -7.1 8.8 M-6.7 7.7 L-7.05 7.75 -7.45 8.0 Q-7.7 8.05 -7.75 8.2 -8.0 8.3 -7.8 8.55 L-7.4 8.55 -6.95 8.35 -6.65 8.05 -6.55 7.75 -6.7 7.7 M-7.3 7.5 L-7.15 7.2 -7.2 7.1 -7.6 7.15 -8.0 7.35 -8.4 7.6 -8.35 7.95 -7.95 7.95 -7.55 7.7 -7.3 7.5" fill="#3077a5" fill-rule="evenodd" stroke="none"/>
      <path d="M0.95 -10.25 L1.0 -10.0 0.85 -9.8 0.45 -9.65 0.1 -9.6 0.0 -9.6 Q-0.25 -9.75 -0.05 -9.8 L0.25 -10.05 0.6 -10.2 0.95 -10.2 0.95 -10.25 M0.45 -10.5 L0.3 -10.35 0.05 -10.15 -0.25 -10.0 -0.6 -10.0 -0.55 -10.25 -0.35 -10.4 -0.05 -10.5 0.3 -10.55 0.45 -10.5 M1.1 -9.55 L1.45 -9.7 1.75 -9.7 1.9 -9.7 1.8 -9.5 1.6 -9.3 1.2 -9.15 0.85 -9.15 Q0.65 -9.3 0.8 -9.4 L1.1 -9.55 M19.9 -1.95 Q16.15 -3.4 12.95 -5.7 5.85 -10.5 -2.55 -13.05 L3.25 -16.2 Q8.7 -14.95 19.0 -9.7 22.15 -7.9 26.55 -6.65 L19.9 -1.95 M24.65 -6.75 L24.6 -6.8 24.6 -6.75 24.45 -6.8 24.4 -6.85 24.35 -6.85 24.3 -6.8 24.15 -6.8 24.15 -6.7 Q24.0 -6.7 24.15 -6.65 L24.35 -6.5 24.5 -6.5 24.6 -6.55 24.7 -6.6 24.75 -6.65 24.65 -6.75 M23.6 -7.1 L23.5 -7.1 23.45 -7.1 23.4 -7.1 23.25 -7.1 23.2 -7.1 23.15 -7.05 23.2 -6.95 23.35 -6.8 23.5 -6.8 23.55 -6.85 23.7 -6.8 23.7 -6.95 23.75 -6.95 23.65 -7.05 23.6 -7.1 M22.75 -7.45 L22.7 -7.45 22.6 -7.45 22.55 -7.4 22.5 -7.4 22.4 -7.35 Q22.3 -7.3 22.5 -7.3 L22.7 -7.2 22.8 -7.15 22.85 -7.15 22.9 -7.2 22.95 -7.25 23.0 -7.3 22.85 -7.4 22.9 -7.35 22.75 -7.45 M21.7 -7.75 L21.6 -7.75 21.55 -7.7 21.55 -7.6 21.75 -7.45 21.9 -7.45 21.95 -7.45 22.0 -7.5 22.1 -7.55 22.15 -7.6 22.1 -7.7 22.0 -7.75 21.9 -7.75 21.85 -7.75 21.7 -7.75 M-0.65 -11.0 L-0.5 -10.95 -0.6 -10.7 -0.85 -10.5 -1.2 -10.4 -1.5 -10.4 -1.55 -10.55 -1.25 -10.75 -0.9 -10.95 -0.65 -11.0 M-1.6 -11.2 L-1.35 -11.3 -1.15 -11.2 -1.3 -11.05 -1.5 -10.85 -1.9 -10.7 -2.2 -10.7 Q-2.45 -10.85 -2.25 -10.95 L-2.0 -11.1 -1.6 -11.2 M-7.3 7.5 L-7.55 7.7 -7.95 7.95 -8.35 7.95 -8.4 7.6 -8.0 7.35 -7.6 7.15 -7.2 7.1 -7.15 7.2 -7.3 7.5 M-6.7 7.7 L-6.55 7.75 -6.65 8.05 -6.95 8.35 -7.4 8.55 -7.8 8.55 Q-8.0 8.3 -7.75 8.2 -7.7 8.05 -7.45 8.0 L-7.05 7.75 -6.7 7.7 M-7.1 8.8 L-6.8 8.55 -6.45 8.35 -6.0 8.2 -5.9 8.35 Q-5.8 8.45 -6.05 8.6 L-6.25 8.85 -6.75 9.05 -7.2 9.1 Q-7.35 8.9 -7.1 8.8 M-5.25 9.15 L-5.6 9.4 -5.9 9.6 -6.35 9.6 -6.4 9.35 -6.1 9.05 -5.65 8.9 -5.25 8.8 -5.15 8.85 -5.25 9.15 M-5.25 9.75 L-4.95 9.45 -4.5 9.25 -4.1 9.2 Q-4.05 9.15 -4.0 9.25 L-4.2 9.6 -4.45 9.8 -4.85 10.05 -5.25 10.05 Q-5.55 9.85 -5.25 9.75" fill="#8a270f" fill-rule="evenodd" stroke="none"/>
      <path d="M-7.45 -0.55 L4.35 -8.6 15.85 -2.1 3.45 6.6 3.85 2.15 7.55 1.4 8.2 -5.4 -0.2 -3.75 -0.95 -1.3 -7.45 -0.55" fill="#9e9fbe" fill-rule="evenodd" stroke="none"/>
      <path d="M19.9 -1.95 L26.55 -6.65 26.55 -6.35 26.6 -6.15 26.55 -6.15 26.55 -6.05 Q26.6 -6.0 26.85 -5.9 L26.65 -5.8 6.35 8.6 -1.6 13.05 -1.2 12.8 19.9 -1.95 M-1.25 14.15 L-4.05 16.2 -10.3 11.55 Q-6.4 13.8 -3.15 14.5 L6.05 8.8 -1.7 14.2 -1.25 14.15" fill="#b1a470" fill-rule="evenodd" stroke="none"/>
      <path d="M21.7 -7.75 L21.85 -7.75 21.9 -7.75 22.0 -7.75 22.1 -7.7 22.15 -7.6 22.1 -7.55 22.0 -7.5 21.95 -7.45 21.9 -7.45 21.75 -7.45 21.55 -7.6 21.55 -7.7 21.6 -7.75 21.7 -7.75 M22.75 -7.45 L22.9 -7.35 22.85 -7.4 23.0 -7.3 22.95 -7.25 22.9 -7.2 22.85 -7.15 22.8 -7.15 22.7 -7.2 22.5 -7.3 Q22.3 -7.3 22.4 -7.35 L22.5 -7.4 22.55 -7.4 22.6 -7.45 22.7 -7.45 22.75 -7.45 M23.6 -7.1 L23.65 -7.05 23.75 -6.95 23.7 -6.95 23.7 -6.8 23.55 -6.85 23.5 -6.8 23.35 -6.8 23.2 -6.95 23.15 -7.05 23.2 -7.1 23.25 -7.1 23.4 -7.1 23.45 -7.1 23.5 -7.1 23.6 -7.1 M24.65 -6.75 L24.75 -6.65 24.7 -6.6 24.6 -6.55 24.5 -6.5 24.35 -6.5 24.15 -6.65 Q24.0 -6.7 24.15 -6.7 L24.15 -6.8 24.3 -6.8 24.35 -6.85 24.4 -6.85 24.45 -6.8 24.6 -6.75 24.6 -6.8 24.65 -6.75" fill="#d5d5aa" fill-rule="evenodd" stroke="none"/>
      <path d="M-26.65 0.2 Q-18.5 2.85 -10.3 9.25 -7.25 11.85 -2.4 13.6 L-1.6 13.05 6.35 8.6 6.4 8.6 6.15 8.75 6.05 8.8 -3.15 14.5 Q-6.4 13.8 -10.3 11.55 L-14.3 8.45 Q-20.3 3.7 -24.0 2.2 -27.05 1.0 -26.8 0.45 L-26.65 0.2 M6.15 8.75 L6.35 8.6 6.15 8.75" fill="#c4b991" fill-rule="evenodd" stroke="none"/>
      <path d="M-7.45 -0.55 L-0.95 -1.3 -0.2 -3.75 8.2 -5.4 7.55 1.4 3.85 2.15 3.45 6.6 -0.2 9.1 -10.75 1.7 -7.45 -0.55 M-10.7 -5.55 L-10.95 -5.35 -11.3 -5.2 -11.7 -5.2 -11.65 -5.45 -11.35 -5.6 -11.0 -5.75 -10.65 -5.85 -10.5 -5.8 -10.7 -5.55 M-10.95 -5.05 L-10.7 -5.3 -10.3 -5.4 -9.95 -5.45 -9.85 -5.45 -9.95 -5.2 -10.2 -5.0 -10.6 -4.85 -11.0 -4.85 -10.95 -5.05 M-12.0 -5.55 L-12.35 -5.55 -12.4 -5.8 -12.1 -5.95 -11.7 -6.1 -11.4 -6.2 -11.25 -6.15 -11.4 -5.9 -11.65 -5.7 -12.0 -5.55 M-10.2 -4.75 L-9.9 -4.95 -9.5 -5.1 -9.15 -5.15 -9.05 -5.1 -9.2 -4.9 -9.45 -4.7 -9.8 -4.55 -10.15 -4.55 -10.2 -4.75 M-4.6 -9.95 L-4.3 -9.95 -4.2 -9.95 -4.3 -9.7 -4.55 -9.55 -4.9 -9.4 -5.25 -9.4 Q-5.45 -9.5 -5.25 -9.6 L-5.0 -9.8 -4.6 -9.95 M-3.9 -9.6 L-3.65 -9.65 -3.55 -9.6 -3.6 -9.4 -3.9 -9.2 -4.2 -9.05 -4.55 -9.05 -4.5 -9.25 -4.3 -9.45 -3.9 -9.6 M-2.85 -9.05 L-3.05 -8.85 -3.4 -8.7 -3.75 -8.7 Q-3.95 -8.85 -3.75 -8.9 L-3.5 -9.05 -3.1 -9.25 -2.8 -9.3 -2.7 -9.25 -2.85 -9.05 M-2.8 -8.75 L-2.45 -8.95 -2.1 -9.0 -2.05 -8.95 -2.15 -8.75 -2.45 -8.55 -2.5 -8.5 -2.75 -8.4 -3.1 -8.4 -3.1 -8.6 -2.8 -8.75 M-4.0 -8.65 L-3.95 -8.6 -4.05 -8.4 -4.25 -8.2 -4.65 -8.05 -4.95 -8.05 Q-5.15 -8.2 -5.0 -8.3 L-4.7 -8.45 -4.35 -8.6 -4.0 -8.65 M-4.7 -8.9 L-4.75 -8.75 -5.05 -8.55 -5.4 -8.4 -5.75 -8.4 -5.7 -8.6 -5.45 -8.75 -5.1 -8.95 -4.8 -9.0 -4.7 -8.9 M-4.6 -6.4 L-4.5 -6.4 -4.6 -6.15 -4.8 -6.0 -5.25 -5.8 -5.45 -5.8 -5.55 -5.8 -5.65 -6.0 -5.6 -6.0 -5.3 -6.25 -4.95 -6.4 -4.6 -6.4 M-0.6 -8.3 L-0.5 -8.3 -0.6 -8.0 -0.85 -7.85 -1.2 -7.7 -1.55 -7.7 -1.5 -7.9 -1.3 -8.1 -0.85 -8.3 -0.65 -8.3 -0.6 -8.3 M-1.45 -8.65 L-1.35 -8.65 -1.4 -8.45 -1.45 -8.4 -1.7 -8.25 -2.0 -8.1 -2.45 -8.05 -2.35 -8.3 -2.1 -8.45 -2.1 -8.5 -1.75 -8.65 -1.45 -8.65 M-5.5 -9.3 L-5.4 -9.25 -5.45 -9.05 -5.7 -8.85 -6.1 -8.7 -6.45 -8.7 -6.4 -8.9 -6.2 -9.1 -5.75 -9.3 -5.5 -9.3 M-8.15 -7.95 L-7.85 -7.95 -7.75 -7.95 -7.9 -7.7 -8.15 -7.55 -8.45 -7.35 -8.85 -7.35 -8.85 -7.6 -8.55 -7.75 -8.15 -7.95 M-8.0 -7.0 Q-8.2 -7.15 -8.0 -7.2 L-7.75 -7.35 -7.35 -7.55 -7.1 -7.6 -6.95 -7.55 -7.05 -7.35 -7.3 -7.15 Q-7.45 -7.1 -7.65 -7.0 L-8.0 -7.0 M-7.2 -6.85 L-6.95 -7.05 -6.55 -7.2 -6.25 -7.25 -6.15 -7.2 -6.3 -6.95 -6.55 -6.75 Q-6.65 -6.7 -6.85 -6.6 L-7.25 -6.6 -7.2 -6.85 M-6.5 -6.5 L-6.2 -6.65 -5.85 -6.85 -5.8 -6.85 -5.55 -6.9 -5.45 -6.85 -5.5 -6.6 -5.8 -6.4 -6.15 -6.25 -6.5 -6.25 Q-6.7 -6.35 -6.5 -6.5 M-8.5 -4.7 L-8.4 -4.65 -8.5 -4.4 -8.75 -4.2 -9.15 -4.05 -9.5 -4.05 Q-9.7 -4.25 -9.5 -4.3 L-9.25 -4.45 -8.85 -4.65 -8.5 -4.7 M-7.6 -4.35 L-7.45 -4.3 -7.6 -4.05 -7.8 -3.85 -7.95 -3.75 -8.2 -3.7 -8.6 -3.65 -8.65 -3.85 -8.6 -3.9 -8.25 -4.1 -7.95 -4.25 -7.6 -4.35 M-3.75 -5.8 L-4.05 -5.6 Q-4.15 -5.55 -4.35 -5.45 L-4.75 -5.45 -4.7 -5.6 -4.5 -5.85 -4.05 -6.0 -3.8 -6.05 -3.7 -6.0 -3.75 -5.8 M-9.6 -2.15 L-17.35 1.85 -23.0 -0.4 -14.6 -4.6 -9.6 -2.15" fill="#333333" fill-rule="evenodd" stroke="none"/>
      <path d="M19.9 -1.95 L26.55 -6.65 Q22.15 -7.9 19.0 -9.7 8.7 -14.95 3.25 -16.2 L-2.55 -13.05" fill="none" stroke="#660000" stroke-linecap="round" stroke-linejoin="round" stroke-width="0.5"/>
      <path d="M-2.55 -13.05 L-26.65 0.2 Q-18.5 2.85 -10.3 9.25 -7.25 11.85 -2.4 13.6 L-1.6 13.05 M-1.2 12.8 L19.9 -1.95 M26.65 -5.8 L6.35 8.6 6.15 8.75 6.05 8.8 -1.25 14.15 -4.05 16.2 -10.3 11.55 -14.3 8.45 Q-20.3 3.7 -24.0 2.2 -27.05 1.0 -26.8 0.45 L-26.65 0.2 M6.4 8.6 L6.15 8.75" fill="none" stroke="#003366" stroke-linecap="round" stroke-linejoin="round" stroke-width="0.5"/>
      <path d="M-9.6 -2.15 L-17.35 1.85 -23.0 -0.4 -14.6 -4.6 -9.6 -2.15" fill="none" stroke="#990000" stroke-linecap="round" stroke-linejoin="round" stroke-width="0.25"/>
      <path d="M2.45 -14.95 L2.9 -15.15 2.95 -15.2 3.05 -15.25 3.2 -15.3 3.4 -15.3 3.55 -15.3 3.8 -15.25 4.2 -15.15 4.55 -15.05 Q4.65 -15.0 4.85 -14.9 L5.15 -14.8 5.4 -14.7 5.65 -14.6 5.75 -14.45 5.8 -14.3 5.85 -14.2 5.85 -14.15 5.75 -14.05 5.7 -14.0 5.6 -13.95 5.45 -14.0 5.3 -14.0 5.15 -14.05 4.8 -14.2 4.35 -14.4 4.2 -14.45 4.0 -14.5 3.8 -14.55 3.6 -14.5 3.3 -14.4 3.1 -14.3 3.3 -14.25 3.45 -14.15 3.65 -14.05 3.85 -14.0 4.0 -13.9 4.1 -13.85 4.2 -13.75 4.3 -13.65 4.3 -13.55 4.3 -13.45 4.2 -13.35 4.1 -13.3 4.0 -13.25 3.85 -13.25 3.7 -13.25 3.6 -13.3 3.4 -13.4 3.15 -13.5 2.95 -13.6 2.7 -13.7 2.5 -13.8 2.25 -13.85 1.8 -13.6 1.4 -13.4 1.15 -13.25 0.85 -13.1 0.75 -13.05 0.6 -13.1 0.4 -13.1 0.3 -13.15 0.1 -13.3 0.1 -13.5 0.2 -13.65 0.4 -13.8 0.5 -13.85 0.65 -13.95 0.95 -14.1 1.25 -14.25 1.65 -14.5 2.05 -14.75 2.45 -14.95 M4.2 -12.8 L4.6 -12.95 5.4 -13.25 6.25 -13.45 6.65 -13.5 7.1 -13.6 7.6 -13.6 8.0 -13.45 8.25 -13.25 8.35 -13.05 8.3 -12.8 8.2 -12.6 7.85 -12.25 7.45 -11.9 7.05 -11.55 6.7 -11.2 6.65 -11.1 6.55 -10.95 6.4 -10.8 6.25 -10.7 6.05 -10.65 5.85 -10.6 5.6 -10.6 5.35 -10.65 5.25 -10.75 5.15 -10.8 5.05 -10.85 5.05 -10.95 5.1 -11.0 5.1 -11.1 5.15 -11.15 5.25 -11.2 5.4 -11.35 5.55 -11.45 5.4 -11.55 5.25 -11.6 5.1 -11.7 4.95 -11.75 4.7 -11.9 4.5 -12.0 4.15 -11.85 3.8 -11.75 3.65 -11.75 3.45 -11.7 3.25 -11.7 3.1 -11.75 2.95 -11.9 Q2.85 -12.0 2.9 -12.05 L3.0 -12.2 3.1 -12.35 3.45 -12.5 3.85 -12.65 4.2 -12.8 M5.75 -12.5 L5.35 -12.3 5.75 -12.15 6.2 -11.9 6.75 -12.4 6.9 -12.55 7.0 -12.65 7.15 -12.8 7.2 -12.95 6.65 -12.8 6.2 -12.7 5.75 -12.5 M9.75 -12.1 L9.9 -12.15 10.1 -12.15 10.3 -12.15 10.45 -12.15 10.6 -12.1 10.65 -12.0 10.7 -11.9 10.7 -11.8 10.65 -11.75 10.6 -11.65 10.55 -11.5 10.5 -11.4 10.35 -11.1 10.15 -10.8 9.95 -10.2 10.15 -10.35 10.4 -10.5 10.8 -10.8 11.2 -11.05 11.35 -11.15 11.55 -11.25 11.75 -11.3 11.95 -11.35 12.15 -11.35 12.35 -11.25 12.45 -11.2 12.5 -11.1 12.5 -11.0 12.45 -10.9 12.3 -10.75 12.1 -10.6 12.0 -10.5 11.9 -10.45 11.55 -10.3 11.0 -9.9 10.45 -9.55 10.1 -9.3 9.7 -9.1 9.5 -9.0 9.3 -8.95 9.0 -8.9 8.75 -9.0 8.6 -9.1 8.5 -9.25 8.5 -9.4 8.55 -9.55 8.55 -9.7 8.55 -9.85 8.75 -10.3 8.95 -10.8 8.55 -10.55 8.15 -10.3 7.9 -10.15 7.6 -10.0 7.35 -9.95 7.2 -9.9 7.0 -9.9 6.75 -9.95 6.65 -10.1 6.65 -10.2 6.6 -10.35 6.7 -10.45 7.2 -10.7 7.4 -10.8 7.65 -10.95 8.0 -11.15 8.4 -11.45 8.75 -11.65 9.15 -11.85 9.45 -11.95 9.75 -12.1 M16.05 -9.3 L16.1 -9.1 16.1 -8.95 16.0 -8.8 15.85 -8.7 15.6 -8.6 15.4 -8.5 15.1 -8.45 14.85 -8.45 14.9 -8.15 14.85 -7.95 14.65 -7.7 14.4 -7.5 14.0 -7.35 13.45 -7.3 12.95 -7.35 12.4 -7.45 11.4 -7.7 10.5 -8.1 10.4 -8.2 10.3 -8.3 10.3 -8.4 10.35 -8.55 10.45 -8.75 10.65 -8.95 10.9 -9.05 11.2 -9.15 11.5 -9.3 11.8 -9.45 12.55 -9.9 13.2 -10.35 13.75 -10.3 14.3 -10.2 14.85 -10.05 15.3 -9.85 Q15.35 -9.8 15.5 -9.7 L15.7 -9.6 15.9 -9.45 16.05 -9.3 M17.65 -8.25 L18.15 -8.2 18.7 -8.1 19.15 -7.95 19.45 -7.7 19.65 -7.45 19.7 -7.2 19.7 -6.95 19.35 -6.45 18.85 -6.05 18.5 -5.85 18.05 -5.75 17.6 -5.65 17.1 -5.55 16.55 -5.5 16.0 -5.55 15.5 -5.65 15.05 -5.85 14.7 -6.05 14.6 -6.3 14.5 -6.55 14.6 -6.85 14.85 -7.3 15.35 -7.7 16.15 -8.05 17.1 -8.2 17.65 -8.25 M15.7 -6.85 L15.6 -6.7 15.6 -6.5 15.65 -6.4 15.85 -6.25 16.1 -6.15 16.4 -6.15 16.65 -6.1 16.9 -6.2 17.25 -6.3 17.5 -6.4 17.8 -6.5 17.95 -6.65 18.15 -6.75 18.3 -6.8 18.45 -6.9 18.55 -7.05 18.6 -7.15 18.6 -7.3 18.5 -7.4 18.35 -7.55 18.1 -7.6 17.8 -7.65 17.5 -7.65 17.2 -7.6 16.75 -7.5 16.3 -7.3 15.95 -7.05 15.7 -6.85 M13.05 -9.3 L13.35 -9.25 13.65 -9.15 13.9 -9.1 14.25 -9.05 14.45 -9.05 14.8 -9.15 14.85 -9.15 14.85 -9.25 14.75 -9.3 14.65 -9.4 14.3 -9.5 14.05 -9.6 13.65 -9.6 13.4 -9.5 13.2 -9.4 13.05 -9.3 M12.5 -8.05 L12.9 -8.0 13.25 -8.05 13.55 -8.15 13.7 -8.2 13.7 -8.3 13.7 -8.45 13.55 -8.5 13.2 -8.65 12.85 -8.7 12.5 -8.75 12.1 -8.8 11.9 -8.7 11.75 -8.55 11.65 -8.5 11.55 -8.4 11.8 -8.3 12.15 -8.15 12.5 -8.05 M19.55 -5.4 L19.65 -5.65 19.75 -5.85 19.95 -6.1 20.1 -6.3 20.3 -6.45 20.6 -6.6 20.8 -6.75 20.95 -6.8 21.1 -6.85 21.25 -6.85 21.45 -6.8 21.6 -6.75 21.65 -6.65 21.75 -6.55 21.7 -6.45 21.45 -6.25 21.3 -6.1 21.0 -5.75 20.8 -5.4 21.55 -5.55 22.4 -5.7 22.8 -5.75 23.2 -5.8 23.45 -5.8 23.7 -5.75 23.8 -5.6 23.85 -5.45 23.75 -5.35 23.65 -5.25 23.5 -5.2 23.35 -5.15 23.25 -5.15 23.05 -5.15 22.7 -5.1 22.3 -5.05 21.55 -4.95 20.7 -4.75 19.95 -4.55 19.3 -4.3 19.15 -4.25 19.1 -4.25 18.95 -4.2 18.8 -4.2 18.7 -4.15 18.55 -4.2 18.45 -4.2 18.3 -4.3 18.2 -4.4 18.15 -4.45 18.2 -4.6 18.35 -4.65 18.9 -5.0 19.55 -5.2 19.55 -5.4" fill="#3077a5" fill-rule="evenodd" stroke="none"/>
      <path d="M17.45 -0.45 L-2.5 13.45 Q-7.35 11.7 -10.4 9.1 L-13.25 6.95 Q-18.4 3.4 -23.45 1.25 L-24.5 0.85 -24.1 -1.4 3.0 -16.05 11.1 -12.3 Q15.9 -7.5 17.45 -0.45" fill="url(#gradient0)" fill-rule="evenodd" stroke="none"/>
      <path d="M13.85 -9.1 L21.25 -7.5 25.45 -4.9 14.4 2.95 13.5 2.5 13.45 2.5 7.3 2.9 Q-3.35 3.2 -14.0 1.45 L-15.45 1.25 Q-22.4 0.75 -24.6 -0.9 L-6.75 -10.55 Q3.7 -10.85 13.85 -9.1" fill="url(#gradient1)" fill-rule="evenodd" stroke="none"/>
      <path d="M-10.0 -8.95 Q-10.55 -3.05 -11.45 1.05 -12.15 4.2 -13.15 7.1 -18.3 3.55 -23.35 1.4 L-23.65 -1.45 -10.0 -8.95" fill="url(#gradient2)" fill-rule="evenodd" stroke="none"/>
      <path d="M5.0 -14.5 Q5.1 -15.0 6.2 -14.75 7.25 -14.5 7.15 -13.95 7.0 -13.4 5.95 -13.65 4.65 -13.95 5.0 -14.5 M6.25 -9.55 L6.45 -11.8 Q6.55 -12.3 7.65 -12.05 9.05 -11.75 8.35 -9.1 L8.0 -8.1 8.05 -8.1 Q8.95 -7.95 9.35 -7.35 L7.95 -7.2 7.6 -7.3 Q6.95 -6.3 6.25 -6.45 4.75 -6.75 5.35 -7.45 L5.4 -7.75 4.85 -8.0 4.05 -8.05 Q2.9 -8.3 3.35 -8.85 L3.55 -9.3 Q3.15 -9.55 3.25 -9.85 3.45 -10.8 4.65 -10.5 5.25 -10.4 5.5 -10.15 6.25 -9.95 6.25 -9.55 M17.65 -7.0 Q16.75 -6.9 16.1 -7.3 14.95 -8.05 14.8 -9.55 15.55 -9.7 16.35 -9.2 17.25 -8.6 17.45 -7.9 17.5 -7.15 17.65 -7.0 M12.65 -1.85 L11.35 -1.75 Q9.8 -2.1 10.0 -3.05 L11.15 -3.25 Q12.7 -2.9 12.65 -1.85 M12.45 -1.35 Q13.75 -1.05 13.15 0.3 12.85 1.7 11.85 1.45 10.9 1.25 10.9 0.55 L11.05 -0.15 Q11.35 -1.6 12.45 -1.35 M17.75 -2.0 L18.35 -0.8 Q18.2 -0.3 17.2 -0.5 15.85 -0.8 15.35 -2.9 L16.5 -3.0 17.65 -2.15 17.75 -2.0 M22.75 -4.15 L22.65 -4.0 Q22.3 -3.45 21.1 -4.2 20.25 -4.7 20.15 -5.3 20.85 -5.85 21.75 -5.3 L22.75 -4.15 M-20.25 -2.6 Q-19.35 -3.45 -17.65 -2.4 L-16.65 -1.7 -16.65 -1.2 -17.6 -0.95 Q-18.35 -0.8 -19.3 -1.4 -20.05 -1.9 -20.25 -2.6 M-14.8 -1.3 Q-14.55 -1.2 -12.8 3.95 L-14.25 3.7 Q-17.15 1.9 -16.35 -1.45 -15.95 -2.05 -14.8 -1.3 M-4.45 -10.6 Q-3.75 -10.85 -2.95 -10.35 -1.95 -9.75 -1.75 -8.5 L-2.0 -8.6 -2.95 -8.5 -5.3 -9.2 -5.4 -9.55 -4.2 -9.7 -4.15 -9.7 -4.45 -10.6 M-6.7 -3.0 Q-6.4 -3.5 -5.45 -3.75 L-3.6 -3.55 Q-2.55 -2.9 -2.7 -2.3 -2.9 -2.0 -4.25 -1.25 -4.55 -0.8 -5.75 -1.5 -7.1 -2.35 -6.7 -3.0 M-2.4 -1.0 L-1.55 -0.65 Q-1.45 -0.7 -1.5 -0.45 L-1.0 0.05 Q-1.1 0.45 -1.9 0.35 -1.7 0.55 -1.75 0.85 L-3.05 1.0 -3.75 0.5 -4.7 0.35 -5.35 0.15 -5.45 -0.25 Q-5.4 -0.7 -4.3 -0.45 L-4.25 -0.45 -4.3 -0.6 Q-3.7 -1.3 -2.4 -1.0 M-6.35 1.95 Q-7.55 1.7 -7.4 0.9 -7.3 0.4 -6.25 0.65 -5.05 0.9 -5.25 1.75 -5.35 2.2 -6.35 1.95 M-6.85 2.75 Q-7.05 3.5 -8.05 3.3 -9.5 2.95 -8.95 2.25 -8.8 1.5 -7.7 1.75 -6.85 1.95 -6.8 2.4 L-6.85 2.75 M-0.9 10.2 L-2.0 10.3 Q-3.35 10.0 -3.35 7.5 -3.25 7.05 -2.15 7.3 -0.8 7.6 -0.9 10.2 M-23.55 0.15 L-23.6 -0.05 -21.9 0.4 Q-21.1 0.9 -20.75 1.7 L-22.45 1.3 -23.55 0.15" fill="#382614" fill-opacity="0.8509804" fill-rule="evenodd" stroke="none"/>
      <path d="M2.35 -13.45 L3.65 -12.85 Q2.8 -11.95 1.35 -12.65 L0.65 -12.9 0.55 -13.25 2.35 -13.45 M2.85 -7.35 Q2.5 -6.8 1.65 -7.0 0.65 -7.25 -0.35 -7.85 L-0.45 -8.15 1.15 -8.25 Q1.5 -8.2 2.85 -7.35 M19.35 -8.05 Q20.8 -7.75 20.65 -6.9 20.05 -6.5 19.55 -6.6 19.0 -6.75 18.2 -8.0 L19.35 -8.05 M11.75 -12.2 L12.7 -11.8 12.8 -11.6 11.4 -11.45 10.65 -11.7 10.55 -11.95 Q11.0 -12.35 11.75 -12.2 M12.1 -7.4 Q11.65 -7.0 10.95 -7.15 10.05 -7.35 9.7 -8.15 L10.85 -8.3 12.1 -7.4 M17.65 -2.15 L17.6 -2.4 19.1 -2.45 20.35 -1.9 Q19.85 -1.45 18.9 -1.65 L17.75 -2.0 17.65 -2.15 M11.5 3.2 Q11.4 3.65 10.9 3.7 L10.95 4.0 Q10.8 4.6 9.75 4.4 8.95 4.2 8.8 3.9 L8.8 3.55 Q8.9 3.2 9.45 3.25 L9.4 3.1 9.4 2.8 Q9.5 2.2 10.6 2.45 11.6 2.65 11.5 3.2 M1.95 12.2 Q1.65 12.8 -0.15 12.45 L-1.8 11.95 -1.85 11.6 1.0 11.75 Q1.75 11.9 1.95 12.2 M4.05 7.15 Q7.9 8.0 6.3 8.15 L2.1 7.45 2.0 7.1 4.05 7.15 M-13.75 -6.45 Q-11.35 -7.7 -10.25 -7.45 -9.45 -7.3 -9.25 -6.95 -10.35 -5.3 -12.95 -5.9 L-13.65 -6.2 -13.75 -6.45 M-12.45 -5.0 L-11.9 -4.2 Q-12.3 -3.85 -13.05 -4.05 -14.1 -4.3 -14.9 -5.7 L-13.7 -5.9 Q-12.9 -5.7 -12.45 -5.0 M-10.65 -1.2 L-9.5 -1.35 Q-9.05 -1.25 -8.55 -0.85 -9.0 -0.4 -9.7 -0.55 L-10.55 -0.85 -10.65 -1.2 M-2.0 -12.25 L-0.85 -12.4 0.1 -11.9 Q-0.35 -11.5 -1.25 -11.7 -1.75 -11.8 -2.0 -12.25 M-8.25 5.9 Q-8.4 6.5 -9.4 6.25 -10.7 5.95 -10.35 5.35 -10.25 4.8 -9.15 5.1 -8.4 5.25 -8.2 5.55 L-8.25 5.9 M-8.4 9.95 Q-7.6 10.1 -7.3 10.45 L-8.8 10.65 -9.7 10.05 -8.4 9.95 M-7.8 12.0 L-6.4 11.95 Q-5.2 12.2 -4.55 12.8 L-3.7 12.9 Q-3.2 13.0 -2.7 13.4 -3.25 13.95 -3.9 13.95 L-3.85 14.6 Q-6.3 12.65 -7.7 12.35 L-7.8 12.0 M-6.9 9.8 Q-8.0 9.55 -8.05 8.85 L-6.9 8.75 Q-6.25 8.85 -5.45 9.65 L-6.9 9.8 M-9.05 9.55 L-10.4 9.7 Q-11.4 9.5 -11.2 8.85 L-10.05 8.7 Q-8.95 8.95 -9.05 9.55 M-17.1 3.95 Q-17.25 4.4 -18.3 4.15 L-19.25 3.65 Q-18.85 3.05 -18.1 3.2 -17.65 3.3 -17.15 3.7 L-17.1 3.95 M-18.9 0.9 L-18.95 1.4 Q-19.05 1.8 -20.05 1.6 -21.45 1.25 -21.05 0.55 -20.95 0.0 -19.9 0.2 -19.1 0.4 -18.9 0.9" fill="#4a321b" fill-opacity="0.6431373" fill-rule="evenodd" stroke="none"/>
      <path d="M3.8 -3.4 Q4.05 -4.05 5.0 -3.8 L5.95 -3.2 Q5.6 -2.7 4.75 -2.85 4.05 -3.05 3.8 -3.4 M6.2 -1.35 L5.1 -1.25 Q4.0 -1.5 3.9 -2.4 L5.1 -2.55 Q6.05 -2.35 6.2 -1.35 M6.65 2.9 L7.6 3.5 6.95 4.05 5.75 4.1 5.55 4.05 5.6 4.15 4.45 4.35 3.6 4.05 3.5 3.8 Q3.8 3.35 4.6 3.55 L5.1 3.7 5.0 3.45 4.5 3.4 3.6 3.1 3.5 2.75 4.7 2.6 5.4 2.9 Q5.8 2.7 6.65 2.9 M2.85 1.5 L1.55 1.15 1.5 0.75 3.05 0.7 Q3.9 0.9 4.35 1.3 L2.85 1.5" fill="#000000" fill-opacity="0.8509804" fill-rule="evenodd" stroke="none"/>
      <path d="M1.95 -8.9 Q-0.6 -12.6 -0.1 -14.35 0.35 -16.15 3.55 -15.0 6.7 -13.9 10.8 -10.45 14.85 -7.1 16.9 -3.9 18.95 -0.7 16.45 0.4 L13.3 1.5 Q12.6 1.5 8.5 -1.9 4.45 -5.3 1.95 -8.9" fill="url(#gradient3)" fill-rule="evenodd" stroke="none"/>
    </g>
    <radialGradient cx="0" cy="0" gradientTransform="matrix(0.0226, 0.0141, -0.0141, 0.0226, -3.4, 4.8)" gradientUnits="userSpaceOnUse" id="gradient0" r="819.2" spreadMethod="pad">
      <stop offset="0.5176470588235295" stop-color="#1e261e" stop-opacity="0.7921569"/>
      <stop offset="0.9372549019607843" stop-color="#5c2e01" stop-opacity="0.0"/>
    </radialGradient>
    <radialGradient cx="0" cy="0" gradientTransform="matrix(-0.009, -0.0085, 0.0347, -0.001, 0.1, -3.85)" gradientUnits="userSpaceOnUse" id="gradient1" r="819.2" spreadMethod="pad">
      <stop offset="0.5176470588235295" stop-color="#432101" stop-opacity="0.7921569"/>
      <stop offset="0.9372549019607843" stop-color="#5c2e01" stop-opacity="0.0"/>
    </radialGradient>
    <radialGradient cx="0" cy="0" gradientTransform="matrix(-0.0066, -0.0015, 0.0047, -0.0214, -16.35, 0.0)" gradientUnits="userSpaceOnUse" id="gradient2" r="819.2" spreadMethod="pad">
      <stop offset="0.5176470588235295" stop-color="#291101" stop-opacity="0.44313726"/>
      <stop offset="0.9372549019607843" stop-color="#5c2e01" stop-opacity="0.0"/>
    </radialGradient>
    <radialGradient cx="0" cy="0" gradientTransform="matrix(-0.012, -0.01, 0.0014, -0.0053, 9.65, -6.2)" gradientUnits="userSpaceOnUse" id="gradient3" r="819.2" spreadMethod="pad">
      <stop offset="0.5176470588235295" stop-color="#291101" stop-opacity="0.7921569"/>
      <stop offset="0.9372549019607843" stop-color="#5c2e01" stop-opacity="0.0"/>
    </radialGradient>
  </defs>
</svg>
