<?xml version="1.0" encoding="UTF-8" standalone="no"?>
<svg xmlns:xlink="http://www.w3.org/1999/xlink" height="51.25px" width="75.75px" xmlns="http://www.w3.org/2000/svg">
  <g transform="matrix(1.0, 0.0, 0.0, 1.0, 33.25, 25.6)">
    <use height="51.25" transform="matrix(1.0, 0.0, 0.0, 1.0, -33.25, -25.6)" width="75.75" xlink:href="#shape0"/>
  </g>
  <defs>
    <g id="shape0" transform="matrix(1.0, 0.0, 0.0, 1.0, 33.25, 25.6)">
      <path d="M10.2 -25.35 L10.3 -25.35 11.8 -16.45 9.0 -17.05 10.2 -25.35" fill="#000000" fill-rule="evenodd" stroke="none"/>
      <path d="M-32.6 -21.55 L-32.45 -21.55 -32.6 -21.55" fill="url(#gradient0)" fill-rule="evenodd" stroke="none"/>
      <path d="M-32.6 7.9 L-31.15 5.1 -27.05 5.85 -26.65 6.1 -26.45 6.3 -26.5 6.3 -32.6 7.9" fill="url(#gradient1)" fill-rule="evenodd" stroke="none"/>
      <path d="M38.15 -3.8 L37.2 8.15 26.7 17.45 34.5 14.6 35.25 17.05 -0.1 25.4 -0.1 10.65 -2.0 6.2 -0.1 1.4 -0.1 -14.55 2.65 -3.5 12.7 0.6 38.15 -3.8" fill="url(#gradient2)" fill-rule="evenodd" stroke="none"/>
      <path d="M-0.1 25.4 L-11.5 21.85 -13.75 20.2 -21.45 18.75 -32.6 15.3 -32.6 7.9 -26.5 6.3 -26.45 6.3 -26.65 6.1 -27.05 5.85 -0.1 10.65 -0.1 25.4 M-32.6 0.85 L-32.6 -18.3 -16.75 -9.25 -32.6 -20.8 -32.6 -21.55 -32.45 -21.55 -0.1 -14.55 -0.1 1.4 -2.0 6.2 -32.6 0.85" fill="url(#gradient3)" fill-rule="evenodd" stroke="none"/>
      <path d="M39.0 -20.7 L42.25 -4.5 38.15 -3.8 12.7 0.6 2.65 -3.5 -0.1 -14.55 11.8 -16.45 39.0 -20.7" fill="url(#gradient4)" fill-rule="evenodd" stroke="none"/>
      <path d="M37.2 8.15 L34.5 14.6 26.7 17.45 37.2 8.15 M-31.15 5.1 L-32.6 0.85 -2.0 6.2 -0.1 10.65 -27.05 5.85 -31.15 5.1 M-32.6 -18.3 L-32.6 -20.8 -16.75 -9.25 -32.6 -18.3" fill="#341909" fill-rule="evenodd" stroke="none"/>
      <path d="M9.0 -17.05 L11.8 -16.45 -0.1 -14.55 -32.45 -21.55 -4.6 -19.95 9.0 -17.05" fill="#845440" fill-rule="evenodd" stroke="none"/>
      <path d="M10.3 -25.35 L11.2 -25.2 39.0 -20.7 11.8 -16.45 10.3 -25.35" fill="url(#gradient5)" fill-rule="evenodd" stroke="none"/>
      <path d="M10.25 -25.35 L10.2 -25.35 9.0 -17.05 -4.6 -19.95 -32.45 -21.55 -32.6 -21.55 10.25 -25.35" fill="url(#gradient6)" fill-rule="evenodd" stroke="none"/>
      <path d="M11.2 -25.2 L10.25 -25.35 10.2 -25.35 10.3 -25.35 11.2 -25.2 39.0 -20.7 42.25 -4.5 38.15 -3.8 37.2 8.15 34.5 14.6 35.25 17.05 -0.1 25.4 -11.5 21.85 -13.75 20.2 -21.45 18.75 -32.6 15.3 -32.6 7.9 -31.15 5.1 -32.6 0.85 -32.6 -18.3 -32.6 -20.8 -32.6 -21.55 10.25 -25.35 M11.8 -16.45 L9.0 -17.05 -4.6 -19.95 -32.45 -21.55 -0.1 -14.55 11.8 -16.45 10.3 -25.35 M11.8 -16.45 L39.0 -20.7 M10.2 -25.35 L9.0 -17.05 M38.15 -3.8 L12.7 0.6 2.65 -3.5 -0.1 -14.55 -0.1 1.4 -2.0 6.2 -0.1 10.65 -0.1 25.4 M-32.6 -21.55 L-32.45 -21.55 -32.6 -21.55" fill="none" stroke="#422c1c" stroke-linecap="round" stroke-linejoin="round" stroke-width="0.5"/>
      <path d="M-25.75 -11.25 L-6.1 -5.45 -7.95 5.1 -7.95 8.75 -27.4 3.35 -29.15 1.35 -25.75 -11.25 M-9.85 6.2 L-19.75 3.5 -9.85 6.2 M-9.9 4.75 L-19.55 2.05 -9.9 4.75 M-9.95 3.3 L-19.25 0.6 -9.95 3.3 M-16.9 -5.4 L-25.45 -7.9 -16.9 -5.4 M-16.95 -3.75 L-25.9 -6.35 -16.95 -3.75 M-16.05 -6.65 L-25.15 -9.3 -16.05 -6.65" fill="url(#gradient7)" fill-rule="evenodd" stroke="none"/>
      <path d="M-25.15 -9.3 L-16.05 -6.65 M-25.9 -6.35 L-16.95 -3.75 M-25.45 -7.9 L-16.9 -5.4 M-19.25 0.6 L-9.95 3.3 M-19.55 2.05 L-9.9 4.75 M-19.75 3.5 L-9.85 6.2" fill="none" stroke="#000000" stroke-linecap="round" stroke-linejoin="round" stroke-opacity="0.23137255" stroke-width="0.5"/>
      <path d="M20.25 -2.35 Q11.6 -1.2 5.45 -3.95 -0.65 -6.7 -0.65 -11.65 -0.65 -13.15 -0.15 -14.5 10.95 -15.45 40.3 -20.7 41.2 -19.1 41.2 -17.15 41.2 -12.2 35.05 -7.85 28.9 -3.5 20.25 -2.35" fill="url(#gradient8)" fill-rule="evenodd" stroke="none"/>
      <path d="M-11.65 10.85 Q-11.65 15.85 -15.2 19.15 L-17.0 20.55 -32.3 16.2 -32.4 14.0 -30.75 12.6 -32.85 7.65 -33.25 1.85 -32.45 1.0 Q-28.85 -2.3 -23.8 -1.95 -18.8 -1.65 -15.2 2.05 -11.65 5.85 -11.65 10.85" fill="url(#gradient9)" fill-rule="evenodd" stroke="none"/>
      <path d="M-0.25 8.5 L0.25 -8.5 0.25 -8.6 0.25 -9.05 1.55 -8.35 2.7 -3.45 Q17.6 3.75 10.4 -3.45 36.15 12.1 -0.25 8.55 L-0.25 8.5" fill="url(#gradient10)" fill-rule="evenodd" stroke="none"/>
      <path d="M0.25 -8.6 L0.25 -8.5 -0.25 8.5 -0.7 8.7 Q-4.8 11.7 -9.85 14.0 -18.2 17.8 -24.3 17.4 -30.4 17.05 -30.7 12.75 -31.0 8.45 -25.35 2.8 -22.15 -0.45 -18.05 -3.05 -7.5 -9.55 -6.25 -8.7 L-0.7 -9.95 0.25 -9.3 0.25 -8.6" fill="url(#gradient11)" fill-rule="evenodd" stroke="none"/>
      <path d="M-6.25 -8.7 Q-7.5 -9.55 -18.05 -3.05 L-20.3 -2.8 -32.8 -2.2 -32.8 -20.85 -23.1 -18.25 Q-7.15 -13.4 -6.3 -8.85 L-6.25 -8.7" fill="url(#gradient12)" fill-rule="evenodd" stroke="none"/>
      <path d="M-0.25 8.5 L0.25 -8.5 0.25 -8.6 0.25 -9.3 M-0.25 8.5 L-0.25 8.55 -0.5 17.05 M0.3 -10.8 L0.25 -9.3" fill="none" stroke="#422c1c" stroke-linecap="round" stroke-linejoin="round" stroke-width="0.5"/>
      <path d="M9.35 3.7 L12.65 0.3 38.15 -3.45 37.25 8.6 33.8 16.85 33.25 17.5 1.55 24.9 -1.2 24.15 -0.95 22.0 Q-0.35 18.55 1.55 14.85 L1.85 14.25 Q2.9 12.15 4.4 10.0 L27.05 12.35 9.35 3.7" fill="url(#gradient13)" fill-rule="evenodd" stroke="none"/>
      <path d="M14.25 -18.7 Q14.25 -19.55 14.65 -20.1 15.1 -20.7 15.2 -22.2 L15.65 -22.2 Q16.05 -21.6 16.05 -20.25 16.05 -18.6 14.6 -17.3 14.25 -17.8 14.25 -18.7 M6.8 -19.05 L4.25 -21.2 Q3.65 -21.7 3.65 -22.95 3.65 -23.95 4.05 -24.45 L4.2 -24.45 Q5.7 -24.45 7.4 -20.45 7.4 -19.35 6.8 -19.05 M3.2 -21.0 L3.15 -19.65 2.75 -19.25 Q2.25 -19.85 2.25 -21.0 2.25 -22.45 2.85 -22.8 3.2 -22.1 3.2 -21.0 M1.05 -16.95 L4.35 -16.5 Q5.65 -15.9 1.05 -15.9 -1.35 -15.9 -2.25 -16.35 L-2.45 -16.5 -2.6 -16.7 -4.05 -16.5 -13.85 -19.05 -13.95 -19.25 -12.5 -19.7 Q-5.55 -18.3 -3.25 -17.4 L-3.3 -17.45 Q-2.95 -18.0 -1.65 -18.0 0.2 -18.0 0.2 -16.95 L0.2 -16.9 1.05 -16.95 M19.2 -11.8 Q22.1 -11.6 21.55 -10.75 21.55 -9.9 17.85 -9.9 17.55 -10.2 17.6 -10.75 17.55 -11.9 19.2 -11.8 M15.1 -5.7 L15.65 -4.85 Q15.6 -3.75 14.9 -2.8 L14.8 -2.7 Q14.3 -3.05 14.3 -3.6 L14.45 -4.55 Q14.7 -5.5 15.1 -5.7 M14.9 -1.45 Q14.9 -0.1 14.3 1.4 13.85 1.05 13.85 0.1 13.85 -2.65 14.55 -2.8 14.9 -2.45 14.9 -1.45 M38.45 -15.1 L38.85 -14.3 Q38.85 -13.85 37.7 -12.9 37.25 -13.1 37.25 -13.75 37.25 -15.35 38.45 -15.1 M29.85 -0.25 Q34.2 0.0 35.3 0.6 35.5 0.75 35.5 1.25 L35.4 1.95 Q35.7 2.1 35.05 2.05 29.05 1.7 27.8 1.15 27.4 0.95 27.5 0.7 L27.7 0.45 27.8 -0.1 29.85 -0.25 M20.35 -4.4 L20.25 -5.25 Q20.25 -5.9 21.6 -6.05 L25.7 -6.85 26.1 -5.75 Q26.1 -4.0 22.25 -4.25 L20.35 -4.4 M34.35 -10.1 Q33.9 -10.25 33.9 -10.95 33.9 -12.25 34.85 -12.15 36.25 -12.1 35.95 -11.25 35.9 -10.55 34.35 -10.1 M34.35 -2.8 Q33.85 -3.1 33.9 -3.65 33.85 -6.0 40.35 -9.0 L40.75 -8.2 Q40.7 -7.05 38.0 -5.5 34.9 -3.7 34.35 -2.8 M23.8 3.7 L23.95 3.7 Q25.3 3.8 27.3 8.85 27.3 9.4 26.95 9.65 23.45 5.25 23.45 4.5 23.45 3.9 23.8 3.7 M25.85 11.7 Q26.25 12.05 26.25 12.55 26.25 13.7 25.4 13.65 L23.8 13.45 23.7 12.65 Q23.65 12.1 24.05 12.0 L25.85 11.7 M13.05 9.0 Q13.85 7.05 17.7 7.05 19.1 7.05 19.4 7.5 15.9 8.75 14.45 9.45 L13.05 9.0 13.05 9.05 Q12.8 9.7 13.05 11.15 13.0 12.4 11.1 12.75 L10.05 12.75 Q9.75 12.75 9.75 12.3 L9.95 10.25 9.45 10.25 9.35 9.45 Q9.3 8.3 10.65 8.05 L10.95 8.6 11.7 8.4 Q13.0 8.4 13.05 9.0 M16.65 11.9 L16.65 12.95 Q18.3 13.15 18.15 14.55 18.15 15.35 17.7 15.35 15.85 15.2 15.85 13.85 15.85 13.4 16.0 13.1 15.85 12.55 15.85 11.85 L15.65 11.0 Q15.6 10.25 16.3 10.1 16.65 10.7 16.65 11.9 M6.25 6.05 Q4.05 6.05 1.05 2.25 1.6 1.7 2.6 1.7 5.3 1.7 7.7 5.7 7.25 6.05 6.25 6.05 M3.9 9.0 L5.15 9.15 5.45 11.45 Q5.1 11.9 4.1 11.9 2.85 11.9 2.45 10.85 L2.45 9.15 3.9 9.0 M9.0 18.25 Q9.0 18.85 9.8 19.2 L10.55 19.75 10.4 20.45 10.05 20.5 Q7.55 20.35 8.15 18.25 7.85 16.85 8.65 16.5 L9.0 18.25 M8.0 15.65 Q6.95 15.1 6.95 14.15 6.95 13.15 7.4 13.1 L8.2 14.2 8.45 14.95 8.4 15.5 8.0 15.65 M18.65 20.25 L18.5 20.8 18.15 21.0 Q17.7 20.65 17.7 20.2 17.7 19.45 18.25 19.4 L18.65 20.25 M0.95 25.0 Q-0.65 24.85 -1.95 22.45 -2.0 22.0 -1.6 21.7 L-1.45 21.7 Q-0.75 21.75 1.35 24.2 L1.25 24.85 Q1.6 25.0 0.95 25.0 M-29.9 -14.85 Q-29.9 -15.65 -29.2 -15.6 -27.65 -15.5 -26.45 -14.45 -25.55 -13.6 -25.55 -13.2 -25.55 -12.8 -25.9 -12.4 -27.3 -13.2 -29.1 -13.8 -29.9 -14.05 -29.9 -14.85 M-32.15 -12.9 Q-31.6 -12.85 -31.35 -12.05 L-31.2 -11.2 -31.35 -10.5 -31.65 -10.25 Q-32.6 -11.4 -32.6 -12.1 L-32.4 -12.9 -32.15 -12.9 M-30.65 -10.1 Q-30.0 -9.2 -30.0 -8.5 L-30.05 -7.7 -30.4 -7.5 Q-31.15 -8.35 -31.1 -9.2 -31.1 -10.05 -30.65 -10.1 M-17.4 -9.1 L-18.05 -10.65 Q-18.05 -11.4 -17.5 -11.55 L-15.9 -8.45 Q-15.95 -7.95 -16.3 -7.7 L-17.4 -9.1 M-16.05 -7.2 L-15.8 -7.2 Q-15.2 -7.2 -15.15 -5.75 L-15.25 -4.75 -15.55 -4.6 -16.3 -6.45 -16.05 -7.2 M-16.65 -2.0 Q-16.65 -0.9 -16.9 -0.45 L-17.25 -0.4 -17.5 -2.1 Q-17.55 -3.6 -17.05 -3.8 -16.65 -3.1 -16.65 -2.0 M-7.4 -9.65 L-7.7 -10.45 Q-7.7 -11.0 -6.45 -11.4 L-4.25 -11.7 Q-3.35 -11.65 -3.35 -10.85 -3.35 -10.15 -4.05 -10.0 L-7.4 -9.65 M-0.55 2.45 Q-4.9 2.15 -4.75 0.4 -4.75 -0.35 -4.15 -0.3 0.2 -0.05 -0.1 1.7 L-0.15 2.3 Q0.1 2.45 -0.55 2.45 M-8.6 12.0 L-8.5 12.5 -8.9 13.35 Q-9.85 13.1 -9.85 12.3 -9.85 11.45 -9.4 11.5 L-8.6 12.0 M-11.4 9.9 Q-10.2 11.2 -10.2 11.6 -10.2 12.1 -10.8 12.35 -11.95 11.7 -11.95 10.8 -11.95 10.05 -11.4 9.9 M-19.4 8.1 L-19.75 8.3 Q-22.7 6.2 -22.7 4.3 -22.7 3.15 -22.2 3.05 L-20.45 5.4 Q-19.4 6.8 -19.35 7.55 L-19.4 8.1 M-18.2 16.65 Q-17.9 17.1 -17.9 17.55 -17.9 17.95 -18.2 18.4 -18.75 18.15 -18.75 17.5 -18.75 16.75 -18.2 16.65 M-10.75 20.2 Q-10.75 20.95 -11.15 20.95 -15.95 20.65 -15.05 19.25 -15.05 18.4 -14.45 18.45 -13.75 18.5 -12.25 19.2 -10.75 19.85 -10.75 20.2 M-2.55 18.3 L-2.55 18.65 -4.05 18.9 -5.55 18.45 Q-5.0 17.9 -4.05 17.9 -3.1 17.9 -2.55 18.3 M-7.0 21.0 L-6.65 20.85 Q-4.0 21.0 -4.0 22.0 -4.0 22.8 -4.5 22.8 L-6.7 22.4 -6.9 22.45 -9.0 22.3 -9.15 21.5 Q-9.15 20.65 -8.65 20.7 L-7.0 21.0 M-25.5 17.6 Q-26.45 17.1 -26.4 15.2 -26.45 14.35 -25.9 14.35 -25.5 14.8 -25.1 16.85 L-25.5 17.6" fill="#341a09" fill-opacity="0.7921569" fill-rule="evenodd" stroke="none"/>
      <path d="M5.4 -17.6 Q6.05 -17.1 0.7 -16.6 L-4.4 -15.85 -20.2 -19.05 -1.4 -18.45 5.4 -17.6" fill="url(#gradient14)" fill-rule="evenodd" stroke="none"/>
      <path d="M-22.25 -19.45 L-2.45 -15.15 Q-1.05 -11.55 -1.25 -8.0 -1.55 -3.1 -4.8 -1.25 -8.1 0.6 -12.45 -1.7 -16.8 -4.05 -19.7 -9.15 -22.6 -14.3 -22.3 -19.2 L-22.25 -19.45" fill="url(#gradient15)" fill-rule="evenodd" stroke="none"/>
      <path d="M32.4 14.9 L35.45 17.6 33.6 18.15 Q24.85 20.65 12.5 20.65 L-0.55 19.85 -0.55 4.45 12.5 3.65 Q24.85 3.65 33.6 6.15 35.5 6.65 37.0 7.25 L32.4 14.9" fill="url(#gradient16)" fill-rule="evenodd" stroke="none"/>
    </g>
    <linearGradient gradientTransform="matrix(0.0, 0.0162, -0.0199, 0.0, -16.1, 8.6)" gradientUnits="userSpaceOnUse" id="gradient0" spreadMethod="pad" x1="-819.2" x2="819.2">
      <stop offset="0.0" stop-color="#a37858"/>
      <stop offset="1.0" stop-color="#9d6a4b"/>
    </linearGradient>
    <linearGradient gradientTransform="matrix(-1.3859, 0.0, 0.0, 0.9672, 592.4, -219.5)" gradientUnits="userSpaceOnUse" id="gradient1" spreadMethod="pad" x1="-819.2" x2="819.2">
      <stop offset="0.0" stop-color="#b99782"/>
      <stop offset="1.0" stop-color="#9d6a4b"/>
    </linearGradient>
    <linearGradient gradientTransform="matrix(-0.0028, -0.008, 0.0275, -0.0058, 17.25, 11.45)" gradientUnits="userSpaceOnUse" id="gradient2" spreadMethod="pad" x1="-819.2" x2="819.2">
      <stop offset="0.0" stop-color="#624337"/>
      <stop offset="1.0" stop-color="#845440"/>
    </linearGradient>
    <linearGradient gradientTransform="matrix(0.0, 0.0162, -0.0199, 0.0, -16.1, 8.6)" gradientUnits="userSpaceOnUse" id="gradient3" spreadMethod="pad" x1="-819.2" x2="819.2">
      <stop offset="0.0" stop-color="#624337"/>
      <stop offset="1.0" stop-color="#845440"/>
    </linearGradient>
    <linearGradient gradientTransform="matrix(0.0077, 0.0227, -0.03, 0.0063, 20.05, 1.1)" gradientUnits="userSpaceOnUse" id="gradient4" spreadMethod="pad" x1="-819.2" x2="819.2">
      <stop offset="0.0" stop-color="#624337"/>
      <stop offset="1.0" stop-color="#845440"/>
    </linearGradient>
    <linearGradient gradientTransform="matrix(0.0, 0.0019, -0.0175, 0.0, 24.65, -21.05)" gradientUnits="userSpaceOnUse" id="gradient5" spreadMethod="pad" x1="-819.2" x2="819.2">
      <stop offset="0.0" stop-color="#624337"/>
      <stop offset="1.0" stop-color="#110b09"/>
    </linearGradient>
    <linearGradient gradientTransform="matrix(0.0, 0.0021, -0.0262, 0.0, -11.15, -19.25)" gradientUnits="userSpaceOnUse" id="gradient6" spreadMethod="pad" x1="-819.2" x2="819.2">
      <stop offset="0.0" stop-color="#624337"/>
      <stop offset="1.0" stop-color="#110b09"/>
    </linearGradient>
    <linearGradient gradientTransform="matrix(0.012, 0.0035, -0.0021, 0.0087, -17.7, -1.3)" gradientUnits="userSpaceOnUse" id="gradient7" spreadMethod="pad" x1="-819.2" x2="819.2">
      <stop offset="0.0" stop-color="#f0e9df" stop-opacity="0.5921569"/>
      <stop offset="1.0" stop-color="#e3d6c5" stop-opacity="0.62352943"/>
    </linearGradient>
    <radialGradient cx="0" cy="0" gradientTransform="matrix(0.0262, -0.0034, 0.0, 0.0152, 19.75, -14.5)" gradientUnits="userSpaceOnUse" id="gradient8" r="819.2" spreadMethod="pad">
      <stop offset="0.5176470588235295" stop-color="#432101" stop-opacity="0.7921569"/>
      <stop offset="0.9372549019607843" stop-color="#5c2e01" stop-opacity="0.0"/>
    </radialGradient>
    <radialGradient cx="0" cy="0" gradientTransform="matrix(0.0153, 9.0E-4, 0.0, 0.0152, -24.15, 9.9)" gradientUnits="userSpaceOnUse" id="gradient9" r="819.2" spreadMethod="pad">
      <stop offset="0.5176470588235295" stop-color="#432101" stop-opacity="0.7921569"/>
      <stop offset="0.9372549019607843" stop-color="#5c2e01" stop-opacity="0.0"/>
    </radialGradient>
    <radialGradient cx="0" cy="0" gradientTransform="matrix(0.0184, 0.0111, -0.0171, 0.008, -10.8, -2.25)" gradientUnits="userSpaceOnUse" id="gradient10" r="819.2" spreadMethod="pad">
      <stop offset="0.5176470588235295" stop-color="#432101" stop-opacity="0.7921569"/>
      <stop offset="0.9372549019607843" stop-color="#5c2e01" stop-opacity="0.0"/>
    </radialGradient>
    <radialGradient cx="0" cy="0" gradientTransform="matrix(0.0184, 0.0011, -0.0171, 0.0172, -10.8, 3.4)" gradientUnits="userSpaceOnUse" id="gradient11" r="819.2" spreadMethod="pad">
      <stop offset="0.5176470588235295" stop-color="#432101" stop-opacity="0.7921569"/>
      <stop offset="0.9372549019607843" stop-color="#5c2e01" stop-opacity="0.0"/>
    </radialGradient>
    <radialGradient cx="0" cy="0" gradientTransform="matrix(0.0484, 0.0148, -0.0449, 0.0046, -59.3, -14.95)" gradientUnits="userSpaceOnUse" id="gradient12" r="819.2" spreadMethod="pad">
      <stop offset="0.5176470588235295" stop-color="#432101" stop-opacity="0.7921569"/>
      <stop offset="0.9372549019607843" stop-color="#5c2e01" stop-opacity="0.0"/>
    </radialGradient>
    <radialGradient cx="0" cy="0" gradientTransform="matrix(-0.0173, -0.0065, -0.0235, 0.0278, 21.65, 10.2)" gradientUnits="userSpaceOnUse" id="gradient13" r="819.2" spreadMethod="pad">
      <stop offset="0.5176470588235295" stop-color="#291101" stop-opacity="0.7921569"/>
      <stop offset="0.9372549019607843" stop-color="#5c2e01" stop-opacity="0.0"/>
    </radialGradient>
    <radialGradient cx="0" cy="0" gradientTransform="matrix(0.0184, 9.0E-4, -0.0161, 0.0014, -14.35, -17.35)" gradientUnits="userSpaceOnUse" id="gradient14" r="819.2" spreadMethod="pad">
      <stop offset="0.5176470588235295" stop-color="#291101" stop-opacity="0.7921569"/>
      <stop offset="0.9372549019607843" stop-color="#5c2e01" stop-opacity="0.0"/>
    </radialGradient>
    <radialGradient cx="0" cy="0" gradientTransform="matrix(0.0097, -0.0055, 0.0087, 0.0155, -11.8, -13.6)" gradientUnits="userSpaceOnUse" id="gradient15" r="819.2" spreadMethod="pad">
      <stop offset="0.5176470588235295" stop-color="#291101" stop-opacity="0.7921569"/>
      <stop offset="0.9372549019607843" stop-color="#5c2e01" stop-opacity="0.0"/>
    </radialGradient>
    <radialGradient cx="0" cy="0" gradientTransform="matrix(0.0368, 0.0, 0.0, 0.0105, 12.45, 12.15)" gradientUnits="userSpaceOnUse" id="gradient16" r="819.2" spreadMethod="pad">
      <stop offset="0.5176470588235295" stop-color="#1e261e" stop-opacity="0.7921569"/>
      <stop offset="0.9372549019607843" stop-color="#5c2e01" stop-opacity="0.0"/>
    </radialGradient>
  </defs>
</svg>
