<?xml version="1.0" encoding="UTF-8" standalone="no"?>
<svg xmlns:xlink="http://www.w3.org/1999/xlink" height="62.1px" width="39.0px" xmlns="http://www.w3.org/2000/svg">
  <g transform="matrix(1.0, 0.0, 0.0, 1.0, 19.5, 31.05)">
    <use height="62.1" transform="matrix(1.0, 0.0, 0.0, 1.0, -19.5, -31.05)" width="39.0" xlink:href="#shape0"/>
  </g>
  <defs>
    <g id="shape0" transform="matrix(1.0, 0.0, 0.0, 1.0, 19.5, 31.05)">
      <path d="M17.25 -25.55 L19.25 -26.0 18.35 -21.05 11.85 -18.7 11.85 -24.2 17.25 -25.55 M12.4 -12.7 L16.45 -13.95 13.35 24.0 10.1 26.6 12.4 -12.7" fill="#b6b196" fill-rule="evenodd" stroke="none"/>
      <path d="M-9.4 -28.4 L-9.4 -30.8 17.2 -28.75 17.25 -25.55 11.85 -24.2 11.85 -18.7 11.15 -18.45 9.8 -25.3 -3.5 -27.4 -3.85 -28.85 -8.7 -29.5 -8.75 -28.25 -9.4 -28.4" fill="url(#gradient0)" fill-rule="evenodd" stroke="none"/>
      <path d="M18.35 -21.05 L14.75 25.6 8.35 30.8 Q-4.45 25.2 -17.25 19.55 L-17.25 1.85 9.55 8.95 11.15 -18.45 11.85 -18.7 18.35 -21.05 M8.35 30.8 L9.55 8.95 8.35 30.8 M12.4 -12.7 L10.1 26.6 13.35 24.0 16.45 -13.95 12.4 -12.7" fill="#e6d01a" fill-rule="evenodd" stroke="none"/>
      <path d="M-17.25 -24.45 L-19.25 -29.95 -17.0 -29.6 -10.05 -28.5 -9.4 -28.4 -8.75 -28.25 -8.7 -29.5 -3.85 -28.85 -3.5 -27.4 9.8 -25.3 11.15 -18.45 -17.25 -24.45" fill="#b8a714" fill-rule="evenodd" stroke="none"/>
      <path d="M-17.25 1.85 L-17.25 -24.45 11.15 -18.45 9.55 8.95 -17.25 1.85" fill="url(#gradient1)" fill-rule="evenodd" stroke="none"/>
      <path d="M-17.0 -29.6 L-10.7 -29.75 -10.05 -28.5 -17.0 -29.6" fill="url(#gradient2)" fill-rule="evenodd" stroke="none"/>
      <path d="M17.25 -25.55 L19.25 -26.0 18.35 -21.05 14.75 25.6 8.35 30.8 Q-4.45 25.2 -17.25 19.55 L-17.25 1.85 -17.25 -24.45 -19.25 -29.95 -17.0 -29.6 -10.7 -29.75 -10.05 -28.5 -9.4 -28.4 -9.4 -30.8 17.2 -28.75 17.25 -25.55 11.85 -24.2 11.85 -18.7 18.35 -21.05 M11.85 -18.7 L11.15 -18.45 9.55 8.95 8.35 30.8 M-9.4 -28.4 L-8.75 -28.25 -8.7 -29.5 -3.85 -28.85 -3.5 -27.4 9.8 -25.3 11.15 -18.45 -17.25 -24.45 M-17.0 -29.6 L-10.05 -28.5" fill="none" stroke="#cc9900" stroke-linecap="round" stroke-linejoin="round" stroke-width="0.5"/>
      <path d="M-1.1 5.45 L-1.15 5.4 Q-1.6 4.95 -1.55 4.4 -1.6 3.85 -1.15 3.45 -0.75 3.05 -0.2 3.05 0.35 3.05 0.75 3.45 1.15 3.85 1.2 4.4 1.15 4.95 0.75 5.4 L0.7 5.45 Q0.3 5.8 -0.2 5.8 -0.7 5.8 -1.1 5.45 M-4.25 4.4 Q-3.7 4.4 -3.3 4.85 -3.05 5.1 -2.95 5.45 L-2.95 5.8 Q-2.95 6.35 -3.3 6.75 -3.7 7.15 -4.25 7.15 -4.8 7.15 -5.2 6.75 -5.6 6.35 -5.55 5.8 L-5.55 5.45 -5.2 4.85 Q-4.8 4.4 -4.25 4.4 M-2.1 0.65 L-1.9 1.4 -2.1 2.1 -2.6 2.4 Q-2.9 2.4 -3.1 2.1 L-3.3 1.4 -3.1 0.65 Q-2.9 0.35 -2.6 0.35 -2.35 0.35 -2.1 0.65 M-2.95 -0.35 Q-3.35 -0.75 -3.35 -1.35 -3.35 -2.0 -2.95 -2.4 -2.55 -2.8 -2.0 -2.8 -1.45 -2.8 -1.0 -2.4 -0.6 -2.0 -0.6 -1.35 -0.6 -0.75 -1.0 -0.35 -1.45 0.05 -2.0 0.1 -2.55 0.05 -2.95 -0.35 M-4.4 -3.65 L-4.6 -4.8 -4.4 -5.95 -4.0 -6.4 Q-3.7 -6.4 -3.55 -5.95 L-3.35 -4.8 -3.55 -3.65 Q-3.7 -3.25 -4.0 -3.2 L-4.4 -3.65 M-1.25 -5.5 Q-1.1 -5.1 -1.1 -4.45 -1.1 -3.85 -1.25 -3.4 -1.45 -2.95 -1.7 -2.95 L-2.15 -3.4 -2.35 -4.45 -2.15 -5.5 -1.7 -5.95 -1.25 -5.5 M-5.85 -0.1 L-5.5 -0.55 -5.1 -0.1 Q-4.95 0.35 -4.95 1.0 -4.95 1.6 -5.1 2.05 L-5.5 2.5 -5.85 2.05 -6.05 1.0 -5.85 -0.1 M-1.9 -12.65 L-1.75 -13.7 -1.35 -14.15 -1.0 -13.7 -0.8 -12.65 -1.0 -11.55 -1.35 -11.15 -1.75 -11.55 -1.9 -12.65 M6.35 -1.35 L6.7 -0.9 6.9 0.15 6.7 1.2 6.35 1.65 5.95 1.2 Q5.8 0.75 5.8 0.15 5.8 -0.45 5.95 -0.9 L6.35 -1.35 M6.75 -5.4 L7.25 -5.1 7.45 -4.25 7.25 -3.45 6.75 -3.1 Q6.45 -3.1 6.25 -3.45 L6.05 -4.25 6.25 -5.1 Q6.45 -5.45 6.75 -5.4 M0.75 -4.55 L0.3 -4.25 Q0.0 -4.25 -0.2 -4.55 L-0.4 -5.2 -0.2 -5.9 Q0.0 -6.2 0.3 -6.2 L0.75 -5.9 1.0 -5.2 0.75 -4.55 M0.1 -3.5 Q0.5 -3.9 1.05 -3.9 1.6 -3.9 2.0 -3.5 2.4 -3.1 2.4 -2.45 2.4 -1.85 2.0 -1.45 1.6 -1.05 1.05 -1.0 0.5 -1.05 0.1 -1.45 L-0.35 -2.45 0.1 -3.5 M3.4 -4.2 Q3.8 -4.6 4.35 -4.6 4.85 -4.6 5.25 -4.2 5.65 -3.8 5.65 -3.2 5.65 -2.7 5.25 -2.25 4.85 -1.85 4.35 -1.85 3.8 -1.85 3.4 -2.25 3.0 -2.7 3.05 -3.2 3.0 -3.8 3.4 -4.2 M0.75 -8.45 Q0.75 -7.75 0.3 -7.3 -0.15 -6.9 -0.8 -6.85 -1.5 -6.9 -1.95 -7.3 -2.4 -7.75 -2.4 -8.45 L-1.95 -9.6 Q-1.5 -10.05 -0.8 -10.05 -0.15 -10.05 0.3 -9.6 L0.75 -8.45 M2.05 -6.3 L1.85 -7.35 2.05 -8.4 2.4 -8.8 2.8 -8.4 2.95 -7.35 2.8 -6.3 2.4 -5.9 Q2.2 -5.9 2.05 -6.3 M8.25 -7.55 Q8.25 -8.2 8.4 -8.6 L8.75 -9.0 9.1 -8.6 9.25 -7.55 9.1 -6.5 8.75 -6.1 8.4 -6.5 Q8.25 -6.95 8.25 -7.55 M5.2 -8.8 L5.6 -9.25 5.95 -8.8 6.15 -7.75 5.95 -6.7 5.6 -6.25 Q5.35 -6.25 5.2 -6.7 5.05 -7.15 5.05 -7.75 L5.2 -8.8 M8.25 -15.8 L8.65 -15.4 8.8 -14.35 8.65 -13.35 8.25 -12.9 7.9 -13.35 7.7 -14.35 7.9 -15.4 Q8.05 -15.8 8.25 -15.8 M4.5 -13.45 Q4.9 -13.05 4.9 -12.45 4.9 -11.85 4.5 -11.4 4.05 -11.0 3.5 -11.0 2.95 -11.0 2.55 -11.4 2.15 -11.85 2.15 -12.45 2.15 -13.05 2.55 -13.45 2.95 -13.9 3.5 -13.9 4.05 -13.9 4.5 -13.45 M0.15 -14.75 L0.6 -14.55 0.75 -14.0 0.6 -13.45 0.15 -13.25 Q-0.15 -13.25 -0.3 -13.45 L-0.45 -14.0 -0.3 -14.55 0.15 -14.75 M-6.05 8.1 L-6.3 9.8 -6.5 9.65 -6.8 7.5 -6.55 7.05 -6.35 7.05 -6.2 7.35 -6.1 7.8 -6.05 8.1 M-10.8 5.45 L-11.35 5.45 -11.45 5.45 -11.4 5.15 -10.8 5.45 M-0.55 12.95 Q-0.8 14.2 -1.0 14.35 -1.15 14.45 -1.3 14.2 L-1.5 13.4 -1.55 12.25 -1.55 12.0 Q-1.3 10.4 -1.1 10.4 -0.9 10.4 -0.75 11.0 -0.6 11.55 -0.6 12.4 L-0.55 12.95 M-2.9 10.9 L-3.35 11.65 -3.9 9.9 Q-3.65 8.2 -3.45 8.15 -3.3 8.05 -3.1 8.7 -2.95 9.3 -2.95 10.2 L-2.9 10.9 M-0.55 8.95 L-0.35 8.4 0.1 8.2 0.55 8.4 0.7 8.95 0.55 9.5 0.1 9.7 -0.35 9.5 -0.55 8.95 M-2.05 7.6 L-1.9 6.5 -1.45 6.05 Q-1.15 6.05 -1.0 6.5 L-0.8 7.6 -1.0 8.65 Q-1.15 9.05 -1.45 9.1 L-1.9 8.65 -2.05 7.6 M-3.25 12.25 L-2.9 12.05 -2.5 12.25 Q-2.35 12.45 -2.35 12.75 L-2.5 13.2 -2.55 13.25 -2.9 13.4 -3.25 13.2 -3.45 12.85 -3.45 12.75 -3.4 12.45 -3.25 12.25 M1.95 10.9 L2.15 12.05 1.95 13.2 1.55 13.65 Q1.25 13.6 1.1 13.2 L0.9 12.05 1.1 10.9 Q1.25 10.45 1.55 10.45 L1.95 10.9 M3.1 8.15 Q3.5 8.55 3.5 9.1 3.5 9.65 3.1 10.05 2.7 10.45 2.15 10.45 1.6 10.45 1.2 10.05 0.75 9.65 0.75 9.1 0.75 8.55 1.2 8.15 1.6 7.7 2.15 7.7 2.7 7.7 3.1 8.15 M2.1 0.3 Q2.5 0.7 2.5 1.25 2.5 1.8 2.1 2.2 1.7 2.6 1.2 2.65 0.65 2.6 0.25 2.2 -0.15 1.8 -0.1 1.25 -0.15 0.7 0.25 0.3 0.65 -0.15 1.2 -0.1 1.7 -0.15 2.1 0.3 M3.3 2.9 L3.5 1.85 Q3.65 1.4 3.85 1.4 L4.25 1.85 4.4 2.9 4.25 3.95 3.85 4.4 3.5 3.95 3.3 2.9" fill="#deb307" fill-rule="evenodd" stroke="none"/>
      <path d="M-11.35 5.45 Q-10.05 10.3 4.0 18.6 L4.05 18.65 -3.5 22.55 Q-10.1 20.8 -12.8 14.8 L-11.45 5.45 -11.35 5.45" fill="#0066cc" fill-rule="evenodd" stroke="none"/>
      <path d="M-6.8 7.5 L-6.5 9.65 -6.3 9.8 -6.05 8.1 -3.9 9.9 -3.35 11.65 -2.9 10.9 -2.9 10.8 -1.55 12.0 -1.55 12.25 -1.5 13.4 -1.3 14.2 Q-1.15 14.45 -1.0 14.35 -0.8 14.2 -0.55 12.95 L4.0 18.6 Q-10.05 10.3 -11.35 5.45 L-10.8 5.45 -6.8 7.5 M-3.25 12.25 L-3.4 12.45 -3.45 12.75 -3.45 12.85 -3.25 13.2 -2.9 13.4 -2.55 13.25 -2.5 13.2 -2.35 12.75 Q-2.35 12.45 -2.5 12.25 L-2.9 12.05 -3.25 12.25" fill="#014587" fill-rule="evenodd" stroke="none"/>
      <path d="M4.15 -3.8 Q4.1 -4.85 4.45 -5.3 4.85 -5.8 5.6 -5.65 L6.05 -5.55 Q6.75 -5.4 7.15 -4.7 L7.5 -3.05 7.5 -0.55 Q7.45 0.4 7.2 0.75 6.9 1.2 6.2 1.05 L5.4 0.85 Q4.65 0.7 4.35 0.15 4.1 -0.35 4.15 -1.3 L4.15 -3.8 M5.45 -2.5 L5.25 -2.3 5.25 -0.55 Q5.25 -0.3 5.45 -0.25 L6.1 -0.1 6.35 -0.3 6.35 -2.05 6.1 -2.35 5.45 -2.5 M1.35 -3.8 L1.8 -6.4 3.7 -5.95 3.7 0.5 2.55 0.25 2.55 -4.3 1.75 0.05 0.25 -0.25 -0.6 -4.75 -0.6 -0.45 -1.75 -0.7 -1.75 -7.15 1.0 -6.55 1.35 -3.8 M-11.6 -9.35 L-12.8 -4.85 -12.8 -3.2 -13.95 -3.45 -13.95 -5.1 -15.2 -10.15 -14.05 -9.85 -13.65 -8.1 -13.15 -7.95 -12.75 -9.6 -11.6 -9.35 M-10.3 -9.05 L-10.3 -6.0 -10.05 -5.65 -9.35 -5.5 Q-9.15 -5.45 -9.15 -5.75 L-9.15 -8.8 -8.05 -8.55 -8.05 -4.25 Q-8.05 -2.1 -9.5 -2.4 L-9.95 -2.5 Q-11.35 -2.85 -11.35 -5.0 L-11.35 -9.3 -10.3 -9.05 M-2.2 -7.25 L-2.2 -0.8 -3.35 -1.05 -3.35 -5.6 -4.15 -1.25 -5.65 -1.55 -6.5 -6.05 -6.5 -1.75 -7.65 -2.0 -7.65 -8.45 -4.9 -7.85 -4.5 -5.1 -4.1 -7.65 -2.2 -7.25" fill="#0066cc" fill-rule="evenodd" stroke="none"/>
      <path d="M-2.6 -15.05 Q-0.45 -10.75 -0.45 -4.7 -0.45 1.35 -2.6 5.65 -4.75 9.95 -7.8 9.95 -10.8 9.95 -13.0 5.65 -15.15 1.35 -15.15 -4.7 -15.15 -10.75 -13.0 -15.05 -10.8 -19.35 -7.8 -19.35 -4.75 -19.35 -2.6 -15.05" fill="url(#gradient3)" fill-rule="evenodd" stroke="none"/>
      <path d="M-13.05 -28.7 Q-2.05 -27.5 -2.3 -24.8 -2.55 -22.1 -3.5 -19.45 -4.45 -16.85 -4.45 -10.75 -4.45 -4.7 -6.6 -0.4 -8.75 3.9 -11.8 3.9 -14.85 3.9 -17.0 -0.4 L-17.45 -1.4 -17.2 -8.45 -16.95 -24.2 -19.3 -30.2 -13.05 -28.7" fill="url(#gradient4)" fill-rule="evenodd" stroke="none"/>
      <path d="M8.9 29.9 L7.85 30.5 -4.3 25.1 -5.05 23.5 Q-7.95 16.55 -8.5 10.5 -9.05 4.45 -6.9 2.75 -4.75 1.05 -1.15 4.75 2.45 8.4 5.35 15.3 6.85 18.85 7.75 22.25 L7.85 22.7 8.8 28.25 8.9 29.9" fill="url(#gradient5)" fill-rule="evenodd" stroke="none"/>
      <path d="M6.65 -25.05 Q7.2 -25.1 7.8 -23.0 L7.8 -22.9 7.8 -20.1 Q7.4 -20.65 6.95 -21.75 L6.7 -22.45 5.1 -21.75 2.6 -21.1 Q2.1 -21.1 2.2 -22.1 2.2 -22.9 3.65 -23.45 L6.35 -24.0 6.35 -24.05 6.55 -25.05 6.65 -25.05 M12.9 -23.3 Q12.9 -24.9 13.15 -24.9 13.5 -24.9 13.4 -23.85 13.4 -22.95 13.0 -22.35 L12.9 -23.3 M13.8 -23.5 Q13.75 -25.45 14.1 -25.3 L14.2 -24.3 13.9 -22.55 13.8 -23.5 M11.15 -23.05 L11.1 -22.4 11.0 -22.15 10.9 -23.05 Q10.9 -23.9 11.05 -24.1 L11.15 -23.05 M13.45 -15.95 Q13.45 -14.9 12.5 -14.6 L12.45 -15.65 Q12.45 -17.05 12.85 -17.0 13.6 -17.05 13.45 -15.95 M15.9 -14.35 Q15.1 -11.95 15.0 -10.8 14.85 -11.1 14.85 -11.8 14.85 -14.6 16.55 -18.75 L16.6 -17.8 Q16.6 -16.4 15.9 -14.35 M9.9 -19.3 L9.9 -22.1 10.05 -20.05 9.95 -19.1 9.9 -19.3 M0.65 -13.4 Q0.65 -14.1 1.4 -14.65 2.05 -15.2 2.7 -15.15 3.25 -15.2 3.3 -14.2 3.3 -13.35 2.85 -13.15 L0.85 -12.45 0.65 -13.4 M2.8 -1.35 Q5.4 -1.35 5.2 0.8 L5.2 1.5 Q5.35 1.7 4.95 1.7 2.35 1.7 2.45 -0.45 2.45 -1.35 2.8 -1.35 M14.55 -11.5 L14.65 -10.2 Q14.6 -8.1 13.65 -8.1 L13.15 -8.15 13.15 -9.15 Q13.1 -9.95 13.5 -10.25 L14.55 -11.5 M11.65 -7.9 L11.8 -9.35 11.95 -8.35 11.75 -5.8 11.75 -5.7 Q11.6 -6.05 11.6 -6.75 L11.65 -7.9 M11.65 -0.85 L11.6 -0.7 11.6 -0.8 11.65 -0.85 M11.5 -2.45 Q11.5 -5.6 11.65 -5.8 L11.75 -4.2 11.75 -2.75 11.5 -2.45 M14.05 1.4 L14.1 1.4 Q14.45 1.4 14.95 7.4 L14.85 8.35 Q13.95 3.3 13.95 2.4 L14.05 1.4 M10.75 8.65 Q10.75 10.55 10.35 10.4 L10.3 9.45 Q10.3 8.1 10.65 7.7 L10.75 8.65 M12.2 11.9 L12.2 13.15 Q12.6 13.25 12.6 14.95 L12.5 15.95 Q12.0 15.95 12.0 14.3 L12.05 13.4 12.0 11.9 11.95 10.9 Q11.95 9.95 12.1 9.75 L12.2 11.9 M14.65 11.35 L14.7 11.95 Q14.65 13.35 14.45 13.35 L14.05 13.25 14.0 12.35 14.25 12.95 14.4 12.9 14.65 11.35 M9.7 14.0 L9.85 14.5 9.85 16.8 Q9.45 16.25 9.45 15.3 9.45 14.15 9.7 14.0 M10.05 15.3 L10.1 16.15 10.1 16.8 10.0 17.1 9.9 16.8 9.9 14.5 10.05 15.3 M0.15 14.5 L-0.1 15.5 Q-0.65 15.3 -0.65 14.35 -0.65 13.35 -0.35 13.35 -0.05 13.35 0.1 13.9 L0.15 14.5 M1.3 24.45 Q2.85 24.4 2.9 25.65 2.85 26.65 2.6 26.65 1.65 26.65 1.25 26.35 L1.1 26.45 -0.15 26.4 -0.2 25.4 Q-0.2 24.4 0.1 24.45 L1.1 24.65 1.3 24.45 M10.45 21.25 L10.65 21.85 10.6 22.7 10.5 22.8 Q9.85 22.8 10.0 20.2 9.95 18.55 10.15 18.0 L10.25 20.1 Q10.2 20.85 10.45 21.25 M12.5 21.85 L12.6 20.85 12.7 21.85 12.7 22.5 12.6 22.8 12.5 21.85 M5.85 28.9 Q4.9 28.9 4.1 26.05 L4.3 25.1 4.4 25.1 Q4.85 25.05 6.1 27.9 L6.0 28.7 Q6.25 28.9 5.85 28.9 M-6.35 -25.65 Q-4.9 -26.35 -4.5 -26.75 L-3.65 -26.65 -3.7 -25.85 -5.9 -25.4 -6.35 -25.65 M-5.25 -13.95 L-4.3 -10.4 -4.5 -9.4 Q-4.8 -9.75 -5.15 -11.05 L-5.55 -12.9 -5.25 -13.95 M-14.9 -21.8 Q-14.4 -20.8 -13.6 -20.25 -13.1 -19.9 -13.05 -19.25 -13.1 -18.55 -13.4 -18.3 L-14.95 -19.65 Q-15.25 -20.0 -15.25 -20.7 L-15.15 -21.8 -14.9 -21.8 M-13.55 -13.55 L-13.45 -12.55 -13.55 -11.7 -13.75 -11.4 Q-14.3 -12.7 -14.3 -13.55 L-14.2 -14.5 -14.05 -14.5 Q-13.7 -14.5 -13.55 -13.55 M-12.2 -15.85 Q-12.7 -16.1 -12.65 -17.05 -12.65 -18.05 -12.25 -18.05 -11.35 -18.05 -10.6 -16.85 -10.05 -15.9 -10.05 -15.4 L-10.25 -14.4 -12.2 -15.85 M-13.0 -8.15 Q-13.45 -9.15 -13.4 -10.15 L-13.15 -11.3 -12.75 -9.4 -12.8 -8.4 -13.0 -8.15 M-8.35 5.2 Q-8.35 4.2 -8.05 4.0 L-7.0 6.8 Q-6.35 8.35 -6.35 9.3 L-6.4 9.95 -6.6 10.2 Q-7.65 8.8 -8.1 7.45 L-7.8 7.6 Q-7.5 7.25 -7.5 6.75 -7.5 6.05 -8.35 5.2 M-3.85 -7.1 L-3.9 -5.95 -4.05 -5.7 -4.5 -7.85 -4.35 -8.85 -4.2 -8.85 Q-3.85 -8.85 -3.85 -7.1 M-5.25 -2.55 Q-5.25 -4.35 -4.95 -4.6 -4.7 -3.85 -4.7 -2.5 -4.7 -1.15 -4.85 -0.6 L-5.1 -0.5 -5.25 -2.55 M-14.5 11.6 L-14.45 10.95 Q-14.35 10.6 -13.95 10.6 -12.85 10.6 -12.55 11.25 L-12.5 12.0 -12.5 12.9 -12.6 13.05 Q-14.15 13.05 -14.45 12.45 L-14.55 11.95 -14.5 11.6 M-10.25 18.0 Q-10.05 18.55 -9.8 20.95 L-10.05 21.95 Q-10.6 21.4 -10.6 19.05 -10.6 18.05 -10.25 18.0 M-1.2 14.45 Q-1.9 13.75 -1.9 12.65 -1.9 11.8 -1.55 11.55 -0.85 13.0 -0.85 13.5 -0.85 14.1 -1.2 14.45 M-5.65 22.35 Q-6.0 22.1 -6.0 21.3 -6.0 20.35 -5.65 20.25 -5.5 20.75 -5.5 21.3 L-5.65 22.35 M-2.05 22.85 Q-1.15 23.55 -1.15 23.95 -1.2 24.9 -1.4 24.9 -4.3 24.9 -3.75 23.15 -3.75 22.15 -3.4 22.15 -3.0 22.15 -2.05 22.85" fill="#341a09" fill-opacity="0.7921569" fill-rule="evenodd" stroke="none"/>
      <path d="M11.75 -2.75 Q12.65 -3.9 14.5 -5.65 L14.8 -4.75 Q14.8 -3.9 13.3 -2.6 12.1 -1.6 11.65 -0.85 L11.6 -0.8 11.3 -0.35 Q10.85 -0.6 10.85 -1.2 L11.5 -2.45 11.75 -2.75 M10.85 0.3 Q11.15 0.3 11.2 1.65 L10.95 2.65 Q10.45 2.25 10.45 1.25 L10.7 0.3 10.85 0.3 M11.45 3.5 Q11.45 2.65 11.85 2.65 12.25 2.65 12.55 4.5 L12.25 5.35 Q11.45 4.55 11.45 3.5 M14.0 12.35 L13.9 12.05 Q13.9 10.15 14.4 10.0 L14.65 11.25 14.65 11.35 14.4 12.9 14.25 12.95 14.0 12.35 M8.05 14.05 L6.7 14.85 Q6.4 14.7 6.4 14.0 6.4 12.35 7.95 12.35 8.35 12.35 8.35 13.25 8.35 13.85 8.05 14.05 M3.3 17.25 Q3.7 17.25 3.7 18.3 3.7 19.1 3.15 19.1 L-0.1 20.35 Q-0.4 20.35 -0.45 19.5 -0.45 18.85 1.4 18.0 L3.3 17.25 M13.7 19.9 Q12.85 20.9 11.65 20.9 L11.3 20.0 Q11.3 19.05 12.45 18.85 L14.05 17.7 14.35 18.6 Q14.35 19.15 13.7 19.9 M11.05 26.4 L10.75 25.55 Q10.75 24.75 12.3 23.95 L12.55 24.8 Q12.55 26.4 11.05 26.4 M-5.9 -25.4 Q-5.4 -25.05 -5.4 -24.6 -5.4 -23.7 -5.7 -23.7 L-11.7 -25.1 Q-17.7 -26.7 -17.7 -27.85 -17.7 -28.75 -17.2 -28.75 L-10.15 -26.6 -7.4 -26.05 -6.35 -25.65 -5.9 -25.4 M-13.35 -23.4 Q-15.0 -23.75 -15.0 -24.6 -15.0 -25.5 -14.45 -25.5 -12.7 -25.5 -11.35 -24.4 -10.3 -23.5 -10.3 -23.0 -10.3 -22.2 -10.6 -22.2 L-13.35 -23.4 M-8.1 7.45 L-12.95 3.4 Q-16.35 0.2 -16.35 -0.25 L-16.05 -1.2 -15.95 -1.2 Q-15.0 -1.2 -11.3 2.85 L-8.9 4.75 -8.35 5.2 Q-7.5 6.05 -7.5 6.75 -7.5 7.25 -7.8 7.6 L-8.1 7.45 M-0.5 4.85 Q0.15 5.5 0.15 5.85 0.15 6.7 -0.2 6.7 -2.25 6.7 -2.25 5.0 -2.25 4.15 -1.8 4.15 -1.2 4.15 -0.5 4.85" fill="#341a09" fill-opacity="0.5372549" fill-rule="evenodd" stroke="none"/>
      <path d="M7.2 22.9 Q7.2 26.55 5.55 29.2 -2.5 25.8 -7.35 24.05 L-7.4 22.9 Q-7.4 18.8 -5.25 15.85 -3.1 12.95 -0.1 12.95 2.9 12.95 5.05 15.85 7.2 18.8 7.2 22.9" fill="url(#gradient6)" fill-rule="evenodd" stroke="none"/>
      <path d="M9.15 19.0 L8.4 16.75 Q5.6 6.55 4.3 5.75 -0.7 2.6 -0.4 -3.15 -0.15 -8.9 5.25 -13.85 6.5 -15.05 7.95 -17.45 L8.25 -18.0 Q10.6 -26.3 10.9 -20.0 L11.8 -22.15 11.8 -22.1 Q10.4 -11.35 9.15 19.0" fill="url(#gradient7)" fill-rule="evenodd" stroke="none"/>
      <path d="M11.8 -22.1 L12.75 -24.3 Q16.4 -15.05 18.05 -5.6 L14.6 25.8 9.9 28.7 Q10.65 24.65 10.4 23.9 L10.05 22.85 9.0 19.25 9.1 19.3 9.15 19.0 Q10.4 -11.35 11.8 -22.1" fill="url(#gradient8)" fill-rule="evenodd" stroke="none"/>
      <path d="M-17.05 -0.9 Q-10.2 -3.15 -2.0 -1.1 3.35 0.25 9.75 2.95 L8.75 18.7 8.25 25.95 8.1 26.15 8.1 30.3 7.75 26.3 7.3 26.5 6.55 26.75 2.0 27.95 -17.05 19.45 -17.05 -0.9" fill="url(#gradient9)" fill-rule="evenodd" stroke="none"/>
      <path d="M8.75 11.85 Q3.7 14.55 0.0 13.85 -8.2 12.3 -14.0 3.05 L-14.45 2.4 -16.0 1.15 -16.1 1.05 -15.2 0.25 -17.35 -3.0 -16.25 -19.6 -16.0 -19.8 Q-13.9 -21.7 -11.35 -22.75 -11.3 -30.7 9.95 -26.1 12.6 -19.85 8.75 11.85" fill="url(#gradient10)" fill-rule="evenodd" stroke="none"/>
      <path d="M-16.7 -22.3 Q-8.8 -28.9 -3.9 -15.3 2.25 -11.7 -1.2 -9.25 0.05 -2.55 0.1 0.2 0.05 2.95 -1.4 5.15 -5.7 23.65 -17.1 17.65 L-17.1 -19.2 Q-16.95 -11.85 -16.7 -22.3" fill="url(#gradient11)" fill-rule="evenodd" stroke="none"/>
    </g>
    <linearGradient gradientTransform="matrix(0.0, 0.0, 0.0, 0.0, 0.0, 0.0)" gradientUnits="userSpaceOnUse" id="gradient0" spreadMethod="pad" x1="-819.2" x2="819.2">
      <stop offset="0.0" stop-color="#4d372b"/>
      <stop offset="1.0" stop-color="#9d6a4b"/>
    </linearGradient>
    <linearGradient gradientTransform="matrix(0.0, -0.0204, 0.0173, 0.0, -3.05, -7.75)" gradientUnits="userSpaceOnUse" id="gradient1" spreadMethod="pad" x1="-819.2" x2="819.2">
      <stop offset="0.5568627450980392" stop-color="#e6e466"/>
      <stop offset="1.0" stop-color="#d19d25"/>
    </linearGradient>
    <linearGradient gradientTransform="matrix(0.0, 8.0E-4, -0.0042, 0.0, -13.5, -29.15)" gradientUnits="userSpaceOnUse" id="gradient2" spreadMethod="pad" x1="-819.2" x2="819.2">
      <stop offset="0.0" stop-color="#a37858"/>
      <stop offset="1.0" stop-color="#9d6a4b"/>
    </linearGradient>
    <radialGradient cx="0" cy="0" gradientTransform="matrix(0.0092, 0.0, 0.0, 0.0184, -7.95, -4.9)" gradientUnits="userSpaceOnUse" id="gradient3" r="819.2" spreadMethod="pad">
      <stop offset="0.5176470588235295" stop-color="#432101" stop-opacity="0.7921569"/>
      <stop offset="0.9372549019607843" stop-color="#5c2e01" stop-opacity="0.0"/>
    </radialGradient>
    <radialGradient cx="0" cy="0" gradientTransform="matrix(0.0114, 0.0, 0.0, -0.0228, -14.65, -17.35)" gradientUnits="userSpaceOnUse" id="gradient4" r="819.2" spreadMethod="pad">
      <stop offset="0.5176470588235295" stop-color="#432101" stop-opacity="0.7921569"/>
      <stop offset="0.9372549019607843" stop-color="#5c2e01" stop-opacity="0.0"/>
    </radialGradient>
    <radialGradient cx="0" cy="0" gradientTransform="matrix(0.0066, -0.0052, 0.009, 0.0213, 0.15, 19.4)" gradientUnits="userSpaceOnUse" id="gradient5" r="819.2" spreadMethod="pad">
      <stop offset="0.5176470588235295" stop-color="#291101" stop-opacity="0.7921569"/>
      <stop offset="0.9372549019607843" stop-color="#5c2e01" stop-opacity="0.0"/>
    </radialGradient>
    <radialGradient cx="0" cy="0" gradientTransform="matrix(0.009, 0.0, 0.0, 0.0122, -0.1, 22.9)" gradientUnits="userSpaceOnUse" id="gradient6" r="819.2" spreadMethod="pad">
      <stop offset="0.5176470588235295" stop-color="#1e261e" stop-opacity="0.7921569"/>
      <stop offset="0.9372549019607843" stop-color="#5c2e01" stop-opacity="0.0"/>
    </radialGradient>
    <radialGradient cx="0" cy="0" gradientTransform="matrix(-0.0163, 0.0151, 0.0152, 0.0094, 17.45, -6.75)" gradientUnits="userSpaceOnUse" id="gradient7" r="819.2" spreadMethod="pad">
      <stop offset="0.5176470588235295" stop-color="#432101" stop-opacity="0.7921569"/>
      <stop offset="0.9372549019607843" stop-color="#5c2e01" stop-opacity="0.0"/>
    </radialGradient>
    <radialGradient cx="0" cy="0" gradientTransform="matrix(-0.0093, 0.0, 0.0086, 0.0514, 10.8, -5.65)" gradientUnits="userSpaceOnUse" id="gradient8" r="819.2" spreadMethod="pad">
      <stop offset="0.5176470588235295" stop-color="#432101" stop-opacity="0.7921569"/>
      <stop offset="0.9372549019607843" stop-color="#5c2e01" stop-opacity="0.0"/>
    </radialGradient>
    <radialGradient cx="0" cy="0" gradientTransform="matrix(-0.0045, 0.0178, 0.026, 0.0065, -5.85, 12.65)" gradientUnits="userSpaceOnUse" id="gradient9" r="819.2" spreadMethod="pad">
      <stop offset="0.5176470588235295" stop-color="#432101" stop-opacity="0.7921569"/>
      <stop offset="0.9372549019607843" stop-color="#5c2e01" stop-opacity="0.0"/>
    </radialGradient>
    <radialGradient cx="0" cy="0" gradientTransform="matrix(-0.0262, 0.0, 0.0, 0.0262, 1.75, -9.3)" gradientUnits="userSpaceOnUse" id="gradient10" r="819.2" spreadMethod="pad">
      <stop offset="0.5176470588235295" stop-color="#291101" stop-opacity="0.7921569"/>
      <stop offset="0.9372549019607843" stop-color="#5c2e01" stop-opacity="0.0"/>
    </radialGradient>
    <radialGradient cx="0" cy="0" gradientTransform="matrix(0.0194, 0.0, 0.0, 0.0282, -14.5, -1.65)" gradientUnits="userSpaceOnUse" id="gradient11" r="819.2" spreadMethod="pad">
      <stop offset="0.5176470588235295" stop-color="#1e261e" stop-opacity="0.7921569"/>
      <stop offset="0.9372549019607843" stop-color="#5c2e01" stop-opacity="0.0"/>
    </radialGradient>
  </defs>
</svg>
