<?xml version="1.0" encoding="UTF-8" standalone="no"?>
<svg xmlns:xlink="http://www.w3.org/1999/xlink" height="88.2px" width="81.3px" xmlns="http://www.w3.org/2000/svg">
  <g transform="matrix(1.0, 0.0, 0.0, 1.0, 40.6, 44.1)">
    <use height="88.2" transform="matrix(1.0, 0.0, 0.0, 1.0, -40.6, -44.1)" width="81.3" xlink:href="#shape0"/>
  </g>
  <defs>
    <g id="shape0" transform="matrix(1.0, 0.0, 0.0, 1.0, 40.6, 44.1)">
      <path d="M38.9 4.85 L40.45 6.25 37.3 9.25 38.9 4.85" fill="url(#gradient0)" fill-rule="evenodd" stroke="none"/>
      <path d="M3.8 43.85 L-1.75 42.05 -0.9 41.45 Q1.75 40.8 2.25 40.05 L2.4 38.7 Q2.35 36.25 3.3 33.6 3.65 32.55 3.8 30.35 L3.8 43.85 M-1.85 -37.85 L5.3 -36.75 0.8 -35.65 -2.75 -34.75 -3.15 -34.65 -10.95 -32.7 -14.2 -32.65 -12.25 -28.1 -7.95 -26.1 -7.8 -26.05 -7.3 -25.85 -5.45 -24.95 3.8 -20.7 -40.35 -30.65 -24.1 -32.05 -1.85 -37.85" fill="#000000" fill-rule="evenodd" stroke="none"/>
      <path d="M-1.75 42.05 L-37.5 30.35 -37.65 26.65 -35.75 24.15 -38.15 16.1 -39.1 -4.2 -14.2 29.1 -39.4 -9.95 -39.95 -21.55 -5.75 2.2 -40.2 -27.2 -40.35 -30.65 3.8 -20.7 3.8 -13.35 5.75 -9.45 3.8 -3.1 3.8 30.35 Q3.65 32.55 3.3 33.6 2.35 36.25 2.4 38.7 L2.25 40.05 Q1.75 40.8 -0.9 41.45 L-1.75 42.05" fill="url(#gradient1)" fill-rule="evenodd" stroke="none"/>
      <path d="M40.45 -26.75 L40.45 0.4 17.25 28.75 37.3 9.25 40.45 6.25 40.45 27.5 3.8 43.85 3.8 30.35 3.8 -3.1 5.75 -9.45 3.8 -13.35 3.8 -20.7 40.45 -32.05 40.45 -30.8 22.55 -12.1 40.45 -26.75" fill="url(#gradient2)" fill-rule="evenodd" stroke="none"/>
      <path d="M-40.35 -30.65 L16.6 -43.85 -1.85 -37.85 -24.1 -32.05 -40.35 -30.65 M5.3 -36.75 L18.8 -40.15 40.45 -32.05 3.8 -20.7 -5.45 -24.95 0.8 -35.65 5.3 -36.75 M-12.25 -28.1 L-10.95 -32.7 -3.15 -34.65 -2.75 -34.75 -7.3 -25.85 -7.8 -26.05 -7.95 -26.1 -12.25 -28.1" fill="url(#gradient3)" fill-rule="evenodd" stroke="none"/>
      <path d="M40.45 -30.8 L40.45 -26.75 22.55 -12.1 40.45 -30.8 M40.45 0.4 L38.9 4.85 37.3 9.25 17.25 28.75 40.45 0.4 M-39.1 -4.2 L-39.4 -9.95 -14.2 29.1 -39.1 -4.2 M-39.95 -21.55 L-40.2 -27.2 -5.75 2.2 -39.95 -21.55 M0.8 -35.65 L-5.45 -24.95 -7.3 -25.85 -2.75 -34.75 0.8 -35.65 M-12.25 -28.1 L-14.2 -32.65 -10.95 -32.7 -12.25 -28.1" fill="#6b4837" fill-rule="evenodd" stroke="none"/>
      <path d="M40.45 -30.8 L40.45 -26.75 40.45 0.4 38.9 4.85 40.45 6.25 40.45 27.5 3.8 43.85 -1.75 42.05 -37.5 30.35 -37.65 26.65 -35.75 24.15 -38.15 16.1 -39.1 -4.2 -39.4 -9.95 -39.95 -21.55 -40.2 -27.2 -40.35 -30.65 16.6 -43.85 -1.85 -37.85 5.3 -36.75 18.8 -40.15 40.45 -32.05 40.45 -30.8 M5.3 -36.75 L0.8 -35.65 M-5.45 -24.95 L3.8 -20.7 40.45 -32.05 M3.8 30.35 L3.8 -3.1 5.75 -9.45 3.8 -13.35 3.8 -20.7 -40.35 -30.65 -24.1 -32.05 -1.85 -37.85 M38.9 4.85 L37.3 9.25 M3.8 43.85 L3.8 30.35 Q3.65 32.55 3.3 33.6 2.35 36.25 2.4 38.7 L2.25 40.05 Q1.75 40.8 -0.9 41.45 L-1.75 42.05 M-10.95 -32.7 L-14.2 -32.65 -12.25 -28.1 -7.95 -26.1 -7.8 -26.05 M-10.95 -32.7 L-3.15 -34.65 M-2.75 -34.75 L0.8 -35.65 M-7.3 -25.85 L-5.45 -24.95" fill="none" stroke="#422c1c" stroke-linecap="round" stroke-linejoin="round" stroke-width="0.5"/>
      <path d="M30.05 -1.1 L28.35 -0.6 28.35 7.15 20.9 9.5 20.9 1.75 18.8 2.45 24.6 -6.2 30.05 -1.1" fill="#2b2b2b" fill-opacity="0.75686276" fill-rule="evenodd" stroke="none"/>
      <path d="M24.1 -35.8 L23.7 -35.95 23.4 -35.95 23.15 -35.9 23.95 -35.5 24.0 -35.55 24.25 -35.65 24.1 -35.8 M25.1 -35.8 L25.2 -35.55 Q25.35 -35.4 24.95 -35.2 L24.55 -35.0 25.75 -34.4 25.05 -34.15 21.9 -36.05 23.0 -36.35 23.55 -36.5 23.85 -36.35 24.65 -36.1 25.1 -35.8 M23.8 -34.4 L24.0 -34.15 24.0 -33.85 23.7 -33.6 23.25 -33.55 22.75 -33.55 22.25 -33.6 21.75 -33.75 21.2 -34.1 19.35 -35.35 19.95 -35.5 21.9 -34.3 22.45 -34.1 22.85 -34.1 22.95 -34.3 22.6 -34.55 20.75 -35.75 21.5 -35.9 23.3 -34.8 23.8 -34.4 M21.0 -32.85 L18.95 -32.2 15.9 -34.3 17.75 -34.85 18.55 -34.4 17.2 -34.1 17.7 -33.75 18.85 -34.15 19.4 -33.75 18.4 -33.4 19.0 -32.9 20.25 -33.3 21.0 -32.85 M8.25 -31.1 L7.55 -30.8 7.05 -31.05 6.65 -31.05 6.5 -30.9 6.6 -30.7 6.85 -30.7 7.15 -30.7 8.25 -30.7 8.95 -30.55 9.5 -30.25 9.9 -29.8 9.8 -29.4 9.25 -29.1 7.9 -29.0 6.9 -29.45 7.7 -29.8 8.15 -29.55 8.7 -29.55 8.85 -29.7 8.8 -29.85 8.45 -30.0 7.75 -30.1 6.75 -30.0 5.8 -30.5 5.6 -30.9 Q5.5 -31.05 5.65 -31.2 5.8 -31.35 6.3 -31.5 L7.3 -31.6 8.25 -31.1 M9.65 -32.05 Q9.5 -32.3 9.7 -32.35 9.7 -32.6 10.25 -32.7 L11.15 -32.75 12.2 -32.3 11.45 -32.05 11.05 -32.2 10.65 -32.3 10.5 -32.15 10.6 -32.0 10.8 -31.8 11.15 -31.9 12.15 -31.9 12.85 -31.8 Q13.1 -31.75 13.4 -31.5 L13.85 -31.05 13.8 -30.65 13.25 -30.35 12.05 -30.25 Q11.45 -30.5 10.95 -30.7 L11.65 -31.1 12.15 -30.8 12.7 -30.8 12.85 -30.95 12.75 -31.1 12.45 -31.25 11.85 -31.35 10.75 -31.25 9.9 -31.65 Q9.55 -32.0 9.65 -32.05 M2.75 -28.45 L3.95 -27.35 2.85 -27.15 0.2 -29.65 1.1 -29.95 2.05 -29.0 3.1 -29.3 2.15 -30.25 3.0 -30.4 5.75 -28.0 4.95 -27.7 3.7 -28.75 2.75 -28.45 M0.55 -26.25 L-1.55 -28.3 -2.45 -28.0 -3.1 -28.7 -0.2 -29.45 0.4 -28.95 -0.6 -28.6 1.5 -26.65 0.55 -26.25 M6.5 -28.2 L3.7 -30.65 4.55 -30.95 7.4 -28.55 6.5 -28.2 M17.7 -32.6 L17.85 -32.2 17.75 -31.9 17.4 -31.75 16.2 -31.45 13.25 -33.55 14.35 -33.75 15.05 -33.95 15.65 -33.75 16.3 -33.55 17.0 -33.15 17.7 -32.6 M15.35 -33.3 L14.9 -33.3 14.65 -33.25 16.3 -32.05 16.5 -32.15 16.75 -32.3 16.7 -32.5 16.2 -32.9 15.35 -33.3 M11.85 -33.05 L12.7 -33.3 15.65 -31.2 14.9 -30.95 11.85 -33.05" fill="#2b2b2b" fill-opacity="0.75686276" fill-rule="evenodd" stroke="none"/>
      <path d="M32.3 10.95 L32.45 12.6 32.4 13.05 32.3 13.45 32.05 13.85 Q31.9 13.9 31.7 14.05 L31.35 14.15 31.15 14.15 30.9 14.0 30.75 13.65 30.65 13.3 30.65 11.5 31.15 11.35 31.3 12.95 31.35 13.35 31.6 13.45 31.85 13.2 31.85 12.75 31.75 11.1 32.3 10.95 M34.05 10.55 L34.25 11.0 34.25 11.5 34.1 11.8 33.65 12.2 33.35 12.35 33.5 13.3 32.95 13.5 32.7 10.8 33.55 10.45 33.95 10.4 34.05 10.55 M33.65 11.1 L33.5 11.0 33.25 11.1 33.35 11.7 33.5 11.65 33.65 11.5 33.7 11.35 33.65 11.1 M29.4 13.5 L28.55 13.9 28.55 14.6 29.55 14.15 29.55 14.85 27.95 15.45 27.95 12.5 29.4 11.95 29.5 12.6 28.5 12.9 28.5 13.35 29.4 12.95 29.4 13.5 M27.15 12.9 L27.4 13.15 27.55 13.5 27.55 14.15 27.55 14.9 27.3 15.4 27.05 15.8 Q26.75 15.85 26.7 15.95 L25.75 16.25 25.8 13.2 26.7 12.95 27.15 12.9 M26.35 13.75 L26.35 15.4 26.55 15.3 26.85 15.15 26.9 14.9 27.0 14.3 26.85 13.65 Q26.75 13.5 26.55 13.65 L26.35 13.75 M24.0 14.05 L24.25 14.7 23.65 15.0 23.55 14.7 Q23.55 14.55 23.4 14.6 L23.15 14.75 23.1 15.0 23.15 15.15 23.4 15.1 Q23.8 15.0 23.95 15.25 L24.25 15.4 24.25 15.85 24.2 16.5 23.8 17.05 23.3 17.35 22.55 17.35 22.3 16.7 23.0 16.25 23.1 16.65 23.4 16.65 23.55 16.55 23.65 16.25 23.65 16.0 23.25 15.95 22.7 15.85 Q22.45 15.65 22.55 15.3 22.55 14.9 22.7 14.75 L22.95 14.4 Q23.15 14.05 23.5 14.05 23.8 13.85 24.0 14.05 M21.0 15.15 L21.15 15.85 20.5 16.15 20.45 15.85 Q20.35 15.7 20.2 15.85 20.05 15.85 20.05 15.95 L19.95 16.15 19.95 16.25 20.2 16.35 20.75 16.4 21.15 16.65 21.15 17.1 21.0 17.75 20.6 18.3 20.05 18.6 Q19.4 18.85 19.2 18.6 L19.0 17.9 19.75 17.6 19.8 17.9 20.1 17.95 20.35 17.8 20.45 17.6 20.35 17.25 20.05 17.2 19.4 17.1 Q19.25 16.9 19.25 16.5 L19.5 15.95 19.75 15.45 Q19.95 15.3 20.35 15.25 L21.0 15.15 M24.65 16.7 L24.75 13.65 25.35 13.45 25.25 16.5 24.65 16.7 M17.05 16.4 L17.7 16.25 17.2 19.7 16.5 20.0 16.75 18.5 15.95 18.85 15.75 20.3 14.95 20.45 15.5 16.95 16.3 16.7 15.95 17.95 16.85 17.65 17.05 16.4 M18.95 15.7 L18.55 19.15 17.85 19.45 18.25 16.0 18.95 15.7 M14.25 18.3 L13.8 21.0 13.0 21.4 13.45 18.5 12.7 18.9 12.9 17.9 15.2 17.2 15.05 17.9 14.25 18.3" fill="#2b2b2b" fill-opacity="0.75686276" fill-rule="evenodd" stroke="none"/>
      <path d="M-30.0 -17.45 L-30.0 -18.95 -28.65 -22.55 -26.6 -15.95 -25.55 -15.05 -27.2 -15.35 -27.2 -7.6 -30.15 -8.4 -30.15 -14.95 -29.6 -16.3 -30.75 -16.3 -30.0 -17.45" fill="#2b2b2b" fill-opacity="0.75686276" fill-rule="evenodd" stroke="none"/>
      <path d="M-10.2 -3.8 L-10.2 -11.55 -10.85 -11.7 -8.7 -17.9 -6.35 -10.45 -7.2 -10.75 -7.2 -3.0 -10.2 -3.8" fill="#2b2b2b" fill-opacity="0.75686276" fill-rule="evenodd" stroke="none"/>
      <path d="M-23.1 -6.55 L-22.85 -5.75 -22.15 -5.35 -21.45 -5.45 Q-21.2 -5.65 -21.2 -6.15 L-21.2 -9.6 -19.45 -9.2 -19.45 -5.8 Q-19.45 -5.3 -19.6 -4.85 -19.75 -4.45 -20.1 -4.2 L-20.8 -3.9 -22.05 -3.95 -22.95 -4.25 Q-23.45 -4.4 -23.75 -4.65 L-24.35 -5.3 -24.75 -6.05 -24.9 -7.0 -24.9 -10.4 -23.1 -10.0 -23.1 -6.55 M-15.9 -7.25 L-16.4 -7.35 -16.4 -6.1 -16.0 -6.0 -15.3 -6.0 -15.1 -6.4 Q-15.1 -6.7 -15.25 -6.9 -15.45 -7.15 -15.9 -7.25 M-15.25 -8.25 L-13.85 -7.5 Q-13.35 -6.9 -13.35 -6.05 -13.35 -5.2 -13.9 -4.85 L-15.45 -4.7 -16.4 -4.9 -16.4 -2.8 -18.2 -3.2 -18.2 -8.9 -15.25 -8.25" fill="#2b2b2b" fill-opacity="0.75686276" fill-rule="evenodd" stroke="none"/>
      <path d="M-15.9 -19.05 Q-11.85 -13.1 -11.85 -4.75 -11.85 3.6 -15.9 9.5 -19.95 15.45 -25.6 15.45 -31.3 15.45 -35.35 9.5 -39.4 3.6 -39.4 -4.75 -39.4 -13.1 -35.35 -19.05 -31.3 -24.95 -25.6 -24.95 -19.95 -24.95 -15.9 -19.05" fill="url(#gradient4)" fill-rule="evenodd" stroke="none"/>
      <path d="M-14.2 19.25 Q-14.2 27.6 -18.25 33.5 L-20.25 36.0 -37.5 30.35 -37.65 26.65 -35.75 24.15 -38.15 16.1 -38.6 6.4 -37.7 4.95 Q-33.65 -0.95 -27.95 -0.95 -22.3 -0.95 -18.25 4.95 -14.2 10.9 -14.2 19.25" fill="url(#gradient5)" fill-rule="evenodd" stroke="none"/>
      <path d="M4.05 -20.0 Q10.7 -18.3 16.7 -16.15 37.6 -8.65 38.7 0.0 39.75 8.7 20.4 13.4 12.9 15.2 4.05 16.05 L4.05 -20.0" fill="url(#gradient6)" fill-rule="evenodd" stroke="none"/>
      <path d="M4.05 16.05 Q-1.3 22.4 -7.95 27.45 -18.85 35.75 -26.8 35.75 -34.75 35.75 -35.15 27.45 -35.55 19.2 -28.15 7.55 -20.8 -4.15 -9.95 -12.45 -2.2 -18.3 4.05 -20.0 L4.05 16.05" fill="url(#gradient7)" fill-rule="evenodd" stroke="none"/>
      <path d="M40.45 -3.15 L40.45 0.4 38.9 4.85 40.45 6.25 40.45 27.5 11.8 40.3 Q8.25 39.75 4.9 38.5 L3.8 38.1 2.45 37.5 Q2.6 35.6 3.3 33.6 3.65 32.55 3.8 30.35 L3.8 2.65 Q9.75 -1.45 17.85 -3.45 30.1 -6.55 40.45 -3.15" fill="url(#gradient8)" fill-rule="evenodd" stroke="none"/>
      <path d="M40.45 -25.0 L40.45 0.4 38.9 4.85 40.25 6.1 40.1 6.2 37.75 8.1 37.1 9.15 Q28.35 23.1 15.95 25.4 7.05 27.05 3.9 22.7 L3.9 -0.55 3.8 -0.55 3.8 -3.1 5.75 -9.45 3.8 -13.35 3.8 -20.7 33.1 -29.75 Q36.9 -28.2 40.1 -25.35 L40.45 -25.0" fill="url(#gradient9)" fill-rule="evenodd" stroke="none"/>
      <path d="M5.55 40.75 L5.75 43.0 3.8 43.85 -19.05 36.4 -20.4 34.15 Q-25.9 24.6 -26.95 16.25 -27.95 7.9 -23.9 5.6 -19.85 3.25 -13.15 8.3 -6.4 13.35 -0.9 22.9 1.95 27.8 3.55 32.45 L3.8 33.1 Q5.1 37.0 5.55 40.75" fill="url(#gradient10)" fill-rule="evenodd" stroke="none"/>
      <path d="M25.95 -33.15 L26.4 -31.8 Q26.4 -31.05 25.1 -29.4 24.6 -29.6 24.6 -30.7 24.6 -33.35 25.95 -33.15 M21.75 -32.6 Q23.35 -32.6 23.0 -31.2 23.0 -29.95 21.2 -29.1 20.7 -29.3 20.7 -30.45 20.7 -32.6 21.75 -32.6 M7.45 -28.9 L8.3 -25.95 Q8.3 -25.2 7.85 -24.6 6.95 -25.3 5.9 -27.15 L5.4 -28.1 2.45 -27.2 -2.25 -26.25 Q-3.15 -26.25 -3.05 -27.65 -3.05 -28.75 -0.3 -29.5 L4.75 -30.25 4.75 -30.35 Q4.75 -31.35 5.15 -31.75 L5.35 -31.75 Q6.4 -31.75 7.45 -28.9 M17.45 -35.4 Q17.45 -34.5 17.0 -34.2 16.55 -33.85 14.3 -33.3 13.95 -33.7 13.95 -34.65 13.95 -36.8 16.4 -36.8 17.6 -36.8 17.45 -35.4 M12.0 -30.1 Q12.0 -31.2 12.6 -31.5 12.95 -30.95 12.95 -30.1 L12.9 -29.15 12.5 -28.8 Q12.0 -29.3 12.0 -30.1 M18.75 -19.85 Q18.75 -21.75 20.6 -21.75 23.85 -21.75 23.25 -20.3 23.25 -18.85 19.05 -18.45 18.75 -18.9 18.75 -19.85 M15.6 -6.15 Q15.05 -6.65 15.05 -7.6 L15.2 -9.2 Q15.5 -10.75 15.95 -11.15 16.55 -10.55 16.55 -9.8 16.55 -7.9 15.75 -6.3 L15.6 -6.15 M15.75 -4.05 Q15.75 -1.8 15.05 0.75 14.55 0.25 14.55 -1.35 14.55 -5.95 15.35 -6.3 15.75 -5.7 15.75 -4.05 M33.95 -18.05 Q30.45 -14.75 29.85 -13.2 29.3 -13.6 29.3 -14.55 29.3 -18.4 36.6 -24.15 L37.05 -22.85 Q37.05 -20.9 33.95 -18.05 M27.9 -14.15 L28.35 -12.35 Q28.35 -9.45 24.0 -9.45 L21.9 -9.5 21.75 -10.9 Q21.75 -12.0 23.3 -12.45 26.3 -13.3 27.9 -14.15 M25.8 3.65 L25.95 3.65 Q27.45 3.65 29.7 11.9 29.7 12.8 29.3 13.25 25.4 6.3 25.4 5.0 25.4 4.05 25.8 3.65 M28.1 16.8 Q28.55 17.35 28.55 18.15 28.55 20.1 27.6 20.1 L25.8 19.95 Q25.65 19.35 25.65 18.6 25.65 17.7 26.05 17.5 26.4 17.3 28.1 16.8 M30.3 21.6 Q30.75 21.15 32.6 21.15 37.5 21.15 38.75 22.05 L39.0 23.1 38.85 24.3 Q39.2 24.5 38.45 24.5 31.7 24.5 30.3 23.7 29.85 23.4 29.95 23.0 L30.15 22.55 Q30.15 21.75 30.3 21.6 M8.15 22.8 L8.45 24.0 8.4 24.9 7.95 25.25 Q6.75 24.4 6.75 22.8 6.75 21.2 7.25 21.0 L8.15 22.8 M9.45 14.7 Q9.45 12.85 10.95 12.3 L11.3 13.65 Q11.3 16.25 9.6 16.05 9.45 15.45 9.45 14.7 M16.6 16.7 Q16.55 15.45 17.3 15.15 17.7 16.1 17.7 18.1 L17.7 19.85 Q19.6 20.05 19.4 22.35 19.4 23.7 18.9 23.7 16.8 23.7 16.8 21.45 16.8 20.7 16.95 20.15 16.8 19.3 16.8 18.1 L16.6 16.7 M10.65 33.0 Q11.0 33.15 10.25 33.15 7.45 33.15 8.1 29.55 7.8 27.3 8.7 26.55 9.05 27.5 9.05 29.45 9.05 30.5 9.95 31.0 L10.8 31.8 10.65 33.0 M18.9 31.8 Q18.9 30.55 19.5 30.45 L19.95 31.8 19.8 32.75 19.4 33.15 Q18.9 32.6 18.9 31.8 M0.3 41.3 Q0.75 41.55 0.0 41.55 -1.8 41.55 -3.3 37.6 -3.3 36.85 -2.9 36.3 L-2.7 36.3 Q-1.9 36.3 0.45 40.2 L0.3 41.3 M-17.9 -35.05 L-18.0 -33.9 -26.05 -32.75 Q-20.45 -34.3 -19.4 -35.15 L-17.9 -35.05 M-39.6 -26.85 L-39.45 -28.35 -39.0 -28.35 Q-38.0 -26.95 -36.5 -26.2 -35.55 -25.7 -35.55 -24.85 -35.55 -23.85 -36.2 -23.55 L-39.1 -25.4 Q-39.6 -25.85 -39.6 -26.85 M-20.85 -17.55 Q-19.05 -13.1 -19.05 -12.6 -19.05 -11.75 -19.5 -11.25 -20.0 -11.7 -20.7 -13.5 -21.45 -15.3 -21.45 -16.05 -21.45 -17.25 -20.85 -17.55 M-30.3 -18.15 Q-31.9 -19.35 -33.95 -20.15 -34.8 -20.45 -34.8 -21.8 -34.8 -23.15 -34.05 -23.15 -32.3 -23.15 -30.95 -21.5 -29.9 -20.2 -29.9 -19.55 -29.9 -18.85 -30.3 -18.15 M-37.35 -18.3 Q-36.75 -18.3 -36.45 -17.0 L-36.3 -15.6 Q-36.3 -15.0 -36.45 -14.4 L-36.8 -14.0 Q-37.85 -15.8 -37.85 -17.0 L-37.65 -18.3 -37.35 -18.3 M-35.4 -9.5 Q-36.2 -10.85 -36.2 -12.3 -36.2 -13.7 -35.7 -13.85 -34.95 -12.35 -34.95 -11.25 L-35.0 -9.9 -35.4 -9.5 M-20.3 -4.65 Q-19.85 -3.55 -19.85 -1.75 -19.85 0.15 -20.15 0.9 L-20.55 1.05 Q-20.85 0.15 -20.85 -1.8 -20.85 -4.3 -20.3 -4.65 M-9.75 -16.75 Q-9.75 -17.7 -8.35 -18.5 -7.1 -19.2 -5.9 -19.2 -4.85 -19.2 -4.85 -17.85 -4.85 -16.7 -5.65 -16.4 L-9.45 -15.45 -9.75 -16.75 M-18.3 -6.5 L-18.65 -6.15 -19.5 -9.15 -19.2 -10.5 -18.9 -10.5 Q-18.2 -10.5 -18.2 -8.1 L-18.3 -6.5 M-1.7 4.05 Q-6.6 4.05 -6.45 1.1 -6.45 -0.15 -5.75 -0.15 -0.85 -0.15 -1.2 2.8 L-1.25 3.75 Q-0.95 4.05 -1.7 4.05 M-10.7 21.7 Q-10.7 22.45 -11.15 23.1 -12.2 22.85 -12.2 21.5 -12.2 20.1 -11.7 20.1 -11.05 20.1 -10.8 20.85 L-10.7 21.7 M-13.25 21.65 Q-14.55 20.7 -14.55 19.15 -14.55 17.95 -13.95 17.6 -12.6 19.65 -12.6 20.35 -12.6 21.2 -13.25 21.65 M-24.15 11.05 Q-22.95 13.25 -22.95 14.5 L-23.0 15.45 -23.4 15.8 Q-26.7 12.6 -26.7 9.45 -26.7 7.55 -26.15 7.25 L-24.15 11.05 M-29.85 31.95 Q-30.9 31.25 -30.9 28.0 -30.9 26.65 -30.3 26.55 -29.85 27.3 -29.4 30.6 -29.4 31.35 -29.85 31.95 M-21.65 32.55 Q-22.25 32.2 -22.25 31.05 -22.25 29.8 -21.65 29.6 -21.3 30.3 -21.3 31.05 -21.3 31.75 -21.65 32.55 M-5.6 37.1 Q-5.6 38.45 -6.15 38.45 L-8.65 38.05 -8.9 38.15 -11.25 38.1 -11.4 36.75 Q-11.4 35.4 -10.85 35.4 L-8.95 35.7 Q-8.85 35.4 -8.6 35.4 -5.6 35.4 -5.6 37.1 M-18.05 33.6 Q-18.05 32.25 -17.4 32.25 -16.6 32.25 -14.9 33.2 -13.2 34.2 -13.2 34.75 -13.2 36.05 -13.65 36.05 -19.05 36.05 -18.05 33.6" fill="#341a09" fill-opacity="0.7921569" fill-rule="evenodd" stroke="none"/>
      <path d="M3.5 -20.8 L-8.25 -26.55 -6.6 -29.45 Q-2.6 -35.35 4.95 -36.6 L6.6 -36.9 Q15.1 -39.7 19.0 -39.45 22.85 -39.25 23.95 -37.8 26.65 -37.0 27.8 -34.8 29.75 -30.95 29.7 -28.95 L3.5 -20.8" fill="url(#gradient11)" fill-rule="evenodd" stroke="none"/>
      <path d="M25.5 -27.45 Q27.4 -17.35 27.4 -13.25 27.4 -7.6 23.35 -3.6 L13.7 5.3 Q8.05 10.15 5.95 6.05 3.95 2.2 3.65 -3.15 L3.6 -4.0 5.9 -9.2 3.6 -12.75 3.6 -20.6 25.5 -27.45" fill="url(#gradient12)" fill-rule="evenodd" stroke="none"/>
      <path d="M-24.75 34.85 L-24.85 33.3 Q-24.85 27.65 -20.85 23.6 -16.8 19.6 -11.15 19.6 -5.5 19.6 -1.5 23.6 2.55 27.65 2.55 33.3 2.55 38.3 -0.6 42.0 -15.7 37.3 -24.75 34.85" fill="url(#gradient13)" fill-rule="evenodd" stroke="none"/>
    </g>
    <linearGradient gradientTransform="matrix(1.5633, 0.0, 0.0, 1.5633, -664.6, -351.9)" gradientUnits="userSpaceOnUse" id="gradient0" spreadMethod="pad" x1="-819.2" x2="819.2">
      <stop offset="0.0" stop-color="#b99782"/>
      <stop offset="1.0" stop-color="#9d6a4b"/>
    </linearGradient>
    <linearGradient gradientTransform="matrix(0.027, 0.0, 0.0, 0.0444, -18.35, 5.7)" gradientUnits="userSpaceOnUse" id="gradient1" spreadMethod="pad" x1="-819.2" x2="819.2">
      <stop offset="0.0" stop-color="#946b52"/>
      <stop offset="1.0" stop-color="#513226"/>
    </linearGradient>
    <linearGradient gradientTransform="matrix(-0.0321, 0.0082, -0.0097, -0.0381, 22.15, 5.95)" gradientUnits="userSpaceOnUse" id="gradient2" spreadMethod="pad" x1="-819.2" x2="819.2">
      <stop offset="0.0" stop-color="#aa7a66"/>
      <stop offset="1.0" stop-color="#845440"/>
    </linearGradient>
    <linearGradient gradientTransform="matrix(1.5633, 0.0, 0.0, 1.5633, -664.6, -351.9)" gradientUnits="userSpaceOnUse" id="gradient3" spreadMethod="pad" x1="-819.2" x2="819.2">
      <stop offset="0.0" stop-color="#aa7a66"/>
      <stop offset="1.0" stop-color="#845440"/>
    </linearGradient>
    <radialGradient cx="0" cy="0" gradientTransform="matrix(0.0173, 0.0, 0.0, 0.0253, -25.95, -5.05)" gradientUnits="userSpaceOnUse" id="gradient4" r="819.2" spreadMethod="pad">
      <stop offset="0.5176470588235295" stop-color="#432101" stop-opacity="0.7921569"/>
      <stop offset="0.9372549019607843" stop-color="#5c2e01" stop-opacity="0.0"/>
    </radialGradient>
    <radialGradient cx="0" cy="0" gradientTransform="matrix(0.0173, 0.0, 0.0, 0.0253, -28.3, 18.95)" gradientUnits="userSpaceOnUse" id="gradient5" r="819.2" spreadMethod="pad">
      <stop offset="0.5176470588235295" stop-color="#432101" stop-opacity="0.7921569"/>
      <stop offset="0.9372549019607843" stop-color="#5c2e01" stop-opacity="0.0"/>
    </radialGradient>
    <radialGradient cx="0" cy="0" gradientTransform="matrix(0.0633, 0.0228, -0.0587, 0.0142, -30.6, -5.4)" gradientUnits="userSpaceOnUse" id="gradient6" r="819.2" spreadMethod="pad">
      <stop offset="0.5176470588235295" stop-color="#432101" stop-opacity="0.7921569"/>
      <stop offset="0.9372549019607843" stop-color="#5c2e01" stop-opacity="0.0"/>
    </radialGradient>
    <radialGradient cx="0" cy="0" gradientTransform="matrix(0.0241, 0.0, -0.0224, 0.0354, -9.15, 7.1)" gradientUnits="userSpaceOnUse" id="gradient7" r="819.2" spreadMethod="pad">
      <stop offset="0.5176470588235295" stop-color="#432101" stop-opacity="0.7921569"/>
      <stop offset="0.9372549019607843" stop-color="#5c2e01" stop-opacity="0.0"/>
    </radialGradient>
    <radialGradient cx="0" cy="0" gradientTransform="matrix(0.0067, 0.0268, -0.0392, 0.0099, 23.55, 17.25)" gradientUnits="userSpaceOnUse" id="gradient8" r="819.2" spreadMethod="pad">
      <stop offset="0.5176470588235295" stop-color="#432101" stop-opacity="0.7921569"/>
      <stop offset="0.9372549019607843" stop-color="#5c2e01" stop-opacity="0.0"/>
    </radialGradient>
    <radialGradient cx="0" cy="0" gradientTransform="matrix(0.0394, 0.0, 0.0, 0.0394, 13.35, -9.5)" gradientUnits="userSpaceOnUse" id="gradient9" r="819.2" spreadMethod="pad">
      <stop offset="0.5176470588235295" stop-color="#291101" stop-opacity="0.7921569"/>
      <stop offset="0.9372549019607843" stop-color="#5c2e01" stop-opacity="0.0"/>
    </radialGradient>
    <radialGradient cx="0" cy="0" gradientTransform="matrix(0.0125, -0.0072, 0.0169, 0.0293, -10.7, 28.5)" gradientUnits="userSpaceOnUse" id="gradient10" r="819.2" spreadMethod="pad">
      <stop offset="0.5176470588235295" stop-color="#291101" stop-opacity="0.7921569"/>
      <stop offset="0.9372549019607843" stop-color="#5c2e01" stop-opacity="0.0"/>
    </radialGradient>
    <radialGradient cx="0" cy="0" gradientTransform="matrix(0.0063, 0.0161, -0.0236, 0.0092, 10.35, -26.0)" gradientUnits="userSpaceOnUse" id="gradient11" r="819.2" spreadMethod="pad">
      <stop offset="0.5176470588235295" stop-color="#432101" stop-opacity="0.7921569"/>
      <stop offset="0.9372549019607843" stop-color="#5c2e01" stop-opacity="0.0"/>
    </radialGradient>
    <radialGradient cx="0" cy="0" gradientTransform="matrix(0.0234, 0.0, 0.0, 0.0234, 10.1, -17.85)" gradientUnits="userSpaceOnUse" id="gradient12" r="819.2" spreadMethod="pad">
      <stop offset="0.5176470588235295" stop-color="#1e261e" stop-opacity="0.7921569"/>
      <stop offset="0.9372549019607843" stop-color="#5c2e01" stop-opacity="0.0"/>
    </radialGradient>
    <radialGradient cx="0" cy="0" gradientTransform="matrix(0.0168, 0.0, 0.0, 0.0168, -11.15, 33.3)" gradientUnits="userSpaceOnUse" id="gradient13" r="819.2" spreadMethod="pad">
      <stop offset="0.5176470588235295" stop-color="#1e261e" stop-opacity="0.7921569"/>
      <stop offset="0.9372549019607843" stop-color="#5c2e01" stop-opacity="0.0"/>
    </radialGradient>
  </defs>
</svg>
