<?xml version="1.0" encoding="UTF-8" standalone="no"?>
<svg xmlns:xlink="http://www.w3.org/1999/xlink" height="48.4px" width="65.05px" xmlns="http://www.w3.org/2000/svg">
  <g transform="matrix(1.0, 0.0, 0.0, 1.0, 32.5, 28.45)">
    <use height="48.4" transform="matrix(1.0, 0.0, 0.0, 1.0, -32.5, -28.45)" width="65.05" xlink:href="#shape0"/>
  </g>
  <defs>
    <g id="shape0" transform="matrix(1.0, 0.0, 0.0, 1.0, 32.5, 28.45)">
      <path d="M32.3 -10.6 L-22.7 -0.75 -32.25 -13.6 16.0 -19.65 32.3 -10.6" fill="#666666" fill-rule="evenodd" stroke="none"/>
      <path d="M31.25 -5.5 L12.3 -1.55 31.25 -5.5 30.65 5.3 -21.05 19.7 -20.9 8.25 12.3 -1.55 -20.9 5.4 -22.7 5.75 -22.7 -0.75 32.3 -10.6 32.3 -5.75 31.25 -5.5" fill="#484848" fill-rule="evenodd" stroke="none"/>
      <path d="M-22.7 -0.75 L-22.7 5.75 -23.25 5.0 -23.85 4.25 -31.55 -6.15 -23.85 4.25 -23.25 5.0 -22.7 5.75 -20.9 8.25 -21.05 19.7 -23.55 16.05 -23.55 7.75 -29.85 -1.05 -29.85 7.8 -31.6 5.3 -31.55 -6.15 -32.25 -7.1 -32.25 -13.6 -22.7 -0.75" fill="#595959" fill-rule="evenodd" stroke="none"/>
      <path d="M-22.7 5.75 L-20.9 5.4 12.3 -1.55 -20.9 8.25 -22.7 5.75 M-20.9 5.4 L-20.9 8.25 -20.9 5.4" fill="#3c3c3c" fill-rule="evenodd" stroke="none"/>
      <path d="M-23.55 16.05 L-29.85 7.8 -29.85 -1.05 -23.55 7.75 -23.55 16.05" fill="#7b7b7b" fill-rule="evenodd" stroke="none"/>
      <path d="M12.3 -1.55 L31.25 -5.5 32.3 -5.75 32.3 -10.6 -22.7 -0.75 -22.7 5.75 -20.9 5.4 12.3 -1.55 M-20.9 8.25 L-21.05 19.7 30.65 5.3 31.25 -5.5 M32.3 -10.6 L16.0 -19.65 -32.25 -13.6 -22.7 -0.75 M-32.25 -13.6 L-32.25 -7.1 -31.55 -6.15 -23.85 4.25 -23.25 5.0 -22.7 5.75 M-20.9 8.25 L-20.9 5.4 M-23.55 16.05 L-21.05 19.7 M-23.55 16.05 L-29.85 7.8 -31.6 5.3 -31.55 -6.15" fill="none" stroke="#333333" stroke-linecap="round" stroke-linejoin="round" stroke-width="0.5"/>
      <path d="M-9.85 -3.3 Q-11.1 -7.2 -11.05 -10.6 -11.05 -14.1 -9.75 -16.35 L9.0 -18.85 Q13.35 -17.2 18.35 -14.1 21.85 -11.95 25.05 -9.45 L-9.85 -3.3" fill="url(#gradient0)" fill-rule="evenodd" stroke="none"/>
      <path d="M25.05 -9.45 Q24.85 -7.1 22.3 -3.85 L-18.7 4.6 -18.1 3.7 Q-14.75 0.0 -9.85 -3.3 L25.05 -9.45" fill="url(#gradient1)" fill-rule="evenodd" stroke="none"/>
      <path d="M18.5 8.95 L-21.35 19.3 -21.35 7.05 -20.4 6.75 Q-12.6 4.35 -1.8 4.75 9.05 5.15 16.6 8.15 L18.5 8.95" fill="url(#gradient2)" fill-rule="evenodd" stroke="none"/>
      <path d="M3.65 -9.3 Q3.6 -5.5 1.05 -2.2 -16.7 28.3 -31.5 4.15 L-31.85 4.25 -31.85 3.65 -31.8 3.65 -31.85 3.6 -31.85 -6.15 -32.35 -7.1 -32.25 -13.7 -0.55 -17.95 Q3.7 -14.35 3.65 -9.3" fill="url(#gradient3)" fill-rule="evenodd" stroke="none"/>
      <path d="M15.5 -19.9 L31.65 -10.6 -19.35 -1.55 Q-19.9 -2.45 -20.05 -3.7 -20.8 -9.45 -9.35 -15.65 L-8.55 -16.1 -7.25 -17.45 -7.15 -17.5 -5.65 -17.15 15.5 -19.9 M23.6 -22.75 L23.6 -22.5 22.45 -22.85 22.9 -22.9 23.3 -22.8 23.6 -22.75" fill="url(#gradient4)" fill-rule="evenodd" stroke="none"/>
      <path d="M-21.65 -8.7 L-14.85 -9.6 Q-3.7 -12.35 14.45 -7.35 L-22.6 -0.75 -28.0 -8.7 -21.65 -8.7" fill="url(#gradient5)" fill-rule="evenodd" stroke="none"/>
      <path d="M31.8 -28.3 L32.4 -26.9 32.2 -26.9 31.8 -28.3 M28.8 -26.9 L28.85 -26.95 30.15 -28.45 30.15 -26.9 28.8 -26.9" fill="url(#gradient6)" fill-rule="evenodd" stroke="none"/>
      <path d="M30.9 -5.55 L30.45 5.5 17.85 8.5 Q16.55 8.55 14.15 9.75 L12.85 9.15 9.05 -0.9 Q15.15 -1.1 31.1 -5.65 L30.9 -5.55" fill="url(#gradient7)" fill-rule="evenodd" stroke="none"/>
      <path d="M-22.55 5.95 L-20.55 5.45 Q-20.8 11.6 -20.65 19.55 L-31.55 5.15 Q-31.2 3.3 -31.15 -5.65 L-22.55 5.95" fill="url(#gradient8)" fill-rule="evenodd" stroke="none"/>
      <path d="M5.05 -17.85 Q5.05 -16.05 1.6 -13.75 -1.85 -11.45 -6.75 -10.0 -11.65 -8.6 -15.1 -8.9 -18.55 -9.25 -18.55 -11.05 -18.55 -12.9 -15.1 -15.2 L-13.65 -16.1 4.9 -18.55 5.05 -17.85" fill="url(#gradient9)" fill-rule="evenodd" stroke="none"/>
      <path d="M12.9 -16.5 Q13.35 -17.0 14.65 -17.0 15.5 -17.0 15.9 -16.55 L14.85 -16.0 Q14.65 -15.4 13.5 -15.4 L12.35 -15.8 12.9 -16.5 M2.7 -15.7 L2.45 -15.35 -0.9 -15.35 -4.3 -15.35 -4.55 -15.7 -4.35 -16.1 -0.95 -16.15 2.7 -15.7 M18.15 -13.85 L16.75 -13.55 Q14.35 -13.55 13.65 -14.15 L15.35 -14.6 Q17.55 -14.6 18.15 -13.85 M11.6 -12.95 Q10.8 -12.95 10.5 -13.55 11.1 -14.15 11.75 -14.15 12.55 -14.15 12.9 -13.55 12.3 -12.95 11.6 -12.95 M1.8 -7.6 L2.0 -8.0 11.35 -8.2 15.75 -8.1 Q16.0 -8.0 15.8 -7.7 8.25 -6.15 4.35 -7.25 2.1 -7.25 1.8 -7.6 M29.0 -2.55 Q29.55 -2.55 29.55 -0.85 29.6 2.85 28.85 3.65 28.5 3.4 28.5 1.8 L29.0 -2.55 M-27.75 -12.5 Q-27.3 -13.15 -25.1 -13.3 L-22.7 -13.4 Q-21.9 -13.4 -21.6 -12.85 L-26.55 -12.1 Q-27.25 -12.1 -27.75 -12.5 M-3.6 9.4 Q-3.8 8.25 -2.45 8.25 -1.25 8.25 -1.25 9.45 -0.8 10.6 -3.15 10.6 -3.6 10.6 -3.6 9.4 M-28.65 4.25 Q-28.65 3.65 -28.25 3.1 -26.3 4.6 -26.3 6.35 -26.3 7.2 -26.75 7.5 L-28.15 5.9 Q-28.65 5.25 -28.65 4.25 M-14.1 11.2 Q-13.65 11.2 -13.65 12.3 -13.75 14.85 -16.8 14.85 L-17.1 14.7 Q-17.2 14.95 -17.45 15.0 -17.85 14.3 -17.85 13.8 -17.85 12.7 -17.45 12.7 -17.05 12.7 -16.95 13.4 -15.35 11.2 -14.1 11.2 M-12.0 8.25 L-11.9 7.45 Q-11.95 6.25 -10.65 6.25 -10.2 6.25 -10.2 7.4 L-10.3 8.15 -11.1 8.8 -11.1 9.75 -11.6 10.95 Q-12.0 10.3 -12.0 8.25" fill="#18100a" fill-opacity="0.6901961" fill-rule="evenodd" stroke="none"/>
      <path d="M10.95 -13.0 Q11.25 -12.95 11.1 -12.55 L10.65 -12.35 6.95 -12.2 3.1 -12.35 Q3.3 -12.5 2.85 -12.65 L3.0 -13.0 6.95 -13.1 10.95 -13.0 M4.2 -10.55 L5.1 -10.7 Q5.75 -10.7 6.3 -10.25 5.75 -9.8 5.1 -9.8 4.6 -9.8 3.95 -10.25 L4.2 -10.55 M3.15 -14.0 Q1.0 -14.0 0.65 -14.45 L0.9 -14.75 3.15 -14.9 5.55 -14.45 Q5.35 -14.0 3.15 -14.0 M24.15 -0.65 Q24.25 -1.15 24.65 -1.15 26.0 -1.15 26.0 0.65 26.0 1.4 25.55 1.75 24.15 0.85 24.15 -0.05 L24.15 -0.65 M28.05 -7.6 Q26.45 -6.8 25.9 -6.8 25.2 -6.8 24.75 -7.25 25.85 -8.2 26.85 -8.2 27.65 -8.2 28.05 -7.6 M29.1 -10.1 L26.3 -9.65 Q25.4 -9.65 25.2 -10.1 L25.35 -10.3 27.45 -10.7 Q28.6 -10.7 29.1 -10.1 M16.85 -5.25 L19.45 -5.35 20.7 -5.3 20.8 -5.75 Q19.1 -6.0 18.65 -6.4 L18.75 -6.45 Q18.85 -6.75 20.2 -6.75 22.5 -6.75 22.85 -6.15 L22.5 -5.9 22.55 -5.3 Q22.55 -4.6 22.25 -4.35 L21.45 -3.7 21.5 -3.2 20.65 -3.1 20.85 -3.75 20.65 -4.45 19.45 -4.45 Q17.35 -4.45 16.7 -4.9 L16.85 -5.25 M7.5 10.45 Q7.05 10.0 7.05 9.3 7.05 8.2 7.4 8.2 L7.55 8.2 Q7.95 8.7 7.95 9.25 L7.5 10.45 M0.45 5.6 L1.8 4.65 Q1.6 6.35 0.75 6.75 0.45 6.15 0.45 5.6 M2.0 2.1 Q2.05 0.4 3.15 0.4 3.6 0.4 3.6 1.5 3.6 2.4 2.4 3.25 L2.0 2.1 M8.85 3.4 L9.15 4.65 Q9.25 5.6 8.4 5.95 L8.15 5.2 Q8.1 6.7 6.9 6.7 6.45 6.7 6.45 5.55 6.45 4.65 7.65 3.85 L8.1 4.45 8.15 4.1 Q8.25 3.4 8.7 3.4 L8.85 3.4 M6.0 1.95 Q6.0 0.55 6.35 0.55 6.9 0.55 6.9 1.9 6.9 2.85 6.45 3.3 6.0 3.15 6.0 1.95 M11.9 6.1 L11.95 5.5 Q12.25 4.9 13.35 4.9 13.8 4.9 13.8 6.15 14.25 7.3 12.3 7.3 11.9 7.3 11.9 6.1 M14.4 1.75 Q14.4 2.9 13.65 3.25 13.2 2.8 13.2 2.1 L13.85 0.55 Q14.4 0.55 14.4 1.75 M19.95 4.5 L20.1 5.45 Q20.15 6.55 19.7 6.55 17.85 6.55 17.85 4.5 17.85 3.85 18.3 3.4 L19.95 4.5 M-3.3 3.25 Q-3.3 1.65 -1.7 1.65 -1.25 1.65 -1.25 2.8 -1.25 4.45 -2.85 4.45 -3.3 4.45 -3.3 3.25 M-2.85 -11.0 Q-1.9 -11.0 -1.25 -10.55 L-1.35 -10.4 Q-3.85 -9.25 -6.3 -9.25 -7.3 -9.25 -7.5 -9.65 L-7.4 -9.8 Q-5.0 -11.0 -2.85 -11.0 M-16.1 -7.1 Q-17.25 -7.1 -17.25 -7.8 -17.55 -8.5 -16.1 -8.5 -15.0 -8.5 -15.0 -7.75 -15.0 -7.1 -16.1 -7.1 M-10.35 -7.9 L-10.2 -8.3 -8.9 -8.35 Q-7.95 -8.35 -7.5 -7.9 -8.1 -7.45 -8.9 -7.45 -9.75 -7.45 -10.35 -7.9 M-22.5 -7.85 L-21.6 -7.9 Q-19.65 -7.9 -18.95 -6.95 L-19.1 -6.8 -20.35 -6.65 Q-21.2 -6.65 -22.7 -7.45 L-22.5 -7.85 M-21.15 -10.6 L-21.45 -11.0 -21.2 -11.3 -18.2 -11.45 -15.15 -11.3 -15.0 -10.85 -18.15 -10.55 -21.15 -10.6 M-12.9 0.2 L-13.55 1.1 Q-14.4 1.95 -15.2 1.95 -16.0 1.95 -16.35 1.45 -14.7 -0.2 -14.3 -0.2 -12.9 -0.2 -12.9 0.2 M-12.3 2.5 Q-11.9 2.95 -11.9 3.6 -11.9 5.0 -12.6 5.2 L-12.9 3.9 Q-13.1 2.5 -12.45 2.5 L-12.3 2.5 M-4.95 9.45 L-4.65 8.25 Q-4.1 8.55 -4.1 9.5 -4.1 10.4 -4.65 10.65 L-4.95 9.45 M-30.6 4.6 Q-31.5 4.15 -31.5 1.4 -31.5 0.5 -31.1 -0.05 -30.95 0.05 -30.55 1.65 L-30.2 3.55 Q-30.2 4.2 -30.6 4.6 M-23.45 10.65 Q-24.15 9.7 -24.15 9.0 -24.3 7.9 -23.6 7.9 -23.0 7.9 -23.0 9.25 -23.0 10.15 -23.45 10.65 M-28.8 6.45 Q-28.8 7.15 -29.1 7.5 -29.9 7.1 -29.9 6.3 -30.0 5.1 -29.4 5.1 -28.8 5.1 -28.8 6.45" fill="#4a321b" fill-opacity="0.6431373" fill-rule="evenodd" stroke="none"/>
    </g>
    <radialGradient cx="0" cy="0" gradientTransform="matrix(-0.0367, -0.0227, -2.0E-4, 0.0271, 18.95, 7.6)" gradientUnits="userSpaceOnUse" id="gradient0" r="819.2" spreadMethod="pad">
      <stop offset="0.5176470588235295" stop-color="#432101" stop-opacity="0.7921569"/>
      <stop offset="0.9372549019607843" stop-color="#5c2e01" stop-opacity="0.0"/>
    </radialGradient>
    <radialGradient cx="0" cy="0" gradientTransform="matrix(-0.0056, -0.0101, -0.029, 0.0154, 1.85, 0.7)" gradientUnits="userSpaceOnUse" id="gradient1" r="819.2" spreadMethod="pad">
      <stop offset="0.5176470588235295" stop-color="#432101" stop-opacity="0.7921569"/>
      <stop offset="0.9372549019607843" stop-color="#5c2e01" stop-opacity="0.0"/>
    </radialGradient>
    <radialGradient cx="0" cy="0" gradientTransform="matrix(-6.0E-4, 0.0115, -0.0328, -0.0012, -1.9, 13.75)" gradientUnits="userSpaceOnUse" id="gradient2" r="819.2" spreadMethod="pad">
      <stop offset="0.5176470588235295" stop-color="#432101" stop-opacity="0.7921569"/>
      <stop offset="0.9372549019607843" stop-color="#5c2e01" stop-opacity="0.0"/>
    </radialGradient>
    <radialGradient cx="0" cy="0" gradientTransform="matrix(-0.0275, 0.0016, -2.0E-4, 0.0186, -32.6, -9.05)" gradientUnits="userSpaceOnUse" id="gradient3" r="819.2" spreadMethod="pad">
      <stop offset="0.5176470588235295" stop-color="#432101" stop-opacity="0.7921569"/>
      <stop offset="0.9372549019607843" stop-color="#5c2e01" stop-opacity="0.0"/>
    </radialGradient>
    <radialGradient cx="0" cy="0" gradientTransform="matrix(-0.0094, -0.0171, -0.0382, 0.0067, 14.3, -8.55)" gradientUnits="userSpaceOnUse" id="gradient4" r="819.2" spreadMethod="pad">
      <stop offset="0.5176470588235295" stop-color="#291101" stop-opacity="0.7921569"/>
      <stop offset="0.9372549019607843" stop-color="#5c2e01" stop-opacity="0.0"/>
    </radialGradient>
    <radialGradient cx="0" cy="0" gradientTransform="matrix(-0.0056, -0.0101, -0.0227, 0.004, -13.05, -2.0)" gradientUnits="userSpaceOnUse" id="gradient5" r="819.2" spreadMethod="pad">
      <stop offset="0.5176470588235295" stop-color="#1e261e" stop-opacity="0.7921569"/>
      <stop offset="0.9372549019607843" stop-color="#5c2e01" stop-opacity="0.0"/>
    </radialGradient>
    <radialGradient cx="0" cy="0" gradientTransform="matrix(-0.011, -0.0036, -2.0E-4, -0.023, 30.75, -3.65)" gradientUnits="userSpaceOnUse" id="gradient6" r="819.2" spreadMethod="pad">
      <stop offset="0.5176470588235295" stop-color="#1e261e" stop-opacity="0.7921569"/>
      <stop offset="0.9372549019607843" stop-color="#5c2e01" stop-opacity="0.0"/>
    </radialGradient>
    <radialGradient cx="0" cy="0" gradientTransform="matrix(-0.0249, -0.0083, -2.0E-4, -0.023, 27.55, -1.05)" gradientUnits="userSpaceOnUse" id="gradient7" r="819.2" spreadMethod="pad">
      <stop offset="0.5176470588235295" stop-color="#1e261e" stop-opacity="0.7921569"/>
      <stop offset="0.9372549019607843" stop-color="#5c2e01" stop-opacity="0.0"/>
    </radialGradient>
    <radialGradient cx="0" cy="0" gradientTransform="matrix(0.0056, -0.0101, 0.0227, 0.004, -22.7, 7.3)" gradientUnits="userSpaceOnUse" id="gradient8" r="819.2" spreadMethod="pad">
      <stop offset="0.5176470588235295" stop-color="#1e261e" stop-opacity="0.7921569"/>
      <stop offset="0.9372549019607843" stop-color="#5c2e01" stop-opacity="0.0"/>
    </radialGradient>
    <radialGradient cx="0" cy="0" gradientTransform="matrix(-0.0148, 0.0043, 0.0, 0.0056, -6.75, -14.5)" gradientUnits="userSpaceOnUse" id="gradient9" r="819.2" spreadMethod="pad">
      <stop offset="0.5176470588235295" stop-color="#1e261e" stop-opacity="0.7921569"/>
      <stop offset="0.9372549019607843" stop-color="#5c2e01" stop-opacity="0.0"/>
    </radialGradient>
  </defs>
</svg>
