<?xml version="1.0" encoding="UTF-8" standalone="no"?>
<svg xmlns:xlink="http://www.w3.org/1999/xlink" height="32.25px" width="51.75px" xmlns="http://www.w3.org/2000/svg">
  <g transform="matrix(1.0, 0.0, 0.0, 1.0, 25.85, 16.1)">
    <use height="32.25" transform="matrix(1.0, 0.0, 0.0, 1.0, -25.85, -16.1)" width="51.75" xlink:href="#shape0"/>
  </g>
  <defs>
    <g id="shape0" transform="matrix(1.0, 0.0, 0.0, 1.0, 25.85, 16.1)">
      <path d="M1.1 -12.45 L0.3 -12.65 1.1 -12.45 1.15 -12.5 1.1 -12.45 -2.35 -10.25 1.1 -12.45 2.65 -12.1 1.1 -12.45 M0.3 -12.65 L1.15 -12.5 2.65 -12.1 2.7 -12.1 4.0 -11.8 2.55 -10.65 -2.7 -7.3 -2.55 -8.8 -2.35 -10.25 -2.2 -11.7 -0.2 -13.0 -2.2 -11.7 -1.9 -14.1 -0.2 -13.0 0.3 -12.65 M15.3 -6.0 L15.65 -5.9 16.05 -5.75 17.45 -5.3 -2.55 7.45 -2.1 7.6 -4.65 10.2 -4.75 10.2 -4.55 10.0 -4.6 9.9 Q-4.5 9.75 -4.65 9.65 L-5.15 9.5 -5.7 9.55 -6.15 9.65 -6.2 9.7 -6.6 9.55 -6.35 9.4 -6.4 9.3 Q-6.3 9.15 -6.5 9.05 L-6.95 8.9 -7.5 8.95 -7.95 9.05 -5.3 6.35 -5.1 6.45 -4.7 6.75 -3.95 7.0 16.0 -5.75 16.05 -5.75 16.0 -5.75 -3.95 7.0 -2.55 7.45 -3.95 7.0 -4.7 6.75 -5.1 6.45 15.3 -6.0 M25.65 -4.15 Q26.0 -4.1 25.6 -3.2 L20.55 7.2 20.5 7.3 20.55 4.8 20.6 3.4 20.65 1.9 20.65 0.55 23.1 -4.55 20.65 0.55 20.7 -0.9 22.5 -4.65 23.1 -4.55 23.75 -4.45 20.65 1.9 23.75 -4.45 24.35 -4.35 24.95 -4.25 25.65 -4.15 M-17.0 3.65 L-17.05 3.6 Q-17.0 3.45 -17.2 3.4 -17.4 3.25 -17.65 3.25 L-18.25 3.3 -18.75 3.45 -19.15 3.35 -19.0 3.2 -19.05 3.15 -19.2 2.9 -19.65 2.75 -20.1 2.75 -20.1 2.8 -20.2 2.75 -20.5 2.7 -20.8 2.35 -20.7 2.3 -20.7 2.25 -20.8 1.95 -21.1 1.55 -21.55 1.25 -21.85 1.2 -22.15 0.85 -22.05 0.75 -22.05 0.7 Q-22.0 0.55 -22.1 0.35 L-22.25 0.0 -21.35 0.0 -20.15 -0.2 -20.1 -0.2 -20.15 -0.25 -20.45 -0.8 -9.6 -10.8 -12.5 -5.15 -13.5 -3.15 -14.55 -1.15 -15.6 0.9 -15.8 1.0 -15.65 1.05 -17.0 3.65 M16.05 -5.75 L17.45 -5.3 16.05 -5.75 M-4.4 8.6 L-2.55 7.45 -4.4 8.6 M24.35 -4.35 L20.6 3.4 24.35 -4.35 M24.95 -4.25 L20.55 4.8 24.95 -4.25 M2.65 -12.1 L-2.55 -8.8 2.65 -12.1 M-18.85 0.25 L-19.7 0.1 -20.1 -0.2 -19.7 0.1 -18.85 0.25 -13.5 -3.15 -18.85 0.25 -17.35 0.65 -18.85 0.25 -20.1 1.1 -20.15 1.1 -20.45 1.2 -20.15 1.1 -20.1 1.1 -18.85 0.25 M-12.5 -5.15 L-20.15 -0.25 -12.5 -5.15 M-5.8 8.15 L-3.95 7.0 -5.8 8.15 M-17.65 2.2 L-15.8 1.0 -17.65 2.2 M-15.8 1.0 L-17.35 0.65 -15.8 1.0 M-17.35 0.65 L-14.55 -1.15 -17.35 0.65 -19.15 1.8 -17.35 0.65" fill="#b7a9a6" fill-rule="evenodd" stroke="none"/>
      <path d="M8.85 -10.65 L9.15 -10.55 9.95 -10.0 10.9 -9.25 11.9 -8.5 12.85 -7.8 13.85 -7.05 15.3 -6.0 -5.1 6.45 -5.3 6.35 -5.65 6.05 -4.25 4.45 -1.65 1.45 1.0 -1.55 3.6 -4.6 10.9 -9.25 3.6 -4.6 6.25 -7.65 8.85 -10.65 M21.95 -4.75 L22.25 -4.7 22.5 -4.65 20.7 -0.9 20.75 -2.35 21.95 -4.75 M9.15 -10.55 L9.9 -9.95 9.15 -10.55 M9.9 -9.95 L9.95 -10.0 9.9 -9.95 10.9 -9.25 9.9 -9.95 6.25 -7.65 9.9 -9.95 M11.9 -8.5 L1.0 -1.55 11.9 -8.5 M12.85 -7.8 L-1.65 1.45 12.85 -7.8 M13.85 -7.05 L-4.25 4.45 13.85 -7.05" fill="#d1c9c7" fill-rule="evenodd" stroke="none"/>
      <path d="M-2.2 -11.7 L-2.35 -10.25 -13.5 -3.15 -2.35 -10.25 -2.55 -8.8 -14.55 -1.15 -2.55 -8.8 -2.7 -7.3 2.55 -10.65 4.0 -11.8 4.05 -11.8 4.2 -11.75 5.75 -11.35 7.3 -11.0 7.85 -10.85 8.05 -10.8 8.85 -10.65 6.25 -7.65 3.6 -4.6 1.0 -1.55 -8.1 4.25 1.0 -1.55 -1.65 1.45 -4.25 4.45 -6.15 5.7 -4.25 4.45 -5.65 6.05 -5.3 6.35 -7.95 9.05 -8.05 9.1 -8.3 9.05 -8.35 9.0 -8.2 8.85 -8.15 8.75 Q-8.1 8.55 -8.2 8.45 L-8.45 8.2 -8.95 8.15 -9.4 8.25 -9.7 8.0 -9.5 7.85 -9.5 7.75 Q-9.4 7.6 -9.55 7.45 L-9.85 7.2 -10.25 7.15 -10.7 7.25 -11.05 7.0 -10.85 6.85 -10.85 6.75 -10.85 6.45 -11.15 6.2 -11.6 6.15 -12.05 6.25 -12.3 6.05 -12.05 5.85 -12.05 5.75 -12.1 5.45 -12.4 5.2 -12.85 5.15 -13.25 5.25 -13.35 5.3 -13.6 5.1 -13.35 4.9 -13.35 4.8 -13.35 4.5 -13.65 4.25 -14.0 4.2 -14.2 4.25 -14.65 4.4 -14.7 4.4 -15.3 4.3 -15.1 4.05 -15.05 4.05 -15.25 3.8 Q-15.45 3.65 -15.75 3.65 L-16.35 3.7 -16.85 3.85 -16.85 3.9 -17.1 3.85 -17.15 3.85 -17.1 3.8 -17.0 3.7 -17.0 3.65 -16.85 3.9 -17.0 3.65 -15.65 1.05 -15.8 1.0 -15.6 0.9 -14.55 -1.15 -13.5 -3.15 -12.5 -5.15 -9.6 -10.8 -20.45 -0.8 -23.55 -6.05 -20.15 -6.65 -20.15 -6.7 -5.95 -15.75 Q-5.25 -16.25 -4.55 -15.75 L-1.9 -14.1 -2.2 -11.7 -12.5 -5.15 -2.2 -11.7 M17.45 -5.3 L18.85 -4.85 20.25 -4.35 20.55 -4.25 20.55 -4.2 21.1 -4.45 21.85 -4.75 21.95 -4.75 20.75 -2.35 20.7 -0.9 20.5 -0.5 20.5 -0.45 4.0 10.0 20.5 -0.45 20.5 -0.5 20.7 -0.9 20.65 0.55 20.65 1.9 20.5 2.2 6.05 11.4 20.5 2.2 20.65 1.9 20.6 3.4 20.55 4.8 20.5 4.95 Q14.3 8.9 8.15 12.8 14.3 8.9 20.5 4.95 L20.55 4.8 20.5 7.3 9.95 14.05 7.05 15.85 6.1 16.0 6.25 15.85 6.3 15.8 6.2 15.45 5.85 15.25 5.45 15.2 5.0 15.3 4.95 15.35 4.75 15.2 4.95 15.05 4.95 14.95 4.95 14.65 4.6 14.4 4.15 14.4 3.7 14.5 3.35 14.25 3.7 14.0 3.7 13.9 3.75 13.55 3.4 13.35 2.9 13.3 2.45 13.45 2.35 13.5 2.35 13.55 1.9 13.3 2.15 13.05 2.15 13.0 2.1 12.7 Q2.0 12.5 1.75 12.45 L1.3 12.4 0.9 12.5 0.85 12.55 0.5 12.35 0.7 12.1 0.75 12.0 0.7 11.7 0.4 11.45 -0.15 11.45 -0.5 11.55 -0.55 11.6 -0.95 11.4 -0.6 11.2 -0.6 11.1 -0.7 10.85 -1.15 10.7 -1.75 10.7 -2.25 10.85 -2.3 10.95 -2.35 11.0 -2.9 10.8 -2.55 10.55 -2.55 10.45 -2.65 10.2 -3.1 10.05 -3.65 10.1 -4.1 10.2 -4.25 10.3 -4.3 10.35 -4.65 10.2 -2.1 7.6 -2.55 7.45 17.45 -5.3 18.8 -4.8 17.45 -5.3 M-22.25 0.0 L-22.6 -0.3 -22.95 -0.4 -23.1 -0.7 -23.0 -0.8 -22.95 -0.85 -23.0 -1.2 -23.25 -1.65 -23.55 -1.9 -23.85 -2.05 -24.05 -2.3 -23.95 -2.4 -23.9 -2.45 -23.95 -2.8 -24.15 -3.2 -24.45 -3.45 -24.8 -3.6 -25.05 -4.05 -24.95 -4.1 -24.9 -4.15 -24.95 -4.5 -25.15 -4.9 -25.5 -5.2 -25.7 -5.3 Q-25.8 -5.65 -25.5 -5.7 L-24.25 -5.9 -23.55 -6.05 -20.45 -0.8 -21.35 0.0 -22.25 0.0 M4.2 -11.75 L2.55 -10.65 4.2 -11.75 M-9.1 3.5 L3.6 -4.6 -9.1 3.5 -8.1 4.25 -9.1 3.5 -10.1 2.8 -9.1 3.5 -10.95 4.7 -9.1 3.5 M20.25 -4.35 L20.2 -4.35 20.25 -4.35 M21.1 -4.45 L20.6 -4.2 20.55 -4.2 20.2 -4.35 18.8 -4.8 20.2 -4.35 20.55 -4.2 20.6 -4.2 21.1 -4.45 20.5 -3.2 1.6 8.85 20.5 -3.2 21.1 -4.45 21.85 -4.75 21.1 -4.45 M18.8 -4.8 L18.85 -4.85 18.8 -4.8 -1.15 7.9 18.8 -4.8 M-1.15 7.9 L-2.1 7.6 -1.15 7.9 0.25 8.4 -1.15 7.9 -3.0 9.1 -1.15 7.9 M5.05 10.7 L4.0 10.0 5.05 10.7 20.5 0.9 20.5 0.85 20.65 0.55 20.5 0.85 20.5 0.9 5.05 10.7 6.05 11.4 5.05 10.7 3.2 11.9 5.05 10.7 M3.0 9.3 L20.5 -1.85 20.75 -2.35 20.5 -1.85 3.0 9.3 4.0 10.0 3.0 9.3 2.85 9.25 1.6 8.85 0.25 8.4 1.6 8.85 2.85 9.25 3.0 9.3 1.05 10.35 3.0 9.3 M2.15 11.2 L4.0 10.0 2.15 11.2 M7.1 12.1 L20.5 3.6 20.6 3.4 20.5 3.6 7.1 12.1 8.15 12.8 9.95 14.05 8.15 12.8 7.1 12.1 6.05 11.4 5.0 12.1 6.05 11.4 7.1 12.1 5.75 12.8 7.1 12.1 M5.0 12.1 L4.95 12.1 4.6 12.2 4.45 12.3 4.25 12.55 4.55 12.9 5.2 13.05 5.4 13.05 5.75 12.8 5.8 12.75 5.8 12.7 5.8 12.35 5.45 12.15 5.0 12.1 M6.3 14.0 L8.15 12.8 6.3 14.0 M0.25 8.4 L20.2 -4.35 0.25 8.4 -1.6 9.55 0.25 8.4 M-22.6 -2.85 L-22.65 -2.75 -22.75 -2.55 -22.6 -2.05 -22.05 -1.55 -21.75 -1.6 -21.7 -1.7 -21.75 -2.0 -22.0 -2.45 -22.3 -2.7 -22.6 -2.85 M-7.15 4.95 L-1.65 1.45 -7.15 4.95 -6.15 5.7 -7.15 4.95 -9.0 6.15 -7.15 4.95 -8.1 4.25 -7.15 4.95 M-8.7 4.6 L-8.1 4.25 -8.7 4.6 -8.95 4.45 -9.4 4.4 -9.85 4.5 -9.9 4.6 -10.1 4.85 -9.85 5.25 -9.8 5.3 -9.05 5.35 -8.65 5.15 -8.6 5.05 -8.65 4.7 -8.7 4.6 M-6.15 5.7 L-5.65 6.05 -6.15 5.7 -8.0 6.85 -6.15 5.7 M-11.9 3.95 L-10.1 2.8 -11.9 3.95 M-11.15 2.15 L-10.85 2.2 -10.1 2.8 -10.85 2.2 -11.15 2.15 -13.0 3.3 -11.15 2.15 -12.7 1.75 -11.15 2.15 8.85 -10.65 -11.15 2.15 M-12.7 1.75 L-14.55 2.95 -12.7 1.75 -14.25 1.4 -12.7 1.75 7.3 -11.0 -12.7 1.75 M-16.1 2.55 L-14.25 1.4 -16.1 2.55 M-14.25 1.4 L-15.65 1.05 -14.25 1.4 5.75 -11.35 -14.25 1.4 M-0.2 10.0 L1.6 8.85 -0.2 10.0 M-15.6 0.9 L-2.7 -7.3 -15.6 0.9 M-10.1 2.8 L6.25 -7.65 -10.1 2.8" fill="#ddd8d5" fill-rule="evenodd" stroke="none"/>
      <path d="M20.55 7.2 L20.55 7.25 20.5 7.3 20.5 7.35 20.5 7.3 20.55 7.2" fill="#dddddd" fill-rule="evenodd" stroke="none"/>
      <path d="M-20.45 -0.8 L-20.15 -0.25 -20.1 -0.2 -20.15 -0.2 -21.35 0.0 -20.45 -0.8" fill="#c4c4c4" fill-rule="evenodd" stroke="none"/>
      <path d="M1.1 -12.45 L1.15 -12.5 M-0.2 -13.0 L-2.2 -11.7 -12.5 -5.15 M-2.35 -10.25 L1.1 -12.45 M9.95 -10.0 L9.9 -9.95 M10.9 -9.25 L3.6 -4.6 -9.1 3.5 -10.95 4.7 M1.0 -1.55 L11.9 -8.5 M2.55 -10.65 L4.2 -11.75 M6.25 -7.65 L9.9 -9.95 M-8.1 4.25 L1.0 -1.55 M-1.65 1.45 L12.85 -7.8 M20.2 -4.35 L20.25 -4.35 M18.85 -4.85 L18.8 -4.8 M17.45 -5.3 L-2.55 7.45 -4.4 8.6 M-1.15 7.9 L18.8 -4.8 M16.05 -5.75 L16.0 -5.75 -3.95 7.0 -5.8 8.15 M23.1 -4.55 L20.65 0.55 M20.65 1.9 L23.75 -4.45 M1.6 8.85 L20.5 -3.2 21.1 -4.45 M20.7 -0.9 L20.5 -0.5 20.5 -0.45 4.0 10.0 2.15 11.2 M5.05 10.7 L20.5 0.9 20.5 0.85 20.65 0.55 M20.75 -2.35 L20.5 -1.85 3.0 9.3 1.05 10.35 M20.75 -2.35 L21.95 -4.75 M20.7 -0.9 L22.5 -4.65 M6.05 11.4 L20.5 2.2 20.65 1.9 M20.6 3.4 L24.35 -4.35 M8.15 12.8 Q14.3 8.9 20.5 4.95 L20.55 4.8 24.95 -4.25 M20.6 3.4 L20.5 3.6 7.1 12.1 M4.25 12.55 L5.0 12.1 6.05 11.4 M5.05 10.7 L3.2 11.9 M5.75 12.8 L7.1 12.1 M5.75 12.8 L5.2 13.05 M8.15 12.8 L6.3 14.0 M20.2 -4.35 L0.25 8.4 -1.6 9.55 M-1.15 7.9 L-3.0 9.1 M-13.5 -3.15 L-2.35 -10.25 M-2.55 -8.8 L2.65 -12.1 M-14.55 -1.15 L-2.55 -8.8 M-2.7 -7.3 L2.55 -10.65 M-21.35 0.0 L-20.15 -0.2 -20.1 -0.2 M-18.85 0.25 L-13.5 -3.15 M-20.15 -0.25 L-12.5 -5.15 M-1.65 1.45 L-7.15 4.95 -9.0 6.15 M-6.15 5.7 L-4.25 4.45 13.85 -7.05 M-8.1 4.25 L-8.7 4.6 M-9.8 5.3 L-9.85 5.25 M-6.15 5.7 L-8.0 6.85 M-10.1 2.8 L-11.9 3.95 M-11.15 2.15 L-13.0 3.3 M-14.55 2.95 L-12.7 1.75 M-14.25 1.4 L-16.1 2.55 M-11.15 2.15 L8.85 -10.65 M-14.25 1.4 L5.75 -11.35 M-15.8 1.0 L-17.65 2.2 M-15.8 1.0 L-15.6 0.9 M-14.55 -1.15 L-17.35 0.65 -19.15 1.8 M-18.85 0.25 L-20.1 1.1 -20.15 1.1 -20.45 1.2 M-2.7 -7.3 L-15.6 0.9 M1.6 8.85 L-0.2 10.0 M7.3 -11.0 L-12.7 1.75 M6.25 -7.65 L-10.1 2.8" fill="none" stroke="#270f8a" stroke-linecap="round" stroke-linejoin="round" stroke-opacity="0.13725491" stroke-width="0.25"/>
      <path d="M0.3 -12.65 L1.1 -12.45 2.65 -12.1 2.7 -12.1 4.0 -11.8 M0.3 -12.65 L-0.2 -13.0 M7.85 -10.85 L8.05 -10.8 8.85 -10.65 9.15 -10.55 M10.9 -9.25 L11.9 -8.5 12.85 -7.8 13.85 -7.05 15.3 -6.0 15.65 -5.9 16.05 -5.75 M21.85 -4.75 L21.95 -4.75 22.25 -4.7 M22.5 -4.65 L25.65 -4.15 Q26.0 -4.1 25.6 -3.2 L20.55 7.2 20.5 7.3 9.95 14.05 7.05 15.85 6.1 16.0 6.25 15.85 6.3 15.8 6.2 15.45 5.85 15.25 5.45 15.2 5.0 15.3 4.95 15.35 4.75 15.2 4.95 15.05 4.95 14.95 4.95 14.65 4.6 14.4 4.15 14.4 3.7 14.5 3.35 14.25 3.7 14.0 3.7 13.9 3.75 13.55 3.4 13.35 2.9 13.3 2.45 13.45 2.35 13.5 2.35 13.55 1.9 13.3 2.15 13.05 2.15 13.0 2.1 12.7 Q2.0 12.5 1.75 12.45 L1.3 12.4 0.9 12.5 0.85 12.55 0.5 12.35 0.7 12.1 0.75 12.0 0.7 11.7 0.4 11.45 -0.15 11.45 -0.5 11.55 -0.55 11.6 -0.95 11.4 -0.6 11.2 -0.6 11.1 -0.7 10.85 -1.15 10.7 -1.75 10.7 -2.25 10.85 -2.3 10.95 -2.35 11.0 -2.9 10.8 -2.55 10.55 -2.55 10.45 -2.65 10.2 -3.1 10.05 -3.65 10.1 -4.1 10.2 -4.25 10.3 -4.3 10.35 -4.65 10.2 -4.75 10.2 -4.55 10.0 -4.6 9.9 Q-4.5 9.75 -4.65 9.65 L-5.15 9.5 -5.7 9.55 -6.15 9.65 -6.2 9.7 -6.6 9.55 -6.35 9.4 -6.4 9.3 Q-6.3 9.15 -6.5 9.05 L-6.95 8.9 -7.5 8.95 -7.95 9.05 -8.05 9.1 -8.3 9.05 -8.35 9.0 -8.2 8.85 -8.15 8.75 Q-8.1 8.55 -8.2 8.45 L-8.45 8.2 -8.95 8.15 -9.4 8.25 -9.7 8.0 -9.5 7.85 -9.5 7.75 Q-9.4 7.6 -9.55 7.45 L-9.85 7.2 -10.25 7.15 -10.7 7.25 -11.05 7.0 -10.85 6.85 -10.85 6.75 -10.85 6.45 -11.15 6.2 -11.6 6.15 -12.05 6.25 -12.3 6.05 -12.05 5.85 -12.05 5.75 -12.1 5.45 -12.4 5.2 -12.85 5.15 -13.25 5.25 -13.35 5.3 -13.6 5.1 -13.35 4.9 -13.35 4.8 -13.35 4.5 -13.65 4.25 -14.0 4.2 -14.2 4.25 -14.65 4.4 -14.7 4.4 -15.3 4.3 -15.1 4.05 -15.05 4.05 -15.25 3.8 Q-15.45 3.65 -15.75 3.65 L-16.35 3.7 -16.85 3.85 -16.85 3.9 -17.0 3.65 -17.05 3.6 Q-17.0 3.45 -17.2 3.4 -17.4 3.25 -17.65 3.25 L-18.25 3.3 -18.75 3.45 -19.15 3.35 -19.0 3.2 -19.05 3.15 -19.2 2.9 -19.65 2.75 -20.1 2.75 -20.1 2.8 -20.2 2.75 -20.5 2.7 -20.8 2.35 -20.7 2.3 -20.7 2.25 -20.8 1.95 -21.1 1.55 -21.55 1.25 -21.85 1.2 -22.15 0.85 -22.05 0.75 -22.05 0.7 Q-22.0 0.55 -22.1 0.35 L-22.25 0.0 -22.6 -0.3 -22.95 -0.4 -23.1 -0.7 -23.0 -0.8 -22.95 -0.85 -23.0 -1.2 -23.25 -1.65 -23.55 -1.9 -23.85 -2.05 -24.05 -2.3 -23.95 -2.4 -23.9 -2.45 -23.95 -2.8 -24.15 -3.2 -24.45 -3.45 -24.8 -3.6 -25.05 -4.05 -24.95 -4.1 -24.9 -4.15 -24.95 -4.5 -25.15 -4.9 -25.5 -5.2 -25.7 -5.3 Q-25.8 -5.65 -25.5 -5.7 L-24.25 -5.9 -20.15 -6.7 -5.95 -15.75 Q-5.25 -16.25 -4.55 -15.75 L-1.9 -14.1 -0.2 -13.0 M9.9 -9.95 L9.15 -10.55 M9.9 -9.95 L10.9 -9.25 M7.85 -10.85 L4.05 -11.8 4.0 -11.8 M18.8 -4.8 L20.2 -4.35 20.55 -4.2 20.6 -4.2 21.1 -4.45 21.85 -4.75 M18.8 -4.8 L17.45 -5.3 16.05 -5.75" fill="none" stroke="#5a5856" stroke-linecap="round" stroke-linejoin="round" stroke-opacity="0.49803922" stroke-width="0.25"/>
      <path d="M-9.1 3.5 L-8.1 4.25 -7.15 4.95 -6.15 5.7 M-2.55 7.45 L-2.1 7.6 -1.15 7.9 M-3.95 7.0 L-2.55 7.45 M4.0 10.0 L5.05 10.7 M3.0 9.3 L4.0 10.0 M7.1 12.1 L8.15 12.8 9.95 14.05 M0.25 8.4 L1.6 8.85 2.85 9.25 3.0 9.3 M6.05 11.4 L5.05 10.7 M7.1 12.1 L6.05 11.4 M0.25 8.4 L-1.15 7.9 M-20.45 -0.8 L-23.55 -6.05 M-20.1 -0.2 L-20.15 -0.25 -20.45 -0.8 M-20.1 -0.2 L-19.7 0.1 -18.85 0.25 M-5.65 6.05 L-6.15 5.7 M-9.1 3.5 L-10.1 2.8 -10.85 2.2 -11.15 2.15 M-5.1 6.45 L-5.3 6.35 M-5.1 6.45 L-4.7 6.75 -3.95 7.0 M-5.65 6.05 L-5.3 6.35 M-12.7 1.75 L-14.25 1.4 M-12.7 1.75 L-11.15 2.15 M-15.8 1.0 L-15.65 1.05 -14.25 1.4 M-17.35 0.65 L-15.8 1.0 M-17.35 0.65 L-18.85 0.25" fill="none" stroke="#990000" stroke-linecap="round" stroke-linejoin="round" stroke-opacity="0.13725491" stroke-width="0.25"/>
      <path d="M1.85 -3.2 L1.8 -3.25 1.8 -3.35 1.85 -3.2 2.2 -2.65 3.4 -1.95 4.0 -1.95 4.0 -2.75 3.4 -3.65 4.65 -3.35 4.55 -5.1 4.75 -5.2 Q5.7 -5.2 6.05 -4.2 L6.15 -4.2 Q6.15 -4.95 5.75 -5.2 5.75 -6.0 6.45 -6.0 L8.0 -5.0 M0.25 -5.7 Q-0.05 -5.3 -0.05 -3.55 -0.05 -0.7 0.6 -0.15 L0.85 -0.05 0.75 -1.1 0.15 -1.15 0.75 -1.2 0.35 -5.6 0.25 -5.7 M0.75 -1.2 L1.35 -1.25 1.75 -1.45 Q2.4 -1.9 2.4 -2.35 L2.2 -2.65 M0.75 -1.1 L0.75 -1.2 M1.35 -1.25 L1.8 -1.3 Q3.1 -1.25 3.1 0.0 L3.1 1.1 2.4 1.1 0.85 -0.05 0.85 0.3 0.75 2.45 M0.75 -1.1 L1.35 -1.25 M9.2 5.4 L9.35 4.7 8.2 2.55 7.0 2.55 Q7.15 2.4 7.9 2.0 L7.35 1.0 7.25 0.95 7.3 0.95 7.35 1.0 8.55 1.6 11.65 -0.2 10.0 2.35 Q11.3 3.05 11.7 2.95 L11.8 3.15 11.3 3.15 9.75 2.8 9.35 4.7 M8.55 1.6 L9.5 2.1 10.0 2.35 9.75 2.8 8.2 2.55 7.9 2.0 8.55 1.6 M0.65 3.15 L1.35 3.8 3.4 3.8 2.25 4.65 Q4.05 6.55 3.9 7.2 L3.9 7.3 1.55 5.15 Q0.8 5.75 0.65 6.55 L0.65 4.25 Q0.2 3.9 -0.15 3.9 L-0.15 3.8 0.65 3.8 0.65 3.15 M0.65 4.25 L0.65 3.8 1.35 3.8 2.25 4.65 1.8 4.95 1.55 5.15 1.35 4.95 0.65 4.25 M-13.0 -6.65 L-10.1 -7.4 -10.35 -8.85 -10.25 -9.05 -10.05 -9.05 -10.05 -7.4 -9.0 -7.65 Q-7.5 -8.45 -6.25 -10.0 M-16.45 -0.3 Q-16.05 -0.65 -15.9 -1.7 L-15.9 -2.95 Q-15.6 -2.15 -14.3 -1.65 L-13.7 -1.65 -13.7 -2.15 -14.0 -2.85 -14.0 -2.95 -12.5 -2.45 -12.4 -2.95 Q-12.4 -3.55 -13.1 -3.9 L-13.2 -4.0 -11.55 -4.0 -11.55 -5.0 Q-11.05 -4.85 -11.05 -4.0 L-10.35 -4.0 Q-9.9 -4.4 -9.85 -5.55 L-10.05 -7.2 -10.1 -7.4 -10.05 -7.4 -10.05 -7.2 -9.85 -5.95 -9.85 -5.55 -9.45 -4.7 -8.5 -4.7 -8.4 -6.75 -8.4 -6.95 -8.2 -5.7 -7.3 -5.7 -7.2 -7.75 -6.6 -7.75 -6.35 -6.65 -6.25 -6.55 -6.05 -8.65 -5.95 -8.85 -5.25 -7.85 -5.15 -7.85 -5.35 -8.3 -4.9 -9.15 -4.75 -10.3 -4.15 -9.8 -4.15 -9.6 -3.95 -9.6 -3.95 -9.05 -4.15 -9.6 -4.35 -9.6 Q-4.0 -8.55 -3.95 -6.15 L-3.3 -6.75 Q-2.6 -7.55 -2.1 -9.6 L-2.1 -12.35 -3.2 -10.4 M-4.55 -9.6 L-4.9 -9.15 -4.95 -7.85 -5.15 -7.85 -4.85 -7.75 Q-4.25 -7.75 -4.35 -9.6 L-4.55 -9.6 M-2.4 -4.4 L-2.15 -5.85 -2.1 -6.3 -2.1 -6.4 -1.6 -5.6 -0.65 -5.5 -0.65 -8.15 -0.05 -8.15 Q0.45 -7.9 0.45 -7.25 0.45 -5.5 -0.55 -5.5 L-0.65 -5.5 M-7.8 -0.35 L-7.45 -1.1 -8.2 -2.0 -8.8 -1.7 -8.7 -0.75 -7.8 -0.35 -6.4 0.25 -7.45 -1.1 -6.85 -2.3 -6.9 -2.55 -8.2 -2.0 -8.95 -2.85 -8.95 -2.75 -8.8 -1.7 -9.9 -1.25 -8.7 -0.75 -8.65 0.0 -8.7 0.95 -7.8 -0.35 M-6.8 -2.6 L-6.75 -2.6 -6.85 -2.3 Q-6.8 -1.15 -6.0 -1.15 -4.4 -1.15 -4.05 -2.25 L-3.95 -5.05 -3.95 -6.15 -5.55 -4.8 -6.9 -2.65 -6.9 -2.55 -6.8 -2.6" fill="none" stroke="#2c2b29" stroke-linecap="round" stroke-linejoin="round" stroke-opacity="0.4117647" stroke-width="0.25"/>
      <path d="M22.5 -2.2 Q24.65 0.0 22.15 3.0 19.6 6.0 11.3 6.65 2.95 7.3 -5.45 5.35 -13.9 3.4 -17.2 0.1 -20.5 -3.25 -16.75 -5.95 -13.05 -8.7 -4.35 -9.25 4.25 -9.8 12.3 -7.1 20.3 -4.4 22.5 -2.2" fill="url(#gradient0)" fill-rule="evenodd" stroke="none"/>
      <path d="M0.3 -12.65 L1.05 -12.5 Q7.05 -6.1 7.05 2.85 7.05 9.3 3.95 14.45 L3.7 14.5 3.35 14.25 3.7 14.0 3.7 13.9 3.75 13.55 3.4 13.35 2.9 13.3 2.45 13.45 2.35 13.5 2.35 13.55 1.9 13.3 2.15 13.05 2.15 13.0 2.1 12.7 Q2.0 12.5 1.75 12.45 L1.3 12.4 0.9 12.5 0.85 12.55 0.5 12.35 0.7 12.1 0.75 12.0 0.7 11.7 0.4 11.45 -0.15 11.45 -0.5 11.55 -0.55 11.6 -0.95 11.4 -0.6 11.2 -0.6 11.1 -0.7 10.85 -1.15 10.7 -1.75 10.7 -2.25 10.85 -2.3 10.95 -2.35 11.0 -2.9 10.8 -2.55 10.55 -2.55 10.45 -2.65 10.2 -3.1 10.05 -3.65 10.1 -4.1 10.2 -4.25 10.3 -4.3 10.35 -4.65 10.2 -4.75 10.2 -4.55 10.0 -4.6 9.9 Q-4.5 9.75 -4.65 9.65 L-5.15 9.5 -5.7 9.55 -6.15 9.65 -6.2 9.7 -6.6 9.55 -6.35 9.4 -6.4 9.3 Q-6.3 9.15 -6.5 9.05 L-6.95 8.9 -7.5 8.95 -7.95 9.05 -8.05 9.1 -8.3 9.05 -8.35 9.0 -8.2 8.85 -8.15 8.75 Q-8.1 8.55 -8.2 8.45 L-8.45 8.2 -8.95 8.15 -9.4 8.25 -9.7 8.0 -9.5 7.85 -9.5 7.75 Q-9.4 7.6 -9.55 7.45 L-9.85 7.2 -10.25 7.15 -10.7 7.25 -11.05 7.0 -10.85 6.85 -10.85 6.75 -10.85 6.45 -11.15 6.2 -11.6 6.15 -12.05 6.25 -12.3 6.05 -12.05 5.85 -12.05 5.75 -12.1 5.45 -12.4 5.2 -12.85 5.15 -13.25 5.25 -13.35 5.3 -13.6 5.1 -13.35 4.9 -13.35 4.8 -13.35 4.5 -13.65 4.25 -14.0 4.2 -14.2 4.25 -14.65 4.4 -14.7 4.4 -15.3 4.3 -15.1 4.05 -15.05 4.05 -15.25 3.8 Q-15.45 3.65 -15.75 3.65 L-16.35 3.7 -16.85 3.85 -16.85 3.9 -17.0 3.65 -17.05 3.6 Q-17.0 3.45 -17.2 3.4 -17.4 3.25 -17.65 3.25 L-18.25 3.3 -18.75 3.45 -19.15 3.35 -19.0 3.2 -19.05 3.15 -19.2 2.9 -19.65 2.75 -20.1 2.75 -20.1 2.8 -20.2 2.75 -20.5 2.7 -20.8 2.35 -20.7 2.3 -20.7 2.25 -20.8 1.95 -21.1 1.55 -21.55 1.25 -21.85 1.2 -22.15 0.85 -22.05 0.75 -22.05 0.7 Q-22.0 0.55 -22.1 0.35 L-22.25 0.0 -22.6 -0.3 -22.95 -0.4 -23.1 -0.7 -23.0 -0.8 -22.95 -0.85 -23.0 -1.2 -23.25 -1.65 -23.55 -1.9 -23.85 -2.05 -24.05 -2.3 -23.95 -2.4 -23.9 -2.45 -23.95 -2.8 -24.15 -3.2 -24.45 -3.45 -24.8 -3.6 -25.05 -4.05 -24.95 -4.1 -24.9 -4.15 -24.95 -4.5 -25.15 -4.9 -25.5 -5.2 -25.7 -5.3 Q-25.8 -5.65 -25.5 -5.7 L-20.15 -6.7 -5.95 -15.75 Q-5.25 -16.25 -4.55 -15.75 L0.3 -12.65" fill="url(#gradient1)" fill-rule="evenodd" stroke="none"/>
      <path d="M-9.85 3.95 L-10.0 3.95 Q-13.95 3.9 -17.15 2.6 -20.4 1.3 -21.3 -0.55 -22.25 -2.45 -18.1 -3.75 -13.95 -5.1 -10.0 -5.1 L-9.85 -5.1 -9.85 3.95" fill="url(#gradient2)" fill-rule="evenodd" stroke="none"/>
      <path d="M-9.85 -5.1 Q-6.05 -6.8 -3.35 -6.75 -0.6 -6.65 -0.6 -4.75 -0.6 -2.9 -3.35 -0.35 -6.05 2.15 -9.85 3.95 L-9.85 -5.1" fill="url(#gradient3)" fill-rule="evenodd" stroke="none"/>
      <path d="M3.5 1.0 L11.55 2.35 11.55 6.95 3.5 8.1 3.35 8.1 Q0.25 8.1 -2.25 7.05 -4.8 6.05 -5.5 4.6 -6.2 3.1 -2.95 2.1 0.25 1.0 3.35 1.0 L3.5 1.0" fill="url(#gradient4)" fill-rule="evenodd" stroke="none"/>
      <path d="M11.95 2.6 L20.0 3.95 20.0 8.55 11.95 9.7 11.75 9.7 Q8.7 9.7 6.2 8.65 3.65 7.65 2.95 6.15 2.25 4.7 5.5 3.7 8.7 2.6 11.75 2.6 L11.95 2.6" fill="url(#gradient5)" fill-rule="evenodd" stroke="none"/>
      <path d="M8.1 -9.0 L8.15 -9.0 7.5 -7.2 Q5.55 -3.0 3.9 -1.05 2.2 0.85 0.05 0.15 -2.05 -0.6 -4.25 -3.05 -6.15 -5.15 -5.0 -8.55 L-4.75 -8.8 -4.65 -8.95 -4.6 -9.0 8.1 -9.0" fill="url(#gradient6)" fill-rule="evenodd" stroke="none"/>
      <path d="M-4.75 -8.8 L-5.25 -9.85 Q-6.65 -13.25 -6.95 -15.1 L-5.95 -15.75 Q-5.25 -16.25 -4.55 -15.75 L0.3 -12.65 6.4 -11.2 8.1 -9.0 -4.6 -9.0 -4.65 -9.0 -4.65 -8.95 -4.75 -8.8" fill="url(#gradient7)" fill-rule="evenodd" stroke="none"/>
      <path d="M20.45 7.3 L15.6 10.45 Q13.1 9.7 11.1 7.85 7.95 4.9 7.95 0.65 7.95 -3.6 11.1 -6.6 L12.75 -7.85 15.3 -6.0 20.6 -4.2 20.85 -4.35 20.45 7.3" fill="url(#gradient8)" fill-rule="evenodd" stroke="none"/>
      <path d="M20.45 7.3 L20.85 -4.35 21.85 -4.75 21.95 -4.75 25.65 -4.15 Q26.0 -4.1 25.6 -3.2 L20.55 7.2 20.5 7.3 20.45 7.3" fill="url(#gradient9)" fill-rule="evenodd" stroke="none"/>
    </g>
    <radialGradient cx="0" cy="0" gradientTransform="matrix(0.0099, 0.0099, -0.0258, 0.0016, 3.6, -1.25)" gradientUnits="userSpaceOnUse" id="gradient0" r="819.2" spreadMethod="pad">
      <stop offset="0.5176470588235295" stop-color="#291101" stop-opacity="0.44313726"/>
      <stop offset="0.9372549019607843" stop-color="#5c2e01" stop-opacity="0.0"/>
    </radialGradient>
    <radialGradient cx="0" cy="0" gradientTransform="matrix(0.028, 0.0, 0.0, 0.028, -15.5, 2.85)" gradientUnits="userSpaceOnUse" id="gradient1" r="819.2" spreadMethod="pad">
      <stop offset="0.5176470588235295" stop-color="#432101" stop-opacity="0.7921569"/>
      <stop offset="0.9372549019607843" stop-color="#5c2e01" stop-opacity="0.0"/>
    </radialGradient>
    <radialGradient cx="0" cy="0" gradientTransform="matrix(0.0127, 0.0, 0.0, 0.0061, -10.05, -0.6)" gradientUnits="userSpaceOnUse" id="gradient2" r="819.2" spreadMethod="pad">
      <stop offset="0.5176470588235295" stop-color="#1e261e" stop-opacity="0.7921569"/>
      <stop offset="0.9372549019607843" stop-color="#5c2e01" stop-opacity="0.0"/>
    </radialGradient>
    <radialGradient cx="0" cy="0" gradientTransform="matrix(0.0127, -0.0058, 0.0, 0.0061, -10.05, -0.5)" gradientUnits="userSpaceOnUse" id="gradient3" r="819.2" spreadMethod="pad">
      <stop offset="0.5176470588235295" stop-color="#1e261e" stop-opacity="0.7921569"/>
      <stop offset="0.9372549019607843" stop-color="#5c2e01" stop-opacity="0.0"/>
    </radialGradient>
    <radialGradient cx="0" cy="0" gradientTransform="matrix(0.01, 0.0, 0.0, 0.0048, 3.3, 4.55)" gradientUnits="userSpaceOnUse" id="gradient4" r="819.2" spreadMethod="pad">
      <stop offset="0.5176470588235295" stop-color="#1e261e" stop-opacity="0.7921569"/>
      <stop offset="0.9372549019607843" stop-color="#5c2e01" stop-opacity="0.0"/>
    </radialGradient>
    <radialGradient cx="0" cy="0" gradientTransform="matrix(0.01, 0.0, 0.0, 0.0048, 11.75, 6.15)" gradientUnits="userSpaceOnUse" id="gradient5" r="819.2" spreadMethod="pad">
      <stop offset="0.5176470588235295" stop-color="#1e261e" stop-opacity="0.7921569"/>
      <stop offset="0.9372549019607843" stop-color="#5c2e01" stop-opacity="0.0"/>
    </radialGradient>
    <radialGradient cx="0" cy="0" gradientTransform="matrix(0.0031, 0.0101, -0.0055, 0.0062, 1.6, -8.6)" gradientUnits="userSpaceOnUse" id="gradient6" r="819.2" spreadMethod="pad">
      <stop offset="0.5176470588235295" stop-color="#432101" stop-opacity="0.7921569"/>
      <stop offset="0.9372549019607843" stop-color="#5c2e01" stop-opacity="0.0"/>
    </radialGradient>
    <radialGradient cx="0" cy="0" gradientTransform="matrix(0.0121, 0.0101, 0.0, 0.0062, 1.9, -8.6)" gradientUnits="userSpaceOnUse" id="gradient7" r="819.2" spreadMethod="pad">
      <stop offset="0.5176470588235295" stop-color="#432101" stop-opacity="0.7921569"/>
      <stop offset="0.9372549019607843" stop-color="#5c2e01" stop-opacity="0.0"/>
    </radialGradient>
    <radialGradient cx="0" cy="0" gradientTransform="matrix(0.0134, 0.0, 0.0, 0.0134, 18.8, 0.65)" gradientUnits="userSpaceOnUse" id="gradient8" r="819.2" spreadMethod="pad">
      <stop offset="0.5176470588235295" stop-color="#291101" stop-opacity="0.7921569"/>
      <stop offset="0.9372549019607843" stop-color="#5c2e01" stop-opacity="0.0"/>
    </radialGradient>
    <radialGradient cx="0" cy="0" gradientTransform="matrix(0.0129, 0.0, 0.0, 0.0129, 23.75, -2.75)" gradientUnits="userSpaceOnUse" id="gradient9" r="819.2" spreadMethod="pad">
      <stop offset="0.5176470588235295" stop-color="#291101" stop-opacity="0.7921569"/>
      <stop offset="0.9372549019607843" stop-color="#5c2e01" stop-opacity="0.0"/>
    </radialGradient>
  </defs>
</svg>
