<?xml version="1.0" encoding="UTF-8" standalone="no"?>
<svg xmlns:xlink="http://www.w3.org/1999/xlink" height="38.45px" width="66.8px" xmlns="http://www.w3.org/2000/svg">
  <g transform="matrix(1.0, 0.0, 0.0, 1.0, 33.4, 19.2)">
    <use height="38.45" transform="matrix(1.0, 0.0, 0.0, 1.0, -33.4, -19.2)" width="66.8" xlink:href="#shape0"/>
  </g>
  <defs>
    <g id="shape0" transform="matrix(1.0, 0.0, 0.0, 1.0, 33.4, 19.2)">
      <path d="M-31.0 -1.15 L-31.85 -2.6 -31.1 -2.6 -20.55 16.2 -20.65 16.9 -31.0 -1.15" fill="#7e5c3d" fill-rule="evenodd" stroke="none"/>
      <path d="M-30.95 -4.0 L-33.15 -8.2 Q-27.95 -5.65 -14.25 -8.95 -7.35 -10.65 1.75 -13.8 8.05 -16.05 15.35 -18.95 L30.2 -11.85 Q35.05 -8.75 31.95 -4.8 L-19.75 18.85 Q-19.55 18.35 -19.85 16.2 L-22.5 11.0 Q-24.85 6.15 -30.95 -4.0" fill="url(#gradient0)" fill-rule="evenodd" stroke="none"/>
      <path d="M-31.8 -0.8 L-32.0 -1.15 -31.0 -1.15 -20.65 16.9 -20.8 17.65 -31.8 -0.8" fill="url(#gradient1)" fill-rule="evenodd" stroke="none"/>
      <path d="M-19.75 18.85 Q-19.95 19.25 -21.05 18.4 L-33.15 -0.85 -31.8 -0.8 -20.8 17.65 -20.65 16.9 -20.55 16.2 -31.1 -2.6 -31.8 -3.8 -30.95 -4.0 Q-24.85 6.15 -22.5 11.0 L-19.85 16.2 Q-19.55 18.35 -19.75 18.85" fill="url(#gradient2)" fill-rule="evenodd" stroke="none"/>
      <path d="M-30.95 -4.0 L-33.15 -8.2 Q-27.95 -5.65 -14.25 -8.95 -7.35 -10.65 1.75 -13.8 8.05 -16.05 15.35 -18.95 L30.2 -11.85 Q35.05 -8.75 31.95 -4.8 L-19.75 18.85 Q-19.95 19.25 -21.05 18.4 L-33.15 -0.85 -31.8 -0.8 -32.0 -1.15 -31.0 -1.15 -31.85 -2.6 -31.1 -2.6 -31.8 -3.8 -30.95 -4.0 Q-24.85 6.15 -22.5 11.0 L-19.85 16.2 Q-19.55 18.35 -19.75 18.85 M-31.8 -0.8 L-20.8 17.65 -20.65 16.9 -31.0 -1.15 M-20.65 16.9 L-20.55 16.2 -31.1 -2.6" fill="none" stroke="#7e5c3d" stroke-linecap="round" stroke-linejoin="round" stroke-width="0.5"/>
      <path d="M10.85 -13.45 L11.9 -13.8 13.4 -11.45 14.65 -11.9 15.05 -11.25 12.85 -10.35 10.85 -13.45 M9.65 -13.0 L12.55 -10.25 11.55 -9.85 11.05 -10.3 10.15 -10.05 10.4 -9.35 9.3 -8.95 8.25 -12.55 9.65 -13.0 M10.0 -10.7 L10.5 -10.9 9.45 -12.1 9.4 -12.1 10.0 -10.7 M0.8 -8.8 L0.5 -8.95 0.2 -8.9 Q0.0 -8.95 0.0 -8.8 L0.0 -8.6 0.25 -8.1 0.6 -7.55 1.05 -7.0 1.3 -6.7 1.55 -6.6 1.8 -6.55 Q1.9 -6.8 2.05 -6.75 L2.05 -7.0 1.85 -7.3 1.45 -7.95 1.1 -8.5 0.8 -8.8 M0.75 -9.7 L1.45 -9.6 Q1.8 -9.55 2.2 -9.15 L2.8 -8.4 3.15 -7.65 3.25 -6.95 3.05 -6.45 2.25 -6.05 1.35 -5.85 0.65 -5.9 -0.1 -6.3 -0.75 -7.05 -1.3 -7.9 -1.4 -8.55 Q-1.4 -9.0 -1.05 -9.1 L-0.2 -9.45 0.75 -9.7 M4.8 -10.0 Q4.65 -10.35 4.5 -10.2 L4.1 -10.15 3.85 -10.1 4.35 -9.35 4.6 -9.45 4.9 -9.7 4.8 -10.0 M5.2 -11.1 Q5.4 -11.2 5.65 -10.9 L5.85 -10.55 6.1 -10.05 5.7 -9.5 6.4 -9.55 6.9 -9.05 7.1 -8.75 7.15 -8.6 7.25 -8.55 7.45 -8.35 7.55 -8.35 7.65 -8.35 7.7 -8.25 6.4 -7.75 6.25 -7.85 6.1 -8.1 5.95 -8.2 5.85 -8.3 5.8 -8.55 5.6 -8.85 5.45 -8.95 5.25 -8.95 Q5.05 -9.0 5.1 -8.85 L4.7 -8.8 5.65 -7.45 4.4 -6.95 2.1 -10.25 4.1 -11.0 4.7 -11.15 5.2 -11.1 M5.85 -11.6 L7.15 -12.05 9.2 -8.9 8.05 -8.45 5.85 -11.6 M-7.55 -3.15 L-7.25 -3.3 -7.25 -3.7 -7.4 -4.05 -7.8 -4.75 -8.3 -5.4 -8.65 -5.8 -9.0 -5.95 Q-9.25 -6.15 -9.35 -5.85 L-9.65 -5.75 -7.9 -3.1 -7.55 -3.15 M-9.5 -6.8 L-8.3 -6.95 -7.45 -6.5 -6.9 -6.0 -6.45 -5.15 -6.0 -4.35 -5.8 -3.7 -6.0 -3.1 Q-6.3 -2.9 -6.85 -2.6 L-9.0 -1.85 -12.0 -6.15 -9.5 -6.8 M-7.15 -7.45 L-5.75 -7.75 -3.45 -3.8 -4.65 -3.3 -7.15 -7.45 M-3.35 -8.4 L-3.35 -8.35 -2.25 -8.75 -1.65 -7.95 -2.7 -7.55 -0.7 -4.9 -2.15 -4.35 -3.35 -5.9 -4.05 -7.15 -4.95 -6.85 -5.55 -7.85 -3.35 -8.4 M-12.7 -6.05 L-12.1 -5.05 -14.45 -4.35 -13.8 -3.55 -11.7 -4.25 -11.0 -3.4 -13.15 -2.55 -12.45 -1.65 -10.2 -2.5 -9.6 -1.6 -13.75 0.0 -17.35 -4.85 -12.7 -6.05" fill="#2b2b2b" fill-opacity="0.75686276" fill-rule="evenodd" stroke="none"/>
      <path d="M29.85 -3.9 L11.2 4.8 Q12.05 2.6 9.65 0.8 L29.1 -7.65 Q31.05 -5.7 29.85 -3.9" fill="#000000" fill-opacity="0.23137255" fill-rule="evenodd" stroke="none"/>
      <path d="M7.2 -0.95 L17.25 -5.25 M6.25 -1.8 L16.05 -5.9 M5.25 -2.45 L15.25 -6.6 M29.85 -3.9 L11.2 4.8 Q12.05 2.6 9.65 0.8 L29.1 -7.65 Q31.05 -5.7 29.85 -3.9 M19.05 -6.0 L27.2 -9.45 M17.95 -6.7 L26.15 -10.15 M16.85 -7.3 L25.25 -10.8 M19.85 -5.15 L28.05 -8.75 M8.0 0.0 L18.35 -4.5 M-15.8 16.4 L-6.2 12.15 M-16.1 14.9 L-5.8 10.35 M-16.5 13.45 L-5.9 8.8 M-17.55 11.15 L-6.9 6.5 M-17.05 12.05 L-6.35 7.5 M-18.35 9.85 L-7.9 5.45 M-19.2 8.85 L-9.05 4.6 M-19.7 7.9 L-9.55 3.7 M-5.2 7.0 L7.4 1.6 M-6.5 4.85 L5.6 -0.3 M-5.7 6.0 L6.55 0.65 M-8.3 3.15 L4.1 -2.0 M-7.4 3.9 L4.75 -1.2 M-4.45 11.35 L8.25 5.65 M-4.5 9.75 L8.2 4.15 M-4.75 8.3 L7.95 2.7" fill="none" stroke="#5a5856" stroke-linecap="round" stroke-linejoin="round" stroke-opacity="0.49803922" stroke-width="0.5"/>
      <path d="M-28.9 -5.5 L-20.25 -5.95 Q-14.4 -6.65 -4.65 -9.75 5.05 -12.9 15.65 -17.5 M-28.0 -4.45 L-19.35 -5.25 Q-13.5 -5.95 -3.75 -9.05 5.95 -12.2 16.55 -16.8 M22.9 -13.65 Q-3.9 -1.5 -23.75 3.85" fill="none" stroke="#5a5856" stroke-linecap="round" stroke-linejoin="round" stroke-width="0.5"/>
      <path d="M30.2 -11.85 L31.25 -11.1 Q32.95 -9.7 33.15 -8.15 33.35 -6.55 31.95 -4.8 L-0.75 10.15 Q-16.15 6.4 -22.0 -2.55 -23.7 -5.1 -24.25 -7.2 L-21.45 -7.5 -14.25 -8.95 Q-8.55 -10.35 -1.35 -12.75 L1.75 -13.8 Q8.05 -16.05 15.35 -18.95 L30.2 -11.85 M-24.5 -8.45 L-24.3 -8.45 -24.5 -8.4 -24.5 -8.45" fill="url(#gradient3)" fill-rule="evenodd" stroke="none"/>
      <path d="M29.75 -12.05 Q20.9 -9.0 17.65 -8.2 12.15 -6.85 7.05 -9.0 3.2 -10.6 -1.35 -12.75 L1.75 -13.8 Q8.05 -16.05 15.35 -18.95 L29.75 -12.05" fill="url(#gradient4)" fill-rule="evenodd" stroke="none"/>
      <path d="M-31.85 -2.6 L-31.1 -2.6 -20.55 16.2 -20.7 17.05 -21.7 16.1 -32.0 -1.15 -31.0 -1.15 -31.85 -2.6 M-30.3 -7.2 L-30.05 -7.3 Q-25.65 -8.3 -21.45 -7.5 L-17.0 -6.2 Q-10.65 -3.55 -8.5 1.85 -6.4 7.25 -9.75 12.3 -11.2 14.35 -13.2 15.85 -15.65 17.7 -19.0 18.65 L-19.1 18.55 -19.65 18.0 -19.85 16.2 -22.5 11.0 Q-24.85 6.15 -30.95 -4.0 L-32.35 -6.6 -30.3 -7.2" fill="url(#gradient5)" fill-rule="evenodd" stroke="none"/>
      <path d="M11.75 -14.5 L8.8 -14.3 Q9.15 -14.85 11.45 -15.4 L14.3 -15.6 Q14.45 -15.2 13.15 -14.85 L11.75 -14.5 M3.85 -3.9 L6.45 -4.15 6.5 -4.0 Q6.85 -3.15 4.9 -2.6 L1.45 -2.7 Q1.75 -3.55 3.85 -3.9 M16.5 -12.35 Q16.6 -12.95 17.9 -13.25 19.9 -13.75 20.3 -12.75 L19.0 -12.1 16.5 -12.35 M11.65 -2.15 L4.45 0.35 2.8 0.25 Q3.9 -0.95 8.65 -2.1 L11.6 -2.3 11.65 -2.15 M13.2 -1.45 Q15.5 -2.0 15.9 -1.45 L12.85 -0.25 11.05 -0.3 Q11.3 -1.0 13.2 -1.45 M13.05 1.25 L12.85 1.0 Q12.6 0.3 13.65 -0.15 L14.8 -0.4 17.3 -0.5 Q17.1 -0.05 16.05 0.2 L17.15 0.65 Q16.85 1.25 15.85 1.5 L14.85 1.7 Q13.5 1.85 13.05 1.25 M21.9 -13.9 Q22.5 -14.05 23.9 -13.2 25.5 -12.25 26.05 -10.95 26.35 -10.2 24.85 -9.9 23.95 -9.7 22.55 -10.65 21.15 -11.65 20.7 -12.8 20.35 -13.8 21.9 -13.9 M-31.15 -2.25 L-31.15 -3.05 Q-30.5 -3.05 -30.35 -2.7 -30.3 -2.5 -31.15 -2.25 M-31.1 -6.65 L-31.15 -6.65 -31.15 -6.75 -31.1 -6.65 M-12.15 -6.3 Q-11.4 -7.45 -9.9 -7.8 L-8.15 -7.75 -8.1 -7.6 -10.6 -6.2 -12.15 -6.3 M-6.8 5.75 Q-6.6 6.3 -8.1 6.55 L-10.05 6.4 -13.4 4.0 Q-12.7 3.35 -12.05 3.2 L-9.55 3.8 Q-7.2 4.7 -6.8 5.75 M-19.8 2.8 Q-19.65 2.2 -16.5 1.5 L-13.3 1.2 Q-14.35 2.05 -18.15 2.95 L-19.8 2.8" fill="#341a09" fill-opacity="0.54901963" fill-rule="evenodd" stroke="none"/>
      <path d="M1.1 -12.7 L-0.1 -12.65 1.55 -13.55 Q2.85 -14.25 3.5 -14.35 L4.8 -14.4 1.1 -12.7 M8.55 -8.65 Q8.7 -8.25 7.6 -7.95 L6.3 -8.0 4.9 -9.35 5.95 -9.75 7.6 -9.5 Q8.35 -9.15 8.55 -8.65 M19.3 -6.5 L20.5 -6.6 20.55 -6.55 Q20.7 -6.1 18.55 -5.1 L16.3 -4.2 15.15 -4.1 16.9 -5.4 17.6 -5.8 16.4 -6.8 Q15.05 -8.1 14.85 -8.55 14.7 -8.9 15.85 -9.15 16.75 -9.35 17.85 -8.4 L19.25 -6.5 19.3 -6.5 M14.85 1.7 Q15.3 2.95 14.1 3.0 12.9 3.3 11.9 1.65 L13.0 1.25 13.05 1.25 Q13.5 1.85 14.85 1.7 M19.3 -3.05 Q19.6 -3.35 20.3 -3.5 L21.5 -3.55 20.45 -3.1 19.65 -2.95 19.3 -3.05 M22.65 -6.7 L24.85 -6.6 Q24.35 -6.3 23.85 -6.15 L21.7 -6.25 Q21.75 -6.5 22.65 -6.7 M23.25 -3.2 L24.25 -3.6 Q26.0 -4.0 26.45 -3.0 26.6 -2.55 25.45 -2.3 L24.4 -2.25 23.25 -3.2 M7.7 4.1 L9.8 5.6 8.45 6.15 Q6.05 6.7 5.4 4.9 L5.1 4.1 6.2 3.75 Q7.1 3.5 7.7 4.1 M2.45 2.15 L3.75 1.9 5.45 1.8 4.45 2.35 1.5 2.7 1.35 2.65 Q1.65 2.35 2.45 2.15 M-26.7 -2.5 Q-26.7 -3.0 -25.6 -3.25 L-24.35 -3.3 Q-24.25 -3.05 -24.8 -2.8 L-25.5 -2.6 -26.7 -2.5 M-24.7 -3.65 Q-25.4 -3.5 -25.9 -3.65 -25.3 -4.35 -24.05 -4.65 L-22.7 -4.7 Q-24.15 -3.8 -24.7 -3.65 M-22.55 -0.5 Q-22.25 0.2 -23.4 1.1 L-24.8 1.9 -26.0 2.0 Q-25.3 1.1 -24.95 0.15 -24.85 -0.3 -23.75 -0.55 L-22.55 -0.5 M-3.75 -11.2 L-4.1 -11.3 -1.8 -12.25 -0.65 -12.4 -0.6 -12.25 Q-0.5 -12.0 -2.45 -11.5 L-3.75 -11.2 M-6.95 -4.85 Q-6.15 -2.85 -8.6 -2.4 L-9.4 -2.25 Q-9.6 -2.1 -9.7 -2.4 -10.5 -4.4 -8.05 -4.9 L-6.95 -4.85 M-4.35 3.8 Q-4.05 3.45 -2.75 3.15 1.0 2.25 1.4 2.55 L-0.35 3.15 -4.35 3.8 M-5.0 8.75 L-5.0 8.8 Q-4.75 9.4 -11.1 11.95 L-12.25 12.05 Q-7.2 9.1 -6.15 8.85 L-5.0 8.75 M-17.65 4.6 L-16.6 4.25 -14.4 4.4 -15.45 4.8 Q-17.6 5.3 -17.65 4.6 M-17.05 7.55 Q-16.1 7.25 -15.7 7.55 L-18.05 8.25 -19.45 8.6 Q-19.35 9.4 -21.2 9.8 L-22.45 9.85 Q-22.75 9.0 -20.9 8.55 L-19.85 8.35 -18.2 7.9 -17.05 7.55 M-15.35 12.25 L-16.35 12.7 Q-17.95 13.05 -18.1 12.7 L-18.25 11.95 -17.2 11.6 -16.25 11.55 -15.35 12.25 M-17.9 17.6 L-18.7 17.9 -19.75 18.1 Q-19.85 18.3 -19.95 18.0 -21.05 15.25 -20.6 14.5 -20.45 14.25 -20.1 14.2 L-19.7 14.2 -18.85 14.1 Q-18.45 14.15 -18.15 14.95 -17.35 16.9 -17.9 17.6 M-24.85 5.2 Q-24.35 4.9 -23.6 4.75 L-22.05 4.6 -23.4 5.3 -24.35 5.65 -24.85 5.75 -24.55 5.8 -24.85 5.95 -24.85 5.75 -24.85 5.2" fill="#341a09" fill-opacity="0.7921569" fill-rule="evenodd" stroke="none"/>
      <path d="M15.3 2.4 L-13.8 16.15 Q-14.5 14.3 -14.5 12.3 -14.5 6.85 -9.8 -1.4 -5.15 -9.65 1.9 -7.55 8.95 -5.45 14.0 0.7 L15.3 2.4" fill="url(#gradient6)" fill-rule="evenodd" stroke="none"/>
    </g>
    <linearGradient gradientTransform="matrix(0.0, 0.0, 0.0, 0.0, 0.0, 0.0)" gradientUnits="userSpaceOnUse" id="gradient0" spreadMethod="pad" x1="-819.2" x2="819.2">
      <stop offset="0.0" stop-color="#dac4b6"/>
      <stop offset="1.0" stop-color="#bd9975"/>
    </linearGradient>
    <linearGradient gradientTransform="matrix(0.0, 0.0, 0.0, 0.0, 0.0, 0.0)" gradientUnits="userSpaceOnUse" id="gradient1" spreadMethod="pad" x1="-819.2" x2="819.2">
      <stop offset="0.0" stop-color="#7b5140"/>
      <stop offset="1.0" stop-color="#bd9975"/>
    </linearGradient>
    <linearGradient gradientTransform="matrix(0.0, 0.0, 0.0, 0.0, 0.0, 0.0)" gradientUnits="userSpaceOnUse" id="gradient2" spreadMethod="pad" x1="-819.2" x2="819.2">
      <stop offset="0.0" stop-color="#7b5140"/>
      <stop offset="1.0" stop-color="#342518"/>
    </linearGradient>
    <radialGradient cx="0" cy="0" gradientTransform="matrix(0.0123, 0.0313, -0.0385, 0.0093, 10.55, -22.85)" gradientUnits="userSpaceOnUse" id="gradient3" r="819.2" spreadMethod="pad">
      <stop offset="0.5176470588235295" stop-color="#291101" stop-opacity="0.7921569"/>
      <stop offset="0.9372549019607843" stop-color="#5c2e01" stop-opacity="0.0"/>
    </radialGradient>
    <radialGradient cx="0" cy="0" gradientTransform="matrix(0.007, 0.0179, -0.0228, 0.0055, 17.0, -22.5)" gradientUnits="userSpaceOnUse" id="gradient4" r="819.2" spreadMethod="pad">
      <stop offset="0.5176470588235295" stop-color="#1e261e" stop-opacity="0.7921569"/>
      <stop offset="0.9372549019607843" stop-color="#5c2e01" stop-opacity="0.0"/>
    </radialGradient>
    <radialGradient cx="0" cy="0" gradientTransform="matrix(-0.0063, -0.0161, -0.0205, 0.0049, -25.2, 5.85)" gradientUnits="userSpaceOnUse" id="gradient5" r="819.2" spreadMethod="pad">
      <stop offset="0.5176470588235295" stop-color="#1e261e" stop-opacity="0.7921569"/>
      <stop offset="0.9372549019607843" stop-color="#5c2e01" stop-opacity="0.0"/>
    </radialGradient>
    <radialGradient cx="0" cy="0" gradientTransform="matrix(0.0208, 0.0, 0.0, 0.0208, 2.25, 12.3)" gradientUnits="userSpaceOnUse" id="gradient6" r="819.2" spreadMethod="pad">
      <stop offset="0.5176470588235295" stop-color="#432101" stop-opacity="0.7921569"/>
      <stop offset="0.9372549019607843" stop-color="#5c2e01" stop-opacity="0.0"/>
    </radialGradient>
  </defs>
</svg>
