<?xml version="1.0" encoding="UTF-8" standalone="no"?>
<svg xmlns:xlink="http://www.w3.org/1999/xlink" height="62.1px" width="39.2px" xmlns="http://www.w3.org/2000/svg">
  <g transform="matrix(1.0, 0.0, 0.0, 1.0, 19.5, 31.05)">
    <use height="62.1" transform="matrix(1.0, 0.0, 0.0, 1.0, -19.5, -31.05)" width="39.2" xlink:href="#shape0"/>
  </g>
  <defs>
    <g id="shape0" transform="matrix(1.0, 0.0, 0.0, 1.0, 19.5, 31.05)">
      <path d="M-9.4 -28.4 L-9.4 -30.8 17.2 -28.75 17.25 -25.55 11.85 -24.2 11.85 -18.7 11.15 -18.45 9.8 -25.3 -3.5 -27.4 -3.85 -28.85 -8.7 -29.5 -8.75 -28.25 -9.4 -28.4" fill="url(#gradient0)" fill-rule="evenodd" stroke="none"/>
      <path d="M17.25 -25.55 L19.25 -26.0 18.35 -21.05 11.85 -18.7 11.85 -24.2 17.25 -25.55" fill="#e1d9de" fill-rule="evenodd" stroke="none"/>
      <path d="M18.35 -21.05 L14.75 25.6 8.35 30.8 Q-4.45 25.2 -17.25 19.55 L-17.25 1.85 9.55 8.95 11.15 -18.45 11.85 -18.7 18.35 -21.05 M-17.25 -24.45 L-19.25 -29.95 -17.0 -29.6 -10.05 -28.5 -9.4 -28.4 -8.75 -28.25 -8.7 -29.5 -3.85 -28.85 -3.5 -27.4 9.8 -25.3 11.15 -18.45 -17.25 -24.45 M12.4 -12.7 L10.1 26.6 13.35 24.0 16.45 -13.95 12.4 -12.7 M8.35 30.8 L9.55 8.95 8.35 30.8" fill="#660066" fill-rule="evenodd" stroke="none"/>
      <path d="M12.4 -12.7 L16.45 -13.95 13.35 24.0 10.1 26.6 12.4 -12.7" fill="#b6b196" fill-rule="evenodd" stroke="none"/>
      <path d="M-17.0 -29.6 L-10.7 -29.75 -10.05 -28.5 -17.0 -29.6" fill="url(#gradient1)" fill-rule="evenodd" stroke="none"/>
      <path d="M-17.25 1.85 L-17.25 -24.45 11.15 -18.45 9.55 8.95 -17.25 1.85" fill="url(#gradient2)" fill-rule="evenodd" stroke="none"/>
      <path d="M-9.4 -28.4 L-9.4 -30.8 17.2 -28.75 17.25 -25.55 19.25 -26.0 18.35 -21.05 14.75 25.6 8.35 30.8 Q-4.45 25.2 -17.25 19.55 L-17.25 1.85 -17.25 -24.45 -19.25 -29.95 -17.0 -29.6 -10.7 -29.75 -10.05 -28.5 -9.4 -28.4 -8.75 -28.25 -8.7 -29.5 -3.85 -28.85 -3.5 -27.4 9.8 -25.3 11.15 -18.45 11.85 -18.7 11.85 -24.2 17.25 -25.55 M11.85 -18.7 L18.35 -21.05 M9.55 8.95 L8.35 30.8 M11.15 -18.45 L9.55 8.95 -17.25 1.85 M-17.0 -29.6 L-10.05 -28.5 M11.15 -18.45 L-17.25 -24.45" fill="none" stroke="#824a6c" stroke-linecap="round" stroke-linejoin="round" stroke-width="0.5"/>
      <path d="M4.45 -13.5 L4.9 -12.45 Q4.9 -11.85 4.45 -11.4 4.05 -11.0 3.5 -11.0 2.95 -11.0 2.55 -11.4 2.15 -11.85 2.15 -12.45 2.15 -13.05 2.55 -13.5 2.95 -13.9 3.5 -13.9 4.05 -13.9 4.45 -13.5 M3.05 -3.25 Q3.05 -3.8 3.45 -4.2 3.8 -4.6 4.35 -4.6 4.9 -4.6 5.3 -4.2 L5.65 -3.25 Q5.65 -2.7 5.3 -2.25 4.9 -1.85 4.35 -1.85 3.8 -1.85 3.45 -2.25 3.05 -2.7 3.05 -3.25 M0.75 -8.45 Q0.75 -7.75 0.35 -7.3 -0.15 -6.9 -0.85 -6.9 -1.5 -6.9 -1.95 -7.3 -2.4 -7.75 -2.4 -8.45 -2.4 -9.15 -1.95 -9.55 -1.5 -10.05 -0.85 -10.05 -0.15 -10.05 0.35 -9.55 0.75 -9.15 0.75 -8.45 M1.85 -7.35 L2.05 -8.4 2.4 -8.8 2.8 -8.4 2.95 -7.35 2.8 -6.35 2.4 -5.9 Q2.2 -5.9 2.05 -6.35 L1.85 -7.35 M8.25 -7.55 Q8.25 -8.2 8.4 -8.6 L8.75 -9.0 9.1 -8.6 9.2 -7.55 9.1 -6.55 8.75 -6.1 Q8.55 -6.1 8.4 -6.55 8.25 -6.95 8.25 -7.55 M6.0 -8.8 L6.1 -7.75 6.0 -6.65 5.55 -6.25 5.25 -6.65 Q5.0 -7.15 5.0 -7.75 5.0 -8.4 5.25 -8.8 5.35 -9.3 5.55 -9.3 L6.0 -8.8 M7.9 -15.4 Q8.05 -15.8 8.25 -15.8 L8.65 -15.4 8.8 -14.35 8.65 -13.35 8.25 -12.95 Q8.05 -12.95 7.9 -13.35 L7.7 -14.35 7.9 -15.4 M0.05 -3.5 Q0.5 -3.9 1.05 -3.9 1.6 -3.9 2.0 -3.5 2.4 -3.1 2.4 -2.5 2.4 -1.85 2.0 -1.45 1.6 -1.05 1.05 -1.05 0.5 -1.05 0.05 -1.45 -0.35 -1.85 -0.35 -2.5 -0.35 -3.1 0.05 -3.5 M3.1 8.1 Q3.5 8.55 3.5 9.1 3.5 9.65 3.1 10.05 2.7 10.45 2.15 10.45 1.6 10.45 1.15 10.05 0.75 9.65 0.75 9.1 0.75 8.55 1.15 8.1 1.6 7.7 2.15 7.7 2.7 7.7 3.1 8.1 M0.75 3.45 Q1.15 3.85 1.15 4.4 1.15 4.95 0.75 5.35 0.35 5.8 -0.2 5.8 L-1.15 5.35 -1.6 4.4 Q-1.6 3.85 -1.15 3.45 -0.75 3.05 -0.2 3.05 0.35 3.05 0.75 3.45 M2.15 0.3 Q2.5 0.7 2.5 1.25 L2.15 2.2 Q1.7 2.6 1.15 2.6 0.6 2.6 0.3 2.2 -0.15 1.8 -0.15 1.25 -0.15 0.7 0.3 0.3 L1.15 -0.15 Q1.7 -0.15 2.15 0.3 M3.5 1.85 Q3.65 1.4 3.85 1.4 L4.25 1.85 4.4 2.9 4.25 4.0 3.85 4.4 3.5 4.0 3.3 2.9 3.5 1.85 M6.0 -0.9 Q6.1 -1.4 6.35 -1.4 L6.75 -0.9 6.9 0.15 6.75 1.25 6.35 1.65 Q6.1 1.65 6.0 1.25 L5.8 0.15 6.0 -0.9 M1.1 10.95 Q1.25 10.45 1.5 10.45 L2.0 10.95 2.15 12.05 2.0 13.2 1.5 13.6 Q1.25 13.6 1.1 13.2 L0.9 12.05 1.1 10.95 M-6.8 7.5 L-6.55 7.0 -6.35 7.1 -6.2 7.35 -6.1 7.85 -6.05 8.1 -6.35 9.85 -6.45 9.65 -6.8 7.5 M-3.9 9.9 L-3.45 8.1 Q-3.3 8.05 -3.1 8.65 -2.95 9.3 -2.95 10.2 L-2.9 10.85 -3.35 11.6 -3.9 9.9 M-1.6 12.05 L-1.1 10.4 Q-0.9 10.4 -0.75 11.0 -0.6 11.55 -0.6 12.45 L-0.55 13.0 -0.95 14.35 -1.3 14.25 -1.5 13.4 -1.6 12.25 -1.6 12.05 M-3.35 -1.4 Q-3.35 -2.0 -2.95 -2.4 -2.55 -2.8 -2.0 -2.8 -1.45 -2.8 -1.05 -2.4 -0.6 -2.0 -0.6 -1.4 -0.6 -0.75 -1.05 -0.35 -1.45 0.05 -2.0 0.05 -2.55 0.05 -2.95 -0.35 -3.35 -0.75 -3.35 -1.4 M-4.4 -3.65 L-4.6 -4.8 -4.4 -5.9 -4.0 -6.4 Q-3.7 -6.4 -3.5 -5.9 -3.35 -5.5 -3.35 -4.8 -3.35 -4.15 -3.5 -3.65 -3.7 -3.25 -4.0 -3.25 L-4.4 -3.65 M-2.15 -5.5 L-1.7 -6.0 -1.25 -5.5 Q-1.1 -5.1 -1.1 -4.45 -1.1 -3.85 -1.25 -3.35 L-1.7 -2.95 -2.15 -3.35 -2.35 -4.45 -2.15 -5.5 M-5.5 -0.55 L-5.1 -0.05 Q-4.95 0.35 -4.95 0.95 -4.95 1.6 -5.1 2.05 L-5.5 2.5 -5.85 2.05 -6.05 0.95 -5.85 -0.05 -5.5 -0.55 M-1.95 -12.65 L-1.7 -13.7 -1.4 -14.15 -0.95 -13.7 -0.85 -12.65 -0.95 -11.55 -1.4 -11.15 -1.7 -11.55 -1.95 -12.65 M-4.25 4.4 Q-3.7 4.4 -3.3 4.8 -2.95 5.25 -2.95 5.8 -2.95 6.35 -3.3 6.75 -3.7 7.15 -4.25 7.15 -4.8 7.15 -5.15 6.75 -5.55 6.35 -5.55 5.8 -5.55 5.25 -5.15 4.8 -4.8 4.4 -4.25 4.4 M-0.95 6.55 L-0.85 7.55 -0.95 8.65 -1.45 9.1 -1.85 8.65 -2.05 7.55 -1.85 6.55 Q-1.7 6.05 -1.45 6.05 -1.15 6.05 -0.95 6.55" fill="#86465a" fill-rule="evenodd" stroke="none"/>
      <path d="M0.15 -14.8 L0.6 -14.6 0.75 -14.05 0.6 -13.5 0.15 -13.25 Q-0.15 -13.25 -0.3 -13.5 -0.5 -13.7 -0.5 -14.05 L-0.3 -14.6 0.15 -14.8 M0.75 -5.9 L0.95 -5.25 0.75 -4.55 0.3 -4.25 Q0.0 -4.25 -0.2 -4.55 L-0.4 -5.25 -0.2 -5.9 Q0.0 -6.2 0.3 -6.2 L0.75 -5.9 M6.75 -5.45 L7.2 -5.1 7.45 -4.25 7.2 -3.45 Q7.0 -3.1 6.75 -3.1 6.45 -3.1 6.25 -3.45 L6.05 -4.25 6.25 -5.1 Q6.45 -5.45 6.75 -5.45 M0.05 8.2 L0.55 8.4 0.7 8.95 0.55 9.5 0.05 9.7 Q-0.2 9.7 -0.35 9.5 L-0.55 8.95 -0.35 8.4 0.05 8.2 M-1.95 1.4 L-2.15 2.15 -2.6 2.4 -3.1 2.15 -3.3 1.4 -3.1 0.7 Q-2.9 0.35 -2.6 0.35 -2.35 0.35 -2.15 0.7 L-1.95 1.4 M-3.25 12.25 L-2.9 12.05 -2.5 12.25 Q-2.35 12.45 -2.35 12.7 L-2.5 13.2 -2.55 13.25 -2.9 13.4 -3.25 13.2 -3.45 12.85 -3.45 12.7 -3.35 12.45 -3.25 12.25" fill="#660066" fill-rule="evenodd" stroke="none"/>
      <path d="M4.0 18.65 L4.05 18.65 -3.5 22.55 Q-10.1 20.85 -12.8 14.8 L-11.4 5.15 Q-10.5 10.05 4.0 18.65" fill="#b52020" fill-rule="evenodd" stroke="none"/>
      <path d="M-11.4 5.15 L-6.8 7.5 -6.45 9.65 -6.35 9.85 -6.05 8.1 -3.9 9.9 -3.35 11.6 -2.9 10.85 -2.9 10.8 -1.6 12.05 -1.6 12.25 -1.5 13.4 -1.3 14.25 -0.95 14.35 -0.55 13.0 4.0 18.65 Q-10.5 10.05 -11.4 5.15 M-3.25 12.25 L-3.35 12.45 -3.45 12.7 -3.45 12.85 -3.25 13.2 -2.9 13.4 -2.55 13.25 -2.5 13.2 -2.35 12.7 Q-2.35 12.45 -2.5 12.25 L-2.9 12.05 -3.25 12.25" fill="#fcf9e0" fill-rule="evenodd" stroke="none"/>
      <path d="M-13.1 -19.2 L-13.2 -19.65 -13.5 -20.1 -13.7 -20.0 -13.8 -19.7 -13.95 -19.0 -13.95 -17.95 -13.95 -16.95 -13.8 -16.2 -13.7 -15.85 -13.5 -15.65 -13.2 -15.85 -13.05 -16.65 -13.05 -17.2 -11.8 -16.85 -11.85 -15.45 -12.15 -14.55 Q-12.55 -14.0 -13.5 -14.25 L-14.25 -14.6 -14.85 -15.2 -15.2 -16.35 -15.35 -18.2 -15.2 -20.1 -14.8 -21.2 Q-14.55 -21.6 -14.15 -21.55 L-13.95 -21.65 -13.45 -21.55 -12.6 -21.15 -12.1 -20.5 -11.85 -19.45 -11.8 -18.15 -13.05 -18.5 -13.1 -19.2 M-1.7 -15.9 L-2.05 -15.8 -2.15 -15.2 -2.15 -14.95 -1.15 -14.75 -1.15 -14.95 -1.25 -15.6 Q-1.4 -15.85 -1.7 -15.9 M-9.45 -17.6 L-9.85 -17.45 -9.9 -16.9 -9.9 -16.65 -9.05 -16.45 -9.05 -16.75 -9.15 -17.3 -9.45 -17.6 M-8.65 -18.35 L-8.05 -17.75 -7.65 -16.95 -7.55 -15.75 -7.55 -15.2 -9.9 -15.75 -9.9 -15.1 -9.85 -14.5 -9.45 -14.35 -9.15 -14.4 -9.05 -15.05 -7.6 -14.75 Q-7.6 -13.8 -8.05 -13.45 L-9.45 -13.3 -10.4 -13.65 -11.05 -14.3 -11.35 -15.15 -11.45 -16.4 -11.35 -17.55 -11.0 -18.25 Q-10.8 -18.6 -10.4 -18.6 L-9.45 -18.6 -8.65 -18.35 M-5.5 -17.7 L-5.5 -16.85 -5.45 -16.8 Q-5.35 -17.3 -5.05 -17.45 L-4.35 -17.55 -4.05 -17.5 -4.05 -15.85 -4.3 -15.9 -4.45 -15.95 -5.15 -15.9 Q-5.5 -15.8 -5.45 -15.25 L-5.45 -12.4 -7.15 -12.85 -7.15 -18.0 -5.5 -17.7 M6.75 -17.0 L8.9 -16.6 8.9 -8.75 6.75 -9.35 6.75 -17.0 M3.15 -12.7 Q2.9 -12.65 2.8 -12.45 L2.75 -12.0 2.85 -11.5 3.2 -11.3 3.75 -11.4 3.85 -12.05 3.85 -12.8 3.55 -12.75 3.15 -12.7 M0.45 -15.15 L0.6 -13.85 0.6 -13.3 -2.15 -13.95 -2.15 -13.3 -2.05 -12.6 -1.7 -12.4 -1.25 -12.5 -1.15 -13.2 0.55 -12.8 Q0.5 -11.8 0.0 -11.4 L-1.7 -11.35 -2.7 -11.75 -3.5 -12.4 -3.85 -13.35 -4.0 -14.65 -3.85 -15.9 -3.45 -16.7 -2.7 -17.05 -1.7 -17.05 -0.7 -16.7 0.0 -16.1 0.45 -15.15 M2.6 -16.1 L3.4 -16.0 4.35 -15.75 5.15 -15.25 5.65 -14.6 5.8 -13.65 5.8 -10.85 Q5.75 -10.45 5.85 -10.1 5.8 -9.75 6.0 -9.5 L4.0 -10.0 Q3.9 -10.15 3.95 -10.35 L3.85 -10.7 3.35 -10.25 2.5 -10.25 Q2.05 -10.35 1.75 -10.55 L1.2 -11.05 0.95 -11.6 0.85 -12.25 0.95 -12.95 1.2 -13.35 Q1.35 -13.6 1.75 -13.6 L2.5 -13.7 3.35 -13.7 3.75 -13.8 3.85 -14.2 Q3.85 -14.75 3.4 -14.8 L2.95 -14.8 Q2.8 -14.6 2.8 -14.2 L1.15 -14.55 Q1.1 -15.2 1.3 -15.5 L1.85 -15.95 2.6 -16.1" fill="#a97601" fill-rule="evenodd" stroke="none"/>
      <path d="M1.1 -5.1 Q7.6 -3.5 16.75 -0.15 L15.65 17.7 14.9 25.9 12.35 27.85 8.65 30.85 5.95 29.9 -17.0 19.7 -17.0 -4.9 Q-8.7 -7.6 1.1 -5.1" fill="url(#gradient3)" fill-rule="evenodd" stroke="none"/>
      <path d="M9.6 15.55 L9.55 15.55 9.6 15.4 9.6 15.55 M12.25 -18.6 L11.9 -12.5 9.55 15.55 3.4 15.4 Q-6.9 13.55 -14.2 2.35 L-14.7 1.55 -16.7 0.05 -16.8 -0.05 -15.65 -1.05 -16.95 -4.65 -16.95 -24.95 Q-17.75 -25.7 -18.45 -28.1 -19.15 -30.55 -10.85 -28.8 L10.0 -25.3 Q12.35 -20.45 12.25 -18.6" fill="url(#gradient4)" fill-rule="evenodd" stroke="none"/>
      <path d="M11.7 -20.65 L12.05 -24.0 19.7 -26.05 Q19.5 -24.2 18.7 -21.95 L16.85 -0.6 Q15.15 2.65 10.6 -1.2 6.1 -5.1 2.9 -8.3 -0.35 -11.55 -0.35 -16.05 -0.35 -18.8 0.65 -26.8 L10.5 -25.55 11.7 -20.65" fill="url(#gradient5)" fill-rule="evenodd" stroke="none"/>
      <path d="M15.3 -14.0 L16.35 -15.45 16.55 -15.45 16.6 -14.45 16.4 -13.45 15.15 -12.25 Q14.85 -12.45 14.9 -13.1 14.85 -13.65 15.3 -14.0 M3.25 -8.85 Q3.85 -8.35 3.85 -7.7 L3.75 -6.8 2.1 -7.45 Q1.75 -7.65 1.8 -8.4 1.8 -9.35 2.25 -9.3 2.75 -9.35 3.25 -8.85 M8.6 -8.2 L8.85 -7.2 8.55 -5.5 8.05 -4.0 7.85 -4.9 8.6 -8.2 M1.0 -14.95 Q1.05 -14.05 0.65 -14.05 L-1.35 -14.65 -2.6 -15.3 -2.8 -14.65 Q-3.25 -13.4 -3.65 -12.95 L-3.85 -13.85 -3.45 -15.8 Q-3.0 -17.75 -2.55 -17.7 L-2.5 -17.7 -2.3 -16.75 -2.3 -16.7 Q-1.1 -16.65 -0.15 -16.2 1.0 -15.7 1.0 -14.95 M15.4 -8.4 L15.65 -8.7 15.75 -8.7 15.85 -7.85 15.4 -5.85 15.35 -5.95 15.4 -7.75 15.4 -8.4 M7.5 -1.9 Q7.45 -3.55 7.75 -3.5 L7.9 -3.5 8.05 -2.6 7.65 -0.6 7.5 -0.85 7.5 -1.9 M11.05 10.8 Q10.75 12.4 9.7 14.05 L9.5 13.85 9.5 13.2 Q9.5 12.35 10.0 10.9 L10.85 8.35 11.1 9.85 11.1 9.95 11.05 10.8 M13.2 -9.2 L12.65 -8.6 12.45 -9.55 Q12.45 -10.0 12.9 -10.85 L13.5 -11.65 Q13.85 -12.0 14.25 -11.95 14.55 -12.0 14.55 -11.05 14.55 -10.15 14.2 -9.95 L13.5 -9.45 13.5 -11.65 13.2 -9.2 M3.55 24.35 L4.35 24.15 Q4.55 24.15 4.6 25.05 L4.5 25.95 3.5 26.0 3.4 25.95 2.35 26.2 Q2.1 26.2 2.1 25.3 2.1 24.15 3.4 24.15 L3.55 24.35 M0.85 20.25 L0.95 20.25 1.1 21.15 Q0.45 23.75 -0.3 23.8 -0.6 23.75 -0.4 23.6 L-0.5 22.9 Q0.5 20.25 0.85 20.25 M4.3 17.45 Q4.4 16.9 4.7 16.95 4.9 16.95 4.9 17.9 4.9 18.75 4.45 18.95 4.25 18.5 4.3 18.0 L4.3 17.45 M5.9 16.3 Q5.9 17.35 5.35 18.0 5.05 17.65 5.1 17.1 5.05 16.65 5.65 15.25 L5.9 16.3 M0.25 6.0 L0.2 5.4 Q0.05 3.4 2.15 3.4 2.45 3.4 2.45 4.25 2.5 6.2 0.45 6.2 0.1 6.2 0.25 6.0 M8.35 0.4 L8.6 2.3 8.5 4.2 8.3 4.1 8.2 2.35 Q8.15 1.15 8.35 0.4 M9.1 25.05 L8.95 25.25 8.8 24.25 Q8.8 23.75 8.95 23.3 L9.2 23.95 9.1 25.05 M6.2 27.55 L6.25 25.65 6.25 25.5 Q6.85 25.05 7.15 25.05 7.4 25.05 7.4 25.95 7.75 27.35 6.2 27.55 M12.65 21.25 Q12.9 21.3 12.9 22.2 12.85 24.4 12.45 24.85 L12.25 23.95 12.65 21.25 M-9.35 -15.95 Q-10.1 -16.5 -10.1 -17.35 -10.25 -18.3 -9.55 -18.25 -9.15 -18.3 -9.1 -16.85 -9.15 -16.1 -9.35 -15.95 M-5.65 -17.55 Q-5.4 -17.35 -5.4 -16.6 L-5.6 -15.75 -5.8 -15.95 -5.8 -16.6 -5.65 -17.55 M-6.4 -18.75 Q-7.35 -19.1 -7.55 -19.35 -7.75 -19.55 -7.75 -20.15 -7.8 -21.1 -7.3 -21.1 -6.25 -21.1 -6.25 -19.65 -6.25 -19.0 -6.4 -18.75 M-10.8 -17.0 Q-10.8 -16.3 -11.0 -16.15 L-11.55 -17.75 -11.35 -18.65 Q-10.8 -18.8 -10.8 -17.0 M-13.0 -5.3 Q-13.3 -6.35 -14.75 -8.55 -16.1 -10.45 -16.1 -11.75 L-15.9 -12.65 Q-12.8 -8.8 -12.8 -6.2 L-13.0 -5.3 M-12.2 -5.95 Q-11.5 -5.4 -10.25 -4.8 -9.6 -4.5 -9.55 -3.75 L-9.65 -2.85 -10.5 -2.8 Q-12.4 -2.8 -12.4 -4.75 L-12.2 -5.95 M-9.15 -11.0 Q-8.95 -9.95 -8.3 -9.8 L-8.3 -9.75 -8.4 -8.8 Q-10.2 -9.1 -10.2 -10.05 -10.45 -11.0 -9.15 -11.0 M-4.3 13.35 L-4.4 14.25 Q-5.1 14.35 -5.1 12.65 L-4.95 11.75 Q-4.35 12.1 -4.3 13.35 M-12.05 16.95 Q-12.5 16.95 -12.45 15.65 L-12.25 14.75 Q-11.55 15.05 -11.4 15.2 -11.25 15.35 -11.25 15.95 L-11.3 16.85 -12.05 16.95 M-12.8 12.35 L-12.95 11.45 Q-12.0 5.95 -11.35 5.95 L-11.3 5.95 -11.1 6.85 Q-11.15 7.7 -12.8 12.35 M-6.7 4.0 L-7.0 0.8 -6.85 -0.7 Q-6.5 -0.45 -6.5 2.6 L-6.7 4.0 M-6.95 -0.6 L-7.0 -0.7 Q-7.35 -1.75 -7.35 -3.05 L-7.1 -3.95 -6.75 -2.65 -6.7 -1.55 Q-6.7 -0.95 -6.95 -0.6 M-3.7 20.4 L-3.75 20.3 -3.75 21.75 Q-3.5 24.15 -4.65 24.15 -5.0 24.15 -4.85 24.05 L-4.9 23.25 -4.55 22.75 Q-4.15 22.4 -4.15 21.7 L-4.0 19.75 -3.85 19.95 -3.9 19.55 -3.75 18.75 -3.4 17.55 Q-3.2 17.65 -3.15 18.75 -3.2 19.8 -3.7 20.4 M-8.75 22.4 L-8.8 21.75 -8.6 20.85 Q-8.35 20.9 -8.35 21.75 L-8.55 22.65 -8.75 22.4 M-8.55 18.45 Q-8.65 16.9 -7.85 16.75 L-7.85 15.6 -7.65 13.65 Q-7.35 13.8 -7.35 14.65 L-7.45 15.6 -7.5 17.0 -7.45 17.85 Q-7.45 19.35 -8.35 19.35 -8.55 19.35 -8.55 18.45" fill="#341a09" fill-opacity="0.7921569" fill-rule="evenodd" stroke="none"/>
      <path d="M3.9 -16.4 Q3.1 -17.5 3.1 -18.2 L3.45 -19.35 Q4.45 -19.35 4.45 -17.7 4.45 -16.65 3.9 -16.4 M7.9 -22.85 Q7.9 -23.3 8.25 -24.2 8.95 -24.3 8.95 -22.4 8.95 -21.7 8.4 -21.3 7.9 -22.05 7.9 -22.85 M3.4 -0.35 Q2.15 -0.35 0.9 -1.1 -0.35 -1.85 -0.35 -2.6 -0.4 -3.8 0.4 -3.8 1.75 -3.8 3.05 -2.85 4.15 -2.05 4.15 -1.55 4.4 -0.35 3.4 -0.35 M15.4 -8.4 L15.4 -7.75 15.35 -5.95 14.75 1.2 14.35 10.35 Q13.1 8.15 12.65 5.7 L12.55 5.7 12.5 10.05 Q12.3 12.7 11.3 14.1 10.85 13.85 10.85 12.95 L11.05 10.8 11.1 9.95 Q11.6 4.3 13.2 -9.2 L13.5 -11.65 13.5 -9.45 Q13.5 3.35 13.85 5.9 13.85 -9.3 14.9 -9.3 L14.95 -9.3 Q15.3 -9.15 15.4 -8.4 M5.2 3.45 Q5.65 4.0 5.65 4.75 5.65 6.0 4.75 6.9 4.3 6.4 4.3 5.75 L5.05 3.45 5.2 3.45 M9.2 23.95 L9.45 21.0 9.55 21.0 Q10.15 21.7 10.15 23.6 10.15 25.5 10.6 26.15 10.7 25.8 10.95 25.8 11.35 26.1 11.35 27.35 11.35 28.55 10.95 28.85 L9.7 27.95 9.7 29.0 Q9.7 29.75 9.25 30.05 8.8 29.6 8.8 28.25 L9.1 25.05 9.2 23.95 M6.2 27.55 L5.8 28.8 Q4.95 27.9 5.0 26.1 L5.2 22.95 Q5.2 21.6 5.5 21.6 6.45 21.6 6.25 25.5 L6.25 25.65 6.2 27.55 M-9.8 -26.45 Q-8.75 -26.45 -8.75 -25.1 L-9.3 -23.9 Q-10.55 -23.9 -10.55 -25.25 -10.7 -26.45 -9.8 -26.45 M-11.0 -13.1 L-11.3 -13.25 -11.45 -14.55 -11.15 -15.9 Q-10.55 -15.65 -10.55 -14.45 -10.55 -13.5 -11.0 -13.1 M-13.5 -20.55 Q-12.35 -19.25 -12.35 -18.85 -12.35 -18.35 -12.8 -17.6 -14.4 -18.7 -15.85 -19.4 -16.45 -19.8 -16.45 -20.85 -16.6 -22.05 -16.0 -22.05 -14.9 -22.05 -13.5 -20.55 M-15.65 -0.45 L-15.55 -0.45 Q-15.4 -2.8 -14.95 -3.3 -14.45 -3.15 -14.45 -2.1 L-14.35 1.65 Q-14.4 4.0 -15.25 5.1 L-16.3 2.15 -16.9 -0.75 Q-16.9 -2.15 -16.3 -2.45 -15.85 -1.95 -15.65 -0.45 M-9.15 -11.0 L-9.2 -11.85 Q-9.2 -12.65 -8.65 -13.05 L-8.0 -12.35 Q-8.0 -13.25 -7.6 -13.5 -7.1 -13.25 -7.1 -11.6 L-7.1 -10.65 Q-7.3 -9.75 -8.0 -9.75 L-8.3 -9.8 Q-8.95 -9.95 -9.15 -11.0 M-1.75 -6.45 L-1.6 -6.45 Q-1.25 -6.1 -1.25 -4.4 -1.1 -2.75 -1.85 -2.25 -2.75 -2.9 -2.75 -4.8 -2.65 -6.45 -1.75 -6.45 M-4.7 -9.75 L-4.55 -9.75 Q-4.1 -9.4 -4.1 -7.5 -4.1 -3.6 -5.0 -2.4 -5.45 -2.8 -5.45 -3.6 L-4.7 -9.75 M-5.75 -10.7 Q-5.75 -9.15 -6.35 -8.75 -6.8 -9.35 -6.8 -10.1 L-6.35 -12.75 Q-5.75 -12.6 -5.75 -10.7 M-1.7 12.45 Q-1.7 15.0 -2.2 15.3 -2.75 15.05 -2.75 14.1 -2.75 11.0 -2.2 9.95 -1.7 9.95 -1.7 12.45" fill="#341a09" fill-opacity="0.54901963" fill-rule="evenodd" stroke="none"/>
      <path d="M10.85 -2.0 L9.3 14.95 -0.45 13.85 Q-11.0 11.35 -14.9 6.05 -18.8 0.7 -13.75 -4.4 -8.75 -9.6 2.2 -11.45 L11.8 -12.25 10.85 -2.0" fill="url(#gradient6)" fill-rule="evenodd" stroke="none"/>
      <path d="M10.85 -2.0 Q13.75 2.75 16.15 7.6 L14.8 25.65 12.35 27.6 9.3 21.95 10.85 -2.0" fill="url(#gradient7)" fill-rule="evenodd" stroke="none"/>
    </g>
    <linearGradient gradientTransform="matrix(0.0, 0.0, 0.0, 0.0, 0.0, 0.0)" gradientUnits="userSpaceOnUse" id="gradient0" spreadMethod="pad" x1="-819.2" x2="819.2">
      <stop offset="0.0" stop-color="#4d372b"/>
      <stop offset="1.0" stop-color="#9d6a4b"/>
    </linearGradient>
    <linearGradient gradientTransform="matrix(0.0, 8.0E-4, -0.0042, 0.0, -13.5, -29.15)" gradientUnits="userSpaceOnUse" id="gradient1" spreadMethod="pad" x1="-819.2" x2="819.2">
      <stop offset="0.0" stop-color="#a37858"/>
      <stop offset="1.0" stop-color="#9d6a4b"/>
    </linearGradient>
    <linearGradient gradientTransform="matrix(0.0, 0.0204, -0.0173, 0.0, -3.05, -7.75)" gradientUnits="userSpaceOnUse" id="gradient2" spreadMethod="pad" x1="-819.2" x2="819.2">
      <stop offset="0.0" stop-color="#660066"/>
      <stop offset="1.0" stop-color="#d9a6cf"/>
    </linearGradient>
    <radialGradient cx="0" cy="0" gradientTransform="matrix(-0.0054, 0.0214, 0.0314, 0.0079, -3.45, 11.45)" gradientUnits="userSpaceOnUse" id="gradient3" r="819.2" spreadMethod="pad">
      <stop offset="0.5176470588235295" stop-color="#432101" stop-opacity="0.7921569"/>
      <stop offset="0.9372549019607843" stop-color="#5c2e01" stop-opacity="0.0"/>
    </radialGradient>
    <radialGradient cx="0" cy="0" gradientTransform="matrix(-0.0328, 0.0, 0.0, 0.0316, 5.55, -12.55)" gradientUnits="userSpaceOnUse" id="gradient4" r="819.2" spreadMethod="pad">
      <stop offset="0.5176470588235295" stop-color="#291101" stop-opacity="0.7921569"/>
      <stop offset="0.9372549019607843" stop-color="#5c2e01" stop-opacity="0.0"/>
    </radialGradient>
    <radialGradient cx="0" cy="0" gradientTransform="matrix(-0.0188, 0.0, 0.0, 0.0188, 13.5, -19.75)" gradientUnits="userSpaceOnUse" id="gradient5" r="819.2" spreadMethod="pad">
      <stop offset="0.5176470588235295" stop-color="#1e261e" stop-opacity="0.7921569"/>
      <stop offset="0.9372549019607843" stop-color="#5c2e01" stop-opacity="0.0"/>
    </radialGradient>
    <radialGradient cx="0" cy="0" gradientTransform="matrix(-0.0116, -0.0159, 0.0326, -0.0056, 11.7, 1.45)" gradientUnits="userSpaceOnUse" id="gradient6" r="819.2" spreadMethod="pad">
      <stop offset="0.5176470588235295" stop-color="#1e261e" stop-opacity="0.7921569"/>
      <stop offset="0.9372549019607843" stop-color="#5c2e01" stop-opacity="0.0"/>
    </radialGradient>
    <radialGradient cx="0" cy="0" gradientTransform="matrix(-0.0056, -0.026, 0.0159, 0.0228, 11.75, 12.85)" gradientUnits="userSpaceOnUse" id="gradient7" r="819.2" spreadMethod="pad">
      <stop offset="0.5176470588235295" stop-color="#1e261e" stop-opacity="0.7921569"/>
      <stop offset="0.9372549019607843" stop-color="#5c2e01" stop-opacity="0.0"/>
    </radialGradient>
  </defs>
</svg>
