<?xml version="1.0" encoding="UTF-8" standalone="no"?>
<svg xmlns:xlink="http://www.w3.org/1999/xlink" height="58.05px" width="40.15px" xmlns="http://www.w3.org/2000/svg">
  <g transform="matrix(1.0, 0.0, 0.0, 1.0, 20.05, 29.0)">
    <use height="58.05" transform="matrix(1.0, 0.0, 0.0, 1.0, -20.05, -29.0)" width="40.15" xlink:href="#shape0"/>
  </g>
  <defs>
    <g id="shape0" transform="matrix(1.0, 0.0, 0.0, 1.0, 20.05, 29.0)">
      <path d="M20.1 -22.3 L14.8 -22.3 14.8 -26.75 -0.75 -26.8 Q-4.55 -26.85 -5.55 -24.2 L-8.0 -17.8 1.35 -17.8 -1.0 -14.55 -9.3 -14.55 -9.3 -14.5 -12.75 -5.7 -12.8 -5.5 Q-13.3 -4.3 -13.2 -3.35 -12.95 -1.1 -9.3 -1.05 L-9.2 -1.05 -1.0 -1.05 2.5 -1.05 5.05 -1.05 14.8 -1.05 14.8 -2.4 20.1 -2.4 20.1 4.35 -15.25 4.35 Q-19.9 4.35 -20.05 1.25 -20.1 -0.05 -19.4 -1.85 L-10.05 -25.8 Q-8.8 -29.05 -4.3 -29.0 L20.1 -28.95 20.1 -22.3" fill="url(#gradient0)" fill-rule="evenodd" stroke="none"/>
      <path d="M14.8 -22.3 L20.1 -22.3 20.1 -8.9 14.8 -9.1 14.8 -11.55 14.8 -22.3" fill="url(#gradient1)" fill-rule="evenodd" stroke="none"/>
      <path d="M1.35 -17.8 L-8.0 -17.8 -5.55 -24.2 Q-4.55 -26.85 -0.75 -26.8 L14.8 -26.75 14.8 -22.3 14.8 -11.55 1.35 -11.55 1.35 -17.8 M6.55 -16.35 Q6.65 -16.2 6.9 -16.2 7.1 -16.2 7.2 -16.35 L7.35 -16.75 7.2 -17.1 6.9 -17.25 6.55 -17.1 6.45 -16.75 6.55 -16.35 M3.95 -16.55 L3.8 -16.9 3.5 -17.05 Q3.25 -17.05 3.15 -16.9 L3.05 -16.55 3.15 -16.15 Q3.25 -16.05 3.5 -16.0 L3.8 -16.15 3.95 -16.55 M2.9 -21.9 L3.2 -21.75 3.55 -21.9 3.65 -22.3 3.55 -22.65 3.2 -22.8 2.9 -22.65 2.75 -22.3 Q2.75 -22.05 2.9 -21.9 M-1.3 -20.8 L-1.0 -20.65 -0.65 -20.8 -0.55 -21.2 -0.65 -21.6 -1.0 -21.7 -1.3 -21.6 -1.45 -21.2 -1.3 -20.8" fill="url(#gradient2)" fill-rule="evenodd" stroke="none"/>
      <path d="M2.9 -21.9 Q2.75 -22.05 2.75 -22.3 L2.9 -22.65 3.2 -22.8 3.55 -22.65 3.65 -22.3 3.55 -21.9 3.2 -21.75 2.9 -21.9 M3.95 -16.55 L3.8 -16.15 3.5 -16.0 Q3.25 -16.05 3.15 -16.15 L3.05 -16.55 3.15 -16.9 Q3.25 -17.05 3.5 -17.05 L3.8 -16.9 3.95 -16.55 M6.55 -16.35 L6.45 -16.75 6.55 -17.1 6.9 -17.25 7.2 -17.1 7.35 -16.75 7.2 -16.35 Q7.1 -16.2 6.9 -16.2 6.65 -16.2 6.55 -16.35 M14.95 8.8 L15.1 8.4 Q15.2 8.25 15.45 8.25 L15.75 8.4 15.9 8.8 15.75 9.15 15.45 9.3 15.1 9.15 14.95 8.8 M10.2 8.6 L9.85 8.45 9.75 8.1 9.85 7.7 Q9.95 7.55 10.2 7.55 10.4 7.55 10.5 7.7 L10.65 8.1 10.5 8.45 10.2 8.6 M17.1 10.15 Q17.2 10.0 17.45 10.0 L17.75 10.15 17.9 10.55 17.75 10.95 17.45 11.05 17.1 10.95 17.0 10.55 17.1 10.15 M8.0 13.65 L7.9 14.0 7.55 14.15 7.2 14.0 7.1 13.65 7.2 13.25 Q7.35 13.1 7.55 13.1 L7.9 13.25 8.0 13.65 M9.35 20.6 L9.25 20.25 9.35 19.85 Q9.45 19.7 9.7 19.7 9.9 19.7 10.0 19.85 L10.15 20.25 10.0 20.6 9.7 20.75 9.35 20.6 M20.1 14.15 L20.1 15.2 19.75 15.05 19.65 14.7 19.75 14.3 Q19.9 14.15 20.1 14.15 M15.45 14.9 L15.15 15.05 14.8 14.9 14.7 14.55 14.8 14.15 Q14.9 14.0 15.15 14.0 L15.45 14.15 15.6 14.55 15.45 14.9 M18.85 17.55 Q18.95 17.4 19.15 17.4 L19.5 17.55 19.6 17.9 19.5 18.3 19.15 18.45 18.85 18.3 18.7 17.9 Q18.7 17.65 18.85 17.55 M17.0 22.25 L16.85 22.6 16.55 22.75 Q16.3 22.75 16.2 22.6 L16.1 22.25 16.2 21.85 Q16.3 21.7 16.55 21.7 L16.85 21.85 17.0 22.25 M13.75 27.25 L13.4 27.1 13.3 26.7 13.4 26.3 13.75 26.2 14.05 26.3 14.2 26.7 14.05 27.1 13.75 27.25 M-1.3 -20.8 L-1.45 -21.2 -1.3 -21.6 -1.0 -21.7 -0.65 -21.6 -0.55 -21.2 -0.65 -20.8 -1.0 -20.65 -1.3 -20.8 M-3.75 -9.7 Q-3.9 -9.55 -4.1 -9.55 -4.3 -9.55 -4.4 -9.7 L-4.55 -10.1 -4.4 -10.45 -4.1 -10.6 -3.75 -10.45 -3.65 -10.1 -3.75 -9.7 M-4.05 -6.55 L-3.95 -6.2 -4.05 -5.8 Q-4.2 -5.65 -4.4 -5.65 -4.6 -5.65 -4.7 -5.8 L-4.85 -6.2 -4.7 -6.55 -4.4 -6.7 -4.05 -6.55 M-8.0 -11.5 L-8.1 -11.9 -8.0 -12.25 -7.65 -12.4 -7.35 -12.25 -7.2 -11.9 -7.35 -11.5 Q-7.45 -11.4 -7.65 -11.35 L-8.0 -11.5 M-7.35 -4.35 Q-7.45 -4.2 -7.65 -4.2 -7.9 -4.2 -8.0 -4.35 L-8.1 -4.7 -8.0 -5.1 -7.65 -5.25 -7.35 -5.1 -7.2 -4.7 -7.35 -4.35 M-2.35 8.95 L-2.25 9.3 -2.35 9.7 -2.7 9.85 -3.05 9.7 -3.15 9.3 -3.05 8.95 Q-2.95 8.8 -2.7 8.8 -2.5 8.8 -2.35 8.95 M-13.55 8.95 L-13.4 8.55 Q-13.3 8.4 -13.1 8.4 -12.9 8.4 -12.75 8.55 L-12.65 8.95 -12.75 9.3 -13.1 9.45 -13.4 9.3 -13.55 8.95 M-10.45 22.6 Q-10.25 22.6 -10.15 22.75 L-10.0 23.15 -10.15 23.5 Q-10.25 23.65 -10.45 23.65 L-10.8 23.5 -10.9 23.15 -10.8 22.75 -10.45 22.6" fill="#ebf0fa" fill-rule="evenodd" stroke="none"/>
      <path d="M-9.3 -1.05 Q-12.95 -1.1 -13.2 -3.35 -13.3 -4.3 -12.8 -5.5 L-12.75 -5.7 -9.3 -14.5 -9.3 -1.05 M-1.0 -14.55 L1.35 -17.8 1.35 -11.55 1.35 -6.5 -1.0 -1.05 -1.0 -14.55" fill="#baccf1" fill-rule="evenodd" stroke="none"/>
      <path d="M2.5 -1.05 L-1.0 -1.05 1.35 -6.5 1.35 -11.55 14.8 -11.55 14.8 -9.1 20.1 -8.9 20.1 -6.3 8.75 -6.3 Q6.0 -6.3 4.1 -4.05 2.95 -2.7 2.5 -1.05" fill="url(#gradient3)" fill-rule="evenodd" stroke="none"/>
      <path d="M20.1 -2.4 L14.8 -2.4 8.75 -2.4 Q6.65 -2.4 5.05 -1.05 L2.5 -1.05 Q2.95 -2.7 4.1 -4.05 6.0 -6.3 8.75 -6.3 L20.1 -6.3 20.1 -2.4" fill="url(#gradient4)" fill-rule="evenodd" stroke="none"/>
      <path d="M-1.0 -1.05 L-9.2 -1.05 -9.3 -1.05 -9.3 -14.5 -9.3 -14.55 -1.0 -14.55 -1.0 -1.05 M-7.35 -4.35 L-7.2 -4.7 -7.35 -5.1 -7.65 -5.25 -8.0 -5.1 -8.1 -4.7 -8.0 -4.35 Q-7.9 -4.2 -7.65 -4.2 -7.45 -4.2 -7.35 -4.35 M-8.0 -11.5 L-7.65 -11.35 Q-7.45 -11.4 -7.35 -11.5 L-7.2 -11.9 -7.35 -12.25 -7.65 -12.4 -8.0 -12.25 -8.1 -11.9 -8.0 -11.5 M-4.05 -6.55 L-4.4 -6.7 -4.7 -6.55 -4.85 -6.2 -4.7 -5.8 Q-4.6 -5.65 -4.4 -5.65 -4.2 -5.65 -4.05 -5.8 L-3.95 -6.2 -4.05 -6.55 M-3.75 -9.7 L-3.65 -10.1 -3.75 -10.45 -4.1 -10.6 -4.4 -10.45 -4.55 -10.1 -4.4 -9.7 Q-4.3 -9.55 -4.1 -9.55 -3.9 -9.55 -3.75 -9.7" fill="url(#gradient5)" fill-rule="evenodd" stroke="none"/>
      <path d="M-20.05 1.25 Q-19.9 4.35 -15.25 4.35 L20.1 4.35 20.1 14.15 Q19.9 14.15 19.75 14.3 L19.65 14.7 19.75 15.05 20.1 15.2 20.1 29.05 -15.25 29.05 Q-20.0 29.05 -20.05 25.8 L-20.0 25.1 -20.05 1.25 M9.35 20.6 L9.7 20.75 10.0 20.6 10.15 20.25 10.0 19.85 Q9.9 19.7 9.7 19.7 9.45 19.7 9.35 19.85 L9.25 20.25 9.35 20.6 M8.0 13.65 L7.9 13.25 7.55 13.1 Q7.35 13.1 7.2 13.25 L7.1 13.65 7.2 14.0 7.55 14.15 7.9 14.0 8.0 13.65 M17.1 10.15 L17.0 10.55 17.1 10.95 17.45 11.05 17.75 10.95 17.9 10.55 17.75 10.15 17.45 10.0 Q17.2 10.0 17.1 10.15 M10.2 8.6 L10.5 8.45 10.65 8.1 10.5 7.7 Q10.4 7.55 10.2 7.55 9.95 7.55 9.85 7.7 L9.75 8.1 9.85 8.45 10.2 8.6 M14.95 8.8 L15.1 9.15 15.45 9.3 15.75 9.15 15.9 8.8 15.75 8.4 15.45 8.25 Q15.2 8.25 15.1 8.4 L14.95 8.8 M13.75 27.25 L14.05 27.1 14.2 26.7 14.05 26.3 13.75 26.2 13.4 26.3 13.3 26.7 13.4 27.1 13.75 27.25 M17.0 22.25 L16.85 21.85 16.55 21.7 Q16.3 21.7 16.2 21.85 L16.1 22.25 16.2 22.6 Q16.3 22.75 16.55 22.75 L16.85 22.6 17.0 22.25 M18.85 17.55 Q18.7 17.65 18.7 17.9 L18.85 18.3 19.15 18.45 19.5 18.3 19.6 17.9 19.5 17.55 19.15 17.4 Q18.95 17.4 18.85 17.55 M15.45 14.9 L15.6 14.55 15.45 14.15 15.15 14.0 Q14.9 14.0 14.8 14.15 L14.7 14.55 14.8 14.9 15.15 15.05 15.45 14.9 M-2.35 8.95 Q-2.5 8.8 -2.7 8.8 -2.95 8.8 -3.05 8.95 L-3.15 9.3 -3.05 9.7 -2.7 9.85 -2.35 9.7 -2.25 9.3 -2.35 8.95 M-15.55 8.75 L-15.4 8.35 -15.55 8.0 Q-15.65 7.85 -15.85 7.85 -16.1 7.85 -16.2 8.0 L-16.3 8.35 -16.2 8.75 -15.85 8.9 -15.55 8.75 M-13.55 8.95 L-13.4 9.3 -13.1 9.45 -12.75 9.3 -12.65 8.95 -12.75 8.55 Q-12.9 8.4 -13.1 8.4 -13.3 8.4 -13.4 8.55 L-13.55 8.95 M-17.9 20.6 L-18.05 21.0 -17.9 21.4 -17.6 21.5 -17.25 21.4 -17.15 21.0 -17.25 20.6 -17.6 20.5 -17.9 20.6 M-16.0 15.95 Q-16.0 15.65 -16.15 15.5 L-16.55 15.3 -16.95 15.5 -17.15 15.95 -16.95 16.45 -16.55 16.65 -16.15 16.45 -16.0 15.95 M-12.2 12.55 L-12.3 12.9 -12.2 13.3 -11.85 13.45 Q-11.65 13.45 -11.5 13.3 L-11.4 12.9 -11.5 12.55 Q-11.65 12.4 -11.85 12.4 L-12.2 12.55 M-10.45 22.6 L-10.8 22.75 -10.9 23.15 -10.8 23.5 -10.45 23.65 Q-10.25 23.65 -10.15 23.5 L-10.0 23.15 -10.15 22.75 Q-10.25 22.6 -10.45 22.6 M-12.95 25.65 L-13.1 25.3 Q-13.2 25.15 -13.4 25.15 L-13.75 25.3 -13.85 25.65 -13.75 26.05 -13.4 26.2 -13.1 26.05 -12.95 25.65 M-2.35 25.65 L-2.3 25.5 -2.25 25.3 -2.35 24.9 Q-2.5 24.75 -2.7 24.75 -2.95 24.75 -3.05 24.9 L-3.15 25.3 -3.15 25.5 -3.05 25.65 -2.7 25.8 -2.35 25.65 M-9.5 24.05 Q-9.75 24.05 -9.85 24.2 L-9.95 24.55 -9.85 24.95 -9.5 25.1 -9.2 24.95 -9.05 24.55 -9.2 24.2 Q-9.3 24.05 -9.5 24.05 M-5.5 21.15 L-5.35 21.5 -5.05 21.65 -4.7 21.5 -4.6 21.15 -4.7 20.75 -5.05 20.6 -5.35 20.75 -5.5 21.15 M-7.85 15.75 L-8.15 15.9 -8.3 16.3 -8.15 16.7 -7.85 16.8 -7.5 16.7 -7.4 16.3 -7.5 15.9 Q-7.65 15.75 -7.85 15.75" fill="url(#gradient6)" fill-rule="evenodd" stroke="none"/>
      <path d="M-15.55 8.75 L-15.85 8.9 -16.2 8.75 -16.3 8.35 -16.2 8.0 Q-16.1 7.85 -15.85 7.85 -15.65 7.85 -15.55 8.0 L-15.4 8.35 -15.55 8.75 M-12.2 12.55 L-11.85 12.4 Q-11.65 12.4 -11.5 12.55 L-11.4 12.9 -11.5 13.3 Q-11.65 13.45 -11.85 13.45 L-12.2 13.3 -12.3 12.9 -12.2 12.55 M-16.0 15.95 L-16.15 16.45 -16.55 16.65 -16.95 16.45 -17.15 15.95 -16.95 15.5 -16.55 15.3 -16.15 15.5 Q-16.0 15.65 -16.0 15.95 M-17.9 20.6 L-17.6 20.5 -17.25 20.6 -17.15 21.0 -17.25 21.4 -17.6 21.5 -17.9 21.4 -18.05 21.0 -17.9 20.6 M-7.85 15.75 Q-7.65 15.75 -7.5 15.9 L-7.4 16.3 -7.5 16.7 -7.85 16.8 -8.15 16.7 -8.3 16.3 -8.15 15.9 -7.85 15.75 M-5.5 21.15 L-5.35 20.75 -5.05 20.6 -4.7 20.75 -4.6 21.15 -4.7 21.5 -5.05 21.65 -5.35 21.5 -5.5 21.15 M-9.5 24.05 Q-9.3 24.05 -9.2 24.2 L-9.05 24.55 -9.2 24.95 -9.5 25.1 -9.85 24.95 -9.95 24.55 -9.85 24.2 Q-9.75 24.05 -9.5 24.05 M-2.35 25.65 L-2.7 25.8 -3.05 25.65 -3.15 25.5 -3.15 25.3 -3.05 24.9 Q-2.95 24.75 -2.7 24.75 -2.5 24.75 -2.35 24.9 L-2.25 25.3 -2.3 25.5 -2.35 25.65 M-12.95 25.65 L-13.1 26.05 -13.4 26.2 -13.75 26.05 -13.85 25.65 -13.75 25.3 -13.4 25.15 Q-13.2 25.15 -13.1 25.3 L-12.95 25.65" fill="#d3def5" fill-rule="evenodd" stroke="none"/>
    </g>
    <linearGradient gradientTransform="matrix(-0.0459, 0.0, 0.0, 0.0204, 17.6, -12.3)" gradientUnits="userSpaceOnUse" id="gradient0" spreadMethod="pad" x1="-819.2" x2="819.2">
      <stop offset="0.0" stop-color="#ecf0f9"/>
      <stop offset="0.4980392156862745" stop-color="#ffffff"/>
      <stop offset="1.0" stop-color="#ebf0fa"/>
    </linearGradient>
    <linearGradient gradientTransform="matrix(-0.0033, 0.0, 0.0, 0.0082, 17.5, -15.6)" gradientUnits="userSpaceOnUse" id="gradient1" spreadMethod="pad" x1="-819.2" x2="819.2">
      <stop offset="0.0" stop-color="#ecf0f9"/>
      <stop offset="0.4980392156862745" stop-color="#cddef5"/>
      <stop offset="1.0" stop-color="#ebf0fa"/>
    </linearGradient>
    <linearGradient gradientTransform="matrix(-0.0161, 0.0186, 0.0105, 0.0121, 20.0, 15.05)" gradientUnits="userSpaceOnUse" id="gradient2" spreadMethod="pad" x1="-819.2" x2="819.2">
      <stop offset="0.0" stop-color="#ecf0f9"/>
      <stop offset="0.4980392156862745" stop-color="#b8caf1"/>
      <stop offset="1.0" stop-color="#ebf0fa"/>
    </linearGradient>
    <linearGradient gradientTransform="matrix(-0.021, -0.0065, -0.0028, 0.0121, 18.45, -5.6)" gradientUnits="userSpaceOnUse" id="gradient3" spreadMethod="pad" x1="-819.2" x2="819.2">
      <stop offset="0.0" stop-color="#ecf0f9"/>
      <stop offset="0.4980392156862745" stop-color="#ffffff"/>
      <stop offset="1.0" stop-color="#ebf0fa"/>
    </linearGradient>
    <linearGradient gradientTransform="matrix(-0.015, 0.0, 0.0, 0.0082, 17.5, -15.6)" gradientUnits="userSpaceOnUse" id="gradient4" spreadMethod="pad" x1="-819.2" x2="819.2">
      <stop offset="0.0" stop-color="#acc2e3"/>
      <stop offset="0.21176470588235294" stop-color="#cddef5"/>
      <stop offset="0.7568627450980392" stop-color="#cbdcf4"/>
      <stop offset="1.0" stop-color="#a8c2e8"/>
    </linearGradient>
    <linearGradient gradientTransform="matrix(-0.0044, 0.0029, 0.0036, 0.0071, -5.2, -7.8)" gradientUnits="userSpaceOnUse" id="gradient5" spreadMethod="pad" x1="-819.2" x2="819.2">
      <stop offset="0.0" stop-color="#ecf0f9"/>
      <stop offset="0.4980392156862745" stop-color="#cddef5"/>
      <stop offset="1.0" stop-color="#ebf0fa"/>
    </linearGradient>
    <linearGradient gradientTransform="matrix(-0.0161, 0.0186, 0.0105, 0.0121, 20.0, 15.05)" gradientUnits="userSpaceOnUse" id="gradient6" spreadMethod="pad" x1="-819.2" x2="819.2">
      <stop offset="0.0" stop-color="#ecf0f9"/>
      <stop offset="0.4980392156862745" stop-color="#c7d9f3"/>
      <stop offset="1.0" stop-color="#ebf0fa"/>
    </linearGradient>
  </defs>
</svg>
