<?xml version="1.0" encoding="UTF-8" standalone="no"?>
<svg xmlns:xlink="http://www.w3.org/1999/xlink" height="35.7px" width="34.2px" xmlns="http://www.w3.org/2000/svg">
  <g transform="matrix(1.0, 0.0, 0.0, 1.0, 17.1, 17.85)">
    <use height="35.7" transform="matrix(1.0, 0.0, 0.0, 1.0, -17.1, -17.85)" width="34.2" xlink:href="#shape0"/>
  </g>
  <defs>
    <g id="shape0" transform="matrix(1.0, 0.0, 0.0, 1.0, 17.1, 17.85)">
      <path d="M14.5 -15.1 Q16.3 -14.05 16.3 -12.75 16.3 -10.7 11.6 -9.35 6.85 -7.9 0.25 -7.8 -6.45 -7.9 -11.1 -9.35 -15.85 -10.7 -15.85 -12.75 -15.85 -14.85 -11.1 -16.3 -6.45 -17.65 0.25 -17.65 L1.4 -17.65 2.6 -17.65 8.5 -17.0 12.0 -16.1 14.5 -15.1" fill="url(#gradient0)" fill-rule="evenodd" stroke="none"/>
      <path d="M1.4 -17.65 L0.25 -17.65 Q-6.45 -17.65 -11.1 -16.3 -15.85 -14.85 -15.85 -12.75 -15.85 -10.7 -11.1 -9.35 -6.45 -7.9 0.25 -7.8 6.85 -7.9 11.6 -9.35 16.3 -10.7 16.3 -12.75 16.3 -14.05 14.5 -15.1 17.0 -13.8 17.0 -12.1 L17.0 -11.75 16.8 -11.15 15.55 -9.8 Q14.3 -8.95 12.0 -8.15 L7.65 -7.1 2.6 -6.55 0.0 -6.5 -0.15 -6.5 -6.65 -6.9 Q-9.6 -7.35 -12.05 -8.15 -14.4 -8.95 -15.65 -9.8 -16.65 -10.5 -16.9 -11.35 L-16.9 -11.4 -16.95 -11.7 -17.0 -11.8 -17.0 -11.95 -17.0 -12.1 Q-17.0 -14.45 -12.05 -16.1 -7.1 -17.75 0.0 -17.75 L1.4 -17.65" fill="url(#gradient1)" fill-rule="evenodd" stroke="none"/>
      <path d="M-16.9 -11.4 L-16.9 -11.35 Q-16.65 -10.5 -15.65 -9.8 -14.4 -8.95 -12.05 -8.15 -9.6 -7.35 -6.65 -6.9 L-0.15 -6.5 0.0 -6.5 2.6 -6.55 7.65 -7.1 12.0 -8.15 Q14.3 -8.95 15.55 -9.8 L16.8 -11.15 17.0 -11.75 16.25 -4.65 15.65 -4.3 Q14.4 -3.6 12.5 -3.05 7.25 -1.4 -0.15 -1.4 -7.65 -1.4 -12.9 -3.05 -14.6 -3.55 -15.7 -4.15 L-16.1 -4.35 -16.9 -11.4" fill="url(#gradient2)" fill-rule="evenodd" stroke="none"/>
      <path d="M15.65 -4.3 L13.65 14.05 Q13.45 15.55 9.75 16.65 5.9 17.75 0.35 17.75 -5.1 17.75 -8.95 16.65 -12.45 15.6 -12.8 14.15 L-15.7 -4.15 Q-14.6 -3.55 -12.9 -3.05 -7.65 -1.4 -0.15 -1.4 7.25 -1.4 12.5 -3.05 14.4 -3.6 15.65 -4.3" fill="url(#gradient3)" fill-rule="evenodd" stroke="none"/>
      <path d="M1.4 -17.65 L0.0 -17.75 Q-7.1 -17.75 -12.05 -16.1 -17.0 -14.45 -17.0 -12.1 L-17.0 -11.95 -17.0 -11.8 -16.95 -11.7 -16.9 -11.4 M17.0 -11.75 L17.0 -12.1 Q17.0 -13.8 14.5 -15.1 L12.0 -16.1 8.5 -17.0 2.6 -17.65 1.4 -17.65 M17.0 -11.75 L16.25 -4.65 15.65 -4.3 13.65 14.05 Q13.45 15.55 9.75 16.65 5.9 17.75 0.35 17.75 -5.1 17.75 -8.95 16.65 -12.45 15.6 -12.8 14.15 L-15.7 -4.15 -16.1 -4.35 -16.9 -11.4" fill="none" stroke="#ebeff8" stroke-linecap="round" stroke-linejoin="round" stroke-width="0.25"/>
      <path d="M-15.7 -4.15 Q-14.6 -3.55 -12.9 -3.05 -7.65 -1.4 -0.15 -1.4 7.25 -1.4 12.5 -3.05 14.4 -3.6 15.65 -4.3" fill="none" stroke="#9fb3df" stroke-linecap="round" stroke-linejoin="round" stroke-opacity="0.6627451" stroke-width="0.5"/>
    </g>
    <linearGradient gradientTransform="matrix(0.0, -0.006, 0.0197, 0.0, 0.25, -12.75)" gradientUnits="userSpaceOnUse" id="gradient0" spreadMethod="pad" x1="-819.2" x2="819.2">
      <stop offset="0.39215686274509803" stop-color="#8e95ac"/>
      <stop offset="1.0" stop-color="#ecf0f9"/>
    </linearGradient>
    <linearGradient gradientTransform="matrix(0.0, 0.0069, -0.0208, 0.0, 0.0, -12.15)" gradientUnits="userSpaceOnUse" id="gradient1" spreadMethod="pad" x1="-819.2" x2="819.2">
      <stop offset="0.16862745098039217" stop-color="#d2cfd1"/>
      <stop offset="1.0" stop-color="#ffffff"/>
    </linearGradient>
    <linearGradient gradientTransform="matrix(0.0201, 0.0, 0.0, 0.024, -0.2, 9.9)" gradientUnits="userSpaceOnUse" id="gradient2" spreadMethod="pad" x1="-819.2" x2="819.2">
      <stop offset="0.0" stop-color="#c7d9f3"/>
      <stop offset="0.2901960784313726" stop-color="#ecf0f9"/>
      <stop offset="0.6039215686274509" stop-color="#ebf0fa"/>
      <stop offset="1.0" stop-color="#d5e1f5"/>
    </linearGradient>
    <linearGradient gradientTransform="matrix(0.0191, 0.0, 0.0, 0.0207, 0.0, 12.65)" gradientUnits="userSpaceOnUse" id="gradient3" spreadMethod="pad" x1="-819.2" x2="819.2">
      <stop offset="0.0" stop-color="#c7d9f3"/>
      <stop offset="0.2901960784313726" stop-color="#ecf0f9"/>
      <stop offset="0.6039215686274509" stop-color="#ebf0fa"/>
      <stop offset="1.0" stop-color="#d5e1f5"/>
    </linearGradient>
  </defs>
</svg>
