<?xml version="1.0" encoding="UTF-8" standalone="no"?>
<svg xmlns:xlink="http://www.w3.org/1999/xlink" height="43.55px" width="57.7px" xmlns="http://www.w3.org/2000/svg">
  <g transform="matrix(1.0, 0.0, 0.0, 1.0, 28.85, 21.75)">
    <use height="43.55" transform="matrix(1.0, 0.0, 0.0, 1.0, -28.85, -21.75)" width="57.7" xlink:href="#shape0"/>
  </g>
  <defs>
    <g id="shape0" transform="matrix(1.0, 0.0, 0.0, 1.0, 28.85, 21.75)">
      <path d="M12.95 -21.75 L16.55 -21.75 Q19.1 -21.65 20.4 -20.0 L18.1 -20.0 16.2 -18.7 14.6 -18.7 12.95 -21.75" fill="url(#gradient0)" fill-rule="evenodd" stroke="none"/>
      <path d="M0.25 -21.75 L12.95 -21.75 14.6 -18.7 9.1 -18.5 9.4 -20.0 6.05 -20.0 4.95 -19.15 0.25 -21.75" fill="url(#gradient1)" fill-rule="evenodd" stroke="none"/>
      <path d="M21.45 -18.9 L23.1 -18.95 Q26.05 -18.9 23.1 -16.45 L6.95 -5.85 Q4.65 -4.0 2.05 -3.45 L1.8 -3.35 Q3.75 -4.0 5.6 -5.5 L21.35 -15.7 Q24.25 -18.05 21.55 -18.15 L15.05 -17.9 -2.15 -17.25 Q-9.6 -16.7 -15.8 -11.3 L-22.7 -4.0 -26.45 -0.05 Q-29.25 2.85 -25.8 3.05 -30.3 3.05 -27.35 -0.2 L-23.85 -4.15 -19.6 -8.8 -16.85 -11.85 Q-10.65 -17.5 -2.6 -18.1 L3.85 -18.3 9.1 -18.5 14.6 -18.7 16.2 -18.7 19.7 -18.9 21.45 -18.9" fill="url(#gradient2)" fill-rule="evenodd" stroke="none"/>
      <path d="M16.2 -18.7 L18.1 -20.0 20.4 -20.0 19.7 -18.9 16.2 -18.7 M4.95 -19.15 L6.05 -20.0 9.4 -20.0 9.1 -18.5 3.85 -18.3 4.95 -19.15 M23.6 2.9 L19.8 4.65 19.85 4.2 23.65 2.45 23.6 2.9 M13.85 6.9 L13.85 7.35 8.5 9.8 8.6 9.3 13.85 6.9" fill="#a5c5e2" fill-rule="evenodd" stroke="none"/>
      <path d="M15.05 -17.9 L15.1 -17.75 7.35 -12.75 Q2.05 -9.45 -3.4 -8.25 L-22.7 -4.0 -15.8 -11.3 Q-9.6 -16.7 -2.15 -17.25 L15.05 -17.9" fill="url(#gradient3)" fill-rule="evenodd" stroke="none"/>
      <path d="M-25.45 3.05 L-25.8 3.05 Q-29.25 2.85 -26.45 -0.05 L-22.7 -4.0 -3.4 -8.25 Q2.05 -9.45 7.35 -12.75 L15.1 -17.75 15.05 -17.9 21.55 -18.15 Q24.25 -18.05 21.35 -15.7 L5.6 -5.5 Q3.75 -4.0 1.8 -3.35 L1.55 -3.3 1.35 -3.25 -25.0 2.95 -25.4 3.05 -25.45 3.05" fill="url(#gradient4)" fill-rule="evenodd" stroke="none"/>
      <path d="M-17.35 -16.3 L-15.55 -18.45 Q-12.5 -22.0 -7.55 -21.75 L0.25 -21.75 4.95 -19.15 3.85 -18.3 -2.6 -18.1 Q-10.65 -17.5 -16.85 -11.85 L-19.6 -8.8 -17.35 -16.3" fill="url(#gradient5)" fill-rule="evenodd" stroke="none"/>
      <path d="M2.05 -3.45 Q5.35 -4.0 8.65 -3.6 L25.65 -2.0 Q28.9 -1.5 28.85 -0.7 L28.8 -0.65 28.6 -0.4 27.9 0.15 19.35 3.9 5.95 2.75 Q2.05 2.15 -3.85 3.95 L-21.25 9.2 -27.55 6.8 -28.8 5.9 Q-29.15 5.1 -27.55 4.15 L-25.45 3.05 -25.4 3.05 -25.0 2.95 1.35 -3.25 1.55 -3.3 1.8 -3.35 2.05 -3.45" fill="url(#gradient6)" fill-rule="evenodd" stroke="none"/>
      <path d="M20.4 -20.0 L21.45 -18.9 19.7 -18.9 20.4 -20.0" fill="url(#gradient7)" fill-rule="evenodd" stroke="none"/>
      <path d="M28.8 -0.65 Q28.75 0.4 27.9 1.15 L27.0 1.6 18.2 6.1 11.6 9.4 Q8.2 11.15 4.75 12.85 -4.0 17.55 -13.1 14.8 L-26.7 8.15 Q-27.1 7.95 -27.55 7.7 L-28.45 7.1 -28.8 5.9 -27.55 6.8 -21.25 9.2 -13.1 12.25 Q-4.0 14.25 4.75 10.25 L19.35 3.9 27.9 0.15 28.6 -0.4 28.8 -0.65 M23.6 2.9 L23.65 2.45 19.85 4.2 19.8 4.65 23.6 2.9 M13.85 6.9 L8.6 9.3 8.5 9.8 13.85 7.35 13.85 6.9" fill="url(#gradient8)" fill-rule="evenodd" stroke="none"/>
      <path d="M-27.35 -0.2 L-26.15 -5.2 Q-25.7 -6.95 -24.25 -8.35 L-23.85 -4.15 -27.35 -0.2" fill="url(#gradient9)" fill-rule="evenodd" stroke="none"/>
      <path d="M-24.25 -8.35 L-17.35 -16.3 -19.6 -8.8 -23.85 -4.15 -24.25 -8.35" fill="url(#gradient10)" fill-rule="evenodd" stroke="none"/>
      <path d="M6.7 16.85 L-0.15 20.5 Q-4.4 22.7 -8.45 21.2 L-21.85 14.85 Q-23.35 14.05 -23.9 12.8 L-26.7 8.15 -13.1 14.8 Q-4.0 17.55 4.75 12.85 8.2 11.15 11.6 9.4 L6.7 16.85" fill="url(#gradient11)" fill-rule="evenodd" stroke="none"/>
      <path d="M19.35 3.9 L4.75 10.25 Q-4.0 14.25 -13.1 12.25 L-21.25 9.2 -3.85 3.95 Q2.05 2.15 5.95 2.75 L19.35 3.9" fill="url(#gradient12)" fill-rule="evenodd" stroke="none"/>
      <path d="M27.0 1.6 L24.0 6.45 Q23.35 8.05 21.1 9.3 L18.2 10.85 18.2 6.1 27.0 1.6" fill="url(#gradient13)" fill-rule="evenodd" stroke="none"/>
      <path d="M18.2 10.85 L6.7 16.85 11.6 9.4 18.2 6.1 18.2 10.85" fill="url(#gradient14)" fill-rule="evenodd" stroke="none"/>
    </g>
    <linearGradient gradientTransform="matrix(0.0045, 0.0, 0.0, 0.0019, 16.7, -20.2)" gradientUnits="userSpaceOnUse" id="gradient0" spreadMethod="pad" x1="-819.2" x2="819.2">
      <stop offset="0.0" stop-color="#ecf0f9"/>
      <stop offset="0.4980392156862745" stop-color="#ffffff"/>
      <stop offset="1.0" stop-color="#ebf0fa"/>
    </linearGradient>
    <linearGradient gradientTransform="matrix(0.0088, 0.0, 0.0, 0.002, 7.45, -20.15)" gradientUnits="userSpaceOnUse" id="gradient1" spreadMethod="pad" x1="-819.2" x2="819.2">
      <stop offset="0.0" stop-color="#ecf0f9"/>
      <stop offset="0.4980392156862745" stop-color="#ffffff"/>
      <stop offset="1.0" stop-color="#ebf0fa"/>
    </linearGradient>
    <linearGradient gradientTransform="matrix(0.0324, 0.0, 0.0, 0.0134, -2.0, -8.0)" gradientUnits="userSpaceOnUse" id="gradient2" spreadMethod="pad" x1="-819.2" x2="819.2">
      <stop offset="0.0" stop-color="#ecf0f9"/>
      <stop offset="0.4980392156862745" stop-color="#c7d9f3"/>
      <stop offset="1.0" stop-color="#ebf0fa"/>
    </linearGradient>
    <linearGradient gradientTransform="matrix(-0.0019, 0.0122, -0.0338, -0.0054, -0.3, 4.1)" gradientUnits="userSpaceOnUse" id="gradient3" spreadMethod="pad" x1="-819.2" x2="819.2">
      <stop offset="0.0" stop-color="#b3c8e6"/>
      <stop offset="0.4980392156862745" stop-color="#c7d9f3"/>
      <stop offset="1.0" stop-color="#aec7ea"/>
    </linearGradient>
    <linearGradient gradientTransform="matrix(0.0316, -0.0126, 0.0022, 0.0055, -2.15, -7.05)" gradientUnits="userSpaceOnUse" id="gradient4" spreadMethod="pad" x1="-819.2" x2="819.2">
      <stop offset="0.0" stop-color="#a3c1ec"/>
      <stop offset="0.6392156862745098" stop-color="#cadaf3"/>
      <stop offset="1.0" stop-color="#96b8e9"/>
    </linearGradient>
    <linearGradient gradientTransform="matrix(0.015, 0.0, 0.0, 0.0079, -7.35, -15.3)" gradientUnits="userSpaceOnUse" id="gradient5" spreadMethod="pad" x1="-819.2" x2="819.2">
      <stop offset="0.0" stop-color="#ecf0f9"/>
      <stop offset="0.4980392156862745" stop-color="#ffffff"/>
      <stop offset="1.0" stop-color="#ebf0fa"/>
    </linearGradient>
    <linearGradient gradientTransform="matrix(-0.0019, 0.0122, -0.0338, -0.0054, -0.3, 4.1)" gradientUnits="userSpaceOnUse" id="gradient6" spreadMethod="pad" x1="-819.2" x2="819.2">
      <stop offset="0.0" stop-color="#c6d9ec"/>
      <stop offset="0.4980392156862745" stop-color="#c7d9f3"/>
      <stop offset="1.0" stop-color="#aec7ea"/>
    </linearGradient>
    <linearGradient gradientTransform="matrix(0.0011, 0.0, 0.0, 7.0E-4, 20.55, -19.45)" gradientUnits="userSpaceOnUse" id="gradient7" spreadMethod="pad" x1="-819.2" x2="819.2">
      <stop offset="0.0" stop-color="#ecf0f9"/>
      <stop offset="0.4980392156862745" stop-color="#ffffff"/>
      <stop offset="1.0" stop-color="#ebf0fa"/>
    </linearGradient>
    <linearGradient gradientTransform="matrix(0.0352, 0.0, 0.0, 0.0101, 0.0, 7.6)" gradientUnits="userSpaceOnUse" id="gradient8" spreadMethod="pad" x1="-819.2" x2="819.2">
      <stop offset="0.0" stop-color="#ecf0f9"/>
      <stop offset="0.4980392156862745" stop-color="#c7d9f3"/>
      <stop offset="1.0" stop-color="#ebf0fa"/>
    </linearGradient>
    <linearGradient gradientTransform="matrix(0.0022, 0.0, 0.0, 0.005, -25.6, -4.3)" gradientUnits="userSpaceOnUse" id="gradient9" spreadMethod="pad" x1="-819.2" x2="819.2">
      <stop offset="0.0" stop-color="#ecf0f9"/>
      <stop offset="0.4980392156862745" stop-color="#ffffff"/>
      <stop offset="1.0" stop-color="#ebf0fa"/>
    </linearGradient>
    <linearGradient gradientTransform="matrix(0.0042, 0.0, 0.0, 0.0074, -20.8, -10.2)" gradientUnits="userSpaceOnUse" id="gradient10" spreadMethod="pad" x1="-819.2" x2="819.2">
      <stop offset="0.0" stop-color="#ecf0f9"/>
      <stop offset="0.4980392156862745" stop-color="#ffffff"/>
      <stop offset="1.0" stop-color="#ebf0fa"/>
    </linearGradient>
    <linearGradient gradientTransform="matrix(-0.0135, 0.0117, -0.0114, -0.0131, -7.2, 10.05)" gradientUnits="userSpaceOnUse" id="gradient11" spreadMethod="pad" x1="-819.2" x2="819.2">
      <stop offset="0.0" stop-color="#ecf0f9"/>
      <stop offset="0.4980392156862745" stop-color="#c7d9f3"/>
      <stop offset="1.0" stop-color="#ebf0fa"/>
    </linearGradient>
    <linearGradient gradientTransform="matrix(-0.0174, 0.015, -0.0061, -0.0071, -4.1, -11.25)" gradientUnits="userSpaceOnUse" id="gradient12" spreadMethod="pad" x1="-819.2" x2="819.2">
      <stop offset="0.0" stop-color="#ecf0f9"/>
      <stop offset="0.4980392156862745" stop-color="#c7d9f3"/>
      <stop offset="1.0" stop-color="#ebf0fa"/>
    </linearGradient>
    <linearGradient gradientTransform="matrix(-0.0059, 0.0051, -0.0018, -0.0021, 22.15, 5.65)" gradientUnits="userSpaceOnUse" id="gradient13" spreadMethod="pad" x1="-819.2" x2="819.2">
      <stop offset="0.0" stop-color="#ecf0f9"/>
      <stop offset="0.4980392156862745" stop-color="#c7d9f3"/>
      <stop offset="1.0" stop-color="#ebf0fa"/>
    </linearGradient>
    <linearGradient gradientTransform="matrix(-0.0073, 0.0063, -0.0022, -0.0025, 12.75, 11.95)" gradientUnits="userSpaceOnUse" id="gradient14" spreadMethod="pad" x1="-819.2" x2="819.2">
      <stop offset="0.0" stop-color="#ecf0f9"/>
      <stop offset="0.4980392156862745" stop-color="#c7d9f3"/>
      <stop offset="1.0" stop-color="#ebf0fa"/>
    </linearGradient>
  </defs>
</svg>
