<?xml version="1.0" encoding="UTF-8" standalone="no"?>
<svg xmlns:xlink="http://www.w3.org/1999/xlink" height="32.7px" width="27.25px" xmlns="http://www.w3.org/2000/svg">
  <g transform="matrix(1.0, 0.0, 0.0, 1.0, 13.6, 16.35)">
    <use height="32.7" transform="matrix(1.0, 0.0, 0.0, 1.0, -13.6, -16.35)" width="27.25" xlink:href="#shape0"/>
  </g>
  <defs>
    <g id="shape0" transform="matrix(1.0, 0.0, 0.0, 1.0, 13.6, 16.35)">
      <path d="M11.55 -14.45 Q13.55 -13.55 13.55 -12.4 L13.55 -12.35 13.55 -12.25 13.55 -12.35 13.55 -12.3 13.55 -12.25 13.5 -12.15 13.35 -11.75 12.35 -10.8 Q11.4 -10.2 9.55 -9.7 L6.1 -8.95 2.1 -8.6 0.0 -8.55 -0.1 -8.55 -5.2 -8.85 -9.5 -9.7 Q-11.4 -10.2 -12.35 -10.8 -13.1 -11.3 -13.35 -11.9 L-13.5 -12.2 -13.5 -12.3 -13.5 -12.4 Q-13.5 -14.0 -9.5 -15.15 -5.6 -16.25 0.0 -16.25 L1.2 -16.2 0.2 -16.2 -8.8 -15.3 Q-12.55 -14.3 -12.55 -12.85 -12.55 -11.45 -8.8 -10.5 -5.1 -9.5 0.2 -9.45 5.5 -9.5 9.25 -10.5 13.0 -11.45 13.0 -12.85 13.0 -13.75 11.55 -14.45" fill="url(#gradient0)" fill-rule="evenodd" stroke="none"/>
      <path d="M11.55 -14.45 Q13.0 -13.75 13.0 -12.85 13.0 -11.45 9.25 -10.5 5.5 -9.5 0.2 -9.45 -5.1 -9.5 -8.8 -10.5 -12.55 -11.45 -12.55 -12.85 -12.55 -14.3 -8.8 -15.3 L0.2 -16.2 1.2 -16.2 2.1 -16.2 6.8 -15.75 9.55 -15.15 11.55 -14.45" fill="url(#gradient1)" fill-rule="evenodd" stroke="none"/>
      <path d="M-13.5 -12.2 L-13.35 -11.9 Q-13.1 -11.3 -12.35 -10.8 -11.4 -10.2 -9.5 -9.7 L-5.2 -8.85 -0.1 -8.55 0.0 -8.55 2.1 -8.6 6.1 -8.95 9.55 -9.7 Q11.4 -10.2 12.35 -10.8 L13.35 -11.75 13.5 -12.15 12.95 -7.3 12.45 -7.0 9.95 -6.15 Q5.8 -5.05 -0.1 -5.05 -6.05 -5.05 -10.2 -6.15 L-12.45 -6.95 -12.75 -7.05 -13.5 -12.2" fill="url(#gradient2)" fill-rule="evenodd" stroke="none"/>
      <path d="M-12.45 -6.95 L-10.2 -6.15 Q-6.05 -5.05 -0.1 -5.05 5.8 -5.05 9.95 -6.15 L12.45 -7.0 9.8 14.0 Q9.65 14.95 7.05 15.6 L0.55 16.25 -5.95 15.6 Q-8.6 14.9 -8.6 13.9 L-12.45 -6.95" fill="url(#gradient3)" fill-rule="evenodd" stroke="none"/>
      <path d="M13.55 -12.35 L13.55 -12.4 Q13.55 -13.55 11.55 -14.45 M1.2 -16.2 L0.0 -16.25 Q-5.6 -16.25 -9.5 -15.15 -13.5 -14.0 -13.5 -12.4 L-13.5 -12.3 -13.5 -12.2 M13.5 -12.15 L13.55 -12.25 13.55 -12.35 13.55 -12.3 13.55 -12.25 M1.2 -16.2 L2.1 -16.2 6.8 -15.75 9.55 -15.15 11.55 -14.45 M12.45 -7.0 L12.95 -7.3 13.5 -12.15 M12.45 -7.0 L9.8 14.0 Q9.65 14.95 7.05 15.6 L0.55 16.25 -5.95 15.6 Q-8.6 14.9 -8.6 13.9 L-12.45 -6.95 -12.75 -7.05 -13.5 -12.2" fill="none" stroke="#e5ebf7" stroke-linecap="round" stroke-linejoin="round" stroke-width="0.25"/>
      <path d="M-12.45 -6.95 L-10.2 -6.15 Q-6.05 -5.05 -0.1 -5.05 5.8 -5.05 9.95 -6.15 L12.45 -7.0" fill="none" stroke="#9fb3df" stroke-linecap="round" stroke-linejoin="round" stroke-opacity="0.6627451" stroke-width="0.5"/>
    </g>
    <linearGradient gradientTransform="matrix(0.0, 0.0047, -0.0165, 0.0, 0.0, -12.45)" gradientUnits="userSpaceOnUse" id="gradient0" spreadMethod="pad" x1="-819.2" x2="819.2">
      <stop offset="0.16862745098039217" stop-color="#d2cfd1"/>
      <stop offset="1.0" stop-color="#ffffff"/>
    </linearGradient>
    <linearGradient gradientTransform="matrix(0.0, -0.0041, 0.0156, 0.0, 0.2, -12.85)" gradientUnits="userSpaceOnUse" id="gradient1" spreadMethod="pad" x1="-819.2" x2="819.2">
      <stop offset="0.39215686274509803" stop-color="#8e95ac"/>
      <stop offset="1.0" stop-color="#ecf0f9"/>
    </linearGradient>
    <linearGradient gradientTransform="matrix(0.0159, 0.0, 0.0, 0.0165, -0.1, 2.7)" gradientUnits="userSpaceOnUse" id="gradient2" spreadMethod="pad" x1="-819.2" x2="819.2">
      <stop offset="0.0" stop-color="#c7d9f3"/>
      <stop offset="0.2901960784313726" stop-color="#ecf0f9"/>
      <stop offset="0.6039215686274509" stop-color="#ebf0fa"/>
      <stop offset="1.0" stop-color="#d5e1f5"/>
    </linearGradient>
    <linearGradient gradientTransform="matrix(0.0152, 0.0, 0.0, 0.0142, 0.0, 4.6)" gradientUnits="userSpaceOnUse" id="gradient3" spreadMethod="pad" x1="-819.2" x2="819.2">
      <stop offset="0.0" stop-color="#c7d9f3"/>
      <stop offset="0.2901960784313726" stop-color="#ecf0f9"/>
      <stop offset="0.6039215686274509" stop-color="#ebf0fa"/>
      <stop offset="1.0" stop-color="#d5e1f5"/>
    </linearGradient>
  </defs>
</svg>
