<?xml version="1.0" encoding="UTF-8" standalone="no"?>
<svg xmlns:xlink="http://www.w3.org/1999/xlink" height="75.35px" width="58.1px" xmlns="http://www.w3.org/2000/svg">
  <g transform="matrix(1.0, 0.0, 0.0, 1.0, 29.05, 37.65)">
    <use height="75.35" transform="matrix(1.0, 0.0, 0.0, 1.0, -29.05, -37.65)" width="58.1" xlink:href="#shape0"/>
  </g>
  <defs>
    <g id="shape0" transform="matrix(1.0, 0.0, 0.0, 1.0, 29.05, 37.65)">
      <path d="M14.55 -27.15 L5.7 -30.0 4.85 -30.25 3.65 -30.35 3.55 -30.35 Q1.4 -30.2 1.1 -27.15 L1.05 -26.2 1.05 -18.25 1.05 -16.5 1.05 -13.95 1.05 -2.55 2.4 -2.55 2.4 2.8 1.05 2.8 1.05 12.6 1.05 15.15 1.05 18.65 1.05 26.8 1.05 26.95 Q1.1 30.55 3.4 30.85 L5.55 30.45 5.7 30.4 14.5 26.95 14.55 26.9 14.55 18.65 17.85 16.25 17.85 25.65 24.25 23.15 Q26.85 22.15 26.8 18.4 L26.8 2.8 22.3 2.8 22.3 -2.55 26.75 -2.55 26.75 -19.45 Q26.8 -23.25 24.2 -24.05 L17.85 -26.1 17.85 -16.2 14.55 -18.25 14.55 -27.15 M-1.0 -37.6 L-0.85 -37.6 1.85 -37.05 25.75 -28.6 Q28.95 -27.5 28.95 -23.0 L29.05 21.95 Q29.05 26.4 25.85 27.7 L1.9 37.05 -1.2 37.7 Q-4.35 37.5 -4.3 32.85 L-4.3 -32.7 Q-4.3 -37.5 -1.0 -37.6" fill="url(#gradient0)" fill-rule="evenodd" stroke="none"/>
      <path d="M14.55 -27.15 L14.55 -18.25 1.05 -18.25 1.05 -26.2 1.1 -27.15 14.55 -27.15 M10.3 -24.9 L9.9 -24.8 Q9.75 -24.7 9.75 -24.45 9.75 -24.25 9.9 -24.15 L10.3 -24.0 10.65 -24.15 10.8 -24.45 10.65 -24.8 10.3 -24.9 M11.75 -21.65 Q11.55 -22.15 11.2 -22.1 L10.65 -21.65 10.85 -21.3 11.25 -21.2 11.75 -21.65 M6.35 -23.7 L5.95 -23.85 5.6 -23.7 5.45 -23.4 5.6 -23.05 5.95 -22.95 6.35 -23.05 6.5 -23.4 6.35 -23.7" fill="url(#gradient1)" fill-rule="evenodd" stroke="none"/>
      <path d="M1.1 -27.15 Q1.4 -30.2 3.55 -30.35 L3.65 -30.35 4.85 -30.25 5.7 -30.0 14.55 -27.15 1.1 -27.15 M14.55 -18.25 L17.85 -16.2 11.55 -16.2 5.35 -16.2 1.05 -18.25 14.55 -18.25 M17.85 16.25 L14.55 18.65 1.05 18.65 6.55 16.25 11.6 16.25 17.85 16.25 M14.5 26.95 L5.7 30.4 5.55 30.45 3.4 30.85 Q1.1 30.55 1.05 26.95 L14.5 26.95" fill="#baccf1" fill-rule="evenodd" stroke="none"/>
      <path d="M10.3 -24.9 L10.65 -24.8 10.8 -24.45 10.65 -24.15 10.3 -24.0 9.9 -24.15 Q9.75 -24.25 9.75 -24.45 9.75 -24.7 9.9 -24.8 L10.3 -24.9 M11.75 -21.65 L11.25 -21.2 10.85 -21.3 10.65 -21.65 11.2 -22.1 Q11.55 -22.15 11.75 -21.65 M6.35 -23.7 L6.5 -23.4 6.35 -23.05 5.95 -22.95 5.6 -23.05 5.45 -23.4 5.6 -23.7 5.95 -23.85 6.35 -23.7 M17.15 11.05 L16.75 11.2 16.35 11.05 16.25 10.75 16.35 10.4 16.75 10.3 17.15 10.4 17.3 10.75 17.15 11.05 M20.85 18.3 Q20.95 18.15 21.2 18.15 21.45 18.15 21.6 18.3 L21.75 18.6 21.6 18.95 21.2 19.05 20.85 18.95 20.7 18.6 Q20.7 18.4 20.85 18.3 M22.3 13.95 Q22.55 13.95 22.7 14.1 L22.85 14.4 22.7 14.75 22.3 14.85 21.95 14.75 21.8 14.4 Q21.8 14.2 21.95 14.1 22.05 13.95 22.3 13.95 M6.6 21.7 L6.75 22.0 6.6 22.35 6.2 22.45 5.8 22.35 5.7 22.0 5.8 21.7 6.2 21.55 6.6 21.7 M9.7 21.4 Q9.85 21.25 10.1 21.25 10.35 21.25 10.5 21.4 L10.6 21.7 10.5 22.05 10.1 22.15 9.7 22.05 9.6 21.7 9.7 21.4 M17.1 14.15 L16.95 14.45 16.55 14.6 16.2 14.45 16.05 14.15 Q16.05 13.9 16.2 13.8 L16.55 13.7 16.95 13.8 17.1 14.15 M5.25 25.3 L5.1 25.6 4.75 25.75 4.35 25.6 4.2 25.3 Q4.2 25.05 4.35 24.95 L4.75 24.85 5.1 24.95 5.25 25.3 M11.9 24.85 L12.3 24.95 12.45 25.3 12.3 25.6 11.9 25.75 11.55 25.6 11.4 25.3 Q11.4 25.05 11.55 24.95 L11.9 24.85 M-21.1 -4.3 L-21.5 -4.15 Q-21.75 -4.15 -21.9 -4.3 L-22.0 -4.7 -21.9 -5.05 -21.5 -5.2 -21.1 -5.05 -21.0 -4.7 -21.1 -4.3 M-26.0 -4.65 L-25.65 -4.75 -25.25 -4.65 -25.1 -4.3 -25.25 -4.0 -25.65 -3.85 -26.0 -4.0 -26.15 -4.3 -26.0 -4.65 M-25.45 -8.8 Q-25.45 -8.6 -25.6 -8.45 L-25.95 -8.35 -26.35 -8.45 -26.5 -8.8 -26.35 -9.1 -25.95 -9.25 -25.6 -9.1 -25.45 -8.8 M-21.5 -9.8 L-21.1 -9.9 -20.75 -9.8 -20.6 -9.45 -20.75 -9.1 -21.1 -9.0 -21.5 -9.1 -21.65 -9.45 -21.5 -9.8 M-22.0 -14.55 L-21.65 -14.4 -21.5 -14.1 -21.65 -13.75 -22.0 -13.65 -22.4 -13.75 -22.55 -14.1 -22.4 -14.4 -22.0 -14.55 M-25.45 -13.65 Q-25.7 -13.65 -25.8 -13.75 L-25.95 -14.1 -25.8 -14.4 -25.45 -14.55 -25.05 -14.4 -24.9 -14.1 -25.05 -13.75 -25.45 -13.65 M-26.4 -21.05 L-26.35 -20.8 -27.0 -20.3 -27.2 -20.7 -27.0 -20.9 -26.4 -21.05 M-26.7 4.35 L-27.05 4.2 -27.2 3.9 -27.05 3.55 -26.7 3.45 -26.3 3.55 Q-26.15 3.65 -26.15 3.9 L-26.3 4.2 -26.7 4.35 M-21.85 0.75 Q-21.7 0.85 -21.7 1.1 L-21.85 1.4 -22.2 1.55 -22.6 1.4 -22.75 1.1 -22.6 0.75 -22.2 0.65 -21.85 0.75 M-9.3 20.8 L-9.65 20.65 -9.8 20.35 -9.65 20.0 -9.3 19.9 -8.9 20.0 -8.75 20.35 -8.9 20.65 -9.3 20.8 M-13.6 10.5 L-14.0 10.4 -14.15 10.05 -14.0 9.75 -13.6 9.6 Q-13.4 9.6 -13.25 9.75 -13.1 9.85 -13.1 10.05 L-13.25 10.4 -13.6 10.5 M-20.2 7.5 L-19.85 7.6 Q-19.7 7.7 -19.7 7.95 L-19.85 8.25 -20.2 8.4 -20.6 8.25 -20.75 7.95 -20.6 7.6 -20.2 7.5 M-15.05 2.5 L-14.9 2.15 -14.5 2.05 -14.15 2.15 Q-14.0 2.25 -14.0 2.5 L-14.15 2.8 -14.5 2.95 -14.9 2.8 -15.05 2.5 M-7.55 7.45 L-7.65 7.8 -8.05 7.9 -8.45 7.8 -8.55 7.45 -8.45 7.1 -8.05 7.0 -7.65 7.1 -7.55 7.45 M-9.3 2.2 L-9.15 1.85 -8.75 1.75 -8.4 1.85 Q-8.25 1.95 -8.25 2.2 L-8.4 2.55 -8.75 2.65 -9.15 2.55 -9.3 2.2 M-8.7 -3.4 L-9.1 -3.25 -9.5 -3.4 -9.6 -3.7 -9.5 -4.05 -9.1 -4.15 -8.7 -4.05 -8.55 -3.7 -8.7 -3.4 M-9.55 -7.9 L-10.0 -8.05 -10.2 -8.4 -10.0 -8.8 -9.55 -8.95 -9.15 -8.8 -8.95 -8.4 -9.15 -8.05 Q-9.35 -7.9 -9.55 -7.9 M-10.9 -0.15 L-10.5 -0.25 -10.15 -0.15 Q-10.0 -0.05 -10.0 0.2 L-10.15 0.5 -10.5 0.65 -10.9 0.5 -11.05 0.2 -10.9 -0.15 M-14.15 -2.5 L-14.3 -2.15 Q-14.45 -2.05 -14.65 -2.05 L-15.05 -2.15 -15.2 -2.5 -15.05 -2.8 -14.65 -2.95 -14.3 -2.8 -14.15 -2.5 M-17.9 -1.1 L-18.25 -1.2 -18.4 -1.55 -18.25 -1.85 -17.9 -2.0 -17.5 -1.85 -17.35 -1.55 -17.5 -1.2 -17.9 -1.1 M-18.1 -5.1 L-18.2 -4.75 -18.6 -4.65 -19.0 -4.75 -19.1 -5.1 -19.0 -5.45 -18.6 -5.55 -18.2 -5.45 -18.1 -5.1 M-16.15 -5.45 L-15.75 -5.55 -15.35 -5.45 -15.25 -5.1 -15.35 -4.75 -15.75 -4.65 -16.15 -4.75 -16.25 -5.1 -16.15 -5.45 M-17.75 -10.5 L-17.35 -10.4 -17.2 -10.05 -17.35 -9.75 -17.75 -9.6 -18.1 -9.75 -18.25 -10.05 -18.1 -10.4 -17.75 -10.5 M-12.65 -6.8 L-12.5 -7.1 -12.15 -7.25 -11.75 -7.1 -11.6 -6.8 -11.75 -6.45 -12.15 -6.35 Q-12.4 -6.35 -12.5 -6.45 L-12.65 -6.8 M-10.9 -13.15 L-11.3 -13.0 -11.65 -13.15 -11.8 -13.45 -11.65 -13.8 -11.3 -13.9 -10.9 -13.8 -10.75 -13.45 -10.9 -13.15 M-18.25 -14.1 L-17.9 -14.2 -17.5 -14.1 -17.35 -13.75 -17.5 -13.45 -17.9 -13.3 -18.25 -13.45 -18.4 -13.75 -18.25 -14.1 M-18.25 -18.9 L-17.9 -18.75 -17.75 -18.45 -17.9 -18.1 -18.25 -18.0 -18.65 -18.1 -18.8 -18.45 -18.65 -18.75 -18.25 -18.9 M-19.3 -21.0 L-19.7 -20.9 -20.05 -21.0 -20.2 -21.35 -20.05 -21.65 -19.7 -21.8 -19.3 -21.65 -19.15 -21.35 -19.3 -21.0 M-23.5 27.75 L-23.1 27.65 -22.75 27.75 Q-22.6 27.85 -22.6 28.1 L-22.75 28.4 -23.1 28.55 -23.5 28.4 -23.65 28.1 -23.5 27.75 M-9.45 30.7 L-9.3 30.4 Q-9.15 30.25 -8.9 30.25 -8.7 30.25 -8.55 30.4 -8.4 30.5 -8.4 30.7 L-8.55 31.05 -8.9 31.15 -9.3 31.05 -9.45 30.7" fill="#ebf0fa" fill-rule="evenodd" stroke="none"/>
      <path d="M17.85 -16.2 L17.85 -26.1 24.2 -24.05 Q26.8 -23.25 26.75 -19.45 L26.75 -2.55 22.3 -2.55 11.55 -2.55 11.55 -16.2 17.85 -16.2 M22.3 2.8 L26.8 2.8 26.8 18.4 Q26.85 22.15 24.25 23.15 L17.85 25.65 17.85 16.25 11.6 16.25 11.55 2.8 22.3 2.8 M22.3 13.95 Q22.05 13.95 21.95 14.1 21.8 14.2 21.8 14.4 L21.95 14.75 22.3 14.85 22.7 14.75 22.85 14.4 22.7 14.1 Q22.55 13.95 22.3 13.95 M20.85 18.3 Q20.7 18.4 20.7 18.6 L20.85 18.95 21.2 19.05 21.6 18.95 21.75 18.6 21.6 18.3 Q21.45 18.15 21.2 18.15 20.95 18.15 20.85 18.3 M17.15 11.05 L17.3 10.75 17.15 10.4 16.75 10.3 16.35 10.4 16.25 10.75 16.35 11.05 16.75 11.2 17.15 11.05 M17.1 14.15 L16.95 13.8 16.55 13.7 16.2 13.8 Q16.05 13.9 16.05 14.15 L16.2 14.45 16.55 14.6 16.95 14.45 17.1 14.15" fill="url(#gradient2)" fill-rule="evenodd" stroke="none"/>
      <path d="M1.05 15.15 L1.05 12.6 Q2.4 10.95 2.4 8.9 L2.4 2.8 2.4 -2.55 2.4 -10.25 Q2.4 -12.35 1.05 -13.95 L1.05 -16.5 Q2.7 -16.05 4.05 -14.85 6.3 -12.95 6.3 -10.25 L6.3 8.9 Q6.3 11.6 4.05 13.5 2.7 14.65 1.05 15.15" fill="url(#gradient3)" fill-rule="evenodd" stroke="none"/>
      <path d="M1.05 18.65 L1.05 15.15 Q2.7 14.65 4.05 13.5 6.3 11.6 6.3 8.9 L6.3 -10.25 Q6.3 -12.95 4.05 -14.85 2.7 -16.05 1.05 -16.5 L1.05 -18.25 5.35 -16.2 11.55 -16.2 11.55 -2.55 8.9 -2.55 9.1 2.8 11.55 2.8 11.6 16.25 6.55 16.25 1.05 18.65" fill="url(#gradient4)" fill-rule="evenodd" stroke="none"/>
      <path d="M22.3 -2.55 L22.3 2.8 11.55 2.8 9.1 2.8 8.9 -2.55 11.55 -2.55 22.3 -2.55" fill="url(#gradient5)" fill-rule="evenodd" stroke="none"/>
      <path d="M14.55 18.65 L14.55 26.9 14.5 26.95 1.05 26.95 1.05 26.8 1.05 18.65 14.55 18.65 M9.7 21.4 L9.6 21.7 9.7 22.05 10.1 22.15 10.5 22.05 10.6 21.7 10.5 21.4 Q10.35 21.25 10.1 21.25 9.85 21.25 9.7 21.4 M6.6 21.7 L6.2 21.55 5.8 21.7 5.7 22.0 5.8 22.35 6.2 22.45 6.6 22.35 6.75 22.0 6.6 21.7 M11.9 24.85 L11.55 24.95 Q11.4 25.05 11.4 25.3 L11.55 25.6 11.9 25.75 12.3 25.6 12.45 25.3 12.3 24.95 11.9 24.85 M5.25 25.3 L5.1 24.95 4.75 24.85 4.35 24.95 Q4.2 25.05 4.2 25.3 L4.35 25.6 4.75 25.75 5.1 25.6 5.25 25.3" fill="url(#gradient6)" fill-rule="evenodd" stroke="none"/>
      <path d="M-24.7 -23.4 L-24.55 -23.05 Q-24.55 -22.85 -24.7 -22.75 L-25.05 -22.6 -25.45 -22.75 -25.6 -23.05 -25.45 -23.4 -25.05 -23.5 -24.7 -23.4 M-22.85 -27.55 L-22.4 -27.35 -22.2 -27.0 -22.4 -26.65 -22.85 -26.45 Q-23.1 -26.5 -23.25 -26.65 L-23.45 -27.0 -23.25 -27.35 -22.85 -27.55 M-25.25 -33.5 L-25.1 -33.15 -25.25 -32.85 -25.65 -32.7 -25.95 -32.75 -26.0 -32.85 -26.15 -33.15 -26.0 -33.5 -25.85 -33.55 -25.65 -33.6 -25.25 -33.5 M-8.7 -30.35 L-8.55 -30.05 -8.7 -29.7 -9.1 -29.6 -9.5 -29.7 -9.6 -30.05 -9.5 -30.35 -9.1 -30.5 -8.7 -30.35 M-8.55 -34.05 L-8.9 -33.95 -9.3 -34.05 -9.45 -34.4 -9.3 -34.7 -8.9 -34.85 -8.55 -34.7 -8.4 -34.4 -8.55 -34.05 M-10.15 -25.55 L-10.5 -25.4 -10.9 -25.55 -11.05 -25.85 -10.9 -26.2 -10.5 -26.3 -10.15 -26.2 Q-10.0 -26.1 -10.0 -25.85 -10.0 -25.65 -10.15 -25.55 M-14.5 -25.85 L-14.9 -26.0 -15.05 -26.3 -14.9 -26.65 -14.5 -26.75 -14.15 -26.65 -14.0 -26.3 Q-14.0 -26.1 -14.15 -26.0 L-14.5 -25.85 M-17.95 -31.7 L-18.1 -32.05 -17.95 -32.4 -17.55 -32.5 -17.15 -32.4 -17.05 -32.05 -17.15 -31.7 -17.55 -31.6 -17.95 -31.7 M-19.9 -35.45 L-19.5 -35.35 -19.35 -35.0 -19.5 -34.65 -19.9 -34.55 -20.25 -34.65 -20.4 -35.0 -20.25 -35.35 -19.9 -35.45 M-14.9 -31.45 L-15.05 -31.75 -14.9 -32.1 -14.5 -32.2 -14.15 -32.1 -14.0 -31.75 Q-14.0 -31.55 -14.15 -31.45 L-14.5 -31.3 -14.9 -31.45 M-18.65 -24.6 L-18.25 -24.75 -17.9 -24.6 -17.75 -24.3 -17.9 -23.95 -18.25 -23.85 -18.65 -23.95 -18.8 -24.3 -18.65 -24.6 M-11.4 -20.55 L-11.05 -20.45 -10.9 -20.1 Q-10.9 -19.9 -11.05 -19.8 L-11.4 -19.65 -11.8 -19.8 -11.95 -20.1 -11.8 -20.45 -11.4 -20.55 M-25.05 27.15 L-24.9 26.8 -24.55 26.7 -24.15 26.8 -24.0 27.15 -24.15 27.45 -24.55 27.6 -24.9 27.45 -25.05 27.15 M-20.75 23.0 L-21.1 23.1 -21.5 23.0 -21.65 22.65 -21.5 22.35 Q-21.35 22.2 -21.1 22.2 -20.9 22.2 -20.75 22.35 -20.6 22.45 -20.6 22.65 L-20.75 23.0 M-25.65 20.0 L-25.5 19.9 -25.25 19.9 -24.85 20.0 -24.75 20.35 -24.85 20.65 -25.25 20.8 -25.45 20.75 -25.65 20.65 -25.8 20.35 -25.65 20.0 M-21.0 35.65 L-21.35 35.55 -21.5 35.2 -21.35 34.9 Q-21.25 34.75 -21.0 34.75 -20.75 34.75 -20.6 34.9 L-20.45 35.2 -20.6 35.55 -21.0 35.65 M-26.0 30.7 L-25.65 30.6 -25.25 30.7 -25.1 31.05 -25.25 31.35 -25.65 31.5 -26.0 31.35 -26.15 31.05 -26.0 30.7 M-15.95 34.75 L-16.4 34.6 -16.6 34.2 -16.4 33.8 -15.95 33.6 -15.45 33.8 -15.25 34.2 -15.45 34.6 -15.95 34.75 M-15.75 25.45 L-15.9 25.8 -16.25 25.9 -16.65 25.8 -16.8 25.45 -16.65 25.15 Q-16.5 25.0 -16.25 25.0 -16.05 25.0 -15.9 25.15 L-15.75 25.45 M-12.9 29.9 L-13.3 29.8 -13.4 29.45 -13.3 29.15 -12.9 29.0 Q-12.65 29.0 -12.5 29.15 L-12.35 29.45 -12.5 29.8 -12.9 29.9 M-7.95 33.8 L-8.35 33.95 -8.7 33.8 -8.85 33.5 -8.7 33.15 -8.35 33.05 -7.95 33.15 -7.8 33.5 -7.95 33.8" fill="#d3def5" fill-rule="evenodd" stroke="none"/>
      <path d="M-1.0 -37.6 Q-4.3 -37.5 -4.3 -32.7 L-4.3 32.85 Q-4.35 37.5 -1.2 37.7 L-25.1 37.65 -25.8 37.7 Q-29.05 37.6 -29.05 32.85 L-29.05 -32.7 Q-29.05 -37.4 -25.85 -37.6 L-25.3 -37.6 -1.0 -37.6 M-14.9 -31.45 L-14.5 -31.3 -14.15 -31.45 Q-14.0 -31.55 -14.0 -31.75 L-14.15 -32.1 -14.5 -32.2 -14.9 -32.1 -15.05 -31.75 -14.9 -31.45 M-19.9 -35.45 L-20.25 -35.35 -20.4 -35.0 -20.25 -34.65 -19.9 -34.55 -19.5 -34.65 -19.35 -35.0 -19.5 -35.35 -19.9 -35.45 M-17.95 -31.7 L-17.55 -31.6 -17.15 -31.7 -17.05 -32.05 -17.15 -32.4 -17.55 -32.5 -17.95 -32.4 -18.1 -32.05 -17.95 -31.7 M-14.5 -25.85 L-14.15 -26.0 Q-14.0 -26.1 -14.0 -26.3 L-14.15 -26.65 -14.5 -26.75 -14.9 -26.65 -15.05 -26.3 -14.9 -26.0 -14.5 -25.85 M-10.15 -25.55 Q-10.0 -25.65 -10.0 -25.85 -10.0 -26.1 -10.15 -26.2 L-10.5 -26.3 -10.9 -26.2 -11.05 -25.85 -10.9 -25.55 -10.5 -25.4 -10.15 -25.55 M-8.55 -34.05 L-8.4 -34.4 -8.55 -34.7 -8.9 -34.85 -9.3 -34.7 -9.45 -34.4 -9.3 -34.05 -8.9 -33.95 -8.55 -34.05 M-8.7 -30.35 L-9.1 -30.5 -9.5 -30.35 -9.6 -30.05 -9.5 -29.7 -9.1 -29.6 -8.7 -29.7 -8.55 -30.05 -8.7 -30.35 M-25.25 -33.5 L-25.65 -33.6 -25.85 -33.55 -26.0 -33.5 -26.15 -33.15 -26.0 -32.85 -25.95 -32.75 -25.65 -32.7 -25.25 -32.85 -25.1 -33.15 -25.25 -33.5 M-22.85 -27.55 L-23.25 -27.35 -23.45 -27.0 -23.25 -26.65 Q-23.1 -26.5 -22.85 -26.45 L-22.4 -26.65 -22.2 -27.0 -22.4 -27.35 -22.85 -27.55 M-24.7 -23.4 L-25.05 -23.5 -25.45 -23.4 -25.6 -23.05 -25.45 -22.75 -25.05 -22.6 -24.7 -22.75 Q-24.55 -22.85 -24.55 -23.05 L-24.7 -23.4 M-26.4 -21.05 L-27.0 -20.9 -27.2 -20.7 -27.0 -20.3 -26.35 -20.8 -26.4 -21.05 M-25.45 -13.65 L-25.05 -13.75 -24.9 -14.1 -25.05 -14.4 -25.45 -14.55 -25.8 -14.4 -25.95 -14.1 -25.8 -13.75 Q-25.7 -13.65 -25.45 -13.65 M-22.0 -14.55 L-22.4 -14.4 -22.55 -14.1 -22.4 -13.75 -22.0 -13.65 -21.65 -13.75 -21.5 -14.1 -21.65 -14.4 -22.0 -14.55 M-21.5 -9.8 L-21.65 -9.45 -21.5 -9.1 -21.1 -9.0 -20.75 -9.1 -20.6 -9.45 -20.75 -9.8 -21.1 -9.9 -21.5 -9.8 M-25.45 -8.8 L-25.6 -9.1 -25.95 -9.25 -26.35 -9.1 -26.5 -8.8 -26.35 -8.45 -25.95 -8.35 -25.6 -8.45 Q-25.45 -8.6 -25.45 -8.8 M-26.0 -4.65 L-26.15 -4.3 -26.0 -4.0 -25.65 -3.85 -25.25 -4.0 -25.1 -4.3 -25.25 -4.65 -25.65 -4.75 -26.0 -4.65 M-21.1 -4.3 L-21.0 -4.7 -21.1 -5.05 -21.5 -5.2 -21.9 -5.05 -22.0 -4.7 -21.9 -4.3 Q-21.75 -4.15 -21.5 -4.15 L-21.1 -4.3 M-11.4 -20.55 L-11.8 -20.45 -11.95 -20.1 -11.8 -19.8 -11.4 -19.65 -11.05 -19.8 Q-10.9 -19.9 -10.9 -20.1 L-11.05 -20.45 -11.4 -20.55 M-18.65 -24.6 L-18.8 -24.3 -18.65 -23.95 -18.25 -23.85 -17.9 -23.95 -17.75 -24.3 -17.9 -24.6 -18.25 -24.75 -18.65 -24.6 M-19.3 -21.0 L-19.15 -21.35 -19.3 -21.65 -19.7 -21.8 -20.05 -21.65 -20.2 -21.35 -20.05 -21.0 -19.7 -20.9 -19.3 -21.0 M-18.25 -18.9 L-18.65 -18.75 -18.8 -18.45 -18.65 -18.1 -18.25 -18.0 -17.9 -18.1 -17.75 -18.45 -17.9 -18.75 -18.25 -18.9 M-18.25 -14.1 L-18.4 -13.75 -18.25 -13.45 -17.9 -13.3 -17.5 -13.45 -17.35 -13.75 -17.5 -14.1 -17.9 -14.2 -18.25 -14.1 M-10.9 -13.15 L-10.75 -13.45 -10.9 -13.8 -11.3 -13.9 -11.65 -13.8 -11.8 -13.45 -11.65 -13.15 -11.3 -13.0 -10.9 -13.15 M-12.65 -6.8 L-12.5 -6.45 Q-12.4 -6.35 -12.15 -6.35 L-11.75 -6.45 -11.6 -6.8 -11.75 -7.1 -12.15 -7.25 -12.5 -7.1 -12.65 -6.8 M-17.75 -10.5 L-18.1 -10.4 -18.25 -10.05 -18.1 -9.75 -17.75 -9.6 -17.35 -9.75 -17.2 -10.05 -17.35 -10.4 -17.75 -10.5 M-16.15 -5.45 L-16.25 -5.1 -16.15 -4.75 -15.75 -4.65 -15.35 -4.75 -15.25 -5.1 -15.35 -5.45 -15.75 -5.55 -16.15 -5.45 M-18.1 -5.1 L-18.2 -5.45 -18.6 -5.55 -19.0 -5.45 -19.1 -5.1 -19.0 -4.75 -18.6 -4.65 -18.2 -4.75 -18.1 -5.1 M-17.9 -1.1 L-17.5 -1.2 -17.35 -1.55 -17.5 -1.85 -17.9 -2.0 -18.25 -1.85 -18.4 -1.55 -18.25 -1.2 -17.9 -1.1 M-14.15 -2.5 L-14.3 -2.8 -14.65 -2.95 -15.05 -2.8 -15.2 -2.5 -15.05 -2.15 -14.65 -2.05 Q-14.45 -2.05 -14.3 -2.15 L-14.15 -2.5 M-10.9 -0.15 L-11.05 0.2 -10.9 0.5 -10.5 0.65 -10.15 0.5 -10.0 0.2 Q-10.0 -0.05 -10.15 -0.15 L-10.5 -0.25 -10.9 -0.15 M-9.55 -7.9 Q-9.35 -7.9 -9.15 -8.05 L-8.95 -8.4 -9.15 -8.8 -9.55 -8.95 -10.0 -8.8 -10.2 -8.4 -10.0 -8.05 -9.55 -7.9 M-8.7 -3.4 L-8.55 -3.7 -8.7 -4.05 -9.1 -4.15 -9.5 -4.05 -9.6 -3.7 -9.5 -3.4 -9.1 -3.25 -8.7 -3.4 M-9.3 2.2 L-9.15 2.55 -8.75 2.65 -8.4 2.55 -8.25 2.2 Q-8.25 1.95 -8.4 1.85 L-8.75 1.75 -9.15 1.85 -9.3 2.2 M-7.55 7.45 L-7.65 7.1 -8.05 7.0 -8.45 7.1 -8.55 7.45 -8.45 7.8 -8.05 7.9 -7.65 7.8 -7.55 7.45 M-15.05 2.5 L-14.9 2.8 -14.5 2.95 -14.15 2.8 -14.0 2.5 Q-14.0 2.25 -14.15 2.15 L-14.5 2.05 -14.9 2.15 -15.05 2.5 M-20.2 7.5 L-20.6 7.6 -20.75 7.95 -20.6 8.25 -20.2 8.4 -19.85 8.25 -19.7 7.95 Q-19.7 7.7 -19.85 7.6 L-20.2 7.5 M-13.6 10.5 L-13.25 10.4 -13.1 10.05 Q-13.1 9.85 -13.25 9.75 -13.4 9.6 -13.6 9.6 L-14.0 9.75 -14.15 10.05 -14.0 10.4 -13.6 10.5 M-9.3 20.8 L-8.9 20.65 -8.75 20.35 -8.9 20.0 -9.3 19.9 -9.65 20.0 -9.8 20.35 -9.65 20.65 -9.3 20.8 M-21.85 0.75 L-22.2 0.65 -22.6 0.75 -22.75 1.1 -22.6 1.4 -22.2 1.55 -21.85 1.4 -21.7 1.1 Q-21.7 0.85 -21.85 0.75 M-26.7 4.35 L-26.3 4.2 -26.15 3.9 Q-26.15 3.65 -26.3 3.55 L-26.7 3.45 -27.05 3.55 -27.2 3.9 -27.05 4.2 -26.7 4.35 M-25.65 20.0 L-25.8 20.35 -25.65 20.65 -25.45 20.75 -25.25 20.8 -24.85 20.65 -24.75 20.35 -24.85 20.0 -25.25 19.9 -25.5 19.9 -25.65 20.0 M-20.75 23.0 L-20.6 22.65 Q-20.6 22.45 -20.75 22.35 -20.9 22.2 -21.1 22.2 -21.35 22.2 -21.5 22.35 L-21.65 22.65 -21.5 23.0 -21.1 23.1 -20.75 23.0 M-25.05 27.15 L-24.9 27.45 -24.55 27.6 -24.15 27.45 -24.0 27.15 -24.15 26.8 -24.55 26.7 -24.9 26.8 -25.05 27.15 M-23.5 27.75 L-23.65 28.1 -23.5 28.4 -23.1 28.55 -22.75 28.4 -22.6 28.1 Q-22.6 27.85 -22.75 27.75 L-23.1 27.65 -23.5 27.75 M-26.0 30.7 L-26.15 31.05 -26.0 31.35 -25.65 31.5 -25.25 31.35 -25.1 31.05 -25.25 30.7 -25.65 30.6 -26.0 30.7 M-21.0 35.65 L-20.6 35.55 -20.45 35.2 -20.6 34.9 Q-20.75 34.75 -21.0 34.75 -21.25 34.75 -21.35 34.9 L-21.5 35.2 -21.35 35.55 -21.0 35.65 M-9.45 30.7 L-9.3 31.05 -8.9 31.15 -8.55 31.05 -8.4 30.7 Q-8.4 30.5 -8.55 30.4 -8.7 30.25 -8.9 30.25 -9.15 30.25 -9.3 30.4 L-9.45 30.7 M-7.95 33.8 L-7.8 33.5 -7.95 33.15 -8.35 33.05 -8.7 33.15 -8.85 33.5 -8.7 33.8 -8.35 33.95 -7.95 33.8 M-12.9 29.9 L-12.5 29.8 -12.35 29.45 -12.5 29.15 Q-12.65 29.0 -12.9 29.0 L-13.3 29.15 -13.4 29.45 -13.3 29.8 -12.9 29.9 M-15.75 25.45 L-15.9 25.15 Q-16.05 25.0 -16.25 25.0 -16.5 25.0 -16.65 25.15 L-16.8 25.45 -16.65 25.8 -16.25 25.9 -15.9 25.8 -15.75 25.45 M-15.95 34.75 L-15.45 34.6 -15.25 34.2 -15.45 33.8 -15.95 33.6 -16.4 33.8 -16.6 34.2 -16.4 34.6 -15.95 34.75" fill="url(#gradient7)" fill-rule="evenodd" stroke="none"/>
    </g>
    <linearGradient gradientTransform="matrix(0.0, 0.0459, -0.0204, 0.0, 12.3, 0.0)" gradientUnits="userSpaceOnUse" id="gradient0" spreadMethod="pad" x1="-819.2" x2="819.2">
      <stop offset="0.0" stop-color="#ecf0f9"/>
      <stop offset="0.4980392156862745" stop-color="#ffffff"/>
      <stop offset="1.0" stop-color="#ebf0fa"/>
    </linearGradient>
    <linearGradient gradientTransform="matrix(0.0032, 0.0047, -0.0071, 0.0036, 5.9, -24.65)" gradientUnits="userSpaceOnUse" id="gradient1" spreadMethod="pad" x1="-819.2" x2="819.2">
      <stop offset="0.0" stop-color="#ecf0f9"/>
      <stop offset="0.4980392156862745" stop-color="#cddef5"/>
      <stop offset="1.0" stop-color="#ebf0fa"/>
    </linearGradient>
    <linearGradient gradientTransform="matrix(-0.0186, 0.0161, -0.0121, -0.0105, -15.05, -2.4)" gradientUnits="userSpaceOnUse" id="gradient2" spreadMethod="pad" x1="-819.2" x2="819.2">
      <stop offset="0.0" stop-color="#ecf0f9"/>
      <stop offset="0.4980392156862745" stop-color="#b8caf1"/>
      <stop offset="1.0" stop-color="#ebf0fa"/>
    </linearGradient>
    <linearGradient gradientTransform="matrix(0.0, 0.015, -0.0082, 0.0, 15.6, 0.1)" gradientUnits="userSpaceOnUse" id="gradient3" spreadMethod="pad" x1="-819.2" x2="819.2">
      <stop offset="0.0" stop-color="#acc2e3"/>
      <stop offset="0.21176470588235294" stop-color="#cddef5"/>
      <stop offset="0.7568627450980392" stop-color="#cbdcf4"/>
      <stop offset="1.0" stop-color="#a8c2e8"/>
    </linearGradient>
    <linearGradient gradientTransform="matrix(0.0065, 0.021, -0.0121, 0.0028, 5.6, -0.85)" gradientUnits="userSpaceOnUse" id="gradient4" spreadMethod="pad" x1="-819.2" x2="819.2">
      <stop offset="0.0" stop-color="#ecf0f9"/>
      <stop offset="0.4980392156862745" stop-color="#ffffff"/>
      <stop offset="1.0" stop-color="#ebf0fa"/>
    </linearGradient>
    <linearGradient gradientTransform="matrix(0.0, 0.0033, -0.0082, 0.0, 15.6, 0.1)" gradientUnits="userSpaceOnUse" id="gradient5" spreadMethod="pad" x1="-819.2" x2="819.2">
      <stop offset="0.0" stop-color="#ecf0f9"/>
      <stop offset="0.4980392156862745" stop-color="#cddef5"/>
      <stop offset="1.0" stop-color="#ebf0fa"/>
    </linearGradient>
    <linearGradient gradientTransform="matrix(-0.0029, 0.0044, -0.0071, -0.0036, 7.8, 22.8)" gradientUnits="userSpaceOnUse" id="gradient6" spreadMethod="pad" x1="-819.2" x2="819.2">
      <stop offset="0.0" stop-color="#ecf0f9"/>
      <stop offset="0.4980392156862745" stop-color="#cddef5"/>
      <stop offset="1.0" stop-color="#ebf0fa"/>
    </linearGradient>
    <linearGradient gradientTransform="matrix(-0.0186, 0.0161, -0.0121, -0.0105, -15.05, -2.4)" gradientUnits="userSpaceOnUse" id="gradient7" spreadMethod="pad" x1="-819.2" x2="819.2">
      <stop offset="0.0" stop-color="#ecf0f9"/>
      <stop offset="0.4980392156862745" stop-color="#c7d9f3"/>
      <stop offset="1.0" stop-color="#ebf0fa"/>
    </linearGradient>
  </defs>
</svg>
