<?xml version="1.0" encoding="UTF-8" standalone="no"?>
<svg xmlns:xlink="http://www.w3.org/1999/xlink" height="25.5px" width="28.95px" xmlns="http://www.w3.org/2000/svg">
  <g transform="matrix(1.0, 0.0, 0.0, 1.0, 14.45, 12.75)">
    <use height="25.5" transform="matrix(1.0, 0.0, 0.0, 1.0, -14.45, -12.75)" width="28.95" xlink:href="#shape0"/>
  </g>
  <defs>
    <g id="shape0" transform="matrix(1.0, 0.0, 0.0, 1.0, 14.45, 12.75)">
      <path d="M6.15 -8.9 Q5.8 -8.75 5.7 -8.15 5.55 -7.65 5.7 -7.05 5.85 -6.5 6.25 -6.15 6.55 -5.85 6.9 -6.0 L7.35 -6.65 7.35 -7.8 6.75 -8.75 6.15 -8.9 M4.45 -12.35 L8.5 -8.0 9.1 9.05 4.8 4.7 4.45 -12.35" fill="#fcefbe" fill-rule="evenodd" stroke="none"/>
      <path d="M6.15 -8.9 L6.75 -8.75 7.35 -7.8 7.35 -6.65 6.9 -6.0 Q6.55 -5.85 6.25 -6.15 5.85 -6.5 5.7 -7.05 5.55 -7.65 5.7 -8.15 5.8 -8.75 6.15 -8.9" fill="#333333" fill-rule="evenodd" stroke="none"/>
      <path d="M-3.8 -7.95 L-3.8 -7.85 Q-2.75 -7.2 -2.05 -5.9 -0.8 -3.5 -1.55 -0.4 -2.15 2.15 -3.8 4.05 L-3.8 3.95 -4.7 4.25 -4.9 4.25 -7.0 4.05 Q-8.45 2.45 -9.2 0.35 -10.3 -2.8 -9.5 -5.3 -8.75 -7.85 -6.65 -8.3 L-5.75 -8.45 -3.95 -8.1 -3.8 -7.95" fill="#ffff00" fill-rule="evenodd" stroke="none"/>
      <path d="M-5.8 -9.8 L-3.8 -9.2 -3.8 -9.15 4.45 -12.35 4.8 4.7 -3.8 7.8 -4.7 7.5 -4.7 7.4 -4.9 4.25 -4.7 4.25 -3.8 3.95 -3.8 4.05 Q-2.15 2.15 -1.55 -0.4 -0.8 -3.5 -2.05 -5.9 -2.75 -7.2 -3.8 -7.85 L-3.8 -7.95 -3.95 -8.1 -5.75 -8.45 -5.8 -9.8" fill="#fbe89d" fill-rule="evenodd" stroke="none"/>
      <path d="M-14.2 4.2 L-14.1 -12.5 -5.8 -9.8 -5.75 -8.45 -6.65 -8.3 Q-8.75 -7.85 -9.5 -5.3 -10.3 -2.8 -9.2 0.35 -8.45 2.45 -7.0 4.05 L-4.9 4.25 -4.7 7.4 -14.2 4.2" fill="#f4c60b" fill-rule="evenodd" stroke="none"/>
      <path d="M-6.95 8.4 L-7.3 10.9 -10.25 6.5 -6.95 8.4" fill="#997b09" fill-rule="evenodd" stroke="none"/>
      <path d="M-2.0 10.0 L-3.8 10.25 -6.95 8.4 -10.25 6.5 -7.3 10.9 -14.2 4.2 -4.7 7.4 -4.7 7.5 -3.8 8.75 -2.0 10.0" fill="#d3aa0a" fill-rule="evenodd" stroke="none"/>
      <path d="M6.1 9.35 L-2.0 10.0 -3.8 8.75 -4.7 7.5 -3.8 7.8 4.8 4.7 6.1 9.35" fill="#f9de75" fill-rule="evenodd" stroke="none"/>
      <path d="M9.1 9.05 L7.0 12.5 6.1 9.35 4.8 4.7 9.1 9.05" fill="#fae185" fill-rule="evenodd" stroke="none"/>
      <path d="M4.45 -12.35 L8.5 -8.0 9.1 9.05 7.0 12.5 6.1 9.35 -2.0 10.0 -3.8 10.25 -6.95 8.4 -7.3 10.9 -14.2 4.2 -14.1 -12.5 -5.8 -9.8 -3.8 -9.2 M-3.8 -9.15 L4.45 -12.35 4.8 4.7 9.1 9.05 M6.1 9.35 L4.8 4.7 -3.8 7.8 -4.7 7.5 -3.8 8.75 -2.0 10.0 M-3.8 -7.95 L-3.95 -8.1 -5.75 -8.45 -6.65 -8.3 Q-8.75 -7.85 -9.5 -5.3 -10.3 -2.8 -9.2 0.35 -8.45 2.45 -7.0 4.05 L-4.9 4.25 -4.7 4.25 -3.8 3.95 M-3.8 4.05 Q-2.15 2.15 -1.55 -0.4 -0.8 -3.5 -2.05 -5.9 -2.75 -7.2 -3.8 -7.85 M-5.75 -8.45 L-5.8 -9.8 M-4.7 7.4 L-4.7 7.5 M-4.7 7.4 L-4.9 4.25 M-14.2 4.2 L-4.7 7.4 M-6.95 8.4 L-10.25 6.5 -7.3 10.9" fill="none" stroke="#cc9900" stroke-linecap="round" stroke-linejoin="round" stroke-width="0.5"/>
      <path d="M6.5 -8.4 L10.65 -9.7 Q12.55 -9.95 13.5 -8.6 L13.75 -8.05 14.25 -2.6 Q13.5 -1.4 12.9 -2.15 L12.35 -7.55 Q11.8 -8.4 10.5 -8.2 L7.05 -6.95 Q5.9 -7.4 6.5 -8.4" fill="#efebdc" fill-rule="evenodd" stroke="none"/>
      <path d="M6.5 -8.4 L10.65 -9.7 Q12.55 -9.95 13.5 -8.6 L13.75 -8.05 14.25 -2.6 Q13.5 -1.4 12.9 -2.15 L12.35 -7.55 Q11.8 -8.4 10.5 -8.2 L7.05 -6.95 Q5.9 -7.4 6.5 -8.4 Z" fill="none" stroke="#efe9ba" stroke-linecap="round" stroke-linejoin="round" stroke-width="0.5"/>
    </g>
  </defs>
</svg>
