<?xml version="1.0" encoding="UTF-8" standalone="no"?>
<svg xmlns:xlink="http://www.w3.org/1999/xlink" height="62.8px" width="27.65px" xmlns="http://www.w3.org/2000/svg">
  <g transform="matrix(1.0, 0.0, 0.0, 1.0, 13.8, 31.4)">
    <use height="62.8" transform="matrix(1.0, 0.0, 0.0, 1.0, -13.8, -31.4)" width="27.65" xlink:href="#shape0"/>
  </g>
  <defs>
    <g id="shape0" transform="matrix(1.0, 0.0, 0.0, 1.0, 13.8, 31.4)">
      <path d="M8.2 -26.05 L9.75 -31.3 13.75 -16.1 13.75 20.65 -0.6 12.4 -0.6 12.35 -1.05 -11.1 13.75 -16.1 10.3 -22.3 8.2 -26.05" fill="#ede7de" fill-rule="evenodd" stroke="none"/>
      <path d="M10.3 -22.3 L13.75 -16.1 -1.4 -21.8 10.3 -22.3" fill="#d6cbb1" fill-rule="evenodd" stroke="none"/>
      <path d="M8.2 -26.05 L10.3 -22.3 -1.4 -21.8 -1.4 -26.05 8.2 -26.05 M-0.25 31.3 L-13.7 25.25 -13.7 -4.1 -0.6 12.35 -0.6 12.4 -0.25 31.3" fill="#ce4220" fill-rule="evenodd" stroke="none"/>
      <path d="M9.75 -31.3 L8.2 -26.05 -1.4 -26.05 -1.4 -29.2 9.75 -31.3" fill="url(#gradient0)" fill-rule="evenodd" stroke="none"/>
      <path d="M13.75 20.65 L13.75 25.7 -0.25 31.3 -0.6 12.4 13.75 20.65" fill="#e7785c" fill-rule="evenodd" stroke="none"/>
      <path d="M-13.7 -4.1 L-13.7 -14.55 -1.05 -11.1 -0.6 12.35 -13.7 -4.1" fill="#dfd7c4" fill-rule="evenodd" stroke="none"/>
      <path d="M-13.7 -14.55 L-7.95 -19.15 -1.05 -11.1 -13.7 -14.55" fill="url(#gradient1)" fill-rule="evenodd" stroke="none"/>
      <path d="M-7.95 -19.15 L-7.95 -23.85 -1.4 -26.05 -1.4 -21.8 -7.95 -19.15" fill="#e7785c" fill-opacity="0.75686276" fill-rule="evenodd" stroke="none"/>
      <path d="M13.75 -16.1 L-1.05 -11.1 -7.95 -19.15 -1.4 -21.8 13.75 -16.1" fill="#f0ece3" fill-rule="evenodd" stroke="none"/>
      <path d="M9.75 -31.3 L8.2 -26.05 10.3 -22.3 13.75 -16.1 9.75 -31.3 -1.4 -29.2 -1.4 -26.05 8.2 -26.05 M13.75 20.65 L13.75 25.7 -0.25 31.3 -13.7 25.25 -13.7 -4.1 -13.7 -14.55 -7.95 -19.15 -7.95 -23.85 -1.4 -26.05 -1.4 -21.8 10.3 -22.3 M13.75 20.65 L13.75 -16.1 -1.05 -11.1 -0.6 12.35 -0.6 12.4 13.75 20.65 M-1.05 -11.1 L-13.7 -14.55 M-7.95 -19.15 L-1.05 -11.1 M-7.95 -19.15 L-1.4 -21.8 13.75 -16.1 M-0.25 31.3 L-0.6 12.4 M-13.7 -4.1 L-0.6 12.35" fill="none" stroke="#bfb29f" stroke-linecap="round" stroke-linejoin="round" stroke-width="0.25"/>
      <path d="M12.3 -4.7 L11.3 -2.4 12.4 0.05 11.1 0.45 10.5 -1.0 10.3 -0.5 10.3 0.7 9.1 1.1 9.1 -5.15 10.3 -5.55 10.3 -2.45 11.0 -4.3 12.3 -4.7 M7.4 -4.65 L8.6 -5.0 8.6 1.25 7.4 1.6 7.4 -4.65 M5.65 -2.65 L6.85 -3.05 6.85 1.75 5.65 2.15 5.65 -2.65 M6.85 -4.5 L6.85 -3.35 5.65 -2.95 5.65 -4.1 6.85 -4.5 M1.6 -0.8 Q1.85 -1.6 2.45 -1.8 L3.05 -1.7 3.35 -1.35 3.75 -2.05 4.25 -2.35 4.65 -2.4 4.95 -2.25 5.15 -1.95 5.2 -1.3 5.2 2.25 4.0 2.65 4.0 -0.5 3.95 -0.9 3.7 -0.95 3.5 -0.75 3.4 -0.35 3.4 2.8 2.2 3.2 2.2 0.05 2.15 -0.35 1.9 -0.4 1.65 -0.2 1.65 0.25 1.65 3.4 0.4 3.75 0.4 -1.05 1.6 -1.4 1.6 -0.8" fill="#e7785c" fill-opacity="0.75686276" fill-rule="evenodd" stroke="none"/>
    </g>
    <linearGradient gradientTransform="matrix(-0.001, -0.0037, 0.0057, -0.0015, 3.35, -29.0)" gradientUnits="userSpaceOnUse" id="gradient0" spreadMethod="pad" x1="-819.2" x2="819.2">
      <stop offset="0.0" stop-color="#6f593c"/>
      <stop offset="1.0" stop-color="#dfd7c4"/>
    </linearGradient>
    <linearGradient gradientTransform="matrix(-0.0031, 0.0031, -0.0049, -0.0049, -7.05, -13.15)" gradientUnits="userSpaceOnUse" id="gradient1" spreadMethod="pad" x1="-819.2" x2="819.2">
      <stop offset="0.0" stop-color="#a08256"/>
      <stop offset="1.0" stop-color="#dfd7c4"/>
    </linearGradient>
  </defs>
</svg>
