<?xml version="1.0" encoding="UTF-8" standalone="no"?>
<svg xmlns:xlink="http://www.w3.org/1999/xlink" height="42.4px" width="22.15px" xmlns="http://www.w3.org/2000/svg">
  <g transform="matrix(1.0, 0.0, 0.0, 1.0, 11.1, 21.2)">
    <use height="42.4" transform="matrix(1.0, 0.0, 0.0, 1.0, -11.1, -21.2)" width="22.15" xlink:href="#shape0"/>
  </g>
  <defs>
    <g id="shape0" transform="matrix(1.0, 0.0, 0.0, 1.0, 11.1, 21.2)">
      <path d="M5.5 -7.9 L5.1 -7.2 4.1 -6.95 Q3.55 -6.95 3.15 -7.2 2.75 -7.5 2.75 -7.9 2.75 -8.35 3.15 -8.6 3.55 -8.9 4.1 -8.9 L5.1 -8.6 5.5 -7.9" fill="#333333" fill-rule="evenodd" stroke="none"/>
      <path d="M5.5 -7.9 L5.1 -8.6 4.1 -8.9 Q3.55 -8.9 3.15 -8.6 2.75 -8.35 2.75 -7.9 2.75 -7.5 3.15 -7.2 3.55 -6.95 4.1 -6.95 L5.1 -7.2 5.5 -7.9 M-10.85 -5.8 L3.85 -10.2 9.1 -7.1 -5.45 -2.25 -10.85 -5.8" fill="#bfd5ea" fill-rule="evenodd" stroke="none"/>
      <path d="M9.85 5.55 L10.45 15.9 -3.55 20.95 -4.55 9.3 -4.45 9.3 9.85 5.55" fill="#9274be" fill-rule="evenodd" stroke="none"/>
      <path d="M9.1 -7.1 L9.85 5.55 -4.45 9.3 -4.55 9.3 -5.45 -2.25 9.1 -7.1" fill="#99bbdd" fill-rule="evenodd" stroke="none"/>
      <path d="M-9.95 -3.4 L-10.85 -5.8 -5.45 -2.25 -8.2 1.15 -9.95 -3.4" fill="#86afd7" fill-rule="evenodd" stroke="none"/>
      <path d="M-3.55 20.95 L-8.75 15.6 -9.35 6.1 -4.55 9.3 -3.55 20.95" fill="#7a56b1" fill-rule="evenodd" stroke="none"/>
      <path d="M-9.35 6.1 L-9.95 -3.4 -8.2 1.15 -5.45 -2.25 -4.55 9.3 -9.35 6.1" fill="#6699cc" fill-rule="evenodd" stroke="none"/>
      <path d="M-10.85 -5.8 L3.85 -10.2 9.1 -7.1 9.85 5.55 10.45 15.9 -3.55 20.95 -8.75 15.6 -9.35 6.1 -9.95 -3.4 -10.85 -5.8 -5.45 -2.25 9.1 -7.1 M-4.55 9.3 L-9.35 6.1 M-4.55 9.3 L-4.45 9.3 9.85 5.55 M-4.55 9.3 L-3.55 20.95 M-5.45 -2.25 L-8.2 1.15 -9.95 -3.4 M-5.45 -2.25 L-4.55 9.3" fill="none" stroke="#006699" stroke-linecap="round" stroke-linejoin="round" stroke-width="0.5"/>
      <path d="M4.85 -0.4 Q5.45 0.25 5.45 1.05 5.45 1.85 5.0 2.4 L5.2 2.6 5.6 3.05 5.6 3.0 Q6.2 2.4 7.05 2.4 7.9 2.4 8.5 3.0 9.1 3.6 9.1 4.45 9.1 5.3 8.5 5.9 7.9 6.55 7.05 6.55 L6.95 6.55 6.95 6.8 6.85 7.4 7.2 7.65 Q7.7 8.15 7.7 8.9 7.7 9.7 7.2 10.2 6.65 10.7 5.9 10.7 L5.65 10.7 5.65 10.8 Q5.65 11.6 5.0 12.15 L4.15 12.75 Q4.55 13.2 4.55 13.8 4.55 14.45 4.1 14.9 3.65 15.35 3.0 15.35 2.35 15.35 1.85 14.9 1.45 14.45 1.45 13.8 1.45 13.2 1.85 12.75 L1.45 12.8 Q0.8 12.8 0.3 12.3 -0.15 11.85 -0.15 11.2 L-0.15 11.15 -0.4 11.15 Q-1.25 11.15 -1.85 10.5 -2.45 9.9 -2.45 9.05 -2.45 8.2 -1.85 7.6 L-1.35 7.3 -1.3 7.0 -1.85 7.05 Q-2.75 7.05 -3.35 6.45 -3.95 5.8 -3.95 4.95 -3.95 4.05 -3.35 3.4 -2.85 2.95 -2.25 2.85 L-2.45 2.0 Q-2.45 1.15 -1.85 0.55 -1.25 -0.05 -0.4 -0.05 0.45 -0.05 1.05 0.55 L1.3 0.8 1.4 0.8 1.45 0.8 Q1.5 0.15 1.95 -0.4 2.6 -0.95 3.4 -0.95 4.25 -0.95 4.85 -0.4" fill="#993366" fill-rule="evenodd" stroke="none"/>
      <path d="M1.2 -1.85 L1.65 -1.65 1.95 -1.6 Q3.1 -2.05 3.1 -0.9 L3.3 0.1 4.2 0.9 3.35 1.8 4.85 3.05 1.25 3.45 1.35 5.0 1.1 5.5 0.3 5.6 0.05 4.6 -2.05 3.85 -1.5 2.8 -1.6 1.7 -2.45 1.35 -2.4 0.65 -1.1 0.15 -1.0 0.05 -1.05 -0.15 -1.1 -0.35 -1.75 -1.45 1.2 -1.85" fill="#006600" fill-rule="evenodd" stroke="none"/>
      <path d="M5.7 -18.75 Q4.75 -18.5 4.6 -17.35 L4.6 -8.05 3.35 -8.0 3.35 -17.95 Q3.7 -19.6 5.1 -20.0 L10.4 -20.95 Q11.2 -20.3 10.4 -19.7 L5.7 -18.75" fill="#efebdc" fill-rule="evenodd" stroke="none"/>
      <path d="M5.7 -18.75 Q4.75 -18.5 4.6 -17.35 L4.6 -8.05 3.35 -8.0 3.35 -17.95 Q3.7 -19.6 5.1 -20.0 L10.4 -20.95 Q11.2 -20.3 10.4 -19.7 L5.7 -18.75 Z" fill="none" stroke="#efe9ba" stroke-linecap="round" stroke-linejoin="round" stroke-width="0.5"/>
    </g>
  </defs>
</svg>
