<?xml version="1.0" encoding="UTF-8" standalone="no"?>
<svg xmlns:xlink="http://www.w3.org/1999/xlink" height="42.95px" width="22.45px" xmlns="http://www.w3.org/2000/svg">
  <g transform="matrix(1.0, 0.0, 0.0, 1.0, 11.2, 21.45)">
    <use height="42.95" transform="matrix(1.0, 0.0, 0.0, 1.0, -11.2, -21.45)" width="22.45" xlink:href="#shape0"/>
  </g>
  <defs>
    <g id="shape0" transform="matrix(1.0, 0.0, 0.0, 1.0, 11.2, 21.45)">
      <path d="M5.3 -8.75 L5.7 -8.0 Q5.6 -7.6 5.3 -7.3 L4.25 -7.05 3.3 -7.3 Q2.9 -7.6 2.9 -8.0 2.9 -8.45 3.3 -8.75 L4.25 -9.0 5.3 -8.75" fill="#333333" fill-rule="evenodd" stroke="none"/>
      <path d="M5.3 -8.75 L4.25 -9.0 3.3 -8.75 Q2.9 -8.45 2.9 -8.0 2.9 -7.6 3.3 -7.3 L4.25 -7.05 5.3 -7.3 Q5.6 -7.6 5.7 -8.0 L5.3 -8.75 M-10.95 -5.9 L4.0 -10.35 9.35 -7.15 -5.5 -2.3 -10.95 -5.9" fill="#fcefbe" fill-rule="evenodd" stroke="none"/>
      <path d="M10.1 5.65 L10.75 16.1 -3.5 21.25 -4.55 9.45 -4.45 9.45 10.1 5.65" fill="#f4c60b" fill-rule="evenodd" stroke="none"/>
      <path d="M9.35 -7.15 L10.1 5.65 -4.45 9.45 -4.55 9.45 -5.5 -2.3 9.35 -7.15" fill="#fbe89d" fill-rule="evenodd" stroke="none"/>
      <path d="M-10.05 -3.45 L-10.95 -5.9 -5.5 -2.3 -8.3 1.15 -10.05 -3.45" fill="#fae185" fill-rule="evenodd" stroke="none"/>
      <path d="M-3.5 21.25 L-8.8 15.8 -9.45 6.2 -4.55 9.45 -3.5 21.25" fill="#d3aa0a" fill-rule="evenodd" stroke="none"/>
      <path d="M-9.45 6.2 L-10.05 -3.45 -8.3 1.15 -5.5 -2.3 -4.55 9.45 -9.45 6.2" fill="#f9de75" fill-rule="evenodd" stroke="none"/>
      <path d="M-10.95 -5.9 L4.0 -10.35 9.35 -7.15 10.1 5.65 10.75 16.1 -3.5 21.25 -8.8 15.8 -9.45 6.2 -10.05 -3.45 -10.95 -5.9 -5.5 -2.3 9.35 -7.15 M-4.55 9.45 L-9.45 6.2 M-3.5 21.25 L-4.55 9.45 -5.5 -2.3 -8.3 1.15 -10.05 -3.45 M-4.55 9.45 L-4.45 9.45 10.1 5.65" fill="none" stroke="#cc9900" stroke-linecap="round" stroke-linejoin="round" stroke-width="0.5"/>
      <path d="M5.85 -18.95 Q4.9 -18.7 4.7 -17.5 L4.7 -8.1 3.45 -8.05 3.45 -18.15 Q3.8 -19.8 5.2 -20.2 L10.6 -21.2 Q11.45 -20.5 10.6 -19.9 L5.85 -18.95" fill="#efebdc" fill-rule="evenodd" stroke="none"/>
      <path d="M5.85 -18.95 Q4.9 -18.7 4.7 -17.5 L4.7 -8.1 3.45 -8.05 3.45 -18.15 Q3.8 -19.8 5.2 -20.2 L10.6 -21.2 Q11.45 -20.5 10.6 -19.9 L5.85 -18.95 Z" fill="none" stroke="#efe9ba" stroke-linecap="round" stroke-linejoin="round" stroke-width="0.5"/>
      <path d="M6.4 2.3 Q7.9 2.65 8.9 3.75 9.1 5.45 8.55 7.35 7.75 10.35 5.4 12.1 3.1 13.95 0.65 13.45 -1.05 13.05 -2.05 11.65 -2.15 10.2 -1.85 8.6 -1.0 5.2 1.45 3.4 3.8 1.5 6.4 2.3" fill="#ffff00" fill-rule="evenodd" stroke="none"/>
      <path d="M6.4 2.3 Q7.9 2.65 8.9 3.75 9.1 5.45 8.55 7.35 7.75 10.35 5.4 12.1 3.1 13.95 0.65 13.45 -1.05 13.05 -2.05 11.65 -2.15 10.2 -1.85 8.6 -1.0 5.2 1.45 3.4 3.8 1.5 6.4 2.3 Z" fill="none" stroke="#cc9900" stroke-linecap="round" stroke-linejoin="round" stroke-width="0.5"/>
    </g>
  </defs>
</svg>
