<?xml version="1.0" encoding="UTF-8" standalone="no"?>
<svg xmlns:xlink="http://www.w3.org/1999/xlink" height="62.8px" width="27.65px" xmlns="http://www.w3.org/2000/svg">
  <g transform="matrix(1.0, 0.0, 0.0, 1.0, 13.8, 31.4)">
    <use height="62.8" transform="matrix(1.0, 0.0, 0.0, 1.0, -13.8, -31.4)" width="27.65" xlink:href="#shape0"/>
  </g>
  <defs>
    <g id="shape0" transform="matrix(1.0, 0.0, 0.0, 1.0, 13.8, 31.4)">
      <path d="M13.75 -16.1 L10.3 -22.3 8.2 -26.05 9.75 -31.3 13.75 -16.1 13.75 20.65 -0.6 12.4 -0.6 12.35 -1.05 -11.1 -7.95 -19.15 -1.4 -21.8 13.75 -16.1 -1.05 -11.1 13.75 -16.1" fill="#d8ebd9" fill-rule="evenodd" stroke="none"/>
      <path d="M9.75 -31.3 L8.2 -26.05 -1.4 -26.05 -1.4 -29.2 9.75 -31.3" fill="url(#gradient0)" fill-rule="evenodd" stroke="none"/>
      <path d="M8.2 -26.05 L10.3 -22.3 -1.4 -21.8 -1.4 -26.05 8.2 -26.05" fill="#3f9e82" fill-rule="evenodd" stroke="none"/>
      <path d="M10.3 -22.3 L13.75 -16.1 -1.4 -21.8 10.3 -22.3" fill="#ade3ac" fill-rule="evenodd" stroke="none"/>
      <path d="M-7.95 -19.15 L-7.95 -23.85 -1.4 -26.05 -1.4 -21.8 -7.95 -19.15" fill="#79cab1" fill-rule="evenodd" stroke="none"/>
      <path d="M-13.7 -14.55 L-7.95 -19.15 -1.05 -11.1 -13.7 -14.55" fill="url(#gradient1)" fill-rule="evenodd" stroke="none"/>
      <path d="M-13.7 -4.1 L-13.7 -14.55 -1.05 -11.1 -0.6 12.35 -13.7 -4.1" fill="#b7d9ba" fill-rule="evenodd" stroke="none"/>
      <path d="M-0.25 31.3 L-13.7 25.25 -13.7 -4.1 -0.6 12.35 -0.6 12.4 -0.25 31.3" fill="#6cc6aa" fill-rule="evenodd" stroke="none"/>
      <path d="M13.75 20.65 L13.75 25.7 -0.25 31.3 -0.6 12.4 13.75 20.65" fill="#a4dbca" fill-rule="evenodd" stroke="none"/>
      <path d="M10.3 -22.3 L13.75 -16.1 9.75 -31.3 8.2 -26.05 10.3 -22.3 -1.4 -21.8 13.75 -16.1 13.75 20.65 13.75 25.7 -0.25 31.3 -13.7 25.25 -13.7 -4.1 -13.7 -14.55 -7.95 -19.15 -7.95 -23.85 -1.4 -26.05 -1.4 -29.2 9.75 -31.3 M-1.4 -21.8 L-7.95 -19.15 -1.05 -11.1 13.75 -16.1 M-1.05 -11.1 L-13.7 -14.55 M-1.4 -26.05 L-1.4 -21.8 M-0.6 12.4 L-0.25 31.3 M-0.6 12.4 L-0.6 12.35 -13.7 -4.1 M-0.6 12.35 L-1.05 -11.1 M13.75 20.65 L-0.6 12.4 M-1.4 -26.05 L8.2 -26.05" fill="none" stroke="#99ba9e" stroke-linecap="round" stroke-linejoin="round" stroke-width="0.25"/>
      <path d="M10.55 -1.0 L10.35 -0.5 10.35 0.75 9.1 1.1 9.1 -5.15 10.35 -5.55 10.35 -2.4 11.0 -4.25 12.3 -4.65 11.3 -2.35 12.4 0.1 11.1 0.5 10.55 -1.0 M7.4 -4.65 L8.6 -5.0 8.6 1.25 7.4 1.65 7.4 -4.65 M5.65 -2.6 L6.85 -3.0 6.85 1.8 5.65 2.15 5.65 -2.6 M5.65 -4.1 L6.85 -4.5 6.85 -3.3 5.65 -2.95 5.65 -4.1 M0.45 -1.0 L1.6 -1.35 1.6 -0.75 Q1.8 -1.55 2.45 -1.75 L3.05 -1.7 3.35 -1.3 3.75 -2.0 4.25 -2.3 4.65 -2.35 4.95 -2.25 5.15 -1.9 5.25 -1.3 5.25 2.3 4.0 2.65 4.0 -0.45 4.0 -0.9 3.75 -0.95 3.5 -0.75 Q3.4 -0.65 3.45 -0.3 L3.45 2.85 2.2 3.2 2.2 0.1 2.15 -0.35 1.95 -0.4 1.7 -0.2 1.65 0.25 1.65 3.4 0.45 3.75 0.45 -1.0" fill="#4ab594" fill-rule="evenodd" stroke="none"/>
    </g>
    <linearGradient gradientTransform="matrix(-0.001, -0.0037, 0.0057, -0.0015, 3.35, -29.0)" gradientUnits="userSpaceOnUse" id="gradient0" spreadMethod="pad" x1="-819.2" x2="819.2">
      <stop offset="0.0" stop-color="#6f593c"/>
      <stop offset="1.0" stop-color="#dfd7c4"/>
    </linearGradient>
    <linearGradient gradientTransform="matrix(-0.0031, 0.0031, -0.0049, -0.0049, -7.05, -13.15)" gradientUnits="userSpaceOnUse" id="gradient1" spreadMethod="pad" x1="-819.2" x2="819.2">
      <stop offset="0.0" stop-color="#82a889"/>
      <stop offset="1.0" stop-color="#d8ebd9"/>
    </linearGradient>
  </defs>
</svg>
