<?xml version="1.0" encoding="UTF-8" standalone="no"?>
<svg xmlns:xlink="http://www.w3.org/1999/xlink" height="41.15px" width="21.45px" xmlns="http://www.w3.org/2000/svg">
  <g transform="matrix(1.0, 0.0, 0.0, 1.0, 10.75, 20.6)">
    <use height="41.15" transform="matrix(1.0, 0.0, 0.0, 1.0, -10.75, -20.6)" width="21.45" xlink:href="#shape0"/>
  </g>
  <defs>
    <g id="shape0" transform="matrix(1.0, 0.0, 0.0, 1.0, 10.75, 20.6)">
      <path d="M4.95 -7.0 L3.95 -6.75 3.05 -7.0 Q2.65 -7.25 2.65 -7.65 2.65 -8.1 3.05 -8.35 L3.95 -8.6 4.95 -8.35 5.35 -7.65 4.95 -7.0" fill="#333333" fill-rule="evenodd" stroke="none"/>
      <path d="M4.95 -7.0 L5.35 -7.65 4.95 -8.35 3.95 -8.6 3.05 -8.35 Q2.65 -8.1 2.65 -7.65 2.65 -7.25 3.05 -7.0 L3.95 -6.75 4.95 -7.0 M-10.5 -5.65 L3.7 -9.9 8.85 -6.85 -5.3 -2.2 -10.5 -5.65" fill="#ffc4c4" fill-rule="evenodd" stroke="none"/>
      <path d="M9.55 5.4 L10.15 15.4 -3.45 20.3 -4.4 9.05 -4.35 9.05 9.55 5.4" fill="#c40000" fill-rule="evenodd" stroke="none"/>
      <path d="M8.85 -6.85 L9.55 5.4 -4.35 9.05 -4.4 9.05 -5.3 -2.2 8.85 -6.85" fill="#ffa2a2" fill-rule="evenodd" stroke="none"/>
      <path d="M-9.65 -3.3 L-10.5 -5.65 -5.3 -2.2 -8.0 1.1 -9.65 -3.3" fill="#ff9191" fill-rule="evenodd" stroke="none"/>
      <path d="M-3.45 20.3 L-8.5 15.15 -9.1 5.9 -4.4 9.05 -3.45 20.3" fill="#990000" fill-rule="evenodd" stroke="none"/>
      <path d="M-9.1 5.9 L-9.65 -3.3 -8.0 1.1 -5.3 -2.2 -4.4 9.05 -9.1 5.9" fill="#ff7777" fill-rule="evenodd" stroke="none"/>
      <path d="M-10.5 -5.65 L3.7 -9.9 8.85 -6.85 9.55 5.4 10.15 15.4 -3.45 20.3 -8.5 15.15 -9.1 5.9 -9.65 -3.3 -10.5 -5.65 -5.3 -2.2 8.85 -6.85 M-9.1 5.9 L-4.4 9.05 -5.3 -2.2 -8.0 1.1 -9.65 -3.3 M-3.45 20.3 L-4.4 9.05 -4.35 9.05 9.55 5.4" fill="none" stroke="#990000" stroke-linecap="round" stroke-linejoin="round" stroke-width="0.5"/>
      <path d="M5.5 -18.2 Q4.6 -18.0 4.4 -16.85 L4.4 -7.85 3.25 -7.8 3.25 -17.45 Q3.55 -19.05 4.9 -19.4 L10.1 -20.35 Q10.85 -19.7 10.1 -19.1 L5.5 -18.2" fill="#efebdc" fill-rule="evenodd" stroke="none"/>
      <path d="M5.5 -18.2 Q4.6 -18.0 4.4 -16.85 L4.4 -7.85 3.25 -7.8 3.25 -17.45 Q3.55 -19.05 4.9 -19.4 L10.1 -20.35 Q10.85 -19.7 10.1 -19.1 L5.5 -18.2 Z" fill="none" stroke="#efe9ba" stroke-linecap="round" stroke-linejoin="round" stroke-width="0.5"/>
      <path d="M2.25 4.25 Q4.75 3.2 6.3 4.55 7.95 6.05 7.95 8.05 7.95 10.1 6.3 11.5 4.7 13.0 2.45 13.0 0.15 13.0 -1.45 11.5 -3.1 10.1 -3.1 8.05 -3.1 6.05 -2.25 4.9 -1.4 3.65 0.3 3.55 1.9 3.4 2.25 4.25 L1.85 4.65 2.25 4.25" fill="#990000" fill-rule="evenodd" stroke="none"/>
      <path d="M2.25 4.25 Q4.75 3.2 6.3 4.55 7.95 6.05 7.95 8.05 7.95 10.1 6.3 11.5 4.7 13.0 2.45 13.0 0.15 13.0 -1.45 11.5 -3.1 10.1 -3.1 8.05 -3.1 6.05 -2.25 4.9 -1.4 3.65 0.3 3.55 1.9 3.4 2.25 4.25 L1.85 4.65" fill="none" stroke="#990000" stroke-linecap="round" stroke-linejoin="round" stroke-width="0.5"/>
      <path d="M2.25 4.25 Q2.8 0.7 6.0 -2.35" fill="none" stroke="#663300" stroke-linecap="round" stroke-linejoin="round" stroke-width="0.5"/>
    </g>
  </defs>
</svg>
