<?xml version="1.0" encoding="UTF-8" standalone="no"?>
<svg xmlns:xlink="http://www.w3.org/1999/xlink" height="29.35px" width="29.7px" xmlns="http://www.w3.org/2000/svg">
  <g transform="matrix(1.0, 0.0, 0.0, 1.0, 14.85, 14.65)">
    <use height="29.35" transform="matrix(1.0, 0.0, 0.0, 1.0, -14.85, -14.65)" width="29.7" xlink:href="#shape0"/>
  </g>
  <defs>
    <g id="shape0" transform="matrix(1.0, 0.0, 0.0, 1.0, 14.85, 14.65)">
      <path d="M-9.0 -7.65 L-11.15 -9.5 -2.45 -12.9 -2.45 -10.3 -9.0 -7.65" fill="#ff6600" fill-rule="evenodd" stroke="none"/>
      <path d="M7.85 -13.4 L9.25 -10.8 -2.45 -10.3 -2.45 -12.9 7.85 -13.4" fill="#ca5202" fill-rule="evenodd" stroke="none"/>
      <path d="M7.85 -13.4 L11.0 -14.55 12.7 -4.6 9.25 -10.8 7.85 -13.4 M-6.55 -3.25 L-9.0 -7.65 -2.45 -10.3 12.7 -4.6 -2.2 0.35 -2.2 0.25 -4.25 -2.1 4.1 -5.9 -6.55 -3.25" fill="#fed69a" fill-rule="evenodd" stroke="none"/>
      <path d="M-14.75 -3.05 L-10.6 -4.35 -9.0 -7.65 -6.55 -3.25 -4.25 -2.1 -2.2 0.25 -2.65 0.25 -14.75 -3.05" fill="url(#gradient0)" fill-rule="evenodd" stroke="none"/>
      <path d="M-4.25 -2.1 L-6.55 -3.25 4.1 -5.9 -4.25 -2.1" fill="#fdcb82" fill-rule="evenodd" stroke="none"/>
      <path d="M11.0 -14.55 L7.85 -13.4 -2.45 -12.9 1.65 -14.55 11.0 -14.55" fill="url(#gradient1)" fill-rule="evenodd" stroke="none"/>
      <path d="M9.25 -10.8 L12.7 -4.6 -2.45 -10.3 9.25 -10.8 M-12.2 1.25 L-14.75 -3.05 -2.65 0.25 -2.2 0.25 -2.2 0.35 -3.1 5.45 -12.2 1.25" fill="#fdb03e" fill-rule="evenodd" stroke="none"/>
      <path d="M14.75 0.65 L12.6 3.15 2.05 5.85 11.05 4.85 10.3 5.7 3.65 8.0 -1.65 7.2 -3.1 5.45 11.9 1.75 14.75 0.65 M10.85 6.2 L11.9 7.2 7.9 8.55 6.55 8.4 10.85 6.2" fill="#fb9e15" fill-rule="evenodd" stroke="none"/>
      <path d="M12.7 -4.6 L14.75 0.65 11.9 1.75 -3.1 5.45 -2.2 0.35 12.7 -4.6 M12.6 3.15 L11.05 4.85 2.05 5.85 12.6 3.15 M10.3 5.7 L10.85 6.2 6.55 8.4 3.65 8.0 10.3 5.7 M11.9 7.2 L14.1 9.35 7.9 8.55 11.9 7.2" fill="#febe5f" fill-rule="evenodd" stroke="none"/>
      <path d="M14.1 9.35 L12.05 11.1 -0.2 14.6 -1.4 12.7 14.1 9.35 M-1.65 7.2 L3.65 8.0 -0.6 9.4 -1.65 7.2 M7.9 8.55 L2.6 10.35 6.55 8.4 7.9 8.55" fill="#234301" fill-rule="evenodd" stroke="none"/>
      <path d="M-14.75 8.75 L-12.8 7.35 -3.8 10.75 -11.65 6.5 -11.3 6.25 -0.6 9.4 -1.4 12.7 -14.75 8.75 M-1.4 12.7 L-0.6 9.4 3.65 8.0 6.55 8.4 2.6 10.35 7.9 8.55 14.1 9.35 -1.4 12.7" fill="#458701" fill-rule="evenodd" stroke="none"/>
      <path d="M-0.2 14.6 L-13.5 11.5 -14.75 8.75 -1.4 12.7 -0.2 14.6 M-12.8 7.35 L-11.65 6.5 -3.8 10.75 -12.8 7.35 M-11.3 6.25 L-14.75 3.4 Q-8.95 4.8 -1.65 7.2 L-0.6 9.4 -11.3 6.25" fill="#336600" fill-rule="evenodd" stroke="none"/>
      <path d="M-14.75 3.4 L-12.2 1.25 -3.1 5.45 -1.65 7.2 Q-8.95 4.8 -14.75 3.4" fill="#fdc879" fill-rule="evenodd" stroke="none"/>
      <path d="M11.0 -14.55 L7.85 -13.4 9.25 -10.8 12.7 -4.6 11.0 -14.55 1.65 -14.55 -2.45 -12.9 7.85 -13.4 M-14.75 -3.05 L-10.6 -4.35 -9.0 -7.65 -11.15 -9.5 -2.45 -12.9 -2.45 -10.3 9.25 -10.8 M-6.55 -3.25 L-9.0 -7.65 -2.45 -10.3 12.7 -4.6 14.75 0.65 12.6 3.15 11.05 4.85 10.3 5.7 10.85 6.2 11.9 7.2 14.1 9.35 7.9 8.55 M-14.75 3.4 L-12.2 1.25 -14.75 -3.05 -2.65 0.25 -2.2 0.25 -4.25 -2.1 -6.55 -3.25 M-3.1 5.45 L-1.65 7.2 3.65 8.0 M-1.65 7.2 Q-8.95 4.8 -14.75 3.4 M-2.2 0.25 L-2.2 0.35 12.7 -4.6 M-3.1 5.45 L-2.2 0.35 M6.55 8.4 L3.65 8.0 M6.55 8.4 L7.9 8.55" fill="none" stroke="#ed9615" stroke-linecap="round" stroke-linejoin="round" stroke-width="0.25"/>
      <path d="M14.1 9.35 L12.05 11.1 -0.2 14.6 -13.5 11.5 -14.75 8.75 -12.8 7.35 -11.65 6.5 -11.3 6.25 -14.75 3.4 M-0.6 9.4 L-1.65 7.2 M-0.2 14.6 L-1.4 12.7 M-0.6 9.4 L-1.4 12.7" fill="none" stroke="#006633" stroke-linecap="round" stroke-linejoin="round" stroke-width="0.25"/>
      <path d="M0.7 4.9 L1.05 4.35 1.5 3.8 1.45 3.8 Q1.7 2.6 2.8 1.7 4.1 0.6 5.9 0.6 7.65 0.55 8.9 1.7 L9.45 2.25 0.7 4.9 M9.45 4.7 L7.45 6.4 7.5 7.0 Q7.3 8.1 5.55 8.1 L2.85 7.6 9.45 4.7" fill="#ff6600" fill-rule="evenodd" stroke="none"/>
      <path d="M9.45 2.25 Q9.95 2.95 10.05 3.8 L9.7 4.35 9.45 4.7 2.85 7.6 1.35 7.0 0.2 6.4 Q0.2 5.7 0.7 4.9 L9.45 2.25" fill="#ca5202" fill-rule="evenodd" stroke="none"/>
      <path d="M8.75 -1.75 Q9.55 -0.95 9.45 0.1 9.4 1.15 8.5 1.85 L8.3 2.05 8.1 1.85 Q7.35 1.05 7.4 0.0 7.5 -1.05 8.35 -1.75 L8.6 -1.9 8.75 -1.75" fill="#458701" fill-rule="evenodd" stroke="none"/>
      <path d="M8.15 2.1 L8.35 1.95 Q9.25 1.15 10.45 1.15 11.65 1.1 12.5 1.85 L12.7 2.0 12.5 2.2 Q11.7 2.9 10.5 2.95 9.3 2.95 8.35 2.3 L8.15 2.1" fill="#458701" fill-rule="evenodd" stroke="none"/>
    </g>
    <linearGradient gradientTransform="matrix(-0.0031, 0.0031, -0.0049, -0.0049, -8.1, -1.65)" gradientUnits="userSpaceOnUse" id="gradient0" spreadMethod="pad" x1="-819.2" x2="819.2">
      <stop offset="0.0" stop-color="#9e6003"/>
      <stop offset="1.0" stop-color="#fdb03e"/>
    </linearGradient>
    <linearGradient gradientTransform="matrix(-0.001, -0.0037, 0.0057, -0.0015, 2.3, -17.5)" gradientUnits="userSpaceOnUse" id="gradient1" spreadMethod="pad" x1="-819.2" x2="819.2">
      <stop offset="0.0" stop-color="#6f593c"/>
      <stop offset="1.0" stop-color="#dfd7c4"/>
    </linearGradient>
  </defs>
</svg>
