<?xml version="1.0" encoding="UTF-8" standalone="no"?>
<svg xmlns:xlink="http://www.w3.org/1999/xlink" height="29.35px" width="29.7px" xmlns="http://www.w3.org/2000/svg">
  <g transform="matrix(1.0, 0.0, 0.0, 1.0, 14.85, 14.65)">
    <use height="29.35" transform="matrix(1.0, 0.0, 0.0, 1.0, -14.85, -14.65)" width="29.7" xlink:href="#shape0"/>
  </g>
  <defs>
    <g id="shape0" transform="matrix(1.0, 0.0, 0.0, 1.0, 14.85, 14.65)">
      <path d="M-0.2 14.6 L-13.5 11.5 -14.75 8.75 -1.4 12.7 -0.2 14.6 M-12.8 7.35 L-11.65 6.5 -3.8 10.75 -12.8 7.35 M-11.3 6.25 L-14.75 3.4 Q-8.95 4.8 -1.65 7.2 L-0.6 9.4 -11.3 6.25 M-2.45 -12.9 L7.85 -13.4 9.25 -10.8 -2.45 -10.3 -2.45 -12.9" fill="#ce4220" fill-rule="evenodd" stroke="none"/>
      <path d="M11.0 -14.55 L12.7 -4.6 14.75 0.65 11.9 1.75 -3.1 5.45 -1.65 7.2 Q-8.95 4.8 -14.75 3.4 L-12.2 1.25 -3.1 5.45 -2.2 0.35 12.7 -4.6 9.25 -10.8 7.85 -13.4 11.0 -14.55 M12.6 3.15 L11.05 4.85 2.05 5.85 12.6 3.15 M10.3 5.7 L10.85 6.2 6.55 8.4 3.65 8.0 10.3 5.7 M11.9 7.2 L14.1 9.35 7.9 8.55 11.9 7.2" fill="#ede7de" fill-rule="evenodd" stroke="none"/>
      <path d="M-2.45 -12.9 L1.65 -14.55 11.0 -14.55 7.85 -13.4 -2.45 -12.9" fill="url(#gradient0)" fill-rule="evenodd" stroke="none"/>
      <path d="M9.25 -10.8 L12.7 -4.6 -2.45 -10.3 9.25 -10.8 M-6.55 -3.25 L4.1 -5.9 -4.25 -2.1 -6.55 -3.25" fill="#d6cbb1" fill-rule="evenodd" stroke="none"/>
      <path d="M14.75 0.65 L12.6 3.15 2.05 5.85 11.05 4.85 10.3 5.7 3.65 8.0 -1.65 7.2 -3.1 5.45 -12.2 1.25 -14.75 -3.05 -2.65 0.25 -2.2 0.25 -2.2 0.35 -3.1 5.45 11.9 1.75 14.75 0.65 M10.85 6.2 L11.9 7.2 7.9 8.55 6.55 8.4 10.85 6.2" fill="#dfd7c4" fill-rule="evenodd" stroke="none"/>
      <path d="M14.1 9.35 L12.05 11.1 -0.2 14.6 -1.4 12.7 14.1 9.35 M-1.65 7.2 L3.65 8.0 -0.6 9.4 -1.65 7.2" fill="#e7785c" fill-rule="evenodd" stroke="none"/>
      <path d="M6.55 8.4 L7.9 8.55 14.1 9.35 -1.4 12.7 -0.6 9.4 3.65 8.0 6.55 8.4" fill="#ec9682" fill-rule="evenodd" stroke="none"/>
      <path d="M-9.0 -7.65 L-11.15 -9.5 -2.45 -12.9 -2.45 -10.3 -9.0 -7.65" fill="#e7785c" fill-opacity="0.75686276" fill-rule="evenodd" stroke="none"/>
      <path d="M-14.75 -3.05 L-10.6 -4.35 -9.0 -7.65 -6.55 -3.25 -4.25 -2.1 -2.2 0.25 -2.65 0.25 -14.75 -3.05" fill="url(#gradient1)" fill-rule="evenodd" stroke="none"/>
      <path d="M-2.45 -10.3 L12.7 -4.6 -2.2 0.35 -2.2 0.25 -4.25 -2.1 4.1 -5.9 -6.55 -3.25 -9.0 -7.65 -2.45 -10.3" fill="#f0ece3" fill-rule="evenodd" stroke="none"/>
      <path d="M-14.75 8.75 L-12.8 7.35 -3.8 10.75 -11.65 6.5 -11.3 6.25 -0.6 9.4 -1.4 12.7 -14.75 8.75" fill="#e16040" fill-rule="evenodd" stroke="none"/>
      <path d="M-2.45 -12.9 L1.65 -14.55 11.0 -14.55 12.7 -4.6 14.75 0.65 12.6 3.15 11.05 4.85 10.3 5.7 10.85 6.2 11.9 7.2 14.1 9.35 12.05 11.1 -0.2 14.6 -13.5 11.5 -14.75 8.75 -12.8 7.35 -11.65 6.5 -11.3 6.25 -14.75 3.4 -12.2 1.25 -14.75 -3.05 -10.6 -4.35 -9.0 -7.65 -11.15 -9.5 -2.45 -12.9 7.85 -13.4 11.0 -14.55 M9.25 -10.8 L12.7 -4.6 -2.45 -10.3 -9.0 -7.65 -6.55 -3.25 -4.25 -2.1 -2.2 0.25 -2.2 0.35 12.7 -4.6 M9.25 -10.8 L7.85 -13.4 M6.55 8.4 L7.9 8.55 14.1 9.35 M3.65 8.0 L6.55 8.4 M3.65 8.0 L-1.65 7.2 -0.6 9.4 M-1.4 12.7 L-0.2 14.6 M-2.45 -12.9 L-2.45 -10.3 9.25 -10.8 M-1.65 7.2 L-3.1 5.45 M-2.2 0.35 L-3.1 5.45 M-2.2 0.25 L-2.65 0.25 -14.75 -3.05 M-14.75 3.4 Q-8.95 4.8 -1.65 7.2 M-1.4 12.7 L-0.6 9.4" fill="none" stroke="#c7bbaa" stroke-linecap="round" stroke-linejoin="round" stroke-width="0.25"/>
      <path d="M11.45 0.0 L11.45 0.25 10.05 1.0 10.05 0.3 11.45 0.0 M10.95 1.35 L11.8 0.6 12.85 0.35 11.7 1.3 12.0 1.95 11.05 2.25 10.85 1.9 10.6 2.1 10.4 2.5 9.35 2.8 10.1 1.0 11.45 0.35 10.95 1.35 M9.75 1.15 L9.1 2.8 7.85 3.2 8.3 1.9 9.45 1.3 8.05 1.95 8.05 0.7 9.45 0.4 9.45 1.3 9.75 1.15 M6.25 2.9 L6.05 3.0 6.05 1.85 7.45 1.55 7.45 2.3 6.25 2.9 7.9 2.15 7.55 3.4 6.05 3.85 6.25 2.9 M5.2 2.15 L5.45 2.25 5.55 2.5 5.55 3.25 4.15 3.95 4.15 3.05 4.1 2.85 3.85 2.85 3.6 2.95 3.5 3.2 3.5 4.65 2.2 4.9 2.1 4.95 2.1 3.5 2.0 3.3 1.75 3.3 Q1.55 3.3 1.45 3.4 L1.4 3.65 1.4 5.1 0.05 5.4 0.05 3.15 1.35 2.85 1.35 3.15 2.35 2.6 3.05 2.55 3.4 2.75 3.85 2.35 4.45 2.15 4.85 2.05 5.2 2.15 M7.45 0.85 L7.45 1.4 6.05 1.7 6.05 1.15 7.45 0.85 M5.65 3.3 L5.55 4.05 3.85 4.6 3.85 4.15 5.65 3.3" fill="#e7785c" fill-opacity="0.75686276" fill-rule="evenodd" stroke="none"/>
    </g>
    <linearGradient gradientTransform="matrix(-0.001, -0.0037, 0.0057, -0.0015, 2.3, -17.5)" gradientUnits="userSpaceOnUse" id="gradient0" spreadMethod="pad" x1="-819.2" x2="819.2">
      <stop offset="0.0" stop-color="#6f593c"/>
      <stop offset="1.0" stop-color="#dfd7c4"/>
    </linearGradient>
    <linearGradient gradientTransform="matrix(-0.0031, 0.0031, -0.0049, -0.0049, -8.1, -1.65)" gradientUnits="userSpaceOnUse" id="gradient1" spreadMethod="pad" x1="-819.2" x2="819.2">
      <stop offset="0.0" stop-color="#a08256"/>
      <stop offset="1.0" stop-color="#dfd7c4"/>
    </linearGradient>
  </defs>
</svg>
