<?xml version="1.0" encoding="UTF-8" standalone="no"?>
<svg xmlns:xlink="http://www.w3.org/1999/xlink" height="25.5px" width="28.1px" xmlns="http://www.w3.org/2000/svg">
  <g transform="matrix(1.0, 0.0, 0.0, 1.0, 14.05, 12.75)">
    <use height="25.5" transform="matrix(1.0, 0.0, 0.0, 1.0, -14.05, -12.75)" width="28.1" xlink:href="#shape0"/>
  </g>
  <defs>
    <g id="shape0" transform="matrix(1.0, 0.0, 0.0, 1.0, 14.05, 12.75)">
      <path d="M6.05 -6.0 L6.5 -6.75 6.4 -7.9 5.95 -8.8 5.25 -8.95 Q4.95 -8.8 4.9 -8.25 L4.95 -7.15 Q5.05 -6.5 5.4 -6.2 5.7 -5.9 6.05 -6.0 M3.7 -12.5 L7.55 -8.1 8.15 9.25 4.05 4.85 3.7 -12.5" fill="#ffc4c4" fill-rule="evenodd" stroke="none"/>
      <path d="M6.05 -6.0 Q5.7 -5.9 5.4 -6.2 5.05 -6.5 4.95 -7.15 L4.9 -8.25 Q4.95 -8.8 5.25 -8.95 L5.95 -8.8 6.4 -7.9 6.5 -6.75 6.05 -6.0" fill="#333333" fill-rule="evenodd" stroke="none"/>
      <path d="M-13.8 5.45 L-13.75 -11.35 -5.95 -9.5 -5.8 -6.85 Q-6.7 -7.65 -7.55 -7.75 -9.15 -8.05 -9.75 -6.05 -10.5 -4.2 -9.8 -1.2 -9.2 1.65 -7.55 3.85 -6.25 5.75 -4.95 6.2 L-4.9 7.85 -4.9 7.95 -13.8 5.45" fill="#c40000" fill-rule="evenodd" stroke="none"/>
      <path d="M-2.7 10.6 L-4.3 10.85 -7.9 8.95 -11.3 7.2 -8.05 11.35 -13.8 5.45 -4.9 7.95 -4.9 7.85 -4.3 8.95 -2.7 10.6 M-5.8 -6.85 L-4.35 -5.3 -4.3 -5.15 Q-2.9 -4.0 -3.0 -0.9 L-3.2 -0.3 -3.0 -0.9 Q-2.25 -0.9 -1.95 1.0 -1.65 2.85 -2.25 4.25 -2.9 5.5 -4.3 6.35 L-4.5 6.35 -4.95 6.2 Q-6.25 5.75 -7.55 3.85 -9.2 1.65 -9.8 -1.2 -10.5 -4.2 -9.75 -6.05 -9.15 -8.05 -7.55 -7.75 -6.7 -7.65 -5.8 -6.85" fill="#990000" fill-rule="evenodd" stroke="none"/>
      <path d="M3.7 -12.5 L4.05 4.85 -4.3 8.0 -4.3 8.1 -4.9 7.85 -4.95 6.2 -4.5 6.35 -4.3 6.35 Q-2.9 5.5 -2.25 4.25 -1.65 2.85 -1.95 1.0 -2.25 -0.9 -3.0 -0.9 -2.9 -4.0 -4.3 -5.15 L-4.35 -5.3 -5.8 -6.85 -5.95 -9.5 -4.3 -9.1 3.7 -12.5 M1.0 -7.65 Q-0.5 -2.95 -3.0 -0.9 -0.5 -2.95 1.0 -7.65" fill="#ffa2a2" fill-rule="evenodd" stroke="none"/>
      <path d="M-7.9 8.95 L-8.05 11.35 -11.3 7.2 -7.9 8.95" fill="#6d0101" fill-rule="evenodd" stroke="none"/>
      <path d="M5.25 9.3 L-2.7 10.6 -4.3 8.95 -4.9 7.85 -4.3 8.1 -4.3 8.0 4.05 4.85 5.25 9.3" fill="#ff7777" fill-rule="evenodd" stroke="none"/>
      <path d="M4.05 4.85 L8.15 9.25 6.1 12.5 5.25 9.3 4.05 4.85" fill="#ff9191" fill-rule="evenodd" stroke="none"/>
      <path d="M8.15 9.25 L7.55 -8.1 3.7 -12.5 4.05 4.85 8.15 9.25 6.1 12.5 5.25 9.3 -2.7 10.6 -4.3 10.85 -7.9 8.95 -8.05 11.35 -13.8 5.45 -13.75 -11.35 -5.95 -9.5 -4.3 -9.1 3.7 -12.5 M4.05 4.85 L5.25 9.3 M-5.8 -6.85 L-4.35 -5.3 -4.3 -5.15 Q-2.9 -4.0 -3.0 -0.9 L-3.2 -0.3 M-5.8 -6.85 L-5.95 -9.5 M-4.95 6.2 Q-6.25 5.75 -7.55 3.85 -9.2 1.65 -9.8 -1.2 -10.5 -4.2 -9.75 -6.05 -9.15 -8.05 -7.55 -7.75 -6.7 -7.65 -5.8 -6.85 M-4.95 6.2 L-4.5 6.35 -4.3 6.35 Q-2.9 5.5 -2.25 4.25 -1.65 2.85 -1.95 1.0 -2.25 -0.9 -3.0 -0.9 M-4.3 8.1 L-4.9 7.85 -4.3 8.95 -2.7 10.6 M-4.9 7.85 L-4.95 6.2 M-13.8 5.45 L-4.9 7.95 -4.9 7.85 M-7.9 8.95 L-11.3 7.2 -8.05 11.35 M4.05 4.85 L-4.3 8.0" fill="none" stroke="#990000" stroke-linecap="round" stroke-linejoin="round" stroke-width="0.5"/>
      <path d="M-3.0 -0.9 Q-0.5 -2.95 1.0 -7.65" fill="none" stroke="#663300" stroke-linecap="round" stroke-linejoin="round" stroke-width="0.5"/>
      <path d="M6.0 -8.35 L10.25 -9.65 Q12.05 -9.95 13.05 -8.55 L13.4 -7.9 13.8 -2.45 Q13.05 -1.2 12.4 -1.9 L11.95 -7.35 11.95 -7.45 Q11.3 -8.35 10.0 -8.05 L6.5 -6.85 Q5.4 -7.3 6.0 -8.35" fill="#efebdc" fill-rule="evenodd" stroke="none"/>
      <path d="M6.0 -8.35 L10.25 -9.65 Q12.05 -9.95 13.05 -8.55 L13.4 -7.9 13.8 -2.45 Q13.05 -1.2 12.4 -1.9 L11.95 -7.35 11.95 -7.45 Q11.3 -8.35 10.0 -8.05 L6.5 -6.85 Q5.4 -7.3 6.0 -8.35 Z" fill="none" stroke="#efe9ba" stroke-linecap="round" stroke-linejoin="round" stroke-width="0.5"/>
    </g>
  </defs>
</svg>
