<?xml version="1.0" encoding="UTF-8" standalone="no"?>
<svg xmlns:xlink="http://www.w3.org/1999/xlink" height="62.8px" width="27.65px" xmlns="http://www.w3.org/2000/svg">
  <g transform="matrix(1.0, 0.0, 0.0, 1.0, 13.8, 31.4)">
    <use height="62.8" transform="matrix(1.0, 0.0, 0.0, 1.0, -13.8, -31.4)" width="27.65" xlink:href="#shape0"/>
  </g>
  <defs>
    <g id="shape0" transform="matrix(1.0, 0.0, 0.0, 1.0, 13.8, 31.4)">
      <path d="M8.2 -26.05 L9.75 -31.3 13.75 -16.1 -1.05 -11.1 -7.95 -19.15 -1.4 -21.8 13.75 -16.1 10.3 -22.3 8.2 -26.05" fill="#fed69a" fill-rule="evenodd" stroke="none"/>
      <path d="M10.3 -22.3 L13.75 -16.1 -1.4 -21.8 10.3 -22.3 M-13.7 -4.1 L-13.7 -14.55 -1.05 -11.1 -0.6 12.35 -13.7 -4.1" fill="#fdb03e" fill-rule="evenodd" stroke="none"/>
      <path d="M8.2 -26.05 L10.3 -22.3 -1.4 -21.8 -1.4 -26.05 8.2 -26.05" fill="#ca5202" fill-rule="evenodd" stroke="none"/>
      <path d="M9.75 -31.3 L8.2 -26.05 -1.4 -26.05 -1.4 -29.2 9.75 -31.3" fill="url(#gradient0)" fill-rule="evenodd" stroke="none"/>
      <path d="M-7.95 -19.15 L-7.95 -23.85 -1.4 -26.05 -1.4 -21.8 -7.95 -19.15" fill="#ff6600" fill-rule="evenodd" stroke="none"/>
      <path d="M-13.7 -14.55 L-7.95 -19.15 -1.05 -11.1 -13.7 -14.55" fill="url(#gradient1)" fill-rule="evenodd" stroke="none"/>
      <path d="M-0.6 12.4 L-0.25 31.3 -13.7 25.25 -13.7 -4.1 -0.6 12.35 -0.6 12.4" fill="#336600" fill-rule="evenodd" stroke="none"/>
      <path d="M13.75 20.65 L-0.6 12.4 -0.6 12.35 -1.05 -11.1 13.75 -16.1 13.75 20.65" fill="#febe5f" fill-rule="evenodd" stroke="none"/>
      <path d="M13.75 20.65 L13.75 25.7 -0.25 31.3 -0.6 12.4 13.75 20.65" fill="#458701" fill-rule="evenodd" stroke="none"/>
      <path d="M9.75 -31.3 L8.2 -26.05 10.3 -22.3 13.75 -16.1 9.75 -31.3 -1.4 -29.2 -1.4 -26.05 8.2 -26.05 M13.75 20.65 L-0.6 12.4 M-13.7 -4.1 L-13.7 -14.55 -7.95 -19.15 -7.95 -23.85 -1.4 -26.05 -1.4 -21.8 10.3 -22.3 M13.75 20.65 L13.75 -16.1 -1.05 -11.1 -0.6 12.35 -0.6 12.4 M-1.4 -21.8 L-7.95 -19.15 -1.05 -11.1 -13.7 -14.55 M-0.6 12.35 L-13.7 -4.1 M13.75 -16.1 L-1.4 -21.8" fill="none" stroke="#ea8d04" stroke-linecap="round" stroke-linejoin="round" stroke-width="0.25"/>
      <path d="M-0.25 31.3 L13.75 25.7 13.75 20.65 M-0.6 12.4 L-0.25 31.3 -13.7 25.25 -13.7 -4.1" fill="none" stroke="#006633" stroke-linecap="round" stroke-linejoin="round" stroke-width="0.25"/>
      <path d="M5.85 -5.1 Q7.6 -5.1 8.85 -3.05 10.05 -1.0 10.0 1.9 9.9 4.8 8.6 6.85 7.25 8.85 5.5 8.9 3.7 8.9 2.45 6.85 1.25 4.8 1.35 1.9 1.4 -1.0 2.75 -3.05 4.05 -5.1 5.85 -5.1" fill="#ff6600" fill-rule="evenodd" stroke="none"/>
      <path d="M8.25 -2.4 L8.05 -2.8 Q7.3 -4.25 7.35 -6.2 7.45 -8.15 8.3 -9.45 L8.55 -9.7 8.7 -9.4 Q9.5 -7.95 9.4 -6.0 9.35 -4.05 8.45 -2.75 L8.25 -2.4" fill="#458701" fill-rule="evenodd" stroke="none"/>
      <path d="M8.1 -2.3 L8.3 -2.65 Q9.2 -3.95 10.4 -4.0 11.6 -4.05 12.45 -2.8 L12.65 -2.5 12.45 -2.15 Q11.65 -0.8 10.45 -0.75 9.25 -0.7 8.3 -2.0 L8.1 -2.3" fill="#458701" fill-rule="evenodd" stroke="none"/>
    </g>
    <linearGradient gradientTransform="matrix(-0.001, -0.0037, 0.0057, -0.0015, 3.35, -29.0)" gradientUnits="userSpaceOnUse" id="gradient0" spreadMethod="pad" x1="-819.2" x2="819.2">
      <stop offset="0.0" stop-color="#6f593c"/>
      <stop offset="1.0" stop-color="#dfd7c4"/>
    </linearGradient>
    <linearGradient gradientTransform="matrix(-0.0014, 0.0026, -0.0057, -0.0031, -6.5, -13.6)" gradientUnits="userSpaceOnUse" id="gradient1" spreadMethod="pad" x1="-819.2" x2="819.2">
      <stop offset="0.0" stop-color="#9e6003"/>
      <stop offset="1.0" stop-color="#fdb03e"/>
    </linearGradient>
  </defs>
</svg>
