<?xml version="1.0" encoding="UTF-8" standalone="no"?>
<svg xmlns:xlink="http://www.w3.org/1999/xlink" height="28.75px" width="27.4px" xmlns="http://www.w3.org/2000/svg">
  <g transform="matrix(1.0, 0.0, 0.0, 1.0, 11.5, 13.5)">
    <use height="28.75" transform="matrix(1.0, 0.0, 0.0, 1.0, -11.5, -13.5)" width="27.4" xlink:href="#shape0"/>
  </g>
  <defs>
    <g id="shape0" transform="matrix(1.0, 0.0, 0.0, 1.0, 11.5, 13.5)">
      <path d="M15.6 4.2 Q15.15 5.1 11.65 5.8 L2.25 6.6 -7.3 5.8 Q-11.15 5.0 -11.2 3.9 L-11.2 3.85 Q-11.2 2.75 -7.3 2.0 L2.25 1.2 11.65 2.0 Q15.3 2.7 15.6 3.7 L15.6 4.2" fill="url(#gradient0)" fill-rule="evenodd" stroke="none"/>
      <path d="M-11.2 3.9 Q-11.15 5.0 -7.3 5.8 L2.25 6.6 11.65 5.8 Q15.15 5.1 15.6 4.2 L15.6 12.55 Q15.25 13.5 11.65 14.25 L2.25 15.0 -7.3 14.25 Q-11.2 13.45 -11.2 12.4 L-11.2 3.9" fill="url(#gradient1)" fill-rule="evenodd" stroke="none"/>
      <path d="M15.6 4.2 Q15.15 5.1 11.65 5.8 L2.25 6.6 -7.3 5.8 Q-11.15 5.0 -11.2 3.9 L-11.2 12.4 Q-11.2 13.45 -7.3 14.25 L2.25 15.0 11.65 14.25 Q15.25 13.5 15.6 12.55 L15.6 4.2 15.6 3.7 Q15.3 2.7 11.65 2.0 L2.25 1.2 -7.3 2.0 Q-11.2 2.75 -11.2 3.85 L-11.2 3.9 M15.6 4.2 L15.65 3.85 15.6 3.7" fill="none" stroke="#666666" stroke-linecap="round" stroke-linejoin="miter" stroke-width="0.5"/>
      <path d="M15.6 10.15 Q15.2 11.1 11.7 11.75 L2.25 12.5 -7.3 11.75 Q-11.15 11.05 -11.25 9.85 M15.6 7.1 Q15.2 8.0 11.7 8.65 L2.25 9.45 -7.3 8.65 Q-11.15 7.9 -11.25 6.85 M15.6 8.1 Q15.2 9.05 11.7 9.75 L2.25 10.5 -7.3 9.75 Q-11.15 8.95 -11.25 7.85 M15.6 9.15 Q15.2 10.1 11.7 10.75 L2.25 11.5 -7.3 10.75 Q-11.15 10.0 -11.25 8.85 M15.6 6.0 Q15.2 6.95 11.7 7.65 L2.25 8.45 -7.3 7.65 Q-11.15 6.9 -11.25 5.8 M15.6 11.15 Q15.2 12.1 11.7 12.8 L2.25 13.55 -7.3 12.8 Q-11.15 12.05 -11.25 10.95" fill="none" stroke="#666666" stroke-linecap="round" stroke-linejoin="miter" stroke-opacity="0.4509804" stroke-width="0.25"/>
      <path d="M2.2 8.3 L2.25 8.7 2.55 9.05 6.25 9.35 6.25 9.4 6.7 9.95 9.25 10.2 9.25 10.3 9.65 11.1 Q10.25 11.9 11.4 11.5 L11.5 11.45 13.45 10.9 15.55 10.5 15.6 10.55 15.6 10.7 15.6 11.85 12.05 13.0 3.7 13.75 -2.8 8.05 2.1 8.0 2.2 8.3 M-2.65 13.55 L-7.25 13.0 Q-11.15 12.2 -11.25 11.1 L-11.25 6.1 -8.5 7.1 -2.65 13.55" fill="#407e01" fill-rule="evenodd" stroke="none"/>
      <path d="M15.55 10.5 L13.45 10.9 11.5 11.45 11.4 11.5 Q10.25 11.9 9.65 11.1 L9.25 10.3 9.25 10.2 6.7 9.95 6.25 9.4 6.25 9.35 2.55 9.05 2.25 8.7 2.2 8.3 3.8 8.1 4.35 8.1 4.3 8.25 7.85 8.5 7.85 9.75 9.1 9.6 9.8 9.6 9.8 10.15 11.9 9.55 12.3 9.55 12.3 9.85 15.7 10.0 15.75 10.1 15.6 10.7 15.6 10.55 15.55 10.5" fill="#dddddd" fill-rule="evenodd" stroke="none"/>
      <path d="M-2.8 8.05 L3.7 13.75 2.5 13.75 -2.65 13.55 -8.5 7.1 -2.8 8.05" fill="#52a001" fill-rule="evenodd" stroke="none"/>
      <path d="M2.1 8.0 L-2.8 8.05 M3.7 13.75 L12.05 13.0 15.6 11.85 15.6 10.7 15.6 10.55 15.55 10.5 M3.7 13.75 L2.5 13.75 -2.65 13.55 -7.25 13.0 Q-11.15 12.2 -11.25 11.1 L-11.25 6.1 -8.5 7.1 -2.8 8.05" fill="none" stroke="#336600" stroke-linecap="round" stroke-linejoin="round" stroke-width="0.5"/>
      <path d="M0.7 -6.55 L0.25 -6.95 2.35 -8.95 Q4.1 -10.75 3.6 -11.15 3.15 -11.55 0.75 -10.3 L-1.85 -8.65 0.75 -10.3 Q3.15 -11.55 3.6 -11.15 4.1 -10.75 2.35 -8.95 L0.25 -6.95 -0.25 -7.3 1.55 -8.9 Q3.15 -10.45 2.9 -10.65 2.6 -10.9 0.6 -9.7 L-1.45 -8.35 0.6 -9.7 Q2.6 -10.9 2.9 -10.65 3.15 -10.45 1.55 -8.9 L-0.25 -7.3 -1.45 -8.35 -1.85 -8.65 -2.25 -9.0 Q-0.55 -10.15 1.0 -10.9 3.8 -12.3 4.45 -11.75 5.05 -11.2 3.2 -9.05 L0.7 -6.55 3.2 -9.05 Q5.05 -11.2 4.45 -11.75 3.8 -12.3 1.0 -10.9 -0.55 -10.15 -2.25 -9.0 L-2.95 -9.55 2.0 -12.3 Q5.55 -13.95 6.5 -13.1 7.5 -12.3 5.3 -9.55 3.85 -7.75 1.65 -5.8 L0.7 -6.55" fill="#cbcbcb" fill-rule="evenodd" stroke="none"/>
      <path d="M0.25 -6.95 L0.7 -6.55 -0.45 -5.55 0.7 -6.55 1.65 -5.8 0.35 -4.7 -0.45 -5.55 -0.9 -6.0 -1.3 -6.45 -0.25 -7.3 -1.3 -6.45 -2.45 -7.65 -2.85 -8.0 -3.15 -8.35 -2.25 -9.0 -3.15 -8.35 -3.75 -9.0 -2.95 -9.55 -2.25 -9.0 -1.85 -8.65 -2.85 -8.0 -1.85 -8.65 -1.45 -8.35 -0.25 -7.3 0.25 -6.95 -0.9 -6.0 0.25 -6.95 M-2.45 -7.65 L-1.45 -8.35 -2.45 -7.65" fill="url(#gradient2)" fill-rule="evenodd" stroke="none"/>
      <path d="M-1.3 -6.45 L-0.9 -6.0 -2.0 -4.55 Q-4.35 -1.75 -6.35 0.0 -8.35 1.75 -8.8 1.4 -9.3 1.0 -7.95 -1.3 L-4.3 -6.35 -2.85 -8.0 -4.3 -6.35 -7.95 -1.3 Q-9.3 1.0 -8.8 1.4 -8.35 1.75 -6.35 0.0 -4.35 -1.75 -2.0 -4.55 L-0.9 -6.0 -0.45 -5.55 -1.6 -4.2 Q-4.2 -1.05 -6.45 0.85 -8.8 2.7 -9.45 2.2 -10.1 1.65 -8.7 -0.95 -7.3 -3.55 -4.65 -6.7 L-3.15 -8.35 -4.65 -6.7 Q-7.3 -3.55 -8.7 -0.95 -10.1 1.65 -9.45 2.2 -8.8 2.7 -6.45 0.85 -4.2 -1.05 -1.6 -4.2 L-0.45 -5.55 0.35 -4.7 -0.7 -3.4 Q-3.95 0.45 -6.95 2.65 -9.95 4.9 -10.85 4.15 -11.85 3.35 -10.2 0.0 -8.55 -3.35 -5.25 -7.25 L-3.75 -9.0 -3.15 -8.35 -2.85 -8.0 -2.45 -7.65 -1.3 -6.45 -2.4 -5.15 -6.1 -1.0 Q-7.75 0.6 -7.95 0.35 -8.3 0.1 -7.05 -1.8 L-3.7 -6.2 -2.45 -7.65 -3.7 -6.2 -7.05 -1.8 Q-8.3 0.1 -7.95 0.35 -7.75 0.6 -6.1 -1.0 L-2.4 -5.15 -1.3 -6.45" fill="url(#gradient3)" fill-rule="evenodd" stroke="none"/>
      <path d="M0.7 -6.55 L3.2 -9.05 Q5.05 -11.2 4.45 -11.75 3.8 -12.3 1.0 -10.9 -0.55 -10.15 -2.25 -9.0 L-3.15 -8.35 -4.65 -6.7 Q-7.3 -3.55 -8.7 -0.95 -10.1 1.65 -9.45 2.2 -8.8 2.7 -6.45 0.85 -4.2 -1.05 -1.6 -4.2 L-0.45 -5.55 0.7 -6.55 M-1.85 -8.65 L0.75 -10.3 Q3.15 -11.55 3.6 -11.15 4.1 -10.75 2.35 -8.95 L0.25 -6.95 M-0.25 -7.3 L-1.3 -6.45 -2.4 -5.15 -6.1 -1.0 Q-7.75 0.6 -7.95 0.35 -8.3 0.1 -7.05 -1.8 L-3.7 -6.2 -2.45 -7.65 M-0.9 -6.0 L0.25 -6.95 M-1.45 -8.35 L0.6 -9.7 Q2.6 -10.9 2.9 -10.65 3.15 -10.45 1.55 -8.9 L-0.25 -7.3 M-1.45 -8.35 L-2.45 -7.65 M-2.85 -8.0 L-4.3 -6.35 -7.95 -1.3 Q-9.3 1.0 -8.8 1.4 -8.35 1.75 -6.35 0.0 -4.35 -1.75 -2.0 -4.55 L-0.9 -6.0 M-2.85 -8.0 L-1.85 -8.65" fill="none" stroke="#666666" stroke-linecap="round" stroke-linejoin="miter" stroke-opacity="0.5921569" stroke-width="0.25"/>
      <path d="M1.65 -5.8 Q3.85 -7.75 5.3 -9.55 7.5 -12.3 6.5 -13.1 5.55 -13.95 2.0 -12.3 L-2.95 -9.55 M1.65 -5.8 L0.35 -4.7 -0.7 -3.4 Q-3.95 0.45 -6.95 2.65 -9.95 4.9 -10.85 4.15 -11.85 3.35 -10.2 0.0 -8.55 -3.35 -5.25 -7.25 L-3.75 -9.0 -2.95 -9.55" fill="none" stroke="#666666" stroke-linecap="round" stroke-linejoin="miter" stroke-width="0.25"/>
    </g>
    <linearGradient gradientTransform="matrix(0.0164, 0.0, 0.0, 0.0033, 2.2, 3.95)" gradientUnits="userSpaceOnUse" id="gradient0" spreadMethod="pad" x1="-819.2" x2="819.2">
      <stop offset="0.1843137254901961" stop-color="#4d4d4d"/>
      <stop offset="0.5568627450980392" stop-color="#000000"/>
      <stop offset="0.8431372549019608" stop-color="#808080"/>
    </linearGradient>
    <linearGradient gradientTransform="matrix(0.0164, 0.0, 0.0, 0.0204, 2.2, 20.65)" gradientUnits="userSpaceOnUse" id="gradient1" spreadMethod="pad" x1="-819.2" x2="819.2">
      <stop offset="0.0784313725490196" stop-color="#4d4d4d"/>
      <stop offset="0.39215686274509803" stop-color="#9b9b9b"/>
      <stop offset="0.596078431372549" stop-color="#cccccc"/>
      <stop offset="0.7490196078431373" stop-color="#c8c8c8"/>
      <stop offset="1.0" stop-color="#444444"/>
    </linearGradient>
    <linearGradient gradientTransform="matrix(0.012, -0.0091, 0.0029, 0.0024, -3.3, -5.65)" gradientUnits="userSpaceOnUse" id="gradient2" spreadMethod="pad" x1="-819.2" x2="819.2">
      <stop offset="0.0784313725490196" stop-color="#4d4d4d"/>
      <stop offset="0.39215686274509803" stop-color="#9b9b9b"/>
      <stop offset="0.596078431372549" stop-color="#cccccc"/>
      <stop offset="0.7490196078431373" stop-color="#c8c8c8"/>
      <stop offset="1.0" stop-color="#444444"/>
    </linearGradient>
    <linearGradient gradientTransform="matrix(0.0096, -0.0116, 0.0028, 0.0023, -2.95, -5.3)" gradientUnits="userSpaceOnUse" id="gradient3" spreadMethod="pad" x1="-819.2" x2="819.2">
      <stop offset="0.0784313725490196" stop-color="#4d4d4d"/>
      <stop offset="0.39215686274509803" stop-color="#9b9b9b"/>
      <stop offset="0.596078431372549" stop-color="#cccccc"/>
      <stop offset="0.7490196078431373" stop-color="#c8c8c8"/>
      <stop offset="1.0" stop-color="#444444"/>
    </linearGradient>
  </defs>
</svg>
