<?xml version="1.0" encoding="UTF-8" standalone="no"?>
<svg xmlns:xlink="http://www.w3.org/1999/xlink" height="21.7px" width="13.45px" xmlns="http://www.w3.org/2000/svg">
  <g transform="matrix(1.0, 0.0, 0.0, 1.0, 6.7, 10.85)">
    <use height="21.7" transform="matrix(1.0, 0.0, 0.0, 1.0, -6.7, -10.85)" width="13.45" xlink:href="#shape0"/>
  </g>
  <defs>
    <g id="shape0" transform="matrix(1.0, 0.0, 0.0, 1.0, 6.7, 10.85)">
      <path d="M6.45 -8.85 Q6.25 -8.3 4.6 -7.9 L0.05 -7.45 -4.55 -7.9 Q-6.45 -8.35 -6.45 -9.0 -6.45 -9.7 -4.55 -10.15 L0.05 -10.6 4.6 -10.15 Q6.35 -9.75 6.45 -9.1 L6.45 -8.85" fill="url(#gradient0)" fill-rule="evenodd" stroke="none"/>
      <path d="M-6.45 -9.0 Q-6.45 -8.35 -4.55 -7.9 L0.05 -7.45 4.6 -7.9 Q6.25 -8.3 6.45 -8.85 L6.5 9.1 Q6.45 9.75 4.6 10.2 L0.05 10.6 -4.55 10.2 Q-6.45 9.7 -6.45 9.05 L-6.45 -9.0" fill="url(#gradient1)" fill-rule="evenodd" stroke="none"/>
      <path d="M-6.45 -9.0 Q-6.45 -8.35 -4.55 -7.9 L0.05 -7.45 4.6 -7.9 Q6.25 -8.3 6.45 -8.85 L6.45 -9.1 Q6.35 -9.75 4.6 -10.15 L0.05 -10.6 -4.55 -10.15 Q-6.45 -9.7 -6.45 -9.0 L-6.45 9.05 Q-6.45 9.7 -4.55 10.2 L0.05 10.6 4.6 10.2 Q6.45 9.75 6.5 9.1 L6.45 -8.85 6.5 -9.0 6.45 -9.1" fill="none" stroke="#666666" stroke-linecap="round" stroke-linejoin="miter" stroke-width="0.5"/>
      <path d="M6.45 -6.45 Q6.25 -5.9 4.55 -5.5 L0.05 -5.05 -4.55 -5.5 Q-6.45 -5.95 -6.45 -6.6 M6.45 -5.85 Q6.25 -5.3 4.55 -4.9 L0.05 -4.45 -4.55 -4.9 Q-6.45 -5.35 -6.45 -6.0 M6.45 -2.25 Q6.25 -1.7 4.55 -1.3 L0.05 -0.85 -4.55 -1.3 Q-6.45 -1.75 -6.45 -2.4 M6.45 -1.65 Q6.25 -1.1 4.55 -0.7 L0.05 -0.25 -4.55 -0.7 Q-6.45 -1.15 -6.45 -1.8 M6.45 -4.05 Q6.25 -3.5 4.55 -3.1 L0.05 -2.65 -4.55 -3.1 Q-6.45 -3.55 -6.45 -4.2 M6.45 -2.85 Q6.25 -2.3 4.55 -1.9 L0.05 -1.45 -4.55 -1.9 Q-6.45 -2.35 -6.45 -3.0 M6.45 -3.45 Q6.25 -2.9 4.55 -2.5 L0.05 -2.05 -4.55 -2.5 Q-6.45 -2.95 -6.45 -3.6 M6.45 -4.65 Q6.25 -4.1 4.55 -3.7 L0.05 -3.25 -4.55 -3.7 Q-6.45 -4.15 -6.45 -4.8 M6.45 -5.25 Q6.25 -4.7 4.55 -4.3 L0.05 -3.85 -4.55 -4.3 Q-6.45 -4.75 -6.45 -5.4 M6.45 -1.05 Q6.25 -0.5 4.55 -0.1 L0.05 0.35 -4.55 -0.1 Q-6.45 -0.55 -6.45 -1.2 M6.45 1.65 Q6.25 2.25 4.55 2.6 L0.05 3.1 -4.55 2.6 Q-6.45 2.15 -6.45 1.55 M6.45 2.25 Q6.25 2.85 4.55 3.2 L0.05 3.7 -4.55 3.2 Q-6.45 2.75 -6.45 2.15 M6.45 2.85 Q6.25 3.45 4.55 3.8 L0.05 4.3 -4.55 3.8 Q-6.45 3.35 -6.45 2.75 M6.45 4.05 Q6.25 4.65 4.55 5.05 L0.05 5.5 -4.55 5.05 Q-6.45 4.6 -6.45 3.95 M6.45 4.65 Q6.25 5.25 4.55 5.65 L0.05 6.1 -4.55 5.65 Q-6.45 5.2 -6.45 4.55 M6.45 3.45 Q6.25 4.05 4.55 4.45 L0.05 4.9 -4.55 4.45 Q-6.45 4.0 -6.45 3.35 M6.45 6.5 Q6.25 7.05 4.55 7.45 L0.05 7.9 -4.55 7.45 Q-6.45 7.0 -6.45 6.35 M6.45 5.25 Q6.25 5.85 4.55 6.25 L0.05 6.7 -4.55 6.25 Q-6.45 5.8 -6.45 5.15 M6.45 7.1 Q6.25 7.65 4.55 8.05 L0.05 8.5 -4.55 8.05 Q-6.45 7.6 -6.45 6.95 M6.45 5.85 Q6.25 6.45 4.55 6.85 L0.05 7.3 -4.55 6.85 Q-6.45 6.4 -6.45 5.75" fill="none" stroke="#666666" stroke-linecap="round" stroke-linejoin="miter" stroke-opacity="0.4509804" stroke-width="0.25"/>
      <path d="M4.7 -3.25 L4.9 -3.3 6.2 -3.2 6.45 -3.25 6.45 8.35 Q6.45 9.0 4.6 9.45 L0.0 9.9 -4.55 9.45 Q-6.45 9.0 -6.45 8.35 L-6.45 -3.1 -6.2 -3.2 Q-5.75 -3.4 -5.4 -3.8 L-5.25 -4.1 -5.05 -4.75 -4.95 -4.65 -4.65 -4.4 -2.05 -3.9 Q-1.05 -2.55 0.8 -3.4 L2.15 -3.9 2.2 -3.8 2.7 -3.2 4.7 -3.25 M-1.65 7.7 L-1.7 7.7 -1.7 7.8 -1.75 7.85 -1.7 7.95 -0.9 8.1 -0.8 8.1 -0.75 8.05 -0.7 8.0 -0.7 7.9 -0.65 7.9 -0.65 7.85 -0.7 7.75 Q-0.75 7.65 -0.9 7.65 L-1.5 7.65 -1.65 7.7 M-5.2 7.15 L-5.2 7.2 -4.8 7.65 -4.3 7.75 -3.8 7.9 Q-3.45 7.95 -3.35 7.65 L-3.7 7.35 -4.2 7.3 -4.55 7.2 -5.0 7.05 -5.1 7.05 -5.2 7.15 M-3.4 6.1 L-4.2 5.9 -5.3 5.55 -5.35 5.55 Q-5.7 6.1 -4.8 6.25 L-4.5 6.3 -3.8 6.55 -2.7 6.85 Q-1.45 7.1 -0.8 6.55 -1.05 6.25 -1.45 6.25 L-2.7 6.2 -3.4 6.1 M-6.2 -1.6 L-6.25 -1.55 -6.25 -1.45 Q-5.85 -0.95 -5.0 -1.0 L-4.4 -1.0 -4.0 -1.05 -3.85 -1.25 Q-3.95 -1.5 -4.3 -1.5 L-4.9 -1.55 -5.45 -1.65 -6.05 -1.65 -6.1 -1.65 -6.2 -1.6 M-6.05 -2.55 L-6.05 -2.5 -6.0 -2.25 -5.9 -2.2 -5.55 -2.0 -3.8 -1.8 -3.75 -1.9 -3.7 -1.95 -3.7 -2.0 -3.65 -2.0 -3.65 -2.05 -3.7 -2.15 Q-3.9 -2.35 -4.3 -2.35 L-4.75 -2.35 -5.3 -2.5 -5.85 -2.7 -5.95 -2.65 -6.0 -2.6 -6.05 -2.55" fill="url(#gradient2)" fill-rule="evenodd" stroke="none"/>
      <path d="M-6.05 -2.55 L-6.0 -2.6 -5.95 -2.65 -5.85 -2.7 -5.3 -2.5 -4.75 -2.35 -4.3 -2.35 Q-3.9 -2.35 -3.7 -2.15 L-3.65 -2.05 -3.65 -2.0 -3.7 -2.0 -3.7 -1.95 -3.75 -1.9 -3.8 -1.8 -5.55 -2.0 -5.9 -2.2 -6.0 -2.25 -6.05 -2.5 -6.05 -2.55 M-6.2 -1.6 L-6.1 -1.65 -6.05 -1.65 -5.45 -1.65 -4.9 -1.55 -4.3 -1.5 Q-3.95 -1.5 -3.85 -1.25 L-4.0 -1.05 -4.4 -1.0 -5.0 -1.0 Q-5.85 -0.95 -6.25 -1.45 L-6.25 -1.55 -6.2 -1.6 M-3.4 6.1 L-2.7 6.2 -1.45 6.25 Q-1.05 6.25 -0.8 6.55 -1.45 7.1 -2.7 6.85 L-3.8 6.55 -4.5 6.3 -4.8 6.25 Q-5.7 6.1 -5.35 5.55 L-5.3 5.55 -4.2 5.9 -3.4 6.1 M-5.2 7.15 L-5.1 7.05 -5.0 7.05 -4.55 7.2 -4.2 7.3 -3.7 7.35 -3.35 7.65 Q-3.45 7.95 -3.8 7.9 L-4.3 7.75 -4.8 7.65 -5.2 7.2 -5.2 7.15 M-1.65 7.7 L-1.5 7.65 -0.9 7.65 Q-0.75 7.65 -0.7 7.75 L-0.65 7.85 -0.65 7.9 -0.7 7.9 -0.7 8.0 -0.75 8.05 -0.8 8.1 -0.9 8.1 -1.7 7.95 -1.75 7.85 -1.7 7.8 -1.7 7.7 -1.65 7.7" fill="#660000" fill-rule="evenodd" stroke="none"/>
      <path d="M4.25 -1.0 L5.1 -0.5 Q6.15 0.5 6.05 2.0 5.95 3.55 4.8 4.6 3.65 5.65 2.05 5.65 0.4 5.65 -0.75 4.6 -1.9 3.55 -1.95 2.0 -2.0 0.45 -1.15 -0.45 -0.3 -1.35 0.95 -1.35 L1.5 -1.25 1.5 -1.05 0.45 -1.05 1.6 -0.4 0.95 0.35 2.5 -0.15 3.45 0.5 2.95 -0.5 4.25 -1.0 M-0.2 -0.4 Q-1.3 -0.15 -1.1 1.0 -0.45 -0.15 0.55 -0.3 L-0.2 -0.4" fill="#cc0000" fill-rule="evenodd" stroke="none"/>
      <path d="M1.5 -1.25 L1.5 -2.5 2.25 -1.3 3.15 -2.7 3.15 -1.25 4.9 -1.25 4.25 -1.0 2.95 -0.5 3.45 0.5 2.5 -0.15 0.95 0.35 1.6 -0.4 0.45 -1.05 1.5 -1.05 1.5 -1.25" fill="#006600" fill-rule="evenodd" stroke="none"/>
      <path d="M-0.2 -0.4 L0.55 -0.3 Q-0.45 -0.15 -1.1 1.0 -1.3 -0.15 -0.2 -0.4" fill="#ffffff" fill-rule="evenodd" stroke="none"/>
    </g>
    <linearGradient gradientTransform="matrix(0.0079, 0.0, 0.0, 0.0019, 0.0, -9.0)" gradientUnits="userSpaceOnUse" id="gradient0" spreadMethod="pad" x1="-819.2" x2="819.2">
      <stop offset="0.1843137254901961" stop-color="#4d4d4d"/>
      <stop offset="0.5568627450980392" stop-color="#000000"/>
      <stop offset="0.8431372549019608" stop-color="#808080"/>
    </linearGradient>
    <linearGradient gradientTransform="matrix(0.0079, 0.0, 0.0, 0.012, 0.0, 0.8)" gradientUnits="userSpaceOnUse" id="gradient1" spreadMethod="pad" x1="-819.2" x2="819.2">
      <stop offset="0.0784313725490196" stop-color="#4d4d4d"/>
      <stop offset="0.39215686274509803" stop-color="#9b9b9b"/>
      <stop offset="0.596078431372549" stop-color="#cccccc"/>
      <stop offset="0.7490196078431373" stop-color="#c8c8c8"/>
      <stop offset="1.0" stop-color="#444444"/>
    </linearGradient>
    <linearGradient gradientTransform="matrix(-0.0079, 0.0, 0.0, 0.012, 0.0, 0.8)" gradientUnits="userSpaceOnUse" id="gradient2" spreadMethod="pad" x1="-819.2" x2="819.2">
      <stop offset="0.0" stop-color="#650101"/>
      <stop offset="0.5450980392156862" stop-color="#8f0101"/>
      <stop offset="1.0" stop-color="#a90101"/>
    </linearGradient>
  </defs>
</svg>
