<?xml version="1.0" encoding="UTF-8" standalone="no"?>
<svg xmlns:xlink="http://www.w3.org/1999/xlink" height="49.7px" width="16.7px" xmlns="http://www.w3.org/2000/svg">
  <g transform="matrix(1.0, 0.0, 0.0, 1.0, 8.35, 24.85)">
    <use height="49.7" transform="matrix(1.0, 0.0, 0.0, 1.0, -8.35, -24.85)" width="16.7" xlink:href="#shape0"/>
  </g>
  <defs>
    <g id="shape0" transform="matrix(1.0, 0.0, 0.0, 1.0, 8.35, 24.85)">
      <path d="M-3.5 -20.05 L-2.9 -20.15 0.25 -20.3 3.3 -20.15 4.05 -20.05 4.6 -19.65 3.3 -19.35 0.25 -19.2 -2.9 -19.35 Q-3.95 -19.45 -4.1 -19.65 L-3.5 -20.05" fill="#333333" fill-rule="evenodd" stroke="none"/>
      <path d="M4.6 -19.65 Q6.15 -18.5 7.65 -16.55 7.1 -16.1 5.65 -15.7 L0.05 -15.15 -5.6 -15.7 Q-7.0 -16.05 -7.55 -16.5 L-4.1 -19.65 Q-3.95 -19.45 -2.9 -19.35 L0.25 -19.2 3.3 -19.35 4.6 -19.65" fill="url(#gradient0)" fill-rule="evenodd" stroke="none"/>
      <path d="M7.65 -16.55 Q8.3 -16.4 8.0 -15.6 L7.95 -15.6 Q7.7 -14.9 5.65 -14.4 L0.05 -13.85 -5.6 -14.4 Q-7.9 -15.0 -7.95 -15.4 -8.4 -16.25 -7.55 -16.5 -7.0 -16.05 -5.6 -15.7 L0.05 -15.15 5.65 -15.7 Q7.1 -16.1 7.65 -16.55 M8.0 21.65 L8.0 22.65 Q7.95 23.45 5.65 24.05 L0.05 24.6 -5.6 24.05 Q-7.95 23.45 -7.95 22.65 L-7.95 21.7 Q-7.95 22.45 -5.6 23.05 L0.05 23.6 5.65 23.05 Q7.95 22.45 8.0 21.65" fill="url(#gradient1)" fill-rule="evenodd" stroke="none"/>
      <path d="M7.95 -15.6 L8.0 21.65 Q7.95 22.45 5.65 23.05 L0.05 23.6 -5.6 23.05 Q-7.95 22.45 -7.95 21.7 L-7.95 21.65 -7.95 -15.4 Q-7.9 -15.0 -5.6 -14.4 L0.05 -13.85 5.65 -14.4 Q7.7 -14.9 7.95 -15.6" fill="url(#gradient2)" fill-rule="evenodd" stroke="none"/>
      <path d="M4.05 -20.05 L4.65 -19.75 4.6 -19.65 Q6.15 -18.5 7.65 -16.55 8.3 -16.4 8.0 -15.6 L7.95 -15.6 M8.0 21.65 L8.0 22.65 Q7.95 23.45 5.65 24.05 L0.05 24.6 -5.6 24.05 Q-7.95 23.45 -7.95 22.65 L-7.95 21.7 -7.95 21.65 M-7.95 -15.4 Q-8.4 -16.25 -7.55 -16.5 L-4.1 -19.65 -4.15 -19.75 Q-4.15 -19.95 -3.5 -20.05 L-2.9 -20.15 0.25 -20.3 3.3 -20.15 4.05 -20.05 4.6 -19.65 3.3 -19.35 0.25 -19.2 -2.9 -19.35 Q-3.95 -19.45 -4.1 -19.65 L-3.5 -20.05 M-7.55 -16.5 Q-7.0 -16.05 -5.6 -15.7 L0.05 -15.15 5.65 -15.7 Q7.1 -16.1 7.65 -16.55 M-7.95 -15.4 Q-7.9 -15.0 -5.6 -14.4 L0.05 -13.85 5.65 -14.4 Q7.7 -14.9 7.95 -15.6 M8.0 21.65 Q7.95 22.45 5.65 23.05 L0.05 23.6 -5.6 23.05 Q-7.95 22.45 -7.95 21.7" fill="none" stroke="#999999" stroke-linecap="round" stroke-linejoin="round" stroke-width="0.5"/>
      <path d="M7.95 -15.6 L8.0 21.65 M-7.95 21.65 L-7.95 -15.4" fill="none" stroke="#660000" stroke-linecap="round" stroke-linejoin="round" stroke-width="0.25"/>
      <path d="M0.35 -20.75 L0.35 -19.35 -0.4 -19.35 -0.4 -20.75 0.35 -20.75 M0.25 -23.2 L0.05 -22.75 -0.3 -22.55 -0.7 -22.75 -0.9 -23.2 -0.7 -23.65 -0.3 -23.85 0.05 -23.65 0.25 -23.2" fill="#000000" fill-rule="evenodd" stroke="none"/>
      <path d="M-0.4 -20.75 L-1.3 -20.75 -1.3 -24.6 1.35 -24.6 1.35 -20.75 0.35 -20.75 -0.4 -20.75 M0.25 -23.2 L0.05 -23.65 -0.3 -23.85 -0.7 -23.65 -0.9 -23.2 -0.7 -22.75 -0.3 -22.55 0.05 -22.75 0.25 -23.2" fill="#cccccc" fill-rule="evenodd" stroke="none"/>
      <path d="M-0.4 -20.75 L-1.3 -20.75 -1.3 -24.6 1.35 -24.6 1.35 -20.75 0.35 -20.75 M-0.4 -20.75 L0.35 -20.75" fill="none" stroke="#999999" stroke-linecap="round" stroke-linejoin="round" stroke-width="0.5"/>
      <path d="M1.85 -1.7 L3.1 0.0 1.85 1.7 0.6 0.0 1.85 -1.7 M5.7 3.45 L7.05 5.3 5.8 7.0 4.45 5.15 5.7 3.45 M4.45 8.8 L5.8 7.0 7.05 8.7 5.7 10.45 4.45 8.8 M1.85 5.3 L0.55 3.5 1.85 1.7 3.2 3.5 1.85 5.3 M1.85 8.65 L3.2 10.5 1.85 12.3 0.5 10.5 1.85 8.65 M7.05 15.65 L5.7 17.45 7.05 19.3 5.8 21.0 4.45 19.15 5.7 17.45 4.45 15.8 5.8 14.0 7.05 15.65 M1.85 15.65 L0.6 14.0 1.85 12.3 3.1 13.95 1.85 15.65 M-2.05 14.0 L-0.75 15.8 -1.95 17.45 -0.7 19.15 -2.05 21.0 -3.35 19.3 -1.95 17.45 -3.3 15.65 -2.05 14.0 M0.6 20.95 L1.85 19.3 3.1 20.95 1.85 22.65 0.6 20.95 M-2.0 3.45 L-0.7 5.15 -2.05 7.0 -3.35 5.3 -2.0 3.45 M-7.15 10.45 L-5.95 8.8 -4.65 10.5 -5.9 12.15 -7.15 10.45 M-2.05 7.0 L-0.75 8.8 -2.0 10.5 -3.3 8.7 -2.05 7.0 M-5.95 15.8 L-7.25 14.0 -5.9 12.15 -4.55 13.95 -5.95 15.8" fill="#990000" fill-rule="evenodd" stroke="none"/>
      <path d="M7.7 -9.55 L1.85 -1.7 3.1 0.0 7.7 -6.25 M7.05 5.3 L7.7 4.4 M7.7 -2.55 L4.45 1.8 5.7 3.45 7.7 0.75 M5.7 3.45 L4.45 5.15 5.8 7.0 7.05 5.3 5.7 3.45 M3.1 0.0 L4.45 1.8 3.2 3.5 4.45 5.15 3.1 6.95 4.45 8.8 5.8 7.0 7.05 8.7 7.7 7.8 M1.85 -1.7 L0.6 0.0 1.85 1.7 3.1 0.0 M1.85 5.3 L3.2 3.5 1.85 1.7 0.55 3.5 1.85 5.3 3.1 6.95 1.85 8.65 3.2 10.5 4.45 8.8 5.7 10.45 7.05 8.7 7.7 9.6 M1.85 5.3 L0.6 6.95 1.85 8.65 0.5 10.5 1.85 12.3 3.2 10.5 4.45 12.15 5.7 10.45 7.05 12.3 7.7 11.4 M7.7 6.25 L7.05 5.3 M7.05 15.65 L7.7 14.75 M7.7 16.6 L7.05 15.65 5.7 17.45 7.05 19.3 7.7 18.4 M5.8 14.0 L7.05 15.65 M1.85 15.65 L0.6 14.0 -0.75 15.8 0.5 17.5 1.85 15.65 3.1 13.95 1.85 12.3 0.6 14.0 -0.75 12.2 -2.05 14.0 -0.75 15.8 -1.95 17.45 -0.7 19.15 0.5 17.5 1.85 19.3 3.2 17.5 1.85 15.65 M3.2 17.5 L4.45 15.8 3.1 13.95 4.45 12.15 5.8 14.0 7.05 12.3 7.7 13.2 M3.1 20.95 L4.45 19.15 3.2 17.5 M0.6 20.95 L1.85 19.3 3.1 20.95 4.4 22.75 4.45 22.8 5.8 21.0 4.45 19.15 5.7 17.45 4.45 15.8 5.8 14.0 M2.1 23.0 L1.85 22.65 1.6 23.0 M0.6 20.95 L1.85 22.65 3.1 20.95 M5.8 21.0 L7.05 19.3 7.7 20.15 M5.8 21.0 L6.65 22.2 M-0.7 5.15 L0.55 3.5 -0.75 1.8 -2.0 3.45 -0.7 5.15 0.6 6.95 -0.75 8.8 0.5 10.5 -0.75 12.2 -2.0 10.5 -3.35 12.3 -2.05 14.0 -3.3 15.65 -1.95 17.45 -3.35 19.3 -2.05 21.0 -0.7 19.15 0.6 20.95 -0.75 22.8 -0.55 23.05 M-2.0 3.45 L-3.35 5.3 -2.05 7.0 -0.7 5.15 M-7.15 10.45 L-7.7 11.15 M-7.15 10.45 L-5.95 8.8 -7.7 6.45 M-7.7 9.75 L-7.15 10.45 -5.9 12.15 -4.65 10.5 -5.95 8.8 -4.6 6.95 -7.7 2.75 M-2.05 7.0 L-0.75 8.8 -2.0 10.5 -3.3 8.7 -4.65 10.5 -3.35 12.3 -4.55 13.95 -3.3 15.65 -4.65 17.5 -3.35 19.3 -4.55 20.95 -3.3 22.65 -2.05 21.0 -0.75 22.8 -0.9 23.05 M-3.35 5.3 L-4.6 6.95 -3.3 8.7 -2.05 7.0 M-7.7 16.75 L-7.15 17.45 -5.95 15.8 -7.25 14.0 -7.6 14.45 M-7.7 20.45 L-7.25 21.0 -5.9 19.15 -7.15 17.45 -7.7 18.15 M-7.7 13.45 L-7.25 14.0 -5.9 12.15 -4.55 13.95 -5.95 15.8 -4.65 17.5 -5.9 19.15 -4.55 20.95 -5.7 22.45 M-6.3 22.3 L-7.25 21.0 -7.7 21.6 M0.6 0.0 L-0.75 1.8" fill="none" stroke="#660000" stroke-linecap="round" stroke-linejoin="round" stroke-width="0.5"/>
    </g>
    <linearGradient gradientTransform="matrix(0.0089, -0.006, 0.0012, 0.0024, -0.15, -17.35)" gradientUnits="userSpaceOnUse" id="gradient0" spreadMethod="pad" x1="-819.2" x2="819.2">
      <stop offset="0.0784313725490196" stop-color="#4d4d4d"/>
      <stop offset="0.39215686274509803" stop-color="#9b9b9b"/>
      <stop offset="0.596078431372549" stop-color="#cccccc"/>
      <stop offset="0.7490196078431373" stop-color="#c8c8c8"/>
      <stop offset="1.0" stop-color="#444444"/>
    </linearGradient>
    <linearGradient gradientTransform="matrix(0.0097, 0.0, 0.0, 0.0151, 0.0, -4.75)" gradientUnits="userSpaceOnUse" id="gradient1" spreadMethod="pad" x1="-819.2" x2="819.2">
      <stop offset="0.0784313725490196" stop-color="#4d4d4d"/>
      <stop offset="0.39215686274509803" stop-color="#9b9b9b"/>
      <stop offset="0.596078431372549" stop-color="#cccccc"/>
      <stop offset="0.7490196078431373" stop-color="#c8c8c8"/>
      <stop offset="1.0" stop-color="#444444"/>
    </linearGradient>
    <linearGradient gradientTransform="matrix(0.0097, 0.0, 0.0, 0.024, 0.0, 3.9)" gradientUnits="userSpaceOnUse" id="gradient2" spreadMethod="pad" x1="-819.2" x2="819.2">
      <stop offset="0.0" stop-color="#650101"/>
      <stop offset="0.5450980392156862" stop-color="#c00000"/>
      <stop offset="1.0" stop-color="#760101"/>
    </linearGradient>
  </defs>
</svg>
