<?xml version="1.0" encoding="UTF-8" standalone="no"?>
<svg xmlns:xlink="http://www.w3.org/1999/xlink" height="21.7px" width="13.45px" xmlns="http://www.w3.org/2000/svg">
  <g transform="matrix(1.0, 0.0, 0.0, 1.0, 6.7, 10.85)">
    <use height="21.7" transform="matrix(1.0, 0.0, 0.0, 1.0, -6.7, -10.85)" width="13.45" xlink:href="#shape0"/>
  </g>
  <defs>
    <g id="shape0" transform="matrix(1.0, 0.0, 0.0, 1.0, 6.7, 10.85)">
      <path d="M-6.45 -9.0 Q-6.45 -9.7 -4.55 -10.15 L0.05 -10.6 4.6 -10.15 Q6.35 -9.75 6.45 -9.1 L6.45 -8.85 Q6.25 -8.3 4.6 -7.9 L0.05 -7.45 -4.55 -7.9 Q-6.45 -8.35 -6.45 -9.0" fill="url(#gradient0)" fill-rule="evenodd" stroke="none"/>
      <path d="M-6.45 -9.0 Q-6.45 -8.35 -4.55 -7.9 L0.05 -7.45 4.6 -7.9 Q6.25 -8.3 6.45 -8.85 L6.5 9.1 Q6.45 9.75 4.6 10.2 L0.05 10.6 -4.55 10.2 Q-6.45 9.7 -6.45 9.05 L-6.45 -9.0" fill="url(#gradient1)" fill-rule="evenodd" stroke="none"/>
      <path d="M6.45 -8.85 L6.45 -9.1 Q6.35 -9.75 4.6 -10.15 L0.05 -10.6 -4.55 -10.15 Q-6.45 -9.7 -6.45 -9.0 -6.45 -8.35 -4.55 -7.9 L0.05 -7.45 4.6 -7.9 Q6.25 -8.3 6.45 -8.85 L6.5 -9.0 6.45 -9.1 M6.45 -8.85 L6.5 9.1 Q6.45 9.75 4.6 10.2 L0.05 10.6 -4.55 10.2 Q-6.45 9.7 -6.45 9.05 L-6.45 -9.0" fill="none" stroke="#666666" stroke-linecap="round" stroke-linejoin="miter" stroke-width="0.5"/>
      <path d="M6.45 -6.45 Q6.25 -5.9 4.55 -5.5 L0.05 -5.05 -4.55 -5.5 Q-6.45 -5.95 -6.45 -6.6 M6.45 -5.85 Q6.25 -5.3 4.55 -4.9 L0.05 -4.45 -4.55 -4.9 Q-6.45 -5.35 -6.45 -6.0 M6.45 -3.45 Q6.25 -2.9 4.55 -2.5 L0.05 -2.05 -4.55 -2.5 Q-6.45 -2.95 -6.45 -3.6 M6.45 -2.25 Q6.25 -1.7 4.55 -1.3 L0.05 -0.85 -4.55 -1.3 Q-6.45 -1.75 -6.45 -2.4 M6.45 -1.65 Q6.25 -1.1 4.55 -0.7 L0.05 -0.25 -4.55 -0.7 Q-6.45 -1.15 -6.45 -1.8 M6.45 -4.65 Q6.25 -4.1 4.55 -3.7 L0.05 -3.25 -4.55 -3.7 Q-6.45 -4.15 -6.45 -4.8 M6.45 -4.05 Q6.25 -3.5 4.55 -3.1 L0.05 -2.65 -4.55 -3.1 Q-6.45 -3.55 -6.45 -4.2 M6.45 -2.85 Q6.25 -2.3 4.55 -1.9 L0.05 -1.45 -4.55 -1.9 Q-6.45 -2.35 -6.45 -3.0 M6.45 -5.25 Q6.25 -4.7 4.55 -4.3 L0.05 -3.85 -4.55 -4.3 Q-6.45 -4.75 -6.45 -5.4 M6.45 -1.05 Q6.25 -0.5 4.55 -0.1 L0.05 0.35 -4.55 -0.1 Q-6.45 -0.55 -6.45 -1.2 M6.45 1.65 Q6.25 2.25 4.55 2.6 L0.05 3.1 -4.55 2.6 Q-6.45 2.15 -6.45 1.55 M6.45 2.25 Q6.25 2.85 4.55 3.2 L0.05 3.7 -4.55 3.2 Q-6.45 2.75 -6.45 2.15 M6.45 2.85 Q6.25 3.45 4.55 3.8 L0.05 4.3 -4.55 3.8 Q-6.45 3.35 -6.45 2.75 M6.45 4.65 Q6.25 5.25 4.55 5.65 L0.05 6.1 -4.55 5.65 Q-6.45 5.2 -6.45 4.55 M6.45 4.05 Q6.25 4.65 4.55 5.05 L0.05 5.5 -4.55 5.05 Q-6.45 4.6 -6.45 3.95 M6.45 3.45 Q6.25 4.05 4.55 4.45 L0.05 4.9 -4.55 4.45 Q-6.45 4.0 -6.45 3.35 M6.45 5.25 Q6.25 5.85 4.55 6.25 L0.05 6.7 -4.55 6.25 Q-6.45 5.8 -6.45 5.15 M6.45 6.5 Q6.25 7.05 4.55 7.45 L0.05 7.9 -4.55 7.45 Q-6.45 7.0 -6.45 6.35 M6.45 5.85 Q6.25 6.45 4.55 6.85 L0.05 7.3 -4.55 6.85 Q-6.45 6.4 -6.45 5.75 M6.45 7.1 Q6.25 7.65 4.55 8.05 L0.05 8.5 -4.55 8.05 Q-6.45 7.6 -6.45 6.95" fill="none" stroke="#666666" stroke-linecap="round" stroke-linejoin="miter" stroke-opacity="0.4509804" stroke-width="0.25"/>
      <path d="M-1.9 -3.7 L-2.0 -3.75 -1.95 -3.75 -1.9 -3.7 M2.8 -3.1 Q3.75 -2.2 4.7 -3.25 L4.9 -3.3 6.2 -3.2 6.45 -3.25 6.45 8.35 Q6.45 9.0 4.6 9.45 L0.0 9.9 -4.55 9.45 Q-6.45 9.0 -6.45 8.35 L-6.45 1.2 -6.4 1.05 Q-6.1 0.45 -6.15 -0.2 L-5.8 -0.35 -5.0 -0.55 -4.6 -0.7 -4.15 -1.05 -4.1 -1.1 Q-3.15 -1.15 -2.35 -1.75 L-1.75 -2.15 Q-0.3 -3.0 1.5 -2.65 2.25 -2.5 2.7 -3.0 L2.8 -3.1" fill="url(#gradient2)" fill-rule="evenodd" stroke="none"/>
      <path d="M5.35 0.15 L5.05 0.35 Q3.55 1.25 1.4 1.5 L-2.25 1.25 -2.55 1.1 -2.25 0.95 Q-0.75 0.05 1.4 -0.2 L5.05 0.05 5.35 0.15 6.35 -0.8 6.45 1.05 Q6.15 0.5 5.35 0.15 M5.05 2.35 Q3.55 3.25 1.4 3.55 L-2.25 3.25 -2.55 3.15 -2.25 2.95 Q-0.75 2.05 1.4 1.8 L5.05 2.05 5.35 2.2 5.05 2.35 M6.45 3.05 L5.35 2.2 6.35 1.2 6.45 3.05 M5.35 4.2 L5.05 4.4 Q3.55 5.3 1.4 5.55 L-2.25 5.3 -2.55 5.15 -2.25 4.95 Q-0.75 4.05 1.4 3.8 L5.05 4.05 5.35 4.2 6.35 3.2 6.45 5.05 5.35 4.2" fill="#c4c7dd" fill-rule="evenodd" stroke="none"/>
    </g>
    <linearGradient gradientTransform="matrix(0.0079, 0.0, 0.0, 0.0019, 0.0, -9.0)" gradientUnits="userSpaceOnUse" id="gradient0" spreadMethod="pad" x1="-819.2" x2="819.2">
      <stop offset="0.1843137254901961" stop-color="#4d4d4d"/>
      <stop offset="0.5568627450980392" stop-color="#000000"/>
      <stop offset="0.8431372549019608" stop-color="#808080"/>
    </linearGradient>
    <linearGradient gradientTransform="matrix(0.0079, 0.0, 0.0, 0.012, 0.0, 0.8)" gradientUnits="userSpaceOnUse" id="gradient1" spreadMethod="pad" x1="-819.2" x2="819.2">
      <stop offset="0.0784313725490196" stop-color="#4d4d4d"/>
      <stop offset="0.39215686274509803" stop-color="#9b9b9b"/>
      <stop offset="0.596078431372549" stop-color="#cccccc"/>
      <stop offset="0.7490196078431373" stop-color="#c8c8c8"/>
      <stop offset="1.0" stop-color="#444444"/>
    </linearGradient>
    <linearGradient gradientTransform="matrix(0.0079, 0.0, 0.0, 0.0089, 0.0, 2.55)" gradientUnits="userSpaceOnUse" id="gradient2" spreadMethod="pad" x1="-819.2" x2="819.2">
      <stop offset="0.0" stop-color="#afafaf"/>
      <stop offset="0.19607843137254902" stop-color="#fbfbfb"/>
      <stop offset="0.7568627450980392" stop-color="#e2e2e2"/>
      <stop offset="1.0" stop-color="#7b7b7b"/>
    </linearGradient>
  </defs>
</svg>
