<?xml version="1.0" encoding="UTF-8" standalone="no"?>
<svg xmlns:xlink="http://www.w3.org/1999/xlink" height="28.75px" width="27.4px" xmlns="http://www.w3.org/2000/svg">
  <g transform="matrix(1.0, 0.0, 0.0, 1.0, 13.75, 14.3)">
    <use height="28.75" transform="matrix(1.0, 0.0, 0.0, 1.0, -13.75, -14.3)" width="27.4" xlink:href="#shape0"/>
  </g>
  <defs>
    <g id="shape0" transform="matrix(1.0, 0.0, 0.0, 1.0, 13.75, 14.3)">
      <path d="M13.35 3.4 Q12.9 4.3 9.4 5.0 L0.0 5.75 -9.55 5.0 Q-13.4 4.2 -13.45 3.15 L-13.45 3.1 Q-13.5 1.95 -9.55 1.2 L0.0 0.4 9.4 1.2 Q13.05 1.9 13.35 2.95 L13.35 3.4" fill="url(#gradient0)" fill-rule="evenodd" stroke="none"/>
      <path d="M13.35 3.4 L13.35 11.8 Q13.05 12.75 9.4 13.45 L0.0 14.2 -9.55 13.45 Q-13.45 12.65 -13.45 11.6 L-13.45 3.15 Q-13.4 4.2 -9.55 5.0 L0.0 5.75 9.4 5.0 Q12.9 4.3 13.35 3.4" fill="url(#gradient1)" fill-rule="evenodd" stroke="none"/>
      <path d="M-13.45 3.15 L-13.45 11.6 Q-13.45 12.65 -9.55 13.45 L0.0 14.2 9.4 13.45 Q13.05 12.75 13.35 11.8 L13.35 3.4 Q12.9 4.3 9.4 5.0 L0.0 5.75 -9.55 5.0 Q-13.4 4.2 -13.45 3.15 L-13.45 3.1 Q-13.5 1.95 -9.55 1.2 L0.0 0.4 9.4 1.2 Q13.05 1.9 13.35 2.95 L13.4 3.1 13.35 3.4 13.35 2.95" fill="none" stroke="#666666" stroke-linecap="round" stroke-linejoin="miter" stroke-width="0.5"/>
      <path d="M13.35 9.35 Q12.95 10.3 9.45 10.95 L0.0 11.7 -9.55 10.95 Q-13.4 10.25 -13.5 9.05 M13.35 7.3 Q12.95 8.25 9.45 8.95 L0.0 9.7 -9.55 8.95 Q-13.4 8.15 -13.5 7.05 M13.35 8.35 Q12.95 9.3 9.45 9.95 L0.0 10.7 -9.55 9.95 Q-13.4 9.2 -13.5 8.05 M13.35 6.3 Q12.95 7.2 9.45 7.85 L0.0 8.65 -9.55 7.85 Q-13.4 7.1 -13.5 6.05 M13.35 5.2 Q12.95 6.15 9.45 6.85 L0.0 7.65 -9.55 6.85 Q-13.4 6.1 -13.5 5.0 M13.35 10.35 Q12.95 11.3 9.45 12.0 L0.0 12.75 -9.55 12.0 Q-13.4 11.25 -13.5 10.15" fill="none" stroke="#666666" stroke-linecap="round" stroke-linejoin="miter" stroke-opacity="0.4509804" stroke-width="0.25"/>
      <path d="M-0.1 7.55 L0.0 7.95 0.3 8.25 4.0 8.55 4.0 8.6 4.45 9.15 7.0 9.4 7.0 9.5 7.4 10.3 Q7.95 11.1 9.15 10.7 L9.25 10.65 11.15 10.1 13.3 9.7 13.35 9.75 13.35 9.85 13.35 11.0 Q12.45 11.65 9.8 12.15 L1.5 12.9 -5.1 7.2 -0.15 7.2 -0.1 7.55 M-4.9 12.75 L-9.5 12.15 Q-13.45 11.4 -13.5 10.3 L-13.5 5.3 -10.75 6.25 -4.9 12.75" fill="#990000" fill-rule="evenodd" stroke="none"/>
      <path d="M13.3 9.7 L11.15 10.1 9.25 10.65 9.15 10.7 Q7.95 11.1 7.4 10.3 L7.0 9.5 7.0 9.4 4.45 9.15 4.0 8.6 4.0 8.55 0.3 8.25 0.0 7.95 -0.1 7.55 1.5 7.3 2.15 7.3 2.05 7.45 5.6 7.75 5.6 8.95 6.8 8.8 7.55 8.8 7.55 9.35 9.7 8.75 10.05 8.75 10.05 9.1 13.4 9.2 13.5 9.3 13.35 9.85 13.35 9.75 13.3 9.7" fill="#dddddd" fill-rule="evenodd" stroke="none"/>
      <path d="M-5.1 7.2 L1.5 12.9 0.2 12.9 -4.9 12.75 -10.75 6.25 -5.1 7.2" fill="#ba0101" fill-rule="evenodd" stroke="none"/>
      <path d="M-0.15 7.2 L-5.1 7.2 M1.5 12.9 L9.8 12.15 Q12.45 11.65 13.35 11.0 L13.35 9.85 13.35 9.75 13.3 9.7 M1.5 12.9 L0.2 12.9 -4.9 12.75 -9.5 12.15 Q-13.45 11.4 -13.5 10.3 L-13.5 5.3 -10.75 6.25 -5.1 7.2" fill="none" stroke="#660000" stroke-linecap="round" stroke-linejoin="round" stroke-width="0.5"/>
      <path d="M-5.2 -10.35 L-0.25 -13.1 Q3.3 -14.75 4.25 -13.9 5.25 -13.1 3.05 -10.35 1.6 -8.55 -0.6 -6.6 L-1.55 -7.35 0.95 -9.85 Q2.8 -12.0 2.2 -12.55 1.55 -13.1 -1.25 -11.7 L-4.5 -9.8 -1.25 -11.7 Q1.55 -13.1 2.2 -12.55 2.8 -12.0 0.95 -9.85 L-1.55 -7.35 -2.0 -7.75 0.1 -9.75 Q1.85 -11.55 1.35 -11.95 0.9 -12.35 -1.5 -11.1 L-4.1 -9.45 -1.5 -11.1 Q0.9 -12.35 1.35 -11.95 1.85 -11.55 0.1 -9.75 L-2.0 -7.75 -2.5 -8.1 -3.7 -9.15 -4.1 -9.45 -4.5 -9.8 -5.2 -10.35 M-2.5 -8.1 L-0.7 -9.7 Q0.9 -11.25 0.65 -11.45 0.35 -11.7 -1.65 -10.5 L-3.7 -9.15 -1.65 -10.5 Q0.35 -11.7 0.65 -11.45 0.9 -11.25 -0.7 -9.7 L-2.5 -8.1" fill="#cbcbcb" fill-rule="evenodd" stroke="none"/>
      <path d="M-0.6 -6.6 L-1.9 -5.5 -2.7 -6.35 -1.55 -7.35 -2.7 -6.35 -3.15 -6.8 -2.0 -7.75 -3.15 -6.8 -3.55 -7.25 -4.7 -8.45 -5.1 -8.8 -5.4 -9.15 -6.0 -9.8 -5.2 -10.35 -4.5 -9.8 -4.1 -9.45 -3.7 -9.15 -4.7 -8.45 -3.7 -9.15 -2.5 -8.1 -2.0 -7.75 -1.55 -7.35 -0.6 -6.6 M-2.5 -8.1 L-3.55 -7.25 -2.5 -8.1 M-4.1 -9.45 L-5.1 -8.8 -4.1 -9.45 M-4.5 -9.8 L-5.4 -9.15 -4.5 -9.8" fill="url(#gradient2)" fill-rule="evenodd" stroke="none"/>
      <path d="M-1.9 -5.5 L-2.95 -4.2 Q-6.2 -0.35 -9.2 1.85 -12.2 4.1 -13.1 3.35 -14.1 2.55 -12.45 -0.8 -10.8 -4.15 -7.5 -8.05 L-6.0 -9.8 -5.4 -9.15 -6.9 -7.5 Q-9.55 -4.35 -10.95 -1.75 -12.35 0.85 -11.7 1.4 -11.05 1.9 -8.7 0.05 -6.45 -1.85 -3.85 -5.0 L-2.7 -6.35 -3.85 -5.0 Q-6.45 -1.85 -8.7 0.05 -11.05 1.9 -11.7 1.4 -12.35 0.85 -10.95 -1.75 -9.55 -4.35 -6.9 -7.5 L-5.4 -9.15 -5.1 -8.8 -4.7 -8.45 -5.95 -7.0 -9.3 -2.6 Q-10.55 -0.7 -10.2 -0.45 -10.0 -0.2 -8.35 -1.8 L-4.65 -5.95 -3.55 -7.25 -4.65 -5.95 -8.35 -1.8 Q-10.0 -0.2 -10.2 -0.45 -10.55 -0.7 -9.3 -2.6 L-5.95 -7.0 -4.7 -8.45 -3.55 -7.25 -3.15 -6.8 -4.25 -5.35 Q-6.6 -2.55 -8.6 -0.8 -10.6 0.95 -11.05 0.6 -11.55 0.2 -10.2 -2.1 -8.9 -4.35 -6.55 -7.15 L-5.1 -8.8 -6.55 -7.15 Q-8.9 -4.35 -10.2 -2.1 -11.55 0.2 -11.05 0.6 -10.6 0.95 -8.6 -0.8 -6.6 -2.55 -4.25 -5.35 L-3.15 -6.8 -2.7 -6.35 -1.9 -5.5" fill="url(#gradient3)" fill-rule="evenodd" stroke="none"/>
      <path d="M-4.5 -9.8 L-1.25 -11.7 Q1.55 -13.1 2.2 -12.55 2.8 -12.0 0.95 -9.85 L-1.55 -7.35 -2.7 -6.35 -3.85 -5.0 Q-6.45 -1.85 -8.7 0.05 -11.05 1.9 -11.7 1.4 -12.35 0.85 -10.95 -1.75 -9.55 -4.35 -6.9 -7.5 L-5.4 -9.15 -4.5 -9.8 M-4.1 -9.45 L-1.5 -11.1 Q0.9 -12.35 1.35 -11.95 1.85 -11.55 0.1 -9.75 L-2.0 -7.75 -3.15 -6.8 M-3.7 -9.15 L-1.65 -10.5 Q0.35 -11.7 0.65 -11.45 0.9 -11.25 -0.7 -9.7 L-2.5 -8.1 M-3.55 -7.25 L-4.65 -5.95 -8.35 -1.8 Q-10.0 -0.2 -10.2 -0.45 -10.55 -0.7 -9.3 -2.6 L-5.95 -7.0 -4.7 -8.45 M-5.1 -8.8 L-6.55 -7.15 Q-8.9 -4.35 -10.2 -2.1 -11.55 0.2 -11.05 0.6 -10.6 0.95 -8.6 -0.8 -6.6 -2.55 -4.25 -5.35 L-3.15 -6.8 M-3.7 -9.15 L-4.7 -8.45 M-3.55 -7.25 L-2.5 -8.1 M-5.1 -8.8 L-4.1 -9.45" fill="none" stroke="#666666" stroke-linecap="round" stroke-linejoin="miter" stroke-opacity="0.5921569" stroke-width="0.25"/>
      <path d="M-5.2 -10.35 L-0.25 -13.1 Q3.3 -14.75 4.25 -13.9 5.25 -13.1 3.05 -10.35 1.6 -8.55 -0.6 -6.6 L-1.9 -5.5 -2.95 -4.2 Q-6.2 -0.35 -9.2 1.85 -12.2 4.1 -13.1 3.35 -14.1 2.55 -12.45 -0.8 -10.8 -4.15 -7.5 -8.05 L-6.0 -9.8 -5.2 -10.35" fill="none" stroke="#666666" stroke-linecap="round" stroke-linejoin="miter" stroke-width="0.25"/>
    </g>
    <linearGradient gradientTransform="matrix(0.0164, 0.0, 0.0, 0.0033, -0.05, 3.15)" gradientUnits="userSpaceOnUse" id="gradient0" spreadMethod="pad" x1="-819.2" x2="819.2">
      <stop offset="0.1843137254901961" stop-color="#4d4d4d"/>
      <stop offset="0.5568627450980392" stop-color="#000000"/>
      <stop offset="0.8431372549019608" stop-color="#808080"/>
    </linearGradient>
    <linearGradient gradientTransform="matrix(0.0164, 0.0, 0.0, 0.0204, -0.05, 19.85)" gradientUnits="userSpaceOnUse" id="gradient1" spreadMethod="pad" x1="-819.2" x2="819.2">
      <stop offset="0.0784313725490196" stop-color="#4d4d4d"/>
      <stop offset="0.39215686274509803" stop-color="#9b9b9b"/>
      <stop offset="0.596078431372549" stop-color="#cccccc"/>
      <stop offset="0.7490196078431373" stop-color="#c8c8c8"/>
      <stop offset="1.0" stop-color="#444444"/>
    </linearGradient>
    <linearGradient gradientTransform="matrix(0.012, -0.0091, 0.0029, 0.0024, -5.55, -6.45)" gradientUnits="userSpaceOnUse" id="gradient2" spreadMethod="pad" x1="-819.2" x2="819.2">
      <stop offset="0.0784313725490196" stop-color="#4d4d4d"/>
      <stop offset="0.39215686274509803" stop-color="#9b9b9b"/>
      <stop offset="0.596078431372549" stop-color="#cccccc"/>
      <stop offset="0.7490196078431373" stop-color="#c8c8c8"/>
      <stop offset="1.0" stop-color="#444444"/>
    </linearGradient>
    <linearGradient gradientTransform="matrix(0.0096, -0.0116, 0.0028, 0.0023, -5.2, -6.1)" gradientUnits="userSpaceOnUse" id="gradient3" spreadMethod="pad" x1="-819.2" x2="819.2">
      <stop offset="0.0784313725490196" stop-color="#4d4d4d"/>
      <stop offset="0.39215686274509803" stop-color="#9b9b9b"/>
      <stop offset="0.596078431372549" stop-color="#cccccc"/>
      <stop offset="0.7490196078431373" stop-color="#c8c8c8"/>
      <stop offset="1.0" stop-color="#444444"/>
    </linearGradient>
  </defs>
</svg>
