<?xml version="1.0" encoding="UTF-8" standalone="no"?>
<svg xmlns:xlink="http://www.w3.org/1999/xlink" height="32.45px" width="19.0px" xmlns="http://www.w3.org/2000/svg">
  <g transform="matrix(1.0, 0.0, 0.0, 1.0, 9.5, 16.15)">
    <use height="32.45" transform="matrix(1.0, 0.0, 0.0, 1.0, -9.5, -16.15)" width="19.0" xlink:href="#shape0"/>
  </g>
  <defs>
    <g id="shape0" transform="matrix(1.0, 0.0, 0.0, 1.0, 9.5, 16.15)">
      <path d="M-9.25 -8.65 Q-9.25 -9.5 -6.55 -10.05 L0.05 -10.65 6.55 -10.05 Q9.05 -9.55 9.25 -8.8 L9.25 -8.65 9.25 -8.45 Q8.95 -7.75 6.55 -7.25 L0.05 -6.7 -6.55 -7.25 Q-9.2 -7.85 -9.25 -8.65" fill="url(#gradient0)" fill-rule="evenodd" stroke="none"/>
      <path d="M-9.25 -8.65 Q-9.2 -7.85 -6.55 -7.25 L0.05 -6.7 6.55 -7.25 Q8.95 -7.75 9.25 -8.45 L9.25 14.1 Q9.25 14.9 6.55 15.5 L0.05 16.05 -6.55 15.5 Q-9.25 14.9 -9.25 14.1 L-9.25 -8.65" fill="url(#gradient1)" fill-rule="evenodd" stroke="none"/>
      <path d="M9.25 -8.45 L9.25 -8.65 9.25 -8.8 Q9.05 -9.55 6.55 -10.05 L0.05 -10.65 -6.55 -10.05 Q-9.25 -9.5 -9.25 -8.65 -9.2 -7.85 -6.55 -7.25 L0.05 -6.7 6.55 -7.25 Q8.95 -7.75 9.25 -8.45 L9.25 14.1 Q9.25 14.9 6.55 15.5 L0.05 16.05 -6.55 15.5 Q-9.25 14.9 -9.25 14.1 L-9.25 -8.65" fill="none" stroke="#666666" stroke-linecap="round" stroke-linejoin="miter" stroke-width="0.5"/>
      <path d="M9.25 -5.4 Q8.9 -4.75 6.5 -4.2 L0.05 -3.65 -6.55 -4.2 Q-9.25 -4.8 -9.25 -5.6 M9.25 -4.65 Q8.9 -4.0 6.5 -3.45 L0.05 -2.9 -6.55 -3.45 Q-9.25 -4.05 -9.25 -4.85 M9.25 -3.9 Q8.9 -3.25 6.5 -2.7 L0.05 -2.15 -6.55 -2.7 Q-9.25 -3.3 -9.25 -4.1 M9.25 -2.4 Q8.9 -1.7 6.5 -1.2 L0.05 -0.6 -6.55 -1.2 Q-9.25 -1.8 -9.25 -2.6 M9.25 -1.65 Q8.9 -0.95 6.5 -0.45 L0.05 0.15 -6.55 -0.45 Q-9.25 -1.0 -9.25 -1.8 M9.25 -3.15 Q8.9 -2.45 6.5 -1.95 L0.05 -1.4 -6.55 -1.95 Q-9.25 -2.55 -9.25 -3.35 M9.25 0.6 Q8.9 1.35 6.5 1.8 L0.05 2.4 -6.55 1.8 Q-9.25 1.25 -9.25 0.45 M9.25 4.8 Q8.9 5.5 6.5 6.0 L0.05 6.55 -6.55 6.0 Q-9.25 5.4 -9.25 4.6 M9.25 1.4 Q8.9 2.1 6.5 2.6 L0.05 3.15 -6.55 2.6 Q-9.25 2.0 -9.25 1.2 M9.25 9.35 Q8.9 10.05 6.5 10.55 L0.05 11.15 -6.55 10.55 Q-9.25 10.0 -9.25 9.2 M9.25 7.8 Q8.9 8.55 6.5 9.05 L0.05 9.6 -6.55 9.05 Q-9.25 8.5 -9.25 7.65 M9.25 8.55 Q8.9 9.3 6.5 9.8 L0.05 10.35 -6.55 9.8 Q-9.25 9.25 -9.25 8.45 M9.25 6.3 Q8.9 7.0 6.5 7.5 L0.05 8.1 -6.55 7.5 Q-9.25 6.95 -9.25 6.15 M9.25 7.05 Q8.9 7.75 6.5 8.3 L0.05 8.85 -6.55 8.3 Q-9.25 7.75 -9.25 6.9 M9.25 10.9 Q8.9 11.55 6.5 12.1 L0.05 12.65 -6.55 12.1 Q-9.25 11.5 -9.25 10.7 M9.25 10.1 Q8.9 10.8 6.5 11.35 L0.05 11.9 -6.55 11.35 Q-9.25 10.75 -9.25 9.95 M9.25 5.55 Q8.9 6.25 6.5 6.75 L0.05 7.35 -6.55 6.75 Q-9.25 6.15 -9.25 5.35 M9.25 -0.9 Q8.9 -0.2 6.5 0.3 L0.05 0.9 -6.55 0.3 Q-9.25 -0.25 -9.25 -1.05 M9.25 -0.15 Q8.9 0.6 6.5 1.05 L0.05 1.65 -6.55 1.05 Q-9.25 0.5 -9.25 -0.3 M9.25 11.65 Q8.9 12.3 6.5 12.85 L0.05 13.4 -6.55 12.85 Q-9.25 12.25 -9.25 11.45" fill="none" stroke="#666666" stroke-linecap="round" stroke-linejoin="miter" stroke-opacity="0.4509804" stroke-width="0.25"/>
      <path d="M6.1 -7.9 Q3.35 -8.35 -0.1 -9.8 -3.55 -11.35 -5.75 -13.0 -7.95 -14.65 -7.6 -15.5 -7.25 -16.35 -4.5 -15.85 -1.8 -15.4 1.7 -13.9 5.1 -12.4 7.3 -10.75 9.5 -9.1 9.15 -8.25 8.8 -7.4 6.1 -7.9 M0.75 -11.35 L4.55 -9.95 Q6.15 -9.45 6.3 -9.7 6.4 -9.95 4.9 -10.8 L1.3 -12.55 -2.6 -14.0 -4.25 -14.25 Q-4.4 -14.05 -2.95 -13.2 -1.45 -12.35 0.75 -11.35 -1.45 -12.35 -2.95 -13.2 -4.4 -14.05 -4.25 -14.25 L-2.6 -14.0 1.3 -12.55 4.9 -10.8 Q6.4 -9.95 6.3 -9.7 6.15 -9.45 4.55 -9.95 L0.75 -11.35 M6.9 -9.4 Q7.05 -9.8 5.4 -10.9 3.7 -11.9 1.25 -12.95 -1.25 -14.1 -3.1 -14.55 L-5.2 -14.6 Q-5.4 -14.2 -3.75 -13.15 -2.1 -12.15 0.45 -11.0 2.9 -9.95 4.8 -9.45 L6.9 -9.4 4.8 -9.45 Q2.9 -9.95 0.45 -11.0 -2.1 -12.15 -3.75 -13.15 -5.4 -14.2 -5.2 -14.6 L-3.1 -14.55 Q-1.25 -14.1 1.25 -12.95 3.7 -11.9 5.4 -10.9 7.05 -9.8 6.9 -9.4 M7.55 -9.1 Q7.75 -9.7 6.0 -10.9 L1.4 -13.35 Q-1.4 -14.55 -3.5 -15.0 L-5.9 -14.9 Q-6.15 -14.35 -4.3 -13.05 -2.55 -11.8 0.25 -10.6 3.0 -9.45 5.15 -9.0 L7.55 -9.1 5.15 -9.0 Q3.0 -9.45 0.25 -10.6 -2.55 -11.8 -4.3 -13.05 -6.15 -14.35 -5.9 -14.9 L-3.5 -15.0 Q-1.4 -14.55 1.4 -13.35 L6.0 -10.9 Q7.75 -9.7 7.55 -9.1" fill="url(#gradient2)" fill-rule="evenodd" stroke="none"/>
      <path d="M6.1 -7.9 Q3.35 -8.35 -0.1 -9.8 -3.55 -11.35 -5.75 -13.0 -7.95 -14.65 -7.6 -15.5 -7.25 -16.35 -4.5 -15.85 -1.8 -15.4 1.7 -13.9 5.1 -12.4 7.3 -10.75 9.5 -9.1 9.15 -8.25 8.8 -7.4 6.1 -7.9" fill="none" stroke="#666666" stroke-linecap="round" stroke-linejoin="miter" stroke-width="0.25"/>
      <path d="M7.55 -9.1 L5.15 -9.0 Q3.0 -9.45 0.25 -10.6 -2.55 -11.8 -4.3 -13.05 -6.15 -14.35 -5.9 -14.9 L-3.5 -15.0 Q-1.4 -14.55 1.4 -13.35 L6.0 -10.9 Q7.75 -9.7 7.55 -9.1 M6.9 -9.4 L4.8 -9.45 Q2.9 -9.95 0.45 -11.0 -2.1 -12.15 -3.75 -13.15 -5.4 -14.2 -5.2 -14.6 L-3.1 -14.55 Q-1.25 -14.1 1.25 -12.95 3.7 -11.9 5.4 -10.9 7.05 -9.8 6.9 -9.4 M0.75 -11.35 Q-1.45 -12.35 -2.95 -13.2 -4.4 -14.05 -4.25 -14.25 L-2.6 -14.0 1.3 -12.55 4.9 -10.8 Q6.4 -9.95 6.3 -9.7 6.15 -9.45 4.55 -9.95 L0.75 -11.35" fill="none" stroke="#666666" stroke-linecap="round" stroke-linejoin="miter" stroke-opacity="0.5921569" stroke-width="0.25"/>
      <path d="M-9.25 9.2 L-9.2 -1.4 Q-8.95 -1.1 -8.9 -1.3 L-7.0 -1.45 Q-6.25 -1.25 -5.7 -1.8 L-4.5 -2.95 Q-3.95 -2.45 -3.3 -2.3 L-1.15 -1.6 Q0.2 -1.0 1.25 -1.2 L2.75 -1.15 3.15 -1.05 Q4.25 -0.2 5.25 -1.05 L5.35 -0.5 Q5.4 0.05 5.8 0.35 6.7 0.9 7.75 0.65 L7.85 0.8 8.2 1.2 9.05 1.3 9.25 1.25 9.25 13.25 Q9.25 14.05 6.55 14.6 L0.05 15.15 -6.55 14.6 Q-9.2 14.05 -9.25 13.25 L-9.25 11.6 Q-6.75 12.9 -4.05 13.5 L1.35 13.8 2.75 13.9 3.0 14.5 2.9 13.45 1.75 12.4 2.15 11.25 2.65 10.5 2.8 10.45 2.9 10.55 2.95 10.85 2.95 11.45 3.6 9.75 3.35 8.95 2.65 8.65 Q0.45 10.15 -1.0 10.75 L-4.6 10.9 Q-6.75 10.5 -9.25 9.2 M-4.7 9.85 Q-4.15 9.95 -4.1 9.4 -4.05 8.9 -4.6 8.8 -4.95 8.8 -5.1 9.2 -5.25 9.75 -4.7 9.85 M-4.9 7.5 Q-4.3 7.5 -4.3 6.95 -4.3 6.4 -4.9 6.4 -5.3 6.4 -5.4 6.85 -5.5 7.4 -4.9 7.5 M-3.25 8.6 Q-2.7 8.7 -2.65 8.15 -2.6 7.65 -3.15 7.55 -3.5 7.55 -3.65 7.95 -3.8 8.5 -3.25 8.6 M-1.95 7.8 Q-2.3 7.8 -2.4 8.2 -2.6 8.75 -2.05 8.85 -1.5 8.95 -1.45 8.4 -1.4 7.9 -1.95 7.8 M-0.4 7.45 Q-0.35 6.95 -0.9 6.85 L-1.35 7.25 Q-1.55 7.8 -1.0 7.9 -0.45 8.0 -0.4 7.45 M-8.4 7.35 Q-8.55 7.85 -8.0 7.95 -7.45 8.05 -7.35 7.5 -7.3 6.95 -7.9 6.9 -8.3 6.95 -8.4 7.35 M-5.85 8.65 Q-5.3 8.75 -5.25 8.25 -5.2 7.7 -5.75 7.6 L-6.2 8.0 Q-6.4 8.55 -5.85 8.65 M-7.15 8.65 Q-6.6 8.75 -6.55 8.25 -6.5 7.7 -7.05 7.6 -7.4 7.6 -7.55 8.0 -7.7 8.55 -7.15 8.65 M-6.95 6.45 Q-7.05 7.0 -6.45 7.1 -5.85 7.15 -5.8 6.55 -5.8 5.95 -6.45 6.0 -6.85 6.0 -6.95 6.45 M-5.4 4.05 L-5.85 4.45 Q-6.05 5.0 -5.5 5.1 -4.95 5.2 -4.9 4.65 -4.85 4.15 -5.4 4.05 M-6.8 4.05 Q-7.15 4.05 -7.25 4.45 -7.45 5.0 -6.9 5.1 -6.35 5.2 -6.3 4.65 -6.25 4.15 -6.8 4.05 M-8.4 3.1 Q-8.75 3.15 -8.9 3.5 -9.05 4.05 -8.5 4.15 -7.95 4.25 -7.9 3.75 -7.85 3.2 -8.4 3.1 M-8.1 5.45 L-8.6 5.9 Q-8.75 6.45 -8.2 6.55 -7.65 6.65 -7.6 6.1 -7.55 5.55 -8.1 5.45 M-8.25 0.3 Q-8.4 0.85 -7.85 0.95 -7.3 1.05 -7.25 0.5 -7.2 0.0 -7.75 -0.1 L-8.25 0.3 M-8.7 1.85 Q-8.15 1.95 -8.1 1.4 -8.05 0.9 -8.6 0.8 L-9.05 1.2 Q-9.25 1.75 -8.7 1.85 M-5.3 2.45 Q-5.25 1.95 -5.8 1.85 L-6.25 2.25 Q-6.45 2.8 -5.9 2.9 -5.35 3.0 -5.3 2.45 M-6.5 2.8 Q-6.45 2.3 -7.0 2.2 -7.35 2.2 -7.5 2.6 -7.65 3.15 -7.1 3.25 -6.55 3.35 -6.5 2.8 M-6.5 0.6 L-6.95 1.0 Q-7.15 1.55 -6.6 1.65 -6.05 1.75 -6.0 1.2 -5.95 0.7 -6.5 0.6 M-5.95 0.75 Q-5.4 0.85 -5.35 0.3 -5.3 -0.25 -5.85 -0.3 -6.2 -0.3 -6.35 0.1 -6.5 0.65 -5.95 0.75 M-1.0 4.95 Q-1.1 5.5 -0.5 5.55 0.1 5.6 0.1 5.05 0.1 4.5 -0.5 4.5 -0.9 4.5 -1.0 4.95 M-1.3 5.9 Q-1.3 5.35 -1.9 5.35 -2.3 5.35 -2.4 5.8 L-2.4 6.1 Q-2.5 5.85 -2.85 5.8 -3.2 5.8 -3.35 6.2 -3.5 6.75 -2.95 6.85 -2.4 6.95 -2.35 6.4 L-2.35 6.2 -1.9 6.4 Q-1.3 6.45 -1.3 5.9 M-1.75 3.45 Q-1.95 4.0 -1.4 4.1 -0.85 4.2 -0.75 3.65 -0.65 3.1 -1.25 3.0 -1.65 3.05 -1.75 3.45 M-1.65 4.45 Q-1.6 3.9 -2.15 3.8 -2.5 3.85 -2.65 4.2 -2.8 4.75 -2.25 4.85 -1.7 4.95 -1.65 4.45 M-0.55 3.4 Q-0.7 3.95 -0.15 4.05 0.4 4.15 0.45 3.6 0.5 3.1 -0.05 3.0 -0.4 3.0 -0.55 3.4 M-4.5 6.0 Q-3.95 6.1 -3.9 5.55 -3.85 5.05 -4.4 4.95 -4.75 4.95 -4.85 5.35 -5.05 5.9 -4.5 6.0 M-2.7 4.0 Q-2.7 3.4 -3.3 3.4 -3.7 3.45 -3.8 3.85 -3.9 4.45 -3.3 4.5 -2.7 4.5 -2.7 4.0 M-4.2 2.35 Q-4.55 2.35 -4.7 2.75 L-4.7 3.0 -5.15 3.4 Q-5.35 3.95 -4.8 4.05 -4.25 4.15 -4.2 3.6 L-4.2 3.45 Q-3.75 3.45 -3.7 2.95 -3.65 2.45 -4.2 2.35 M-4.45 1.5 Q-4.4 1.0 -4.95 0.9 -5.3 0.9 -5.45 1.3 -5.6 1.85 -5.05 1.95 -4.5 2.05 -4.45 1.5 M-3.2 1.15 Q-3.15 0.65 -3.7 0.55 L-4.15 0.95 Q-4.35 1.5 -3.8 1.6 -3.25 1.7 -3.2 1.15 M-1.75 2.1 Q-1.7 1.6 -2.25 1.5 L-2.7 1.9 Q-2.9 2.45 -2.35 2.55 -1.8 2.65 -1.75 2.1 M-1.7 1.3 Q-1.15 1.4 -1.1 0.85 -1.05 0.35 -1.6 0.25 -1.85 0.25 -1.95 0.45 -2.05 0.1 -2.5 0.05 -2.95 0.1 -3.05 0.55 -3.15 1.1 -2.6 1.2 L-2.05 1.1 -1.7 1.3 M-4.3 -0.4 Q-4.25 -0.95 -4.8 -1.0 -5.15 -1.0 -5.3 -0.6 -5.45 -0.05 -4.9 0.05 -4.35 0.15 -4.3 -0.4 M-2.7 -0.6 Q-2.65 -1.1 -3.2 -1.2 -3.55 -1.2 -3.7 -0.8 -3.85 -0.25 -3.3 -0.15 -2.75 -0.05 -2.7 -0.6" fill="url(#gradient3)" fill-rule="evenodd" stroke="none"/>
      <path d="M-9.25 9.2 Q-6.75 10.5 -4.6 10.9 L-1.0 10.75 Q0.45 10.15 2.65 8.65 L3.35 8.95 3.6 9.75 2.95 11.45 2.95 10.85 2.9 10.55 2.8 10.45 2.65 10.5 2.15 11.25 1.75 12.4 2.9 13.45 3.0 14.5 2.75 13.9 1.35 13.8 -4.05 13.5 Q-6.75 12.9 -9.25 11.6 L-9.25 9.2 M-2.7 -0.6 Q-2.75 -0.05 -3.3 -0.15 -3.85 -0.25 -3.7 -0.8 -3.55 -1.2 -3.2 -1.2 -2.65 -1.1 -2.7 -0.6 M-4.3 -0.4 Q-4.35 0.15 -4.9 0.05 -5.45 -0.05 -5.3 -0.6 -5.15 -1.0 -4.8 -1.0 -4.25 -0.95 -4.3 -0.4 M-1.7 1.3 L-2.05 1.1 -2.6 1.2 Q-3.15 1.1 -3.05 0.55 -2.95 0.1 -2.5 0.05 -2.05 0.1 -1.95 0.45 -1.85 0.25 -1.6 0.25 -1.05 0.35 -1.1 0.85 -1.15 1.4 -1.7 1.3 M-1.75 2.1 Q-1.8 2.65 -2.35 2.55 -2.9 2.45 -2.7 1.9 L-2.25 1.5 Q-1.7 1.6 -1.75 2.1 M-3.2 1.15 Q-3.25 1.7 -3.8 1.6 -4.35 1.5 -4.15 0.95 L-3.7 0.55 Q-3.15 0.65 -3.2 1.15 M-4.45 1.5 Q-4.5 2.05 -5.05 1.95 -5.6 1.85 -5.45 1.3 -5.3 0.9 -4.95 0.9 -4.4 1.0 -4.45 1.5 M-4.2 2.35 Q-3.65 2.45 -3.7 2.95 -3.75 3.45 -4.2 3.45 L-4.2 3.6 Q-4.25 4.15 -4.8 4.05 -5.35 3.95 -5.15 3.4 L-4.7 3.0 -4.7 2.75 Q-4.55 2.35 -4.2 2.35 M-2.7 4.0 Q-2.7 4.5 -3.3 4.5 -3.9 4.45 -3.8 3.85 -3.7 3.45 -3.3 3.4 -2.7 3.4 -2.7 4.0 M-4.5 6.0 Q-5.05 5.9 -4.85 5.35 -4.75 4.95 -4.4 4.95 -3.85 5.05 -3.9 5.55 -3.95 6.1 -4.5 6.0 M-0.55 3.4 Q-0.4 3.0 -0.05 3.0 0.5 3.1 0.45 3.6 0.4 4.15 -0.15 4.05 -0.7 3.95 -0.55 3.4 M-1.65 4.45 Q-1.7 4.95 -2.25 4.85 -2.8 4.75 -2.65 4.2 -2.5 3.85 -2.15 3.8 -1.6 3.9 -1.65 4.45 M-1.75 3.45 Q-1.65 3.05 -1.25 3.0 -0.65 3.1 -0.75 3.65 -0.85 4.2 -1.4 4.1 -1.95 4.0 -1.75 3.45 M-1.3 5.9 Q-1.3 6.45 -1.9 6.4 L-2.35 6.2 -2.35 6.4 Q-2.4 6.95 -2.95 6.85 -3.5 6.75 -3.35 6.2 -3.2 5.8 -2.85 5.8 -2.5 5.85 -2.4 6.1 L-2.4 5.8 Q-2.3 5.35 -1.9 5.35 -1.3 5.35 -1.3 5.9 M-1.0 4.95 Q-0.9 4.5 -0.5 4.5 0.1 4.5 0.1 5.05 0.1 5.6 -0.5 5.55 -1.1 5.5 -1.0 4.95 M-5.95 0.75 Q-6.5 0.65 -6.35 0.1 -6.2 -0.3 -5.85 -0.3 -5.3 -0.25 -5.35 0.3 -5.4 0.85 -5.95 0.75 M-6.5 0.6 Q-5.95 0.7 -6.0 1.2 -6.05 1.75 -6.6 1.65 -7.15 1.55 -6.95 1.0 L-6.5 0.6 M-6.5 2.8 Q-6.55 3.35 -7.1 3.25 -7.65 3.15 -7.5 2.6 -7.35 2.2 -7.0 2.2 -6.45 2.3 -6.5 2.8 M-5.3 2.45 Q-5.35 3.0 -5.9 2.9 -6.45 2.8 -6.25 2.25 L-5.8 1.85 Q-5.25 1.95 -5.3 2.45 M-8.7 1.85 Q-9.25 1.75 -9.05 1.2 L-8.6 0.8 Q-8.05 0.9 -8.1 1.4 -8.15 1.95 -8.7 1.85 M-8.25 0.3 L-7.75 -0.1 Q-7.2 0.0 -7.25 0.5 -7.3 1.05 -7.85 0.95 -8.4 0.85 -8.25 0.3 M-8.1 5.45 Q-7.55 5.55 -7.6 6.1 -7.65 6.65 -8.2 6.55 -8.75 6.45 -8.6 5.9 L-8.1 5.45 M-8.4 3.1 Q-7.85 3.2 -7.9 3.75 -7.95 4.25 -8.5 4.15 -9.05 4.05 -8.9 3.5 -8.75 3.15 -8.4 3.1 M-6.8 4.05 Q-6.25 4.15 -6.3 4.65 -6.35 5.2 -6.9 5.1 -7.45 5.0 -7.25 4.45 -7.15 4.05 -6.8 4.05 M-5.4 4.05 Q-4.85 4.15 -4.9 4.65 -4.95 5.2 -5.5 5.1 -6.05 5.0 -5.85 4.45 L-5.4 4.05 M-6.95 6.45 Q-6.85 6.0 -6.45 6.0 -5.8 5.95 -5.8 6.55 -5.85 7.15 -6.45 7.1 -7.05 7.0 -6.95 6.45 M-7.15 8.65 Q-7.7 8.55 -7.55 8.0 -7.4 7.6 -7.05 7.6 -6.5 7.7 -6.55 8.25 -6.6 8.75 -7.15 8.65 M-5.85 8.65 Q-6.4 8.55 -6.2 8.0 L-5.75 7.6 Q-5.2 7.7 -5.25 8.25 -5.3 8.75 -5.85 8.65 M-8.4 7.35 Q-8.3 6.95 -7.9 6.9 -7.3 6.95 -7.35 7.5 -7.45 8.05 -8.0 7.95 -8.55 7.85 -8.4 7.35 M-0.4 7.45 Q-0.45 8.0 -1.0 7.9 -1.55 7.8 -1.35 7.25 L-0.9 6.85 Q-0.35 6.95 -0.4 7.45 M-1.95 7.8 Q-1.4 7.9 -1.45 8.4 -1.5 8.95 -2.05 8.85 -2.6 8.75 -2.4 8.2 -2.3 7.8 -1.95 7.8 M-3.25 8.6 Q-3.8 8.5 -3.65 7.95 -3.5 7.55 -3.15 7.55 -2.6 7.65 -2.65 8.15 -2.7 8.7 -3.25 8.6 M-4.9 7.5 Q-5.5 7.4 -5.4 6.85 -5.3 6.4 -4.9 6.4 -4.3 6.4 -4.3 6.95 -4.3 7.5 -4.9 7.5 M-4.7 9.85 Q-5.25 9.75 -5.1 9.2 -4.95 8.8 -4.6 8.8 -4.05 8.9 -4.1 9.4 -4.15 9.95 -4.7 9.85" fill="#ffcc00" fill-rule="evenodd" stroke="none"/>
    </g>
    <linearGradient gradientTransform="matrix(0.0113, 0.0, 0.0, 0.0024, 0.0, -8.65)" gradientUnits="userSpaceOnUse" id="gradient0" spreadMethod="pad" x1="-819.2" x2="819.2">
      <stop offset="0.1843137254901961" stop-color="#4d4d4d"/>
      <stop offset="0.5568627450980392" stop-color="#000000"/>
      <stop offset="0.8431372549019608" stop-color="#808080"/>
    </linearGradient>
    <linearGradient gradientTransform="matrix(0.0113, 0.0, 0.0, 0.0151, 0.0, 3.7)" gradientUnits="userSpaceOnUse" id="gradient1" spreadMethod="pad" x1="-819.2" x2="819.2">
      <stop offset="0.0784313725490196" stop-color="#4d4d4d"/>
      <stop offset="0.39215686274509803" stop-color="#9b9b9b"/>
      <stop offset="0.596078431372549" stop-color="#cccccc"/>
      <stop offset="0.7490196078431373" stop-color="#c8c8c8"/>
      <stop offset="1.0" stop-color="#444444"/>
    </linearGradient>
    <linearGradient gradientTransform="matrix(0.0102, 0.0044, -0.0011, 0.0025, 0.75, -11.9)" gradientUnits="userSpaceOnUse" id="gradient2" spreadMethod="pad" x1="-819.2" x2="819.2">
      <stop offset="0.0784313725490196" stop-color="#4d4d4d"/>
      <stop offset="0.39215686274509803" stop-color="#9b9b9b"/>
      <stop offset="0.596078431372549" stop-color="#cccccc"/>
      <stop offset="0.7490196078431373" stop-color="#c8c8c8"/>
      <stop offset="1.0" stop-color="#444444"/>
    </linearGradient>
    <linearGradient gradientTransform="matrix(0.0113, 0.0, 0.0, 0.0138, 0.0, 3.85)" gradientUnits="userSpaceOnUse" id="gradient3" spreadMethod="pad" x1="-819.2" x2="819.2">
      <stop offset="0.0" stop-color="#afafaf"/>
      <stop offset="0.19607843137254902" stop-color="#eaeaea"/>
      <stop offset="0.7568627450980392" stop-color="#e2e2e2"/>
      <stop offset="1.0" stop-color="#7b7b7b"/>
    </linearGradient>
  </defs>
</svg>
