<?xml version="1.0" encoding="UTF-8" standalone="no"?>
<svg xmlns:xlink="http://www.w3.org/1999/xlink" height="24.15px" width="30.05px" xmlns="http://www.w3.org/2000/svg">
  <g transform="matrix(1.0, 0.0, 0.0, 1.0, 15.0, 12.05)">
    <use height="24.15" transform="matrix(1.0, 0.0, 0.0, 1.0, -15.0, -12.05)" width="30.05" xlink:href="#shape0"/>
  </g>
  <defs>
    <g id="shape0" transform="matrix(1.0, 0.0, 0.0, 1.0, 15.0, 12.05)">
      <path d="M13.6 -0.95 Q13.45 4.85 14.4 10.65 L-2.75 12.0 Q-7.35 10.75 -11.1 9.25 L-10.1 9.4 -9.85 9.4 Q-8.35 9.3 -7.05 8.05 L-3.05 10.45 Q-4.1 -0.85 -1.6 -10.9 L-5.1 -6.2 Q-6.35 -8.6 -8.35 -8.8 L-8.7 -8.8 -9.75 -8.7 -1.15 -11.95 14.4 -10.05 Q13.8 -6.4 13.65 -2.75 L4.95 -1.55 13.6 -0.95" fill="url(#gradient0)" fill-rule="evenodd" stroke="none"/>
      <path d="M-9.75 -8.7 L-8.7 -8.8 -8.35 -8.8 Q-6.35 -8.6 -5.1 -6.2 L-5.05 -6.1 Q-3.6 -3.45 -3.85 0.35 -4.2 4.1 -6.0 6.75 L-7.05 8.05 Q-8.35 9.3 -9.85 9.4 L-10.1 9.4 -11.1 9.25 -11.6 9.05 Q-12.9 8.4 -13.8 6.65 -15.15 3.95 -14.85 0.2 -14.55 -3.55 -12.8 -6.2 -11.4 -8.25 -9.75 -8.7 M-6.65 -4.2 Q-7.55 -6.15 -9.1 -6.15 -10.7 -6.15 -11.95 -4.25 -13.2 -2.4 -13.4 0.3 -13.7 3.0 -12.8 4.95 -11.85 6.85 -10.3 6.9 -8.7 6.9 -7.45 5.0 -6.2 3.1 -5.95 0.4 -5.7 -2.3 -6.65 -4.2 -5.7 -2.3 -5.95 0.4 -6.2 3.1 -7.45 5.0 -8.7 6.9 -10.3 6.9 -11.85 6.85 -12.8 4.95 -13.7 3.0 -13.4 0.3 -13.2 -2.4 -11.95 -4.25 -10.7 -6.15 -9.1 -6.15 -7.55 -6.15 -6.65 -4.2 M-7.2 -3.65 Q-7.9 -5.35 -9.2 -5.4 -10.5 -5.4 -11.6 -3.7 -12.6 -2.05 -12.8 0.35 -13.0 2.7 -12.25 4.45 -11.5 6.15 -10.2 6.15 -8.9 6.15 -7.85 4.5 -6.8 2.8 -6.6 0.4 -6.45 -1.95 -7.2 -3.65 -6.45 -1.95 -6.6 0.4 -6.8 2.8 -7.85 4.5 -8.9 6.15 -10.2 6.15 -11.5 6.15 -12.25 4.45 -13.0 2.7 -12.8 0.35 -12.6 -2.05 -11.6 -3.7 -10.5 -5.4 -9.2 -5.4 -7.9 -5.35 -7.2 -3.65 M-6.1 -4.75 Q-7.1 -6.95 -8.9 -6.95 -10.75 -7.0 -12.25 -4.85 -13.7 -2.75 -14.0 0.3 -14.3 3.3 -13.2 5.45 -12.15 7.6 -10.3 7.65 -8.45 7.65 -7.0 5.55 -5.5 3.4 -5.25 0.4 -5.0 -2.6 -6.1 -4.75 -5.0 -2.6 -5.25 0.4 -5.5 3.4 -7.0 5.55 -8.45 7.65 -10.3 7.65 -12.15 7.6 -13.2 5.45 -14.3 3.3 -14.0 0.3 -13.7 -2.75 -12.25 -4.85 -10.75 -7.0 -8.9 -6.95 -7.1 -6.95 -6.1 -4.75" fill="url(#gradient1)" fill-rule="evenodd" stroke="none"/>
      <path d="M-5.1 -6.2 L-1.6 -10.9 Q-4.1 -0.85 -3.05 10.45 L-7.05 8.05 -6.0 6.75 Q-4.2 4.1 -3.85 0.35 -3.6 -3.45 -5.05 -6.1 L-5.1 -6.2" fill="#595959" fill-rule="evenodd" stroke="none"/>
      <path d="M13.6 -0.95 L13.65 -2.75 Q13.8 -6.4 14.4 -10.05 15.5 0.1 14.4 10.65 13.45 4.85 13.6 -0.95" fill="#404040" fill-rule="evenodd" stroke="none"/>
      <path d="M13.65 -2.75 L13.6 -0.95 4.95 -1.55 13.65 -2.75" fill="#919191" fill-rule="evenodd" stroke="none"/>
      <path d="M13.65 -2.75 L13.6 -0.95 Q13.45 4.85 14.4 10.65 15.5 0.1 14.4 -10.05 13.8 -6.4 13.65 -2.75 M-9.75 -8.7 L-8.7 -8.8 -8.35 -8.8 Q-6.35 -8.6 -5.1 -6.2 L-5.05 -6.1 Q-3.6 -3.45 -3.85 0.35 -4.2 4.1 -6.0 6.75 L-7.05 8.05 Q-8.35 9.3 -9.85 9.4 L-10.1 9.4 -11.1 9.25 Q-7.35 10.75 -2.75 12.0 L14.4 10.65 M-9.75 -8.7 L-1.15 -11.95 14.4 -10.05 M-11.1 9.25 L-11.6 9.05 Q-12.9 8.4 -13.8 6.65 -15.15 3.95 -14.85 0.2 -14.55 -3.55 -12.8 -6.2 -11.4 -8.25 -9.75 -8.7" fill="none" stroke="#666666" stroke-linecap="round" stroke-linejoin="miter" stroke-width="0.25"/>
      <path d="M-7.2 -3.65 Q-6.45 -1.95 -6.6 0.4 -6.8 2.8 -7.85 4.5 -8.9 6.15 -10.2 6.15 -11.5 6.15 -12.25 4.45 -13.0 2.7 -12.8 0.35 -12.6 -2.05 -11.6 -3.7 -10.5 -5.4 -9.2 -5.4 -7.9 -5.35 -7.2 -3.65 M-6.65 -4.2 Q-5.7 -2.3 -5.95 0.4 -6.2 3.1 -7.45 5.0 -8.7 6.9 -10.3 6.9 -11.85 6.85 -12.8 4.95 -13.7 3.0 -13.4 0.3 -13.2 -2.4 -11.95 -4.25 -10.7 -6.15 -9.1 -6.15 -7.55 -6.15 -6.65 -4.2 M-6.1 -4.75 Q-5.0 -2.6 -5.25 0.4 -5.5 3.4 -7.0 5.55 -8.45 7.65 -10.3 7.65 -12.15 7.6 -13.2 5.45 -14.3 3.3 -14.0 0.3 -13.7 -2.75 -12.25 -4.85 -10.75 -7.0 -8.9 -6.95 -7.1 -6.95 -6.1 -4.75" fill="none" stroke="#666666" stroke-linecap="round" stroke-linejoin="miter" stroke-opacity="0.5921569" stroke-width="0.25"/>
      <path d="M6.6 11.3 L6.3 9.4 Q5.7 5.35 5.7 -0.45 5.7 -6.25 6.3 -10.4 L6.35 -11.0 M5.85 11.35 L5.55 9.4 Q4.95 5.35 4.95 -0.45 4.95 -6.25 5.55 -10.4 L5.65 -11.1 M7.35 11.2 L7.05 9.4 Q6.5 5.35 6.5 -0.45 6.5 -6.25 7.05 -10.4 L7.15 -10.9 M9.6 11.0 L9.3 9.4 Q8.75 5.35 8.75 -0.45 8.75 -6.25 9.3 -10.4 L9.35 -10.65 M8.1 11.15 L7.8 9.4 Q7.25 5.35 7.25 -0.45 7.25 -6.25 7.8 -10.4 L7.85 -10.85 M8.85 11.1 L8.55 9.4 Q8.0 5.35 8.0 -0.45 8.0 -6.25 8.55 -10.4 L8.6 -10.75 M1.75 11.65 L1.35 9.4 Q0.8 5.35 0.8 -0.45 0.8 -6.25 1.35 -10.4 L1.55 -11.6 M1.0 11.7 L0.6 9.4 Q0.05 5.35 0.05 -0.45 0.05 -6.25 0.6 -10.4 L0.8 -11.7 M5.1 11.4 L4.8 9.4 Q4.2 5.35 4.2 -0.45 4.2 -6.25 4.8 -10.4 L4.9 -11.2 M10.35 10.95 L10.1 9.4 Q9.5 5.35 9.5 -0.45 9.5 -6.25 10.1 -10.4 M11.1 10.9 L10.85 9.4 Q10.25 5.35 10.25 -0.45 10.25 -6.25 10.85 -10.4 M11.85 10.85 L11.6 9.4 Q11.05 5.35 11.05 -0.45 11.05 -6.25 11.6 -10.35 M-4.4 -4.7 L-3.95 -10.4 -3.9 -10.75 M-2.7 12.0 L-3.2 9.4 Q-3.75 5.35 -3.75 -0.45 -3.75 -6.25 -3.2 -10.4 L-3.1 -11.1 M-0.45 11.85 L-0.9 9.4 Q-1.5 5.35 -1.5 -0.45 -1.5 -6.25 -0.9 -10.4 L-0.65 -11.9 M-1.25 11.9 L-1.7 9.4 Q-2.25 5.35 -2.25 -0.45 -2.25 -6.25 -1.7 -10.4 L-1.45 -11.8 M-1.95 11.95 L-2.45 9.4 Q-3.0 5.35 -3.0 -0.45 -3.0 -6.25 -2.45 -10.4 L-2.3 -11.45 M-5.8 -7.3 L-5.5 -10.05 M0.3 11.8 L-0.15 9.4 Q-0.7 5.35 -0.7 -0.45 -0.7 -6.25 -0.15 -10.4 L0.1 -11.8 M-5.1 -6.2 L-4.7 -10.4 M-5.2 11.1 L-5.45 9.4 -5.8 6.4 M-3.5 11.7 L-3.95 9.4 -4.45 3.45 M-4.35 11.4 L-4.7 9.4 -5.1 5.2" fill="none" stroke="#666666" stroke-linecap="round" stroke-linejoin="miter" stroke-opacity="0.4509804" stroke-width="0.25"/>
      <path d="M13.75 -4.5 Q12.9 -4.0 12.4 -4.0 L11.8 -3.95 Q11.45 -3.9 11.3 -3.25 10.95 -3.25 10.95 -2.25 10.85 -1.3 9.9 -1.2 L8.6 -1.2 Q8.05 -1.1 7.9 -0.1 L7.95 0.05 8.05 1.65 8.05 2.05 Q7.8 3.2 6.25 3.5 3.95 6.15 3.95 6.95 L4.25 8.0 3.85 9.5 Q3.4 10.65 3.0 10.85 L3.0 11.55 -2.75 12.0 Q-7.35 10.75 -11.1 9.25 L-10.1 9.4 -9.85 9.4 Q-8.35 9.3 -7.05 8.05 L-6.0 6.75 Q-5.15 5.45 -4.6 3.9 -3.65 2.8 -3.65 -0.3 L-3.85 -3.85 Q-3.85 -4.7 -3.45 -5.3 -3.1 -5.85 -3.1 -6.15 -3.1 -6.65 -3.65 -7.0 -4.25 -7.3 -4.25 -7.7 -4.0 -8.7 -4.1 -9.45 L-4.8 -10.6 -1.15 -11.95 14.4 -10.05 13.75 -4.5" fill="url(#gradient2)" fill-rule="evenodd" stroke="none"/>
      <path d="M13.75 -4.5 L14.4 -10.05 -1.15 -11.95 -4.8 -10.6 -9.75 -8.7 -8.7 -8.8 -8.35 -8.8 Q-6.35 -8.6 -5.1 -6.2 L-5.05 -6.1 Q-3.6 -3.45 -3.85 0.35 -4.05 2.25 -4.6 3.9 -5.15 5.45 -6.0 6.75 L-7.05 8.05 Q-8.35 9.3 -9.85 9.4 L-10.1 9.4 -11.1 9.25 Q-7.35 10.75 -2.75 12.0 L3.0 11.55 14.4 10.65 Q13.45 4.85 13.6 -0.95 L13.65 -2.75 13.75 -4.5 M14.4 10.65 Q15.5 0.1 14.4 -10.05 M-11.1 9.25 L-11.6 9.05 Q-12.9 8.4 -13.8 6.65 -15.15 3.95 -14.85 0.2 -14.55 -3.55 -12.8 -6.2 -11.4 -8.25 -9.75 -8.7" fill="none" stroke="#666666" stroke-linecap="round" stroke-linejoin="miter" stroke-width="0.25"/>
    </g>
    <linearGradient gradientTransform="matrix(0.0, 0.0146, -0.0148, 0.0, 2.3, 0.0)" gradientUnits="userSpaceOnUse" id="gradient0" spreadMethod="pad" x1="-819.2" x2="819.2">
      <stop offset="0.0784313725490196" stop-color="#4d4d4d"/>
      <stop offset="0.39215686274509803" stop-color="#9b9b9b"/>
      <stop offset="0.596078431372549" stop-color="#cccccc"/>
      <stop offset="0.7490196078431373" stop-color="#c8c8c8"/>
      <stop offset="1.0" stop-color="#444444"/>
    </linearGradient>
    <linearGradient gradientTransform="matrix(9.0E-4, -0.0111, 0.0067, 1.0E-4, -9.5, 0.3)" gradientUnits="userSpaceOnUse" id="gradient1" spreadMethod="pad" x1="-819.2" x2="819.2">
      <stop offset="0.0784313725490196" stop-color="#4d4d4d"/>
      <stop offset="0.39215686274509803" stop-color="#9b9b9b"/>
      <stop offset="0.596078431372549" stop-color="#cccccc"/>
      <stop offset="0.7490196078431373" stop-color="#c8c8c8"/>
      <stop offset="1.0" stop-color="#444444"/>
    </linearGradient>
    <linearGradient gradientTransform="matrix(-0.0076, -9.0E-4, 0.0018, -0.0143, 3.3, -2.35)" gradientUnits="userSpaceOnUse" id="gradient2" spreadMethod="pad" x1="-819.2" x2="819.2">
      <stop offset="0.4117647058823529" stop-color="#6b64b5"/>
      <stop offset="1.0" stop-color="#1f2558"/>
    </linearGradient>
  </defs>
</svg>
