<?xml version="1.0" encoding="UTF-8" standalone="no"?>
<svg xmlns:xlink="http://www.w3.org/1999/xlink" height="32.45px" width="19.0px" xmlns="http://www.w3.org/2000/svg">
  <g transform="matrix(1.0, 0.0, 0.0, 1.0, 9.5, 16.15)">
    <use height="32.45" transform="matrix(1.0, 0.0, 0.0, 1.0, -9.5, -16.15)" width="19.0" xlink:href="#shape0"/>
  </g>
  <defs>
    <g id="shape0" transform="matrix(1.0, 0.0, 0.0, 1.0, 9.5, 16.15)">
      <path d="M9.25 -8.45 Q8.95 -7.75 6.55 -7.25 L0.05 -6.7 -6.55 -7.25 Q-9.2 -7.85 -9.25 -8.65 -9.25 -9.5 -6.55 -10.05 L0.05 -10.65 6.55 -10.05 Q9.05 -9.55 9.25 -8.8 L9.25 -8.65 9.25 -8.45" fill="url(#gradient0)" fill-rule="evenodd" stroke="none"/>
      <path d="M-9.25 -8.65 Q-9.2 -7.85 -6.55 -7.25 L0.05 -6.7 6.55 -7.25 Q8.95 -7.75 9.25 -8.45 L9.25 14.1 Q9.25 14.9 6.55 15.5 L0.05 16.05 -6.55 15.5 Q-9.25 14.9 -9.25 14.1 L-9.25 -8.65" fill="url(#gradient1)" fill-rule="evenodd" stroke="none"/>
      <path d="M-9.25 -8.65 Q-9.2 -7.85 -6.55 -7.25 L0.05 -6.7 6.55 -7.25 Q8.95 -7.75 9.25 -8.45 L9.25 -8.65 9.25 -8.8 Q9.05 -9.55 6.55 -10.05 L0.05 -10.65 -6.55 -10.05 Q-9.25 -9.5 -9.25 -8.65 L-9.25 14.1 Q-9.25 14.9 -6.55 15.5 L0.05 16.05 6.55 15.5 Q9.25 14.9 9.25 14.1 L9.25 -8.45" fill="none" stroke="#666666" stroke-linecap="round" stroke-linejoin="miter" stroke-width="0.5"/>
      <path d="M9.25 -5.4 Q8.9 -4.75 6.5 -4.2 L0.05 -3.65 -6.55 -4.2 Q-9.25 -4.8 -9.25 -5.6 M9.25 -4.65 Q8.9 -4.0 6.5 -3.45 L0.05 -2.9 -6.55 -3.45 Q-9.25 -4.05 -9.25 -4.85 M9.25 -3.9 Q8.9 -3.25 6.5 -2.7 L0.05 -2.15 -6.55 -2.7 Q-9.25 -3.3 -9.25 -4.1 M9.25 -2.4 Q8.9 -1.7 6.5 -1.2 L0.05 -0.6 -6.55 -1.2 Q-9.25 -1.8 -9.25 -2.6 M9.25 -1.65 Q8.9 -0.95 6.5 -0.45 L0.05 0.15 -6.55 -0.45 Q-9.25 -1.0 -9.25 -1.8 M9.25 -3.15 Q8.9 -2.45 6.5 -1.95 L0.05 -1.4 -6.55 -1.95 Q-9.25 -2.55 -9.25 -3.35 M9.25 0.6 Q8.9 1.35 6.5 1.8 L0.05 2.4 -6.55 1.8 Q-9.25 1.25 -9.25 0.45 M9.25 4.8 Q8.9 5.5 6.5 6.0 L0.05 6.55 -6.55 6.0 Q-9.25 5.4 -9.25 4.6 M9.25 1.4 Q8.9 2.1 6.5 2.6 L0.05 3.15 -6.55 2.6 Q-9.25 2.0 -9.25 1.2 M9.25 9.35 Q8.9 10.05 6.5 10.55 L0.05 11.15 -6.55 10.55 Q-9.25 10.0 -9.25 9.2 M9.25 7.8 Q8.9 8.55 6.5 9.05 L0.05 9.6 -6.55 9.05 Q-9.25 8.5 -9.25 7.65 M9.25 8.55 Q8.9 9.3 6.5 9.8 L0.05 10.35 -6.55 9.8 Q-9.25 9.25 -9.25 8.45 M9.25 6.3 Q8.9 7.0 6.5 7.5 L0.05 8.1 -6.55 7.5 Q-9.25 6.95 -9.25 6.15 M9.25 7.05 Q8.9 7.75 6.5 8.3 L0.05 8.85 -6.55 8.3 Q-9.25 7.75 -9.25 6.9 M9.25 10.9 Q8.9 11.55 6.5 12.1 L0.05 12.65 -6.55 12.1 Q-9.25 11.5 -9.25 10.7 M9.25 10.1 Q8.9 10.8 6.5 11.35 L0.05 11.9 -6.55 11.35 Q-9.25 10.75 -9.25 9.95 M9.25 5.55 Q8.9 6.25 6.5 6.75 L0.05 7.35 -6.55 6.75 Q-9.25 6.15 -9.25 5.35 M9.25 -0.9 Q8.9 -0.2 6.5 0.3 L0.05 0.9 -6.55 0.3 Q-9.25 -0.25 -9.25 -1.05 M9.25 -0.15 Q8.9 0.6 6.5 1.05 L0.05 1.65 -6.55 1.05 Q-9.25 0.5 -9.25 -0.3 M9.25 11.65 Q8.9 12.3 6.5 12.85 L0.05 13.4 -6.55 12.85 Q-9.25 12.25 -9.25 11.45" fill="none" stroke="#666666" stroke-linecap="round" stroke-linejoin="miter" stroke-opacity="0.4509804" stroke-width="0.25"/>
      <path d="M6.1 -7.9 Q3.35 -8.35 -0.1 -9.8 -3.55 -11.35 -5.75 -13.0 -7.95 -14.65 -7.6 -15.5 -7.25 -16.35 -4.5 -15.85 -1.8 -15.4 1.7 -13.9 5.1 -12.4 7.3 -10.75 9.5 -9.1 9.15 -8.25 8.8 -7.4 6.1 -7.9 M0.75 -11.35 L4.55 -9.95 Q6.15 -9.45 6.3 -9.7 6.4 -9.95 4.9 -10.8 L1.3 -12.55 -2.6 -14.0 -4.25 -14.25 Q-4.4 -14.05 -2.95 -13.2 -1.45 -12.35 0.75 -11.35 -1.45 -12.35 -2.95 -13.2 -4.4 -14.05 -4.25 -14.25 L-2.6 -14.0 1.3 -12.55 4.9 -10.8 Q6.4 -9.95 6.3 -9.7 6.15 -9.45 4.55 -9.95 L0.75 -11.35 M6.9 -9.4 Q7.05 -9.8 5.4 -10.9 3.7 -11.9 1.25 -12.95 -1.25 -14.1 -3.1 -14.55 L-5.2 -14.6 Q-5.4 -14.2 -3.75 -13.15 -2.1 -12.15 0.45 -11.0 2.9 -9.95 4.8 -9.45 L6.9 -9.4 4.8 -9.45 Q2.9 -9.95 0.45 -11.0 -2.1 -12.15 -3.75 -13.15 -5.4 -14.2 -5.2 -14.6 L-3.1 -14.55 Q-1.25 -14.1 1.25 -12.95 3.7 -11.9 5.4 -10.9 7.05 -9.8 6.9 -9.4 M7.55 -9.1 Q7.75 -9.7 6.0 -10.9 L1.4 -13.35 Q-1.4 -14.55 -3.5 -15.0 L-5.9 -14.9 Q-6.15 -14.35 -4.3 -13.05 -2.55 -11.8 0.25 -10.6 3.0 -9.45 5.15 -9.0 L7.55 -9.1 5.15 -9.0 Q3.0 -9.45 0.25 -10.6 -2.55 -11.8 -4.3 -13.05 -6.15 -14.35 -5.9 -14.9 L-3.5 -15.0 Q-1.4 -14.55 1.4 -13.35 L6.0 -10.9 Q7.75 -9.7 7.55 -9.1" fill="url(#gradient2)" fill-rule="evenodd" stroke="none"/>
      <path d="M6.1 -7.9 Q3.35 -8.35 -0.1 -9.8 -3.55 -11.35 -5.75 -13.0 -7.95 -14.65 -7.6 -15.5 -7.25 -16.35 -4.5 -15.85 -1.8 -15.4 1.7 -13.9 5.1 -12.4 7.3 -10.75 9.5 -9.1 9.15 -8.25 8.8 -7.4 6.1 -7.9" fill="none" stroke="#666666" stroke-linecap="round" stroke-linejoin="miter" stroke-width="0.25"/>
      <path d="M7.55 -9.1 L5.15 -9.0 Q3.0 -9.45 0.25 -10.6 -2.55 -11.8 -4.3 -13.05 -6.15 -14.35 -5.9 -14.9 L-3.5 -15.0 Q-1.4 -14.55 1.4 -13.35 L6.0 -10.9 Q7.75 -9.7 7.55 -9.1 M6.9 -9.4 L4.8 -9.45 Q2.9 -9.95 0.45 -11.0 -2.1 -12.15 -3.75 -13.15 -5.4 -14.2 -5.2 -14.6 L-3.1 -14.55 Q-1.25 -14.1 1.25 -12.95 3.7 -11.9 5.4 -10.9 7.05 -9.8 6.9 -9.4 M0.75 -11.35 Q-1.45 -12.35 -2.95 -13.2 -4.4 -14.05 -4.25 -14.25 L-2.6 -14.0 1.3 -12.55 4.9 -10.8 Q6.4 -9.95 6.3 -9.7 6.15 -9.45 4.55 -9.95 L0.75 -11.35" fill="none" stroke="#666666" stroke-linecap="round" stroke-linejoin="miter" stroke-opacity="0.5921569" stroke-width="0.25"/>
      <path d="M-5.05 -2.45 L-4.5 -2.95 Q-3.95 -2.45 -3.3 -2.3 L-1.15 -1.6 -0.75 -1.4 -0.75 -1.45 -0.7 -1.4 Q1.7 -0.6 3.05 -2.35 L3.55 -2.55 3.9 -2.95 4.0 -3.3 4.1 -3.5 Q4.75 -3.55 5.15 -4.1 L6.2 -5.0 Q6.55 -5.2 6.7 -5.55 L7.75 -5.8 Q8.5 -6.15 8.75 -6.85 L8.95 -7.45 9.25 -7.45 9.25 0.85 Q9.05 1.6 6.55 2.1 L0.05 2.65 -0.25 2.65 -5.05 -2.45 M9.25 4.25 L9.25 11.35 8.7 11.3 Q8.05 11.5 7.5 11.95 L7.15 12.35 Q6.85 12.35 6.65 12.6 L6.1 13.25 5.55 13.05 Q4.9 13.05 4.45 13.55 L4.1 13.7 3.95 13.65 3.25 13.6 2.9 13.85 2.65 14.0 2.55 14.0 Q2.1 13.6 1.5 13.7 L0.3 14.15 -0.65 14.45 Q-1.45 13.65 -2.5 14.2 L-3.9 15.0 -6.55 14.6 Q-9.2 14.05 -9.25 13.25 L-9.2 5.75 -6.25 11.95 -0.5 6.05 0.05 6.05 6.55 5.5 Q9.05 5.0 9.25 4.25 M-9.2 2.05 L-9.2 -1.4 Q-8.95 -1.1 -8.9 -1.3 L-7.15 -1.5 -9.2 2.05 M-6.15 9.1 L-8.7 3.8 -5.95 -0.85 -1.3 4.15 -6.15 9.1" fill="url(#gradient3)" fill-rule="evenodd" stroke="none"/>
      <path d="M9.25 0.85 L9.25 4.25 Q9.05 5.0 6.55 5.5 L0.05 6.05 -0.5 6.05 -6.25 11.95 -9.2 5.75 -9.2 2.05 -7.15 -1.5 -7.0 -1.45 Q-6.25 -1.25 -5.7 -1.8 L-5.05 -2.45 -0.25 2.65 0.05 2.65 6.55 2.1 Q9.05 1.6 9.25 0.85 M-6.15 9.1 L-1.3 4.15 -5.95 -0.85 -8.7 3.8 -6.15 9.1" fill="#7374b7" fill-rule="evenodd" stroke="none"/>
    </g>
    <linearGradient gradientTransform="matrix(0.0113, 0.0, 0.0, 0.0024, 0.0, -8.65)" gradientUnits="userSpaceOnUse" id="gradient0" spreadMethod="pad" x1="-819.2" x2="819.2">
      <stop offset="0.1843137254901961" stop-color="#4d4d4d"/>
      <stop offset="0.5568627450980392" stop-color="#000000"/>
      <stop offset="0.8431372549019608" stop-color="#808080"/>
    </linearGradient>
    <linearGradient gradientTransform="matrix(0.0113, 0.0, 0.0, 0.0151, 0.0, 3.7)" gradientUnits="userSpaceOnUse" id="gradient1" spreadMethod="pad" x1="-819.2" x2="819.2">
      <stop offset="0.0784313725490196" stop-color="#4d4d4d"/>
      <stop offset="0.39215686274509803" stop-color="#9b9b9b"/>
      <stop offset="0.596078431372549" stop-color="#cccccc"/>
      <stop offset="0.7490196078431373" stop-color="#c8c8c8"/>
      <stop offset="1.0" stop-color="#444444"/>
    </linearGradient>
    <linearGradient gradientTransform="matrix(0.0102, 0.0044, -0.0011, 0.0025, 0.75, -11.9)" gradientUnits="userSpaceOnUse" id="gradient2" spreadMethod="pad" x1="-819.2" x2="819.2">
      <stop offset="0.0784313725490196" stop-color="#4d4d4d"/>
      <stop offset="0.39215686274509803" stop-color="#9b9b9b"/>
      <stop offset="0.596078431372549" stop-color="#cccccc"/>
      <stop offset="0.7490196078431373" stop-color="#c8c8c8"/>
      <stop offset="1.0" stop-color="#444444"/>
    </linearGradient>
    <linearGradient gradientTransform="matrix(0.0113, 0.0, 0.0, 0.0151, 0.0, 3.7)" gradientUnits="userSpaceOnUse" id="gradient3" spreadMethod="pad" x1="-819.2" x2="819.2">
      <stop offset="0.0" stop-color="#363f85"/>
      <stop offset="0.4117647058823529" stop-color="#2132c5"/>
      <stop offset="1.0" stop-color="#1f2558"/>
    </linearGradient>
  </defs>
</svg>
